<?xml version="1.0" encoding="utf-8"?>
<!-- Generator: Adobe Illustrator 23.0.4, SVG Export Plug-In . SVG Version: 6.00 Build 0)  -->
<svg version="1.1" xmlns="http://www.w3.org/2000/svg" xmlns:xlink="http://www.w3.org/1999/xlink" x="0px" y="0px"
	 viewBox="0 0 888.5 1641.9" style="enable-background:new 0 0 888.5 1641.9;" xml:space="preserve">
<style type="text/css">
	.st0{fill:#432F1A;}
	.st1{fill:#040302;}
	.st2{fill:#F0E19A;}
	.st3{fill:#FFFFFF;}
	.st4{fill:#FF9322;}
	.st5{fill:#1E1D13;}
	.st6{fill:#F68D20;}
	.st7{fill:#303031;}
	.st8{fill:#4C2907;}
	.st9{fill:#3E2C13;}
	.st10{fill:#4D4A32;}
	.st11{fill:#494630;}
	.st12{fill:#B3B3B3;}
	.st13{fill:#0A0A0A;}
	.st14{fill:#050505;}
	.st15{fill:#070707;}
	.st16{fill:#2B2B2B;}
	.st17{fill:#FFFDFB;}
	.st18{fill:#010101;}
	.st19{fill:#040404;}
	.st20{fill:#030303;}
	.st21{fill:#060606;}
	.st22{fill:#090909;}
	.st23{fill:#181818;}
	.st24{fill:#0F0F0F;}
	.st25{fill:#131313;}
	.st26{fill:#F1F1F1;}
	.st27{fill:#EAEAEA;}
</style>
<g id="Layer_1">
	<title>Assign_language</title>
	<g>
		<path class="st0" d="M671.7,181.6c5-4,10.6-6.8,16.4-9.4c16.7-6.8,31.1-17.6,46.8-26.2c22.5-12.3,44.7-25.1,67.8-36.2
			c8-3.8,11.2-2.2,11.8,6.5c0.7,10.9,2.1,21.8,2.4,32.8c2.2,72.9,0.9,145.9,2.4,218.8c0.7,33.9-0.5,68,2,101.8
			c1.4,20.2-0.6,40.6,3.2,60.7c0.6,3,0.6,6-0.1,9c-6.2,27-3.6,54.2-1.9,81.4c1,15.3-0.6,30.5-1.4,45.8c-1.3,25.9,1.1,51.8-0.1,77.7
			c-3.8,81.5-1.4,163.1-2,244.6c-0.1,7.4-1.7,14.6-2.4,21.8c-0.5,4.7-3.5,7.8-6.8,10.7c-9.5,8.4-20.4,15-31.1,21.7
			c-52.4,33-102.7,69.1-153.8,104c-23.9,16.3-47.6,33-72.5,47.9c-9.8,5.9-13.3,4.3-13.2-7.2c0.6-39.6-1-79.2,1.3-118.9
			c1.6-27.5,2.7-55.1,4.9-82.6c2.6-32.1,6.5-64.1,10.6-96.1c9.4-74.3,27.2-147,40.5-220.5c12.4-68.6,24-137.4,34.1-206.4
			c5.4-36.8,9.5-73.8,12.9-110.8c4.4-48,8.1-95.9,11.8-143.9C656.3,196.1,660.1,186.7,671.7,181.6z"/>
		<path class="st1" d="M671.7,181.6c2.5,4.2-1.8,4.3-3.6,5c-5.9,2.4-8,6-8.5,12.8c-1.9,22.8-3.6,45.6-5.9,68.4
			c-2.1,20.8-2.4,41.7-5.3,62.4c-2.3,16.7-2.4,33.8-4.6,50.5c-1.8,14.1-3,28.3-5.3,42.4c-2.8,16.3-3.9,32.9-6.5,49.2
			c-3.6,22.9-6.7,45.9-11.1,68.7c-4.2,21.8-7.3,43.8-10.8,65.7c-5.1,31.7-10.7,63.4-16.8,94.9c-8.4,43.6-18.3,86.9-25.6,130.7
			c-4.1,24.8-7.3,49.8-11.2,74.7c-2.3,14.7-2.5,29.8-4.6,44.5c-2.7,18.4-2.9,37-5.4,55.4c-1.4,10.5-1.3,21.2-1.9,31.8
			c-3,51.9-2.8,103.8-2.4,155.8c0.1,0.6,0.4,1.2,0.7,1.8c2.6,0.7,4.3-1.1,6.2-2.3c44.8-29.3,89.1-59.2,133-89.9
			c34.8-24.5,70.2-48.1,106.5-70.3c2.8-1.7,5.6-3.6,8.3-5.6c18.3-13.7,19-14.8,19-37.8c0.2-55,0.2-110,0.3-165
			c0-10.2,0.6-20.4,0.1-30.7c-1-21.6,1.6-43.2,2.3-64.8c0.6-17.3-1.1-34.4-0.8-51.6c0.3-16.3,3.5-32.5,2-48.8
			c-2.3-24.6-1.5-49.2-1.7-73.8c0-4.5-0.1-8.8,2.8-13.2s1.6-10.4,0.3-15.6c-0.7-3.2-1.1-6.6-1.1-9.9c-1.9-42.6-0.7-85.2-2.5-127.8
			c-2.6-61.6,0.3-123.2-1.9-184.8c-0.8-22.9-1.1-45.9-1.9-68.8c-0.2-6.9-1.8-13.8-1.9-20.8c-0.1-5.7-1.8-6.6-6.8-4.2
			c-6.9,3.2-13.8,6.7-20.5,10.3c-29.8,16.3-59.7,32.3-88.7,49.9c-2.2,1.3-4.5,4.7-7.8,1.5C720.9,151,755,132.2,789.4,114
			c5-2.6,9.9-5.5,15.1-7.7c4.6-1.9,5.7-4.7,4.9-9.3c-2.9-17.1-2.7-34.7,0.8-51.7c4.2-21.6,17.4-36.4,37.8-44
			c9.9-3.7,18.2,1.2,25.3,7.9c5.7,5.4,8.7,12.5,10.8,20c6.2,22.7,5.3,45.5,0.6,68.3c-2.4,11.7-5.6,23.3-8.9,34.8
			c-5.1,17.8-5.5,36.2-6.8,54.4c-0.5,7.6-1,15.3-0.9,23c0.2,28.3-1.1,56.6-4.1,84.8c-3.3,30.5-2.5,61.2-3.5,91.9
			c-0.5,16-0.5,32-0.4,48c0,22.3,3.2,44.5,3.2,66.9c0,12,1.1,24,1.2,36c0.4,51.7,3.6,103.3,2.2,154.9c-1.1,43-2.5,85.9-3.7,128.9
			c-0.3,10.3-0.5,20.7-0.7,31c-0.8,48-2.2,96-2.1,144c0.1,71.3-0.8,142.6,2.5,213.9c2.5,54.9,8,109.6,12.5,164.4
			c1.1,13.9,1.2,28,3.1,41.8c0.6,3-0.3,6.1-2.4,8.3c-11.9,13.4-23.7,27-36,41.1c-4.2-3.3-7.8-6.1-11.3-9
			c-17.7-14.7-37.5-26.6-54.5-42.2c-1.9-1.7-4.8-2.7-4.5-6c-1.3-4.7,0.8-5.6,4.6-3.9c4.9,2.3,8.8,6,12.9,9.4
			c12.7,10.7,25.8,20.9,40.8,29.9c-3.2-40-10.5-79.4-12.3-119.2s-5.5-79.6-4.7-119.6c0.7-40.2,0.2-80.4-1-121.3
			c-12.1,8-24,15.5-34.3,25.1c-2.2,2.1-2.9,5.2-3.6,8.1c-0.8,3.3-1.1,6.6-1,9.9c1.4,70.9-3.3,141.8-1.9,212.7
			c0.3,15.9,1.9,31.9,3.1,47.8c0.4,4.6,2.4,10.1-4,12.7c-2.6-11.1-3.3-22.4-4-33.6c-3.6-60.2-2.4-120.4-2.2-180.6
			c0.1-20.6,0.8-41.2,1.1-61.9c0.1-3.2,0-6.4,0-9.4c-3.6-1.1-5.1,1.2-6.6,2.6c-27.9,24.4-59.7,43.4-88.8,66.1
			c-27.8,21.7-56.1,42.8-84.1,64.1c-5,3.8-9.6,8.2-15.4,10.9c-4.6-3.7-0.4-5.8,1.8-7.5c7.7-5.8,14.9-12.3,22.6-18.2
			c45.5-34.8,90.9-69.6,136.9-103.7c24.5-18.2,49.5-35.9,73.6-54.8c7.6-6,11.4-12,10.7-21.7c-0.5-7.7-1.5-15.2-2.6-22.6
			c-1.5-1.2-2.6-0.3-3.7,0.4c-63.6,42-126.6,84.8-189.8,127.5c-21.2,14.3-41.9,29.5-64.6,41.6c-5.8,3.1-8.8,7.8-8.6,14.5
			c0.4,15.3,3.2,30.5,2,45.8c-0.4,4.8,4.6,6.2,5.4,10c-4.8,3.1-6.8,6.9-6.2,13.2c2.8,29.8,4.9,59.7,7.5,89.6
			c2.1,24.2,3,48.5,6.1,72.7c3.2,24.8,9,49.1,13.6,73.7c3.1,16.3,6.2,32.7,9.8,48.9c1,4.4,0.3,7.8-2.2,11.2
			c-1.8,2.4-3.5,4.9-5.5,7.1c-14.6,16.9-28.6,34.2-41.6,52.4c-3.2,4.4-5.7,4.8-10.5,2.2c-16.2-9-32.8-17.4-49.3-26
			c-1.2-5.5-0.5-10.9-0.5-15.7c1.9-0.9,2.8-0.8,2.9-0.1c1.8,11.5,10.7,15.5,19.9,19.6c7.3,3.2,14.4,6.8,21.3,10.8
			c3.2,1.9,6.5,3.4,10.3,1.6c4.4-1.6,6.7-5.4,9.4-8.8c10.2-13.2,20.4-26.4,31.3-38.9c4.9-5.6,6.1-11,4.5-18.2
			c-9.7-44.3-19.8-88.5-24.5-133.6c-3.2-31.1-4-62.4-7.3-93.6c-3.7-35.1-4.9-70.4-7.6-105.6c-0.3-4.3-0.4-8.7-0.4-13
			c0-32.7-0.1-65.3,0-98c0.5-105.2,11.1-209.5,29.8-312.9c11.6-64.3,26.7-127.9,36.9-192.4c11-69.8,24.2-139.2,32.2-209.4
			c4.6-40.7,8.7-81.4,11.4-122.3c1.6-23.6,3.9-47.1,6.6-70.6s2.5-47.3-7-69.8c-1.9-4.6-4.1-9.2-7.2-13.1c-14.6-18-36.2-28-59.2-6.3
			c-20.9,19.8-24.8,44.1-19.6,70.7c9.6,48.7,16.1,98,19.5,147.5c4,60.1,2.9,120.3-5.2,180.4c-10.7,79.9-18.2,160.2-32.3,239.7
			c-9.5,53.5-21.4,106.5-26.7,160.7c-5.5,56.3-13.1,112.5-17.7,168.9c-5.1,63.2-4.3,126.5-3.2,189.8c1,55.9,6.5,111.6,12.8,167.2
			c5,44.3,8.2,88.9,14.6,133.1c1.5,10.6,3.7,21,6,31.4c0.9,4.2,2.5,8.5-1,12.3c-6.5-1.2-6.5-7-7.7-11.4c-7-26.2-10-53-13.2-79.8
			c-6.1-51.6-11.7-103.3-16.9-155c-2.6-25.8-5.3-51.8-4.9-77.7c0.5-36.7-2.9-73.2-2.3-109.9c1-63.3,4.8-126.4,12.8-189.3
			c6-47.2,9-94.9,17.1-141.9c6.5-37.7,13.4-75.4,21.5-112.8c0.6-2.8,1.4-5.5,2.5-8.1c-4.6,22.4-12.8,44-16.3,66.7
			c-9.6,64.6-23.6,128.4-34.4,192.9c-8.9,52.2-14.7,104.9-17.4,157.8c-2.6,53.7-2.2,107.3-1.1,160.9c0.9,44.6,0.8,89.2,3.7,133.8
			c2.7,41.2,5.6,82.4,9.2,123.5c0.6,6.9,4.2,15.2-4.2,20.6c-3-25.1-4.3-50.4-6.5-75.6c-7-78.1-7.1-156.4-9.3-234.7
			c0-4-1.6-7.7-4.4-10.6c-11.7-13.1-26.3-22.4-41.2-31.3c-28-16.7-56.7-32.3-84-50.3c-16.4-10.8-32.7-21.8-49.2-32.5
			c-2.7-1.8-5.2-4.1-9.6-4.8c-0.1,2.7-0.3,5.2-0.3,7.7c0.3,36.3-0.8,72.7,1.3,109c0.4,8,0.2,16,0.2,24c-0.3,45.7,0.3,91.3,5,136.7
			c1,9.7-1,16.5-7.3,23.3c-8.1,8.8-15.4,18.4-24.3,26.5c-5.7,5.3-5.7,5.3-12.9,1c-0.1-14.7-2.5-29.1-4.2-43.7
			c-2.2-19,0.7-37.9,2.2-56.8c3.5-43.2,5.6-86.4,0-129.6c-3.6-27.5-2.7-55.2-2.7-82.8c0-9.7-0.7-19.3-1.3-28.9
			c-0.6-9.8-4.9-16.2-13.3-20.5c-3.2-1.7-6.3-3.8-9.6-5.3s-6.8-6.6-10.5-3.6c-3,2.4-1.2,7.6-0.9,11.5c2.1,35.2,4.2,70.4,6.2,105.6
			c1.9,32.8,0.2,65.3-0.9,97.8c-1.2,36.2-3.4,72.5-8.1,108.5c-0.9,6.7-2,13.1,0.9,19.6c1.2,2.8,0.9,5.5-3.5,3.9
			c-4.5-0.9-6.9-3.3-6.3-8.2c0.3-2.6,0.3-5.3,0.5-7.9c1.8-3.2-0.2-7,1.5-10.2c1.9-31.6,3.7-63.1,5.8-94.7c4-58,2.7-115.8-0.9-173.7
			c-1.3-19.9-1.3-40-3-59.9c-1.4-15.2-1.5-30.5-3-45.7c-0.5-4.9-2.2-6.3-6.8-5.8c-7,0.7-13.8,2-20.6,3.8c-6.1,1.6-12.5,2-18.8,1.2
			c-11.7-1.2-18.7-7.8-22.8-18.2c-3.1-7.8-4.3-16-5.5-24.3c-3.5-23.4-7.5-46.7-12.8-69.7C86.3,925,78.5,904,68.2,884.1
			c-13.4-25.9-27.3-51.2-45.2-74.1c-5.8-7.4-11.9-14.4-21.1-17.8c-1.3-0.5-2.2-1.4-1.6-4.3c6.3,0.2,12.6-0.4,18.7-1.8
			c6.6-1.3,12.6-4.8,16.8-10C47,762.4,54.2,747,54.2,728.8c0-4.2-0.3-8.6,2.2-12.8c4.6,3.9,5.8,9.2,7.6,14.1
			c7.5,19.8,21.8,26.4,40.7,24.7c7-0.6,12.9-2.9,15.9-10.1c0.8-2,2.6-3.7,4.2-5.8c4,4.2,3.9,9.4,4.5,14.1
			c1.4,10.5,6.5,18.5,14.3,25.4c8.4,7.3,17.1,13.8,28.1,16.5c1.6,0.4,3.2,1,4.8,0.2c0.6-0.8,0.5-1.9-0.1-2.6
			c-18.4-29-18.1-58.2-0.9-87.6c5-8.6,9.5-17.5,14.2-26.3c2.8-5,3.3-11,1.5-16.4c-10.6-35-20.8-70.1-31.8-105
			c-11.7-37.2-26.6-73.2-45.7-107.3c-3.7-6.7-8-13-12-19.5c-0.7-2,0.5-2.9,2.2-3.3c8.1,2.8,10.9,10.4,14.7,16.7
			c17.6,28.8,30.9,59.7,42.1,91.4c18.2,51.8,31.8,105.1,47.7,157.6c2.9,9.2,4.5,18.7,4.9,28.3c1.3-1.6,1.5-4,3-5.7
			c4.3-4.8,8.7-9.7,15.8-9c7.7,0.8,9.5,7.3,11.7,13.3c2.1,6,3.1,12.3,2.9,18.6c-0.1,4.3,0,8.6,1.3,12.8c5.8,18,17.5,24.9,36,20.9
			c17.3-3.7,34-9.5,49.9-17.1c8.7-4.2,17.1-8.9,26-12.7c1.9-0.7,3.6-1.7,5.1-2.9c28.2-17.9,54.2-38.3,75.4-64.5
			c16.7-20.7,14.6-52.9-5.5-70.8c-2.8-2.4-6.4-3.7-10.1-3.5c-10.6,0-21.2-0.1-31.8,1.6c-6.2,1-9.5,3.8-11.3,9.5
			c-3.3,10.8-6.6,21.6-9.1,32.7c-0.9,3.8-1,8.1-5.4,10.1c-3.9-1.3-3.6-4.8-4-7.9c1.1-13.7,5-26.8,9.5-39.7c2.3-6.7,2.1-11.6-3-17.1
			c-9-9.8-18.7-17.1-32.3-20.1c-29.8-6.6-50.9-25.3-64.8-51.9c-8.3-15.9-7.3-32.9-1.6-49.5c2-5.6,0.7-7.6-5-8.7
			c-46.5-9.5-90.5-27-135-42.5c-12-4.2-24.2-7.4-36.1-11.6c-3.7-1.3-8.1-1.4-9.6-6.1c0.9-3,3-2.5,5.2-1.8
			c14.7,1.8,28.4,7.1,42.2,11.8c39.7,13.7,79,28.3,119.5,39.3c6.1,1.6,12.2,3.4,18.6,3.6s12,0,17.5-4.8c6.6-5.8,15-5.1,22.6-1.3
			c4.1,2.1,7.9,5,11.7,7.6c11.7,8,24.3,13.6,38.5,15.7c21.6,3.2,32.4-9.2,38.1-27c0.9-2.8,1-5.9,1.5-8.8
			c3.8-22.1,13.9-41.5,26.4-59.8c18.6-27.3,31.5-57,37.9-89.5c4.3-22.2,3.2-44.4,0.7-66.7c-0.6-5.4-4.9-10.1-3.2-16.3
			c3.9,1.9,4.4,5.5,5.5,8.5c9.1,24.6,23,46.7,37.8,67.9c14.3,20.7,33.5,37,55.6,49.5c1.3,0.9,2.9,1.2,4.5,0.7
			c-1-16.3-2.5-32.8-4.8-49.2c-4-29.7-8.8-59.3-13.8-88.9c-4.3-25.7,0.2-50.4,19.7-69.3c27.2-26.5,55.7-23.8,77.6,6.9
			c11,15.3,13.9,33.7,15.2,52.1c0.1,1.9-0.4,4,0.8,5.9C665,185.9,667.8,182,671.7,181.6z"/>
		<path class="st0" d="M526,1631.8c-0.2,4.4-2.5,3.8-5.3,2.2c-6.4-3.5-12.8-7-19.3-10.4c-4.7-2.5-9.5-4.8-14.3-7.1
			c-10.7-5.2-10.7-5.2-12.2-18.4l-1.2,16.2c-2.7-6-0.9-12.3-1.4-18.4c3.4-7.7,1.5-15.6,0.9-23.4c-0.2-2.3-1-4.6-1-6.9
			c-0.2-22.3-3.1-44.4-4.5-66.5c-1.6-25.5-2.5-51.1-4.1-76.6c-1.8-28.6,0-57.3-1.8-85.8c-3.4-53.9-1.8-107.9-1.1-161.8
			c0.3-24.8,2.2-49.7,4.9-74.4c2.1-19.1,4.3-38.2,6.7-57.2c2.8-22,6.5-43.9,10.3-65.8c5.6-31.6,11.9-63.2,17.7-94.7
			c4-21.5,8.7-42.9,11.4-64.5c3.4-27.6,12.3-53.5,20.1-79.9c0.5-1.1,1-2.2,1.7-3.3c1.5,7.2-1,13.3-2,19.2
			c-6.7,38.2-14.4,76.1-20.9,114.3c-3.1,17.9-4.5,36.2-6.8,54.2c-2.7,21.4-3.9,42.9-7.2,64.2c-2.3,14.7-2.4,29.8-4.7,44.5
			c-2.6,17.1-3.9,34.3-5.2,51.4c-1.5,19.5-2.1,39.2-3,58.8c-1.2,27.6-2.4,55.3-1.1,82.8c1.4,30.3,0.1,60.6,2,90.8
			c1.4,22.1,2.4,44.3,5,66.4c1.8,15.4,3.5,30.9,4.7,46.5s3.7,30.9,5.5,46.3c1.6,14.2,2.6,28.4,4.4,42.5c2.9,22.7,5,45.4,9.2,67.9
			c2.3,12.4,4.1,24.9,8.5,36.8c0.6,1.6,0.7,3.3,2.3,4.2c0.3,0.2,0.5,0.5,0.8,0.7c0.8,1.2,1.2,2.7,1.2,4.1L526,1631.8z"/>
		<path class="st0" d="M768.2,1399.8c3.1-3.5,2.2-7.8,1.3-11.4c-1.7-6.3-1-12.6-1.6-18.8c-3.5-38.5-2.7-77.2-1.4-115.7
			c1.5-43.6,0.9-87.2,1.6-130.8c0.2-9.9,3-17.7,12.3-23.1c9.4-5.7,18.2-12.3,26.3-19.7c1.7-1.5,3.5-3.1,6.2-2.8
			c2.1,1.8,1.1,4.3,1.1,6.4c0.1,54.3-0.6,108.6,0.5,162.9c0.3,16.1-0.2,32.6,3.1,48.6c0.6,2.9,0.3,6,0.3,9
			c0.1,22.9,2.6,45.6,5.5,68.4c2.2,17.7,4,35.6,6.6,53.2c1.2,7.9,2.5,15.7,1.7,24.3c-4-0.4-6.5-2.9-9.3-5
			c-16.5-12.2-32.7-25-48.4-38.3c-2.7-2.3-3.8-1.9-4.5,1.3C767.3,1405.8,767.9,1402.8,768.2,1399.8z"/>
		<path class="st0" d="M552,1269.5c-7.6-1.5-8.1-1.5-7.7-9c0.7-16-1.8-31.8-2.2-47.8c-0.2-6.9,2.2-11.3,7.9-14.7
			c46.2-27,89.8-58.1,133.9-88.4c19.7-13.6,40.2-26,59.5-40c22.5-16.4,47.6-28.8,69.9-47.2c2.1,13.3,3,26.8,2.7,40.3
			c-0.1,3.8-2.2,5.7-4.9,8c-16.8,14.2-35,26.4-52.9,39c-10.7,7.4-19.7,16.8-30.5,24.1c-27.8,18.8-54,39.7-80.8,59.9
			c-23.8,18-47.1,36.7-70.6,55.1c-2.3,1.8-4.9,3.4-7.2,5.3c-1.2,1-2.8,2.2-0.9,4C563.4,1262.7,557.9,1266.5,552,1269.5z"/>
		<path class="st0" d="M184.1,1459.9c0.9-0.6,3.5-1.2,2.2-2.1c-6.2-4.1-4.7-10-3.8-15.3c2.1-11.8,2.8-23.7,4-35.5
			c2-20.8,3.1-41.7,4.2-62.6c0.6-11.6,1.6-23.2,1.3-34.8c-0.2-9.4,1.9-18.5,2.1-27.8c0.6-28-2-55.8-2.5-83.8
			c-0.4-21.2-2.9-42.3-4-63.6c-0.5-9.6-1.6-19.1-1.3-29.8c12.9,7,24.9,13.9,36.5,21.5c2.5,1.7,3.2,4,3.4,6.8
			c0.6,13.2,2.4,26.4,2,39.8c-0.5,14.7,0,29.3,0,44c0,14,2,27.8,3.6,41.6c1.1,9.9,2.1,19.8,2.3,29.8c0.4,17,1,34.1-0.2,51
			c-1.1,15.2-1.7,30.4-3.1,45.6c-1.6,17.8-4,35.8-2.4,53.7c0.9,12.2,2.5,24.4,4.8,36.4c0.9,4.6-0.8,6.8-3.2,9.4
			C214.1,1476.9,198.9,1468.8,184.1,1459.9z"/>
		<path class="st0" d="M179.8,1433.6c0.6,3.6,1.2,7.1-1.5,10.2C177.6,1440.3,178.1,1436.7,179.8,1433.6z"/>
		<path class="st2" d="M246.4,849.3c-5.9-7.4-14.1-12-21.2-18c-13.8-11.6-27.1-23.5-39.7-36.4c-20.2-20.6-20.7-59.2-7.9-81.3
			c4.2-7.2,8.5-14.3,12.9-21.4c0.7-1.1,1.8-1.8,3.5-3.3c4.6,10.8,6.3,21.8,8.3,32.7c0.4,2.1-1.3,3.7-2.2,5.5
			c-2.1,4.3-2.5,8.9-2.4,13.6c0.1,3,2.8,5.8,1.3,8.6c-1.4,2.5-3.9,4.5-5.6,7.1c8.4-2.9,14.3-8.8,19.3-15.9c4.2-6,6.7-13,10.1-19.5
			c3.8-7.2,6.5-7.3,11.2-0.5c2.6,3.9,3.9,8.5,3.8,13.2c0,3-0.1,6-0.5,9c-1.8,17.1,6.3,29.4,19.7,38.5c14,9.5,29.8,14.5,46.5,17
			c2,1.1,4.5,0.2,6.5,1.3h11.8c1.4-1.2,3.2-1.8,5-1.7c-3.7-0.4-7.3-0.9-10.9-1.8c-20.2-3.2-36.9-9.3-46.6-17.5
			c35.5,0.1,65.4-15.1,95-30.7c29.9-15.8,56.3-37.3,78-63.2c10.1-12,21-23.3,28.9-37c2.3-4,5.2-7.8,4.2-13.4
			c-7.4,3.2-8.3,11.3-14.3,16.4c-1.2-20-7.5-37.7-21.4-52c3.1-2,6.1-2.1,9-2.8c11.1-2.6,21.5-6.8,30.8-13.6
			c14.9-10.8,19.2-25.2,11.2-41.8c-6.1-12.7-14.2-24.2-26.3-32.1c-7.2-4.8-14.5-9.4-22-13.9c-8.7-5.1-16.4-11.3-22.3-19.7
			c-13-18.4-16.8-38-8.6-59.5c5.1-13.5,12.2-25.8,20.2-37.8c19.8-29.8,33.5-62,39.2-97.5c2.4-15.2,3.5-30.4,1-46.1
			c3.6,0.8,3.8,3.8,4.9,5.8c6.7,12.3,12.6,25.1,20.2,36.8c15.3,23.5,34.9,42.9,60.2,55.7c7.3,3.7,9.7,8.3,10.2,16.1
			c3.2,57.7,3,115.2-5,172.6c-6.8,49.2-12.3,98.5-18.4,147.8c-1.9,15.3-6.9,29.8-11.1,44.5c-8.3,29.1-18.3,57.8-23.4,87.8
			c-0.8,3.6-2.3,7-4.6,9.9c-6.5,9.3-14.3,17.6-23.1,24.8c-20.5,16.5-42.7,30.8-64.9,44.9c-20.5,13-41.4,25.6-59.6,41.9
			c-13.9,12.4-24.7,27-29.5,45.4c-0.2,0.3-0.4,0.5-0.5,0.8c-0.7,3.4,0.7,8.7-3.8,9.1s-4.7-4.8-5.6-8.2c-9.5-33-25.5-62.7-46-90.1
			c-5.6-7.5-12.8-13.5-19.2-20.3C250.1,856.2,246.9,853.6,246.4,849.3z"/>
		<path class="st0" d="M524.1,1625.9c-1.2-12.2-5.4-23.9-7-36c-1.7-12.5-3.5-24.9-5-37.4c-2-16.4-4.4-32.8-5.5-49.3
			s-3.7-33-4.7-49.6c-1-15.8-3.4-31.6-5.3-47.4c-0.9-7.2-1.4-14.6-1.8-21.8c-0.7-11.3-1.6-22.6-3-33.7c-2.6-20.9,0.3-41.9-3.4-62.7
			c-0.2-2-0.3-4-0.1-6c0-41.3-0.4-82.7,0-124c0.2-21.6,2.2-43.1,3.4-64.6c1-18.6,3.5-37,4.7-55.5c1-14.2,3.8-28.2,5.3-42.4
			c0.8-7.2,1.7-14.5,2.3-21.8c2.7-31,6.3-62,10.5-92.8c3.8-27.5,9.5-54.8,14.8-82.1c5-25.3,9.4-50.8,13-76.4
			c2.8-19.7,6.1-39.3,9.1-58.9c2.1-14,4.1-28.2,4.9-42.5c0.7-13.2,3-26.3,4.5-39.5c1.6-15.1,3.9-30.2,5.5-45.4
			c1.3-13.2,3.5-26.3,5.2-39.4c1.1-8.2,2-16.6,2.3-24.7c0.8-24.3,4.2-48.5,2-72.8c-1.7-20,0.1-40.1-2.3-59.8
			c-2.5-20.7-3.9-41.5-6.8-62.2c-2.9-21-6.3-41.9-8.8-63c-0.8-6.9-2.8-13.6-4.2-20.5c-3.8-19.2-2.6-37.9,7.1-55.1
			c7.8-13.9,18.9-24.8,34.7-29.6c4.8-1.5,9.9-1.6,14.7-0.1c14,4.2,24.9,12.3,31.9,25.3c7.2,13.5,11.3,28.6,11.8,43.9
			c0.8,18.3-0.3,36.6-3.3,54.6c-1.5,9-1.7,18.5-2.6,27.7c-1.4,15.5-2.2,31.1-3.6,46.6c-0.9,10.2-1.7,20.5-2.5,30.8
			c-1.4,17.2-3.3,34.3-5.3,51.4c-1.5,12.8-3,25.7-4.6,38.5c-2.6,21.4-5.8,42.7-9.1,63.9c-3.6,23.2-7.4,46.4-11.2,69.6
			c-2,12.1-4.1,24.2-6.2,36.2c-3.8,21.9-8.1,43.7-11.4,65.6c-3.5,22.6-8.4,44.9-13,67.3c-7.7,38-15.6,75.9-21.6,114.2
			c-3.7,23.6-6.8,47.2-9.9,70.8c-3,22-4.9,44.1-7.1,66.2c-1.2,12.2-1.6,24.6-3,36.7c-2.1,18.2,0.1,36.6-3.3,54.7
			c-0.3,2.7-0.4,5.3-0.2,8c0,46.3-0.8,92.7,0.3,139c0.4,19.2,0.8,38.5,3.2,57.6c1.4,11.5,0.8,23.2,2.2,34.8
			c1.6,12.5,2.6,25.1,3.5,37.6c0.9,11.9,2.3,23.8,2.5,35.8c0.2,13.3,1.7,26.6,2.6,39.8c1.3,17.2,3.7,34.3,7.3,51.1
			c5.1,24.3,9.4,48.8,14.2,73.2c1.3,6.8,3.2,13.6,5.2,20.2c1.2,4,0.3,6.9-2.5,9.9c-14.2,15.4-26.8,32.1-39.3,48.9
			c-1,1.3-2.3,2.5-3.2,3.8c-2.8,3.9-4.3,0.2-6.2-1l0.1,0.1c-1.8-1.7-0.1-4.5-2.1-6.1L524.1,1625.9z"/>
		<path class="st2" d="M226.3,1003.6c-6-21.1-8.8-43-8.4-65c0.4-28.8,5.8-56.2,20.5-81.3c1.2-2.2,1.5-5.3,5.2-5.2
			c10.1,4.5,16.7,13.2,23.4,21.2c27.7,33,46.1,70.9,56.6,112.4c0.7-5.2,1.8-10.3,6.2-14c10.3-28.3,30.7-47.8,55.3-63.7
			c14.8-9.5,29.9-18.8,44.8-28.2c26.5-16.7,52.7-33.7,75.8-58.6c-3,17.4-5.5,32.6-8.3,47.8c-9,49.5-19.3,98.7-26.5,148.4
			c-6.2,42.8-11.8,85.8-13.2,129.1c-0.3,10.6-1.3,21.2-2,32.2c-5.4,0.1-10.8-0.7-16-2.2c-15.1-4.3-29.4-10.9-42.3-19.8
			c-12.6-8.7-25.5-16.9-38.2-25.6c-18-12.3-37.8-20.9-58.5-27.6c-15.8-5.1-31.5-10.8-47.5-15.4c-19.7-5.6-30.5-18.9-35.9-37.8
			c-4.9-17.1-4.4-34.2-0.6-51.3c0.2-0.9,1-1.6,2-3.1c2,4.2,3.7,8,5.4,11.7c5,4.5,5.3,11.6,9.2,16.1
			C229.7,1017.9,226.6,1011.2,226.3,1003.6z"/>
		<path class="st0" d="M838.4,1455.7c-0.1-13.5-2.6-27.1-4.4-40.8c-2.5-19.7-5.3-39.4-7.5-59.2c-1.2-10.9-1.9-21.8-2-32.8
			c-0.2-22.7-1.8-45.2-3-67.8c-2.8-54.3-1.2-108.6-1.1-162.8c0-15.2,1.5-30.5,1.4-45.8c0-7.3,0.1-14.6-1.3-21.9
			c-1-5.6-0.9-11.3,0.2-16.9c0.8-4.9,1.2-9.9,1.2-14.9c0.1-73.7-1.4-147.4,0.6-221c1.9-69.3,0.7-138.5,1.5-207.8
			c0.1-7.7,2.8-15.1,1.9-22.8c-2.4-20.9-0.6-42-2.4-62.8c-2.5-29-1.2-57.9-1.4-86.8c-0.1-15.6-3-31.1-2.1-46.8
			c0.7-12.6,2.8-25.1,1.9-37.8c-3.1-43.2-0.5-86.6-2.4-129.8c-0.8-17.6-0.9-35.2-1.6-52.8c-0.3-6.6-1.5-13.2-2.3-19.8
			c-2.7-20.6-2.3-41,2.4-61.3c3.6-15.6,15.1-24.7,26.7-33.5c5.9-4.5,13.3-2.6,19.1,2.6c10.8,9.7,15.4,22.1,16.2,36.3
			c1.6,27.5-3.5,54.3-8.9,80.9c-4.9,23.7-8.1,47.7-9.6,71.8c-1.2,21.3-0.6,42.6-1.8,63.8c-1.5,25.5-2,51.1-4.1,76.6
			c-2.8,33-2,66-0.9,98.8c0.8,23.3-0.4,46.6,1.6,69.8c1.8,20.6,0.7,41.2,2.1,61.8c3.5,53.6,2.2,107.2,1,160.8
			c-0.6,25.3,0.3,50.6-1.6,75.8c-2.5,32.6-0.6,65.2-2,97.8c-3.8,92.3-1.2,184.6-1.2,276.8c0,15.7,0,31.9,3,47.7
			c1,5.5,0.4,11.3,0.4,17c0,12,1.9,23.8,3.5,35.6c1.2,8.9,1.4,17.9,1.9,26.8c0.8,12.3,1.7,24.6,2.9,36.7c2.1,21.8,2.3,43.7,7,65.2
			c0.7,3.1,1,5.8-1.3,8.4c-10,11.6-19.3,23.8-30.4,34.3C840.8,1456.1,839.4,1456.4,838.4,1455.7z"/>
		<path class="st3" d="M104.1,427.9c-3.3-6.8-8.5-12.2-13.7-17.5c-2.5-2.6-5.4-4.9-7.3-7.9c-2.9-4.5,2-1.9,3-2.8
			c54.2,16.4,106.5,38.1,161.2,53.1c9.6,2.6,19.3,5.3,29.8,5.2c0.5,3-1.3,5.1-2.2,7.4c-9,22.8-7.5,44,7.9,64
			c15.8,20.7,35.1,35.5,61.5,39.2c9.1,1.3,14.7,7.4,20.9,12.6c4.8,4,9.9,8.5,12.7,13.9c2.9,5.6-2.8,11-4.1,16.6
			c-2.7,11.3-6.7,22.3-7.9,34c-0.8,25.3-6.5,50.2-5.3,75.7c0.3,7.5,4.4,14.8,1,22.4c-23,12.9-46.6,24.3-72.5,30
			c-2.6,0.6-5.2,1.7-7.8,1.6c-7.7-0.2-15.9,3.2-22.8-3.6c-8.4-8.2-15.1-17.1-14.2-29.5c0.7-9-0.8-18-4.5-26.2
			c-3.9-8.8-9.8-10.1-17.3-3.8c-4.4,3.7-7.3,8.4-10.4,14c-0.7-4.6-1.4-9.3-2.1-13.9c-1.9-11.8-4.7-23.5-8.5-34.9
			c-12.3-38-22-76.7-34.1-114.7c-12.4-39.1-27.8-77-48.1-112.7C114.9,442.1,110.3,434.4,104.1,427.9z"/>
		<path class="st4" d="M66.3,757.6l-4.5-14.4c6.4,5.1,10.2,10.5,15.8,13.4c5.8,3,12,3.6,18.4,4c6.6,0.4,13-1.2,20.4-2.8
			c-1.2,20,2.4,39,2.7,58.2c2.3-20.2-0.4-40.8,3.7-60.5c7.1,24.3,26,36.2,49.3,44.6c-6.9,13.1-11.6,27.2-13.9,41.8l-0.2-0.1
			c5.1-3.4,6-9.2,8-14.3c3.3-8.7,6.5-17.3,11.7-27.5c0.7,10.4,1.6,18.8,4.2,26.9c1,3.2,1.6,6.8,3.6,9.2c4.8,5.8,3.2,10.3-1,15.5
			c-3.8,4.7-5.4,10.6-7.4,16.3c-8.3,24.5-12.8,49.6-11.8,75.6c0.4,9,1.2,17.9,5.2,27.5c-6.6-3.2-9-8.6-13.2-12
			c0.4,7.7,4.4,14.5,11.5,20c11.1,8.7,24,12.7,37.6,14.8c1.3,0.2,2.6,0.3,3.9,0.5c0.3,0,0.5,0.3,1.2,0.8
			c-4.3,18.8-5.3,37.9,1.1,58.5c-8.1-4.3-17.1-6.8-26.3-7.4c-12.2-0.8-23.9,1.6-35.6,4.2c-2,0.4-3.8,1.3-5.8,1.6
			c-16.6,2.1-27.4-2.1-31-20c-4.3-21.5-7.8-43.2-11.6-64.9c-7-39.5-21.5-76.1-42.2-110.4c-6.7-11.1-13-22.5-20.3-33.3
			c-6.6-9.7-13.4-19.1-21.9-27.2c-0.9-0.9-2.2-1.7-1.6-3.6c25.2-2.7,32.2-23.2,41.2-42.7c4,2.8,3.8,8.2,6.6,11.7
			c7.3,8.6,8.9,19.8,13.2,29.7c1.4,3.2,1.9,6.9,3.7,8.8C76,786.7,68.9,773,66.3,757.6z"/>
		<path class="st4" d="M405.8,537.6c-4.7,1-8.3,4.1-12.1,6.7c-6.8,4.8-13.6,9.6-20.5,14.2s-14.7,6-22.9,5
			c-20.8-2.8-38.8-11.1-53.2-26.8c-5.2-5.6-9.9-11.7-14-18.1c-10.8-17.3-8.9-45.4,4-61.3c6.7-8.2,13.6-9.6,22.8-4.2
			c2.9,1.7,5.5,3.8,8.2,5.7c13.2,9.5,27.4,16.5,44.2,15.9c1.3,0,2.6,0.2,3.9,0.4c0.2,0,0.2,0.6,0.6,1.7
			c-23.5,9.5-43.1,1.8-61.4-13.7c5.6,15.1,29.2,25.6,50.6,23s35.1-16,46.9-33.6c1.4,3.6,2.4,6.3,3.5,8.9c6.7,16.2,17.4,29,32.7,37.8
			c6.6,3.8,13,8,19.6,12c11.2,6.8,18.8,16.7,25.3,27.7c2.8,4.6,4.4,9.7,4.8,15.1c0.6,9.3-2.2,16.5-10.1,22.4
			c-14.5,10.7-30.4,16.5-48.3,16.1c-11.7-0.2-23.3-0.5-34.8,1.6c-7,1.3-12.3-1.2-16.7-6.5c-5-6.2-10.6-12-16.5-17.3
			c18.6-6.6,31.2-21.5,47.7-30.7c6.7-3.7,12.8-1.4,18.7,2c6.3,3.7,12.1,8.1,18.2,12.1C421.9,537.4,421.9,537.4,405.8,537.6z"/>
		<path class="st0" d="M456,1274c-14.9-17.4-32.4-27.7-49.8-37.8c-37.2-21.4-73.6-43.8-109.1-68c-32.1-21.9-65.3-42.2-98.6-62.2
			c-2.8-1.7-5.7-3.5-8.4-5.4c-2.2-1.6-4.1-3.6-4-6.6c0.6-11-1.5-21.8-2-32.8c-0.3-7.3,1.2-8.1,8.2-6.1c7.6,2.1,13.8,6.3,19.4,11.7
			s11.2,11.4,17.3,16.5c9.2,7.6,20.7,10.7,31.6,14.2c24,7.7,48.4,14.3,71.4,24.8c5.4,2.5,10.7,5.4,15.7,8.7
			c15.9,10.3,31.8,20.6,47.5,31.2c16.5,11.2,35.4,18.6,55.2,21.6c3.5,0.5,5.5,1.5,5.5,5.4C456,1216.7,456,1244.3,456,1274z"/>
		<path class="st0" d="M239.6,1479.3c-2.2-1.3-3.1-2.3-3.1-3.7c-0.5-13.9-4-27.7-3.7-41.5c0.2-10.8,0.4-21.9,2.1-32.7
			c0.8-4.6,1.2-9.2,1.2-13.9c-0.6-19,1.8-37.8,2.7-56.7c0.8-19.6-1-38.9-2.2-58.4s-3.4-39-4.7-58.5c-1.6-24-1.1-47.8-1.6-71.8
			c-0.1-3.7-2.4-6.9-1.3-10.7c4.3-0.5,6.6,2.9,9.6,4.7c6.6,3.8,12.8,8.4,19.5,12.1c4.6,2.6,6.7,5.8,6.4,11.2
			c-1,18.9,0.8,37.8-1.7,56.8c-1.2,9.1-1.4,18.6,1,27.8c0.7,2.8,0.4,6,0.4,9c0,29.3,0.3,58.6,0,87.9c-0.3,23.6,2.5,47.1,2.7,70.7
			c0.1,9,0.1,18.6,2.9,27.6c0.6,1.9,0.9,4.2-0.4,5.8C259.4,1456.7,250.3,1469,239.6,1479.3z"/>
		<path class="st3" d="M367.9,653.8c3.6-15.6,7.6-31,12.7-46.2c2.5-7.6,2.7-7,11.1-8c11.6-1.4,23.1-2.5,34.8-1.9
			c3.4,0.2,6.7,0.3,9.1,3c13.9,15.2,21.6,32.5,19.2,53.5c-0.7,6.2-3.6,11.1-7.4,16c-22.5,29.1-50,52.4-81.3,71.4
			c-6.6-2.4-5.2-8.9-5.5-13.4c-1.7-22.6,0.5-45.1,4-67.4C365,658.3,366.2,655.8,367.9,653.8z"/>
		<path class="st3" d="M184.2,802.2l37.1,33c-4.4,8.8-10.7,14.6-21.1,13.6c-1.6,3.4,1.2,3.8,2.3,5.1c2.6,3,5.3,6,7.8,9.1
			c6.4,8.2,9.2,16.3,6.1,27.5c-8.5,30-7.4,60.5-1.1,91c0.3,1.6,0.5,3.2,0.8,5.6c-12.7,1-23.8-2.8-34.5-8.2c-3.2-1.6-4-5.2-5.2-8.3
			c-5.5-13.9-6.7-28.6-5.4-43.2c2.4-28,7.7-55.4,21.1-80.5c1.7-3.2,0.3-4.8-0.7-7.1C185.1,826.6,183.2,816.9,184.2,802.2z"/>
		<path class="st5" d="M329.7,971.8c-2.2,7.2-3.4,14.7-7.2,22.6c-5-34.1-19.5-63-36.3-91c-8.8-14.7-19.7-27.5-31.6-39.8l-11.1-11.4
			l2.8-2.8c13,10.5,24.3,22.8,33.7,36.5c19.3,27.8,34.1,57.9,42.6,90.9c4-1.8,2.5-6.7,5.3-9.1C328.3,969.1,328.3,970.7,329.7,971.8z
			"/>
		<path class="st6" d="M221.4,872.6c-3.5-8-7.9-13.3-13.7-19.1c8.9-2.6,13.9-8,17.1-15c3.2,0.6,4.9,2.8,7,4.3
			c2.6,1.9,2.7,4.1,1.2,6.9C229.4,856.7,225.9,863.8,221.4,872.6z"/>
		<path class="st7" d="M367.9,653.8c-1.5,11.5-3.2,22.9-4.6,34.4c-1.6,14.2-1.8,28.5-0.6,42.7c0.3,3.7-0.1,8,3.3,10.8
			c-0.9,1.9-2.6,2-4.4,1.9c-4.2-13.8-4.5-28-3.7-42.3c1.1-18.8,2.9-37.5,7.9-55.8C367.1,648.2,365,651.6,367.9,653.8z"/>
		<path class="st8" d="M405.8,537.6c7.5-4.3,14.7-2.2,21.7,1.4c9.2,4.7,17.2,11.1,26.1,17.5c-3.4,2-5.5-0.2-7.3-1.3
			c-5.1-3.1-10.1-6.4-14.9-9.8c-6.5-4.6-13.4-7.1-21.4-5.7C409,538,407.2,538.1,405.8,537.6z"/>
		<path class="st9" d="M66.3,757.6c6.9,14.2,10.7,29.6,15.2,44.7c-7-12.9-12.9-26.4-17.5-40.4C66,761.1,65.8,759.2,66.3,757.6z"/>
		<path class="st10" d="M226.3,1003.6c4.2,8,6.3,16.9,10.3,25.1c-6.1-5.6-10.5-12.8-12.5-20.9C226.2,1007.1,225.6,1005,226.3,1003.6
			z"/>
		<path class="st11" d="M316,796.1c6.9-0.6,13.7-0.6,20.5,1.7c-4.6,2.8-9.7,2-14.6,1.8C320.6,797.3,317.3,798.5,316,796.1z"/>
		<path class="st12" d="M203.3,746.5c-2.2-4.9-1.4-8.1-0.4-11.9C206.6,738.3,207.2,741.5,203.3,746.5z"/>
		<path class="st11" d="M310.1,799.6c-2.4,0.5-4.6,0.4-6.5-1.3C306,797.5,308.3,797.6,310.1,799.6z"/>
		<path class="st1" d="M524,1625.8c2.4,1.5,1.9,3.9,2.1,6.1C523.8,1630.4,524.1,1628,524,1625.8z"/>
		<path class="st13" d="M334.2,591.3c-6,1.6-10.8,1.3-15.8,1c-39.6-2.3-79.1-5.9-118.5-9.7c-3.5-0.3-9.8,1.4-9.4-4.1
			c0.3-4.2,6.2-2.5,9.5-2.4c35.6,1.3,71.2,4.1,106.8,6.7c5.6,0.4,11.2,1.7,16.8,2.8C327,586.3,330.6,587.2,334.2,591.3z"/>
		<path class="st14" d="M247,504.8c-4.1,2.2-7.8,2.2-11.5,2.2c-22.3-0.6-44.5-3.2-66.6-5.9c-1.3-0.2-2.6-0.5-3.9-0.8
			c-3.5-0.8-8.7-1.1-8.2-5.5c0.6-5,6-2.9,9.2-2.8c22.9,1.2,45.9,2.1,68.6,6C239.1,498.6,243.8,499.3,247,504.8z"/>
		<path class="st15" d="M216.9,668.4c12.9-5.5,109.1-1.7,127.4,4.4C334.5,676.7,230.8,673.3,216.9,668.4z"/>
		<path class="st16" d="M335,747.3c-21.9,3.2-43.6,3-65.4,1.5c-1.3-0.1-2.6-0.4-3.9-0.9c-1-0.2-1.7-1.1-1.6-2.2c0-1,0.7-1.9,1.7-2.1
			c2.6-0.7,5.2-1.1,7.8-1.2c17.6,0.2,35.2-0.7,52.7,1C329.3,743.7,333.1,742.8,335,747.3z"/>
		<path class="st1" d="M157.9,841.7c-0.1,1.5-0.2,3-0.3,4.9c-1.6-2.1-1.7-3.6,0.5-4.7L157.9,841.7z"/>
		<path class="st17" d="M278.8,488.5c0.9-5.5,1.8-11.1,5.3-15.8c3.3-4.4,8.1-5.9,12.2-4.2s6.5,6,5.4,11.6c-1.4,6.8-3.1,13.6-5,20.3
			c-1.7,6-6.1,7.5-11.3,3.9C280,500.6,278.7,494.9,278.8,488.5z"/>
	</g>
</g>
<g id="Layer_2">
	<g>
		<path class="st18" d="M-669.2,1064.3c-6.9,4.2-13,3.7-19,3.7c-31.7,0.2-63.2-2.5-94.8-4.2c-80.5-4.3-161.1-6.3-241.7-8.5
			c-54.9-1.5-109.9-4.3-164.8-6.5c-8.1-0.3-8-0.4-9.4,7.3c-0.8,4.5-1.3,9.2-4.8,13.6c-4.2-4.6-2.7-9.7-2.9-14.3
			c-0.3-7.4-0.2-7.3-7.6-7.8c-6.7-0.4-13.3-1.3-19.8-2.7c6.7-2.5,13.6-2.8,20.5-2.9c7.6-0.2,7.6-0.2,8.2-7.5
			c2.3-27.9,3.6-55.8,3.2-83.9c-0.3-13.7,0.5-27.3,2.6-40.9c1.8-11.5,0.8-23.2,1.9-35c-3.8-1.9-7.7-1.1-11.6-0.4
			c-1.6,0.3-2.9,1.6-4.7,1.2c-2.5-0.6-6-0.1-6.5-3.4c-0.5-3.3,3-4,5.5-4.5c4.2-1,8.5-1.7,12.8-2.1c4.1-0.2,6.3-1.9,6.5-5.8
			c0.2-5.2,2.7-9.4,5.5-14.3c1.7,6.3-0.4,11.9,0.1,17.9c7,1.5,14,0.3,20.9-0.1c41.9-2.5,83.8-4.9,125.6-8
			c63.8-4.8,127.7-8.1,191.6-9.3c46.6-0.8,93.3-0.3,139.8,3.3c9.3,0.7,11.5,2.6,10.9,11.5c-2,29-0.3,58-1.9,86.9
			c-1.8,34.3-6.2,68.4-13.2,102c-1.5,7.1-1.5,7.1,5.7,7.7c9,0.8,17.9,1.5,26.9,2.3C-678.4,1060-673.5,1061.6-669.2,1064.3z"/>
		<path class="st3" d="M-983.8,1045.8l-206.6-4c-6.5-0.1-6.8-0.2-6.1-6.7c2.9-28.9,2.5-57.9,2.1-86.9c-0.3-23.7,2.7-47.2,3.3-70.8
			c0.1-2.9,1.1-4.3,4-4.4c3.3-0.1,6.6-0.4,10-0.6c33.6-1.5,67.2-2.7,100.8-4.6c41.9-2.3,83.8-5.5,125.6-7.8
			c58.9-3.3,117.8-5.5,176.8-3.9c19,0.5,37.9,1.6,56.9,2.2c4.5,0.1,5.7,1.8,5.5,6c-1.5,29.9,0.8,60-1.8,89.9
			c-2.4,27.2-5.3,54.4-7.9,81.5c-0.5,5.3-1,10.6-1.1,15.9c-0.1,3.5-1.4,4.7-4.8,4.5c-7-0.4-14-0.6-21-0.9
			c-33.6-1.8-67.2-3.8-100.8-5.3C-895.9,1047.6-943.2,1046.3-983.8,1045.8z"/>
		<path class="st19" d="M-870.2,914.7c-4.6-1.1-7.4,0.3-10.2,1s-5.4,0-6.2-3.2s0.6-5.4,3.7-6c8.2-1.4,16.4-3.1,24.8-2.4
			c4.8,0.4,6.5,4.2,4.2,8.6c-6.9,13.2-28.5,22-43.1,17.5c-8.1-2.4-11.2-8.8-8.3-17.2c3-8.8,9.4-15.2,16.1-21.2
			c5.2-4.7,11.2-8.5,17.6-11.2c4.5-1.9,6.3-0.9,6.9,3.8c0.6,3.6,0.7,7.3,0.2,10.9c-0.7,4.8-4.9,6.3-8.4,2.7c-2-2.1-3.2-3-5.7-1.6
			c-7.1,4-13.1,9.2-16.8,16.6c-3,5.9-1.2,8.8,5.3,9C-882.8,922.3-876.6,919.8-870.2,914.7z"/>
		<path class="st20" d="M-974.4,982.4c-3.4-1.7-6.4-0.7-9.2,0.2c-3.3,1-5.2,0-6.1-3c-1.2-3.9,1.1-5.3,4.5-6.1
			c7.5-1.7,15.2-2.4,22.8-2.1c6.2,0.1,7.2,3,4.4,9.2c-5.1,11.2-15.5,13.9-25.7,16.8c-4.5,1.3-9.3,1.1-13.9,0.5
			c-9.1-1.2-13.2-7.3-11.4-16.3c0.9-3.6,2.5-6.9,4.7-9.8c7.3-10.4,17.3-18.6,28.9-23.8c5-2.3,6.6-1.5,7.5,3.8
			c0.6,3.3,0.7,6.6,0.6,9.9c-0.1,2.9-2.2,4.8-4.9,5.6c-2.3,0.7-3.8-0.9-4.5-2.9s-1.8-2.4-3.7-1.5c-8,4-14.4,9.7-18.4,17.7
			c-2.7,5.5-0.2,9.2,6,8.8C-986,989-979.7,987.2-974.4,982.4z"/>
		<path class="st20" d="M-803.1,982.2c-3.9-1.4-7-0.3-10.2,0.5c-2.8,0.8-4.5-0.6-5.2-3.1c-0.9-3,0.1-5.2,3.4-6
			c8.1-1.9,16.4-2.7,24.7-2.3c5.4,0.2,6.4,3.7,3.8,8.9c-5.7,11.5-16.4,14.8-27.5,17.3c-3.6,0.6-7.3,0.8-10.9,0.4
			c-11.5-0.9-16.2-8.8-11.8-19.6c2.4-6,6.5-10.8,11-15.3c6.3-6.5,13.7-11.7,22-15.3c2-0.9,4.2-2.3,6.1,0.4c1.7,2.5,2.1,14,0.6,16.5
			c-1.9,3-5.5,3.4-7.8,0.1c-1.8-2.6-2.9-2.7-5.5-1.4c-7.2,3.7-13,9.4-16.9,16.5c-3.2,6.1-0.8,9.9,6.1,9.4
			C-814.8,988.9-808.5,987.2-803.1,982.2z"/>
		<path class="st20" d="M-762.2,974.7c6.5-1.5,12.2-2.9,18-4.1c3.6-0.8,7.3-1.3,10.9-0.4c2,0.5,3.5,2.2,3.7,4.2
			c0.2,2.4-1.8,3.3-3.9,3.5c-8.5,1.2-17,3.2-25.1,6.1c-1.9,0.6-3.7,1.4-6.2,2.4c3.9,4.3,8.2,3.1,12.1,2.7c3.6-0.4,7.2-1.4,10.8-1.8
			c2.6-0.3,4.4,1.3,4.9,4s-0.6,4.8-3.3,5.3c-8.2,1.4-16.4,3.3-24.7,1.4c-5.6-1.3-8.4-5.1-8.9-11.7c-0.3-5,0.5-10,2.1-14.7
			c1.5-4.7,3.4-9.4,5.1-14c1-2.6,2.5-5.2,5.5-5.2c7.5,0.1,14.2-3.1,21.5-4c2.3-0.3,4.6-0.3,6.6,1.4c1.6,1.2,2.6,3.2,2.4,5.2
			c-0.3,2.5-2.3,2.8-4.3,3.2c-4.9,0.8-9.8,1.8-14.7,2.6C-757.1,961.8-761.9,965.4-762.2,974.7z"/>
		<path class="st20" d="M-1009.5,913.6c-6.3,0-12.3-0.1-18.3,0c-3.6,0-6.7-0.8-8.4-4.2c-1.7-3.4-0.4-6.6,1.8-9.3
			c6.9-8.7,16.4-14.9,27.2-17.7c6.9-1.9,11.4,2.3,10.8,8.9c-0.2,2.1-0.7,3.9-2.6,5c-2.5,1.4-3.5-0.5-4.7-2.1
			c-1.9-2.5-4.2-1.3-6.3-0.5c-4.6,1.8-9,4.1-12.4,7.9c1.5,3.3,4.1,1.6,6.1,1.8c3,0.3,6-0.2,9,0c4.6,0.2,9.7-0.4,12,5
			c1.7,3.8-0.5,8.8-5.6,12.8c-7.4,5.8-16.4,9.1-25.8,9.5c-2.7,0.3-5.4-0.3-7.7-1.6c-2.7-1.7-4.8-4.1-3.9-7.4
			c0.9-3.6,4.2-2.6,6.7-2.3c6.6,0.8,13.3,1.9,19.5-1.9C-1011.2,917-1009.8,916.5-1009.5,913.6z"/>
		<path class="st20" d="M-955.8,913.6c-5.7,0-11.5-0.1-17.3,0c-3.9,0.1-7.4-0.5-9.2-4.5c-1.5-3.5-0.1-6.7,2-9.3
			c7-8.6,16.6-14.8,27.3-17.5c7.2-1.8,11.9,3.3,10.4,10.3c-1,4.3-2.9,5.2-6.6,2c-2.2-1.9-3.9-2.1-6.2-1.2c-5.6,2-10.7,5.4-14.6,9.8
			c7.1,0,12.5-0.1,18,0c4.4,0.1,9.1,0.2,10.8,5.3c1.6,4.8-1.1,8.5-4.5,11.4c-7.9,6.8-18,10.6-28.4,10.6c-2,0-4-0.4-5.8-1.2
			c-3.2-1.6-5.6-4.2-4.4-8c1.1-3.4,4.4-2.3,6.9-2c6.7,0.8,13.3,1.8,19.4-2.1C-956.9,916.8-955.5,916.3-955.8,913.6z"/>
		<path class="st19" d="M-813.2,913.3c0-6.9,0.9-13.7,2.6-20.4c0.5-2.3,1.3-4.5,2.5-6.5c1.6-2.5,4.1-5.2,7.3-4
			c3.4,1.3,1.5,4.5,0.9,6.9c-2.8,11.6-5.5,23.3-6.4,35.3c-0.5,6.2-3.3,7.3-8.7,4.2c-3.2-1.9-5.7-4.7-7.2-8.1
			c-2.5-5-4.8-10.2-7.4-15.7c-3.2,4.5-3.2,9.7-4.9,14.4c-0.9,2.5-1.4,5.1-2.2,7.6c-0.7,2.1-2.2,3.4-4.5,2.9
			c-2.3-0.5-3.2-2.2-3.3-4.4c-0.1-1.3,0-2.7,0.3-4c2.5-10.3,5-20.7,7.7-31c0.3-1.3,0.8-2.5,1.5-3.7c1.6-2.7,3.8-5.1,7-4.7
			c2.5,0.3,2.8,3.3,3.6,5.5c1.8,5.7,3.8,11.3,5.7,17C-817.9,907.5-817.2,910.3-813.2,913.3z"/>
		<path class="st19" d="M-1046.1,970.5c-2.5,8.7-4.4,15.4-6.4,22.1c-0.7,2.3-1.5,4.9-4.3,4.5c-3.2-0.4-4.4-3.1-3.9-5.9
			c2.5-12.4,4.8-24.8,9.1-36.7c0.5-1.2,1.3-2.3,2.3-3.2c3.6-3.3,6.4-2.8,8.1,2c2.3,6.2,4.1,12.6,6.3,18.9c0.8,2.4,1.3,5.2,5.4,7.1
			c0.1-6.9,1.1-13.7,2.9-20.4c1.1-3.9,2.4-7.7,6.7-9.3c2.8-1,4.6-0.4,4.6,2.9c-0.1,1-0.3,2-0.6,2.9c-3,12-5.7,23.9-6.7,36.3
			c-0.5,6.3-3.3,7.3-8.7,4c-4.9-2.9-7.2-7.7-9.5-12.5C-1042.3,979.8-1043.7,976-1046.1,970.5z"/>
		<path class="st19" d="M-1072.9,992c-0.1,2.5,0.3,4.8-2.2,5.5c-3.1,0.9-5-0.7-6.4-3.3c-3.9-7-4-7.1-11.3-4.8
			c-6,1.9-11.9,4.3-17.8,6.4c-2.1,0.8-4.3,2.1-6.4-0.1c-2.4-2.4-1.7-4.7-0.2-7.2c7.2-11.6,14.6-23.1,23.3-33.6
			c1.1-1.3,2.3-2.4,3.7-3.3c4-2.7,6.6-2.2,9,1.9c0.5,0.9,0.9,1.8,1.1,2.8C-1076.2,968.1-1075.2,980.4-1072.9,992z"/>
		<path class="st19" d="M-850.9,992c-0.1,2.6,0.2,4.9-2.3,5.6c-3.1,0.9-5-0.8-6.4-3.4c-3.8-6.9-3.9-7.1-11.3-4.7
			c-6,1.9-11.9,4.3-17.8,6.5c-2.1,0.8-4.3,2-6.4-0.2c-2.3-2.4-1.6-4.8-0.1-7.2c7.2-11.5,14.5-23.1,23.4-33.5
			c1.3-1.5,2.8-2.8,4.5-3.9c3.1-2.1,5.7-1.2,7.6,1.8c0.7,1.1,1.3,2.3,1.7,3.6C-854.2,968.2-853.2,980.5-850.9,992z"/>
		<path class="st20" d="M-1051.6,925.4c0.4,2.8-0.3,4.8-2.5,5.3c-2.4,0.6-4.4-0.9-5.9-2.9s0.3-6.3-3.1-6.7c-3.1-0.4-6.6,0.5-9.7,1.5
			c-5.7,1.9-11.2,4.2-16.8,6.3c-2.2,0.9-4.5,1.7-6.4-0.5c-1.9-2.2-1.5-4.5-0.2-6.5c7.6-12.1,14.8-24.5,24.7-34.9
			c6-6.4,10.1-5.5,12.9,2.8C-1054.7,901.6-1053.5,913.9-1051.6,925.4z"/>
		<path class="st19" d="M-926.3,998.7c-0.7,0-1.3-0.1-2-0.1c-15.8-0.9-18.4-4.2-15.2-19.9c1.1-5.5,2.5-11,3.9-16.4
			c0.6-2.9,1.9-5.7,3.8-8c2-2.2,4.6-4.7,7.6-2.9s1,4.7,0.1,7.1c-2.5,6.5-4.4,13.2-5.8,20c-0.6,3-2.5,6.6,1.1,9
			c3.2,2.2,10.1,1.2,13.1-1.7c2.6-2.6,4.3-5.9,5.1-9.5c1.4-5.5,2.6-11,4-16.4c0.5-1.9,1.1-3.8,1.9-5.6c1-2.4,2-5.3,5.6-4.2
			c2.8,0.9,2.7,3.5,2.5,5.9c-0.9,11-2.7,21.8-8.2,31.5C-912.6,994.2-917.9,999-926.3,998.7z"/>
		<path class="st21" d="M-1155.3,988.3c6.3-1.6,11.1-2.8,16-3.9c1.9-0.5,3.9-0.8,5.9-0.8c2.6,0.2,4.1,2,4.5,4.5
			c0.3,2.4-1.2,3.8-3.2,4.4c-8.5,2.8-17.1,5.5-26.2,5.5c-5,0-7.4-2.4-6.8-7.6c1.3-11.9,3.6-23.6,6.9-35.1c0.5-1.8,2.1-3.3,3.5-4.7
			c1.2-1.3,3-1.7,4.6-1c1.9,0.8,1.8,2.7,1.5,4.2c-1,5.2-2.2,10.4-3.1,15.6C-1152.8,975.2-1155,980.8-1155.3,988.3z"/>
		<path class="st22" d="M-929.4,924.1c2.4-11.4,4-23.6,7.8-35.3c0.6-1.9,1.8-3.6,3.5-4.7c1.3-0.9,2.8-2,4.5-1.1c1.8,1,2,2.6,1.6,4.3
			c-0.8,3.9-1.7,7.8-2.6,11.6c-2.1,9-4.2,18.1-6.4,27.1c-0.7,2.7-2,5.2-5.5,4.4C-929.3,929.7-929.3,927.1-929.4,924.1z"/>
		<path class="st23" d="M-1177.5,899.7c-3.9-0.1-7.1-3.3-6.9-6.9c0.2-3.8,3.8-6.9,8.2-7c4.1-0.1,7.3,2.7,7.4,6.2
			C-1168.7,896-1172.9,899.8-1177.5,899.7z"/>
		<path class="st24" d="M-740.7,1033.5c4.2,0,9.9,4,9.8,6.9c0,2.5-6.1,6.4-10.2,6.5c-4.2,0.1-7.5-2.6-7.5-6.1
			C-748.7,1037-744.9,1033.5-740.7,1033.5z"/>
		<path class="st25" d="M-728.1,875.7c-0.3,3.8-3.6,6.8-7.4,6.5c-3.7-0.2-6.4-2-6.8-5.9c-0.3-3.5,4.1-7.2,8.2-7
			c3.3-0.1,6,2.5,6.1,5.8C-728.1,875.3-728.1,875.5-728.1,875.7z"/>
		<path class="st25" d="M-1176.7,1028.9c-0.1,3.2-3.3,5.6-7,5.3c-3.4-0.3-5.7-2.1-5.6-5.5c0-3.4,2.3-5.1,5.8-5.2
			C-1179.5,1023.4-1176.6,1025.7-1176.7,1028.9z"/>
		<path class="st26" d="M-1087.5,965.2c5.2,14.9,4.9,15.4-12.6,16.4C-1095.7,971.3-1093.7,968.7-1087.5,965.2z"/>
		<path class="st26" d="M-865.7,964.5c5.5,15.6,5.2,16.1-12.4,17.1C-874.2,972.4-872.8,970.4-865.7,964.5z"/>
		<path class="st27" d="M-1079.4,915.5c0.8-4.4,3.3-7.5,5.5-10.5c2-2.7,3.4-8.2,7.3-6.4c3.7,1.8,2.9,7.5,3.4,11.6
			c0.2,1.9-1.5,2.8-3.2,3.1C-1070.5,914.1-1074.7,914.7-1079.4,915.5z"/>
	</g>
</g>
</svg>
