<svg xmlns="http://www.w3.org/2000/svg" viewBox="0 0 564.79 224.35"><defs><style>.cls-1{fill:#010101;}.cls-2{fill:#fff;}.cls-3{fill:#040404;}.cls-4{fill:#030303;}.cls-5{fill:#060606;}.cls-6{fill:#090909;}.cls-7{fill:#181818;}.cls-8{fill:#0f0f0f;}.cls-9{fill:#131313;}.cls-10{fill:#f1f1f1;}.cls-11{fill:#eaeaea;}</style></defs><title>assign_language_button</title><g id="Layer_2" data-name="Layer 2"><g id="Layer_2-2" data-name="Layer 2"><path class="cls-1" d="M564.79,218.89c-6.93,4.19-13,3.67-18.95,3.7-31.68.16-63.23-2.47-94.83-4.17-80.52-4.32-161.11-6.31-241.7-8.49-54.95-1.49-109.86-4.26-164.78-6.5-8.06-.33-8-.42-9.44,7.29-.84,4.48-1.29,9.15-4.85,13.63-4.15-4.6-2.69-9.67-2.87-14.26-.3-7.43-.17-7.32-7.55-7.85A133.75,133.75,0,0,1,0,199.55c6.65-2.47,13.56-2.76,20.51-2.93,7.63-.19,7.63-.25,8.22-7.5,2.28-27.91,3.64-55.84,3.21-83.86A241.78,241.78,0,0,1,34.49,64.4c1.8-11.54.78-23.19,1.95-35-3.79-1.92-7.73-1.09-11.58-.43-1.55.27-2.87,1.61-4.69,1.2-2.5-.57-6-.13-6.46-3.4s3-4,5.49-4.53A89.35,89.35,0,0,1,32,20.17c4.06-.23,6.29-1.86,6.46-5.85C38.69,9.14,41.17,4.93,44,0c1.65,6.27-.42,11.93.06,17.92,7,1.46,14,.27,20.86-.15,41.89-2.53,83.8-4.86,125.65-8C254.36,5,318.22,1.66,382.18.49,428.83-.36,475.46.14,522,3.76c9.34.73,11.54,2.61,10.93,11.54-2,29-.29,58-1.91,86.93a677.43,677.43,0,0,1-13.15,102c-1.5,7.12-1.55,7.11,5.73,7.71,9,.75,17.92,1.47,26.88,2.27A31.1,31.1,0,0,1,564.79,218.89Z"/><path class="cls-2" d="M250.11,200.35l-206.57-4c-6.47-.12-6.75-.21-6.1-6.7,2.93-28.91,2.47-57.89,2.14-86.88-.28-23.67,2.7-47.21,3.34-70.84.07-2.88,1.13-4.29,4-4.38,3.33-.11,6.65-.43,10-.58,33.61-1.52,67.23-2.74,100.82-4.62,41.9-2.35,83.75-5.53,125.64-7.85C342.27,11.23,401.19,9,460.19,10.62c19,.53,37.93,1.65,56.91,2.23,4.46.13,5.71,1.82,5.49,6-1.55,29.94.81,60-1.85,89.89-2.42,27.2-5.26,54.36-7.87,81.54-.51,5.3-1,10.62-1.13,15.94-.07,3.48-1.4,4.67-4.78,4.47-7-.43-14-.57-21-.94-33.59-1.77-67.17-3.76-100.77-5.34C338,202.24,290.71,200.86,250.11,200.35Z"/><path class="cls-3" d="M363.7,69.25c-4.59-1.11-7.37.3-10.25,1s-5.4,0-6.23-3.19.61-5.44,3.69-6c8.2-1.4,16.42-3.11,24.78-2.37,4.81.43,6.47,4.25,4.18,8.59-6.93,13.17-28.53,22-43.11,17.53-8.06-2.44-11.21-8.82-8.32-17.25,3-8.81,9.37-15.21,16.13-21.22A63.33,63.33,0,0,1,362.2,35.15c4.48-1.88,6.3-.9,6.92,3.75a40.09,40.09,0,0,1,.24,10.94c-.71,4.84-4.94,6.3-8.37,2.71-2-2.07-3.21-3-5.68-1.57-7.11,4-13.08,9.25-16.79,16.61-3,5.94-1.21,8.84,5.32,9C351.1,76.9,357.37,74.37,363.7,69.25Z"/><path class="cls-4" d="M259.58,137c-3.42-1.66-6.38-.66-9.16.18-3.26,1-5.22,0-6.14-3-1.16-3.88,1.1-5.28,4.48-6.11a91.17,91.17,0,0,1,22.82-2.08c6.25.09,7.19,3,4.39,9.21C270.9,146.3,260.48,149,250.29,152c-4.46,1.3-9.28,1.06-13.91.45-9.07-1.2-13.21-7.29-11.38-16.32a25.93,25.93,0,0,1,4.72-9.82,70.92,70.92,0,0,1,28.94-23.84c5-2.28,6.57-1.5,7.55,3.84a44,44,0,0,1,.56,9.93c-.13,2.94-2.25,4.84-4.94,5.61-2.29.65-3.81-.86-4.49-2.92s-1.83-2.4-3.7-1.48c-8,4-14.4,9.65-18.37,17.67-2.7,5.47-.25,9.15,6,8.83C247.92,143.55,254.25,141.83,259.58,137Z"/><path class="cls-4" d="M430.81,136.81c-3.87-1.44-7-.31-10.21.55-2.84.77-4.51-.56-5.25-3.09-.88-3,.12-5.21,3.37-6.05a87.65,87.65,0,0,1,24.74-2.28c5.38.17,6.38,3.68,3.77,8.94-5.68,11.46-16.37,14.79-27.49,17.29a38.07,38.07,0,0,1-10.92.37c-11.46-.86-16.19-8.85-11.78-19.64,2.44-6,6.53-10.76,11-15.29a70.06,70.06,0,0,1,22-15.3c2-.89,4.22-2.34,6.12.42,1.69,2.45,2.15,14,.57,16.5-1.92,3-5.45,3.42-7.8.13-1.83-2.57-2.91-2.74-5.45-1.37a39.82,39.82,0,0,0-16.85,16.49c-3.19,6.07-.84,9.89,6.06,9.42C419.14,143.45,425.47,141.79,430.81,136.81Z"/><path class="cls-4" d="M471.76,129.25c6.47-1.49,12.23-2.86,18-4.13,3.59-.78,7.27-1.31,10.88-.43a4.81,4.81,0,0,1,3.74,4.23c.18,2.43-1.81,3.27-3.9,3.53a129.66,129.66,0,0,0-25.1,6.1c-1.86.62-3.66,1.43-6.17,2.42,3.87,4.34,8.17,3.11,12.12,2.71,3.62-.36,7.17-1.43,10.79-1.79,2.63-.27,4.41,1.32,4.91,4s-.61,4.78-3.29,5.26c-8.16,1.44-16.38,3.3-24.69,1.38-5.59-1.29-8.37-5.11-8.93-11.74a38,38,0,0,1,2.12-14.71c1.53-4.73,3.37-9.36,5.1-14,1-2.62,2.54-5.17,5.47-5.15,7.46.06,14.25-3.08,21.48-4,2.34-.29,4.64-.35,6.6,1.38a6,6,0,0,1,2.43,5.19c-.26,2.54-2.32,2.83-4.34,3.17-4.91.84-9.79,1.85-14.71,2.62C476.89,116.43,472.07,120,471.76,129.25Z"/><path class="cls-4" d="M224.45,68.21c-6.33,0-12.31-.07-18.3,0-3.58.05-6.71-.79-8.37-4.21s-.4-6.61,1.75-9.3A51.17,51.17,0,0,1,226.7,37c6.91-1.87,11.41,2.28,10.85,8.93-.18,2.08-.67,3.94-2.64,5-2.54,1.44-3.46-.54-4.67-2.14-1.87-2.48-4.24-1.34-6.34-.5-4.64,1.84-9,4.14-12.44,7.91,1.46,3.26,4.13,1.58,6.15,1.75,3,.26,6-.16,9,0,4.61.16,9.67-.4,12,5,1.65,3.79-.47,8.78-5.64,12.82a45.29,45.29,0,0,1-25.83,9.53,13.05,13.05,0,0,1-7.74-1.6c-2.66-1.67-4.75-4.1-3.89-7.42.94-3.6,4.17-2.56,6.67-2.28,6.64.77,13.28,1.89,19.47-1.86C222.75,71.55,224.12,71.14,224.45,68.21Z"/><path class="cls-4" d="M278.18,68.21c-5.7,0-11.52-.09-17.33,0-3.9.08-7.45-.51-9.19-4.48-1.52-3.45-.14-6.65,2-9.28A51.08,51.08,0,0,1,281,37c7.19-1.82,11.91,3.31,10.39,10.28-.95,4.31-2.93,5.21-6.62,2-2.19-1.87-3.88-2.06-6.21-1.17A35,35,0,0,0,264,57.93c7.12,0,12.54-.09,18,0,4.37.1,9.11.15,10.8,5.29,1.57,4.76-1.06,8.49-4.45,11.41a43.35,43.35,0,0,1-28.39,10.59,13.19,13.19,0,0,1-5.8-1.24c-3.18-1.57-5.57-4.24-4.42-8,1.06-3.43,4.38-2.26,6.86-2,6.65.78,13.28,1.76,19.43-2.06C277,71.38,278.4,70.94,278.18,68.21Z"/><path class="cls-3" d="M420.71,67.87a78,78,0,0,1,2.62-20.4A22.12,22.12,0,0,1,425.81,41c1.62-2.53,4.11-5.18,7.26-4,3.38,1.28,1.52,4.49.93,6.92-2.84,11.63-5.48,23.27-6.44,35.27-.5,6.23-3.32,7.32-8.68,4.24a18.76,18.76,0,0,1-7.23-8.07c-2.54-5-4.8-10.18-7.39-15.73C401.1,64.1,401,69.35,399.34,74c-.9,2.49-1.43,5.12-2.25,7.64-.7,2.13-2.24,3.42-4.52,2.91s-3.22-2.23-3.27-4.42a14.91,14.91,0,0,1,.28-4q3.75-15.49,7.65-31a14.66,14.66,0,0,1,1.49-3.67c1.57-2.7,3.81-5.11,7-4.69,2.54.32,2.85,3.28,3.57,5.49,1.85,5.68,3.77,11.34,5.72,17C416,62.06,416.78,64.92,420.71,67.87Z"/><path class="cls-3" d="M187.89,125.12c-2.51,8.74-4.43,15.43-6.36,22.13-.66,2.29-1.46,4.89-4.34,4.55-3.19-.37-4.43-3.12-3.86-5.93,2.5-12.37,4.77-24.81,9.12-36.72a8.7,8.7,0,0,1,2.34-3.16c3.59-3.35,6.38-2.75,8.1,2,2.26,6.25,4.11,12.64,6.35,18.9.85,2.38,1.31,5.19,5.38,7.12a86.2,86.2,0,0,1,2.9-20.39c1.08-3.89,2.44-7.69,6.71-9.31,2.78-1,4.6-.37,4.61,2.91a11.74,11.74,0,0,1-.59,2.92c-3,12-5.68,23.93-6.72,36.27-.53,6.29-3.26,7.26-8.68,4-4.86-2.89-7.23-7.71-9.53-12.51C191.6,134.35,190.21,130.63,187.89,125.12Z"/><path class="cls-3" d="M161.09,146.55c-.14,2.49.27,4.79-2.23,5.55-3.09.94-5-.73-6.41-3.31-3.9-6.95-4-7.1-11.28-4.79-6,1.9-11.86,4.31-17.81,6.44-2.12.75-4.28,2.09-6.44-.1-2.35-2.39-1.72-4.73-.18-7.21,7.2-11.6,14.55-23.1,23.32-33.6a18.6,18.6,0,0,1,3.7-3.33c4-2.74,6.58-2.15,9,1.94a12.83,12.83,0,0,1,1.14,2.77C157.71,122.72,158.78,135,161.09,146.55Z"/><path class="cls-3" d="M383.09,146.55c-.12,2.58.21,4.86-2.29,5.58-3.09.89-4.95-.8-6.38-3.38-3.83-6.92-3.92-7.07-11.31-4.73-6,1.91-11.87,4.31-17.81,6.45-2.13.77-4.3,2-6.43-.17-2.32-2.41-1.63-4.75-.1-7.21C346,131.55,353.3,120,362.12,109.55a22.68,22.68,0,0,1,4.52-3.89c3.09-2.13,5.68-1.2,7.62,1.76a15,15,0,0,1,1.68,3.6C379.73,122.78,380.78,135.1,383.09,146.55Z"/><path class="cls-4" d="M182.35,80c.37,2.77-.34,4.81-2.52,5.31-2.45.56-4.39-.88-5.87-2.92s.28-6.26-3.07-6.67c-3.14-.38-6.6.53-9.7,1.54-5.67,1.86-11.18,4.2-16.75,6.35-2.23.86-4.48,1.68-6.4-.51s-1.51-4.47-.24-6.51c7.57-12.11,14.85-24.47,24.68-34.93,6-6.41,10.14-5.47,12.86,2.77C179.2,56.16,180.46,68.45,182.35,80Z"/><path class="cls-3" d="M307.65,153.32c-.66,0-1.33-.1-2-.13-15.81-.91-18.42-4.24-15.25-19.93,1.11-5.51,2.55-11,3.89-16.44a18.15,18.15,0,0,1,3.8-8c2-2.23,4.57-4.73,7.61-2.89s1,4.71.06,7.13A116.54,116.54,0,0,0,300,133.11c-.6,3-2.49,6.61,1.12,9,3.23,2.19,10.09,1.19,13.06-1.65a19.2,19.2,0,0,0,5.06-9.53c1.36-5.47,2.59-11,4-16.43a36,36,0,0,1,1.94-5.63c1.05-2.4,2-5.35,5.57-4.2,2.77.9,2.68,3.5,2.5,5.86-.86,11-2.66,21.77-8.15,31.53C321.32,148.84,316,153.55,307.65,153.32Z"/><path class="cls-5" d="M78.69,142.94c6.33-1.57,11.13-2.83,16-3.94a21,21,0,0,1,5.85-.76c2.62.16,4.15,2,4.52,4.52s-1.23,3.79-3.21,4.43c-8.52,2.78-17.11,5.51-26.17,5.53-5,0-7.42-2.44-6.8-7.63A210.88,210.88,0,0,1,75.8,110c.53-1.77,2.11-3.34,3.5-4.71a4.06,4.06,0,0,1,4.58-1c1.91.82,1.79,2.69,1.51,4.24-1,5.22-2.15,10.39-3.14,15.59C81.12,129.85,78.93,135.43,78.69,142.94Z"/><path class="cls-6" d="M304.57,78.66c2.4-11.39,4-23.59,7.79-35.3a8.56,8.56,0,0,1,3.49-4.71c1.32-.86,2.76-2,4.54-1.07s2,2.59,1.61,4.29c-.82,3.89-1.72,7.77-2.63,11.64-2.12,9-4.2,18.09-6.42,27.1-.67,2.69-2,5.22-5.45,4.36C304.65,84.25,304.65,81.68,304.57,78.66Z"/><path class="cls-7" d="M56.47,54.25c-3.87-.1-7.06-3.29-6.89-6.89.17-3.81,3.82-6.94,8.15-7,4.11-.07,7.33,2.65,7.4,6.23C65.2,50.63,61,54.36,56.47,54.25Z"/><path class="cls-8" d="M493.21,188.1c4.15,0,9.85,4,9.84,6.9,0,2.53-6.1,6.37-10.25,6.46s-7.52-2.56-7.53-6.14C485.26,191.55,489,188.13,493.21,188.1Z"/><path class="cls-9" d="M505.81,30.31a7,7,0,0,1-7.39,6.53c-3.72-.2-6.44-2-6.82-5.9-.34-3.51,4.12-7.17,8.17-7a5.92,5.92,0,0,1,6.06,5.78C505.83,29.92,505.82,30.11,505.81,30.31Z"/><path class="cls-9" d="M57.24,183.47c-.1,3.16-3.28,5.59-7,5.28-3.42-.28-5.66-2.13-5.63-5.55S47,178.06,50.44,178C54.46,178,57.34,180.25,57.24,183.47Z"/><path class="cls-10" d="M146.47,119.81c5.23,14.92,4.93,15.39-12.64,16.39C138.23,125.89,140.21,123.31,146.47,119.81Z"/><path class="cls-10" d="M368.22,119.12c5.5,15.63,5.15,16.08-12.39,17.09C359.76,127,361.13,125,368.22,119.12Z"/><path class="cls-11" d="M154.59,70.07c.77-4.42,3.27-7.48,5.52-10.46,2-2.65,3.44-8.25,7.3-6.36,3.66,1.79,2.86,7.5,3.36,11.62.23,1.9-1.49,2.79-3.19,3.09C163.44,68.69,159.27,69.31,154.59,70.07Z"/></g></g></svg>