<svg xmlns="http://www.w3.org/2000/svg" viewBox="0 0 1641.28 1891.02"><defs><style>.cls-1{fill:#040302;}.cls-2{fill:#432f1a;}.cls-3{fill:#312c2c;}.cls-4{fill:#f0e19a;}.cls-5{fill:#fff;}.cls-6{fill:#ff9322;}.cls-7{fill:#242217;}.cls-8{fill:#f68e21;}.cls-9{fill:#2d2e2f;}.cls-10{fill:#483315;}.cls-11{fill:#4a2506;}.cls-12{fill:#535036;}.cls-13{fill:#514b33;}.cls-14{fill:#b2b3b3;}.cls-15{fill:#fffdfa;}.cls-16{fill:#111;}.cls-17{fill:#010101;}.cls-18{fill:#151515;}.cls-19{fill:#050505;}.cls-20{fill:#131212;}.cls-21{fill:#0e0e0e;}.cls-22{fill:#070707;}.cls-23{fill:#242223;}.cls-24{fill:#2c2c2c;}.cls-25{fill:#272727;}.cls-26{fill:#353535;}.cls-27{fill:#5f5f5f;}.cls-28{fill:#323232;}.cls-29{fill:#424242;}.cls-30{fill:#454144;}.cls-31{fill:#454545;}.cls-32{fill:#777;}.cls-33{fill:#999;}.cls-34{fill:#343434;}.cls-35{fill:#5a5659;}.cls-36{fill:#666;}.cls-37{fill:#7a7a7a;}.cls-38{fill:#3d3d3d;}.cls-39{fill:#7b7b7b;}.cls-40{fill:#a4a4a4;}.cls-41{fill:#9a9a9a;}.cls-42{fill:#e9c9d8;}.cls-43{fill:#b7b7b7;}.cls-44{fill:#fefefe;}.cls-45{fill:#b5b5b5;}.cls-46{fill:#fdfdfd;}.cls-47{fill:#dfdfdf;}.cls-48{fill:#9db7d3;}.cls-49{fill:#b6b6b6;}.cls-50{fill:#f8f8f8;}.cls-51{fill:#f0f0f0;}.cls-52{fill:#a0b9d3;}.cls-53{fill:#f6f6f6;}.cls-54{fill:#afafaf;}.cls-55{fill:#474747;}.cls-56{fill:#515151;}.cls-57{fill:#b1b1b1;}.cls-58{fill:#eacad9;}.cls-59{fill:#b4b4b4;}.cls-60{fill:#494949;}.cls-61{fill:#2f2f2f;}</style></defs><title>duck_order_mouse</title><g id="Layer_2" data-name="Layer 2"><g id="Layer_5" data-name="Layer 5"><path class="cls-1" d="M1162.11,1837.62c-3.44-28.16-4.86-56.48-7.38-84.72-8.07-90.59-8.37-181.48-10.83-272.29a19.06,19.06,0,0,0-5.37-13.18c-12.76-14.15-28.41-24.52-44.55-34.15-23.69-14.13-47.6-27.87-71.39-41.82-28.79-16.87-55.41-37.08-83.78-54.6-3.46-2.13-7-4.12-12.21-7.15,0,5.76,0,9.82,0,13.89.45,41-.79,82.05,1.57,123.06.48,8.4.24,16.86.18,25.29-.35,52.53.26,105,5.62,157.33,1.22,11.91-1.4,20.47-9.18,28.85-9.39,10.1-18.08,20.81-28,30.5-5.2,5.1-9.22,5.28-14,.21a205.89,205.89,0,0,0-3-35.41c-4.82-26.8-1.3-53.49.72-80.2,3.77-49.7,6.8-99.36,0-149.08-4.35-32-3.2-64.26-3.07-96.44a340.75,340.75,0,0,0-2.17-36.69c-.79-7.61-3.93-13-10.53-16.58-9-4.87-17-11.63-27-14.83-3,5.58-1.68,11-1.27,16.22,4.53,56.88,9,113.88,8.15,170.89-.71,50.07-2.44,100.26-7.94,150.19-1.63,14.83-2.19,29.79-4.59,44.56-.91,5.59.21,10.45,4.19,14.87,1.66,1.85,6.49,4.8.46,7.64-15.83-6.72-14.16-4-13.25-21.41,2.22-3.72-.15-8.11,1.75-11.88,2.21-36.34,4.21-72.7,6.7-109,4.56-66.73,3.14-133.4-1.06-200.08-1.44-23-1.49-46-3.49-68.93-1.54-17.54-1.77-35.15-3.47-52.67-.54-5.58-2.47-7.21-7.75-6.76a114.81,114.81,0,0,0-23.7,4.32c-8.76,2.65-17.47,2.18-26.17.6-10.84-2-17.27-9.44-21.36-19-3.93-9.24-5.31-19.17-6.8-29-4.08-26.91-8.64-53.72-14.8-80.26a310,310,0,0,0-26.74-72c-15.62-30.36-31.89-60.34-53.41-87.09-6-7.52-12.41-14.66-21.84-18.11-1.83-.67-3.76-1.47-3.44-3.86.41-3,2.6-1.63,4.35-1.58C642.44,907.68,657.8,900,668,882c7.52-13.28,12.57-27,12.78-42.4.07-4.85.74-9.7,1.26-15.95,6.52,4.4,7.81,10.06,9.59,15.18C699.74,862.28,715.75,870,736.2,869c9.34-.45,17.22-2.77,21.57-12.21,1-2.12,1.76-5.24,5.47-6.05,5.6,14.18,3.58,31.58,17.45,42.5,8.71,6.85,16.2,15.37,27.16,18.93,4.53,1.47,8.85,4.3,13.95,3.23,0-1.28.31-2.24,0-2.68-14.56-18-15.9-39.35-15.41-61.07.31-13.38,5.79-25.25,12.08-36.77q9.09-16.65,18.18-33.29c3.51-6.41,3.59-12.78,1.68-19.92-10.62-39.6-24-78.36-35.75-117.62a644.39,644.39,0,0,0-60.33-138.8c-.71-2.28.54-3.36,2.47-4,6.41.79,8.23,6.38,10.9,10.82,24.76,41.34,42.71,85.74,57.22,131.48,16.67,52.6,31.54,105.76,46.72,158.82a116.17,116.17,0,0,1,4.47,29c1.84-6.7,5.91-10.92,10.56-14.54,7.9-6.16,16.31-4.51,21.2,4.32,4.7,8.51,7.26,17.65,6.65,27.56a45.22,45.22,0,0,0,5.21,24.44c7.88,14.74,17.88,19.65,34.18,16.38,32.66-6.55,63-19.19,91.56-36a22.92,22.92,0,0,1,3-1.8,307.64,307.64,0,0,0,96.4-84.09,33.5,33.5,0,0,0,6.92-21.53c-.73-18.45-6.82-35.27-19.3-49.33-3.59-4-8.4-5.08-13.58-5.05-12.26.07-24.48,0-36.75,1.43-6.6.75-9.48,3.47-11.32,9.11a415.33,415.33,0,0,0-13.31,50c-.92,4.78-1,10.12-6.12,13-3.85-.79-4.11-4-4.67-7,.84-20.53,6.75-40,13-59.35,2.74-8.43,1.76-14.59-4.08-20.89-9.8-10.58-20.33-18.92-35.28-22-36.9-7.66-62-30.82-77.51-64.32-7.57-16.31-6.63-33.86-.88-50.58,3-8.65,1.28-11.38-7.54-12.6-21.76-3-42.44-10.52-63.19-17.27-46.32-15.07-91.78-32.73-138.48-46.71-4-1.2-8.24-2.21-10.67-6.21.5-3.69,2.64-3.66,5.33-2.34,19.54,2.44,37.95,9,56.4,15.4,46.31,16.05,92.27,33.15,139.7,45.77,7,1.87,14.07,3.69,21.46,3.7,6.16,0,11.51-.51,16.77-5.19,7.51-6.68,16.89-6.25,26-2.35,5,2.13,9.14,5.57,13.54,8.64a110.21,110.21,0,0,0,44.09,18.48c26.3,4.8,41.32-12.38,44.43-31.24,5.21-31.58,18.92-58.6,36.32-84.78,23-34.62,38.1-72.67,42.2-114.31,2.37-24.08,2.15-48.26-5.42-71.73a7.52,7.52,0,0,1,.26-6.18c4.24,1.28,4.73,5.47,5.83,8.5,10.24,28.41,26.44,53.74,43.25,78.29,16.56,24.19,38.89,43.29,64.73,57.77a12.6,12.6,0,0,0,3.17,1c.33.08.74-.16,1.77-.43-1.26-18.92-3-37.91-5.55-56.83-4.63-34.19-10.19-68.22-15.86-102.26-4.92-29.56.45-58,23-79.72,31.43-30.26,64.16-27.06,89.32,8.43,12.31,17.36,15.73,38,17.29,58.91.17,2.29.29,4.58.48,6.86,0,.31.32.6.77,1.41,10-3.74,19.22-9,28.28-14.63,44-27.2,89-52.84,135.21-76.1,5.92-3,8.68-6,7.31-13.06-3.84-19.85-2.87-39.9,1.21-59.47,5.08-24.28,20.34-41,43.51-49.48,11.17-4.08,21,1.39,29.12,9.3,6.48,6.32,9.89,14.39,12.29,23.05,7.14,25.76,5.94,51.68,1,77.48-2.59,13.52-6.54,26.8-10.34,40.06-6,20.86-6.61,42.35-8,63.76-.59,8.8-1.13,17.63-1.07,26.44a846.38,846.38,0,0,1-4.76,97.59c-3.77,34.72-2.82,69.73-4,104.61-.62,18.78-.55,37.59-.51,56.38,0,25.7,3.7,51.23,3.71,76.95,0,13.8,1.28,27.59,1.39,41.39.49,59.46,4.09,118.87,2.6,178.34-1.25,49.47-2.85,98.92-4.27,148.38q-.51,17.83-.81,35.67c-.88,55.23-2.49,110.47-2.38,165.7.16,82.08-.85,164.18,2.85,246.23,2.85,63.23,9.26,126.19,14.41,189.25,1.31,16,1.31,32.18,3.55,48.16a11.16,11.16,0,0,1-2.61,9.59c-13.7,15.47-27.26,31.08-40.24,45.92-4.48.56-6.08-2-8-3.56-15.41-12.68-31.48-24.45-47.59-36.21-8.66-6.32-16.67-13.51-25-20.28-1.33-1.09-1.54-2.55-1.66-4.09-1.52-5.73,1.46-6.07,5.43-4.14,5.56,2.71,10,7,14.79,10.9a534.23,534.23,0,0,0,47,34.43c-8.2-69-14.89-137.71-18-206.78-3.12-69.29.38-138.6-2.33-210.57-13.52,11.4-27,19.2-38.94,29.15-2.74,2.28-3.9,5.62-4.78,9a54.11,54.11,0,0,0-1.69,14.82c1.66,77.5-3.34,154.92-2.42,232.41.26,22.27,2.43,44.38,3.77,66.56.32,5.34,2.8,11.6-4.53,14.69-2.93-12.73-3.84-25.73-4.65-38.7-4-64.29-2.7-128.66-2.73-193,0-32.54.16-65.08,1.9-97.32-3.27-1.72-4.93.31-6.55,1.74-31.09,27.45-66.82,48.68-99.45,74.08-34.44,26.81-69.42,53-104.17,79.35-1.81,1.38-3.78,2.55-5.67,3.82-2.06-5.69-2.14-5.78,3.88-10.75,14.79-12.21,30.32-23.46,45.45-35.24,40.23-31.32,81-61.92,122-92.26q44.76-33.14,89.42-66.57c9.75-7.33,13.89-15.13,12.92-27-.71-8.76-1.84-17.37-3.26-26.42-45.31,30.49-91.43,58.61-135.53,89.74q-77.57,54.74-157.91,105.22c-9.65,6.06-15.06,12.85-13.17,24.12,3.43,20.44.53,41.28,4.17,61.68-3.65,2.76-3.12,6.59-2.81,10.46,1.67,20.61,3.26,41.22,4.89,61.83,2.59,32.82,5.41,65.63,7.72,98.47,2.41,34.12,9.63,67.42,16.17,100.85,4.47,22.91,8.85,45.84,13.82,68.64,1.11,5.13.25,9-2.61,12.8s-5.45,7.42-8.47,10.87c-15.68,17.85-30.23,36.6-44.46,55.62-7.17,9.59-5.73,8.13-15.36,3.06q-27.3-14.38-54.68-28.67c-1.49-6-.33-12-.59-17,1.65-1.43,2.94-1.57,3-1,2.54,14.85,15.12,18.79,26.24,24.33,5.49,2.73,11.41,4.89,16.33,8.43,5.87,4.22,10.53,3.24,15.45-1,4.4,3.26,7.45,1.75,10.57-2.25,13.44-17.23,26.22-35,41-51.22,4.87-5.35,3.24-11.38,1.85-17.43-9-39.27-15.84-79-23.31-118.55-5.42-28.71-6.3-57.87-8.38-86.92-2.22-31-4.71-61.91-8-92.78-1.52-14.5-2.08-29.07-3-43.57-4.58-72.39-4.8-145-2.19-217.35a2218.07,2218.07,0,0,1,46.92-379.63c28-132.15,49.69-265.43,66.88-399.4,7-54.36,11-109.06,14.69-163.75,2.06-30.18,8.15-60.07,6.76-90.52-.87-19-4.53-37.28-14.51-53.84a57,57,0,0,0-18-19.09c-14.65-9.43-29.08-10-44.22-.51-26.38,16.51-39.15,51.83-32.36,87.37,13.25,69.37,20.56,139.31,24.51,210,4.34,77.66-6.55,153.72-14.83,230.25q-11.71,108.14-29.8,215.37c-8.15,48.8-19.85,97-26,146.14-8.41,66.95-15.15,134.11-22.33,201.21-8.84,82.57-7.75,165.45-6.34,248.21,1.09,64,7.24,127.74,14.51,191.37,6,52.17,9.77,104.58,17.19,156.6,1.74,12.17,4.35,24.15,7,36.15,1,4.76,3,9.72-1,14.18-7.75-1.69-7.78-8.81-9.21-14.26-7.8-29.77-11.24-60.3-14.88-90.77-7.17-60.17-13.58-120.42-19.74-180.69-2.92-28.58-5.73-57.3-5.43-86,.4-38.76-2.68-77.4-2.6-116.12.18-84.08,6.61-167.71,17.1-251.11,5.45-43.37,8.45-87.05,15.38-130.23q11.4-71,26.55-141.26a50.15,50.15,0,0,1,2.89-9.45c-7.87,33-17.74,65.5-22.65,99.27-10.22,70.25-26.54,139.44-37.52,209.55-8.91,56.83-15.49,113.88-18.31,171.47-3,61.76-2.48,123.52-1.23,185.19,1,51.32.92,102.73,4.23,154,3.07,47.4,6.44,94.8,10.53,142.14C1167.51,1821.77,1171.63,1831.31,1162.11,1837.62Z"/><path class="cls-2" d="M1162.11,1837.62c3.86-8.85,1.75-17.95,1-27-.21-2.64-1.18-5.25-1.21-7.89-.23-25.62-3.57-51-5.19-76.56-1.9-29.75-2.86-59.53-4.72-89.24-2-32.19,0-64.37-2-96.43-3.91-61.29-1.85-122.6-1.33-183.87.16-19.69.49-39.68,3.47-59.42,1.65-10.89,1.33-22.06,2.46-33.11,2.44-23.91,5.88-47.64,9-71.45,4.35-33.67,10.24-67,16.72-100.34,6-30.68,12.15-61.32,17.67-92.07,3.83-21.36,6.52-42.92,10.08-64.33a403,403,0,0,1,12.89-54.48c3.54-11.25,6.9-22.54,10.84-35.45,3.12,8.4-.42,14.79-1.38,20.92-4,25.59-9.58,50.93-14,76.46-4.69,27-10,53.89-13.56,81.14-3,23.06-5.94,46.16-8.16,69.26-2.33,24.3-5.14,48.57-7.94,72.8-3.07,26.51-5.87,53.08-8.14,79.64-1.36,15.92-2.87,32-3.06,48-.48,38.67-4,77.35-1.75,116,2,34.84.17,69.74,2.39,104.48,1.62,25.46,2.82,51,5.79,76.45,2.07,17.76,4.1,35.61,5.43,53.5s4.3,35.55,6.31,53.34c1.84,16.29,3,32.66,5.08,48.92,3.32,26.06,5.77,52.23,10.54,78.11,2.63,14.27,4.76,28.59,9.75,42.29.65,1.79.86,3.74,2.68,4.85l-.09-.12c.49,3.29,1,6.58,1.5,10-3.32,2.19-4.82-1.07-6.92-2.12-12.58-6.27-24.9-13.1-37.73-18.77-8.39-3.72-14.67-7.83-13-18.6-1.08,5.43-.46,10.75-1.75,15.82C1161,1851.61,1162.43,1844.55,1162.11,1837.62Z"/><path class="cls-2" d="M1502.83,1612c3.43-4,2.55-9,1.45-13.18-1.82-6.85-1.22-13.69-1.81-20.52-3.93-45.16-3.18-90.46-1.6-135.59,1.75-49.84,1-99.65,1.86-149.46.2-11.68,3.34-21,14.6-27.39a160,160,0,0,0,30.49-22.39c1.67-1.55,3.57-2.88,6.31-2.79,2.65,1.84,1.42,4.74,1.42,7.17.09,61-.4,122,.4,183,.26,20.17.75,40.5,3.82,60.59.57,3.76.34,7.66.34,11.49,0,26,3.11,51.79,6.35,77.59,2.56,20.43,4.66,40.93,7.54,61.32,1.31,9.31,3.64,18.54,1.48,29-11.73-6.36-20.82-15.15-30.79-22.64-12.22-9.19-24-19-35.83-28.65-3.28-2.67-3.56-.09-4.37,2C1501.81,1618.7,1502.42,1615.33,1502.83,1612Z"/><path class="cls-2" d="M1249.48,1464.44c-2.63-2.28-4.94-4.54-4.69-8.61,1.23-19.93-1.81-39.71-2.45-59.59-.26-8,2.77-12.9,9.31-16.83,50.53-30.35,99.14-63.68,147.55-97.21,25.8-17.86,52.11-34.9,78-52.61,17.68-12.1,35.52-23.92,54-34.77,8.18-4.8,14.14-12.74,23.9-16.77,1.29,15.31,3.28,29.91,2.71,44.75-.19,4.79-2.35,7.29-5.87,10.24-21.11,17.72-44.91,31.8-66.35,49-40.86,32.76-84.51,61.78-125.49,94.33-24.54,19.48-49.45,38.45-74,57.87-2.13,1.69-7,2.88-4.51,7.71C1271.63,1450.57,1260.74,1457.77,1249.48,1464.44Z"/><path class="cls-2" d="M836.83,1684c2.95-3.88-.77-4.61-2.92-5.46-5.16-2-6.18-5.78-6.15-10.92s2-9.74,2.4-14.68c2.57-33.49,6.53-66.83,7.58-100.49.58-18.7.36-37.56,2.28-56.13,1.73-16.87,2.51-33.74,1.28-50.42-1.66-22.58-.66-45.19-2.24-67.68-1.63-23.24-3.58-46.43-4.58-69.73-.5-11.72-2.37-23.38-1.54-36.16,11.11,4.39,19.71,11.51,29.47,16.45,1.69.85,3.06,2.44,4.81,3.09,9.26,3.49,10.9,10.31,11.94,19.7,3.07,27.57,1,55.12,1.63,82.65.43,18.74,2.33,37.29,4.25,55.91,1.53,14.77,2.78,29.62,3.08,44.58.62,30.3-1.54,60.47-3,90.65-.84,17.1-3.35,34.16-4.2,51.32-1,20.76,3.44,41,5.64,61.48.54,5.07-.31,7.84-3.66,10.7C867.22,1701.12,851.48,1693.55,836.83,1684Z"/><path class="cls-3" d="M715.36,456l-4.81,2.4c14.53,8.89,23.1,23.25,33.16,36.23,1.63,2.11,2.76,4.66,1.51,7.52-1,1.05-2,2.1-3,3.16-13.4-18.34-27.9-35.74-46.14-52.85C704.32,452.82,710,453.25,715.36,456Z"/><path class="cls-2" d="M825.33,1650.69c.71,4.15,1.44,8.3-1.75,11.88C823,1658.44,823.16,1654.42,825.33,1650.69Z"/><path class="cls-2" d="M1243.9,1378.17c-2.4-3.53-1.43-6.65-1.44-9.55,0-37.6-1.32-75.26.55-112.76,1.16-23.24.91-46.57,3.3-69.83,1.55-15.11,2.31-30.48,3.13-45.75.7-12.93,2.54-25.79,3.79-38.7.84-8.74,1.74-17.46,2.75-26.19,2.06-17.8,4.46-35.56,6.47-53.34,3.12-27.7,7.68-55.14,12.46-82.55,4.25-24.41,9.62-48.62,14.46-72.93,8.64-43.37,17.49-86.68,24.93-130.29,4.94-28.91,9.94-57.86,14.71-86.79,5.21-31.57,10.56-63.15,15.25-94.83,4.58-30.92,8.72-61.91,12.63-92.9,2.28-18.12,4.44-36.35,5.5-54.68,1.25-21.68,4.33-43.25,6.26-64.91,1-11.41,1.59-22.89,2.26-34.29,1.33-22.51,5.12-44.81,5.34-67.4.06-5.66,2.36-11.2,2.07-17-.18-3.54,2.13-5.5,5.1-6.93,30.77-14.77,58.78-34.39,88.84-50.44,22.29-11.9,44.19-24.55,66.9-35.66,2.07-1,4-2.2,6.16-3.1,5.44-2.3,7.51-1.52,7.61,4,.15,8.84,2.47,17.56,2.27,26.23-.89,38,3.07,75.77,2.73,113.71-.43,46.79-1.42,93.65.28,140.39,1.63,44.43.66,88.88,2.46,133.26.72,17.57,1.42,35.15,1.87,52.73a66.89,66.89,0,0,0,1,7.95c1.16,7.85,3.41,15.7-2.42,23-1.21,1.5-.9,4.41-.9,6.67,0,22.25-1,44.57.47,66.72,1.07,15.69,2.89,31.49,1.2,47-2.23,20.32-2.23,40.61-1.25,60.8,1,21-.78,41.92-.89,62.87-.07,13.33-2,26.65-1.79,40.07.71,36.3-.35,72.61-.1,108.91s-.32,72.89.06,109.33c.11,11.18-2.37,22.06-2.22,33.16,0,3.63-2.34,5.23-4.63,7.35-11,10.23-23.83,17.9-36.45,25.87-44.32,28-88,57-130.65,87.42-25.53,18.21-51.32,36.13-77.93,52.81-14.57,9.14-28.46,19.36-42.79,28.9C1257,1370.54,1250.37,1374.24,1243.9,1378.17Z"/><path class="cls-4" d="M970.68,914.57c-14.49-4.18-29.3-7.62-42.26-17.1,59-5.36,108.09-31.39,153.56-65.7,31.25-23.57,56.23-53.07,78.27-85.18,3.18-4.63,6.78-9.37,5.34-16.21-8.42,3.63-9.4,13.07-16.35,18.9-1.21-23.19-8.59-43.32-25-60.52,6.93-1.75,12.82-3.16,18.67-4.73,10.51-2.82,19.62-8.3,28.71-14.16,16.94-10.93,19.24-28,13-44.49A84.79,84.79,0,0,0,1156,587.21a232.25,232.25,0,0,0-26.08-16.82c-8.4-4.7-16.39-10.06-22.64-17.5-18.6-22.19-25.57-46.66-14.86-74.83,5.9-15.54,14.08-29.75,23.24-43.5,22.82-34.27,38.56-71.41,45.07-112.22,2.79-17.48,4.09-35,1.17-53,4.29.82,4.39,4.37,5.72,6.78,8,14.42,14.84,29.56,23.88,43.27,17.54,26.61,40,48.56,68.66,63.14,7.76,3.94,11,8.52,11.53,17.39,3.65,66.78,3.6,133.35-5.67,199.82-7.84,56.19-14.13,112.61-21.08,168.93-2.41,19.53-8.88,38-14.27,56.8-9.19,32-20,63.62-25.58,96.62-.72,4.26-2.82,7.89-5.3,11.37A141.75,141.75,0,0,1,1173.23,962c-23.66,19-49.1,35.43-74.72,51.63-23.32,14.76-47,29-67.75,47.49-14.49,12.89-26.59,27.55-32.5,46.48-1.88,4.54,0,9.89-3.08,14.2-1.3,1.83-2.15,4.36-4.82,4.25s-3.37-2.74-4.09-4.85c-2.69-7.94-5.23-15.93-8-23.84-9.09-25.68-22.38-49.21-36.89-72.11-2.05-3.22-4.24-6.35-4.76-10.27-16.41-21.91-36.14-40.42-57.77-57.09-16.4-12.64-32-26.27-45.81-41.73-24.52-27.52-25.64-58.6-11.76-91,4-9.43,10.17-18,15.5-26.82,1.1-1.81,2.23-4.09,5.72-3.91,3.88,10.86,6,22.38,8.52,33.79.75,3.35-.57,5.89-2,8.63-3,5.62-4.48,12.09-2.39,17.8,2.53,6.87-.25,10.8-5,14.61,2.79,3,4.24.06,5.81-.94,9.62-6.17,16.4-14.86,21.39-25,2-4.12,3.65-8.45,5.76-12.52,4.66-9,8-9.18,13.46-.82,3.91,6,5.49,13,3.89,19.83-3.45,14.82,2.43,26.86,10,38.68,2.78,4.34,6.61,7.34,10.82,10.09,17,11.06,35.62,17.5,55.51,20.65,8.94,1.66,17.9,1.31,26.84.12.38,0,1.83.26,1.19-.62-.52-.72-2-1-2.86-1.64l-15.55-.73C975.72,914.8,972.83,916.19,970.68,914.57Z"/><path class="cls-2" d="M1221.72,1872.21c-1-13.76-6-26.75-7.77-40.39-2-15.49-4.88-30.83-6.26-46.43-1.58-17.83-4.1-35.57-6.22-53.36-1-8.71-1.14-17.47-2.39-26.23-2.59-18.11-3.27-36.48-5.12-54.7-1.89-18.58-4.28-37.11-6.39-55.67-1-9.1-1-18.25-2.17-27.41-1.59-12-1.94-24.38-2.52-36.57-3.33-70.09-3.66-140.27-2-210.39.46-20.12.61-40.45,3.44-60.62,1.63-11.64,1.39-23.6,2.71-35.41,2.12-18.94,3.67-37.94,6.31-56.84,2.32-16.62,3.56-33.39,5.38-50.08,2-18.57,4.35-37.11,6.17-55.71,1.41-14.43,3.2-28.8,5.14-43.18,2.25-16.64,5.15-33.14,8.21-49.64,7.23-39,15.26-77.84,21.49-117,4.85-30.48,9.4-61,13.86-91.57,3.19-21.87,4.74-44,7.38-65.94,2.68-22.33,6.53-44.55,8.48-66.93,1.46-16.75,3.63-33.41,5.65-50.06,4.82-39.57,7.51-79.26,6-119-.75-19.11-.82-38.27-2.08-57.34q-3.63-55.29-11.69-110.16c-3.56-24.1-8-48.13-12.16-72.15-5.08-29.37.6-57.52,23.83-79,8.68-8.05,18.59-15.2,31.18-15.64,18.46-.64,32.21,8.51,42.7,22.78,12.42,16.88,17.39,36.53,18.39,57.06,1,21.42-.67,42.69-3.71,64-1.66,11.59-2.26,23.57-3.27,35.35-1.32,15.59-1.75,31.23-3.73,46.79-1.48,11.71-1.43,23.61-2.75,35.42-2.36,21.22-4.16,42.51-6.43,63.75-1.71,15.93-3.8,31.82-5.5,47.76-1.94,18.19-4.8,36.29-7.66,54.36-4.11,26-8.59,51.9-12.87,77.84-3.23,19.57-6.29,39.16-9.63,58.7-4.31,25.17-9.18,50.25-13.15,75.47-4.16,26.4-10,52.45-15.25,78.61-8.64,43-17.52,85.91-24.5,129.22-3.88,24.1-7.06,48.28-10.67,72.41-2.42,16.21-3.44,32.63-5.1,49-2.16,21.25-4.54,42.48-6.42,63.76-1.11,12.55-1.55,25.18-2.37,37.75-3.46,52.8-2.86,105.72-2.78,158.61,0,15.35-.48,30.72.23,46,1.12,24,2,48.09,3.92,72.11,1.14,14.44,1.63,29,2.89,43.47,1.12,12.92,2.39,25.83,3.93,38.7,1.36,11.4.72,22.85,2.4,34.32s2.12,23.62,2.47,35.4c.84,27.63,5.32,54.69,10.31,81.71,4.85,26.25,10.14,52.41,15.42,78.58,1.66,8.22,3.76,16.36,6,24.45,1.13,4.08.88,7.42-2.18,10.54-17.71,18.12-32.1,38.91-47.44,58.94-1.36,1.78-2.78,3.7-5.47,4.54-3.2-2.54-2.39-7.84-6.25-10Z"/><path class="cls-4" d="M879,1155.73c-8.1-27.06-10.78-54.78-9.62-82.89,1.35-32.61,8.7-63.56,27.41-91.94,14.39,10.41,24.67,24.8,36.89,37.2,8.5,4.3,11.3,13.19,15.93,20.43,19.3,30.16,32.85,62.81,41.69,98.43-.89-5.15,1.07-8.9,2.66-12.73,1.74-4.19,2.74-8.82,6.49-11.94,12.64-29.4,35-49.9,61.28-66.74q33.87-21.72,68-43a427.49,427.49,0,0,0,50.9-37.48c6.33-5.4,11.53-12.12,17.24-18.25l2.23,1.41q-5.86,32.94-11.72,65.89c-9.27,51.67-20.08,103.08-27.64,155.05-7.23,49.71-13.77,99.49-15.5,149.78-.44,12.58-1.54,25.14-2.34,37.89a51.22,51.22,0,0,1-18.59-2.18,169.34,169.34,0,0,1-49.64-23.45c-16.09-11.1-32.58-21.62-48.78-32.55-15.71-10.59-33-17.94-50.64-24.34-18-6.52-36.41-11.8-54.65-17.64-2.55-.82-5-1.88-7.64-2.5-30.1-7.12-42.67-29.11-47.36-57a114.09,114.09,0,0,1,1.34-43.47c.5-2.25.77-4.58,3.19-6.19,3.34,3.76,3.61,9,6.27,13.1,5.51,5.32,6.23,13.43,11.13,18.61C882.87,1172.38,879.07,1164.72,879,1155.73Z"/><path class="cls-2" d="M1584.31,1676c-1.21-9.89-2.26-18.9-3.4-27.9-2.89-22.69-6.25-45.33-8.54-68.07-1.07-10.63-2.13-21.33-3.36-31.89-2.72-23.24,0-46.72-4.06-69.81a19.47,19.47,0,0,1-.11-2.3c-3.36-74-3-148-1.81-221.94.28-17.91,1-35.92,1.69-53.88.32-8.53-1.47-16.75-2.18-25.11-.89-10.44,2.21-20.49,2.19-30.87-.12-85.56-1.75-171.17.62-256.67,2.18-79,.81-157.95,1.67-236.92.09-8.86,2.74-17.33,2.35-26.25-1.07-24.85-1.52-49.78-3-74.54-1.38-22.24-1.78-44.41-1.36-66.57.56-29.16-2.42-58.15-2.41-87.26,0-14.54,3.18-28.9,2.08-43.52-3.7-49.37-.52-98.88-2.75-148.24-.9-19.9-1.18-39.77-1.76-59.66-.22-7.65-1.66-15.23-2.74-22.72a207.18,207.18,0,0,1,.75-64c1.95-11.71,5.65-23.07,15.59-31.17,4.14-3.38,7.48-7.72,11.5-11.27,10.62-9.37,23.25-8.43,32.37,2.34,8.73,10.32,13,22.61,13.68,35.84a285.73,285.73,0,0,1-5.64,71.82c-4,19.81-7.45,39.7-12,59.41-1.87,8.13-1.94,16.82-2.17,25.05-.46,16.86-3.42,33.55-2.92,50.39.92,30.68-.72,61.37-3,91.83a1362.18,1362.18,0,0,0-3.43,146.91c1,29.87-.08,59.83,2.22,89.54,1.77,23,.56,45.94,2.17,68.81,4.17,59.38,2.51,118.83,1.41,178.2-.63,34.06.14,68.26-2.3,102.21-2.48,34.51-.4,69-1.94,103.4-4.63,103.5-1.24,207-1.77,310.57a506.63,506.63,0,0,0,3.91,66.33c.67,5.3.32,10.73.33,16.1,0,14.94,2.17,29.68,4.13,44.44,1.31,9.84,1.47,19.85,2.09,29.7.9,14.11,2.7,28.16,3.21,42.32.44,12.55,2.8,25,3.64,37.57.9,13.35,1.61,26.67,5.14,39.69a8,8,0,0,1-1.61,7.6c-11.82,13-22.21,27.32-35.11,39.38C1587.15,1675.38,1586.24,1675.39,1584.31,1676Z"/><path class="cls-5" d="M745.22,502.14a158.89,158.89,0,0,0-23.69-30.76c-3.94-4.07-8.76-7.45-11-13,65.19,18.37,127.58,45.33,193,62.94A183.7,183.7,0,0,0,938,527.65c-2.23,7.25-5.7,13.59-7.31,20.6-4.82,20.94-1.82,40.1,11,57.83,18.7,26,42.15,44.28,74.71,48.78,10.75,1.49,17,9.75,24.46,16.08,4.92,4.19,10.4,8.82,12.88,14.47,2.63,6-3.16,12-4.8,18.1-4.75,17.75-10.13,35.34-11.67,53.78.26,23.82-4.73,47.35-3.64,71.27.4,8.66,4.37,17.13,1.53,26a7.94,7.94,0,0,1-4,4c-25.85,13.44-51.92,26.33-80.7,32.5a46.63,46.63,0,0,1-6.78,1.23c-9.34.58-19.1,4.08-27.37-3.6-10.2-9.47-17.82-20.25-16.53-35,.9-10.23-1.17-19.81-5.18-29.09-4.37-10.13-11.29-11.72-19.78-4.76-5.44,4.45-8.43,10.55-10.85,16.33-16.51-72.14-38.62-142.63-61.31-212.9a547.19,547.19,0,0,0-45-101.77C753.85,514.73,750.36,507.9,745.22,502.14Z"/><path class="cls-6" d="M800.18,969.46c5.75-4,6.93-10.6,9.17-16.47,3.79-10,7.42-20,13.17-29.39.94,6.69,1.49,13.3,3,19.76s2,13.51,5.95,18.47c6.11,7.73,3.88,13.26-1.32,19.9S823.06,997,820.48,1005c-8.54,26.51-13,53.61-11.87,81.53.41,10.33,1.42,20.54,6,31.54-7.63-3.44-10.33-9.74-15.2-13.85.51,9.08,5.06,16.77,13.22,23.17,12.77,10,27.62,14.58,43.3,17.1,1.5.24,3,.37,4.51.62.34.06.62.43,1.29.91-5,21.69-6.06,43.61,1.18,67-25.46-12.51-49.84-8.47-74.61-2.39-20.73,5.08-35.15-1.07-39.26-23.35-4.52-24.5-8.69-49.07-13-73.6-8-45.51-24.83-87.63-48.66-127.09-4.76-7.88-9-16.06-14-23.8-11-17.1-21.68-34.41-38.47-49.16,30.61-3.54,39.38-26.85,49.44-49.73,4.6,3.46,4.56,9.53,7.69,13.66,8.73,9.24,9.63,22,14.74,32.85,1.89,4,2.09,8.83,4.55,11.23-5.46-15.57-13.49-31.46-16.6-49.09l-4.55-15c16.71,19.86,37.55,21.25,61.77,15-.73,22.89,2.89,45,3.43,67.34,2.72-22.69-.44-45.66,4.24-69,9.55,27.45,30.52,41.39,56.89,50.31-7.9,15.45-13.64,31.44-16.14,48.44Z"/><path class="cls-6" d="M1085.38,619.3c-5.46,1.13-9.56,4.7-13.94,7.77-7.54,5.27-15,10.64-22.67,15.75s-16,7.55-25.1,6.42c-23.09-2.84-43.78-10.91-60.27-28a200,200,0,0,1-14.22-16.57c-17.62-22.84-16.25-46.84-4.51-71.42a40.58,40.58,0,0,1,6.67-9.29c5.56-6.14,12.42-7.15,19.89-3.93a33.57,33.57,0,0,1,7,4c18.34,13.83,37.67,24.94,63.08,22.56-9.94,7.58-24.46,9.52-37.79,5.81-12.59-3.51-23.63-10-35.11-20.27,10.51,19.91,35.15,30.77,59.24,27.92,24.54-2.9,40.68-18,53.11-36.76,1.66-1.05,2.1-.75,2.43.28,8.11,25,23.92,43.09,47.24,55.3,18.21,9.53,34.22,21.89,44.38,40.54,3.35,6.16,5.89,12.38,6.23,19.49.51,10.34-2.81,18.3-11.47,24.75-16.27,12.14-34.2,18.83-54.43,18.7-14.2-.09-28.38-.66-42.43,2-7.12,1.35-12.7-1.26-17.36-6.56-6.07-6.89-11.9-14-20-20.86,21.47-7.64,35.93-24.83,54.91-35.29,7.76-6.1,14.61-1.14,21.17,2.25A135.18,135.18,0,0,1,1131,636.63C1118.74,628.34,1105.49,615.19,1085.38,619.3Z"/><path class="cls-2" d="M1141.9,1465.67c-14.38-17.64-32.51-29.18-51.09-39.68-46.67-26.37-91.84-55-136.44-84.74-36.92-24.59-74.91-47.59-112.61-71-6.14-3.81-10.14-7.83-9.23-15.48,1.34-11.17-2.38-22-2.21-33.14.12-7.61,2.76-9.72,10-7.07,6.79,2.49,13.62,5.28,18.77,10.8,1,1.12,2.31,2.06,3.24,3.27,16.36,21.18,39.61,30.57,64.26,37.5,24.32,6.83,48.26,14.71,71.47,24.72,11.29,4.87,21.57,11.6,31.82,18.29,12.82,8.37,25.62,16.8,38.12,25.62,20.68,14.58,43.35,24.26,68.29,28.22,5.32.85,7.2,2.6,7.17,7.88-.16,30.68-.07,61.37-.12,92.05C1143.33,1463.53,1142.72,1464.14,1141.9,1465.67Z"/><path class="cls-2" d="M892.44,1703.15c-2.42-1.32-2.14-3.39-2.16-5.23a266.11,266.11,0,0,0-4.46-43.17c-1-5.93,2-11.29,1.89-17-.49-19.54,1.71-39,3.08-58.39,1.33-18.63-.15-37.46,3.5-56,1.27-6.44-1.35-13-1.36-19.31,0-29.88-5.41-59.28-7.1-89-1.61-28.24-3.64-56.52-2.69-84.87.3-9.07.6-18.2-2.75-29.72,14.68,9.29,27.19,17.14,39.6,25.13,2.54,1.64,2.57,4.57,2.46,7.29-.89,22.16,1.14,44.35-1.81,66.53-1.39,10.46-1.58,21.37.87,32,.84,3.67.7,7.61.7,11.43.09,39.49-1.24,79,.57,118.44,1.49,32.35,0,65,6.07,97.06.43,2.3.42,4.72-1.29,6.53-11.27,12-20.1,26.06-32.35,37.18C894.49,1702.8,893.24,1702.88,892.44,1703.15Z"/><path class="cls-5" d="M1039.6,764.62c4.43-21,8.93-42,16.05-62.28,1-2.9,1.91-5.83,3-8.67.71-1.78,1.78-3.55,4-3.53,16.44.1,32.74-3.62,49.27-1.78,3.27.36,6,1.31,8.08,3.69,16.56,18.63,25.86,39.62,21,65.16a23.62,23.62,0,0,1-4.48,10.44c-27.35,35.21-59.33,65.11-98.73,86.56-3.87-3.89-3.7-9.23-4.21-14-2.39-22.1-.5-44.15,2.32-66.09C1036.43,771,1037.27,767.37,1039.6,764.62Z"/><path class="cls-5" d="M830.06,923.22l43.25,38.39c-5.25,10.2-13,16.62-27.67,15.52,9.24,9,15.79,16.69,20.92,25.52,3,5.23,4.09,10.2,2.33,16.34-10.37,36.14-10.27,72.64-3,109.31,1.8,9.11,1.75,9.11-7.44,8.08-6.5-.72-12.72-2.63-19.07-4.05-12.13-2.73-17.64-10.84-20.54-22-5.5-21.23-5.13-42.62-1.29-63.91,4.48-24.86,9.11-49.83,22.4-72,2-3.33-.17-5-1.17-7.16C831.67,951.84,829.59,942.11,830.06,923.22Z"/><path class="cls-7" d="M1000.44,1112.29c-3,9.86-6,19.73-9.06,29.57-.2.64-1,1.1-2.11,2.35-3.27-28.69-14.55-54.07-27.1-79-8.28-16.43-18.72-31.59-28.5-47.13l2.93-3.11c13.41,15.44,22.52,33.58,31.63,51.61A270.36,270.36,0,0,1,990,1125c5-5.06,3.87-12.63,8.3-17.43C998.7,1109.3,998.63,1111.24,1000.44,1112.29Z"/><path class="cls-8" d="M873,1003.89c-3.7-8-8.63-14.12-15.09-20.73,9.16-3.46,15.71-8.85,19-17.22,4.37-.07,6.19,3.25,8.84,5.16,2.06,1.49,3,3.6,1.63,6C882.63,985.7,879.17,995,873,1003.89Z"/><path class="cls-9" d="M1039.6,764.62c-1.17,15.51-4.15,30.85-4.36,46.45-.21,14.46-.48,28.9,2.67,43.14l-2.83.3c-3.47-3.72-2.81-8.63-3.34-13-3.44-28.38-1-56.43,5.45-84.2C1038.32,759.63,1036.9,762.8,1039.6,764.62Z"/><path class="cls-10" d="M694.72,872.53c8.23,16.35,12.22,34.16,17.58,51.58-8-15-15.09-30.36-20.27-46.57C694.45,876.69,694.15,874.38,694.72,872.53Z"/><path class="cls-11" d="M1085.38,619.3c8.68-4.88,17-2.65,25.08,1.5,10.58,5.46,19.93,12.8,30.8,20.81-6.27.62-9.6-2.38-13.07-4.54-5.52-3.45-10.82-7.26-16.25-10.87-6.61-4.41-13.7-6.62-21.68-4.64C1089.11,619.77,1087.09,619.87,1085.38,619.3Z"/><path class="cls-12" d="M879,1155.73q6.18,14.36,12.35,28.72c-7.73-6.39-12.39-14.47-14.92-23.82C878.85,1159.83,878.19,1157.4,879,1155.73Z"/><path class="cls-13" d="M993.44,917.05c4.2-1.12,8.28-.14,12.89.27-7.09,4.94-26,5.71-38.06,1.87C976.6,917.76,985.36,921.39,993.44,917.05Z"/><path class="cls-14" d="M852.42,844.22c2.73,6.41,5.75,10.23.08,13.95C850.75,852.28,850.68,852.28,852.42,844.22Z"/><path class="cls-13" d="M970.68,914.57a8.1,8.1,0,0,1,7.21,1.75A6.24,6.24,0,0,1,970.68,914.57Z"/><path class="cls-1" d="M800.18,969.46c0,1,0,2.11-.09,3.15a11.44,11.44,0,0,1-.55,2c-.34-.55-.94-1.08-1-1.64-.06-1.38,0-2.88,1.78-3.32Z"/><path class="cls-15" d="M939.25,564.35c.8-7.23,1.73-14.85,7-21,4-4.71,9.77-6.13,14.32-3.54,5,2.84,6.43,7.45,5.27,12.78-1.7,7.83-3.53,15.64-5.66,23.37-1.86,6.74-6,8.38-12,5.11C941.7,577.57,939.72,571.58,939.25,564.35Z"/><path class="cls-16" d="M592,966.44c-2.57,2.87-2,6-1,9.33,1.35,4.77,2.36,9.64,3.56,14.68,2.82,1.09,4.73-1.14,6.88-2.29,31.38-16.84,60.2-37.49,88.24-59.3,3.91-3,8-5.9,12-8.85,2-.65,2.58.27,2.22,2.13-31.7,26-64.23,50.77-100.63,69.89-6.85,3.6-9,8-7.6,15l3,15.08a168.86,168.86,0,0,0,22.29-5.27c23.88-7.22,47.14-16.14,70.41-25.07,2-.81,2.63.12,2.4,2a520.62,520.62,0,0,1-87.9,31.46c-5.84,1.54-8.64,4-10.21,10-3.46,13.4-11,24.76-20.43,34.88-2.47,2.66-4.91,5.35-7.37,8-1.85,2.12-.76,4.4-.38,6.65,2.28,14.42,6.84,28.41,7.76,43.12,1.43,23,2.53,45.87-2.93,68.52-2,8.44-4.07,16.93-10.26,23.48-3,3.21-1.12,6.08-.27,9.21a473.46,473.46,0,0,0,27,72.89c19.24,41.9,12.85,115-12.11,153-8,12.22-15.62,24.69-24.25,36.55-8.23,11.31-18.12,20.26-30.5,26.58-1.12,1.7-2.27,3.37-4.57,3.54-7.47-2.45-13.37,1-19.5,4.67-5.24,3.13-13.91,8.9-16.62,3.53-3.5-6.94,7.08-8.15,12-10.83,7.51-4.1,12.32-8.59,15.68-17.48,5.53-14.63,14.86-27.83,25.18-40a3.69,3.69,0,0,1,3.33,2.58c.22,12.3-8.84,20.33-14,30.13-1.85,3.5-5,6.31-6,10.31-.42,1.65-.76,3.49.4,4.8,1.62,1.83,3.67.9,5.49,0,6.82-3.21,11.91-8.61,16.6-14.19,27.24-32.41,48.63-67.76,52.67-111.1,2.36-25.39,1.31-50.46-8.37-74.71-10-25-19.59-50.24-28.44-75.76-15.83-45.64-15.58-91.42-5.44-137.72-15.24,4.24-16.72,5.5-24.9,17.4-10.38,15.1-20.79,30.19-34.61,42.53-8.3,7.42-33,9.6-42.36,3.55-3.38-2.2-4.79-5.47-5.58-9.11-4.54-20.82-10.06-41.61-9.26-63.07.44-11.88-5.92-19.25-13.11-26.76-2-2.11-4.7-2.25-7.43-2.16-3.33.1-6.7.26-9.95-3.6,7.39-5.53,15.58-9.86,21.33-17.39,3-3.91,6.1,1,5,3.43-7.57,16,5.73,22.42,14.13,29.89,18.9,16.84,41.12,27.43,67,26.65,17.82-.54,33.62-8.39,47-19.78,11.87-10.12,23.22-21.19,28.89-36.45.81-2.17,2.57-4.65,1.3-6.64-1.86-2.88-4.89-.76-7.33-.31-9.83,1.82-19.65,3.7-29.57,4.92-3.23.4-7.33,1.3-7.89-3.5s4.66-3.62,6.55-5.47c9.19-9,20.55-3.55,30.66-5.67,10.64-2.23,11.91-4.38,11.32-14.9-.29-5.17-1.73-6.57-6.66-4.09-8.64,4.34-16.67,9.79-25.46,13.84-2.72,1.26-5.32,2.8-8.26,3.51-1.3.32-3,.78-3.82-.24-3.1-4.05,2-7.7.84-12.05-.55-2.17,2.83-4.29,5.07-3,5.63,3.31,9.42-.41,13.73-2.65s8.69-4.94,13-7.47c9.06-5.31,9.32-6.36,3.81-17.2-6.78,9.93-18.34,13.51-26.3,21.76-2.25,2.33-6.36,6.47-9.23,3.22-3.31-3.75,1.6-7,4.09-9.86a59.63,59.63,0,0,1,10.13-9.64c5-3.49,5.74-7.52,3.19-12.93a99.54,99.54,0,0,1-6.78-20.88c-.88-3.9-1.93-7.84.42-11.63a4.31,4.31,0,0,1,2.59-1.09c6.35,2.17,3.28,7.56,4.14,11.5a45.18,45.18,0,0,1,1.69-14.75c1.66-5.75-.39-8.65-6-9.51a5.27,5.27,0,0,1-.75-5.34c3.7-3.09,12.24-1.18,10.38-10.06,1.92-2.7,3.15-6.77,7.86-4,2.15,4.24.41,8.45,0,12.7-1.94,18.56-9.42,36.66-3.61,54.58,6.41-7.43,6.42-7.43,5.88-19.29-.9-19.45,1.86-38.6,6.68-57.27,4.73-18.3,4.68-34.8-10.4-48.5-.79-2.56.19-4.31,2.51-5.43,13.55,9.07,20.4,21.14,18.08,38-1.22,8.91-3.18,17.63-5,26.4-3.72,17.71-4.28,35.59-3.08,53.58C591.52,963,593,964.14,592,966.44Z"/><path class="cls-17" d="M577.6,906.14,571.77,912c-1.67,4.59-6.58,5.13-9.77,7.83l.06,6.85c3.12,4.51,3.21,9-.07,13.48l-2.25,0c-5.1-3.78-5-9.4-4.26-14.58,4.76-35.26,7.17-71.07,23.51-103.72,1.75-3.5,4.13-8.12-1.83-9.78-5.64-1.58-6.26,3.38-7.13,7.3-8.23,37.06-25.09,70.07-47.09,100.68-2.14,3-4.16,6.11-8.07,7.07a4.65,4.65,0,0,1-4.09-1.72,11.64,11.64,0,0,1-2.11-7.08c6.15-4.15,7.55-8.07.44-13.08-3.79-2.68-5.08-7.52-5.95-12.12a27.56,27.56,0,0,1-1.07-5.7c.7-6.61,4-12,8.66-16.35,2.19-2,4.71-5.52,8.25-1.5a23.43,23.43,0,0,1,1.77,8.59c.07,2.68-3.1,4.18-2.4,8.25,3.06-3.39,3.29-8.19,7.21-9.76,2.16-2.69,1.7-5.18-.57-7.55-4.12-2.74-4.68-5.4.19-7.88a16.93,16.93,0,0,1,5.74-1.42c16.25-2,16.55-2.3,20.45-19.18-1.13-3.8-8-.88-7.59-6.45a9.57,9.57,0,0,1,1.92-.51c12.76-.73,12.73-.73,14.94-13.29,1.68-9.57,1.56-19.25,1.05-28.83-.5-9.25,0-18.53-1.58-27.78-1.67-9.71.53-19,4.66-28,4.71-10.32,13.29-14.31,23.63-15.82,4.47-.65,8.44.88,12.1,3.54,10.81,7.84,15.24,21.25,12.48,34.36-5,24-15.09,45.93-25.78,67.7-2.9,5.91-6.76,11.46-7.26,18.33l-2.07,4.57a117.93,117.93,0,0,0,2.41,43.71C581.35,896.59,581.75,902.11,577.6,906.14Z"/><path class="cls-18" d="M243.8,1526.32c14.14-.56,28.39,1.65,42.3-1.13.82-3.2-1.54-3-2.65-3.71-22.24-14.26-35.22-34.63-39.71-60.48a178.7,178.7,0,0,1-2.15-30.76q0-30.87,0-61.73c-.7-2.33.52-2.76,2.45-2.49,4.93,14.78,3.77,29.88,3.67,45.19-.21,30.45-1.92,61.67,20.1,87.25,5,5.85,10.3,11.24,19,16.36-10.11-17.59-15.36-34.63-15.77-53-.07-6.4.72-12.84-.94-19.16a12,12,0,0,1,.27-6.59c.84-1.54,1.88-2.7,3.88-1.91,5.34,6,4.74,14.26,7.8,22.08,7.64-6.55,10.09-14.6,10.86-23.23a122.51,122.51,0,0,0,.11-21c-1.78-21.26,6.38-39.19,18.41-55.69,8.44-11.57,17.28-22.86,25.66-34.48,19.59-27.18,32.17-56.72,30.06-91.1a46.83,46.83,0,0,1,.37-11c.39-2.17.37-5.23,3.38-5.33,2.79-.1,3.49,2.81,4.16,4.91,4.91,15.48,3.76,31.12-.51,46.33-6.7,23.87-16.26,46.5-32.34,65.91-7,8.46-6.63,9.37,4.07,11.17,31.55,5.32,63.11,10.35,95.34,8.73,26.06-1.3,48.91-12,71.67-23.24,2.33-1.08,4.27-3.44,7.3-2.36,7.26,5.78,8.45,14.91,12.16,22.58,6.08,12.57,12.39,25.09,17.07,38.29,4.56,12.86,2.86,25.62-.91,38.28a13.16,13.16,0,0,1-4.87,7.38c-1.95.31-3-.8-3.78-2.37-1.41-4-.38-7.95.76-11.76,3.8-12.78,2-25.12-3-37.09-4-9.51-9.15-18.5-12.92-28.13-2.23-5.7-5.77-7.48-11.74-4.74-27.2,12.5-23.54,6.9-18.91,32.61,5.5,30.46,11.46,60.83,15,91.63,1.84,16.18-1.38,22.56-16.11,29-26,11.44-53.77,15.45-81.72,16.84-31.91,1.59-63.94,1.31-95.31-6.39-19.54-4.79-23.78-11-19.17-30.82,8.68-37.33,20.79-73.69,32.29-110.2.3-1,.76-1.86,1.06-2.81,1.19-3.8,3.15-8-1.52-10.66s-7.37,1-9.84,4.16c-12.41,15.87-19.41,33.64-16,53.93,3.55,21.36.15,39.78-18.14,53.45-4.27,3.19-3.73,7.4-2.57,11.76,5.44,20.5,15.31,37.47,35.84,46.46,3.82,1.67,11.15,2.83,8.76,8.46-2.08,4.9-9,2.49-12.46,0-10.13-7.22-21.21-3.24-31.89-4-9.41-1.89-18.93-.36-28.36-1C250.36,1530.57,245.38,1532.18,243.8,1526.32Z"/><path class="cls-19" d="M243.8,1526.32c2.59,2.91,6.06,1.86,9.21,1.91,7.83.13,15.67,0,23.51.07,2.54,0,5.29-.66,7.27,1.77-3,3.84-7.4,4.55-11.69,4.57-31.28.12-62.62,2-93.6-4.83-17.37-3.83-33.87-10.09-50.23-16.65-34.59-13.89-67.43-8.92-98.91,8.64-11.91,6.65-22.25,16.37-20.07,31.81,2.23,15.79,15.31,21.13,28.77,23.77,20.79,4.08,41.79,2.69,62.63-.52,34.9-5.37,69.84-10.29,104.38-18,20.16-4.49,40.42-1.44,59.89,6,14.33,5.45,28.56,11.26,43.33,15.37,17.79,5,35.51,5.87,52.28-4a48,48,0,0,0,6.49-4.66c10.84-9.09,10.67-10.49-2-16.79a12.3,12.3,0,0,1-1.77-.91c-3.25-2.36-9.87-3.5-7.32-8.65,2-4,7.24-.41,10.78.76,23.81,7.9,47.34,11.11,70.62-2,3.41-1.92,9.16-5.56,11.6-1.26,2.76,4.85-3.39,7.75-6.94,10.43-5.8,4.39-12.53,7.15-20.08,9.48,3.86,3.93,9.15,3.14,11.78,6.91,1.17,3.53-1.36,3.41-3.56,3.6-2.16-.12-4.4.43-6.44-.72-5.36.11-9.43-2.62-12.06-6.81-1.86-3-3.92-4.23-7.17-4.24a16,16,0,0,1-4-.36c-10-2.58-16.19.5-22.55,9.58-14.73,21-37.17,24.47-60.74,20.47-18.42-3.13-35.54-11.08-53-17.49-15.55-5.69-31.51-9.08-48-7.24-11.86,1.33-23.56,4.29-35.26,6.8-32.28,6.93-65,11.1-97.74,14.72-17.19,1.91-34.62,1.51-51.55-3.47a57.81,57.81,0,0,1-18.81-9c-12.75-9.61-16.36-24.79-9.39-39.16a50.9,50.9,0,0,1,17.71-19.93,91.21,91.21,0,0,1,15.87-8.4c18.73-8,38.63-12.39,58.11-17.7,24.11-6.57,47.5.34,69.78,10.34,10.32,4.64,20.48,9.64,30.72,14.45,13.38,6.29,27.19,10.82,42.25,10.33C239.88,1525.23,241.85,1526,243.8,1526.32Z"/><path class="cls-20" d="M511.39,923.4l2.83,3c.86,5.89-3.28,9.26-6.87,12.54-7.14,6.5-14.31,13.22-23,17.46s-9.89,9.64-7.14,18.56c2.59,8.4,7.58,16.51,6,26a3.87,3.87,0,0,1-2,1.92c-5.63-.11-7.27-3.91-7.63-8.6-.57-7.42-3.46-14.18-5.69-21.13-1.7-5.31-5.19-6.57-10.08-4.38-5.19,2.32-2.9,5.88-1.31,9.14,4.23,8.67,9.68,16.68,13.68,25.48,4.73,10.41,4,11.81-7.88,13.88-2.73-1.34-4.57-3.84-3-6.42,3.73-6.28.28-10.93-2.94-15.46-6-8.41-7.63-20.25-19.34-24.27-2.75-.95-1.92-3.71-1-6,1.8-4.45-.42-8.38-3.55-10.51-3.49-2.39-5.78,1.92-8.18,3.89-4.09,3.35-7.29,7.79-12.24,10.14-2.56.88-5.53,1.71-6.71-1.44-1.38-3.67,3-3.34,4.5-5.06,5.5-4.71,10.94-9.51,16.55-14.09,3.08-2.51,3.82-4.93,1.45-8.4-2.05-3-3.57-6.36-5.35-9.54-21-37.64-39.82-76.43-59.93-114.53a17.52,17.52,0,0,1-.95-2.81c-.95-2.16.15-2.6,2-2.38,12.29,21.3,22.83,43.54,34.39,65.23s23.19,43.28,35.14,65.59c8.75-5.37,13.3-13.55,18.81-20.72,2-2.6-.35-5.72-1.28-8.48-11.71-34.61-23-69.34-33.63-104.32-1.91-6.35-3.54-12.78-5.3-19.17-.77-1.91-1.92-4,1.71-4,13.37,43.42,27.23,86.66,42.54,130,6.59-5.15,8.55-11.07,7.8-18.51-2-19.86-3.13-39.76.25-59.61,5.45,1.15,3.82,5.75,4.53,9.23-.09,15.58-.74,31.18,1.72,46.15,3.34-6.83,8.6-13.13,13.54-19.64,2.53-3.34,4.27-6.7,3.11-11.05-10-37.21.67-71.1,16.75-104.12,20-41,42.95-80.52,64.27-120.87a476.8,476.8,0,0,0,33-78.14c1.59-5,2.26-10.55,7-14,1.87.11,3.09.74,2.28,2.94-7,28.58-17.91,55.71-31.45,81.72-16.88,32.45-34.38,64.59-51.78,96.77-9.66,17.87-18.78,36-26.28,54.87-9.24,23.28-13.86,47.2-8.85,72.28.64,3.17,1.16,6.34,3.12,9.88,13.94-13.91,27.65-27.73,48.88-28,1.58,2.15,3.92,1.8,6.13,1.86s4.58-.23,5.74,2.38c-2.48,2.12-5.52,2.23-8.51,2.14-12.82-.39-23.07,5.37-32.47,13.3-21.19,17.89-35.44,41.32-50.74,63.88-2.87,4.23,1.62,25.54,5.58,28,3.38,2.14,4.85-1,6.39-2.85,5.56-6.74,9.29-14.57,12.73-22.52s6.12-16.19,9-24.34c1.15-3.21,1.19-7.54,5.93-8.31l1.83,5.15c-3.6,5.59,2.14,12.33-2.17,17.85-4.61,3.11-4.56,8.65-6.77,13-4.34,8.56-7.86,17.63-14.47,23.87,6.86-4.78,13.27-11.3,19.76-17.74C504.54,927.18,506.85,923.59,511.39,923.4Z"/><path class="cls-21" d="M275.6,1271.82a19.82,19.82,0,0,1,1.91-3.45c5.26-6.17,4.49-11.81.62-18.86-16-29.14-14.25-58.79-.23-88.06a259.68,259.68,0,0,1,23.7-39.24c9.72-13.52,18.65-27.51,27.1-41.84,5.41-9.19,10.6-18.59,12.81-29.09,7.39-35.15,30.11-59,57.63-79.5,2-.75,2.89.37,3.52,2,.13,4.35-3.41,6.15-6,8.6-8.71,8.2-17.61,16.26-25.2,25.51-25.25,30.78-30.08,65.56-19.57,103.18,2.14,7.68,5.59,14.93,7.51,22.69.05,2.13-.45,4-2.47,5.08-3.12-.37-3.24,1.6-3.5,4.07-1.71,16.41-9.55,29.27-22.6,39.28a55.41,55.41,0,0,0-18.52,25.34c-6.69,18-13.61,36-23,52.83-3,5.42-5.31,11.55-11.61,14.38C276.06,1274.46,274.85,1273.85,275.6,1271.82Z"/><path class="cls-22" d="M429.53,1572.27c1.67-.13,3.27-.4,4.27-2,3.61-3.72,8-2.17,12.21-1.81,35.78,3,68.42,16.41,100.42,31.29a302,302,0,0,0,98.67,27.06C668,1629,691,1624.75,711.53,1613c12.38-7.11,12.76-11.39,4.54-22.78-11.53-16-26.52-23.67-47.16-20.79.68,4.9,5.32,7.36,6.92,11.45.63,1.59,1.21,3.27,0,4.7s-3.05,1-4.6.49a34.32,34.32,0,0,1-12.37-8.24,57.76,57.76,0,0,0-16.25-11.42c-4.24-3.63-12,1.56-14.74-5.9a21.35,21.35,0,0,1,17.44-.61c6.39,2.59,13,2.34,19.63,2,4.65-.28,9.3-.51,14-.49,15.58.07,28.42,6,38.13,18.33,3.29,4.18,6.75,8.26,9.7,12.67,5.78,8.65,4.9,15.24-3.09,21.8-9.37,7.69-20.19,12.68-31.86,15.92-25.52,7.07-51.09,7.28-77,1.65s-50.54-13.79-74.23-25.61c-34.77-17.35-71.38-29-110.34-32.27-.73-.07-1.08-.31-1.06-.74S429.34,1572.27,429.53,1572.27Z"/><path class="cls-23" d="M466.13,846.74c-1.23-3.41,1.07-7.54-2.17-10.53,1-17.77,5.2-34.83,11.6-51.36,12.81-33.06,30.83-63.44,48.58-93.94,10.88-18.7,22.38-37,32.89-55.94,18-32.35,33.5-65.84,43.61-101.61C603.55,523.08,605,512.58,606,502c.5-5.26,1.42-10.48,2.15-15.72a1.82,1.82,0,0,1,2.68.59c3,7.52,1.05,15,.13,22.62C606,549.57,589.65,585.66,571.58,621c-23.2,45.4-52.13,87.61-75,133.25-13.51,27-24.45,54.76-26.4,85.33C470,842.51,470,845.8,466.13,846.74Z"/><path class="cls-24" d="M401.8,974.17l-2.66-2.39c4.69-6.17,4.75-6.24-.6-11.57Q363.26,925.07,327.9,890c-.28-1.67.05-2.69,2.06-1.91,24.1,22.45,47.69,45.45,71.06,68.66,2.38,2.37,4,6.6,8.72,5.28-.14.31-.25.62-.41.91-.76,1.38-3.63,2-2.66,3.67,1.45,2.56,3.4-.08,5.14-.41,8.43,3.88,13.47,11.61,19.92,17.71,7.95,7.51,15.76,15.2,23.11,23.29,2.12,2.33,7,6.1-.78,8-14.64-9.23-25.76-22.37-37.83-34.43C412.06,976.54,407.84,973.65,401.8,974.17Z"/><path class="cls-25" d="M627.89,1560.46c2,2.19,4.68,1.3,7.13,1.46,3.06.21,6.42-.72,8.78,2.25-16.32,2-29.78,9.62-41.53,20.81-1.55,1.48-4.36,2.68-6.3.6-2.16-2.31,0-4.27,1.56-5.95,2.43-2.72,5.45-4.86,8.54-8.6-23.89-1.7-44.55-11.17-64.37-22.46-11.17-6.37-22.45-13.35-24.51-28l4.6-2.39c.55,8.3,6.76,13.26,12.44,17.14,22.11,15.11,45.22,28.11,73.29,28.43A59.22,59.22,0,0,0,627.89,1560.46Z"/><path class="cls-26" d="M275.6,1271.82c.69.77,1.39,1.53,2.09,2.3.41,7.94-6.55,10.94-10.85,15.48-6.65,7-14.48,12.85-24.28,14.62-6.43,1.16-6.37,4.27-4.29,9.08,6.18,14.28,5.64,29.78,7.87,44.78.43,2.89.18,6-2.54,8.14-.68.76-1.35,1.53-2,2.29-2.73-7-1.76-14.44-2.58-21.66-2-17.7-7.28-34.44-15.11-52.93,14.8,10.15,24.67,2.11,34.75-5.35C265.1,1283.79,269.71,1277.17,275.6,1271.82Z"/><path class="cls-27" d="M330,888.06,327.9,890c-6.25-4.48-11.28-10.29-16.69-15.66q-32.62-32.32-65-64.9c-3.7-3.71-7.09-7.73-10.65-11.63,2.16-2,2.87-.1,3.52.57,28.38,29.06,58.14,56.71,87.05,85.22C327.51,885,328.68,886.56,330,888.06Z"/><path class="cls-28" d="M592,966.44l-2-4.64c3.57-1.34,5.67-4.45,8.13-7,19.63-20.53,39.41-40.91,57.81-62.56,1.75-.34,2.72.07,2,2.09C637.7,920,615.26,943.61,592,966.44Z"/><path class="cls-29" d="M703.79,922.14,701.57,920c19.08-16.32,37.83-33,54.68-51.68q9-9.95,17.84-20c1.69-.47,2.7-.28,1.72,1.8C754.48,876.85,731.61,902,703.79,922.14Z"/><path class="cls-30" d="M610.16,546.67l-2.29-2.48c-2.85-2.85-1.78-6.28-1-9.37,6.92-26.81,8.93-54.08,8-81.66-.11-3.3,0-6.64,1.51-9.72a2.25,2.25,0,0,1,3-1.22C624.88,477.79,620.06,512.45,610.16,546.67Z"/><path class="cls-31" d="M413.37,784.34l-1.71,4q-8.32-25.32-16.63-50.65-6.76-20.65-13.46-41.32c-1-2,.06-2.3,1.75-2C394.42,724,404.36,754,413.37,784.34Z"/><path class="cls-32" d="M323.39,736.57c-3.06-3.58-4.53-8-6.41-12.19-11-24.48-21.94-49-33.9-73-.7-1.41-2.05-2.72-.09-5.52,15.67,29.23,29.28,58.78,42.51,88.51C325,735.3,324.81,736.51,323.39,736.57Z"/><path class="cls-33" d="M704.19,822.39c7-15.08,15.36-29.48,22.14-44.69a220.21,220.21,0,0,0,13.72-39.45,15.34,15.34,0,0,1,3.08-6.17c-5.13,33.63-20.8,63-37.31,92.11A2.57,2.57,0,0,1,704.19,822.39Z"/><path class="cls-34" d="M323.39,736.57l2.11-2.23,38,75.91-2,2.38c-8.07-12.5-13.87-26.2-20.57-39.42C334.82,761.13,329.22,748.79,323.39,736.57Z"/><path class="cls-35" d="M619.39,442.22l-.8,0-.79-.07c-6.27-1-3.34-7.69-7.44-11.42,2.76,14.9,2.24,29.06,2.12,43.19,0,4.2.82,8.73-2.68,12.22l-.84.12-.86,0c-.56-19.93-.22-39.91-3-59.74-.39-2.88-.44-6.59,3.6-7.07a6.67,6.67,0,0,1,7.42,5.38C617.55,430.55,618.34,436.41,619.39,442.22Z"/><path class="cls-36" d="M657.9,894.31l-2-2.09q18.6-25.34,37.18-50.68c1-.18,1.49.25,1.4,1.28A311.93,311.93,0,0,1,657.9,894.31Z"/><path class="cls-37" d="M383.32,694.42l-1.75,2c-3.08-3.67-3.91-8.35-5.33-12.66-4.53-13.8-10-27.23-15.34-40.7-.85-2.1-1.89-4.25-.12-7.16A600.64,600.64,0,0,1,383.32,694.42Z"/><path class="cls-38" d="M693.67,993.81l-2.4-2,52.28-25.87c2.12-.85,2.46.17,2.08,2C728.64,977.19,711.79,986.77,693.67,993.81Z"/><path class="cls-39" d="M745.63,967.89l-2.08-2c11.62-7.27,23.29-14.47,35.74-20.29.92-.17,1.28.17,1,1.1A218.07,218.07,0,0,1,745.63,967.89Z"/><path class="cls-40" d="M233.08,794.1c-6.94-4.69-10.52-10.75-16-16.39C223.57,779.81,229,785.41,233.08,794.1Z"/><path class="cls-36" d="M704.19,822.39l1.63,1.8c-3.31,6.5-6.75,12.92-11.35,18.63-.46-.43-.92-.86-1.4-1.28Z"/><path class="cls-32" d="M277.83,639.33a63,63,0,0,1-8-13.79C274.44,628.16,274.82,628.77,277.83,639.33Z"/><path class="cls-41" d="M263.37,614.28a12.67,12.67,0,0,1-5-11.45c1.9,3.63,5.32,6.5,5.52,10.93Z"/><path class="cls-32" d="M263.92,613.76a7.59,7.59,0,0,1,3.61,5.41c-3.36,0-3.28-2.86-4.16-4.89Z"/><path class="cls-42" d="M567.38,1084.84c-2.88-2.39-2.42-4.59.38-6.65C567.63,1080.41,567.5,1082.62,567.38,1084.84Z"/><path class="cls-43" d="M429.53,1572.27a5.25,5.25,0,0,1,.73,1.53c-2.47.89-4.7.73-6.52-1.4Z"/><path class="cls-43" d="M243.6,1366.22c-.84-21.45-1.74-42.88-12.5-62.94,22.29-.48,34.87-14.16,46.59-29.16,9.25-11.55,14.83-25.09,20.65-38.47,4.24-9.73,7.92-19.71,11.75-29.61s9.27-18.47,17.88-24.67c13.74-9.9,21.45-23.18,23.38-39.91.15-1.32-.09-2.84.48-3.93,1.92-3.71,2.57.31,3.83.76,6.58,3.86,8.42,11.59,13.26,16-4.22-6-9.67-12-11.06-20.24-14.41-30.4-17.68-61.65-7.73-94.11,6.61-21.59,21.36-37.25,37-52.33,4.78-4.61,9.76-9,14.65-13.48,3.9-3.32,6.91-4.34,11.33.42A470.38,470.38,0,0,0,454,1013.36c2.13,3.56,6.16.5,8.74,2.51,3.35.31,5-4,9.27-2-6.45-16.21-15.87-29.62-22.54-44.41,17.43-7.84,17.58-7.88,22.85,9.37,1.68,5.52,5.06,10.62,3.17,17.19-1.21,4.21,4.25,4,6.55,6l-.16.14c.48-7.24-3.32-13.46-4.84-20.22-.8-3.56-2.12-7-3.17-10.49-2.95-9.88-2.89-9.78,6.26-15.1,13.3-7.75,25.39-16.94,34.13-29.92,14.41-17.13,26.76-35.63,35.44-56.3,5.39-12.84,11.73-25.35,15.12-39,1.2-4.85,2.44-9.68,2.55-14.7.08-3.6.94-6.62,5-7.59a11.41,11.41,0,0,1,11.8,3.4c2,2.17,1.12,4.24-.07,6.35-18.16,32.25-20.95,68.29-25.46,103.87-.75,5.89-.85,12,1.18,17.79,0,11.6,4.37,22.06,8.48,32.58,3.63,9.28,4.09,7.16-3.22,14.12q-8.91,8.46-17.76,17l1.63,1.92c3.62-3,7.06-6.17,10.9-8.79,5.31-3.63,8.35-10.54,15.7-11.11,1.83-.15.89-1.06,1-1.79,1-4.72,5.27-6.43,8.74-10.3,2.1,6.07,3.87,11.28,5.71,16.47,1.3,3.67-1.58,4.62-3.8,5.91-10.08,5.84-20.19,11.61-30.27,17.41-2.12-1.57-1.78-5.65-5.47-5a3.28,3.28,0,0,0-2.07,1.86c-1.13,3.1,1.28,4,4,4.82l-7.33,6.08c3.28,1.84,5.32-.61,7.39-1.71,11.47-6.09,22.76-12.53,34.2-18.67,5.64-3,6.75-2.23,6.84,4.24.24,18.94.24,18.94-18.48,23-2.27.5-4.53,1.09-6.81,1.53a3.21,3.21,0,0,1-3.31-1.23c-4.52-4.82-4.41-4.63-7.2,1.86-1.48,3.46-5.31,2.93-8.32,3.18-1.5.12-3.06-1.18-4.66-1.39s-2.3,1.12-2.38,2.54a2.59,2.59,0,0,0,2,2.95c1.21.17,2.53-.46,3.81-.68l42-7.27c1.52,4.41-.71,7.67-2,10.91a90.16,90.16,0,0,1-35.47,43.53c-15.19,9.66-31.84,18.16-51.47,16a100.94,100.94,0,0,1-25.05-6.37c-14.32-5.47-28-12.25-38.6-24a155,155,0,0,0-12.8-12.57c-3.64-3.21-4.54-6-1-9.93,2.39-2.65,4.54-5.89,2.43-10.29-4.9,2.29-4.2,8.85-9.07,11.19-4.11,2-7.75,5-13.27,7.06,3.13,1.48,5.47,1.82,7.27.86,6.43-3.44,8.66,1.17,12.78,4.86,10.12,9.06,10.66,20.41,11.22,32.52.92,20,4.76,39.59,9.58,59,1,4.15,2.74,6,7.1,6.74a146.24,146.24,0,0,0,22.85,1.81,14.42,14.42,0,0,0,10.63-4.48c15.86-15.4,30.05-32.07,41-51.34a12,12,0,0,1,6.56-5.73c7.15-2.67,13.86-6.28,21.28-10.45-8.31,27.78-10.91,55.4-9.33,83.44.71,12.65,2.18,25.18,5.46,37.48,8.49,31.94,20.65,62.57,32.93,93.15,18.18,45.25,15.19,90.09-3.45,134.08-9.78,23.1-24.83,43.27-40.85,62.56-5.21,6.27-12.09,10.41-19.11,14.26-4,2.21-5.88,1.13-6.73-3.51-1-5.74,1.2-10.47,4.78-14.68,6.33-7.43,10.29-16.31,15.18-24.62a12.05,12.05,0,0,0,2.1-6.57c1.86-3.82,3.6-3.27,5.1.21,2.13,5,4.44,3.74,7.07.39,5.59-7.1,9.78-14.86,11.23-24a50.91,50.91,0,0,1-9.17,21.08c-1.48,2.06-3.07,4.78-6.28,3.9-3-.81-3.89-3.77-4.13-6.28-.92-9.51-2-19.14,4-27.67-.3-3.53,2.5-5.92,3.3-9.11,4-16,3.53-31.47-3.73-46.58-8-16.72-15.81-33.58-23.69-50.38-8.45-14.57-11.6-30.89-14.72-47.08-1.13-5.86-3.91-11.84-1.79-18.13-2.14,6.39,1.16,12.33,1.67,18.5s2.23,12.4,4.07,18.41c1.94,6.34,3.84,12.68,5.88,19,1.34,4.16,4.36,8.53.47,13-36.23,21.75-75.37,29.08-117.08,23.44-18.78-2.54-37.59-5-56.17-8.85a31.48,31.48,0,0,1-10.44-3.76c24.8-28.53,40.68-61,43.75-98.71.72-8.85-1.15-17.69-4.23-26.94-2.33,2-1.74,4-1.8,5.69a33.4,33.4,0,0,0,.28,5c4,36.23-9.2,67.33-29.15,96.23-7.75,11.22-16.46,21.79-24.65,32.7a151.62,151.62,0,0,0-15,24.75c-6.09,12.49-6.05,25.85-5,39.14,1.15,14.54-1.39,27.83-10.2,39.66-1.37,1.84-2.4,4.13-6.18,3.9-1.87-9.06-2.47-18.74-6.17-27.63-10.55-10.61-5.08-22.51-2.48-34.16-5.29,21.18-9.57,42.42-5.92,62.43-.75-7.33-2-16.63-.83-25.88.4-3.14-1.17-8.95,3.6-9,5.14-.07,2.44,5.71,3.61,8.76l.84,5.52c1.65,6.76-.51,13.75,1.23,20.5.45,20.43,8.24,38.57,19.1,57-5.45-.12-8.2-2.51-10.94-4.58-21.67-16.35-33.72-38.08-35.42-65.2-.94-14.9-2.24-29.81-1.16-44.8C245.92,1392.06,244.59,1379.13,243.6,1366.22Z"/><path class="cls-43" d="M517.19,1520.55c8,15.59,21.45,24.93,36.85,32.18,18,8.49,36.25,16.12,58.85,14.94L596,1585.13c4.77-.68,7.27-3.17,9.92-5.56,3.45-3.12,7.05-6.08,10.67-9,8-6.5,17.18-8.37,27.22-6.4a48.06,48.06,0,0,1,18.64,12.95,25,25,0,0,0,13.5,8.47c-3.34-8.07-9.72-12.11-14.42-19.42,17-.45,32.94-1.69,46.18,10.6,5.4,5,9.78,10.88,14,16.85,5.39,7.6,4.87,12.07-2.76,17.72a71,71,0,0,1-23,11.76c-23,6.46-46.24,8.34-70.05,4-33.31-6.1-64.74-17.26-95.34-31.58a287,287,0,0,0-67.08-22.2,149.34,149.34,0,0,0-29.7-3c-6.14-2.76-14-1.2-19.89-8.38,14-2.79,25.66-8.5,35.49-18-2.67-2.47-4.78-.51-6.38.46-27.15,16.39-54.82,12.45-82.71,2.42-1.14-.41-2.25-1.64-4.22,0,7.19,5.82,16,7.84,25.2,11.87-8.17,12.81-18,22.58-32.68,25.9-13.81,3.13-27.7,3.36-41.34-1.66-13.43-4.94-27-9.39-40.43-14.41-23.37-8.76-46.89-11.25-71.48-5-36.53,9.28-74.05,13.14-111.3,18.21a140.5,140.5,0,0,1-45.77-1.12,54.26,54.26,0,0,1-21.13-8.58c-11.15-7.8-14.41-20.22-8.69-32.6a43.3,43.3,0,0,1,19.76-20.52c31.11-16.17,63.25-21.92,97.28-9.48,16.55,6,32.8,13,50.05,17.1,26.19,6.3,52.78,6.57,79.43,5.93,9.6-.23,19.35.43,28.8-2.26a15.83,15.83,0,0,0,4-.08c9.59-2.63,18.64-3.1,27.25,3.53a13.14,13.14,0,0,0,11.84,2.24c-.83-2.46-2.87-3.15-4.84-3.94-.93-.37-1.8-.88-2.74-1.23-26-9.49-35.81-31-41.18-55.75-.89-4.07.31-5.59,4.51-7.74,13.45-6.88,18.52-19.56,19.07-33.94.28-7.25-.79-14.6-1.66-21.85-2.64-22,7.77-39.27,20.19-55.74,3.16-4.2,5.42-3.58,13.11.23,4.88,2.42,2.51,5.5,1.49,8.33-12.35,34.15-21.54,69.28-31.94,104a192.55,192.55,0,0,0-4.71,20.43c-2.06,11.12,1.78,16.73,13.05,19.62,26,6.67,52.58,8.35,79.3,8.15,21.33-.16,42.53-1.56,63.55-5.68A226.88,226.88,0,0,0,495,1498.07c10.14-4.08,13.36-9.13,12.14-20.2-1.78-16.2-3.76-32.4-6.47-48.47-3.64-21.66-7.93-43.21-12.23-64.75-1.08-5.42-.25-8.48,5.47-10.55a214.16,214.16,0,0,0,22.7-10.31c4.08-2,6.48-1.93,8.49,2.71,5.28,12.22,11.15,24.18,16.41,36.41,5.35,12.43,5.49,25.29,1.38,38.08a41.53,41.53,0,0,0-1.4,8.75c-.74,11.24.09,22.85-7.58,32.47-5.51,11-11.42,21.81-19.26,31.42-3.25,4-5.82,8.47-5.33,13.62.53,5.58-2.67,7.71-6.78,9.65-6.31,3-12.58,6.07-18.88,9.11-1.52.74-2.92,1.59-3.46,3.75,5.32.56,9.65-2,14-4.16,2.38-1.19,5.07-2.2,6.85-4C506.29,1516.13,511.56,1516.65,517.19,1520.55Z"/><path class="cls-42" d="M558.31,1214.79c-13.07-26.69-10.26-108.47,4.51-131.36C576.68,1107,573.67,1194.69,558.31,1214.79Z"/><path class="cls-44" d="M438.29,1076.84c12.24,9.46,23.14,17,35.68,21.69,3.11,1.16,3.68,3,2.75,6.19-4.16,14.35-7.29,29-12.62,43-1,2.65-1.29,6.19-5.75,5.19-4-.9-8.42,0-9.63-6.27-3.53-18.26-7.59-36.41-9-55C439.35,1087.36,438.89,1083.09,438.29,1076.84Z"/><path class="cls-45" d="M577.6,906.14c1.09-10.66,1.85-21.29-4.46-30.87a6.58,6.58,0,0,1-.79-5.72c2-7,2.13-14.51,5.54-21.14,10.65,6.15,16.19,15.19,15.71,27.68a105.57,105.57,0,0,1-2.89,20.67c-5.27,21.75-8.53,43.67-5.81,66.07.94,7.79-6,9.46-9.28,15.3-4.84-9.07-6.34-17.13-4.84-25.81,2.07-12.09,4-24.22,6.06-36.3A39.6,39.6,0,0,0,577.6,906.14Z"/><path class="cls-46" d="M521.41,1103.7c-9.44,20.32-23.49,35.9-39.47,49.92-4.33,3.81-9.25,2-14.69.76,3.41-11.68,6.77-23,10-34.26,1.64-5.72,1.42-13.09,5-16.81s10.39,1.33,16,1.29C505.81,1104.53,513.33,1104.37,521.41,1103.7Z"/><path class="cls-28" d="M533.9,1462.21q3.78-16.23,7.58-32.47l2.44,2.49c-1.32,11-3.4,22.11-.17,33.94,10.67-8,12-20.14,17-30.72,1.14,11.06-7.15,29.91-15.51,35.74-3,2.12-4.64,1.12-5.67-2.37-.47-1.63,2.06-6.54-3.47-4.25Z"/><path class="cls-47" d="M562,940.12a55.77,55.77,0,0,0,.07-13.48c2.11-3.69,5.67-2.66,9.28-2.78,1.17,5.76-1.55,11-2.06,16.56-.48,5.14-1.65,10.21-2.62,15.89C562,951.44,564.85,944.92,562,940.12Z"/><path class="cls-48" d="M562,919.79c.29-2.83,1.26-5.08,4.52-5.5,2-.24,3.89-.69,5.25-2.33,4.06,1.76,2.89,5.21,1,6.93C569.84,921.6,566,924.16,562,919.79Z"/><path class="cls-49" d="M503.6,887.78c-3.42,4.68-4.18,10.39-6,15.67-4.5,12.89-9.06,25.74-16.75,37.17-3.11,4.63-6.37,9.17-12.21,12.52-3.31-10.15-6.32-19.55-9.48-28.9a5.69,5.69,0,0,1,.92-5.57c15.89-22.11,29.34-46.12,50.18-64.36,13-11.37,27.42-18.8,45.44-15.88-2.47,6.53-5.17,13-7.34,19.61-1.35,4.1-3.71,4.76-7.58,4.16-6.14-1-12.31-1.18-18,2.47,1.31,2.28,4.18,1.34,4.91,3.56a9.06,9.06,0,0,1-9.41,2c-1.21-2.43-2.64-1.22-3.79-.08A40.26,40.26,0,0,0,503.6,887.78Z"/><path class="cls-50" d="M511.39,923.4c-10.51,11.33-21,22.71-35.35,29.52,10.26-11.71,16.89-25.3,21.94-39.77.53-1.52.87-3.19,2.59-3.92a.93.93,0,0,1,.82.19,3,3,0,0,1,.47.88c3.86,1.29,6.64,3.59,7.35,7.84C510.07,919.84,513,920.69,511.39,923.4Z"/><path class="cls-51" d="M594.05,729.77a6.83,6.83,0,0,1-3.14,4.87c-4.62,3.35-10,5.08-15.37,6.78-3.37,1.08-5.62-1.52-5.06-5.09,1.28-8.13,12.61-14.2,20.25-10.88C592.67,726.29,594.21,727.36,594.05,729.77Z"/><path class="cls-52" d="M509.21,918.14c-3.35-1.77-6.06-4.15-7.35-7.85,1.81-.33,1.92-1.49,1.22-2.81-2.92-5.47-1.28-10.16,2.35-14.55,1.36,6.43,4.11,11.84,10.46,14.77,1.73.8,4.12,1.84,3,4.21s-1.82,6.06-5.92,5.17C511.41,916.73,509.88,915.62,509.21,918.14Z"/><path class="cls-53" d="M518.25,870.26c2.86-2,6.14-2,9.41-2q6.06,4.85.3,10a10.56,10.56,0,0,1-8.58.16C516.5,876.06,517,873.21,518.25,870.26Z"/><path class="cls-54" d="M519.38,878.44l8.58-.16c-.22,2.86-6.19.93-4.52,5.79,1,2.86-1.24,4.9-4.16,5.41a4.22,4.22,0,0,1-4.65-2.74c-1.38-3,.24-4.87,2.62-6.43A19.66,19.66,0,0,0,519.38,878.44Z"/><path class="cls-45" d="M575.83,886.06a3.48,3.48,0,0,1-3.51,3.71,3,3,0,0,1-3.2-2.87,3,3,0,0,1,2.42-3.54C573.73,882.88,575.19,883.88,575.83,886.06Z"/><path class="cls-5" d="M326.36,1347.83c2.89-4.6,6.28-1.53,9.08-.93,31.94,6.86,64,12.13,96.85,11.84a143.81,143.81,0,0,0,57.1-12.36c8.51-3.73,17.37-6.71,25.39-11.55,1.57-.95,3.71-2.39,5,.28s-1.09,3.55-2.78,4.43a237.84,237.84,0,0,1-24.55,11c-9.77,3.77-9.84,4-7.82,14.58,3.35,17.63,6.91,35.23,10.12,52.89,3.51,19.31,6.86,38.66,7.17,58.37.19,12.47-2.41,16.7-14.15,21A236,236,0,0,1,432.47,1510c-36.29,4-72.41,3.11-108.3-3.93a100.31,100.31,0,0,1-13.49-3.46c-7.65-2.67-9.53-5.69-8.22-13.55a264.46,264.46,0,0,1,8.56-34.85c8.47-27.29,17-54.56,25.53-81.85,1.29-4.13,2.32-8.33,3.6-12.45,1.06-3.44.33-5.54-3.4-6.8S329.19,1350.93,326.36,1347.83Z"/><path class="cls-55" d="M271.34,1436.57c-2.52-1.77-1.15-5.53-4.32-8.59-2,14.93-1.24,28.61-.5,42.27-9.28-24.77-2.16-48.59,4.07-72.46,2.88,4.59.51,8.88-.54,13.11-1.66,6.61-2.44,12.88,1.84,18.88.9,1.26,1,3.09,1.47,4.66Z"/><path class="cls-56" d="M515.38,1329.83c1.25-3.82-.69-7.14-1.75-10.57-4.6-14.85-9.09-29.7-10.92-45.25a58.65,58.65,0,0,1,0-15.88c1.82,23.69,10.35,45.63,17.06,68C517.72,1326.65,517.9,1329.87,515.38,1329.83Z"/><path class="cls-55" d="M273.41,1462.59c-2.78-6.69-1.56-13.62-1.23-20.5C275.08,1448.77,273.48,1455.73,273.41,1462.59Z"/><path class="cls-57" d="M199.7,1523.32c-11.64-.39-22.95-3-34-6.64-9.46-3.14-18.74-6.82-28.13-10.18-16-5.74-32.28-10.37-49.54-10.86,8.62-3.66,17.65-3.85,26.57-2.86,12.57,1.4,25,3.82,36.77,8.72C167.63,1508.26,183.19,1516.54,199.7,1523.32Z"/><path class="cls-58" d="M609.8,486.16c1.49-15.2.51-30.36-1.09-45.46a112.65,112.65,0,0,1-.54-17.65c4.74,3.28,7,6.95,7.53,11.69.32,2.59,0,5.35,2.09,7.43.12,8.9.27,17.81.35,26.72.22,23.95-4,47.29-9.59,70.46a48.17,48.17,0,0,0-.68,4.84c-12.78,45.91-34.62,87.8-57.29,129.34C535,702.15,518.7,730.43,504.85,760c-8.07,17.23-15.23,34.76-18.08,53.75-2.39,16-2.1,31.92,2.9,47.42,1.29,4,1.37,6.58-1.64,9.72-7.31,7.64-12.58,16.89-19.28,26.64-3.65-17.81-2.21-34.35-2.62-50.79,1.58-10.15,2.88-20.35,4.8-30.44,5.67-29.81,19.51-56.37,33.65-82.74C525.14,695.2,549.47,659,569.27,620.2c16.19-31.69,30.9-64.07,37.28-99.45C608.6,509.36,610.9,497.89,609.8,486.16Z"/><path class="cls-49" d="M462.7,1015.87c-3.12-.13-6.81,1.75-8.74-2.51.84,0,2.64.59,2.1-.72-.71-1.69-2.57-2.91-3.95-4.31-11.4-11.52-22.84-23-34.17-34.59-2.26-2.31-5.29-4.08-6.13-7.57,6.76-5.71,12.93-12.14,20.94-17.27,2.65,4.69,4.76,9.17,7.54,13.17,3.15,4.54-1.55,4.3-4.4,7.08,7.05-.81,10.1,2.7,12.67,7.57,4.76,9.06,10.08,17.83,15.15,26.72,1.11,1.95,2.77,3.58-.95,5.19C458.48,1010.49,461.1,1013.41,462.7,1015.87Z"/><path class="cls-59" d="M455.4,926c3,9.2,5.62,17.75,8.53,26.2,1.18,3.41.58,5.79-2.63,7.44-1.76.92-3.51,1.89-5.34,2.66-8.61,3.64-9,3.47-13.74-5-6.09-10.92-6.15-11,2.6-20.26C448,933.68,450.1,929.38,455.4,926Z"/><path class="cls-49" d="M279.11,1238.38c-7.58-13.4-8.37-27.84-6.87-42.46a90.47,90.47,0,0,1,11.37-36c8.09-14.19,16.27-28.3,25.9-41.53,10.4-14.27,18.94-29.68,27.41-45.06,3.49.69,1.88,3.21,2.05,4.8.47,4.3-.23,8.87.92,12.93,4.87,17.13-4.13,29.5-13.84,41.51-8,9.85-16,19.57-23.4,29.9C286.48,1185.23,277.05,1209.88,279.11,1238.38Z"/><path class="cls-58" d="M342.88,1114.93c4.77,7.42,7.48,13.24,5.31,20.22a3.63,3.63,0,0,0-.12,1c-.23,16-7,28.77-19.73,38.32-11.61,8.7-18.65,20.37-23.5,33.83a406.63,406.63,0,0,1-17.49,42.12c-3.3-4-3.29-7.77-3.68-11.49-2.43-22.87,4.32-43.36,16.46-62.32A280.11,280.11,0,0,1,324,1144.68C331.33,1136.11,338.73,1127.57,342.88,1114.93Z"/><path class="cls-60" d="M357.86,1134.09c5.6,9.05,10.85,18.31,17.37,26.82a62,62,0,0,1-19.57-22.62C357.89,1137.67,357.56,1135.72,357.86,1134.09Z"/><path class="cls-61" d="M479.63,1026.24a3.55,3.55,0,0,1-3.77-3.54,3.4,3.4,0,0,1,3.39-4,3.8,3.8,0,0,1,4,3.6C483.55,1024.57,482.22,1026,479.63,1026.24Z"/><path class="cls-20" d="M481.84,1002.08c.39.44,1,.84,1.11,1.34a9.73,9.73,0,0,1-.2,2.44,14.29,14.29,0,0,1-.71-2.09A9.17,9.17,0,0,1,482,1002Z"/></g></g></svg>