<svg xmlns="http://www.w3.org/2000/svg" viewBox="0 0 778.43 1666.96"><defs><style>.cls-1{fill:#020101;}.cls-2{fill:#432f1a;}.cls-3{fill:#f0e19a;}.cls-4{fill:#684d3e;}.cls-5{fill:#ff9322;}.cls-6{fill:#38271e;}.cls-7{fill:#010101;}.cls-8{fill:#fff;}.cls-9{fill:#feba75;}.cls-10{fill:#1e1b14;}.cls-11{fill:#63c15c;}.cls-12{fill:#fdfefd;}.cls-13{fill:#62c05b;}.cls-14{fill:#eadb96;}.cls-15{fill:#e4d692;}.cls-16{fill:#e3d592;}.cls-17{fill:#ebdc97;}.cls-18{fill:#e2d491;}.cls-19{fill:#d7ca8a;}.cls-20{fill:#575238;}.cls-21{fill:#cecece;}.cls-22{fill:#a09667;}.cls-23{fill:#cec184;}.cls-24{fill:#fffdfc;}.cls-25{fill:#0c0701;}.cls-26{fill:#fdfdfd;}.cls-27{fill:#eae4bf;}.cls-28{fill:#facda0;}.cls-29{fill:#dbd5b2;}.cls-30{fill:#eae3b7;}</style></defs><title>duck_mango</title><g id="Layer_2" data-name="Layer 2"><g id="Layer_1-2" data-name="Layer 1"><path class="cls-1" d="M648.17,517.16c4.81,27.25,11.1,54.14,20.72,80.12,5.12,13.83,13,26.24,21.48,38.23,6,8.43,12.3,16.61,18,25.22,2.9,4.38,5.89,6.35,11.4,5.66,14.2-1.79,28.57-1.83,42.71-4.41,8.19-1.5,13.61,2.28,15.07,10.45a46.18,46.18,0,0,1,.59,13.92c-1.47,11.22-2.81,22.55-5.63,33.47-8.55,33.1-11.23,67-13.86,100.82-3,38.51-4,77.16-7.46,115.67-2.9,32.51-3.4,65.22-6.29,97.72-4.6,51.8-7.51,103.68-9.8,155.61-.37,8.31,0,16.66-.15,25-.64,30.31-1.06,60.64-2.16,90.93-1.7,47-4.4,93.86-5.74,140.81-1.14,40-5.77,79.75-6.28,119.77-.2,15.25-3.22,30.45-4.89,45.68-.43,4-1.16,8-.81,11.92.55,6.08-2.45,8.49-7.78,9.26a56.05,56.05,0,0,1-7.9,1c-11.66.08-23.33,0-35,0-4.89,0-8.71-1.69-12.49-5.06-16.68-14.9-31.7-31.41-47.26-47.4-8.37-8.6-9.6-18.92-8.11-29.66,8.7-62.6,6.39-125.64,7.92-188.52.63-26,.9-52,1-77.95.1-36.65-1.52-73.27-2.15-109.89-.51-30-1.41-59.92-1.54-89.89-.14-34.34,2-68.58,3.22-102.85.46-12.63,2-25.21.92-38.54-4.71-.56-9.57,2.23-14.51-.64-1.57,3.74-1,7-1.09,10.19-1.07,61-4.44,121.85-9,182.68-2.62,35.22-4.27,70.53-5.33,105.83-1.25,42-4.3,83.87-3,125.89,1,33,3.36,65.85,8.16,98.55,2.24,15.22-.77,29.75-8.47,43.32-3.94,7-8.91,11.18-17.26,11.18-12.33,0-24.65.45-37,.66-5.85.1-9.46-2.69-12.83-7.7-9.07-13.47-10.06-27.63-6.47-42.92q6.38-27.24,11.81-54.68a184.38,184.38,0,0,0,3.72-34.75c.27-44.33-.68-88.59-3.17-132.89-2.41-42.89-3-85.9-2.61-128.91.39-41.65.08-83.3.08-124.65-5.08-1.83-7.74.91-10.4,2.28-18,9.27-43.63-6.19-46.28-25-.84-5.94-2-11.82-1.91-17.86.23-15-4.47-28.83-9.82-42.55-1.42-3.64-3.38-5.1-7.35-5.06q-40.5.45-81,.52c-3.07,0-4.89,1.07-6,4-5,12.76-9.51,25.64-9.62,39.56a140.36,140.36,0,0,1-2,20.86c-2.87,18.15-28.07,33.52-46.64,24.43-14.53-7.11-24.35-16.9-27.68-32.94s-5.64-32.14-9.81-47.95c-1.26-4.75-3.41-6.47-8.32-6-6.53.6-6.56.29-6.37,6.93,1.24,44.31,1.29,88.63.46,133-.85,46-1.08,92-2.09,138-1.1,50-2.83,99.94-4.14,149.91-.32,12.32.08,24.66-.09,37-.31,22.66-.83,45.31-1.19,68-.23,14,1.19,28,2.86,41.86a80.45,80.45,0,0,1-1.38,27.81c-2.4,10.42-7,13.82-17.51,13.68-6-.07-12,0-18,0-6.27-4.5-4.06-8,1.61-10.33,4-1.64,8.49-1.63,12.78-2.18,6.85-.86,9.83-4.74,10.08-11.36a138.63,138.63,0,0,0,.06-15c-4-58.26-2.42-116.61-1.37-174.86s2.07-116.53,4-174.75c2-58,.64-115.92,1.36-173.88.16-12.68,3-25.18,2-37.88-.29-3.84.57-8.6-4.56-10s-10.69-1.76-15.74.26c-3.1,1.25-1.24,3.74,0,5.79,7.53,12.56,5.24,19-8.25,23.55-14.1,4.71-14.89,5.27-15,21-.29,53-1.65,106,.41,158.95,1.6,41.33,1.07,82.6,1.31,123.89.24,40,4.26,79.77,7.22,119.61,3.51,47.12,8,94.35,2.58,141.59-2.21,19.18-1,38.48-3.69,57.59-.44,3.11-1.1,6.66,1,9.68h0a7,7,0,0,1,.18,6.48c-4.68,13.95-12.71,26.3-19,39.47-5.31,11.08-12,21.48-17.79,32.36-2.9,5.48-7.81,6.75-13.09,7.88-13.81,2.94-27.86,2.46-41.82,3-10,.39-20,.35-30,.37-10.23,0-13.23-2.48-14.06-12.55-1.84-22.58-3.7-45.16-5-67.77-2.75-47.57-4.29-95.22-7.93-142.72-3.19-41.61-3.36-83.23-4.07-124.87-.86-50-4.36-99.87-7.17-149.78-4.26-75.53-8.35-151-11.1-226.66-1.63-44.94-4.59-89.85-9.23-134.59-2.37-22.85-6-45.56-9.2-68.32a100.1,100.1,0,0,1-1.2-18.93c.67-13,8.06-23,20.52-26.53,9.26-2.64,18.61-5,28.47-4.78,6,.15,12-.77,17.92-1.38,5.55-.57,10.9,2.31,17.69,1-3-4.08-5.51-7.51-8-10.91-5.76-7.69-5.78-7.7-.38-15.29,5.79-8.14,11.44-16.4,17.48-24.36a193.73,193.73,0,0,0,32.79-67.91c5-18.67,8.71-37.63,13.3-56.38,1.28-5.25-.93-8.82-3.45-12.87-17.11-27.48-18.41-55.69-3.27-84.42,5.67-10.76,13.95-18.88,26-21.75,6.33-1.49,7.39-4.93,7.36-10.64q-.24-53,.08-106c.08-12.32.63-24.65,1.36-37,2.43-40.45-1.28-80.51-6.2-120.61-3.4-27.68-.87-55.22,6.51-82.21a68,68,0,0,1,8.79-20c11.34-17,31.87-21.48,49.11-10.53,13,8.25,21,20.24,24.42,35.19,2.5,10.88-.3,9.79,12.75,10.09,43.35,1,86.65-1,129.93-3,38.94-1.76,77.83-4.65,116.76-6.78,4.73-.26,7.19-1.51,8.31-6.31a58.5,58.5,0,0,1,10.08-21.6c15.57-21,39.85-21.07,55.25,0,6,8.17,9.82,17.36,12.77,27,6.59,21.54,9.14,43.55,8.83,66.08-.47,34.81-6.52,68.93-11.47,103.22-4.72,32.64-8.88,65.36-11.55,98.26A33.1,33.1,0,0,0,584.18,325c3.15,8.41,6,17,8.68,25.52,4.23,13.25,11.57,24.7,20.43,35.2,4.05,4.81,8.5,8.89,15.21,10.61,10.42,2.67,18.26,9.49,23.66,18.8q23.49,40.44,1.64,81.89c-1.85,3.52-4,6.88-6.07,10.31C647.55,510.59,646.72,513.93,648.17,517.16Z"/><path class="cls-2" d="M190.58,1577.41c-4.45-8.14-2.49-17.07-1.55-25.25a278.14,278.14,0,0,0,1.33-33.85c-.14-24.62,3.92-49.17,1.86-73.76-1.38-16.53-.7-33.19-3.36-49.63a54.35,54.35,0,0,1-.32-8c-.18-15-1.93-29.75-3.67-44.59-1.08-9.2-1.32-18.52-2.13-27.78-3-33.85-2.24-67.82-2.29-101.76,0-19.33.94-38.71-.17-58-3.33-57.24-1.08-114.51-1.81-171.76-.13-10.62-.67-21.25,1.72-31.81,1.65-7.3,1.18-7.78,8.19-7.62,5.69.13,10.47-1.87,15-4.74,6.75-4.3,6.76-8.82.45-13.83a22.36,22.36,0,0,1-4.37-4c-1.33-1.82-3.06-3.91-2.2-6.35,1.08-3.07,4-3.05,6.72-3.09,6.33-.09,12.66-.1,19-.22,3.77-.06,5.55,1.75,5.37,5.46-.46,9.94,1.09,19.95-1.1,29.86a47,47,0,0,0-.59,9.94c-.09,31.32-.42,62.65-.12,94,.52,55.94-2.09,111.83-2.66,167.76-.27,25.55-.12,51.23-1.67,76.77-3.53,57.92-1.06,115.85-1.49,173.77-.07,10.21,2.44,20.44,1.82,30.78a67.77,67.77,0,0,1-.5,8c-.89,4.92-2.74,8.4-9,8.2-4.87-.15-9.75,1.57-14.79,1.65-6,.1-6.33,1.15-3.5,8.2-2.73,4.94-1,10.3-1.43,15.44C192.23,1553.24,191.45,1565.33,190.58,1577.41Z"/><path class="cls-3" d="M648.17,517.16c-1.81-3.22-3-6.47-.43-9.87C648.25,510.56,648.82,513.83,648.17,517.16Z"/><path class="cls-2" d="M190.75,1583.88l-.18-6.48C193.18,1579.49,192.61,1581.67,190.75,1583.88Z"/><path class="cls-4" d="M46.26,1362.76c0-8.1.18-17.77,0-27.43-.59-26-.78-52-2.19-77.88s-3-51.79-4-77.73c-1.26-32.23-3.34-64.44-5.88-96.6-2.24-28.55-3.42-57.12-4.13-85.74-.76-30.6-2.13-61.2-3.84-91.76-1.5-26.89-3.35-53.78-6-80.57-2.25-22.8-6-45.45-8.74-68.21-1.33-10.88-3-21.7-3.37-32.73C7.61,711,15.74,700.39,30.45,700c19.56-.51,39-3.8,58.76-1.21,13.08,1.7,26.53.38,39.87-.63,16.25-1.23,32.66-.16,49-.81,64.61-2.55,129.28-.66,193.87-2.49,42-1.19,84-.41,125.9-1.73,20.9-.66,41.71-3.63,62.6-5,16.94-1.1,33.8-2.77,50.66-4.58,27.5-3,55.14-3,82.73-4.27,16.91-.75,33.64-3.87,50.35-6.69,4.26-.71,8.49-1.74,12.78-2.1,8.17-.68,11.82,2.5,11.72,10.84-.17,14.31-1.59,28.5-5.38,42.41A298.21,298.21,0,0,0,754,776.7c-1.4,16.19-4.17,32.28-4.51,48.6-.07,3.65-.47,7.29-.69,10.94-1.66,27.89-1.54,55.89-4.54,83.68q-4.44,41.21-6,82.56c-1.39,35.58-6.4,70.84-8.39,106.37-.8,14.3-1.23,28.57-1.54,42.87-.68,31-1.36,61.92-2.47,92.85-.65,18-.53,35.93-1.36,53.87q-2.54,54.36-4.63,108.72c-.39,10.29-.77,20.61-1.28,30.9-1.24,24.92-1.43,49.88-3.74,74.75a229.11,229.11,0,0,0-.59,28c.74,24.36-4.18,48.37-4.19,72.7,0,10.43-2.44,11.86-12.74,12.18-9.31.29-18.6.24-27.91,1.37s-9.63.1-11.43-9a92.67,92.67,0,0,1-1.61-17.87c-.05-20.33,0-40.66-.15-61-.17-19.68,2.25-39.16,3.74-58.73,1.55-20.23,2.38-40.54,2.65-60.83.41-31-.93-62,.33-93,1.16-28.3.59-56.63,2.18-84.85,1.22-21.65,1.18-43.26,1.69-64.89.25-10.64,1.05-21.26,1.5-31.89.69-16-2.1-31.86-1.67-47.88.5-18.25-.3-36.54,0-54.8.42-26.62.82-53.31,2.43-79.84,1.65-27.33-.58-54.67,1.78-81.87s.65-54.53,5.31-81.57c1.81-10.47.89-21.3.32-32-.39-7.18-2.7-9.66-9.93-9.67-14.63,0-29.31-.94-43.89,1.38a47.16,47.16,0,0,1-8,.33c-23.33-.23-46.64,1.06-69.85,2.76C498.89,765.3,453,765.84,407,765.59c-30.66-.17-61.29,1.16-91.87,2.53-32.85,1.49-65.73,3.46-98.49,6.88-11.89,1.24-23.92,1.56-35.86,2-20.37.73-40.27,4.72-60.44,6.68-4.63.45-6.22,3.16-6.12,7.45.24,9.33.31,18.66.63,28,.34,9.59,1.5,19.2,1.23,28.77-.44,15.48,4,30.3,5.27,45.51.14,1.65.75,3.29.7,4.93-1.13,40.32,5.24,80.3,5.16,120.67-.06,29.24,0,58.63,1.71,87.85,1.24,21,.7,41.93,1.78,62.86,1.42,27.57,3.45,55.1,5.22,82.64.08,1.33.11,2.66.16,4,.86,24,1.14,47.94,2.71,71.85,2.4,36.56,2.46,73.19,4.24,109.74,1.19,24.32.21,48.63,1.61,72.91,2.56,44.23,1.14,88.5,1.57,132.76.11,10.38,0,10.19-10.57,12.54-9.57,2.14-19.24,1.36-28.87,1.57q-17.49.38-35,0c-8.5-.17-9.09-1.46-11.36-9.44-2.77-9.75-2.95-19.84-3.28-29.64-.64-19-2.79-37.88-2.51-56.86.37-25.34-1.23-50.63-2.75-75.86C49.46,1445.42,45.7,1405,46.26,1362.76Z"/><path class="cls-3" d="M331.73,687.18c-30,.64-60,1.76-89.94,1.76-21.65,0-43.29.34-64.93.8-7.75.17-7.84.09-10.46-7.45-12.58-36.17-15.8-72.73-4.94-110,2.4-8.25,4.79-16.59,5.14-26.08-4.37,1.91-5.17,5.58-6.35,8.69-11.7,30.88-16,62.45-8.82,95.12A382.15,382.15,0,0,0,163,690.19c-8,.4-15.21,1-22.41,1.07-14.62.2-29.26,2.11-43.87-.78-4.17-.83-7.28-2.13-9.81-5.76-3.41-4.9-7.53-9.31-11.45-14.05.09-2.9,2.68-4.24,4.42-6.06,28-29.41,47-63.51,54.9-103.65,2.83-14.37,6.26-28.63,8-43.2.2-1.63.25-3.36,2-4.3.29,0,.7,0,.92.19,29.61,24.18,63.15,27.9,99,18.6,5.42-1.4,6.93-.26,9.05,4.84,4.17,10,13.78,12.95,23.61,14.33,12.84,1.8,25.19-.7,37.21-5.26,18.06-6.84,36-14,54.8-18.72a89.07,89.07,0,0,1,39.61-.83c20,3.93,39.11,10.92,58,18.53a106.6,106.6,0,0,0,28.88,7.67c10.17,1.05,19.94-.27,29-5.45,3.87-2.21,7.75-5,8.55-9.33,1.26-7,4.81-5.85,9.77-4.5,20.66,5.59,41.41,6,62.19.29A92.78,92.78,0,0,0,641.69,514c3.09,1.92,2.39,4.88,2.72,7.37,2.41,17.86,6.56,35.35,10.79,52.84,7.76,32.18,23.71,59.89,45.64,84.39,2,2.22,3.83,4.57,5.69,6.9.14.17-.06.61-.2,1.67-24.82,2.27-49.84,3.53-76.11,4.09,11.64-35.81,11.46-70.56.12-105.19-2.12-6.48-3.86-13.16-9.7-20-.44,7.87,1.51,13.48,2.72,19.15,1.94,9.11,4.28,18.15,6.18,27.28,5.17,24.71,2.38,49-3.71,73.22-1,4.12-2.8,5.93-7.42,6.1-13.65.5-27.37.87-40.88,2.69-32.4,4.37-65,6.09-97.55,7.94-4,.22-8,.21-12,.41-2.18.1-2.86-1.22-3.25-3-.63-5.7.68-11,2.53-16.4,6.41-18.57,10-37.89,15.09-56.83,1.93-7.2-1.08-9.93-7.64-10.44-30.68-2.4-60.93.62-90.7,8-11.82,2.92-13.1,5.75-8.95,17.12,5.24,14.4,9,29.19,13.08,43.91,1.66,6.06,3,12.13,2.14,18.48a.85.85,0,0,0-.07,1.09c-4.4,3.43-9.46,1.28-14.18,1.49C361.28,687.05,346.48,685.63,331.73,687.18Z"/><path class="cls-5" d="M590.55,409.74a18,18,0,0,0,2.5-1.53c18.13-15.92,40.54-13.08,53.49,7.4,13.49,21.35,15.83,44.25,6.78,67.9-12.4,32.38-38.44,45.23-70.88,47.93-20,1.67-39-2.93-57.39-10.67-13.83-5.83-26.79-13.39-40-20.33-15.65-8.19-31.33-16.35-48.09-22-32.41-10.9-64.59-11.19-96.5,2.55-19.92,8.58-39,18.67-58.11,28.89C263.39,520,243.79,528,222.17,530.22a103,103,0,0,1-50.78-7.63c-40.48-16.8-56.18-70.68-30.38-109.06,7.61-11.32,18.63-16.93,32.29-16.59,11,.27,18.56,6.83,24.43,15.28,3,4.3,1.55,9.71,1.37,14.66-.1,2.84-2.41,2.77-4.41,2.45-6.15-.95-12.29-2-18.51-2.6,15.58,5.62,31.55,9.13,48.23,9a47.3,47.3,0,0,1,16.1,0c15.45.48,30.48-1.43,44.73-7.8,2-3.61,5.88-4.09,9.17-5.52,19.33-8.38,36-19.88,46.9-38.62,6-10.35,13.45-19.81,20.72-29.33a36.39,36.39,0,0,1,9.26-9c17.31-11.08,32.22-9.78,48,4.38,8.5,7.65,15,17,20.84,26.66,31,51,79,62,133.71,57,11.05-1,22.31-1.12,31-4.28,3.17-1.25,1-2.59,2-1.63.21.21,0,.41-.69.73-1.19.57-2.44,1.43-3.65,1.46-5,.14-11.71,5-14.66-.08C584.19,423.57,584,415.6,590.55,409.74Z"/><path class="cls-2" d="M532.68,240.41c-11.83-6.94-26.22-6-39.43-10.47-9.26-3.15-19.62-2.92-29.31-5-20.5-4.42-38.43-13.93-54.75-27.27a155,155,0,0,1-43.67-56.13c-2.63-5.72-4.59-11.76-6.69-17.71-1-2.75-1.59-5.6-4.83-7.88-2.41,4.15-2,8.2-1,11.78,1.18,4.28,1.05,8.56,1.57,12.82,2.38,19.26-1.49,37.53-8.43,55.31-5.86,15-15.9,26.75-29.43,35.47-5.82,3.74-12,5.27-19,3.73-22.76-5-42.88-.65-59,17.18-1.56,1.73-3.29,3.31-5,4.88-.44.4-1.16.48-3,1.18-.11-10.18-.85-20,.59-29.67a78,78,0,0,0,1.08-11.87c-.07-19.69,3.31-39,6.82-58.22,4.51-24.76,9.33-49.47,12.94-74.38.8-5.56.21-11.32.4-17,.23-7.29,1.33-8.72,9.23-7.33C277.35,62.58,293,62,308.57,61.16c25.27-1.36,50.57-.66,75.79-2,23.2-1.23,46.46-1.91,69.59-4,18.8-1.67,37.75-1.91,56.41-5.17,2.61-.46,5.84-.93,5,3.52C512.66,68,516.68,82,519.2,95.92c4.25,23.46,8.87,46.79,11.84,70.52a498.79,498.79,0,0,1,3.42,69.6A4.84,4.84,0,0,1,532.68,240.41Z"/><path class="cls-6" d="M651.38,1619.6c-8.37-8.55-16.27-16-23.49-24.16s-13.31-17.37-22.2-24c-2.23-1.67-3.58-3.93-2.69-7,2.44-8.33.76-17.27,3.66-25.5,2.16-6.15,1.35-12.51,2-18.76,2.93-29.89.16-60,2.27-89.77,2.43-34.31.08-68.59,1.85-102.8q1.71-32.92,1.67-65.8c0-4.65.27-9.3-1.35-13.85a14.09,14.09,0,0,1-.44-5.94c2.63-28.2-1.48-56.37-.3-84.58.87-20.93-3.47-41.84-1.65-62.78,2-23.25.68-46.59,2.3-69.77.93-13.29.25-26.66,1.9-39.77,1.69-13.32.45-26.63,1.77-39.81,3.67-36.9.59-73.87,1.88-110.78.18-5,.18-9.87,1.29-14.85a31.42,31.42,0,0,0,.09-13.88c-2.83-11.37-.77-22.44.52-33.64.31-2.69,1.27-4.47,4.17-4.54,12.62-.31,25.08-2.87,37.79-2.15,5,.28,5.93,2.57,6.15,6.89.61,12.37-1.59,24.48-2.92,36.68-1.16,10.53-3,21-3.22,31.62-.69,38.59-.86,77.25-2.5,115.76-2.28,53.63-.39,107.2-1.27,160.79-.14,8.28,2.73,16.41,1.75,24.8-3.21,27.53-.17,55.29-2.39,82.75-1.91,23.66,0,47.29-1.7,70.81-3.68,49.58.15,99.25-2.35,148.77-.85,16.82-1.14,33.76-2.85,50.65-2.52,24.76-4.34,49.82-2.2,74.71,1,12.31,1.5,24.55,1.41,36.82C650.26,1610.46,653,1614,651.38,1619.6Z"/><path class="cls-2" d="M529.25,1513.48h-5.94c-12.85,0-16-3.25-16.89-16.4-.89-12.85,2.61-25,5-37.39,3.41-17.56,8.3-34.93,10.4-52.64,2.7-22.71,4.43-45.6,1.15-68.59-1.3-9.16-.55-18.64-.44-28a469.79,469.79,0,0,0-3.77-62.61c-.6-4.93-.27-10-.29-15-.17-45.27-1.77-90.53-2.66-135.79-.54-27.26-.81-54.55-1.4-81.83-.13-6-2.37-11.7-1.94-17.81.29-4.08.59-7.67,3.66-10.94,7.59-8.09,10.5-18.42,12.17-29a355,355,0,0,1,8-38.93c1.84-6.67,3.06-8.13,9.57-6.8,10.14,2.06,20.52,1.34,30.61,3.6,5.74,1.29,8.43,5.05,4.71,9.57-4.14,5-4.07,8.92-1.22,14.16,1.15,2.11.6,5.21.59,7.86,0,18.67,1,37.43-.54,56-1.44,17.21-.13,34.57-3.21,51.66-.59,3.24-.29,6.65-.28,10,.08,19.62-2.18,39.09-3.61,58.62-.88,11.9-2.92,23.77-2.46,35.77.72,19-1.5,37.91-2.63,56.78-1.06,17.63-.14,35.3-1.75,52.81-1.81,19.62-.83,39.25-1.93,58.82-1.28,22.92,0,45.81.83,68.62a462.3,462.3,0,0,0,6.91,66.22,65.33,65.33,0,0,1-1.66,30.67c-1.76,5.81-4.5,11.07-9.17,15.19-2.06,1.81-4.06,3.53-7,3.35C545.07,1510.9,536.4,1515,529.25,1513.48Z"/><path class="cls-3" d="M494.72,237.78c28.45-2.83,47.59,10.63,61,34.5,11.52,20.43,18.66,42.63,26.56,64.53,1,2.82,2,5.65,2.87,8.51,5.57,17.68,13.58,34,28.13,47.73-9.43,3.11-17.88,6.41-22.81,14.7-6.42,1.7-6-3.47-6.74-7-1.7-8.82-2.66-17.82-5.9-26.26-19.39-50.63-53.53-85.76-106.53-101a34.46,34.46,0,0,0-7.87-1.2c-14.35-.72-17.6,1.58-20.78,15.48-5,21.67-4,43.65-2.92,65.61.08,1.65.68,3.27.71,4.94,0,2.65.43,5.79-2.57,6.93-2.59,1-4.14-1.6-5.59-3.25-4.17-4.76-7.77-10-12.51-14.27-18.92-17.1-42.6-15.18-58.72,4.63-3.45,4.25-6.39,12.57-11.72,10.7-6.3-2.2-1.54-10.05-1.55-15.38-.05-20.64.87-41.29-3.75-61.66-2.85-12.55-4.07-13.43-16.27-14-17.9-.82-33.15,6.36-47.86,15.12a141.45,141.45,0,0,0-30.53,24c-3.14,3.31-5.95,7.34-11,8.16-23.52,24.44-36,53.8-38.55,89.47-8.43-6.9-15.33-14.12-25.22-15.56.2-3.57,2.85-4.9,4.52-6.86A101.2,101.2,0,0,0,198.62,353c5.68-16.68,11.76-33.23,17.77-49.8a194.32,194.32,0,0,1,17.74-36.8C244.5,249.75,258.7,238.5,279,236.65c9.1-.83,17.87.87,26.43,4,2.25.81,4.75,2.23,4.81-2.38,0-.92,3.3-1.77,5.06-2.68q28.8-14.91,39.64-45.49a163.16,163.16,0,0,0,8.51-40.9c6.43,10.94,13.2,21.42,21.43,30.89,20.09,23.13,43.58,41,74,48.27a135.6,135.6,0,0,0,21.68,3.37c3.95.3,7.93.59,11.6,2.33.16.08.28.69.23.72-.58.33-1.19.59-1.79.88-4.2,4.24-10.75,3.89-15.8,8.19C481.2,239.29,487.84,238.11,494.72,237.78Z"/><path class="cls-6" d="M152,1642.22c-2.34-1.39-1.5-4-1.44-6.12.34-12.94-.72-25.86,1.5-38.84,1.26-7.36.39-15.14-.66-22.83-1.84-13.53-1.14-27.27-.27-40.89a65.76,65.76,0,0,0-.15-10.69,172.51,172.51,0,0,1-.43-21c1.18-41-2-81.85-2.58-122.79-.24-17.21-.46-34.57-1.73-51.79-1.94-26.17-2.74-52.39-4.23-78.56-1-18,.09-36-1.82-53.79-2.68-25,0-50-1.91-74.8-3.27-42.26-.23-84.56-2.07-126.78a506.19,506.19,0,0,0-5-55.41c-1.16-7.5-.9-15.3-.55-22.94.8-17.39-1.87-34.45-4.73-51.46a90.6,90.6,0,0,1-1.37-14.83c0-16.66.11-33.33-.16-50-.08-5.3,1.84-8.55,7-8.88,9.6-.62,19-3.29,28.75-2.43,5.95.53,6.43.8,5.17,6.39-2.69,11.95-4.78,23.9-3.1,36.26.63,4.6-1.74,9-1.78,13.78-.1,13.34,2,26.41,3.47,39.59,1,9.21,1.46,18.5,2.52,27.74,6.59,57.72,2.48,115.71,4.37,173.53,1.41,43.28.39,86.58,2.23,129.77,1.12,26.3-.28,52.62,1.78,78.78,1.65,21.12.94,42.42,5.18,63.42,1.88,9.3,1.76,19.19,2.08,28.72.71,21.27,3.61,42.44,2.61,63.78-.33,6.93-.76,14,1.4,20.82,1.47,4.68-1.77,9.06-1.53,13.76,1.19,23.32-2.88,46.48-2.05,69.79.24,7-.34,13.9,1.56,20.83a17,17,0,0,1-1.28,12.64c-9.47,17.91-18.82,35.89-28.22,53.83A2.25,2.25,0,0,1,152,1642.22Z"/><path class="cls-5" d="M378.06,775.11c59.75-1,119.59-.6,179.59-5,.85,6.78-3.6,12-2.48,19.33,2-5.56,3.87-9.83,5.06-14.29,1-3.83,2.91-5.69,6.94-5.54a52.79,52.79,0,0,0,9-.31c7.44-1,13.68.58,18.41,6.95,1.54,2.07,3.93,3.57,6.12,5.07,6.86,4.71,6.86,4.62,1.57,10.21-40.82,43.2-68,93.33-77.72,152.43-1.29,7.87-2.67,15.78-4.73,23.48-4.29,16-16.29,24.06-31.44,27.3-13.68,2.91-30.58-11.9-31-26.14-.06-2,.27-4,.24-6-.29-17.79-3.37-34.79-10.47-51.45-11.29-26.51-26.44-50.72-41.45-75.09-9.79-15.88-19.27-31.92-25.52-49.61C378.93,783.1,377.37,779.73,378.06,775.11Z"/><path class="cls-5" d="M179.69,785.93c17-1,31.48-1.9,45.94-2.73,1.64-.1,3.26,0,4.52,1.5.33.39.64,2.82,1.56,1,3.3-6.42,9.27-3.78,14-4.18,38.16-3.23,76.35-6.18,114.69-6.27,2,0,4,0,6-.1,3.47-.24,5.49.91,6.3,4.66,2.72,12.5,8.44,23.83,14.59,34.89,2.47,4.44,2,7.79-.62,11.86-7.38,11.44-14.31,23.16-21.59,34.65-12.35,19.5-22,40.34-30.24,61.81a87.68,87.68,0,0,0-5.07,41.35c2,17.56-21.87,36.43-40.67,26.56-11.72-6.15-19.84-14.23-22.75-27.26-3.55-15.91-5.65-32.12-9.9-47.9a270.59,270.59,0,0,0-56.15-107C194.13,801.58,188.68,793.74,179.69,785.93Z"/><path class="cls-2" d="M173.39,382.35c-2.57-8.74,1.12-16.42,1.06-24.34-.2-24.31-.78-48.64.16-72.92,1.45-37.22,2.32-74.44,1.88-111.68-.13-10.32-2-20.43-3.27-30.61C169.18,109.32,168,76,177,43a74.81,74.81,0,0,1,6-14.73c9-17.19,26.21-22.07,43.1-7.9,10.81,9.07,15.45,21.26,16.26,35.12,1.32,22.43-2.9,44.24-6.91,66.11-4.54,24.74-9,49.45-11.47,74.56-2.36,23.62-1.18,47.17-1.51,70.75a37.15,37.15,0,0,1-3.8,16.22c-8.41,17.37-14.45,35.67-20.49,54-4.37,13.23-8.49,26.6-17.36,37.81C178.84,377.51,177.35,380.51,173.39,382.35Z"/><path class="cls-2" d="M573.38,294.43c-3.46-6.67-6.59-12.77-9.77-18.84-5.12-9.76-10.73-19.2-19-26.68-3.09-2.8-2.9-5.73-2.76-9.71.58-16.58,1.84-33.19-.82-49.8-1.35-8.48-1.73-17.2-2.22-25.76-1.3-22.61-4.94-44.77-9.51-66.88-2.94-14.22-5.54-28.88-3.92-43.16,1.59-13.93,5.45-28.09,17.69-37.72,8.31-6.53,19.66-6.42,27.37.78,8.6,8,12.49,18.72,15.8,29.58,7.86,25.76,9.9,52.29,7.85,78.91-1.65,21.44-3.13,42.94-7.05,64.2-2.4,13-3,26.33-4.66,39.49s-3.42,26.28-5.17,39.41C576.09,276.67,576.48,285.31,573.38,294.43Z"/><path class="cls-7" d="M238.4,319.36C257.88,296.13,281.46,279,311,270.71c7.12-2,14.42-2.22,21.79-1.88,6.5.3,10.36,3.4,12.24,9.68A135,135,0,0,1,350.14,315c.28,15.63.79,31.29-1.51,47,3.63.08,4.17-3,5.62-4.86,3.89-5,7.37-10.31,12.41-14.28,18.76-14.82,43.55-11.95,59.61,7,3.8,4.49,7.23,9.29,12.33,15.88-2.46-17.93-2-33.46-1.87-49a148.57,148.57,0,0,1,3.89-32.67c2.86-12.2,6-14.4,18.75-14.55A61,61,0,0,1,483.8,274c50.56,21.23,85,57.23,99.69,110.76,1.67,6,2.2,12.45,2.84,18.72.3,2.92,1.43,4.2,4.19,4.3,0,.66,0,1.32,0,2-3.69,6.42-3.37,13.23-2.4,20.41,7.07.4,13.44-1.35,20.13-2.51-1.15,2.51-3.39,2.81-5.08,3.23-36.33,9-72.48,10.09-108-3.55-21.3-8.18-39.54-20.44-51.39-40.75-5.72-9.8-12.94-18.58-19.45-27.84-7.14-10.15-17.54-15-28.74-18.72-3-1-5.85-.46-8.77.59-9.59,3.46-17.95,8.45-24.1,16.95q-11.43,15.79-22.27,32c-13.32,19.92-32.14,32.3-55.22,38.35-2.56-.46-5.51,0-7-3-2.34-2.57-1.78-5.55-.92-8.39,3.76-12.26,7.32-24.62,15.55-34.88a6.26,6.26,0,0,1,2.61-1.15c3.1.06,6.28.83,9.24-.87,3.87-1.82,7.88-3.4,11.15-6.26,8.32-7.31,9.38-16.05,5-25.83,1.34-10,10.42-13.95,16.07-20.57,2.11-2.48,5.45-4,6.35-7.42,1.14-4.29,1.52-9.29-1.9-12.1-3-2.44-5.72,1.9-8.48,3.37-6.22,3.32-9.93,10.9-18.22,10.75-1.88-1-2.19-2.77-2.39-4.62.68-7.57,7.75-9.4,12.25-13.49a72.61,72.61,0,0,1,9.84-6.85c5-3.17,6.25-7.37,4.45-12.9s-5.81-7.92-11.42-7.62a78.23,78.23,0,0,0-28.91,7.25c-16.76,7.77-32.07,17.64-44.79,31.3-3,3.17-5.48,7.91-11.24,6.87C240.73,321.46,239.23,321,238.4,319.36Z"/><path class="cls-5" d="M324.12,503.63c-.19-7.79,4.29-10.21,9.68-12.81,38.65-18.57,77.19-17.24,115.91-.4,14.38,6.25,28.22,13.56,42,20.95,10.87,5.83,21.79,11.5,33.17,16.28,6.81,2.86,7.58,6.63,2.31,11.66s-12,7-19.07,7.82c-10.87,1.23-21.27-1.06-31.25-5-20.1-8-40.27-15.67-61-22.06-13.75-4.23-26.76-4.2-40.25-1.5-21.35,4.28-41.41,12.44-61.33,21-12.47,5.33-25.36,8.33-39,6-7-1.19-13.63-3.57-17.77-9.94-2.08-3.22-2.29-6.3,2.11-8,19.94-7.75,38.2-18.89,57.12-28.66C321.9,496.26,322,500,324.12,503.63Z"/><path class="cls-8" d="M242.43,321.5c7.94-6.55,14.5-14.56,22.72-20.84,16.29-12.43,33.49-22.86,54.18-26.11,2.29-.36,4.61-.71,6.92-.84,11-.61,13.19,1.05,15.73,11.93,1.86,7.94,1.79,7.82-5.45,12.46-8.64,5.55-17.28,11.15-24.28,18.84-16.51,12.74-29.31,28.81-40.68,46.05-12.72,19.31-22.22,40.12-26.69,62.9-1,4.93-3.17,5.76-7.26,5.7-8.31-.12-16.62.1-24.93-.14-7.21-.2-7.19-.39-7.63-8-.08-1.32-.32-2.62-.48-3.93-2.21-2.69-2.4-5.33.23-7.88a33.45,33.45,0,0,0,1.33-5.73c1.72-29.61,12.78-55.4,31.68-78C239.49,325.87,240.9,323.63,242.43,321.5Z"/><path class="cls-9" d="M462.61,677.56c-.66,4.08-2.49,6.05-7.18,6.12-18.75.29-37.53-.13-56.23,1.77-3.26.33-5.89-.28-6.88-3.89-5.63-12.83-7.39-26.76-11.23-40.1-1.79-6.25,3-7.58,7.8-6.37,10.19,2.55,20.5,1.42,30.76,1.69a143.47,143.47,0,0,0,47.09-6.5c8.6-2.69,10.34-1,8.43,7.63C472.17,651.5,468.48,664.87,462.61,677.56Z"/><path class="cls-2" d="M352.84,897.14c5.5-11.56,10.11-21.77,16.13-31.29,2.3-3.64,5.19-7.07,6.7-11,3.61-9.42,11.13-12.18,20.05-13.14,3.92-.42,7.49.41,9.49,4,8.7,15.61,19.45,30.07,26.29,46.72.21.51-.09,1.24-.22,2.5A611.54,611.54,0,0,1,352.84,897.14Z"/><path class="cls-2" d="M201.49,822.16c3,.23,3.8,1.7,4.81,3,15.5,20.12,27,42.43,36.08,66,3.16,8.18,2.13,10-6.75,10.19A252,252,0,0,0,201.18,905c-3.1.51-5.94.86-6.67-3.52A154.22,154.22,0,0,1,201.49,822.16Z"/><path class="cls-10" d="M462.61,677.56c1.06-10.69,6.26-20.24,8.49-30.61,1.1-5.1,3.39-10,3.32-15.94-30.32,9.72-60.6,11.94-92.13,5.7,2.42,15.58,8.21,29.8,10,44.85-.68.74-1.35,1.49-2,2.24-3.2-5.61-3.32-12.07-4.91-18.12-4.3-16.37-8.77-32.67-14.55-48.6-2.78-7.66-1.74-9.73,5.55-13.12a73.76,73.76,0,0,1,21.05-5.8c16.09-2.24,32.14-4.73,48.44-5.4a249,249,0,0,1,29.82,1c9.91.79,11.75,3.68,9.35,13.56-5.93,24.45-11.23,49.08-20.3,72.66Z"/><path class="cls-2" d="M585.72,820.52c1.16,9.51,1.38,17.1.17,24.43a81.93,81.93,0,0,0-1.35,17.83c.6,11.69-1.78,23.17-2,34.78-.07,4.23-1.85,6.73-6,5.73-10.93-2.69-22.6-.24-34.08-5.1C552.29,870.39,565.39,844.81,585.72,820.52Z"/><path class="cls-11" d="M294.46,381.82c-7.83,13.46-13.62,27.68-16.26,43.09-8,2.23-16,4.29-24.25,5.15-5.42.56-6.53-.26-5-5,7.8-23.63,17.29-46.45,33.23-66C285.1,367.31,288.23,375.4,294.46,381.82Z"/><path class="cls-12" d="M294.46,381.82c-10.76-4-13.48-12.29-12.25-22.73,2.7-8.63,8.61-14.68,15.8-19.7,12-4.23,17.79-2.37,24,7.64,6.78,12.23,4.2,23-7.32,30.47a27.4,27.4,0,0,1-10.94,4.3,8.32,8.32,0,0,1-6.65.09Z"/><path class="cls-13" d="M322,347c-6.44-7.42-15-8.2-24-7.64,4.48-6.94,11.74-11.27,16.63-17.83,9.79-6,17.64-15,28.68-19.58,2.17,3.07,1.9,6.48,2.41,9.61,1.11,6.75.57,12.05-6.39,16.89C332.6,333.18,325.18,338.46,322,347Z"/><path class="cls-14" d="M190.67,837.75c-2.77,12-4.95,24.08-3.95,36.47A359.7,359.7,0,0,0,192,910.43c-9.06-12-13.13-25.86-15.43-40.35-.31-2-.27-4-.55-5.94-1.21-8.56-.61-16.38,6.93-22.41,2.49-2,3.93-5.29,5.86-8C192.58,833.59,191.28,835.83,190.67,837.75Z"/><path class="cls-15" d="M592.09,825.84c5,7.07,10.15,14.08,15,21.26,1.78,2.62,1,5.85.63,8.75a101.31,101.31,0,0,0-.75,20.87c1,13.36-4.58,24.32-12.36,34.71,1.38-8,2.73-16.06,4.15-24.08,3.36-19.09,1.09-37.67-5-55.92-.63-1.88-1-3.83-1.49-5.75Z"/><path class="cls-14" d="M178.67,791.35c6.57,5.24,9.83,10.61,13.49,15.64a5.13,5.13,0,0,1,.48,5.58c-4.25,9.26-7.9,18.84-16.6,28.51C175.8,823.63,177.81,808.48,178.67,791.35Z"/><path class="cls-16" d="M582.78,934c3.09-5.26,9.29-7.13,12.94-11.8s6.42-9.87,10.64-14.64a70.6,70.6,0,0,1,1.29,25.84c-.41,3.05-3,4.07-5.55,5C595.89,940.86,591.22,939.83,582.78,934Z"/><path class="cls-17" d="M607.62,836.31c-6.78-6.54-9.63-15-13.41-22.93C593,810.89,594,809,595.42,807a106.33,106.33,0,0,1,12.66-15.34C611.47,807.19,608.66,821.64,607.62,836.31Z"/><path class="cls-18" d="M178.62,903.13c3.39,2.07,4,5.14,5.46,7.55,4.46,7.52,9.38,14.44,17.47,18.63,3.91,2,3.79,4.17,0,6.14-3.55,1.85-7.34,3.29-11.41,3.2-7.26-.15-9.93-2.84-10.32-10.21C179.38,920.25,179,912.05,178.62,903.13Z"/><path class="cls-19" d="M603.84,767.93c2.4.4,5.57-1,6.27,1.86a18.27,18.27,0,0,1-.8,11.52c-.16.37-1.16.54-1.77.54-3.06,0-10.73-7.14-11.09-10.35-.15-1.34.1-2.75,1.77-3C600.16,768.19,602.14,768.09,603.84,767.93Z"/><path class="cls-10" d="M331.73,687.18c5.72-2.51,11.76-1.47,17.68-1.5,13.6-.08,27.22.47,40.81-.79-.8,2.33-2.75,2.64-4.8,2.63Q358.58,687.37,331.73,687.18Z"/><path class="cls-20" d="M494.72,237.78c-8.15,3.27-16.89,4.89-24.79,9a28.85,28.85,0,0,1,20.61-11.14C491.39,237.39,493.38,237,494.72,237.78Z"/><path class="cls-21" d="M592.61,893.49a203.11,203.11,0,0,1,.08-37.06C595.48,866.46,595.52,882.5,592.61,893.49Z"/><path class="cls-22" d="M190.67,837.75c-.61-1.34-.36-3.09-1.88-4l8-19.76,2.07.73C198,822.93,193.51,830.1,190.67,837.75Z"/><path class="cls-23" d="M389,834.57a8.41,8.41,0,0,1,4.48-7.13,13.73,13.73,0,0,1,4.38,7.54C394.77,836.79,391.92,836.07,389,834.57Z"/><path class="cls-7" d="M240.51,435.68a32,32,0,0,1-16.1,0C229.76,432.34,235.13,432.39,240.51,435.68Z"/><path class="cls-7" d="M204.81,411.63a12.71,12.71,0,0,1-.23,7.88c-2.51-.22-4-1.34-4-4.09S202.32,411.68,204.81,411.63Z"/><path class="cls-15" d="M592.29,825.68c-2.38-2.65-4-5.54-3.48-11.71,2.91,5,4.37,8,3.29,11.86Z"/><path class="cls-24" d="M381.9,430.08c9.92.27,18.23,2.31,25.86,6.79,2.58,1.52,5.56,3.15,4.59,6.82-.83,3.13-3.86,3.13-6.51,3.48-9.55,1.27-19.08,2.73-28.65,3.86-4,.47-7.73,1.83-11.57,2.89-6.23,1.7-11,0-12.83-4.34s-.09-9.82,4.43-13.2c5.27-3.93,11.51-5,17.85-5.59C377.72,430.53,380.35,430.24,381.9,430.08Z"/><path class="cls-25" d="M332.37,415c8.22-4.17,14.25-10.71,19.7-17.92.81-1.06,1.65-2.09,2.47-3.14,14.48-18.36,30.07-23.53,54.94-16.49,10,2.83,17,10,23.27,18,6.38,8.13,12.7,16.31,24.07,20.75-8.05-.13-11.95-1.5-18.32-7-4.75-4.13-8.92-8.93-13.57-13.2-7.4-6.81-15.34-12.71-25.77-14.15-14.21-2-26.16,2.64-36.37,12.31-4.1,3.89-7.78,8.23-12,12C345.65,410.73,340.17,415,332.37,415Z"/><path class="cls-8" d="M563.39,433.2c-7.35-.2-13.72,1.18-18.42-1.54-5-2.91-3.69-10-5.29-15.2-15.47-50.15-46-88.77-89.55-117.44-7.14-4.7-7.27-4.52-4.84-13.64S449,275,457,274.85c9.07-.15,18.08,1.11,26.38,4.74,47.15,20.6,79.88,54.43,94,104.64,3.78,13.5,4.16,27.61,4.56,41.62.13,4.85-1.74,6.54-6.29,6.61S566.36,433,563.39,433.2Z"/><path class="cls-11" d="M462.19,343.15a81.7,81.7,0,0,0-16.77-15.53c-4.08-2.71-4.82-5.64-4.64-9.85a72.14,72.14,0,0,1,1.91-13.49c2.53-1.64,4.06.05,5.62,1.07,44.11,28.82,72.93,69.13,89.08,118.89,2.2,6.77,1.2,7.72-5.72,6.85-.33,0-.65-.13-1-.15-13.85-1-24.49-5-26.59-21.57-1.15-9-6.05-17.53-10.82-25.58-1.68-2.83-2.95-6-6.47-7.22-.09-1.79.94-3.1,1.91-4.42,4.36-5.95,6.72-12.13,2.51-19.22s-11.32-8.33-18.76-8.79C469,343.93,465.31,346.48,462.19,343.15Z"/><path class="cls-26" d="M462.19,343.15c4.54-.3,8.85-2,13.58-1.54,10.55,1,17.25,5.41,19.6,13.82,2.55,9.15-1.42,15.84-8.57,21.14-10.49,5.11-20.12,3.61-28.4-4.44-7.56-7.36-7.84-14.75-1.44-23.11C458.55,347,460.44,345.1,462.19,343.15Z"/><path class="cls-11" d="M297.08,381.89a8.51,8.51,0,0,1,6.66-.09A5.09,5.09,0,0,1,297.08,381.89Z"/><path class="cls-27" d="M480.23,599.56c-15.42,14.21-77.59,21-103.56,11.29C386.24,601,461.06,592.81,480.23,599.56Z"/><path class="cls-28" d="M471.34,626.5c-16.82,11.13-73.89,13.88-90.43,4.36C394.21,623.23,452.19,620.44,471.34,626.5Z"/><path class="cls-29" d="M443.36,618.47c12.52-3.82,25.53-5.92,38-13.53a81.79,81.79,0,0,1-4.73,18.61C465.74,619.68,454.7,618.66,443.36,618.47Z"/><path class="cls-30" d="M374.24,614.92c12.87,3.58,25.36,4.47,37.93,5.19-10.09,2.8-20.6,3.45-30.5,6.77-2.43.81-3.93.12-4.72-2C375.92,622.1,374.13,619.55,374.24,614.92Z"/></g></g></svg>