<svg xmlns="http://www.w3.org/2000/svg" viewBox="0 0 778.09 1666.96"><defs><style>.cls-1{fill:#010101;}.cls-2{fill:#432f1a;}.cls-3{fill:#f0e19a;}.cls-4{fill:#684d3e;}.cls-5{fill:#ff9322;}.cls-6{fill:#38271e;}.cls-7{fill:#ede7c2;}.cls-8{fill:#fff;}.cls-9{fill:#63c15c;}.cls-10{fill:#eadb96;}.cls-11{fill:#e6d894;}.cls-12{fill:#e7d994;}.cls-13{fill:#e2d491;}.cls-14{fill:#ebdd97;}.cls-15{fill:#cd1d13;}.cls-16{fill:#2ca038;}.cls-17{fill:#e08762;}.cls-18{fill:#d1503d;}.cls-19{fill:#248e2f;}.cls-20{fill:#d7ce8d;}.cls-21{fill:#d62116;}.cls-22{fill:#12802a;}.cls-23{fill:#2d9c33;}.cls-24{fill:#eadc50;}.cls-25{fill:#cecece;}.cls-26{fill:#9d9466;}.cls-27{fill:#59573c;}.cls-28{fill:#948f62;}.cls-29{fill:#e3be9f;}.cls-30{fill:#c8c083;}.cls-31{fill:#fc0605;}.cls-32{fill:#b4b669;}.cls-33{fill:#c1b43f;}.cls-34{fill:#ecc4a5;}.cls-35{fill:#dcbb9d;}.cls-36{fill:#fffefc;}.cls-37{fill:#0b0601;}.cls-38{fill:#fefefe;}.cls-39{fill:#fdfdfd;}.cls-40{fill:#62c05c;}</style></defs><title>Layer 1</title><g id="Layer_2" data-name="Layer 2"><g id="Layer_4" data-name="Layer 4"><g id="Layer_1-2" data-name="Layer 1"><path class="cls-1" d="M650,525.61c7.65,43.34,18.84,85.24,47.79,120.14a159,159,0,0,1,11,15.49c2.41,3.73,5.12,5.43,9.84,5,13.91-1.4,27.91-1.78,41.74-4.08,11.79-2,16.76,1.78,17.58,14.06,1,15.46-2.56,30.51-5.94,45.39a464,464,0,0,0-8.9,51.11c-4.91,44.07-6.86,88.33-9.13,132.59-1.42,27.6-3.89,55.16-6.57,82.67-1.49,15.29-.76,30.64-2.35,45.91-5.36,51.73-7.69,103.66-10,155.59-.2,4.32-.05,8.66-.15,13-.82,37.31-1.37,74.62-2.59,111.92-1.15,35.29-3,70.56-4.55,105.84-1.15,26.64-1.75,53.31-3.5,79.91-1.44,21.94-2.78,43.85-3.51,65.84-.5,15.27-3.22,30.46-4.89,45.68-.43,4-1.16,8-.81,11.93.54,6-2.38,8.5-7.75,9.24a60.94,60.94,0,0,1-7.88,1.1c-11.66.1-23.33-.08-35,0-5,0-8.72-1.74-12.47-5.08-16.7-14.87-31.72-31.39-47.28-47.37-8.37-8.59-9.66-18.9-8.17-29.65,8.69-62.6,6.45-125.64,7.93-188.52q.93-39.46,1-79c.07-36.32-1.56-72.61-2.14-108.9-.48-30-1.46-59.91-1.56-89.88-.12-34.34,2-68.59,3.21-102.86.47-12.63,2-25.21.94-38.37-4.76-1.24-9.67,2.21-14-.94-2.28,3.58-1.54,6.6-1.59,9.44-1.07,61.33-4.45,122.52-9,183.68-2.6,34.89-4.19,69.87-5.26,104.84-1.28,42-4.29,83.86-3.05,125.89,1,33.33,3.35,66.52,8.21,99.54,2.24,15.24-.8,29.8-8.61,43.29-3.5,6-7.64,10.09-15.32,10.79-13.33,1.22-26.64.82-39.95.89-5,0-8.24-2.64-11.2-6.92-9.4-13.63-10.69-28.09-6.94-43.79,4.33-18.13,8.19-36.39,11.82-54.68a184.36,184.36,0,0,0,3.7-34.75c.26-44.32-.65-88.59-3.19-132.89-2.44-42.56-2.93-85.24-2.61-127.91.31-42,.07-84,.07-125.67-5-1.68-7.64,1.07-10.41,2.41-18.61,9-43.5-6.27-46.25-25-.87-5.94-2-11.83-1.9-17.87.22-15-4.5-28.81-9.84-42.54-1.45-3.74-3.57-5-7.44-5q-40.5.43-81,.55c-3.05,0-4.82,1-6,4-4.87,12.46-9.26,25-9.54,38.58a205.53,205.53,0,0,1-1.87,20.87c-2.32,18.53-28.32,34.63-46.93,25.28-14.47-7.26-24.29-17-27.61-33s-5.48-32.18-9.92-47.92c-.8-2.81-1-5.68-5.31-6-8.59-.57-9.36.12-9.15,9q1.58,65.48.37,131c-.9,46.32-1.1,92.65-2.11,139-1.07,49.31-2.8,98.61-4.09,147.92-.33,12.65.05,25.32-.13,38-.31,22.32-.85,44.64-1.21,67-.23,14.36,1.16,28.63,2.89,42.86A80,80,0,0,1,230,1512c-2.42,10.39-7,13.77-17.56,13.69-6.65,0-13.31-.39-19.92.75-3.58-7.81.5-10.77,7.49-12.45,19.75-4.74,20.38-4.88,19-25.24-3.82-57.57-2.32-115.22-1.39-172.77,1-60.22,2.22-120.46,4.15-180.65,1.55-48.63.84-97.21,1.24-145.81.17-21.32,1.33-42.57,2.08-63.85.13-3.74,1.25-8.78-3.87-10.21a27.77,27.77,0,0,0-16.73.36c-3.2,1.14-1.18,3.73.12,5.69,8.07,12.14,6.05,18.77-7.11,23.42-15.67,5.53-15.9,5.53-16,22.73-.22,36.3-.49,72.61,0,108.91.93,66.92,2,133.82,2.26,200.75.12,28.89,4.16,57.73,6.32,86.6,3.63,48.75,8.67,97.6,2.94,146.47-2.26,19.19-.84,38.49-3.63,57.59-.45,3.07-1.23,6.65,1.12,9.61,3.3,5-.41,9.05-2.37,12.78-9.13,17.37-17,35.43-27.38,52.13-2.12,3.39-4.61,6.72-5.86,10.43-2.41,7.13-7.88,9.3-14.37,10.6-13.83,2.77-27.86,2.44-41.84,2.71-9,.18-18-.1-27,.53-13.28.94-16.06-1.84-17.25-15.7-4-46.48-6.17-93.08-8.62-139.66-1.93-36.59-4.6-73.15-6.5-109.75-.9-17.3-.92-34.65-1.08-52-.44-45.34-2.74-90.59-5.18-135.86-2.38-43.92-4.74-87.84-7.46-131.74-3.43-55.23-3.89-110.59-7.31-165.8-2.23-35.91-3.78-71.88-7.89-107.64-2.67-23.16-6.27-46.21-9.27-69.32A118.34,118.34,0,0,1,0,721.43c.32-14.07,8.12-24.12,21.62-27.65a154.59,154.59,0,0,1,58.29-4.3,4.11,4.11,0,0,0,4.17-1.23c-3.21-4.4-6.32-9-9.85-13.36-2.79-3.43-2.72-6.17,0-9.72,6.63-8.77,12.68-18,19.33-26.72,15.74-20.72,26.45-43.75,33.09-68.86,4.86-18.36,8.5-37,13.06-55.4,1.29-5.23-.78-8.83-3.32-12.89C119,473.48,117.79,445,133.43,416c5.62-10.4,13.8-18.18,25.45-21,6.25-1.51,7.56-4.63,7.55-10.49q-.17-59,.31-118c.19-20,1.67-39.95,1.9-59.95.33-29.13-4.45-57.77-7.2-86.61a224.3,224.3,0,0,1,6.67-81.24,68.9,68.9,0,0,1,8.73-20.07C188.17,1.62,208.5-3,225.86,7.93c13.67,8.6,21.76,21.23,25,37,1.67,8.14,1.74,8.17,10.18,8.4,39.35,1.08,78.66-.77,117.94-2.48C422.59,49,466.15,46,509.74,43.69c5.33-.27,7.49-2.15,8.71-7.19a56.44,56.44,0,0,1,11.55-23C540,1.55,555.2-3.06,567.52,2.08a36.83,36.83,0,0,1,14.67,11.73,71.13,71.13,0,0,1,11.43,21c6.31,18.35,10.56,37.1,11.3,56.62,1.39,36.87-3.9,73.11-9.53,109.35s-10.1,72.59-13.22,109.13A32,32,0,0,0,584,324.55c3,7.76,5.67,15.66,8.07,23.62,4.12,13.65,11.28,25.54,20.29,36.41,4.49,5.41,9.41,9.84,16.74,11.8,10.4,2.78,18,9.83,23.32,19.19,16.4,29,15.79,57.9-1.82,86.08-3.93,6.28-5.47,11.83-2,18.43C649.93,521.72,648.75,524,650,525.61Z"/><path class="cls-2" d="M190.58,1577.61c-2.77-1.8-2.29-4.68-2.11-7.23,1.78-25.9.75-51.91,2.49-77.74,1.14-17,2.08-34,1-50.77-1.71-26.46-2.74-53-5-79.41-1.75-20.14-3.58-40.29-4.82-60.5-3.21-52.57.44-105.21-2.16-157.69-2.72-54.93-.36-109.82-1.65-164.71a172.52,172.52,0,0,1,2.81-36.33c7.06.74,14.27,1.08,20.69-3.26a22.57,22.57,0,0,0,5.35-4.4c2.82-3.49,2.68-6.64-1.28-9.2a36,36,0,0,1-4.21-2.64c-2.81-2.47-5.67-5.64-4.7-9.34,1.12-4.3,5.6-2.36,8.66-2.6,6-.47,12-.17,17.91-.95,3.91-.52,4.83,1,4.68,4.21-.49,10.93,1.24,21.94-1.32,32.82-.68,2.86-.37,6-.38,9-.09,34-.41,68-.16,101.93.4,52.92-2,105.8-2.62,158.7-.3,25.55,0,51.23-1.66,76.75-3.5,54.23-.58,108.49-1.88,162.71-.34,14.35,3.41,28.41,2.21,42.76-.25,3-.23,6-.73,8.92-.81,4.72-3,7.84-8.64,7.24-4.65-.51-9.25,1.18-13.8,1.37-7,.29-7.36,4.08-6.66,9.25,1.54,11.52.15,23-.92,34.43C191.11,1566.47,190.56,1572,190.58,1577.61Z"/><path class="cls-3" d="M650,525.61c-1.65-1.55-1.71-3.5-1.36-5.54C650.67,521.54,650.69,523.49,650,525.61Z"/><path class="cls-4" d="M45.91,1363.41c1.51-34.76-1.2-69.69-2.08-104.64-.66-26.58-3.15-53.12-3.91-79.74-.61-21.6-2.2-43.18-3.83-64.74-3-39.82-5.59-79.63-6.4-119.59-.24-11.93-.88-23.93-1.24-35.9C27.52,927.87,25,897,23,866.18c-1.23-18.25-2.27-36.5-4.54-54.65-2.89-23.08-5.75-46.17-9-69.19a122.18,122.18,0,0,1-1.16-20.9c.36-12,8.55-21.09,20.66-21.42,22.56-.61,45-4.16,67.74-.94,9.47,1.35,19.22-.15,28.87-.87,12.6-1,25.33,0,38-.56,58.94-2.43,117.94-.86,176.87-2.52,51.64-1.45,103.28-.49,154.89-1.88,21.22-.56,42.38-3.48,63.58-5,9.62-.71,19.24-1.24,28.84-2.27,19.49-2.09,39-3.81,58.54-5.64a52.49,52.49,0,0,1,7-.25c33.77,1.27,67.06-2.85,100.15-9.06,2-.37,3.81-1,5.88-.62,7.11,1.14,9.31,3.19,9.35,10.42a160.34,160.34,0,0,1-5.21,42.44,314.26,314.26,0,0,0-9.49,53.89c-1.42,16.2-4.06,32.29-4.52,48.6,0,1.32-.56,2.64-.52,3.95.7,20-3.18,39.83-2.58,59.84s-3.78,39.69-5,59.61c-.74,12.25-1,24.55-2.48,36.82-1.74,14.5-1.8,29.22-2.25,43.85a257.88,257.88,0,0,1-3.49,32.71c-1.52,9.55-1.4,19.23-2.24,28.83-2.15,24.86-2.37,49.84-3,74.8-.66,26-.42,52-2,77.85-1.07,17-.68,33.94-1.37,50.89-1.22,29.91-2.79,59.81-4,89.73-.94,23.28-1.35,46.59-2.38,69.87-1.55,34.91-3.74,69.77-4.31,104.73-.29,18.21-3.2,36.39-3.78,54.7-.33,10.27-2.51,11.43-13.1,11.92s-21.32-.75-31.91,1.15c-3.89.69-6.39-.86-6.76-5.21-.55-6.62-2-13.13-2-19.84q.16-35,0-70c-.08-17,1.89-33.85,3.74-50.71a16.52,16.52,0,0,0,.17-2c-.11-25,3.14-49.8,2.49-74.85-.78-29.64-1.13-59.38.42-89,1.19-22.65.23-45.31,1.77-67.86,1.82-26.64,1-53.28,2.2-79.88.56-13,2.12-26,.88-38.87a289.13,289.13,0,0,1-1-37.89c.38-10.63.34-21.2-.15-31.81-1.4-30,.94-59.95,2.07-89.85,1.13-29.64-.24-59.32,2.06-88.85,1.43-18.3.57-36.63,2.21-54.85,1.46-16.21,4.07-32.3,3.67-48.68-.46-19.51-.29-19.27-19.61-19.51-28.33-.35-56.56,2.06-84.85,2.94-26.58.83-53.16,2.69-79.74,4-28,1.41-56,1.46-83.91,1.29-32.67-.21-65.3,1.13-97.87,2.67-32.85,1.55-65.74,3.51-98.5,6.93-11.9,1.24-23.92,1.18-35.88,1.95-18.63,1.21-37,4.2-55.45,6.46-5.88.71-6.91,4.06-6.73,8.94.5,13.93,1.24,27.86,1.31,41.8.11,21,3.48,41.67,6.27,62.42,1.2,8.85.68,18,.6,27-.1,13.36,2.08,26.49,3.22,39.73,1.32,15.23.29,30.66,1.22,45.95,2,32.6.6,65.28,2.13,97.85.93,20,.67,39.93,1.69,59.86,1.44,28.23,3.43,56.43,5.19,84.64.08,1.33.24,2.66.21,4-.54,24,1.72,47.93,2.89,71.85,1.82,37.24,2.35,74.52,4.13,111.74,1.06,22.32.09,44.63,1.48,66.9,2.82,45.27,1.17,90.59,1.66,135.89.12,11.86,0,11.54-11.35,14-9.93,2.16-19.91,1.44-29.87,1.66q-17,.39-34,0c-7.68-.19-8.82-1.54-10.44-9.21-3.53-16.69-3.16-33.69-4.34-50.58-1.66-24-1.13-47.94-2.18-71.88-1.47-33.56-3.23-67.13-6.06-100.59C46.16,1404.88,46.84,1384.26,45.91,1363.41Z"/><path class="cls-3" d="M706.9,667.22c-25.74,2-50.62,3.41-76.66,4,13.58-42.77,10.84-83.65-8.55-123.17-1.57,5.87.34,11.41,1.52,17,2.07,9.77,4.6,19.45,6.55,29.25,4.8,24.07,2,47.77-4.09,71.23-.7,2.68-.76,6-5.08,6.22-21.26,1.21-42.5,2.61-64.77,4,3.23-7.77,5.8-15.14,4.8-23.1a66.77,66.77,0,0,0-1.25-8.86c-4.21-15.66-7.51-18.23-23.78-18-21.64.34-43.3-.4-64.94,1.66-15.66,1.49-31.25-1.31-46.86-2.38-19.69-1.36-39.23,1.53-58.82,1.7-41.05.35-81.8,5.13-122.74,6.79-9.08.36-16,4.33-20.11,12.42-8,15.59-9.35,24.66-2.32,41-1.59,2.44-4.14,1.48-6.26,1.56-12.32.5-24.67.57-37,1.37-5.63.37-8.36-1.45-10.13-6.81-11.1-33.49-16.1-67.33-7.08-102.21,2.17-8.38,4.07-16.83,6-25.28.64-2.88.87-5.84,1.42-9.72-4.85,2.46-5.7,6.49-7,9.94-11.36,30.61-15.51,61.87-8.42,94.2a381.55,381.55,0,0,0,11.6,40.16c-22.8.29-44.59,3.94-66.57.15a13.65,13.65,0,0,1-9.69-5.85c-3.52-4.84-7.57-9.28-12-14.68,8.34-8.28,15.77-17.62,23.2-27a169.66,169.66,0,0,0,30.34-58.08,446.5,446.5,0,0,0,14.19-64.33c.31-2.24-.07-4.71,2.51-7.51a95.42,95.42,0,0,0,50.47,22.76c18.78,2.47,37.22.58,55.8-5.1,3.62,15.56,15.48,19.75,29.07,21.12,12.56,1.28,24.49-1.8,36.09-6.27,16.78-6.47,33.54-12.9,50.95-17.59a92.22,92.22,0,0,1,44.45-.73c20.61,4.49,40.1,12.18,59.7,19.65,13.24,5,26.85,8.12,41.06,5.08,10.91-2.33,20.27-6.86,22.73-20.1,38.3,10.57,74.58,9,106.92-18.05,3.22,6,2.78,12.44,3.84,18.42,2.9,16.43,6.82,32.58,11,48.7,7.78,29.74,23.71,54.83,43.66,77.71C702.76,660.89,705.57,662.87,706.9,667.22Z"/><path class="cls-5" d="M238.39,435.82c16,.49,31.69-1.24,46.53-7.83,10.85-7.61,23.9-11.25,34.37-19.76,6.8-5.53,13.2-11.09,18-18.49,7.75-12.05,15.87-23.85,24.68-35.16a37.15,37.15,0,0,1,9.28-9c17.34-11.06,32.28-9.74,48,4.46,8.24,7.44,14.63,16.47,20.27,25.89,30.5,50.9,78.1,62.23,132.63,57.75,6-.49,12-.84,17.88-1.52,5.46-.62,11-1.21,15.23-2.95,2.25-.86.18-2.39,1-1.38.16.18-.1.35-.69.66-1.78.91-3.54,2.17-5.55,2-4.33-.34-9.13,4.11-12.92-.79-3.16-4.09-1.12-15,3.29-19.91a16.13,16.13,0,0,0,2.49-1.53c18.13-16,40.59-13.17,53.53,7.35,13.48,21.36,15.71,44.22,6.8,68-10,26.54-30.26,40.48-57.14,46.08-23.3,4.85-45.7,1.07-67.56-7.44-14.95-5.82-28.78-13.91-42.9-21.38-12.38-6.54-24.91-12.74-37.82-18.16-37.84-15.87-75.49-16.91-113.25.76-17.82,8.34-35.27,17.34-52.6,26.6-19.84,10.62-40.4,19-63.2,20.39-20.82,1.29-40.53-2.38-58.32-13.75-33.86-21.62-42.71-73.33-18.13-105.14,14.34-18.56,39.08-19.48,53.39-2.21,4.65,5.6,3.61,11.86,3.16,18.08-.2,2.76-2.88,1.95-4.77,2-4.24.07-8.24-2.68-14-.6,15.34,3.88,29.44,7.41,44.22,7A20.1,20.1,0,0,1,238.39,435.82Z"/><path class="cls-2" d="M308.75,238.11c-3.16-4.23-8.1-2.33-12.1-3.12-21.41-4.22-41-1.27-56.66,15.87-2.41,2.65-4.64,5.64-9,7.67-.79-10.52-1.24-20.58.37-30.61a57,57,0,0,0,.87-8.91c0-24.69,4.65-48.8,9-72.95,4.75-26.4,11.45-52.54,11.09-79.64-.08-5.42,2.34-7.11,7.24-6.64,1,.1,2-.1,3,0,34.55,4.89,69.06-1.24,103.61-.29,18.94.51,37.85-1.65,56.79-2.31,18.52-.64,37.13-1.88,55.56-4,10.19-1.16,20.57-.43,30.65-3.16,5.18-1.39,6.21,0,5.59,5.46-1.56,13.79,1.78,27.19,4.26,40.45,4.39,23.44,9,46.78,11.88,70.52a467.84,467.84,0,0,1,3.46,65.61c-.14,7.86-.58,8.08-7.95,5.8-7-2.17-13.78-5-21.34-4.28-4.58.44-7.48-3.83-12.07-4.17-6.9-.51-13.67-2.59-20.56-3.33-21.82-2.34-40.75-11.34-58-24.38-20-15-36.1-33.31-47-55.93-3.16-6.57-5.43-13.57-8.17-20.34-1.22-3-1.45-6.57-4.93-9.12-3.31,4.11-1.84,8.47-1.21,12.8,1.06,7.2,2.92,14.47,2.63,21.64-.38,9.21-2.53,18.35-4,27.51-1.17,7.53-4.83,14.33-6.09,22-.69,4.25-5.36,8-8.72,11.61-7.07,7.5-13.87,15.33-22.84,20.77-1.15.7-3.62,1.11-1.57,3.42C312.31,238.73,310.77,238.88,308.75,238.11Z"/><path class="cls-6" d="M650.8,1619c-5.79-5.78-11.83-11.33-17.33-17.38-9.59-10.57-17.87-22.31-28.39-32.07-1.5-1.39-2.54-3-2-5.28,2.08-9.7,1.42-19.83,4.58-29.38a26.21,26.21,0,0,0,.75-5.91c2.54-30.88.67-61.89,2.36-92.74,2.15-39.27.26-78.55,2.12-117.74.8-16.94,1.13-33.86,1.43-50.79.13-7,.66-14-1.55-20.82a13.06,13.06,0,0,1-.23-5c2.31-30.19-1.41-60.35-.26-90.55.65-16.93-3.21-33.78-1.75-50.77,2.15-24.89.86-49.88,2.23-74.75,1.49-27.18,2-54.43,4.07-81.52,2.4-32.3.39-64.53,1.58-96.76.36-9.95-.7-19.92,1.65-29.82a25.51,25.51,0,0,0-.21-11.91c-3-11.33-.77-22.43.52-33.62.31-2.75,1.5-4,4.27-4.48,12.53-2.13,25.15-2,37.78-2,5.1,0,5.83,2.66,6,6.93.64,12.37-1.65,24.47-2.95,36.66-.94,8.88-2.81,17.73-3,26.62-.7,39.91-1.23,79.87-2.75,119.71-1.92,50.28-.31,100.51-1.4,150.74-.21,9.35,2.24,18.65,1.63,27.77-2,30.59-.14,61.26-2.17,91.75-1.3,19.64-.34,39.23-1.53,58.79-3.28,53.55-.72,107.17-2.26,160.72-.66,23.17-1.68,46.47-4.14,69.52-1.92,18-2.54,36-.9,53.77C650.51,1585.15,648.07,1601.78,650.8,1619Z"/><path class="cls-2" d="M527.55,1513.62h-3.64c-13.63,0-16.82-3.14-17.58-16.69-.55-9.73.89-19.25,3-28.63,4.45-20,10.08-40,12.29-60.34,2.47-22.7,4.74-45.56,1.37-68.54-1.24-8.49-.64-17.29-.52-25.94.29-22-1.55-43.75-3.66-65.58-1.21-12.55.24-25.34-.59-38-2.46-37.56-.33-75.22-2.34-112.72-1.46-27.29-1-54.52-1.54-81.77-.12-6-2.38-11.7-1.94-17.8.3-4.07.56-7.66,3.61-11,7.74-8.39,10.58-19,12.33-29.94a335.29,335.29,0,0,1,7.88-37.92c1.95-6.91,2.54-8.13,9.49-6.9,10.49,1.85,21.24.9,31.59,3.66,4.54,1.21,7.26,5,4.3,8.46-4.77,5.51-4.12,10.16-1.24,15.82.81,1.6.18,3.94.18,5.94-.06,17,.72,34-.4,50.95-1.29,19.52-.64,39.17-3.5,58.59a38.55,38.55,0,0,0-.14,6c.15,21-2,41.73-3.66,62.58-1,13.53-2.47,27.08-2.69,40.74-.32,20.21-1,40.47-3.53,60.58a19.94,19.94,0,0,0-.12,3c.87,28.63-2.61,57.14-2.22,85.76.1,7.61.64,15.29-1.51,22.83a14.42,14.42,0,0,0-.07,6.94c2.76,11.85,1.29,23.88,1.68,35.81.9,27.53,2.92,54.91,7.43,82.14a69.25,69.25,0,0,1-2,32.6,29.94,29.94,0,0,1-9,14.13c-1.81,1.53-3.56,3.25-6.06,3.07C545,1510.84,535.63,1514.81,527.55,1513.62Z"/><path class="cls-3" d="M308.75,238.11a4,4,0,0,0,3.85-2c20.91-8.76,34.17-24.69,41.91-45.48a125.09,125.09,0,0,0,8-41.72c3.76,2.14,4.46,5.79,6.19,8.59,17.92,29,41.34,51.83,73.12,65.34,12.39,5.27,25.46,7.41,38.72,8.82,3.29.35,7.05-.38,9.68,1.71s-.81,1.88-1.68,2.63c-4.09,3.36-9.45,4.19-14.79,7.62,6.56-3.59,12.38-5.78,18.84-5.64,29.63-3.82,49.53,9.82,63.44,34.84,11.21,20.16,18.25,42,26.05,63.47.57,1.56,1.15,3.12,1.63,4.7,5.86,19.25,13.82,37.33,29.78,52.23-10.22,2.26-18,6.45-23.13,14.61-6.43,1.75-6.13-3.44-6.7-7-2.16-13.15-4.34-26.31-10.26-38.4-21-42.8-52.37-74-98.77-88.42a29.39,29.39,0,0,0-2.9-.75c-21.35-4.48-27.57.14-30.59,21.62a260.67,260.67,0,0,0-.92,61.66c.33,3.32,1.14,7.55-2.47,8.84-3,1.07-4.9-2.73-6.74-5-3.73-4.67-6.83-9.86-11.49-13.75-19.39-16.19-43.3-13.21-59.51,7.17-3.1,3.9-5.54,11.43-11.27,9.17-5.17-2-1.64-8.92-1.45-13.72.83-21.28.88-42.48-3.12-63.58-2.66-14-9.52-16.36-22.23-14.56-8.19,1.16-16.36,2.91-24,6.37-3,1.34-6.11,2.73-9.6,2.26C268.11,288.7,252,303,237.57,319.28c-21.63,24.36-35.24,52.32-37.35,85.28-.06.92,0,2-2.13,2.79-7.12-5.05-13.4-12.81-23.19-14.16-.73-3.22,1.82-4.26,3.25-5.89C187,377.18,194,366,198.42,353.19c5.69-16.69,11.79-33.24,17.78-49.83a198.25,198.25,0,0,1,17.7-36.85c9.9-16,23.41-27,42.73-29.78,7.77-1.11,15.28-.12,22.7,1.92,4.7,1.3,9.28,3,14,4.57C312.79,240.48,309.6,240.37,308.75,238.11Z"/><path class="cls-6" d="M150.54,1643.57c-.16-14.57-1.13-27.8.65-40.94a106.45,106.45,0,0,0,.05-27.74c-1.74-13.91-1.2-28-.33-41.9.36-5.71-.66-11.15-.54-16.75.28-12.66-.22-25.33,0-38,.55-33.29-2.16-66.5-2.58-99.77-.21-16.54-.45-33.24-1.64-49.79-1.95-27.17-2.84-54.38-4.33-81.55-.91-16.63-.05-33.3-1.65-49.8-2.55-26.26-.08-52.63-2.16-78.76-2.71-34-1.12-67.88-1.43-101.8-.16-18-.73-36-2.66-53.73-2.49-22.87-3.24-45.67-3.76-68.59-.23-9.86-2-19.8-4.14-29.47-1.51-7-1.57-13.85-1.61-20.82-.08-15-.12-30,0-45,.06-8.35.79-8.71,9.12-9.52,10.52-1,21-2.69,31.78-2.2,1.4,1.19,1.08,2.9.63,4.47-3.51,12.48-5.48,25.08-3.79,38.11.61,4.66-1.83,9-1.8,13.79.11,13.31,2.73,26.4,3.29,39.58.72,16.63,3.95,32.9,4.93,49.49,3.32,55.91-.15,111.9,2.3,167.75,1.65,37.63-.37,75.27,1.95,112.76,1.68,27.3-.17,54.62,1.94,81.77,1.59,20.45.8,41.11,5.15,61.41,2,9.32,1.55,19.2,2,28.74,1,21.9,3.75,43.76,2.64,65.76-.28,5.61-.5,11.29,1.37,16.83a11,11,0,0,1,.21,5.93c-2.91,11.17-.87,22.57-1.84,33.8a519.75,519.75,0,0,0-1.86,52.79c.06,3.32-.3,6.85.69,9.91,2.71,8.33.95,15.72-3.47,22.82-8.44,13.57-14.49,28.39-22.2,42.33C156,1638,155.44,1641.21,150.54,1643.57Z"/><path class="cls-5" d="M558.45,769.86c-1.62,7.15-2.84,12.55-4.06,17.95l1,.29c1-2.58,2.1-5.13,3-7.74,3.65-10.44,3.67-10,15.2-11,8.87-.75,16.3.45,22,8a18.58,18.58,0,0,0,7.23,5.21c4.69,2.12,4,4.22,1,7.32-12.52,12.94-23.54,27.09-34,41.76-22,30.91-35.76,65.23-43.42,102.18-2,9.78-3.86,19.59-5.67,29.41-2.91,15.72-12.72,25.13-27.35,30.19-16.23,5.62-35.89-8.24-36.13-25.48,0-1,.19-2,.18-3-.17-18.46-3-36.15-10.35-53.48-11.3-26.52-26.31-50.81-41.45-75.1a373.36,373.36,0,0,1-22-40.3,65.4,65.4,0,0,1-6.32-21C437.5,773.71,497.37,775.14,558.45,769.86Z"/><path class="cls-5" d="M182.25,785.81q21.27-1.27,42.55-2.53c2-.11,4-.2,5.39,1.76.37.54,1,2.25,1.65.56,2.15-5.9,7.27-3.52,11-3.83,39.17-3.22,78.34-6.36,117.69-6.44,10.64,0,10.85-.18,13.45,9.6,2.77,10.43,7.79,19.83,12.85,29.18,2.54,4.68,2.59,8.26-.37,12.75-6.74,10.26-12.77,21-19.47,31.27-12.61,19.35-22.22,40.17-31,61.45a94.47,94.47,0,0,0-6.37,45.13c1.69,17.85-22.28,35.63-40,26.61-12.48-6.37-20.85-14.9-23.73-28.78-3.25-15.64-5.48-31.48-9.67-46.94C245.5,875.77,227,840,200,808.69c-6-7.05-11.29-14.8-18.45-20.92Z"/><path class="cls-2" d="M173.24,382.57c-2-7.42.61-13.84.89-20.37.4-9.31.18-18.65.2-28,.06-24.65-1.28-49.4.53-73.92,2.15-29,1.09-57.86,1.48-86.78.14-10.31-2-20.43-3.23-30.61-4-33.49-5.18-66.87,3.8-99.84a73.47,73.47,0,0,1,7-16.5c8.23-14.74,27.34-20.41,42.14-6.31,10.75,10.24,15.74,22.55,16.37,37.21,1.09,25.16-4.51,49.43-8.83,73.92-3.74,21.18-7.39,42.35-9.58,63.82-2.46,23.95-1.33,47.86-1.57,71.78a35.22,35.22,0,0,1-3.81,16.22c-8.75,17.25-14.25,35.77-20.44,54-4.48,13.2-8.53,26.6-17.39,37.83C178.75,377.64,177.2,380.59,173.24,382.57Z"/><path class="cls-7" d="M314.53,688.11c-26,0-51.95-.23-77.92.17-6.14.1-9-2.14-10.8-7.5-3.68-10.91-2.37-21.63.6-32.37,1.12-4.07,3.77-4.7,7.62-4.25,41.86,4.84,83.77,2.35,125.68.64,37.91-1.55,75.81-3.89,113.73-4.35a415.47,415.47,0,0,0,66.42-6c7.79-1.35,8.33-1,10.65,6.43,3,9.51,3.4,19-1.41,28.11-3,5.62-7.18,8.59-14.1,9.21-34.17,3-68.4,4.64-102.68,5.48q-58.9,1.46-117.8,3.1Z"/><path class="cls-2" d="M573.3,295.35a194.16,194.16,0,0,0-11.17-22.67c-4.77-8.47-10-16.46-17.1-23.11-3.45-3.23-3.95-6.44-3.53-11.4,1.36-15.85,2.07-31.83-.49-47.71-1.37-8.51-1.71-17.23-2.15-25.73-1.44-27.27-7.47-53.72-11.75-80.5-3-18.89-3.68-37.94,5.71-55.82a40.9,40.9,0,0,1,10.09-12.23c10.49-8.88,25.19-5.8,33.16,7.21a106.65,106.65,0,0,1,12.26,30.38,219.22,219.22,0,0,1,5.81,66.17q-1.6,26.73-5,53.36c-2.39,18.71-5.5,37.33-7,56.17-1,13.17-3.48,26.23-5.13,39.35C576,277,576.2,285.38,573.3,295.35Z"/><path class="cls-1" d="M288.32,279.77c12.44-7.86,26.16-11.34,40.72-11.33,11,0,14.24,2.65,16.84,13.17a150.56,150.56,0,0,1,4.22,33.63c.13,8,.16,16-.05,24-.19,7.59-.76,15.18-1.17,23,3.76-1.09,4.68-4.66,6.66-7.13,3.75-4.67,7.17-9.6,12.1-13.2,18.66-13.65,42.61-10.7,58.15,7.37,3.88,4.51,7.28,9.43,12.21,15.88-.21-4.11-.3-6.43-.46-8.73-1.59-23.3-2.19-46.57,2.44-69.65.52-2.6,1.36-5.14,2-7.71,1.69-6.37,6-9.13,12.42-9.49,10.13-.57,20.15.43,29.43,4.34,50.53,21.29,84.94,57.31,99.57,110.88,1.65,6.05,2.16,12.45,2.81,18.73.29,2.86,1.27,4.28,4.13,4.31,0,.66,0,1.32,0,2-3.52,8.36-3.64,9.66-1.77,20.46,6.52.36,12.89-1.4,20.31-2.7-4.59,4.2-9.56,4.11-14,5.11-33.53,7.55-66.75,7.09-99.23-5.1-21.72-8.16-40.15-20.64-52.2-41.23-5.89-10.07-13.26-19.14-20.08-28.58-7.07-9.78-17.36-14.16-28.21-17.78-3-1-5.86-.33-8.76.73-9.59,3.49-17.87,8.58-24,17.08q-11.38,15.8-22.23,32C326.86,409.64,308,422,284.92,428c-2.85-.38-6.39.13-4.8-4.9.56-1.79,0-3.93,0-5.91-1.25-14.3,4.53-26,13.57-36.42,2.08-1.11,4.38-1.24,6.66-1.55,18.58-2.52,25.72-13.29,20.43-30.78,1-10.95,10.61-15.43,17.13-22.06,4.06-4.13,6.71-7.88,5.56-13.87-1.05-5.49-3.17-6.66-8-3.42a163.62,163.62,0,0,0-28,23.83c-2.51,2.65-5.11,5.22-7.7,7.78A53.73,53.73,0,0,0,283.68,359a218.8,218.8,0,0,0-14.37,23.77c-1.45,2.88-2,7.42-7,6.86-2.34,1.24-4,1.26-4-2.09-2.8-4.3.25-7.68,2.09-11C278,345.1,301,318.37,331.22,298.25c5.24-3.5,9.91-6.64,7.52-14.25-2.54-8.05-8.7-8.16-15.23-7.72-7.7.51-15,2.89-22.13,5.62-3.93,1.49-7.73,4.19-12.31,2.2C286.44,283.06,287.86,281.33,288.32,279.77Z"/><path class="cls-5" d="M323.49,502.79c.48-6.5,4.33-9.09,9.6-11.64,38.94-18.82,77.82-17.78,116.81-.49,7.91,3.51,15.72,7.27,23.46,11.15,17.57,8.78,34.38,19.06,52.7,26.37,5.21,2.08,5.8,4.67,2.72,9.15-3.43,5-8.75,7-14.24,8.58-12.47,3.53-24.49.92-36.26-3.16-6.91-2.4-13.71-5.21-20.35-8.29-16.1-7.46-33.37-11.4-50.14-16.79-11-3.53-22.46-1.22-33.62,1.15-21,4.47-40.71,12.52-60.34,20.86-11.84,5-24.05,7.76-37,6.15-6.46-.8-12.37-3-17.11-7.42-5.42-5.1-4.74-8.85,2.12-11.67,18.85-7.74,36.28-18.28,54.38-27.48C320.17,497.24,322.36,497.33,323.49,502.79Z"/><path class="cls-8" d="M289.07,284.1c9-3.17,17.54-8,27.26-9.18,3-.36,5.9-1,8.87-1.2,12.55-.77,18,4.9,17.72,17.72-.08,3-1.88,3.79-3.92,5-26.63,16.12-48.12,37.62-65.43,63.33-5.91,8.76-12.08,17.48-15.27,27.79-7.15,11.74-10.76,24.79-13.49,38-1,4.67-2.82,6-7.12,5.94-8.27-.16-16.55.11-24.82-.15-7.61-.24-7.59-.44-7.91-7.82-.09-2-.3-3.93-.45-5.9-1.75-2-1.85-4,.18-5.88a33.06,33.06,0,0,0,1.33-5.76c1.87-35,17.15-63.75,40.85-88.76C259.35,304.12,273.78,293.61,289.07,284.1Z"/><path class="cls-2" d="M431.46,895.53c-26.12-.14-51.79,3.84-79,1.37,5.16-10,9.61-19.51,14.84-28.56,3.48-6,7.64-11.68,10.8-17.93,1.69-3.36,3.86-5.77,7.92-6.84,13.94-3.65,15.43-3.19,23.11,9.41,6.92,11.35,14.61,22.24,20,34.47C430.1,889.54,431.61,891.43,431.46,895.53Z"/><path class="cls-2" d="M201.46,819.64c13.38,17,24.65,33.27,32.51,51.72,2.87,6.71,6,13.35,8.52,20.18,2.63,7,1.4,9.49-5.73,9.79A223.92,223.92,0,0,0,211,903.65a5.33,5.33,0,0,1-2,0c-4.57-1-10.24,4.68-13.06.49s-3.15-10.66-3.41-16.18c-.84-17.61-.59-35.19,4.77-52.28C198.8,831,199.81,826.11,201.46,819.64Z"/><path class="cls-2" d="M586.09,823c0,7.18.91,14.52-.25,21.51a100.93,100.93,0,0,0-1.4,21.82c.56,10.72-2.17,21.15-2,31.79.05,3.66-1.61,6.33-5.28,5.3-10.95-3-22.69.13-34.54-5.08a242.11,242.11,0,0,1,41.07-75.88Z"/><path class="cls-9" d="M294.08,381.77c-6.17,11.21-11.59,22.71-13.95,35.41-1.5,6.61-6,9.55-12.41,10.33-4.9.59-9.75,1.64-14.64,2.36-4.15.61-5.44-1.3-4.18-5.16,3.06-9.41,6.22-18.78,10.57-27.71,1.15-2.34,1.88-4.88,2.8-7.33,7-10.5,11.65-22.49,20.24-32C285,366.36,286.91,375.34,294.08,381.77Z"/><path class="cls-10" d="M190.52,837.86c-2.74,12-4.91,24-3.89,36.42,1,12.15,3.05,24.15,5.22,36.18-11.93-17.27-16.42-36.58-16.36-57.2a9.19,9.19,0,0,1,3.33-6.9c3.88-3.68,6.73-8.17,9.73-12.53C192.3,833.66,191.34,835.79,190.52,837.86Z"/><path class="cls-11" d="M597.85,834.05c8.11,9.11,12.29,19.24,9,31.71-.81,3.11-.19,6.61-.12,9.92.29,13.9-2.61,23.08-12.45,36.85,2.35-13.93,5-25.87,5.8-38,.81-12.41-1.34-24.46-4.17-36.44C595.71,836.31,594.24,834,597.85,834.05Z"/><path class="cls-12" d="M175.44,838.63c1-15.15,2-30.3,3.08-47,6.88,4.59,10.15,10.66,14,16.13,1,1.47.69,3.16,0,4.75-4.2,9.3-7.91,18.88-14.87,26.59Z"/><path class="cls-13" d="M582,934c5-4.47,9.57-8.15,13.66-12.28s6.69-9.65,9.83-15.1c2.54,6.21,3.61,22.88,2,27.08-1.5,3.82-8,6.72-13.63,5.64A25.24,25.24,0,0,1,582,934Z"/><path class="cls-14" d="M607.67,792c2.81,12.53,2.64,29.85-.53,45.6-6.45-8.28-9.83-17.07-13.51-25.69-.63-1.47.17-2.63.87-3.66A93.81,93.81,0,0,1,607.67,792Z"/><path class="cls-13" d="M178.49,903.43c3.45,1.73,4,4.5,5.22,6.67,4.55,7.81,9.53,15.15,18.08,19.19,3.64,1.71,3.26,4.11.25,5.76-4.38,2.39-9.09,4-14.29,3.09-6.06-1-7.61-2.66-8-9.09C179.28,920.79,178.94,912.52,178.49,903.43Z"/><path class="cls-15" d="M295.92,635.44l4.56-1.6c4.14,2.42,2.28,5.22.5,8-7.83,3-16,1-24,1.57-3.55.24-7.13-.14-10.7-.23a2.37,2.37,0,0,1,.1-2.52c2.63-5.13,8.58-1.58,12-4.59a31.55,31.55,0,0,1,12.91-.32C293,638.14,294.54,637.76,295.92,635.44Z"/><path class="cls-16" d="M394.26,639.36l-25.07.92c-3.19-1.36-4.1-3.81-3.37-7,10.38,1.31,20.55-2,30.89-1.53C398.71,635.15,398.06,637.76,394.26,639.36Z"/><path class="cls-17" d="M394.26,639.36c1.82-2.23,1.83-5,2.45-7.66,7.18,1,14.33-1.81,21.51-.2,1.35,2.33,2.73,4.67-.88,6.32C409.75,639.87,402,639.91,394.26,639.36Z"/><path class="cls-18" d="M454.94,631.63c14.25.17,28.49.32,42.74.56.36,0,.7,1,2,2.92-16,1.6-31.21.77-46.38,1.11A3.76,3.76,0,0,1,454.94,631.63Z"/><path class="cls-19" d="M266.89,641.86a10.73,10.73,0,0,0-.6,1.34c-10.58-2.92-21.55-.8-32.85-1.94,4.16-3.77,16.25-5.37,35.12-5.13C269.21,638.39,267.84,640.06,266.89,641.86Z"/><path class="cls-20" d="M609.94,775.53c-.34,1.05,1.6,4.5-1.23,5.87-3.28,1.59-5.29-1.74-7.5-3.51a16.14,16.14,0,0,1-4-4.35c-1.5-2.6-1.8-5.18,2.42-5.46,1.65-.11,3.32,0,5-.18C609.52,767.26,611.3,769.42,609.94,775.53Z"/><path class="cls-21" d="M365.82,633.23q1.68,3.53,3.37,7c-10.21,2.16-20.54,1.17-30.83,1.16.19-7,7.93-3.45,10.34-7.37l2.85-.05c2.25,1.07,4.5,2.66,6.77,0Z"/><path class="cls-22" d="M454.94,631.63c-.55,1.53-1.09,3.06-1.65,4.59-6.79,1.83-13.74,1.24-20.64,1.31-2.51-2-3.62-4.49-2.33-7.67C438.64,629,446.69,631.68,454.94,631.63Z"/><path class="cls-23" d="M301,641.86c-1.07-2.62,1.09-5.44-.5-8a63,63,0,0,1,16,.09c2,2.86,2.53,5.56-.94,7.76Z"/><path class="cls-24" d="M315.54,641.69c1.36-2.46,1.1-5.11.94-7.76,5.43.06,10.86-1.1,16.28.14.87,3.06-.29,5.46-2.43,7.55C325.4,641.72,320.48,642.58,315.54,641.69Z"/><path class="cls-25" d="M592.33,893.75a234.2,234.2,0,0,1,.27-37.56C595.43,866.42,595.39,883.24,592.33,893.75Z"/><path class="cls-26" d="M190.52,837.86c-.61-1.37-.19-3.24-2-4,2.66-6.54,5.33-13.08,8.24-20.21C198.54,819,197.74,821.88,190.52,837.86Z"/><path class="cls-27" d="M492.61,238c-7.29,3.58-15.6,4.55-22.85,8.54,5-5.65,10.81-9.95,18.8-10.52C489.48,237.55,491.31,237.25,492.61,238Z"/><path class="cls-28" d="M597.85,834.05c-1.45,1-1.26,2.67-1.89,4-3.12-7.36-6.78-14.56-7.38-22.77C593.48,820.74,594.76,827.83,597.85,834.05Z"/><path class="cls-29" d="M348.7,634.07c-.45,3.43-1.77,5.83-5.83,4.54-2.72-.86-3.19,1.61-4.51,2.83l-2.18,0c-4.3-5.56-4-6,5.06-7.28A11.49,11.49,0,0,1,348.7,634.07Z"/><path class="cls-30" d="M389.07,834.7c-.49-2,.58-3.36,1.4-4.74.66-1.11,1.39-2.18,2.35-3.68,1.68,2.31,2.69,3.55,3.54,4.9a41.66,41.66,0,0,1,1.89,3.79A9.77,9.77,0,0,1,389.07,834.7Z"/><path class="cls-31" d="M417.34,637.82a9.74,9.74,0,0,0,.88-6.32l6.17-.88c4.35,1.25,3.92,4.06,2.37,7.24C423.62,638.27,420.48,638.79,417.34,637.82Z"/><path class="cls-32" d="M266.89,641.86c-1-2.36.5-4,1.67-5.73l9.85,0c-.29,1.58-.93,3.89-2.49,3.39C272.17,638.29,270.19,642.39,266.89,641.86Z"/><path class="cls-21" d="M341.24,634.2c-.5,1.46-1.65,1.42-2.94,1.46-5.44.17-4.56,2.74-2.12,5.82l-5.85.14c.18-2.72.4-5.42,2.43-7.55A20.71,20.71,0,0,1,341.24,634.2Z"/><path class="cls-33" d="M426.76,637.86c-.29-2.57.57-5.53-2.37-7.24l5.93-.76c1.8,2.25,1.75,5,2.33,7.67Z"/><path class="cls-34" d="M295.92,635.44c.8,2.24,1.7,5.13-1.45,5.6-3.85.58-4.09-2.29-3.16-5.27Z"/><path class="cls-35" d="M358.32,634.05c0,2.12-.47,4.22-2.92,4.48-3.15.34-3.71-2-3.85-4.52A11.18,11.18,0,0,1,358.32,634.05Z"/><path class="cls-1" d="M238.39,435.82a33.94,33.94,0,0,1-14,0C229,432.5,233.72,432.45,238.39,435.82Z"/><path class="cls-1" d="M204.69,411.81a7.55,7.55,0,0,1-.18,5.88c-1.94-.2-3.87-.66-3.8-3.07S202.75,411.89,204.69,411.81Z"/><path class="cls-36" d="M382.16,429.85a49.36,49.36,0,0,1,26.74,7.46c2,1.24,3.9,2.88,3.55,5.55-.38,2.92-2.94,3.25-5.24,3.63-6.55,1.09-13.07,2.45-19.67,3.11-7.28.73-14.46,1.45-21.51,3.74-6.55,2.12-11.1.48-13.13-3.65-2.35-4.76-.19-11.1,5.48-14.46C365.75,430.86,374.06,430.13,382.16,429.85Z"/><path class="cls-37" d="M332.1,415.06c8.74-4.12,14.75-11.19,20.43-18.64.81-1.06,1.68-2.07,2.46-3.15,19.88-27.24,57.08-22.8,74.53-1.68,2.12,2.56,4.24,5.14,6.23,7.81a62.9,62.9,0,0,0,19.36,17.16c-6.92-.2-12.49-3.59-17.43-8-4.48-4-8.42-8.53-12.84-12.57-8.21-7.51-17-13.69-28.8-14.43-13.22-.82-24.08,3.77-33.42,12.65-4.1,3.9-7.79,8.24-12,12C345.45,410.87,339.9,415.06,332.1,415.06Z"/><path class="cls-8" d="M560.69,433.13c-4.69-.38-11,.6-15.76-1.69-5.2-2.51-3.71-9.83-5.29-15C524.23,366.4,493.8,327.8,450.4,299.08c-7.42-4.92-7.57-4.71-5.36-13.38,2.63-10.35,5.28-12.12,16.33-11.07,11.37,1.07,22.31,3.8,32.38,9.22,41,22,70.79,53.57,83.33,99.38,3.8,13.85,4.33,28.2,4.77,42.52.15,4.85-1.62,6.5-6.25,6.48S566.31,432.76,560.69,433.13Z"/><path class="cls-9" d="M462.38,343.48c-5.12-6.17-10.66-12.05-17.39-16.34-3.78-2.41-4.72-5.1-4.28-9,.56-4.94,1.08-9.88,1.61-14.64,3.6-1.16,5.41,1.25,7.46,2.62,42.92,28.71,71.33,68.26,87.25,117.09.41,1.27.87,2.53,1.15,3.83.63,2.92-.45,4.73-3.59,4.16-7.2-1.3-14.36-2.82-21.52-4.31-3.44-.71-4.35-3.22-5.2-6.39a160.75,160.75,0,0,0-14.73-37.05c-1.77-3.15-3.06-6.9-7.85-6.24-1.64-3,1.14-4.16,2.55-5.62,4.44-4.62,7.17-9.52,4.46-16.1-3-7.28-8.73-10.38-16.22-11.26C471.52,343.7,466.83,345.71,462.38,343.48Z"/><path class="cls-38" d="M294.08,381.77c-11.21-4.49-13.44-13.3-11.57-24.08,2.89-7.88,8.54-13.45,15.15-18.23,12.58-4.15,19.31-2,24.44,7.71,8.37,15.7-.81,32.38-19.1,34.52A78,78,0,0,1,294.08,381.77Z"/><path class="cls-39" d="M462.38,343.48c5-2.08,10.3-2.25,15.6-1.64,9.08,1.05,15.3,6.09,17.45,13.94s-.8,14.21-9,20a6.33,6.33,0,0,0-1.14,1.49c-10.19,4-19.41,2.4-27.15-5.4-7.5-7.56-7.64-15.62-.73-23.61A67.61,67.61,0,0,1,462.38,343.48Z"/><path class="cls-40" d="M322.1,347.17c-6.54-7.65-15.26-8.42-24.44-7.71,12.26-15.07,33.43-32.26,46-37.26,1.62,3.32,1.6,7,2.13,10.52.91,6.12.57,11.13-6.09,15-5.85,3.44-10.21,9.39-15.35,14.1C322.69,343.37,322.38,345.21,322.1,347.17Z"/></g></g></g></svg>