<svg xmlns="http://www.w3.org/2000/svg" viewBox="0 0 888.9 1642.63"><defs><style>.cls-1{fill:#040302;}.cls-2{fill:#432f1a;}.cls-3{fill:#312c2c;}.cls-4{fill:#f0e19a;}.cls-5{fill:#fff;}.cls-6{fill:#ff9322;}.cls-7{fill:#242217;}.cls-8{fill:#f68e21;}.cls-9{fill:#2d2e2f;}.cls-10{fill:#483315;}.cls-11{fill:#4a2506;}.cls-12{fill:#535036;}.cls-13{fill:#514b33;}.cls-14{fill:#b2b3b3;}.cls-15{fill:#fffdfa;}</style></defs><title>Layer 2</title><g id="Layer_2" data-name="Layer 2"><g id="Layer_4" data-name="Layer 4"><g id="Layer_2-2" data-name="Layer 2"><path class="cls-1" d="M472.67,1596.24c-3-24.46-4.23-49.06-6.41-73.59-7-78.69-7.27-157.64-9.41-236.52a16.52,16.52,0,0,0-4.67-11.46c-11.08-12.29-24.67-21.29-38.69-29.66-20.58-12.27-41.35-24.21-62-36.32-25-14.66-48.12-32.22-72.77-47.43-3-1.86-6.1-3.58-10.6-6.21,0,5,0,8.53,0,12.06.4,35.63-.68,71.28,1.37,106.89.42,7.31.2,14.65.15,22-.3,45.63.23,91.25,4.89,136.66,1.06,10.35-1.22,17.78-8,25.06-8.15,8.78-15.71,18.08-24.29,26.49-4.53,4.44-8,4.59-12.13.19a178.93,178.93,0,0,0-2.64-30.76c-4.19-23.28-1.13-46.47.63-69.67,3.27-43.17,5.9-86.3,0-129.49-3.78-27.81-2.78-55.82-2.67-83.78a297.83,297.83,0,0,0-1.88-31.87c-.69-6.61-3.42-11.29-9.15-14.4-7.8-4.23-14.73-10.1-23.45-12.88-2.62,4.85-1.46,9.54-1.1,14.09,3.93,49.41,7.79,98.92,7.09,148.44-.63,43.49-2.13,87.09-6.91,130.46-1.41,12.89-1.9,25.88-4,38.71a14.57,14.57,0,0,0,3.64,12.92c1.44,1.6,5.63,4.17.39,6.64-13.75-5.85-12.29-3.45-11.5-18.61,1.92-3.23-.14-7,1.51-10.32,1.93-31.56,3.66-63.15,5.82-94.7,4-58,2.73-115.87-.91-173.79-1.25-19.95-1.3-40-3-59.88-1.33-15.24-1.53-30.53-3-45.75-.47-4.84-2.15-6.27-6.74-5.88a99.91,99.91,0,0,0-20.58,3.76c-7.61,2.3-15.18,1.89-22.73.52-9.42-1.71-15-8.2-18.55-16.54-3.42-8-4.62-16.65-5.91-25.21C100.92,993,97,969.72,91.61,946.66a269.11,269.11,0,0,0-23.23-62.55C54.82,857.74,40.68,831.69,22,808.46c-5.25-6.53-10.78-12.74-19-15.74-1.58-.58-3.26-1.27-3-3.34.36-2.6,2.26-1.42,3.78-1.38,17.45.45,30.79-6.19,39.64-21.82,6.54-11.54,10.92-23.46,11.11-36.83.06-4.21.64-8.42,1.09-13.85,5.66,3.81,6.79,8.74,8.33,13.18,7.05,20.33,21,27.06,38.73,26.2,8.11-.38,15-2.4,18.73-10.6.84-1.84,1.53-4.55,4.76-5.25,4.86,12.31,3.1,27.43,15.15,36.91,7.56,5.95,14.07,13.35,23.59,16.45,3.94,1.28,7.69,3.74,12.12,2.81,0-1.12.27-2,0-2.33-12.64-15.63-13.81-34.19-13.38-53,.27-11.62,5-21.94,10.5-32Q182,693.43,189.92,679c3.05-5.57,3.13-11.1,1.46-17.3-9.22-34.4-20.85-68.07-31-102.17a559.39,559.39,0,0,0-52.41-120.57c-.61-2,.47-2.92,2.15-3.49,5.57.69,7.15,5.54,9.46,9.4,21.52,35.91,37.11,74.48,49.71,114.22,14.49,45.69,27.4,91.86,40.58,138a100.23,100.23,0,0,1,3.88,25.17c1.6-5.82,5.14-9.49,9.18-12.64,6.86-5.34,14.17-3.92,18.41,3.76a43.31,43.31,0,0,1,5.79,23.94,39.16,39.16,0,0,0,4.52,21.23c6.84,12.8,15.53,17.07,29.69,14.23C309.66,767,336,756,360.82,741.37a21,21,0,0,1,2.62-1.56,267.21,267.21,0,0,0,83.74-73,29.11,29.11,0,0,0,6-18.71c-.63-16-5.92-30.63-16.76-42.85-3.12-3.51-7.3-4.41-11.8-4.39-10.65.06-21.26,0-31.92,1.25-5.73.65-8.23,3-9.83,7.91a358.2,358.2,0,0,0-11.56,43.44c-.8,4.16-.87,8.8-5.32,11.3-3.34-.68-3.57-3.44-4.06-6,.73-17.84,5.87-34.8,11.31-51.56,2.38-7.32,1.53-12.67-3.54-18.15-8.52-9.19-17.66-16.43-30.65-19.13C307,563.19,285.23,543.08,271.73,514c-6.57-14.17-5.75-29.41-.76-43.93,2.58-7.53,1.11-9.89-6.55-10.95-18.9-2.62-36.87-9.14-54.89-15-40.24-13.1-79.72-28.44-120.29-40.58-3.47-1-7.16-1.92-9.27-5.4.44-3.2,2.29-3.17,4.63-2,17,2.11,33,7.82,49,13.37,40.23,13.95,80.15,28.8,121.35,39.76,6.11,1.63,12.23,3.2,18.64,3.21,5.36,0,10-.44,14.57-4.5,6.53-5.81,14.67-5.44,22.58-2.05,4.33,1.86,7.94,4.84,11.76,7.51a95.71,95.71,0,0,0,38.3,16.05c22.84,4.17,35.89-10.75,38.59-27.13,4.53-27.44,16.44-50.91,31.55-73.65,20-30.07,33.09-63.12,36.65-99.3,2.06-20.91,1.87-41.91-4.7-62.3a6.51,6.51,0,0,1,.22-5.37c3.69,1.11,4.12,4.75,5.07,7.38,8.89,24.68,23,46.68,37.57,68,14.38,21,33.78,37.6,56.23,50.18a11,11,0,0,0,2.75.87c.29.07.64-.14,1.54-.37-1.09-16.44-2.6-32.93-4.83-49.37-4-29.7-8.85-59.26-13.77-88.82-4.27-25.68.39-50.37,20-69.26C595,94,623.39,96.82,645.24,127.65c10.7,15.08,13.66,33,15,51.17.15,2,.25,4,.42,6,0,.27.27.52.67,1.22,8.65-3.25,16.69-7.85,24.56-12.71,38.26-23.63,77.28-45.89,117.45-66.1,5.14-2.59,7.54-5.25,6.36-11.34-3.35-17.25-2.5-34.66,1-51.66,4.4-21.09,17.66-35.64,37.79-43,9.7-3.54,18.26,1.21,25.29,8.08,5.63,5.5,8.59,12.51,10.68,20,6.2,22.38,5.16,44.89.86,67.3-2.25,11.74-5.69,23.28-9,34.8-5.18,18.12-5.75,36.79-7,55.38-.51,7.65-1,15.32-.93,23a734.32,734.32,0,0,1-4.13,84.77c-3.28,30.16-2.45,60.57-3.44,90.87-.54,16.31-.48,32.65-.45,49,0,22.32,3.22,44.49,3.23,66.84,0,12,1.11,24,1.21,35.95.42,51.65,3.55,103.26,2.25,154.92-1.08,43-2.47,85.92-3.7,128.89q-.45,15.48-.71,31c-.76,48-2.16,96-2.07,143.93.15,71.3-.73,142.62,2.48,213.89,2.47,54.93,8,109.61,12.52,164.39,1.13,13.93,1.14,27.95,3.08,41.84a9.67,9.67,0,0,1-2.27,8.32c-11.9,13.45-23.68,27-35,39.9-3.89.48-5.28-1.71-7-3.1-13.38-11-27.35-21.24-41.34-31.45-7.52-5.49-14.48-11.74-21.71-17.62a4.57,4.57,0,0,1-1.45-3.55c-1.31-5,1.27-5.28,4.72-3.59,4.83,2.35,8.73,6.07,12.85,9.46a464,464,0,0,0,40.86,29.91c-7.13-60-12.93-119.62-15.64-179.62-2.71-60.19.33-120.4-2-182.91-11.74,9.9-23.43,16.68-33.82,25.32-2.38,2-3.39,4.88-4.16,7.83a47.06,47.06,0,0,0-1.46,12.88c1.44,67.32-2.9,134.57-2.11,201.88.23,19.34,2.12,38.55,3.28,57.82.28,4.63,2.43,10.07-3.93,12.76-2.55-11.06-3.34-22.36-4-33.62-3.5-55.84-2.34-111.76-2.36-167.66,0-28.26.13-56.53,1.65-84.53-2.85-1.5-4.29.27-5.7,1.51-27,23.84-58,42.28-86.38,64.35-29.92,23.29-60.3,46-90.49,68.93-1.57,1.19-3.28,2.21-4.92,3.31-1.79-4.94-1.86-5,3.37-9.34,12.85-10.6,26.34-20.38,39.48-30.61,34.94-27.21,70.36-53.78,106-80.13q38.88-28.8,77.67-57.83c8.47-6.37,12.07-13.14,11.23-23.49-.62-7.6-1.6-15.08-2.83-22.94-39.36,26.48-79.43,50.91-117.73,78q-67.38,47.53-137.17,91.4c-8.38,5.26-13.08,11.16-11.44,21,3,17.76.46,35.86,3.62,53.58-3.17,2.4-2.71,5.72-2.44,9.09,1.45,17.9,2.83,35.8,4.25,53.7,2.25,28.51,4.7,57,6.71,85.54,2.09,29.63,8.36,58.56,14,87.6,3.89,19.9,7.69,39.82,12,59.63a12.55,12.55,0,0,1-2.26,11.11c-2.39,3.2-4.73,6.45-7.36,9.44-13.62,15.51-26.26,31.8-38.61,48.32-6.23,8.33-5,7.07-13.35,2.66q-23.71-12.51-47.5-24.91c-1.29-5.23-.29-10.4-.51-14.79,1.43-1.24,2.56-1.36,2.64-.88,2.2,12.9,13.13,16.33,22.79,21.14,4.77,2.37,9.91,4.25,14.19,7.32,5.1,3.67,9.15,2.81,13.41-.84,3.83,2.83,6.48,1.52,9.19-2,11.68-15,22.77-30.42,35.57-44.49,4.23-4.65,2.81-9.89,1.61-15.15-7.83-34.11-13.76-68.6-20.25-103-4.71-24.94-5.47-50.27-7.28-75.5-1.93-26.89-4.09-53.78-6.91-80.59-1.32-12.6-1.81-25.25-2.61-37.85-4-62.88-4.17-125.94-1.91-188.8a1926.44,1926.44,0,0,1,40.77-329.77C599,634.35,617.89,518.57,632.83,402.2c6.06-47.22,9.53-94.73,12.76-142.24,1.79-26.22,7.08-52.18,5.87-78.63-.76-16.53-3.93-32.39-12.6-46.77A49.68,49.68,0,0,0,623.23,118c-12.72-8.19-25.26-8.67-38.41-.44-22.91,14.34-34,45-28.11,75.89,11.51,60.26,17.86,121,21.29,182.37,3.77,67.46-5.69,133.53-12.89,200Q555,669.74,539.23,762.89c-7.08,42.39-17.24,84.26-22.6,126.94-7.3,58.16-13.16,116.49-19.4,174.78-7.68,71.72-6.73,143.72-5.5,215.61.94,55.57,6.29,111,12.6,166.23,5.18,45.32,8.49,90.84,14.94,136,1.51,10.57,3.78,21,6,31.4.9,4.14,2.61,8.44-.87,12.32-6.73-1.47-6.76-7.65-8-12.39-6.77-25.86-9.77-52.38-12.92-78.85-6.23-52.26-11.8-104.59-17.15-157-2.54-24.83-5-49.78-4.72-74.71.35-33.67-2.33-67.23-2.26-100.87.15-73,5.75-145.68,14.85-218.12,4.74-37.67,7.34-75.62,13.37-113.13q9.9-61.63,23.06-122.7a43.34,43.34,0,0,1,2.51-8.21c-6.84,28.67-15.41,56.9-19.68,86.23-8.87,61-23.05,121.12-32.59,182-7.73,49.36-13.45,98.92-15.9,148.94-2.62,53.65-2.16,107.29-1.07,160.87.91,44.57.8,89.23,3.68,133.76,2.66,41.18,5.59,82.34,9.14,123.47C477.36,1582.47,480.94,1590.76,472.67,1596.24Z"/><path class="cls-2" d="M472.67,1596.24c3.35-7.69,1.52-15.59.9-23.42-.19-2.3-1-4.57-1.05-6.86-.2-22.25-3.1-44.33-4.52-66.5-1.65-25.84-2.48-51.72-4.09-77.52-1.75-28,0-55.92-1.78-83.77-3.4-53.24-1.62-106.49-1.17-159.72.15-17.1.43-34.46,3-51.61,1.43-9.45,1.16-19.16,2.14-28.76,2.12-20.76,5.11-41.39,7.79-62.06,3.78-29.25,8.9-58.24,14.52-87.17,5.19-26.64,10.55-53.26,15.35-80,3.33-18.55,5.67-37.28,8.76-55.88a349.45,349.45,0,0,1,11.2-47.32c3.07-9.77,6-19.59,9.41-30.79,2.72,7.29-.36,12.84-1.2,18.16-3.49,22.23-8.32,44.25-12.16,66.43-4.07,23.46-8.73,46.8-11.77,70.48-2.58,20-5.16,40.09-7.09,60.16-2,21.11-4.47,42.19-6.9,63.23-2.67,23-5.1,46.11-7.07,69.18-1.18,13.83-2.49,27.76-2.66,41.74-.42,33.59-3.47,67.19-1.52,100.75,1.76,30.27.15,60.59,2.07,90.76,1.41,22.12,2.46,44.31,5,66.41,1.79,15.42,3.55,30.93,4.71,46.47s3.74,30.88,5.48,46.34c1.6,14.15,2.61,28.37,4.42,42.49,2.88,22.64,5,45.37,9.15,67.85,2.29,12.4,4.13,24.83,8.47,36.73.57,1.55.74,3.26,2.33,4.22l-.08-.11,1.3,8.65c-2.88,1.9-4.19-.93-6-1.84-10.92-5.45-21.62-11.38-32.77-16.31-7.29-3.23-12.74-6.8-11.32-16.16-.94,4.72-.4,9.34-1.52,13.74C471.7,1608.4,473,1602.26,472.67,1596.24Z"/><path class="cls-2" d="M768.64,1400.25c3-3.52,2.21-7.84,1.25-11.45-1.58-6-1.06-11.89-1.57-17.83-3.41-39.22-2.76-78.57-1.39-117.78,1.52-43.29.88-86.55,1.62-129.82.17-10.15,2.9-18.29,12.68-23.79a139.24,139.24,0,0,0,26.48-19.45,7.48,7.48,0,0,1,5.49-2.43c2.3,1.6,1.23,4.12,1.23,6.23.08,53-.35,106,.34,159,.23,17.52.66,35.18,3.32,52.63a66.34,66.34,0,0,1,.3,10c0,22.62,2.7,45,5.51,67.4,2.23,17.75,4.05,35.55,6.55,53.27,1.15,8.09,3.17,16.1,1.29,25.15-10.19-5.52-18.09-13.16-26.75-19.67-10.61-8-20.83-16.48-31.12-24.88-2.85-2.32-3.09-.08-3.8,1.71C767.75,1406.08,768.28,1403.15,768.64,1400.25Z"/><path class="cls-2" d="M548.56,1272.08c-2.29-2-4.29-3.94-4.07-7.48,1.07-17.31-1.57-34.49-2.13-51.76-.23-6.91,2.41-11.21,8.09-14.62,43.89-26.36,86.12-55.31,128.17-84.44,22.4-15.52,45.26-30.32,67.73-45.7,15.36-10.51,30.85-20.78,46.89-30.2,7.1-4.18,12.28-11.07,20.75-14.58,1.12,13.31,2.86,26,2.36,38.88-.16,4.16-2,6.34-5.1,8.9-18.34,15.39-39,27.61-57.64,42.55-35.49,28.45-73.41,53.67-109,81.94-21.32,16.92-43,33.4-64.3,50.27-1.85,1.46-6.07,2.5-3.92,6.7A186.87,186.87,0,0,1,548.56,1272.08Z"/><path class="cls-2" d="M190.11,1462.79c2.56-3.38-.66-4-2.53-4.75-4.48-1.78-5.37-5-5.34-9.49s1.75-8.46,2.08-12.75c2.24-29.09,5.67-58,6.58-87.29.51-16.24.32-32.62,2-48.76A249,249,0,0,0,194,1256c-1.45-19.61-.57-39.25-1.94-58.78-1.42-20.19-3.12-40.33-4-60.57-.44-10.19-2.06-20.31-1.34-31.41,9.65,3.81,17.11,10,25.59,14.28,1.47.75,2.67,2.12,4.18,2.69,8,3,9.47,9,10.38,17.12,2.66,23.94.86,47.87,1.41,71.79.38,16.27,2,32.39,3.7,48.56,1.33,12.83,2.4,25.73,2.67,38.73.54,26.32-1.34,52.52-2.63,78.74-.73,14.86-2.9,29.67-3.65,44.57-.9,18,3,35.65,4.91,53.41.47,4.4-.27,6.82-3.19,9.3C216.51,1477.67,202.84,1471.1,190.11,1462.79Z"/><path class="cls-3" d="M84.6,396.1l-4.18,2.08c12.63,7.72,20.07,20.2,28.81,31.47,1.41,1.83,2.4,4.05,1.31,6.53-.87.91-1.74,1.83-2.62,2.74A320.41,320.41,0,0,0,67.85,393C75,393.34,80,393.71,84.6,396.1Z"/><path class="cls-2" d="M180.12,1433.86c.62,3.61,1.26,7.22-1.51,10.33C178.12,1440.6,178.24,1437.1,180.12,1433.86Z"/><path class="cls-2" d="M543.71,1197.14c-2.08-3.07-1.24-5.77-1.24-8.3,0-32.65-1.15-65.37.47-97.94,1-20.19.79-40.45,2.87-60.66,1.35-13.13,2-26.48,2.72-39.74.6-11.23,2.2-22.41,3.29-33.62.73-7.59,1.51-15.17,2.39-22.74,1.79-15.47,3.87-30.89,5.62-46.34,2.71-24.06,6.67-47.9,10.82-71.71,3.69-21.2,8.36-42.23,12.56-63.35,7.51-37.67,15.19-75.29,21.66-113.17,4.29-25.12,8.63-50.26,12.78-75.39,4.52-27.43,9.17-54.86,13.24-82.38,4-26.86,7.58-53.78,11-80.7,2-15.73,3.86-31.57,4.78-47.49,1.09-18.84,3.77-37.57,5.44-56.38.87-9.91,1.38-19.89,2-29.8,1.16-19.55,4.45-38.91,4.64-58.54.05-4.92,2.05-9.73,1.8-14.79-.16-3.07,1.85-4.78,4.43-6,26.73-12.83,51.06-29.87,77.17-43.81,19.36-10.34,38.38-21.33,58.11-31,1.8-.88,3.52-1.92,5.36-2.69,4.71-2,6.52-1.32,6.6,3.44.13,7.68,2.15,15.25,2,22.78-.77,33,2.67,65.81,2.37,98.77-.37,40.65-1.23,81.35.25,122,1.41,38.6.57,77.21,2.14,115.76.62,15.26,1.23,30.53,1.62,45.8a60.07,60.07,0,0,0,.85,6.91c1,6.82,3,13.64-2.1,20-1,1.31-.78,3.83-.79,5.79,0,19.33-.89,38.72.42,58,.92,13.63,2.51,27.35,1,40.79-1.94,17.66-1.94,35.28-1.09,52.81.89,18.28-.67,36.42-.77,54.62-.06,11.57-1.78,23.15-1.55,34.8.62,31.54-.31,63.07-.09,94.61s-.28,63.31.05,95c.1,9.71-2.06,19.16-1.93,28.8,0,3.15-2,4.54-4,6.39-9.58,8.88-20.7,15.55-31.66,22.47-38.5,24.31-76.4,49.48-113.49,75.94-22.17,15.81-44.58,31.38-67.69,45.87-12.66,7.93-24.73,16.81-37.17,25.1C555.06,1190.52,549.33,1193.73,543.71,1197.14Z"/><path class="cls-4" d="M306.39,794.44c-12.59-3.63-25.46-6.62-36.71-14.85,51.22-4.67,93.88-27.28,133.38-57.07,27.15-20.48,48.85-46.11,68-74,2.77-4,5.89-8.14,4.64-14.08-7.32,3.15-8.16,11.35-14.2,16.42-1.05-20.14-7.46-37.63-21.68-52.57,6-1.52,11.14-2.75,16.23-4.11,9.12-2.45,17-7.21,24.94-12.3,14.71-9.49,16.71-24.27,11.27-38.64a73.67,73.67,0,0,0-24.87-33.16,200,200,0,0,0-22.65-14.61c-7.3-4.09-14.25-8.74-19.67-15.21-16.16-19.27-22.21-40.53-12.91-65,5.13-13.5,12.23-25.84,20.19-37.78,19.82-29.77,33.49-62,39.15-97.48,2.42-15.19,3.55-30.45,1-46,3.73.72,3.82,3.8,5,5.89,6.93,12.53,12.89,25.67,20.75,37.58,15.24,23.12,34.72,42.18,59.64,54.85,6.74,3.43,9.59,7.4,10,15.11,3.17,58,3.13,115.83-4.93,173.57-6.8,48.81-12.27,97.82-18.3,146.74-2.1,17-7.72,33-12.4,49.34-8,27.83-17.41,55.26-22.22,83.93a23.92,23.92,0,0,1-4.6,9.87,123.25,123.25,0,0,1-23.09,24.8c-20.55,16.51-42.65,30.77-64.9,44.85-20.26,12.82-40.85,25.22-58.85,41.24-12.59,11.2-23.1,23.93-28.24,40.38-1.64,4,0,8.59-2.67,12.34-1.13,1.58-1.87,3.78-4.19,3.69s-2.93-2.39-3.55-4.21c-2.34-6.9-4.54-13.84-7-20.71-7.9-22.32-19.44-42.75-32-62.64-1.77-2.8-3.68-5.52-4.13-8.92-14.25-19-31.39-35.12-50.18-49.6-14.25-11-27.83-22.81-39.8-36.25-21.29-23.9-22.26-50.89-10.21-79.08,3.5-8.19,8.83-15.61,13.47-23.3.95-1.57,1.94-3.56,5-3.4,3.37,9.44,5.18,19.44,7.4,29.35.65,2.92-.5,5.12-1.76,7.5-2.61,4.88-3.9,10.5-2.08,15.46,2.19,6-.22,9.38-4.3,12.69,2.42,2.6,3.68.06,5-.81,8.36-5.37,14.25-12.91,18.58-21.72,1.77-3.58,3.17-7.34,5-10.88,4.05-7.78,7-8,11.69-.71A22.23,22.23,0,0,1,238,738.15c-3,12.88,2.11,23.33,8.69,33.6,2.41,3.77,5.73,6.38,9.39,8.76,14.73,9.61,30.94,15.2,48.22,17.94a73.56,73.56,0,0,0,23.32.1c.32,0,1.59.23,1-.53s-1.7-.83-2.48-1.43L312.65,796C310.76,794.63,308.26,795.84,306.39,794.44Z"/><path class="cls-2" d="M524.45,1626.29c-.9-12-5.23-23.23-6.75-35.09-1.74-13.45-4.24-26.78-5.44-40.33-1.37-15.48-3.56-30.9-5.4-46.35-.91-7.57-1-15.17-2.08-22.79-2.25-15.72-2.84-31.68-4.45-47.5-1.64-16.15-3.71-32.24-5.55-48.36-.9-7.91-.83-15.86-1.88-23.82-1.38-10.46-1.69-21.17-2.19-31.76-2.89-60.89-3.17-121.85-1.78-182.76.41-17.47.54-35.14,3-52.65,1.42-10.12,1.21-20.5,2.36-30.76,1.84-16.46,3.19-33,5.48-49.38,2-14.43,3.1-29,4.67-43.5,1.76-16.13,3.78-32.24,5.36-48.39,1.23-12.54,2.78-25,4.47-37.51,2-14.45,4.47-28.79,7.13-43.11,6.28-33.87,13.26-67.63,18.67-101.63,4.21-26.48,8.16-53,12-79.54,2.77-19,4.11-38.21,6.41-57.28,2.32-19.4,5.67-38.7,7.36-58.14,1.27-14.55,3.16-29,4.92-43.48C575,467.78,577.3,433.3,576,398.77c-.65-16.6-.71-33.24-1.8-49.81q-3.17-48-10.16-95.69c-3.09-20.94-7-41.81-10.56-62.67-4.42-25.51.52-50,20.7-68.67,7.54-7,16.14-13.2,27.08-13.58,16-.56,28,7.39,37.1,19.78,10.78,14.67,15.1,31.73,16,49.57.91,18.6-.57,37.08-3.22,55.61-1.44,10.07-2,20.47-2.83,30.71-1.16,13.54-1.53,27.13-3.24,40.64-1.3,10.17-1.25,20.51-2.39,30.77-2.06,18.43-3.62,36.92-5.59,55.37-1.48,13.84-3.3,27.65-4.78,41.49-1.68,15.8-4.17,31.52-6.65,47.22-3.57,22.57-7.46,45.08-11.18,67.62-2.81,17-5.46,34-8.37,51-3.74,21.87-8,43.65-11.42,65.56C591,686.6,585.92,709.23,581.35,732c-7.5,37.35-15.21,74.63-21.27,112.26-3.37,20.93-6.14,41.93-9.28,62.89-2.1,14.08-3,28.34-4.42,42.52-1.88,18.46-4,36.9-5.58,55.39-1,10.9-1.35,21.87-2.06,32.79-3,45.86-2.49,91.83-2.42,137.77,0,13.33-.41,26.69.21,40,1,20.88,1.75,41.77,3.4,62.63,1,12.55,1.42,25.19,2.51,37.76,1,11.23,2.08,22.44,3.41,33.62,1.19,9.9.63,19.85,2.09,29.81s1.84,20.52,2.15,30.76c.72,24,4.62,47.5,8.95,71,4.21,22.8,8.8,45.53,13.39,68.26,1.45,7.14,3.27,14.21,5.22,21.23,1,3.55.77,6.45-1.89,9.16-15.39,15.74-27.88,33.8-41.21,51.2-1.18,1.55-2.41,3.22-4.75,3.94-2.78-2.2-2.08-6.81-5.43-8.72Z"/><path class="cls-4" d="M226.74,1003.92c-7-23.5-9.37-47.59-8.36-72,1.18-28.33,7.56-55.21,23.81-79.87,12.5,9.05,21.43,21.55,32.05,32.32,7.38,3.74,9.81,11.46,13.83,17.75,16.77,26.19,28.54,54.55,36.22,85.5-.78-4.48.93-7.74,2.3-11.06,1.52-3.65,2.39-7.67,5.64-10.37,11-25.54,30.42-43.35,53.23-58q29.43-18.87,59.1-37.36a372.92,372.92,0,0,0,44.21-32.55c5.5-4.7,10-10.54,15-15.86l1.93,1.22q-5.08,28.62-10.17,57.24c-8.06,44.89-17.45,89.54-24,134.69-6.28,43.18-12,86.42-13.47,130.1-.38,10.93-1.33,21.83-2,32.92a44.9,44.9,0,0,1-16.15-1.9,146.81,146.81,0,0,1-43.12-20.37c-14-9.64-28.3-18.78-42.37-28.28-13.64-9.19-28.67-15.58-44-21.13-15.62-5.67-31.63-10.26-47.47-15.33-2.22-.71-4.38-1.63-6.64-2.17-26.14-6.18-37.06-25.29-41.13-49.51a98.85,98.85,0,0,1,1.16-37.76c.43-1.95.67-4,2.77-5.38,2.9,3.27,3.13,7.86,5.45,11.39,4.78,4.62,5.41,11.66,9.66,16.16C230.11,1018.39,226.81,1011.73,226.74,1003.92Z"/><path class="cls-2" d="M839.41,1455.84c-1-8.59-2-16.42-2.95-24.24-2.51-19.7-5.43-39.37-7.42-59.13-.93-9.23-1.85-18.52-2.92-27.7-2.36-20.18,0-40.58-3.52-60.64a14.66,14.66,0,0,1-.1-2c-2.92-64.24-2.57-128.53-1.57-192.78.24-15.56.88-31.21,1.46-46.81.28-7.41-1.27-14.55-1.89-21.81-.78-9.07,1.92-17.8,1.9-26.82-.1-74.32-1.52-148.69.54-223,1.9-68.62.7-137.2,1.45-205.79.08-7.7,2.38-15.06,2-22.8-.93-21.59-1.31-43.24-2.65-64.75-1.19-19.32-1.54-38.58-1.17-57.83.48-25.33-2.11-50.51-2.1-75.79,0-12.64,2.76-25.11,1.81-37.81-3.22-42.88-.45-85.89-2.39-128.77-.79-17.28-1-34.55-1.53-51.82-.19-6.65-1.45-13.23-2.38-19.73a180.36,180.36,0,0,1,.65-55.57c1.7-10.17,4.9-20,13.54-27.08,3.6-2.93,6.5-6.7,10-9.78,9.22-8.14,20.2-7.33,28.12,2,7.58,9,11.27,19.64,11.88,31.13A247.9,247.9,0,0,1,875.31,109c-3.47,17.2-6.48,34.49-10.43,51.6-1.63,7.07-1.69,14.62-1.88,21.77-.41,14.64-3,29.14-2.54,43.76.8,26.66-.62,53.31-2.6,79.77a1184.73,1184.73,0,0,0-3,127.62c.87,25.94-.06,52,1.93,77.77,1.54,20,.49,39.91,1.88,59.77,3.63,51.59,2.18,103.23,1.23,154.8-.55,29.59.12,59.29-2,88.78-2.16,30-.34,59.91-1.68,89.82-4,89.91-1.08,179.85-1.54,269.78a443.26,443.26,0,0,0,3.39,57.62c.59,4.6.28,9.32.29,14,0,13,1.88,25.78,3.59,38.6,1.14,8.55,1.28,17.24,1.82,25.8.78,12.26,2.34,24.46,2.78,36.76.39,10.9,2.43,21.73,3.17,32.63.78,11.61,1.4,23.18,4.46,34.48a6.91,6.91,0,0,1-1.4,6.6c-10.27,11.32-19.29,23.74-30.49,34.21C841.88,1455.31,841.09,1455.32,839.41,1455.84Z"/><path class="cls-5" d="M110.54,436.18A137.43,137.43,0,0,0,90,409.47c-3.42-3.54-7.61-6.48-9.54-11.29,56.62,15.95,110.82,39.37,167.66,54.67A158.5,158.5,0,0,0,278,458.34c-1.94,6.29-5,11.8-6.35,17.89-4.18,18.19-1.58,34.83,9.51,50.24,16.24,22.56,36.62,38.46,64.9,42.37,9.33,1.3,14.78,8.47,21.25,14,4.27,3.64,9,7.66,11.18,12.57,2.29,5.21-2.74,10.4-4.17,15.72-4.12,15.42-8.79,30.7-10.14,46.72.24,20.69-4.1,41.13-3.15,61.91.34,7.52,3.79,14.87,1.33,22.53a6.94,6.94,0,0,1-3.45,3.45c-22.46,11.67-45.1,22.87-70.1,28.23a41.15,41.15,0,0,1-5.89,1.07c-8.12.5-16.59,3.54-23.78-3.13-8.86-8.23-15.48-17.59-14.36-30.43a51.41,51.41,0,0,0-4.49-25.27c-3.8-8.8-9.81-10.18-17.19-4.14-4.72,3.87-7.32,9.17-9.42,14.19-14.35-62.66-33.55-123.89-53.26-184.94a475.34,475.34,0,0,0-39.09-88.4C118,447.12,115,441.19,110.54,436.18Z"/><path class="cls-6" d="M158.28,842.12c5-3.46,6-9.21,8-14.31,3.29-8.65,6.44-17.32,11.44-25.53.81,5.82,1.29,11.55,2.57,17.17s1.75,11.73,5.17,16c5.31,6.71,3.37,11.52-1.15,17.28S178.16,866,175.91,873c-7.42,23-11.25,46.57-10.3,70.82.35,9,1.22,17.85,5.19,27.4-6.63-3-9-8.46-13.21-12,.45,7.89,4.4,14.57,11.49,20.12,11.09,8.68,24,12.67,37.61,14.86,1.3.21,2.62.32,3.91.54.3.05.55.37,1.12.79-4.29,18.84-5.26,37.88,1,58.2-22.11-10.87-43.29-7.36-64.81-2.08-18,4.41-30.53-.92-34.1-20.28-3.93-21.28-7.55-42.62-11.3-63.94C95.59,927.84,81,891.25,60.28,857c-4.14-6.84-7.84-14-12.15-20.68-9.52-14.85-18.83-29.89-33.42-42.7,26.59-3.07,34.21-23.32,42.95-43.19,4,3,4,8.27,6.68,11.86,7.58,8,8.36,19.11,12.8,28.54,1.64,3.49,1.81,7.67,4,9.76C76.35,787,69.38,773.24,66.68,757.92l-4-13c14.52,17.25,32.62,18.46,53.65,13-.63,19.89,2.52,39.08,3,58.5,2.37-19.71-.38-39.66,3.69-60,8.29,23.84,26.51,35.95,49.42,43.7-6.87,13.42-11.85,27.31-14,42.08Z"/><path class="cls-6" d="M406,538c-4.74,1-8.3,4.08-12.11,6.75-6.55,4.58-13,9.25-19.69,13.68s-13.87,6.56-21.8,5.58c-20.07-2.46-38-9.48-52.36-24.37a172.53,172.53,0,0,1-12.35-14.39c-15.3-19.84-14.12-40.68-3.92-62a35.06,35.06,0,0,1,5.8-8.07c4.83-5.33,10.78-6.21,17.27-3.41a29,29,0,0,1,6.06,3.45c15.92,12,32.72,21.66,54.79,19.59-8.63,6.59-21.25,8.27-32.82,5-10.94-3-20.53-8.66-30.5-17.61,9.13,17.29,30.53,26.73,51.46,24.26,21.31-2.52,35.33-15.6,46.13-31.94,1.44-.91,1.82-.65,2.11.25,7,21.68,20.78,37.43,41,48,15.82,8.28,29.73,19,38.55,35.22,2.92,5.35,5.12,10.75,5.42,16.93.44,9-2.45,15.89-10,21.5C465,587,449.42,592.76,431.84,592.65c-12.33-.07-24.65-.58-36.85,1.74-6.19,1.17-11-1.09-15.08-5.7-5.28-6-10.34-12.19-17.35-18.12,18.65-6.64,31.21-21.57,47.7-30.65,6.73-5.31,12.69-1,18.38,2a117.14,117.14,0,0,1,17,11.14C435,545.8,423.49,534.38,406,538Z"/><path class="cls-2" d="M455.11,1273.15c-12.48-15.32-28.24-25.35-44.38-34.47-40.53-22.9-79.77-47.8-118.51-73.6-32.07-21.37-65.07-41.35-97.83-61.67-5.33-3.31-8.8-6.8-8-13.45,1.17-9.7-2.07-19.14-1.92-28.78.11-6.61,2.4-8.45,8.68-6.15,5.9,2.17,11.83,4.59,16.3,9.38.91,1,2,1.79,2.81,2.84,14.22,18.4,34.42,26.56,55.83,32.58a492.75,492.75,0,0,1,62.08,21.47c9.81,4.23,18.73,10.07,27.64,15.89,11.14,7.27,22.25,14.59,33.12,22.25A139.89,139.89,0,0,0,450.23,1184c4.62.73,6.25,2.25,6.23,6.84-.14,26.65-.06,53.31-.1,80C456.36,1271.29,455.83,1271.82,455.11,1273.15Z"/><path class="cls-2" d="M238.42,1479.43c-2.1-1.14-1.86-2.94-1.87-4.53a231.17,231.17,0,0,0-3.88-37.5c-.91-5.16,1.77-9.81,1.64-14.77-.42-17,1.48-33.89,2.68-50.72,1.15-16.19-.13-32.55,3-48.62,1.1-5.59-1.18-11.26-1.19-16.77,0-26-4.69-51.49-6.16-77.28-1.4-24.53-3.16-49.09-2.34-73.72.26-7.87.52-15.81-2.39-25.81,12.75,8.07,23.62,14.89,34.41,21.83,2.2,1.42,2.23,4,2.13,6.33-.77,19.25,1,38.52-1.58,57.8-1.2,9.08-1.37,18.55.76,27.81.74,3.19.61,6.61.61,9.92.08,34.3-1.08,68.66.5,102.89,1.29,28.09,0,56.43,5.27,84.31.38,2,.36,4.1-1.12,5.67-9.79,10.4-17.47,22.64-28.1,32.29A6.49,6.49,0,0,1,238.42,1479.43Z"/><path class="cls-5" d="M366.25,664.19c3.85-18.24,7.76-36.47,13.94-54.11.88-2.51,1.66-5.06,2.65-7.53.62-1.54,1.55-3.08,3.5-3.06,14.28.09,28.43-3.15,42.79-1.55a10.28,10.28,0,0,1,7,3.2c14.37,16.19,22.45,34.42,18.28,56.61a20.68,20.68,0,0,1-3.89,9.07C426.79,697.4,399,723.37,364.78,742c-3.36-3.38-3.21-8-3.65-12.12-2.08-19.2-.44-38.35,2-57.41C363.5,669.72,364.22,666.57,366.25,664.19Z"/><path class="cls-5" d="M184.24,802,221.8,835.3c-4.56,8.86-11.27,14.43-24,13.48,8,7.79,13.72,14.49,18.17,22.17,2.64,4.54,3.56,8.85,2,14.19-9,31.39-8.92,63.1-2.6,95,1.56,7.92,1.52,7.91-6.46,7-5.65-.62-11.06-2.28-16.57-3.52-10.54-2.37-15.32-9.41-17.84-19.14-4.78-18.44-4.46-37-1.12-55.51,3.89-21.6,7.91-43.29,19.46-62.5,1.74-2.9-.16-4.35-1-6.22C185.63,826.81,183.82,818.36,184.24,802Z"/><path class="cls-7" d="M332.23,966.19c-2.61,8.56-5.2,17.13-7.86,25.68-.18.56-.84,1-1.84,2-2.84-24.91-12.64-47-23.54-68.6-7.19-14.28-16.26-27.44-24.75-40.94l2.54-2.7c11.65,13.41,19.56,29.17,27.47,44.83a234.7,234.7,0,0,1,18.88,50.76c4.36-4.39,3.36-11,7.21-15.14C330.73,963.59,330.66,965.27,332.23,966.19Z"/><path class="cls-8" d="M221.55,872c-3.21-6.91-7.5-12.26-13.1-18,8-3,13.64-7.69,16.47-15,3.8-.06,5.38,2.82,7.68,4.48,1.79,1.3,2.56,3.13,1.42,5.2C229.9,856.22,226.89,864.32,221.55,872Z"/><path class="cls-9" d="M366.25,664.19c-1,13.47-3.6,26.79-3.79,40.34-.17,12.56-.41,25.11,2.32,37.48l-2.45.25c-3-3.23-2.45-7.49-2.91-11.3-3-24.65-.87-49,4.73-73.14C365.14,659.85,363.91,662.61,366.25,664.19Z"/><path class="cls-10" d="M66.68,757.92c7.14,14.2,10.6,29.68,15.27,44.8a241.88,241.88,0,0,1-17.61-40.45C66.44,761.53,66.18,759.53,66.68,757.92Z"/><path class="cls-11" d="M406,538c7.54-4.24,14.8-2.3,21.79,1.31,9.19,4.74,17.3,11.11,26.75,18.07-5.45.54-8.34-2.06-11.36-3.94-4.79-3-9.4-6.31-14.11-9.45-5.74-3.82-11.9-5.74-18.84-4C409.26,538.36,407.51,538.45,406,538Z"/><path class="cls-12" d="M226.74,1003.92q5.35,12.48,10.73,24.94a39.09,39.09,0,0,1-13-20.68C226.62,1007.48,226,1005.37,226.74,1003.92Z"/><path class="cls-13" d="M326.16,796.59c3.64-1,7.19-.12,11.19.23-6.16,4.3-22.61,5-33.06,1.63C311.53,797.21,319.14,800.36,326.16,796.59Z"/><path class="cls-14" d="M203.66,733.33c2.37,5.57,5,8.88.07,12.12C202.21,740.33,202.15,740.33,203.66,733.33Z"/><path class="cls-13" d="M306.39,794.44a7,7,0,0,1,6.26,1.52A5.41,5.41,0,0,1,306.39,794.44Z"/><path class="cls-1" d="M158.28,842.12c0,.91,0,1.83-.08,2.74a10.78,10.78,0,0,1-.47,1.7c-.3-.48-.82-.94-.84-1.43,0-1.2,0-2.5,1.55-2.88Z"/><path class="cls-15" d="M279.08,490.22c.7-6.28,1.51-12.9,6.07-18.24,3.5-4.09,8.49-5.33,12.45-3.07,4.33,2.46,5.58,6.47,4.57,11.09-1.47,6.8-3.06,13.59-4.91,20.3-1.62,5.86-5.23,7.28-10.45,4.44C281.21,501.7,279.49,496.5,279.08,490.22Z"/></g></g></g></svg>