<svg xmlns="http://www.w3.org/2000/svg" viewBox="0 0 888.53 1642.04"><defs><style>.cls-1{fill:#432f1a;}.cls-2{fill:#040302;}.cls-3{fill:#f0e19a;}.cls-4{fill:#fff;}.cls-5{fill:#ff9322;}.cls-6{fill:#1e1d13;}.cls-7{fill:#f68d20;}.cls-8{fill:#303031;}.cls-9{fill:#4c2907;}.cls-10{fill:#3e2c13;}.cls-11{fill:#4d4a32;}.cls-12{fill:#494630;}.cls-13{fill:#b3b3b3;}.cls-14{fill:#0a0a0a;}.cls-15{fill:#050505;}.cls-16{fill:#070707;}.cls-17{fill:#2b2b2b;}.cls-18{fill:#fffdfb;}</style></defs><title>duck_menu_lines</title><g id="Layer_2" data-name="Layer 2"><g id="Layer_1-2" data-name="Layer 1"><path class="cls-1" d="M671.72,181.53c5-4,10.62-6.82,16.37-9.44,16.69-6.79,31.13-17.61,46.83-26.2,22.48-12.3,44.68-25.13,67.79-36.25,8-3.85,11.25-2.25,11.84,6.49.73,10.94,2.11,21.8,2.44,32.8,2.24,72.92.89,145.87,2.36,218.77.69,33.94-.46,68,2,101.78,1.44,20.23-.55,40.62,3.23,60.69a22,22,0,0,1-.09,9c-6.22,27-3.6,54.19-1.86,81.38,1,15.29-.64,30.54-1.42,45.82-1.31,25.87,1.07,51.79-.14,77.71-3.81,81.5-1.36,163.06-2,244.59-.06,7.39-1.67,14.56-2.39,21.84-.46,4.69-3.46,7.75-6.77,10.67-9.53,8.43-20.37,15-31.07,21.71-52.39,33-102.73,69.07-153.84,104-23.88,16.31-47.57,33-72.46,47.89-9.85,5.88-13.34,4.32-13.16-7.22.6-39.61-1-79.21,1.3-118.87,1.59-27.53,2.68-55.14,4.86-82.61C548.1,954,552,922,556.1,890c9.45-74.27,27.23-147,40.51-220.55C609,600.83,620.61,532,630.7,463c5.37-36.77,9.49-73.75,12.92-110.8,4.43-48,8.12-95.94,11.81-143.94C656.28,196.05,660.11,186.67,671.72,181.53Z"/><path class="cls-2" d="M671.72,181.53c2.5,4.23-1.82,4.27-3.57,5-5.92,2.39-8,6-8.51,12.75-1.87,22.8-3.63,45.62-5.89,68.37-2.07,20.79-2.45,41.7-5.35,62.44-2.33,16.73-2.39,33.77-4.58,50.52-1.85,14.12-3,28.32-5.34,42.4-2.77,16.32-3.94,32.9-6.52,49.25-3.6,22.9-6.7,45.87-11.07,68.66-4.19,21.78-7.33,43.76-10.81,65.68q-7.59,47.6-16.82,94.9c-8.43,43.58-18.3,86.86-25.57,130.68C563.57,857,560.35,882,556.5,906.86c-2.27,14.72-2.46,29.76-4.62,44.5-2.7,18.41-2.92,37-5.41,55.42-1.42,10.51-1.3,21.22-1.92,31.8-3,51.87-2.85,103.83-2.38,155.78a5.5,5.5,0,0,0,.74,1.77c2.62.72,4.31-1.1,6.21-2.35q67.2-43.9,133-89.94c34.82-24.49,70.2-48.12,106.52-70.33,2.83-1.73,5.61-3.59,8.27-5.58,18.27-13.73,19-14.85,19-37.79.18-55,.17-110,.32-165,0-10.22.61-20.41.12-30.67-1-21.62,1.58-43.19,2.28-64.79.55-17.28-1.11-34.41-.76-51.64.33-16.3,3.54-32.49,2-48.8-2.35-24.57-1.54-49.2-1.71-73.81,0-4.55-.1-8.76,2.76-13.22s1.55-10.39.32-15.58a51.33,51.33,0,0,1-1.14-9.88c-1.88-42.58-.68-85.25-2.51-127.78-2.64-61.62.28-123.23-1.92-184.79-.82-22.94-1.06-45.87-1.86-68.8-.24-6.91-1.83-13.78-1.91-20.8-.07-5.66-1.78-6.58-6.78-4.23-6.93,3.25-13.81,6.65-20.52,10.32-29.8,16.3-59.66,32.3-88.72,49.89-2.17,1.31-4.5,4.74-7.8,1.53C720.88,151,755,132.17,789.45,114c5-2.64,9.93-5.51,15.13-7.68,4.55-1.89,5.68-4.74,4.86-9.32a140,140,0,0,1,.79-51.7c4.22-21.65,17.36-36.39,37.85-44,9.89-3.68,18.24,1.18,25.31,7.89,5.72,5.41,8.69,12.46,10.75,20,6.23,22.72,5.28,45.53.64,68.27-2.39,11.73-5.64,23.31-8.92,34.83-5.08,17.81-5.54,36.16-6.79,54.42-.52,7.64-1,15.31-.93,23A745.79,745.79,0,0,1,864,294.47c-3.31,30.49-2.51,61.24-3.47,91.88-.5,16-.46,32-.44,48,0,22.32,3.22,44.5,3.23,66.85,0,12,1.11,24,1.21,36,.42,51.65,3.56,103.27,2.25,154.94-1.08,43-2.48,85.94-3.71,128.91q-.44,15.48-.7,31c-.76,48-2.15,96-2.06,144,.13,71.31-.75,142.64,2.47,213.92,2.49,54.94,8,109.64,12.52,164.42,1.14,13.94,1.16,28,3.1,41.85a9.75,9.75,0,0,1-2.37,8.31c-11.9,13.44-23.67,27-36,41.13-4.22-3.33-7.83-6.06-11.3-9-17.66-14.72-37.51-26.62-54.48-42.23-1.88-1.73-4.83-2.67-4.54-6-1.31-4.66.84-5.62,4.59-3.87,4.86,2.28,8.78,6,12.86,9.41,12.72,10.69,25.8,20.88,40.81,29.91-3.23-40-10.48-79.4-12.31-119.24S810.21,1245,811,1205c.74-40.18.18-80.39-1-121.29-12.09,8-24,15.51-34.34,25.08-2.24,2.06-2.88,5.2-3.59,8.13a38.48,38.48,0,0,0-1,9.92c1.36,70.91-3.33,141.77-1.94,212.67.32,16,1.86,31.86,3.1,47.78.36,4.6,2.43,10.06-4,12.67-2.58-11.06-3.32-22.36-4-33.62-3.63-60.16-2.38-120.39-2.24-180.6,0-20.63.76-41.25,1.14-61.87.06-3.21,0-6.42,0-9.43-3.57-1.06-5.06,1.24-6.63,2.61-27.86,24.38-59.73,43.36-88.82,66.09-27.78,21.7-56.06,42.75-84.12,64.09-5,3.81-9.63,8.17-15.4,10.91-4.61-3.72-.37-5.81,1.82-7.48,7.69-5.84,14.89-12.29,22.56-18.15C638,1197.76,683.44,1163,729.39,1128.8c24.53-18.25,49.53-35.93,73.61-54.83,7.62-6,11.38-12,10.72-21.74-.52-7.66-1.49-15.18-2.6-22.57-1.53-1.24-2.61-.29-3.67.41-63.6,42-126.62,84.85-189.76,127.54-21.21,14.33-42,29.51-64.61,41.62-5.84,3.12-8.78,7.79-8.6,14.54.38,15.29,3.18,30.48,2,45.8-.37,4.83,4.58,6.19,5.41,10-4.84,3.07-6.83,6.92-6.25,13.15,2.81,29.83,4.92,59.73,7.51,89.59,2.11,24.21,3,48.53,6.08,72.66,3.16,24.8,9,49.11,13.6,73.65,3.06,16.35,6.2,32.7,9.83,48.94,1,4.41.35,7.79-2.15,11.15-1.78,2.41-3.53,4.86-5.48,7.13-14.58,16.9-28.64,34.23-41.64,52.38-3.16,4.41-5.65,4.82-10.47,2.16-16.24-9-32.81-17.39-49.26-26-1.19-5.47-.54-10.86-.47-15.67,1.91-.89,2.82-.8,2.92-.14,1.77,11.5,10.67,15.54,19.87,19.61a203.51,203.51,0,0,1,21.3,10.79c3.25,1.93,6.48,3.37,10.26,1.55,4.38-1.6,6.71-5.36,9.36-8.77,10.23-13.15,20.37-26.39,31.35-38.92,4.92-5.6,6.11-11,4.52-18.22-9.71-44.26-19.76-88.5-24.45-133.64-3.23-31.12-4.05-62.45-7.3-93.58-3.66-35.11-4.87-70.38-7.57-105.55-.33-4.33-.37-8.66-.37-13,0-32.66-.14-65.32,0-98,.52-105.21,11.13-209.47,29.77-312.94,11.57-64.28,26.71-127.87,36.89-192.43,11-69.77,24.23-139.2,32.2-209.44,4.62-40.69,8.7-81.43,11.42-122.32,1.56-23.56,3.91-47.1,6.57-70.61s2.54-47.27-7-69.85c-1.95-4.63-4.06-9.19-7.22-13.09-14.6-18-36.22-28-59.22-6.31C555.58,143.61,551.7,168,556.9,194.58a1173.85,1173.85,0,0,1,19.51,147.53c4,60.14,2.87,120.31-5.15,180.4C560.59,602.42,553,682.75,538.91,762.18c-9.5,53.47-21.37,106.55-26.69,160.7-5.53,56.34-13.11,112.46-17.66,168.93-5.09,63.22-4.28,126.52-3.15,189.76,1,55.9,6.53,111.61,12.85,167.22,5,44.33,8.19,88.87,14.6,133.06,1.53,10.57,3.74,21,6,31.41.89,4.16,2.53,8.47-1,12.34-6.47-1.16-6.51-7-7.68-11.44-7-26.16-10-53-13.17-79.82-6.14-51.61-11.66-103.28-16.92-155-2.62-25.83-5.26-51.76-4.93-77.7.47-36.68-2.86-73.23-2.28-109.89,1-63.31,4.8-126.42,12.82-189.27,6-47.25,9-94.88,17.09-141.88,6.5-37.73,13.36-75.4,21.47-112.83a42,42,0,0,1,2.48-8.14c-4.6,22.44-12.84,44-16.27,66.69-9.59,64.65-23.59,128.45-34.38,192.87A1359.61,1359.61,0,0,0,464.69,1157c-2.61,53.66-2.16,107.3-1.07,160.88.9,44.58.79,89.25,3.67,133.78,2.67,41.18,5.6,82.36,9.15,123.49.59,6.89,4.2,15.19-4.15,20.62-3-25.13-4.27-50.42-6.52-75.62-7-78.08-7.1-156.42-9.28-234.68a15.38,15.38,0,0,0-4.39-10.56c-11.72-13.13-26.29-22.44-41.21-31.31-28-16.68-56.73-32.31-84-50.26-16.42-10.79-32.73-21.77-49.16-32.54-2.69-1.76-5.15-4.14-9.6-4.82-.12,2.67-.34,5.16-.32,7.65.33,36.32-.75,72.65,1.28,109,.44,8,.23,16,.17,24-.35,45.65.31,91.3,5,136.74,1,9.68-1,16.54-7.28,23.35-8.12,8.81-15.41,18.39-24.28,26.53-5.74,5.26-5.7,5.3-12.91,1-.13-14.68-2.5-29.14-4.17-43.68-2.17-19,.65-37.93,2.19-56.82,3.51-43.22,5.57-86.4,0-129.61-3.57-27.52-2.68-55.21-2.69-82.85,0-9.67-.67-19.28-1.31-28.92-.64-9.84-4.89-16.17-13.26-20.53-3.25-1.69-6.28-3.84-9.6-5.35s-6.81-6.55-10.47-3.59c-3,2.4-1.16,7.57-.93,11.52q3.12,52.82,6.23,105.64c1.93,32.76.22,65.26-.89,97.8-1.24,36.24-3.42,72.49-8.14,108.5-.87,6.65-2,13.12.92,19.64,1.22,2.75.9,5.48-3.48,3.91-4.5-.9-6.9-3.34-6.3-8.22.32-2.62.34-5.27.5-7.91,1.85-3.2-.2-7,1.5-10.2,1.92-31.56,3.66-63.13,5.81-94.67,4-58,2.72-115.84-.94-173.74-1.26-19.94-1.27-40-3-59.86-1.36-15.23-1.49-30.53-3-45.74-.49-4.86-2.22-6.3-6.78-5.83a129.42,129.42,0,0,0-20.58,3.79,50.47,50.47,0,0,1-18.76,1.23c-11.74-1.24-18.7-7.84-22.83-18.17-3.12-7.77-4.3-16-5.55-24.27-3.54-23.37-7.49-46.66-12.85-69.7a272,272,0,0,0-23.22-62.54C54.82,858.26,40.88,832.87,23,810,17.18,802.59,11,795.59,1.83,792.21c-1.27-.46-2.25-1.38-1.64-4.34a78.32,78.32,0,0,0,18.69-1.78,28.84,28.84,0,0,0,16.82-10C47,762.35,54.2,747,54.25,728.74c0-4.2-.28-8.57,2.25-12.85,4.61,3.92,5.76,9.21,7.62,14.09,7.5,19.75,21.76,26.37,40.67,24.68,7-.63,12.93-2.86,15.89-10.07.84-2,2.62-3.71,4.16-5.8,4,4.22,3.88,9.43,4.51,14.08,1.41,10.53,6.49,18.53,14.34,25.43,8.36,7.35,17.09,13.78,28.09,16.53,1.62.41,3.17,1,4.81.21a2.07,2.07,0,0,0-.13-2.61c-18.42-29-18.06-58.15-.91-87.57,5-8.62,9.51-17.55,14.25-26.33a20.45,20.45,0,0,0,1.46-16.39c-10.64-35-20.84-70.14-31.82-105-11.74-37.24-26.56-73.17-45.7-107.3-3.73-6.66-8-13-12-19.54-.66-2,.51-2.85,2.2-3.31,8.06,2.78,10.87,10.37,14.74,16.73,17.58,28.81,30.93,59.69,42.08,91.42C179,587,192.55,640.2,208.41,692.74a109.35,109.35,0,0,1,4.89,28.32c1.29-1.58,1.45-4,3-5.7,4.29-4.77,8.65-9.72,15.78-9,7.71.77,9.51,7.32,11.72,13.31a50.19,50.19,0,0,1,2.92,18.62c-.08,4.32,0,8.64,1.33,12.84,5.79,18,17.51,24.88,36.05,20.87A227.42,227.42,0,0,0,334,754.89c8.71-4.15,17.13-8.89,26-12.71a17.48,17.48,0,0,0,5.12-2.92c28.2-17.92,54.18-38.31,75.38-64.54,16.74-20.7,14.62-52.94-5.52-70.79a14.43,14.43,0,0,0-10.08-3.49c-10.63-.05-21.21-.09-31.81,1.64-6.15,1-9.52,3.79-11.27,9.49-3.31,10.81-6.6,21.61-9.09,32.65-.87,3.82-1,8.07-5.36,10.09-3.9-1.35-3.59-4.81-4-7.91,1.13-13.7,5-26.81,9.45-39.67,2.32-6.71,2.09-11.57-3-17.06-9-9.8-18.73-17.09-32.28-20.09-29.81-6.6-50.94-25.28-64.83-51.87-8.27-15.86-7.28-32.9-1.56-49.5,2-5.65.66-7.57-5-8.73-46.47-9.48-90.45-27-135-42.5-12-4.16-24.15-7.43-36.08-11.59C91.46,404.11,87,404,85.5,399.3c.89-2.95,3-2.5,5.16-1.83,14.67,1.75,28.37,7.07,42.18,11.83,39.65,13.67,79,28.34,119.51,39.28,6.11,1.64,12.21,3.38,18.59,3.62s12,0,17.49-4.76c6.62-5.76,14.95-5.11,22.6-1.27,4.13,2.07,7.86,5,11.69,7.62,11.69,8,24.28,13.56,38.48,15.71,21.58,3.25,32.36-9.2,38.11-27,.9-2.82,1-5.89,1.54-8.84,3.81-22.15,13.92-41.45,26.42-59.82,18.56-27.29,31.54-57,37.89-89.53,4.33-22.22,3.19-44.43.67-66.7-.61-5.38-4.91-10.09-3.24-16.27,3.88,1.92,4.41,5.49,5.5,8.46,9.06,24.61,23,46.66,37.75,67.94,14.29,20.67,33.52,37,55.58,49.49a4.87,4.87,0,0,0,4.45.66c-1-16.32-2.52-32.78-4.76-49.18-4-29.7-8.79-59.28-13.78-88.85-4.34-25.67.21-50.38,19.74-69.35,27.23-26.45,55.7-23.84,77.64,6.89,11,15.35,13.92,33.65,15.2,52.14.13,1.93-.39,4,.82,5.91C665,185.86,667.77,182,671.72,181.53Z"/><path class="cls-1" d="M526,1631.78c-.21,4.42-2.5,3.8-5.32,2.25q-9.59-5.28-19.26-10.43c-4.71-2.48-9.49-4.82-14.27-7.14-10.73-5.2-10.74-5.18-12.19-18.43l-1.25,16.2c-2.65-6-.93-12.29-1.44-18.43,3.41-7.68,1.54-15.58.92-23.41-.19-2.3-1-4.57-1-6.86-.18-22.27-3.13-44.36-4.52-66.54-1.6-25.52-2.48-51.07-4.07-76.56-1.78-28.64,0-57.28-1.81-85.81-3.42-53.93-1.82-107.88-1.13-161.79.32-24.76,2.19-49.66,4.9-74.44,2.08-19.1,4.27-38.21,6.72-57.25,2.84-22,6.45-43.92,10.33-65.76,5.63-31.63,11.87-63.15,17.73-94.73,4-21.48,8.73-42.88,11.41-64.53,3.42-27.56,12.33-53.55,20.07-79.92a23.63,23.63,0,0,1,1.65-3.3c1.45,7.22-1,13.29-2,19.24-6.66,38.16-14.39,76.14-20.9,114.32-3.06,17.93-4.53,36.16-6.8,54.23-2.69,21.38-3.93,42.89-7.24,64.2-2.28,14.72-2.43,29.77-4.68,44.5-2.61,17.08-3.9,34.29-5.24,51.42-1.51,19.51-2.14,39.17-3,58.76-1.16,27.62-2.37,55.26-1.07,82.81,1.43,30.29.09,60.61,2,90.8,1.39,22.13,2.42,44.34,5,66.45,1.82,15.43,3.55,30.95,4.72,46.5s3.73,30.89,5.47,46.35c1.6,14.16,2.63,28.39,4.43,42.52,2.9,22.65,5,45.4,9.15,67.89,2.3,12.4,4.06,24.86,8.47,36.75.57,1.55.74,3.26,2.34,4.22.27.24.55.47.83.7a8.27,8.27,0,0,1,1.18,4.14Z"/><path class="cls-1" d="M768.24,1399.81c3.08-3.49,2.25-7.82,1.29-11.42-1.67-6.27-1-12.56-1.57-18.82-3.46-38.54-2.7-77.21-1.38-115.73,1.49-43.61.93-87.19,1.61-130.78.15-9.92,3-17.67,12.34-23.14a167.67,167.67,0,0,0,26.29-19.69c1.71-1.53,3.46-3.14,6.17-2.85,2.11,1.82,1.09,4.29,1.09,6.43.08,54.31-.63,108.64.54,162.92.35,16.11-.19,32.56,3.13,48.62.6,2.89.27,6,.29,9,.08,22.94,2.64,45.64,5.53,68.37,2.25,17.74,4,35.55,6.58,53.25,1.15,7.89,2.52,15.71,1.73,24.31-4-.42-6.53-2.91-9.29-5-16.54-12.25-32.74-25-48.42-38.3-2.66-2.27-3.77-1.91-4.48,1.28C767.33,1405.78,768,1402.76,768.24,1399.81Z"/><path class="cls-1" d="M552,1269.43c-7.56-1.51-8.06-1.54-7.73-9,.72-16-1.75-31.84-2.23-47.78-.2-6.86,2.16-11.34,7.93-14.71,46.22-27,89.85-58.08,133.9-88.39,19.71-13.56,40.18-26,59.52-40,22.53-16.37,47.62-28.84,69.9-47.19a227.07,227.07,0,0,1,2.7,40.27c-.11,3.85-2.2,5.7-4.9,8-16.79,14.16-35,26.44-52.92,39-10.66,7.44-19.69,16.77-30.47,24.07-27.77,18.81-54,39.7-80.79,59.91-23.82,18-47.07,36.74-70.59,55.14-2.35,1.84-4.87,3.45-7.19,5.33-1.21,1-2.81,2.16-.91,4A67.25,67.25,0,0,1,552,1269.43Z"/><path class="cls-1" d="M184.1,1459.88c.93-.58,3.45-1.25,2.17-2.08-6.19-4.06-4.74-10-3.8-15.27,2.12-11.79,2.84-23.66,3.95-35.54,2-20.84,3.13-41.68,4.24-62.56.62-11.6,1.56-23.23,1.32-34.82-.2-9.39,1.86-18.48,2.07-27.81.63-28-2-55.84-2.49-83.78-.37-21.17-2.92-42.35-4-63.58-.47-9.55-1.6-19.06-1.28-29.79,12.9,7,24.91,13.86,36.45,21.54,2.52,1.68,3.22,4,3.36,6.8.64,13.25,2.42,26.43,2,39.78-.46,14.65,0,29.32,0,44,0,14,2,27.75,3.58,41.58,1.13,9.89,2.1,19.83,2.31,29.76.36,17,1,34.06-.21,51-1.1,15.19-1.69,30.43-3.09,45.63-1.63,17.82-4,35.76-2.44,53.74a340.28,340.28,0,0,0,4.75,36.4c.92,4.62-.75,6.75-3.23,9.39A512.12,512.12,0,0,1,184.1,1459.88Z"/><path class="cls-1" d="M179.8,1433.55c.61,3.56,1.21,7.13-1.5,10.2A15.35,15.35,0,0,1,179.8,1433.55Z"/><path class="cls-3" d="M246.37,849.29c-5.88-7.4-14.09-12-21.18-18-13.76-11.57-27.12-23.5-39.72-36.39-20.17-20.63-20.69-59.24-7.9-81.27,4.17-7.2,8.53-14.28,12.9-21.36.66-1.07,1.85-1.82,3.45-3.34,4.57,10.84,6.34,21.78,8.35,32.65.38,2.1-1.3,3.69-2.15,5.46-2.08,4.33-2.45,8.89-2.36,13.62.06,3,2.82,5.83,1.33,8.62-1.37,2.55-3.9,4.48-5.57,7.11,8.37-2.87,14.3-8.81,19.29-15.89,4.24-6,6.68-13,10.07-19.48,3.78-7.25,6.49-7.31,11.17-.51a22.78,22.78,0,0,1,3.83,13.19c0,3-.15,6-.45,9-1.76,17.11,6.34,29.42,19.72,38.5,14,9.48,29.81,14.53,46.46,17,2,1.07,4.48.17,6.5,1.32h11.76a6.67,6.67,0,0,1,5-1.68A82,82,0,0,1,316,796.05c-20.23-3.16-36.86-9.29-46.62-17.55,35.46.11,65.42-15.08,95-30.71a260.6,260.6,0,0,0,78-63.19c10.08-12,21-23.27,28.9-37,2.3-4,5.15-7.79,4.24-13.43-7.43,3.21-8.35,11.29-14.27,16.38-1.24-20-7.47-37.65-21.38-52,3.07-2,6.13-2.07,9-2.75,11.12-2.63,21.51-6.76,30.82-13.63,14.87-10.83,19.24-25.2,11.24-41.81-6.11-12.69-14.2-24.17-26.26-32.14-7.23-4.77-14.53-9.44-22-13.85-8.72-5.15-16.43-11.34-22.32-19.66-13-18.39-16.8-38-8.59-59.55,5.14-13.49,12.24-25.84,20.19-37.79,19.82-29.78,33.52-62,39.16-97.49,2.42-15.19,3.55-30.45,1-46.13,3.59.82,3.76,3.78,4.89,5.83,6.73,12.26,12.58,25.08,20.18,36.77,15.3,23.52,34.91,42.94,60.17,55.71,7.3,3.69,9.72,8.31,10.15,16.09,3.16,57.68,3,115.18-5,172.59-6.84,49.16-12.32,98.5-18.44,147.76-1.9,15.28-6.93,29.81-11.13,44.52-8.31,29.12-18.31,57.79-23.36,87.78a24.21,24.21,0,0,1-4.59,9.88,122.65,122.65,0,0,1-23.07,24.81c-20.55,16.53-42.65,30.8-64.92,44.87-20.55,13-41.42,25.58-59.62,41.9-13.87,12.44-24.72,27-29.52,45.36a3,3,0,0,0-.5.85c-.68,3.39.73,8.65-3.85,9.13s-4.68-4.84-5.63-8.15c-9.52-33-25.5-62.69-46-90.11-5.6-7.51-12.78-13.53-19.21-20.26C250.06,856.2,246.93,853.6,246.37,849.29Z"/><path class="cls-1" d="M524.1,1625.86c-1.19-12.24-5.36-23.9-7-36-1.7-12.46-3.49-24.91-5-37.39-2-16.43-4.37-32.85-5.55-49.35s-3.67-33-4.67-49.55c-1-15.85-3.42-31.6-5.33-47.38-.88-7.24-1.37-14.59-1.84-21.79-.74-11.26-1.58-22.62-3-33.71-2.64-20.87.29-41.93-3.37-62.66a33.42,33.42,0,0,1-.12-6c0-41.33-.39-82.66,0-124,.23-21.56,2.2-43.09,3.36-64.63,1-18.58,3.48-37,4.73-55.54.95-14.18,3.77-28.22,5.28-42.38.77-7.25,1.68-14.51,2.3-21.76,2.66-31,6.29-62,10.54-92.85,3.8-27.54,9.45-54.81,14.8-82.12,5-25.34,9.4-50.79,13-76.39,2.8-19.66,6.11-39.27,9.08-58.9,2.13-14,4.11-28.18,4.91-42.46.73-13.21,3-26.32,4.47-39.51,1.64-15.13,3.91-30.2,5.47-45.37,1.35-13.17,3.46-26.26,5.2-39.4,1.09-8.22,2-16.57,2.29-24.74.81-24.26,4.16-48.53,2-72.78-1.74-19.95.09-40.06-2.26-59.77-2.46-20.71-3.94-41.53-6.76-62.22-2.87-21-6.34-41.93-8.83-63-.81-6.88-2.81-13.63-4.16-20.46-3.78-19.16-2.6-37.94,7.06-55.14,7.81-13.88,18.86-24.76,34.75-29.64a24.46,24.46,0,0,1,14.69-.08c14,4.22,24.92,12.27,31.94,25.32a100.87,100.87,0,0,1,11.8,43.91,262.22,262.22,0,0,1-3.26,54.62c-1.52,9-1.73,18.48-2.55,27.73-1.36,15.53-2.19,31.09-3.55,46.62-.9,10.23-1.71,20.5-2.52,30.76-1.36,17.18-3.26,34.3-5.29,51.41q-2.26,19.26-4.57,38.5c-2.56,21.39-5.76,42.67-9.1,63.94q-5.46,34.84-11.15,69.64c-2,12.1-4.1,24.17-6.21,36.24-3.83,21.86-8.06,43.65-11.44,65.57-3.49,22.62-8.44,44.94-13,67.34-7.69,38-15.64,75.9-21.64,114.22-3.69,23.57-6.75,47.2-9.92,70.84-3,22-4.91,44.14-7.14,66.2-1.23,12.15-1.58,24.6-3,36.71-2.08,18.22.1,36.59-3.26,54.67a43.63,43.63,0,0,0-.22,8c0,46.33-.76,92.67.28,139,.44,19.16.85,38.46,3.19,57.64,1.4,11.49.76,23.19,2.24,34.79,1.59,12.47,2.56,25.06,3.54,37.6.94,11.9,2.35,23.81,2.54,35.76.22,13.31,1.67,26.55,2.63,39.76a380,380,0,0,0,7.32,51.12c5.15,24.3,9.39,48.8,14.21,73.17,1.35,6.82,3.18,13.57,5.18,20.24,1.21,4,.27,6.91-2.5,9.93-14.16,15.44-26.84,32.08-39.33,48.87-1,1.33-2.26,2.46-3.22,3.8-2.8,3.89-4.29.22-6.22-1l.08.12c-1.82-1.66-.14-4.51-2.08-6.13Z"/><path class="cls-3" d="M226.29,1003.57a222.46,222.46,0,0,1-8.41-65c.39-28.75,5.83-56.16,20.47-81.27,1.24-2.15,1.55-5.35,5.17-5.16,10.12,4.48,16.69,13.2,23.4,21.17,27.74,33,46.07,70.9,56.63,112.44.69-5.19,1.81-10.3,6.17-14,10.29-28.3,30.7-47.85,55.34-63.65,14.85-9.52,29.88-18.78,44.8-28.2,26.46-16.7,52.73-33.65,75.77-58.58-3,17.43-5.55,32.62-8.3,47.78-9,49.46-19.29,98.68-26.54,148.44-6.25,42.84-11.81,85.78-13.16,129.14-.33,10.59-1.29,21.17-2,32.21a53.78,53.78,0,0,1-16-2.21,144.75,144.75,0,0,1-42.32-19.79c-12.61-8.7-25.54-16.92-38.19-25.56-18-12.33-37.78-20.94-58.49-27.58-15.84-5.07-31.48-10.85-47.48-15.36-19.73-5.56-30.52-18.86-35.93-37.79-4.9-17.1-4.44-34.19-.6-51.35.2-.89,1-1.63,2-3.12,2,4.21,3.67,8,5.4,11.69,5,4.46,5.31,11.58,9.25,16.1C229.72,1017.89,226.65,1011.21,226.29,1003.57Z"/><path class="cls-1" d="M838.42,1455.65c-.12-13.52-2.61-27.14-4.36-40.84-2.52-19.71-5.32-39.4-7.48-59.15a317.92,317.92,0,0,1-2-32.78c-.15-22.65-1.79-45.23-3-67.78-2.82-54.29-1.16-108.56-1.06-162.83,0-15.21,1.47-30.52,1.4-45.81,0-7.3.07-14.55-1.34-21.87a47.22,47.22,0,0,1,.17-16.89,84.2,84.2,0,0,0,1.2-14.87c.08-73.67-1.43-147.37.63-221,1.94-69.3.67-138.55,1.49-207.82.09-7.69,2.82-15.07,1.94-22.81-2.37-20.87-.57-42-2.39-62.76-2.54-29-1.15-57.9-1.4-86.84-.13-15.65-3-31.1-2.14-46.8.71-12.6,2.8-25.12,1.88-37.81-3.11-43.23-.51-86.57-2.38-129.79-.77-17.61-.89-35.22-1.62-52.82-.28-6.61-1.48-13.19-2.33-19.75-2.7-20.64-2.34-41,2.37-61.34,3.61-15.6,15.1-24.71,26.72-33.51,5.93-4.49,13.28-2.62,19.06,2.55C874.6,22,879.19,34.4,880,48.59c1.64,27.5-3.49,54.26-8.9,80.92a495.19,495.19,0,0,0-9.56,71.85c-1.17,21.29-.56,42.58-1.84,63.8-1.54,25.53-2,51.15-4.11,76.6-2.79,33-2,65.95-.9,98.81.75,23.28-.38,46.65,1.61,69.8,1.78,20.62.71,41.24,2.06,61.77,3.52,53.6,2.21,107.25,1,160.81-.57,25.27.27,50.63-1.64,75.81-2.47,32.61-.59,65.25-2,97.82-3.84,92.26-1.21,184.55-1.19,276.82,0,15.72,0,31.87,3,47.65,1,5.49.43,11.3.42,17,0,12,1.9,23.78,3.52,35.61,1.22,8.87,1.37,17.9,1.92,26.8.76,12.26,1.71,24.56,2.88,36.74,2.08,21.75,2.35,43.73,7,65.2.66,3.07,1,5.83-1.27,8.44-10,11.58-19.29,23.76-30.42,34.33A2.44,2.44,0,0,1,838.42,1455.65Z"/><path class="cls-4" d="M104.06,427.83c-3.28-6.84-8.46-12.2-13.66-17.54-2.49-2.57-5.37-4.9-7.28-7.85-2.9-4.47,2-1.88,3-2.84,54.15,16.4,106.54,38.13,161.18,53.06,9.63,2.63,19.26,5.3,29.81,5.16.48,3-1.31,5.1-2.2,7.35-9,22.78-7.48,44,7.89,64,15.85,20.65,35.14,35.53,61.45,39.21,9.12,1.27,14.66,7.44,20.92,12.64,4.82,4,9.92,8.52,12.73,13.93,2.9,5.58-2.79,11-4.13,16.6-2.7,11.31-6.7,22.3-7.87,34-.77,25.28-6.46,50.18-5.29,75.66.35,7.45,4.43,14.8,1,22.39-23,12.88-46.58,24.31-72.54,30-2.59.58-5.2,1.67-7.79,1.62-7.7-.16-15.86,3.16-22.75-3.59-8.37-8.21-15.1-17.14-14.15-29.54a54.21,54.21,0,0,0-4.5-26.21c-3.87-8.85-9.8-10.12-17.26-3.78-4.38,3.73-7.35,8.44-10.43,14-.71-4.63-1.39-9.26-2.12-13.89a226.76,226.76,0,0,0-8.46-34.88c-12.34-38-22-76.7-34.13-114.73-12.41-39.07-27.77-77-48.07-112.68C114.93,442.11,110.31,434.39,104.06,427.83Z"/><path class="cls-5" d="M66.26,757.53l-4.48-14.42c6.41,5.13,10.17,10.45,15.76,13.39,5.78,3,12,3.61,18.36,4,6.64.41,13-1.19,20.39-2.83-1.18,20,2.41,39,2.73,58.23,2.29-20.25-.38-40.75,3.71-60.53,7.09,24.26,26,36.25,49.31,44.63a133.64,133.64,0,0,0-13.94,41.83l-.17-.13c5.13-3.36,6-9.18,8-14.26,3.3-8.65,6.5-17.31,11.71-27.45.73,10.42,1.63,18.81,4.24,26.86,1,3.15,1.59,6.82,3.59,9.23,4.85,5.82,3.21,10.33-1,15.48-3.84,4.67-5.44,10.62-7.36,16.31-8.26,24.52-12.85,49.61-11.81,75.58.36,9,1.21,17.87,5.19,27.55-6.61-3.16-9-8.57-13.2-12,.37,7.65,4.4,14.49,11.45,20,11.08,8.67,24,12.71,37.6,14.84,1.3.2,2.62.29,3.93.5.29,0,.55.35,1.17.77-4.31,18.84-5.28,37.88,1.08,58.51a64.4,64.4,0,0,0-26.33-7.36c-12.15-.75-23.88,1.57-35.59,4.22-1.95.44-3.81,1.34-5.77,1.59-16.63,2.12-27.44-2.09-31-20-4.28-21.55-7.77-43.25-11.58-64.89-7-39.53-21.54-76.13-42.24-110.4-6.72-11.12-13-22.51-20.29-33.27-6.57-9.67-13.39-19.09-21.93-27.15-.93-.88-2.21-1.67-1.58-3.56,25.25-2.7,32.25-23.25,41.17-42.65,4,2.8,3.79,8.2,6.64,11.7,7.28,8.63,8.86,19.8,13.21,29.73,1.41,3.21,1.87,6.91,3.72,8.79C76,786.68,68.88,773,66.26,757.53Z"/><path class="cls-5" d="M405.78,537.61c-4.74,1-8.29,4.08-12.09,6.74-6.81,4.78-13.61,9.58-20.54,14.19s-14.67,6-22.9,5c-20.85-2.78-38.85-11.14-53.21-26.85a124.75,124.75,0,0,1-14-18.14c-10.8-17.31-8.9-45.41,4-61.27,6.7-8.24,13.59-9.56,22.8-4.17,2.86,1.68,5.5,3.75,8.2,5.69,13.25,9.48,27.38,16.46,44.25,15.89a21.78,21.78,0,0,1,3.94.42c.15,0,.22.59.59,1.72-23.52,9.54-43.11,1.84-61.41-13.69,5.56,15.12,29.24,25.61,50.59,23s35.09-16,46.87-33.63c1.41,3.61,2.41,6.27,3.49,8.89,6.71,16.22,17.4,29,32.7,37.79,6.63,3.83,13,8,19.56,12,11.16,6.76,18.81,16.72,25.35,27.7a33,33,0,0,1,4.78,15.07c.58,9.29-2.22,16.54-10.12,22.39-14.47,10.71-30.37,16.45-48.29,16.09-11.67-.23-23.31-.54-34.83,1.64-7,1.33-12.3-1.19-16.71-6.45a150.19,150.19,0,0,0-16.51-17.32c18.62-6.56,31.21-21.52,47.68-30.65,6.71-3.7,12.82-1.42,18.73,2,6.31,3.66,12.13,8.09,18.2,12.14C421.88,537.34,421.88,537.34,405.78,537.61Z"/><path class="cls-1" d="M456,1274c-14.91-17.38-32.38-27.74-49.85-37.8-37.15-21.4-73.62-43.79-109.07-68-32.09-21.9-65.26-42.22-98.6-62.22-2.85-1.71-5.68-3.47-8.36-5.43-2.18-1.59-4.11-3.61-4-6.58.56-11-1.55-21.85-2-32.78-.3-7.27,1.17-8.07,8.22-6.14,7.58,2.09,13.84,6.3,19.41,11.74s11.22,11.41,17.34,16.51c9.15,7.61,20.65,10.69,31.64,14.24,24,7.73,48.39,14.3,71.42,24.76a122.85,122.85,0,0,1,15.72,8.7c15.92,10.26,31.79,20.6,47.51,31.17a133.22,133.22,0,0,0,55.19,21.55c3.55.53,5.5,1.53,5.49,5.4C456,1216.71,456,1244.29,456,1274Z"/><path class="cls-1" d="M239.56,1479.26c-2.2-1.29-3.09-2.34-3.14-3.72-.46-13.92-4-27.73-3.71-41.47.21-10.81.42-21.9,2.09-32.7a76.74,76.74,0,0,0,1.17-13.86c-.62-19,1.83-37.82,2.65-56.72.85-19.64-1-38.93-2.25-58.38s-3.4-39-4.73-58.47c-1.64-24-1.14-47.84-1.57-71.76-.07-3.65-2.44-6.94-1.28-10.68,4.32-.53,6.61,2.94,9.64,4.7,6.6,3.84,12.81,8.36,19.45,12.12,4.59,2.59,6.65,5.77,6.36,11.19-1,18.9.85,37.84-1.72,56.79-1.22,9.06-1.37,18.56,1,27.79.73,2.83.4,6,.4,9,.05,29.31.35,58.62,0,87.92-.28,23.62,2.45,47.1,2.67,70.71.09,9,.11,18.59,2.87,27.6.59,1.94.92,4.25-.39,5.8C259.36,1456.66,250.34,1469,239.56,1479.26Z"/><path class="cls-4" d="M367.88,653.76c3.58-15.57,7.59-31,12.67-46.18,2.53-7.56,2.7-7,11.06-8,11.59-1.39,23.14-2.48,34.83-1.9,3.43.17,6.66.34,9.13,3,13.88,15.17,21.59,32.55,19.19,53.55-.7,6.15-3.58,11.09-7.39,16-22.52,29.08-50,52.41-81.34,71.38-6.63-2.41-5.21-8.93-5.55-13.38-1.71-22.59.53-45.06,4-67.39A16.37,16.37,0,0,1,367.88,653.76Z"/><path class="cls-4" d="M184.22,802.16l37.11,33c-4.36,8.76-10.69,14.6-21.06,13.64-1.62,3.41,1.17,3.79,2.34,5.13,2.61,3,5.31,6,7.76,9.09,6.38,8.16,9.22,16.31,6.07,27.47-8.49,30-7.41,60.55-1.07,91,.34,1.6.45,3.25.76,5.6-12.68,1-23.8-2.8-34.51-8.16-3.18-1.6-4-5.19-5.24-8.26-5.45-13.94-6.72-28.56-5.44-43.23,2.43-28,7.69-55.37,21.11-80.45,1.74-3.25.32-4.84-.72-7.07C185.11,826.61,183.16,816.83,184.22,802.16Z"/><path class="cls-6" d="M329.72,971.73c-2.23,7.15-3.37,14.66-7.24,22.6-5-34.08-19.45-63-36.33-91.05-8.82-14.65-19.72-27.55-31.57-39.75l-11.06-11.4,2.85-2.84a170.48,170.48,0,0,1,33.7,36.52c19.33,27.79,34.09,57.86,42.6,90.87,4-1.78,2.47-6.69,5.28-9.06C328.33,969.08,328.31,970.71,329.72,971.73Z"/><path class="cls-7" d="M221.43,872.59c-3.49-8-7.89-13.27-13.67-19.1,8.92-2.62,13.94-8,17.13-15,3.18.63,4.89,2.78,7,4.35,2.6,1.94,2.69,4.1,1.2,6.89C229.38,856.71,225.88,863.79,221.43,872.59Z"/><path class="cls-8" d="M367.88,653.76c-1.54,11.46-3.17,22.92-4.57,34.4a215.41,215.41,0,0,0-.59,42.71c.29,3.74-.13,8,3.31,10.84-.92,1.89-2.62,2-4.39,1.89-4.15-13.83-4.52-28-3.65-42.27,1.14-18.79,2.88-37.53,7.92-55.78C367.13,648.15,365,651.55,367.88,653.76Z"/><path class="cls-9" d="M405.78,537.61c7.51-4.26,14.68-2.17,21.66,1.36,9.2,4.65,17.17,11.13,26.11,17.52-3.4,2-5.45-.23-7.27-1.31-5.11-3.06-10.08-6.39-14.93-9.85-6.47-4.62-13.41-7.12-21.43-5.73C409,538,407.24,538.11,405.78,537.61Z"/><path class="cls-10" d="M66.26,757.53C73.2,771.77,77,787.11,81.49,802.27A247.13,247.13,0,0,1,64,761.86C66,761.07,65.8,759.13,66.26,757.53Z"/><path class="cls-11" d="M226.29,1003.57c4.17,8,6.34,16.91,10.27,25.12a41.47,41.47,0,0,1-12.45-20.89C226.19,1007.09,225.63,1005,226.29,1003.57Z"/><path class="cls-12" d="M316,796.09c6.88-.61,13.72-.58,20.52,1.7-4.6,2.84-9.65,2-14.61,1.77C320.59,797.27,317.26,798.44,316,796.09Z"/><path class="cls-13" d="M203.31,746.49c-2.25-4.93-1.44-8.09-.42-11.89C206.58,738.28,207.24,741.51,203.31,746.49Z"/><path class="cls-12" d="M310.14,799.53c-2.36.52-4.6.43-6.5-1.32C306.05,797.43,308.28,797.57,310.14,799.53Z"/><path class="cls-2" d="M524,1625.77c2.39,1.47,1.91,3.91,2.08,6.13C523.77,1630.42,524.14,1628,524,1625.77Z"/><path class="cls-14" d="M334.19,591.23c-6,1.61-10.85,1.28-15.75,1-39.58-2.34-79.08-5.89-118.55-9.65-3.45-.32-9.79,1.4-9.44-4.09.26-4.22,6.17-2.51,9.52-2.39,35.64,1.28,71.19,4.13,106.75,6.69,5.62.41,11.19,1.69,16.75,2.75C327,586.23,330.59,587.12,334.19,591.23Z"/><path class="cls-15" d="M247,504.74c-4.14,2.22-7.79,2.25-11.45,2.16-22.33-.57-44.46-3.25-66.6-5.92a36.6,36.6,0,0,1-3.91-.8c-3.48-.84-8.69-1.07-8.16-5.5.6-5,6-2.93,9.19-2.76,22.92,1.16,45.88,2.14,68.57,5.95C239.08,498.62,243.8,499.31,247,504.74Z"/><path class="cls-16" d="M216.94,668.34c12.89-5.55,109.11-1.74,127.37,4.43C334.48,676.63,230.76,673.31,216.94,668.34Z"/><path class="cls-17" d="M335,747.28c-21.88,3.23-43.64,3-65.43,1.48a13.83,13.83,0,0,1-3.87-.86,2,2,0,0,1-1.62-2.16,2.17,2.17,0,0,1,1.66-2.13,35.85,35.85,0,0,1,7.84-1.21c17.57.21,35.16-.73,52.7,1C329.28,743.68,333.13,742.75,335,747.28Z"/><path class="cls-2" d="M157.93,841.71c-.1,1.49-.21,3-.34,4.86-1.59-2.11-1.65-3.6.51-4.73Z"/><path class="cls-18" d="M278.82,488.49c.92-5.52,1.76-11.15,5.34-15.81,3.35-4.36,8.07-5.91,12.25-4.22s6.53,6,5.41,11.61c-1.36,6.83-3.08,13.6-5,20.32-1.66,6-6.07,7.49-11.31,3.91C280,500.53,278.66,494.85,278.82,488.49Z"/></g></g></svg>