<svg xmlns="http://www.w3.org/2000/svg" viewBox="0 0 1663.45 1730.71"><defs><style>.cls-1{fill:#050302;}.cls-2{fill:#15110e;}.cls-3{fill:#f0e19a;}.cls-4{fill:#ff9322;}.cls-5{fill:#432f1a;}.cls-6{fill:#fff;}.cls-7{fill:#fe9322;}.cls-8{fill:#422f1a;}.cls-9{fill:#fbfbfb;}.cls-10{fill:#f58e21;}.cls-11{fill:#eff0f0;}.cls-12{fill:#423b30;}.cls-13{fill:#473b28;}.cls-14{fill:#7d6e4c;}.cls-15{fill:#010000;}.cls-16{fill:#fffefc;}.cls-17{fill:#63c25c;}.cls-18{fill:#fefefe;}.cls-19{fill:#1c1f15;}.cls-20{fill:#020202;}.cls-21{fill:#050505;}.cls-22{fill:#080706;}.cls-23{fill:#2e2e2e;}.cls-24{fill:#201f20;}.cls-25{fill:#595458;}.cls-26{fill:#1f1f1f;}.cls-27{fill:#1e1e1e;}.cls-28{fill:#363636;}.cls-29{fill:#1c1b1c;}.cls-30{fill:#202020;}.cls-31{fill:#1d1d1d;}.cls-32{fill:#828282;}.cls-33{fill:#3f3f3f;}.cls-34{fill:#343434;}.cls-35{fill:#6b6b6b;}.cls-36{fill:#797979;}.cls-37{fill:#707070;}.cls-38{fill:#b7b7b7;}.cls-39{fill:#eacad9;}.cls-40{fill:#3e3e3e;}.cls-41{fill:#b3b3b3;}.cls-42{fill:#393c40;}.cls-43{fill:#afafaf;}.cls-44{fill:#232223;}.cls-45{fill:#b5b5b5;}.cls-46{fill:#676265;}.cls-47{fill:#f2f2f2;}.cls-48{fill:#e5e5e5;}.cls-49{fill:#feb975;}.cls-50{fill:#fafafa;}.cls-51{fill:#efefef;}.cls-52{fill:#3f3d3c;}.cls-53{fill:#b59eab;}.cls-54{fill:#bca4b1;}.cls-55{fill:#101010;}.cls-56{fill:#171717;}.cls-57{fill:#4f494c;}.cls-58{fill:#423d40;}.cls-59{fill:#4d464a;}.cls-60{fill:#4f484c;}.cls-61{fill:#575054;}.cls-62{fill:#544d52;}.cls-63{fill:#665d62;}.cls-64{fill:#524b50;}.cls-65{fill:#8d7f87;}.cls-66{fill:#eee;}</style></defs><title>duck_and_mouse_conditional</title><g id="Layer_2" data-name="Layer 2"><g id="Layer_6" data-name="Layer 6"><path class="cls-1" d="M1555.22,334.69c-1.23-7.49-.17-15,.6-22.38,4.66-44.07-1.94-87.31-8.5-130.63-4.6-30.4-11.78-60.38-14.64-91.05-1.78-19-1.07-37.74,6-55.88,11.51-29.35,41.39-42.37,70.55-30.22,14.74,6.14,27.46,15.48,39,26.4,8.7,8.25,12.06,19.19,13.83,30.69,3.29,21.41.18,42.49-3.43,63.51-6.53,38.12-17.79,75.15-26,112.88-13,59.49-21.34,119.5-22.87,180.42-.68,27.21-1.27,54.42-2.49,81.61-.31,6.79,1.94,10.15,8,12.23q11.18,3.81,22,8.52c7,3.05,7.6,7.44,1.53,12.19-6.47,5.07-14.28,6.58-22.26,6.73-10.79.2-11,0-11.38,11.19-1,26.41-1.53,52.86-3.64,79.19-1.48,18.4,2,36,4.42,54a459.33,459.33,0,0,1-3,144.87c-.28,1.52-.09,3.25-1.61,4.25a15,15,0,0,1-2.61,1c-2.07-6.68-.44-14.23-4.66-20.26-.35-.49-1.3-.56-2.44-1-1.79,21.56-3.45,43-5.37,64.4-4.3,47.92-8.81,95.82-13.08,143.73-3.76,42-7,84.09-11.06,126.07-4,40.82-7.42,81.67-9.67,122.62-5,91.41-7.78,182.86-4.84,274.41.83,26,1.45,52.06,1,78.1-.44,28.84-4.66,57.35-8,85.93-1,8.29-5.21,12.8-13.64,15.5a141.7,141.7,0,0,1-50.06,6.92c-22.14-1-35.53-16.62-32.92-38.49,1.64-13.75,6.39-26.82,9.38-40.27,5.84-26.31,6.11-53.22,8.82-79.87,8.52-83.66,10.56-167.63,13.1-251.6,1.45-47.7,4.24-95.35,6.32-143,.39-9.06,0-18.15.53-27.2.33-5.64-1.53-7.33-7.21-7.66-35.83-2.08-71.66-4.23-107.58-3.27-46.53,1.25-93.07,2.3-139.58,4.25a1067.9,1067.9,0,0,0-129.35,13.17c-6,1-10,3.48-13.31,8.36a276.92,276.92,0,0,0-26.49,48.74c-15.64,37.24-25.73,76-32.82,115.73-10.06,56.48-15.4,113.28-14.72,170.62.5,41.82,2.78,83.57,9.52,124.9,2.4,14.75,6.66,29.2,7,44.29.14,6.36-1.14,12.5-1.93,18.75-1.63,13-9.62,19.46-21.31,21.57a167.06,167.06,0,0,1-56.47.78c-12.08-1.95-21.35-13.51-22.5-25.78a91.61,91.61,0,0,1,1.26-27.12c8.14-39.44,12.63-79.37,17.63-119.28,6-47.74,12.32-95.45,15.26-143.47,3-48.83,7.92-97.48,11.52-146.24,2-27.18,2.44-54.34,2.87-81.55.11-6.57-1.73-10.85-7.25-14.68-9.81-6.81-17.2-16.25-24.13-25.84-9.23-12.77-18.11-25.82-26.78-39-2.94-4.47-5.16-6.34-11.26-4.6-20.47,5.83-35-1-45.53-19.55a100.51,100.51,0,0,1-12.91-45.12c-.85-19.45-8.12-34.11-23.2-46.5-16.85-13.85-29.8-31.39-40.51-50.49a150.24,150.24,0,0,1-14-35,61.53,61.53,0,0,1-1.6-11.66c-.32-4.92,2.92-5,6.22-3.68,3.83,1.52,6.14,5,8.22,8.26q7.59,12,14.63,24.31a139.58,139.58,0,0,0,31.49,38.09c1.7,1.43,3,3.7,6.52,3.16a293.71,293.71,0,0,0-13.44-51.21,697.63,697.63,0,0,0-39.33-88.5c-7.63-14.28-19.43-24.66-31.39-35-4-3.44-9.36-5.8-11-11.55,3.46-2.44,5.61.22,7.69,1.52a136.34,136.34,0,0,1,24.94,19.85c37.14,37.73,68.39,79.33,87.23,129.48,7.62,20.28,17.27,39.74,27.87,58.69,9.7,17.33,24.07,30,40.28,40.85a22.38,22.38,0,0,0,16.85,3.67,192.37,192.37,0,0,0,32-8.23c4.16-1.46,5.37-3.33,5-7.65-.62-7.83-1.11-15.77,1.61-23.43,1.06-3-.54-5.27-2.11-7.6-23.47-35.05-23.93-73.25-15.17-112.61,2.94-13.18,3.2-13.12-7.63-20.47-.65-.45-1.27-.94-1.94-1.36-11.06-7.08-7.51-7-17.2,1.81-3.49,3.19-6.73,6.67-10.32,9.75-2.2,1.88-3.7,6-7.48,4.29-3-1.38-1.52-4.9-1.61-7.46-.44-12.44-4-24-9.36-35.12A31.21,31.21,0,0,0,898,791.16c-14.21-9.24-28.16-18.88-42.38-28.11-10-6.46-19-14-28.29-21.37-25.31-20.31-37.2-47.56-40.53-78.81-2.6-24.46-1.32-48.92,7-72.44,6.24-17.58,15.63-33.56,26.55-48.59,3.34-4.6,4.17-8.51,2.6-14.07-17-60-36.6-119-65.39-174.61C729.89,299.65,696,250.4,657.5,204.25a113.82,113.82,0,0,0-24.74-21.89,59.11,59.11,0,0,1-6.66-4.86,3.59,3.59,0,0,1-.78-3.12c.56-1.72,2.29-2,3.86-1.51a15.56,15.56,0,0,1,4.19,2.11c22.34,16.24,48,25.29,73.88,33.67,39,12.62,77.58,26.52,117.73,35,38.57,8.11,77.35,15.28,117.06,14.88,7.86-.08,8.57,1.13,6.53,9.3a130.28,130.28,0,0,0-3.81,24.49c-2.39,44.57-1.45,89.11,1.75,133.61.65,9,1.46,18.07,2.18,27.11.29,3.72,1.4,6.67,5.12,8.58,24.12,12.38,47.18,27.17,74.68,31.66,11.86,1.94,23.62,2,35.11-1.53,28.17-8.53,53.81-21.62,76.89-40.34,59.22-48,107.78-104.94,145.33-171.26a206.52,206.52,0,0,1,17.88-26.42c27.58-34.81,39.24-74.95,40.55-118.69.14-4.72.37-9.45.81-14.15a2.77,2.77,0,0,1,3.32-2.53,5.21,5.21,0,0,1,2.94,1.57,9.23,9.23,0,0,1,1.39,3.23c9.4,29.22,21.26,57.75,24.77,88.61.53,4.67.56,9.4.82,14.1,1.07,5.92,1.74,11.82-.38,17.65-7.85-1.63-6.71-8.5-7.5-13.75-3.84-25.74-7.81-51.42-17.53-76-2.14,33.71-13.63,64.27-32.68,91.55-34.3,49.09-64.94,100.61-101.63,148.16-22.81,29.56-31.75,65.71-36.23,102.54-1.76,14.41-2.61,28.91-.16,43.47,3.1,18.37,8.83,34.91,24.73,46.61,23.52,17.31,40.17,39.19,47.19,68.44,7.51,31.33-18,67.26-61.31,61.92-21.45-2.65-37.5-15.57-54.28-27.28-2.3-1.83-5-2.55-7.86-3.15-16.36-6.23-32.53-3.51-48.55,1.32-15.75,4.75-30.36,6.22-40-11-2.07-3.7-5.34-2.21-8.38-1.36-11.72,3.29-23.32,7.13-35.71,7.22-5.24,0-7,3.06-5.53,7.84,6.39,20.25,12.64,40.54,22.88,59.33,3.56,6.53,7.32,6.94,13,2.4a289,289,0,0,1,56.07-34.65c3.88-1.85,7.6-4.19,12.09-4.45,2.61.24,4.84,1,5.12,4.1-3.73,7.27-11.16,9.66-17.64,13.17-24.69,13.39-47.65,29.1-67.52,48.83,1.75,5,5.91,4.49,9.06,5.36,65.66,18,131.12,13.75,196.25-2.66,18.62-4.7,34.69-14.63,48.4-28.43,8.56-8.62,16.07-18.47,26.75-24.86,2.16-.28,3.42.75,4,2.75.14,4.73-2.62,8.25-5.39,11.51-20.55,24.12-43.78,44.4-75.73,51.93-82.2,19.38-163.76,20.4-242.45-13.85-43.26-18.83-79.79-48.13-106.86-87.3-18.14-26.24-18.09-55.68-7.9-85,3.25-9.38,3.13-17.39-1.46-26-3.33-6.26-6.91-6.57-12.16-2.68-16.23,12-25.87,28.47-31.69,47.32a108.22,108.22,0,0,0-4.64,26.76c-.17,3.39.06,8.66-4.18,8.57-4.41-.09-5.45-5.1-5.3-9.21.82-22.78,3.61-45.45,19-63.39,11.12-13,10.91-25.11,2.3-39.81-10.12,16.36-19.86,32.27-24.15,50.74a175.07,175.07,0,0,0-.08,80.86c7.62,32.21,31,52.32,56.73,69.94,59.2,40.54,120.53,78.19,175.3,124.8,67.23,57.22,124.51,122.88,165.1,202,5.52,10.77,8.69,22.49,13.51,33.13,15.86-31,36.38-58.94,57.44-86.56,46.72-61.27,104.76-110,167.62-153.65q26.24-18.21,51.88-37.3a169.65,169.65,0,0,0,49.84-59.17c5.73-11.15,7-10.91,18.4-5.27,16.82,8.38,32,18.69,42.43,35.37,4.43-39.36,4.76-78.15-.77-117.24-7.76-54.93-29.87-103.39-61.55-148.15-5.45-7.71-3.68-11.21,5.83-12.2,13.11-1.36,26,1.12,38.8,3.21,15.44,2.52,30.53,1.37,46.14-2.35-2.07-3.89-5.73-4.43-8.71-5.6-25.44-10-46.89-25.88-66.07-45-12.84-12.77-26.7-24.65-37-39.78-9.18-13.46-8.51-18.6,6.09-26,25.54-12.95,46.5-30.91,63.76-55.17-9.86,1.75-19,4.5-28.37,3.54-3.95-.41-9,1.3-10.95-4.4C1559,353.24,1552.42,341.83,1555.22,334.69Z"/><path class="cls-2" d="M1555.22,334.69c.17,2.72.48,5.45.48,8.18,0,10.06,0,10.06-9.63,14-4.11,4.42-9.49,3.53-14.42,2.83-28.72-4.07-56-13.11-82.24-25.2-10.31-4.74-11.55-9.15-5.87-17.32,18.52-26.62,27.06-56.67,30.52-88.42,1-9.4,3.11-18.68,3.09-28.69a349.66,349.66,0,0,1-85.06,61c-5.61,2.88-12.92,9.52-18,3.29-4.34-5.32-3-14.16,1.64-20.85,4.22-5.38.8-11.87,2.57-17.61,3.25,10.86,1.27,21.75-.44,33.56,7.58-1.85,13.34-5.71,19.1-9.24,29.93-18.33,58.77-38.11,82.24-64.69a18.56,18.56,0,0,1,4.3-4c3.12-1.79,5.31-.69,5.77,2.93a25.78,25.78,0,0,1,0,5.89c-1.86,17.61-3.43,35.25-5.76,52.79-4,30.27-15.44,57.47-36.22,81.67,12.19,6.79,24.84,11.42,37.56,15.86,19.39,6.77,39.21,11.53,59.83,12.38,8.17.34,8.14.26,9-7.9C1554.11,341.63,1554.71,338.16,1555.22,334.69Z"/><path class="cls-3" d="M1375.73,243.45c-.92,6.84,1,13.91-3.4,22.93,22.9-7.9,40.71-19.81,58.25-32.09,17.71-12.4,35-25.34,51-43.33-4.38,36.7-6.52,71.21-21.28,103.18-3.8,8.23-7.32,16.54-13.55,23.39-7.38,8.11-7.25,8.9,3.13,13.76,17.49,8.21,35.48,15.2,54.27,19.81,13.73,3.37,27.52,6.88,41.9,5.75,14.72,1.87,29-1.32,44-4.71.12,3.44-1.85,5.21-3.33,7.17-11.74,15.44-24.15,30.31-40.51,41.1-8.86,5.84-18.42,10.62-27.55,16.07-9.43,5.63-9.6,5.88-3.81,15.08,11,17.54,26.13,31.47,41,45.57,22.91,21.66,48.64,38.74,79.73,48.83-3.64,5.67-8.78,5.76-13.47,6.67-19.71,3.83-39.26,1.46-58.77-1.66a158,158,0,0,0-24.75-1.76c-1.49,0-3.18,0-4.13,1.61s0,2.82,1,4.11c23.88,29.42,41,62.57,52.73,98.41,15.13,46.33,18.66,94.13,15.56,142.51-.73,11.37-.45,22.9-3.75,35.1-6.48-6.65-10-14.81-16.92-20.47-10.15-8.35-21.17-15-32.68-21.13-4-2.13-6.4-2-8.31,2.44-1.4,3.24-3.62,6.11-5.15,9.3-11.23,23.39-28.66,41.34-49.35,56.4-29,21.11-58.22,42-87.17,63.2a659.15,659.15,0,0,0-141.1,140.65c-8.91,12.05-17.66,24.19-25.82,36.74s-16,25.29-22.21,39.26c-2.79-1.46-3.21-4.14-4-6.55-12.37-39.35-34.53-73.53-58.8-106-46-61.64-99.47-116.15-162.3-161.09-42-30.06-84.73-59.08-127.81-87.58-9.23-6.12-17.73-13.1-26.38-20-21.93-17.42-33.53-40.61-37.66-67.58-4-26.4-3.23-52.77,5.87-78.26,6.1-17.09,15.15-32.74,25.6-50,3.66,11.92,6.73,22,9.84,32,1.33,4.31-2,6.44-4.19,9.1-11.61,14.29-20.73,29.93-23.25,48.42C807,639.67,805,649.73,808,660c3.42-37.07,14.66-69.51,49.36-89.42,1.34,1.78,2.06,2.63,2.67,3.55,8.9,13.36,8.86,26.27,3.76,42.07-9.54,29.51-5.78,58.33,14.72,83.55,32.88,40.46,73.44,70.8,122.74,87.17,47.09,15.64,96,21.86,145.82,16,17.62-2.06,35.14-4.73,52.71-7.14,43.62-6,75.48-29.69,100.29-64.59a21.39,21.39,0,0,1,4.36-9.1,26.68,26.68,0,0,1-6.56,7,317.36,317.36,0,0,1-37.18,36.33c-13.88,11.68-30.46,18.42-47.94,21.93-43.79,8.8-87.91,14.81-132.76,9.86a396.29,396.29,0,0,1-69.33-13.84c-.31-4.38,2.87-5.88,4.89-7.91,18.53-18.57,39.86-33.34,62.77-46,7.58-4.17,15.06-8.54,22.59-12.83,10.26-10.36,22.56-18.56,31.7-30.14a4.23,4.23,0,0,1,6.24-.41c7.84,5.27,15.62,10.63,23.54,15.78,15.86,10.31,33,14.22,51.8,10.44,25.7-5.18,41.75-28.22,37.47-54.27-4.32-26.28-19.26-46.09-38.61-63.17a52.28,52.28,0,0,0-6.52-5.1c-18.41-11.57-25.38-29.81-27.34-49.94-5.11-52.35,7.31-100.87,34.62-145.57,5.3-8.67,12.46-16.2,18.64-24.36,21.42-28.3,39.91-58.56,59.16-88.32,12.18-18.83,26.25-36.35,37.05-56.17,11.91-21.84,18.52-45,21.32-69.51.38-3.35-.38-7.06,2.68-11.1A264.79,264.79,0,0,1,1368.44,198C1371.13,213.09,1373.32,228.29,1375.73,243.45Z"/><path class="cls-4" d="M1188.38,663.8c-26.18-30.51-66.45-39.07-102.65-22.53-16.13,7.37-31.94,15.41-48.4,22.1-14.4,5.84-29.48,8.58-44.71,10.59-18.14,2.39-34-5-49.39-13.16C924.52,650.88,908.89,637,896,620.26a216.42,216.42,0,0,1-40.8-85.84,101.54,101.54,0,0,1,2.22-53.74c5.18-16.43,14.54-29.66,30.4-37.5,8.28-4.1,16.53-4.86,24.7.5,5.27,3.46,10.8,6.52,16,10.12,22.09,15.39,45.87,27.78,70.37,38.62,27.19,12,55.09,12.16,82.87,1.32,23.34-9.11,44.82-21.41,63.76-37.88,16.36-14.22,32.49-28.69,50-44.22-20.26,52.36-33.79,104-13.84,158.68-21.35-10.44-32.53-25.17-39.8-52.47-3.13,17.15,3.94,29.75,14.54,40.88,7.92,8.32,17.38,14.83,26.8,21.34,13,9,25.94,18,36.68,29.75,10.2,11.14,18.36,23.48,23.22,38,13.23,39.62-16.57,65-52.71,58.6a61.46,61.46,0,0,1-25.95-10.9c-3.5-2.56-7.13-4.95-10.61-7.53-21-15.52-44.11-17.69-68.66-11.44-5,1.27-9.84,2.88-14.82,4.1a18.58,18.58,0,0,1-14.83-2.12c-6.11-3.88-6.48-12.44,0-15.37,16.84-7.68,32.58-18,50.59-22.81,18.72-5,36.79-2.19,53.76,7C1169.45,652.65,1178.86,658.32,1188.38,663.8Z"/><path class="cls-5" d="M1547.67,774.52A175,175,0,0,1,1578.51,795c7.54,6.21,8.71,13.57,7.47,22.14-2.59,17.89-3,36-4.56,53.93-1.84,21.47-4.45,42.88-6.55,64.34-.95,9.76-1.25,19.54-2.41,29.33-2.59,21.81-3.09,43.85-5.37,65.7-2.73,26.14-5,52.31-7.26,78.49-.73,8.59-1.77,17.15-2.08,25.8-.29,8-.64,8.56-9.3,8.18-11.75-.51-23.67-.78-35.15-3-12.84-2.5-25.83-2.38-38.66-3.52-47.91-4.25-96.06-4-144-2.24-24,.87-48,.45-71.94,2.07-25.47,1.72-51.1,1.93-76.4,4.87-38.08,4.42-76.17,8.72-113.79,17.32-27,6.18-54.41,11.44-81.72,16.69-7.6,1.47-8.64.73-8.69-7.67-.15-30-.07-59.94-.23-89.91,0-7.43.37-14.82-1.79-22.25-2-7,0-8.92,7.68-9.25,12.22-.54,23.27.21,34.27,8.56,14.27,10.81,32.39,13.84,50.21,14.92,25.22,1.54,50.2-.92,74.92-6.3,6.87-1.49,14-1.87,20.94-3,8-1.35,13.39,1.64,17.11,8.87,7.94,15.42,14.84,31.29,21.73,47.18,1.82,4.19,3.07,8.73,6.54,12,4.17-2.12,4.76-5.9,6.24-8.93,9.07-18.48,21.75-34.62,32.9-51.76,4.25-6.54,9.79-8.3,17-7.06,25.88,4.41,51.66,9.26,77.29,15,30.66,6.9,61.55,12.56,93.29,10.81,25.74-1.43,50-8.64,71-22.84,18.17-12.25,30.79-30.1,38.74-51,13.12-34.54,12.85-69,1.33-103.83-8.53-25.83-18.23-51.12-30.58-75.36-1.84-3.62-3.77-6.82.38-10.39,14.2-12.2,22.08-28.41,28.43-45.56C1545.77,776.61,1546.45,776.07,1547.67,774.52Z"/><path class="cls-3" d="M1258.78,1052.79c12.65-15.44,23.62-29.34,35.15-42.78,36.64-42.73,78.6-79.63,124.23-112.49,30.38-21.87,61.63-42.55,91-66.64,3.54,3,4.66,7.19,6.47,10.91,12.12,24.87,21.06,51,28.92,77.41,10.35,34.88,6.65,68.63-8.76,101.27-12.51,26.49-33.76,44.25-60.88,52.74-26.8,8.4-54.92,9.39-83.06,4.83-31.53-5.12-62.4-13.4-93.82-19C1285.7,1056.84,1273.24,1055.07,1258.78,1052.79Z"/><path class="cls-5" d="M1487.48,1725.29c-14,.14-23.68-2.31-31.23-10.4-5.42-5.8-7.37-12.27-6.22-20.45,2-14.06,6.7-27.41,9.47-41.27,3.08-15.43,4.77-30.92,6.41-46.54,2.42-23,2.27-46.24,6.25-69.13,1.8-10.4,2.06-21.23,2.28-31.68.45-21.26,2.24-42.45,3.44-63.62,1.67-29.52.39-59.1,2.48-88.5,1.44-20.08.18-40.2,2.12-60.11,2.11-21.64.4-43.38,2.55-64.83,2.45-24.43,1.2-48.78,2-73.16.06-2,0-3.95.14-5.91.41-4.2,2.18-6.1,7-5.51,17.89,2.2,35.81,4.33,53.78,5.72,6.59.51,8.14,3.44,7.52,9-1.26,11.32-1.11,22.92-3,34-2.33,13.67-2.13,27.45-3.28,41.05-1.54,18.33-2.68,36.85-3.56,55.3-1.26,26.36-.57,52.78-2.4,79-3.94,56.33-2.07,112.69-1.17,169q.63,39.46,1.67,79c.52,20.5-2,40.73-4.22,61-1.06,9.71-2.65,19.47-2.79,29.27-.08,5.66-2.49,9-7.6,10.47C1514.38,1721.2,1499.49,1724.62,1487.48,1725.29Z"/><path class="cls-6" d="M665.27,201.71c89.9,31.77,179.32,63.2,276.61,65.44-10.79,42.49-4.33,84.92-3.39,127.2.42,19.21.9,38.46,3.79,59.43-7.73-5.1-13.81-9.31-20.09-13.2-18.81-11.64-32.6-10.71-49.66,3.55-18.91,15.81-25.45,37.29-27.14,60.82-1.47,20.52,4.18,39.82,10.86,59.49l-12.18,5.24c-3.56-4.48-4.15-10-5.54-15.16-11.52-42.62-23.3-85.19-39-126.45C771.32,354.28,733,286.14,683.41,224.5,677.32,216.94,671.32,209.31,665.27,201.71Z"/><path class="cls-5" d="M1600,502.94c-12-4.41-19.88-12.85-28.4-20-16.92-14.28-17.41-14.71-15.61-36.75,1.15-14.15,1.91-28.24,1.86-42.4,0-4.44,2-7.46,5-10.16,10.72-9.43,19.34-20.65,27.49-32.27a52.05,52.05,0,0,0,3.31-4.86c1.3-2.38,3.1-5,.66-7.54-1.85-1.92-4.44-1.27-6.71-.63-6.8,1.91-13.49,4.21-20.72,4.12-4.31-.05-6.73-1.55-6.6-6.17.12-3.95-.64-8.07.27-11.8,4.44-18.2,1.7-36.85,3.38-55.25,1.11-12.05-.19-25.1-1.86-37.53-2.71-20.19-5.24-40.4-8.61-60.52-3.5-20.86-6.92-41.75-10.77-62.55-3.75-20.24-5.76-40.81-3.23-61,2.14-17,7.24-33.87,24.22-43.82,13.22-7.74,26.64-9.51,40.62-3.66a117.47,117.47,0,0,1,41.41,28.77,22.91,22.91,0,0,1,4.85,8c5.28,14.6,6.59,29.26,5.18,44.92-3.87,43.29-16.34,84.66-25.89,126.71-7.29,32.09-13.85,64.35-18,97.09-3.27,25.72-5.13,51.5-7.18,77.32-2,24.82-.6,49.61-2.26,74.32C1601.65,478.73,1601,490.4,1600,502.94Z"/><path class="cls-5" d="M1082.42,1160c-9.41,15.21-18.59,29.81-25.71,45.58-14.13,31.24-25.4,63.42-31.5,97.28-4.44,24.68-9.27,49.3-13.44,74-1.7,10-1.55,20.38-3.22,30.42-3,17.9-2.35,36-3.78,54-1.77,22.27-2.41,44.84.92,67.2a66.82,66.82,0,0,1,.45,8.26c.9,38.53,4.29,76.76,12.85,114.45,3.27,14.41,1.93,28.9-.85,43.3-.66,3.43-3,3.73-5.56,5-10.18,5-21.3,5.21-32.11,6.53-8.16,1-16.57.66-24.82.19-15.32-.88-23.79-9.93-25.06-25.3-.83-10,1.15-19.72,3.06-29.25,4.69-23.46,8.69-47,11.48-70.74,3.43-29.18,6.55-58.4,11-87.48,2.84-18.53,3.83-37.45,5.58-56.19,3.15-33.65,4.66-67.37,7.23-101,2.33-30.51,4.91-61,7.17-91.54,1.34-18.11,1.39-36.14,1.9-54.21.27-9.58.88-10.11,10.6-12.06,24.59-4.93,49.2-9.75,73.68-15.2C1068.8,1161.79,1075.63,1162.91,1082.42,1160Z"/><path class="cls-3" d="M999.42,979.39c-37.58-38.84-38.36-84.63-25.33-135,79.3,57,144.28,125.4,196.79,207.1-8.43,3.7-16.25,3.71-23.76,5-27.2,4.51-54.37,8.85-82.18,6.19-21.06-2-39.82-9.48-55.81-23-18.82-15.89-22.66-37.45-21.5-60.7,4.63-1.31,6.07,2.71,8.93,3.47,11.19,2.84,18.5,13.38,28.76,15C1016.41,993.38,1006.1,989.11,999.42,979.39Z"/><path class="cls-4" d="M895.39,1012.49c.87,2.29,3,2.21,4.86,2.52,26,4.36,51.73,5.1,76.83-4.77,1.39-.55,2.89-.85,5-1.44,3.59,10.15,7.75,19.78,15.35,30.42-30.13-2.91-52.06,10.63-73.23,26.11a78.13,78.13,0,0,1-19.85,10.32c-14.7,5.29-27.39,1.17-36.08-11.81-7.61-11.35-11.55-24.15-13.36-37.54-3-22.22-5.51-44.62-9.65-66.57-5.52-29.31-12.51-58.51-24.5-86.17-7.67-17.69-14.33-35.83-23.19-53-.85-1.65-2.42-3.25-.55-6.12a270.85,270.85,0,0,1,25.81,35c11.09,17.77,19.47,36.89,27.45,56.2,8.13,19.66,16.89,39,26.7,57.91a122.79,122.79,0,0,0,36.63,42.61c2.07,1.54,5.07,2.24,6,6-8.15,1.78-16.29-.08-24.3.59a4.2,4.2,0,0,0-2.83-1A10.65,10.65,0,0,1,895.39,1012.49Z"/><path class="cls-6" d="M872.61,601.74c4.63,2.63,5.86,6.56,7.93,9.72a174.16,174.16,0,0,0,49.73,49.74c11.91,7.93,24.5,14.26,38.85,16.18,6,.81,9.47,3.17,11.19,9.66,7,26.34,17.18,51.45,31.49,74.73,2.28,3.72,2.51,6.27-.9,9.06a19.69,19.69,0,0,0-4.09,4.22c-3.12,4.79-6.78,5.43-12,3.11-10-4.49-20.4-8.27-29.79-14.11-29.84-18.58-57.89-39.1-80.46-66.67-19.43-23.76-22.47-50.21-16.64-78.85C869,613.15,870.87,607.93,872.61,601.74Z"/><path class="cls-6" d="M1096.39,714.58c-27.21,12.51-53,27.38-76.43,47.71-16.53-25.62-25.57-53.23-33.71-82.79,20.31.43,38.43-4.12,56.94-11.39,1.18,6.7,2.64,12.91,9.26,16.33,7.53,3.9,15.08,3.82,22.87,1.7,8.34-2.26,16.56-5,25.18-6,10.65-1.23,21.16-1.09,31.08,3.78C1125.75,700.92,1111.68,708.45,1096.39,714.58Z"/><path class="cls-7" d="M970.85,1150.33c-20.34-19.06-35.29-42.24-50.32-65.39-3-4.71-2.83-7.42,2.22-10.28,11.64-6.6,21.83-15.54,33.86-21.57a56.47,56.47,0,0,1,5.42-2.35c9.82-3.71,10.23-3.43,11,7,.11,1.57.31,3.14.46,4.71,1.9,28,.42,56.12.77,84.19C974.28,1148.92,973.35,1150.39,970.85,1150.33Z"/><path class="cls-8" d="M1594.37,629.5c-11.26-33.86-29.82-63.63-49.51-93.38,7.25-3.49,13.55.46,19.62,1.35a234.15,234.15,0,0,0,25.73,2.08c9.39.33,10.26,1.38,8.74,10.37-1.26,7.43-1,14.92-.71,22.34C1599.08,591.36,1595.25,610.12,1594.37,629.5Z"/><path class="cls-9" d="M1550.3,462.88c-14.66-12.65-26.27-25.49-36-41,13.08-4.63,24.27-11,36-17.64Z"/><path class="cls-10" d="M839.37,977c-32.86-22.16-65.5-78.47-68.14-100.63,4.33,2.14,5.51,6.58,7.67,10.2,6.62,11.15,12.82,22.57,19.68,33.57a105.24,105.24,0,0,0,29.9,31.48C838.15,958.19,839.24,966.63,839.37,977Z"/><path class="cls-11" d="M939.76,820.25l-15.93,19.5c-3.58-11.55-3.11-22.6-6.33-33.42C925.7,809.55,932.38,814.71,939.76,820.25Z"/><path class="cls-12" d="M1096.39,714.58c7.86-5.86,16.68-10.38,23.87-17.2,4.3-4.08,8.79-7.91,11.32-13.45,2.74-.32,5.51-.71,7.27,2.22-3.95-.85-5.2,2.15-7.07,4.65-8.24,11-18.12,20.2-30.87,25.9C1100,714.66,1098,715.11,1096.39,714.58Z"/><path class="cls-5" d="M970.85,1150.33c4.75-3,2.48-7.8,2.51-11.74.2-25.37.12-50.73.12-76.09,2.34,2.1,2.07,4.92,2.07,7.65q.11,37.1.16,74.19c0,2.28.66,4.8-1.07,6.74C973.18,1152.72,971.92,1151.58,970.85,1150.33Z"/><path class="cls-13" d="M999.42,979.39c10.24,6.06,18.86,14.83,30.52,18.65-13.37-.38-24.08-6.47-33.38-15.65Z"/><path class="cls-14" d="M1297.87,729.12l9.69-15.67c.74,7.5-2.49,13-7.49,17.75Z"/><path class="cls-15" d="M1482.86,423.39a30.51,30.51,0,0,1-13.31,5.41c-13.4,2.62-23.74,9.95-32,20.6-9.19,11.8-18.8,23.14-30,33.27a146.3,146.3,0,0,1-52.63,30.7c-20.52,6.82-41.39,12.67-61.75,20-31.06,11.14-41.81,19.2-62.36,44.5.52-8.45,4.1-15.23,2.79-22.43-2.85-15.55-2.43-31.37-3.89-47-4.14-44.17,4.65-85.58,28.31-123.21,16.46-26.17,39-46.26,66.47-60.63,27-14.13,84.65-13.91,115.57,21.63,10.37,11.92,18.63,25.46,22.66,41C1466.16,400.65,1470.27,413.69,1482.86,423.39Z"/><path class="cls-16" d="M878.15,503.91c-.26-11.62,1.81-23.93,8.29-35.22,2.58-4.51,5.66-8.59,10.56-10.82s9.29-1.74,13.11,2c3.47,3.37,5,8.19,2.22,11.85-13.57,17.67-9,38.45-10.82,58.15-.38,4.06,1.75,9.55-3.69,11.36-6,2-9.35-2.85-12.5-6.85C879.84,527.39,878.08,519.7,878.15,503.91Z"/><path class="cls-1" d="M895.39,1012.49h-8.65c4.07-2,6.37-1.72,8.49.19Z"/><path class="cls-6" d="M1276.68,371.55c13.22-12.31,26.29-24.62,41.27-35,30.67-21.32,82-13.58,104,3.19,17,13,27.52,30,33.56,50,3.19,10.58,5.82,21.27,12.66,29.94-1.38,3.81-4.63,3-7.12,3.77-12.23,3.62-21.39,11.43-28.93,21.36-10,13.19-20.4,26-33.35,36.54-10.12,8.26-20.82,15.39-33.42,20.38-5.08-6.51-3.69-15.36-8.55-21.6-3.12-2.1-4.27-5.45-5.7-8.7-15.39-35-35.78-66.13-66.88-89.41C1280.88,379.55,1275.2,377.85,1276.68,371.55Z"/><path class="cls-17" d="M1264.92,409c3.53-6.76-4.13-5.61-6.41-8.59,3.92-8.91,8.69-17.11,15.42-24.09,8-.12,11.89,6.52,17.15,10.8,26.81,21.83,44.52,50.25,58.64,81.27,2.45,5.38,3.25,11.11,4.43,16.79a16.32,16.32,0,0,0,.27,2.32c4.49,17.48,4.49,17.48-13.1,23.28-1.86.61-3.74,1.18-5.54,1.92-5.26,2.13-7.84.28-9-5.16-3.68-16.51-10.82-31.78-17.42-47.24-2.77-6.48-5.83-12.77-10.64-18-3.87-2-1.9-5.43-2-8.2-.29-17.14-7.23-24-24.13-23.67C1269.93,410.41,1267.14,411.28,1264.92,409Z"/><path class="cls-18" d="M1264.92,409c7.87-2.68,15.58-3.91,23.3.86,11.07,6.84,14.39,16.7,10.45,32.4-3.36,4.95-7.52,8.93-13.25,11a25.37,25.37,0,0,1-28.47-8c-6.53-8.33-6.47-20.41.16-29.41A23.8,23.8,0,0,1,1264.92,409Z"/><path class="cls-19" d="M1354.15,485.14c-9.33-20.24-18.05-40.78-30.84-59.23-13.52-19.49-29.57-36.42-49.38-49.63,0-2.09.2-4.1,2.75-4.73.85,1.27,1.42,3,2.59,3.74,26.79,17.72,46.82,41.52,61.89,69.55,6.08,11.31,12.74,22.5,15.61,35.29C1354.62,481.13,1354.54,483.21,1354.15,485.14Z"/><path class="cls-20" d="M373.92,832.63c.29.93.28,2.26.91,2.72,11.41,8.39,9.8,19.65,6.08,30.69-2.65,7.91-4.94,15.83-7,23.91-3.32,13.16-2.7,26.41-1.93,39.69.75,13,3.12,25.69,5.44,39.55,6.59-4.89,8.81-12.2,14.06-16.84,3.61-.29,3.74,1.37,2.22,4-2.48,3.84-4.53,8.05-7.52,11.46-6.68,7.63-7.77,16.14-5.65,25.64a64.69,64.69,0,0,1,1.59,16.61c2.29,5.84-1.54,12.42,2.22,18.08l-.14-.12c1.47,1.27,2.76,2.6,1.74,4.77-.75,1.26-1.5,2.51-2.24,3.77-3.73,5,1.8,8.19,2.32,12.36-2.7,2.52-2.74,5.91-3,9.21a218.62,218.62,0,0,1-25.17,86.48c-1.85,3.45-1.86,6.89-1.87,10.58-.05,19.27,1.95,38.53-.12,57.81a358.44,358.44,0,0,1-7.74,44.16c-1.09,4.59-2.22,9.68-6.46,11.93-4.83,2.57-5.48,6.19-5.25,10.71.49,9.57,1,19.14,1.57,29.71,21.83-4.9,33-22.63,50.51-35.57-6.15,0-9.89,0-13.62,0-2.32,0-4.69.56-6.94.23-4.7-.7-8.14-4.75-8-8.81.17-4.22,3.67-7.48,9.08-7.17,7.61.43,15.18,1.65,22.76,2.53,7.24,2.73,15.19-1.32,22.33,2.36.34,3.79-2.59,5.29-5.17,6.55-16.78,8.18-29.23,21.88-43.21,33.63-13.67,11.48-29.45,16.43-47.14,15.75-2.64-.1-5.38-.26-7.19-2.7,2.95-7.27,10.38-2.6,14.91-5.63,3.93-1.88,5.09-5.17,4.3-9.15a42.2,42.2,0,0,1,0-17.83c1-4.49-.55-5.75-5.4-4.83-14,2.65-18.17-.25-23-13.74-4.09-11.37-2.68-23.6-6-36-7.59,6.74-13.94,14-22,19.3a60.42,60.42,0,0,1-5.83,3.84c-2.69,1.34-6,3.17-8.07,0-1.92-2.83,1.17-4.88,3.13-6.41,19.26-15.06,35.43-33.19,51.72-51.27,31.88-35.37,52.63-75.85,57.82-123.66a5.45,5.45,0,0,0-.93-3.9c-9.71,9.19-19.14,18.35-28.05,28a825.56,825.56,0,0,0-62.49,76.61c-2.87,4-3.54,8.53-5.15,12.86a7.91,7.91,0,0,1-7.63,5.46,6,6,0,0,1-5.67-3.44,7.45,7.45,0,0,1,1.44-9.25c17.1-15.8,26.84-37.19,41.86-54.56,19.81-22.92,38.72-46.67,62-66.34,3.79-3.21,6.81-7.29,6.19-12-1.93-14.73.11-29.83-4.18-45.75-10,15.22-18.05,30.1-26.14,44.89-12.79,23.37-24.82,47.15-38.22,70.2-4.53,7.81-10.12,14.86-15.11,22.34-1.59,2.38-3.82,6-6.95,4-2.95-1.9-.82-5.55.42-8.2,8.47-18.12,18.07-35.64,27.68-53.17C329,1048,345,1016.86,364,987.48c3.51-5.4,3.54-11.25,2.53-17.34-3.15-19-7.8-37.85-7.54-57.35.06-5.09-2.23-9.54-6.75-14.68-2.58,16.08-6.06,30.56-9,45.12-5.26,25.6-19.07,47.47-30.68,70.18-13.47,26.36-28.08,52.19-46.34,75.72-4.68,6-5.84,13.44-5.77,20.85.11,10.71-2.43,21.16-2.62,31.83-.06,3.3-1.1,6.57-2,9.77-.68,2.29-1.76,4.83-4.41,4.81-3.68,0-3.71-3.46-3.81-5.92-.36-9.32-.94-18.66.64-27.92a62.93,62.93,0,0,0,1.09-12.37c-1.62,1.94-2.94,2.91-4.63,3.29-1.35,0-3.33-.46-3.16-1.62.81-5.71-2.06-9.79-5.11-14.07-1.94-2.72-1.59-5.61,1.9-7.32,3.18-1.4,5.84-3.69,9.31-5.47-3.84-.3-7.24-2.06-10.58.24-3.22,1.66-6.95,7.85-9.07-.94.69-9.44,7.17-14.25,15-16.67,8.8-2.7,12.42-8.16,12.39-16.84,0-1,.27-2,.26-3,0-4.43,4.47-10.75.16-12.74-4.62-2.13-9.83,3.08-13.51,6.77-7.66,7.7-12.27,17.45-15.64,27.59-6.13,18.42-15.76,34.37-30.43,47.28s-27.31,27.32-33.36,46.46a6.94,6.94,0,0,1-3.09,3.8c-1.74.11-2.72-.87-3.39-2.32-1.53-5.24,1.48-9.7,2.55-14.78-57.22,58.28-69.53,126.35-45.45,202.59a85.47,85.47,0,0,0,8.59,18c2.91,4.91,5.53,5.16,8.62.24,3.93-6.24,9.7-11,14.06-16.86,2.17-2.94,4.58-5.78,8.61-6.3a4,4,0,0,1,3.48,2.29c1.46,5-2.15,8-4.84,11.22-13.65,16.31-24.09,34.7-34.54,53.08-2.5,4.38-6,9.22-1.23,14.47,0,3.11-2.44,3.51-4.57,4.28-4.21.94-3.81,4-3.32,7.15a11.51,11.51,0,0,1-2.24,3.84c-25,54-18.62,138.07,12.75,162.91,1-4.66-1.22-8.57-1.77-12.66-.26-2-.83-4.37,1.49-5.23,2.07-.76,3.83.88,5,2.53,5.24,7.74,7.58,16.27,6,25.58-1.7,9.85-4,19.58-6.1,29.35-4.29,19.91,1.37,31.07,20.26,38.85a87.38,87.38,0,0,0,45.06,5.78c33.76-4.3,66.7-12.83,100.09-19,54.51-10.14,108.62-5.51,162.94,2.47a646.27,646.27,0,0,0,88.48,7.27A108.49,108.49,0,0,0,590.43,1670c22.16-11.19,24.75-30.66,6-47.14-16.11-14.15-35.46-20.15-56.77-21.67-38.42-2.74-73.92,7.82-108.39,22.86-35,15.27-71.22,23.81-109.52,23.33a189.06,189.06,0,0,1-25.81-2.46c-11-1.68-20.19-.27-27.91,8a2.54,2.54,0,0,1-2.85-.94c-1.57-5.1,1.62-9,3.56-13.09,9.8-20.87,9.57-40.43-6.69-58.4-4.66-5.15-9.33-10.48-12.17-17-.94-2.16-1.91-4.76.22-6.46,1.72-1.37,3.94,0,5.46,1.22,20.1,16.64,35.69,35.61,30.18,64.11-1.38,7.12.54,9.76,7.4,10.36,25.32,2.2,50.56,2.16,75.6-2.66,8.26-1.59,14.24-7.09,19.41-13.32,7.9-9.52,14-20.17,19.68-32.49-12.58.73-23.89,4.33-35.54,5.56a247.11,247.11,0,0,1-29.89,1.36c-16.14-.26-20.66-4.76-21.37-20.81,0-14.84-.12-29.67.06-44.49.05-4.13-.9-8.75,3.52-11.64,5,2.46,3.91,7.26,4,11.33.35,12.32-.3,24.66.31,37,.82,16.6,3.48,18.7,19.78,19.17,20.58.6,40.46-2.94,60-8.86,3.81-1.16,7.55-2.75,11.69-2.09,1.75.55,3.46,1.15,3.27,3.5-5,9.38-9.81,18.84-15,28.12-5,9-10.5,17.7-19.7,25.55,7.35-.52,12.34-2.75,17.25-5.09,11.39-5.42,22.68-11,34.09-16.41,3.57-1.68,7.1-3.64,11.17-4,3.71-1.62,8.12,1.06,11.63-1.91a27.26,27.26,0,0,1,2.58-1.47,19.2,19.2,0,0,1,2.94-1.18c26.21-8.79,52.86-13,80.46-8.12a59.47,59.47,0,0,1,10.65,2.48c4,1.78,8.55,2,12.46,4.12s7.51,4.24,11.32,6.24A82,82,0,0,1,608,1621.29c16.39,18.89,13.06,40.15-8.58,53-13.35,7.93-28.07,11.88-43.29,14.5-17.38,3-34.53.22-51.78-1-42.89-2.89-85.27-10.35-128-14.22-19.67-1.78-39.25.55-58.85,2-29.7,2.13-58.28,10.27-87.34,15.87-20.22,3.9-40.41,8.65-61.33,7.18a100.82,100.82,0,0,1-37.29-10.29c-8.33-4-13.25-11.09-16.35-19.36a21.26,21.26,0,0,0-8.14-10.85c-4.78-3.24-8.14-7.82-11-12.74-15.69-26.68-31.64-53.17-45.1-81.14-20.05-41.69-34-85.25-43-130.49A466.44,466.44,0,0,1,1,1384.32c-2.58-29.08.11-58,3.08-86.76,4.83-46.7,11.22-93.26,23.26-138.75,11.41-43.11,23.84-86,35.41-129C71.86,996,79.57,961.94,84.72,927.32c1.32-8.88,2.14-17.84,3.19-26.76,7,2.55,3.65,8.73,4.72,13.36-.18,25.21-6.72,49.45-11.84,73.86-11.56,55.16-29.45,108.67-43.46,163.2-10.64,41.42-17.47,83.43-22.74,125.78a685.5,685.5,0,0,0-5.34,81.63c-.14,29.55,3.84,59.08,10.85,88,15.1,62.41,40,120.67,73.78,175.15,5,8.05,8.87,16.89,15.43,24.44,8.78-16.53,8.39-20.11-3-32.12-2.07-2.18-4.37-4.23-5.78-6.87-19-35.67-41.59-69.5-52.86-109.12-13.82-48.57-23.74-97.92-27.9-148.08-4.18-50.39,1.77-100.47,12.87-149.81C37.3,1179.23,41,1158.18,48,1138c1.29-3.7,1.67-8,5.92-9.92,4.29,1.16,2.84,4,2,6.74-6.15,24.17-12,48.41-17,72.85a610,610,0,0,0-12.35,106c-.92,34.56,5.32,68.26,11.2,102.05a602.87,602.87,0,0,0,33.88,120.9c2.41,6,4.56,12.26,9.91,18.9-6.65-56.49,7-106.76,32.12-155.07-9.93-7.91-17.84-18.1-26.28-27.77-6.89-7.9-9.84-18.07-14.32-27.32-7.27-15-13.55-30.43-15.76-47.15-4.24-32.13.32-63,13.27-92.69,14-32.17,38.19-54.78,67.46-72.79,21-12.9,42.32-25.15,62.33-39.62,8.59-6.21,14.57-13.32,17.43-23.36a122.42,122.42,0,0,1,10.08-23.85,42.21,42.21,0,0,1,28.21-22.06c5.43-1.32,7.23-3.69,8.33-9,3.78-18.23,7.88-36.42,13.44-54.23,3.94-.18,2.77,2.24,2.22,4.35-3.52,18.81-8.86,37.27-11.41,56.7A48.44,48.44,0,0,1,291,1032.9c3.53-2.28,3.78-6.1,4.91-9.37,3.56-10.25,5.71-21,10.12-30.95,7.71,2.81.84,6.54,1.84,9.14,2.82-2.61,1.33-7.65,2.67-11.82,9.13-21.1,17.77-42.36,23.13-64.8,4-3.5-1.05-7.15.14-10.69,6.14-14.25,5.67-29.1,4.33-44.1-.59-6.62-.63-13.3-.58-19.94.05-5.62,2.05-9.64,7.86-12.43,7.57-3.63,14.45-8,23.3-4.29,1.49.64,2.47-1.66,3.48-2.85C373.87,830.31,374.85,830.54,373.92,832.63Z"/><path class="cls-21" d="M638.75,1256.22c29-1.84,57.93-1.08,86.89-1.34,18.64-.17,37.28-.17,55.89-1.63,4.71-.37,9.11-1.74,13.63-2.84,6-1.47,10.09.82,10.86,5.53a9.25,9.25,0,0,1-7.94,10.8,46.18,46.18,0,0,1-7,.17q-70.44,1-140.89,1.9c-4.55.06-7.12,1-8.6,5.89-2.5,8.21-9.22,12.74-16.75,16.09-13.56,6-27.94,8.67-42.61,9.72-19.92,1.42-39.91,1.56-59.8,3.87-31.78,3.69-60.74,14.49-86.49,33.52-12.1,8.95-22,20.26-32.25,31.2-4.09,4.36-7.91,9-11.86,13.46-2.14.37-2.77-1-3-2.7,7.73-17.6,21.64-30.26,35.9-42,31.44-25.85,67.71-39.58,108.68-42.5,19.22-1.36,38.57.22,57.67-3.24a149.14,149.14,0,0,0,22.27-5.32c19.32-6.64,21.19-9.19,21.48-29C635.69,1256.24,636.86,1255.34,638.75,1256.22Z"/><path class="cls-22" d="M638.76,1256.22l-2.88,2c-13.17,1-24.87,6.25-36.32,12.32A23.81,23.81,0,0,1,588,1273.2c-23.89-.35-47.67,3.46-71.58,2.07-7.7-.45-14.1,1.52-19.86,7.07-9,8.64-21,9.05-32.52,10.44-2.21.26-5.16-.14-5.86-2.69-.8-2.9,2.26-3.55,4.15-4.7,1.14-.69-.36-.1.91-.39,16.85-3.79,30.46-12.38,40.07-26.92,7.46,1.44,14.94,2.57,22.49.6,14.53-1.33,29.2-.1,44.18-2.2-5.09-16.64-9.44-33-12.86-49.54-2.09-10.12-2.5-20.47-4.88-30.56-2-8.47-.16-11.14,8.72-13.64a129.92,129.92,0,0,1,40.45-5.11c9.29.37,18.68-.21,27.82,2.21,8.16,2.16,8.77,2.62,7.2,10.93-4.4,23.21-9.1,46.36-13.65,69.55-.64,3.24-1.11,6.51-1.79,10.58A47.52,47.52,0,0,1,638.76,1256.22Z"/><path class="cls-23" d="M389.63,1380.23l2.23,2.33c-2.27,6.17-10.1,10.63-8.72,17.1,1.2,5.66,7,10.24,10.43,15.54,24.74,38.71,41.27,80.18,42.37,126.8.08,3.66-.16,7.4.53,11,2.14,11.07-2.41,17.86-12.78,21.28l-2.55-2.17c12.46-12.29,8.54-27.78,7.52-42.27-3-42.76-20-80.35-44-115.22-3.93-5.72-6.43-6-9.26.57-1.86,4.27-4.2,8.33-6.09,12.58-2.69,6-7.22,6.62-10.66,1.92-9.34-12.79-19.6-9.88-32.19-5.1-45.78,17.38-93.54,23.34-142.25,20.42-22.19-1.33-44.22-5.11-66.19-8.76-3.37-.56-7.55-.79-8.7-5.38,2-1,4.74.22,6.36-2,3.42-3.51,7.56-1.81,11.34-1.3,32,4.31,63.83,9.88,96.28,8.17,36.36-1.91,72-7.61,106.62-21.68-2.62-4-6.42-4-9.68-4.6-33.55-5.94-66.82-8.54-98.25,9a11.25,11.25,0,0,1-5.76,1.4,4.31,4.31,0,0,1-2.81-1.43c-.08-4,3-5.61,5.86-7.29,16.31-9.66,33.7-15.3,52.9-15.22,16.95.07,33.85-.11,50.49,4,13,3.18,25.75,6.86,35.53,16.72,4.21,4.25,5.91,1.81,7.84-2.1,4.57-9.21,8.62-18.73,14.77-27.07C383.12,1384.24,384.67,1380.08,389.63,1380.23Z"/><path class="cls-24" d="M55.94,1134.78c-.74-2.07.42-4.77-2.09-6.24-3.6-4.51-.88-9,.33-13.28,13.58-48.44,26.26-97.09,35.73-146.53,2.63-13.77,2.57-27.84,4.93-41.63.55-3.21.24-6.78,3.47-9,4.69,3.72,1.84,8.56,1.94,13-.92,27.34-5.79,54.07-12.12,80.59-9.48,39.69-18.6,79.47-30.24,118.61A38.42,38.42,0,0,1,55.94,1134.78Z"/><path class="cls-25" d="M100.25,931.1c-1.8-4,1.38-8.82-2.21-12.48-4.43-4.33-3.24-10-3.07-15.1.86-25-.81-49.8-7.38-74.07-3.51-21.08-13.19-40.11-20.15-60a24.41,24.41,0,0,1-1.09-2.64,45.63,45.63,0,0,0-3.41-8.94,21.67,21.67,0,0,1-1.09-2.53c-2.83-8.37-7.13-16-11.47-23.69-1.75-3.09-4.19-5.89-3.72-9.81a2.65,2.65,0,0,1,1.86-1.86,89.71,89.71,0,0,1,13.76,22.92c12.74,29.9,25.58,59.83,33,91.64,3.21,13.84,6.66,27.76,6.3,42.19a181.7,181.7,0,0,0,.09,37.74C102,920.06,102.43,925.69,100.25,931.1Z"/><path class="cls-25" d="M67.61,778.82c-3.53-5.34-4.86-11.6-7.18-17.43-8.79-22.09-21.63-42-33.8-62.18C20,688.13,13.52,677,7,664.22c8.81,2.38,9.7,10.34,13.9,15.13a191.22,191.22,0,0,1,12.62,16.73c4,5.71,8.09,11.39,10.9,17.83a23.06,23.06,0,0,1-.47,2.31c5.13,14.21,14.68,26.23,19.87,40.38l-.08-.14c1.72,3.24,2.21,7,4.09,10.15l-.09-.15a41,41,0,0,1,2.7,7.76C70,776,69.58,777.92,67.61,778.82Z"/><path class="cls-26" d="M525.81,1258.68c-7.34,3.07-14.66,2.79-22-.14-2.57-2.19-2.28-5.3-2.71-8.2-1.25-8.26-2.77-9.07-10-4.33a87.24,87.24,0,0,1-38.76,13.92c-10.15,1.14-20.32,2.49-30.17,5.49-2.84.87-5.83,1.57-8.39-.9-3.57-3.26-8-1.19-12-1.86-3.36-.57-7.15,1-10-2,18.59,2.55,35.78-5.48,53.81-7.17a162.21,162.21,0,0,0,16.69-2.48A58.48,58.48,0,0,0,489,1238.42c4.1-3.47,8.31-4.69,13.6-2,5.51,2.85,6.09,7.3,5.63,12.54-.25,2.89-.38,5.79-.64,9.67Z"/><path class="cls-27" d="M463.85,1602.69c-4.22,4.63-8.22,0-12.32-.3,22.8-11.47,45.91-21.89,72-23.11,18.57-.86,35.47,2.74,48.69,17-4.2-.23-8.7,2-12.48-1.57-6.59-6.69-15.37-6.83-23.76-7.45-24.57-1.79-47.76,4.17-70.3,13.34l.23-.15C465.73,1601.68,462.84,1600.34,463.85,1602.69Z"/><path class="cls-28" d="M386,1032.75l-1.74-4.77c26.6-27.5,53.36-54.83,81.38-80.91,4.61-4.3,9.38-8.43,14.07-12.65,2-.66,2.5.24,2.1,2.05-32.09,30.61-63.41,62-93.45,94.62A13.32,13.32,0,0,1,386,1032.75Z"/><path class="cls-29" d="M67.61,778.82c.58-1.4,0-3.31,1.92-4.11,9.39,17.44,14.49,36.37,19.15,55.45a12.27,12.27,0,0,1,1.08,4.69c-.2,2.92,1,5.53,1.82,8.24,4.06,19.86,3.28,40,3.1,60,0,4.35,1.13,9.55-4.58,11.88-1.66-4.67,1.52-10.08-2.19-14.45-.51-15.24.57-30.5-1.15-45.73-2.61-23.22-8.56-45.59-16.4-67.52C69.36,784.51,68.52,781.65,67.61,778.82Z"/><path class="cls-30" d="M393.72,956.31c-.21-1.62-.48-3.2-2.22-4,7.23-12.36,16.69-23.06,25.63-34.11A606.94,606.94,0,0,1,464,866.69c1.74-.31,2.71.12,2.06,2.12-25.16,27.05-48.91,55.26-70.25,85.45A15.19,15.19,0,0,1,393.72,956.31Z"/><path class="cls-31" d="M333.76,914.41c2.79,2.93,7,5.56,2.21,10.15-7.08,13.55-9.63,28.73-15.43,42.77-3.29,7.95-6.57,16-8.78,24.34,1.05,5.35-2,9.18-4.83,14.11-2.34-4.91,3.5-9.45-.95-13.2A655.87,655.87,0,0,1,333.76,914.41Z"/><path class="cls-32" d="M310.13,870.72c2.67-9.3,7.05-17.92,11.1-26.63a779.76,779.76,0,0,1,38-72.44c1.17-2,2.67-3.75,4-5.62.93-.29,1.28.07,1.1,1-6.16,11.71-12.25,23.45-18.51,35.11a686.13,686.13,0,0,0-31.19,66.55c-.62,1.52-.95,3.2-2.48,4.17C310.87,872.73,310.75,871.49,310.13,870.72Z"/><path class="cls-33" d="M310.13,870.72l2,2.14c-9.47,25.18-20,50-27.07,76-1.46,5.39-2,11.12-5,16-.84-1.4-.3-3.5-2.22-4.35,2.84-16.11,8.71-31.31,14.46-46.5C297.87,899.46,304.17,885.16,310.13,870.72Z"/><path class="cls-34" d="M386,1048.88c-3.63-3.58-6.31-7.35-2.32-12.36.25,2.24.51,4.48.89,7.75,20-17.13,39.73-33.53,61-47.95,2-.6,2.53.33,2.17,2.15C426.25,1014.12,406.41,1031.83,386,1048.88Z"/><path class="cls-35" d="M373.92,832.63l-1.77-1.83c4.82-12.67,12-24.1,18.86-35.68,6.37-10.78,13.38-21.19,20.25-31.66,1.74-2.65,2.95-5.93,6.43-7l.17.15c-2.31,7-7.27,12.45-11,18.59-10.36,16.92-20.19,34.12-29.1,51.86C376.72,829,376.24,831.48,373.92,832.63Z"/><path class="cls-36" d="M447.77,998.47a3,3,0,0,0-2.17-2.15c19.51-15.07,39.89-28.81,61.78-40.24l.85.93c-12.24,8.42-24.41,17-36.76,25.22C463.51,987.56,456.28,994,447.77,998.47Z"/><path class="cls-37" d="M466.08,868.81c-.68-.71-1.37-1.41-2.06-2.12,14.54-16.81,31.43-31.13,48.34-45.49C497.31,837.45,482.44,853.85,466.08,868.81Z"/><path class="cls-35" d="M481.77,936.47l-2.1-2.05c14-14.26,28.72-27.6,45.54-38.5,1-.15,1.36.29,1.16,1.26Z"/><path class="cls-24" d="M101.62,914.43c-.42-.5-1.2-1-1.21-1.5-.18-12.09-1.89-24.25,1.12-36.24A248.93,248.93,0,0,1,101.62,914.43Z"/><path class="cls-28" d="M384.36,1028.1c-4.91-5.52-2.33-11.95-2.22-18.08C384.58,1015.84,383.31,1022.11,384.36,1028.1Z"/><path class="cls-36" d="M507.38,956.08c2.31-3,5.49-4.39,9.3-4.91a16.57,16.57,0,0,1-8.45,5.84C508,956.69,507.67,956.38,507.38,956.08Z"/><path class="cls-32" d="M370.21,756.89A21.59,21.59,0,0,1,364.34,767c-.36-.34-.72-.67-1.1-1,1.31-3.76,3-7.26,6-10Z"/><path class="cls-32" d="M376.19,746.89a20,20,0,0,1-6,10l-.94-.82a17.46,17.46,0,0,1,6.33-9.74Z"/><path class="cls-32" d="M375.6,746.33c1.23-3.28,2.38-6.64,6.31-7.7l-.17-.15a11.91,11.91,0,0,1-5.55,8.41Z"/><path class="cls-35" d="M525.21,895.92c2.33-2.67,4.65-5.34,8.63-5.36l-.06-.07c-1.14,3.7-4.56,4.88-7.41,6.69C526,896.75,525.61,896.33,525.21,895.92Z"/><path class="cls-35" d="M533.84,890.56c.59-2.54,2.43-3.13,5.07-3.21-1.2,2.39-2.72,3.49-5.13,3.14Z"/><path class="cls-32" d="M381.91,738.63c-.37-2.47.87-4,3.21-5.25.12,2.88-1.15,4.3-3.38,5.1Z"/><path class="cls-35" d="M417.69,756.42c-.23-2.56,1.36-4.08,3.84-6.14,0,3.44-1.08,5.25-3.67,6.29Z"/><path class="cls-25" d="M44.45,713.91a11.63,11.63,0,0,1,4.07,6l-1,.8c-3.82-.35-5.4-2.18-4-6Z"/><path class="cls-38" d="M413.81,1264.52c15.78-4.21,32-6.09,48.05-8.64a62.3,62.3,0,0,0,30.52-14.08c2.27-1.9,4.47-4.38,7.89-2.72s4.09,5,4,8.48c-.07,3.66-.29,7.32-.44,11-5.22,12.72-13.68,21.61-27.64,24.78a57.55,57.55,0,0,0-16.88,6.23c15.86,1.56,30.19-3.42,40.55-14.55,2.48-2.66,5.1-2.7,8-2.64,25.91.46,51.76-1.12,77.64-2,6.11-.2,11.64-1.2,17.09-4.19,5.79-3.18,12.14-5.32,18.09-8.23,5.2-2.55,10.15-2.66,15.14.27,4.53,12.91,2,20.31-9.82,26.4-16,8.21-33.38,11.07-51.09,11.5-23.6.57-47.13,1.4-70.37,6.07a168.5,168.5,0,0,0-87.46,46.62c-9.92,9.84-19.51,19.9-27.51,31.39-11.07,11.91-17.11,26.73-23.83,41.15-.7,1.49-.85,3.23-2.73,4.45-16.19-22.46-41.1-24.51-65.5-27.07-10.54-1.1-21.31-.54-31.95-.12-18.47.73-35,7.57-50.24,17.58-.71.47-1,1.56-1.51,2.37l-.41.19.3-.31c3.69.52,6.21-2.06,9.05-3.59a102.12,102.12,0,0,1,47.79-12.38c19.37-.28,38.58.6,57.33,6a87.93,87.93,0,0,1,8.39,3.09c.48.2.71,1,1.45,2.17-10.53,5.92-22.13,8.74-33.44,12.12a303.51,303.51,0,0,1-69.56,11.75c-23.55,1.37-47.22,1.09-70.71-2.32-16.09-2.34-32.22-4.36-48.34-6.52-4.51-.74-7.47-1.74-4.58-7.64,9.22-18.81,20.48-36.35,32.49-53.44,4-5.68,9.11-10.52,12.6-16.6.31-4,3.17-6.45,5.42-9.31,15.43-19.55,28-40.52,32.49-65.5,3.63-21.92-.86-41.1-18.73-55.8a17.48,17.48,0,0,1-1.88-2.49,88.53,88.53,0,0,1-14.78-31.89c-1.64-6.68-3.22-13.43.73-20,5.8-16.81,12.86-32.82,27.44-44.21,2.61-2,4.79-4.64,7.35-6.74,14.38-11.79,23.47-27.06,29.2-44.47a109.59,109.59,0,0,1,12-25.12c5.7-8.89,14.27-13.33,25.68-16.6-1.87,12.49-3.6,23.49-5.12,34.52-.53,3.88-3.67,3.3-6,4-9.29,2.61-17.71,6.18-20.61,16.65-1.91,11,0,22.41-2.88,33.41-1.66,6.44-4.21,12.29-8.49,16.89,9.55-5.64,15-16.87,25.7-22l7.54-7.13c.38,17.09-3.09,33,.13,49,3.06-5.53,3.74-11.62,4.3-17.72,1.06-11.61,2.12-23.22,3-34.84a26.81,26.81,0,0,1,5.58-14.61c22.86-30.09,40.4-63.32,57.09-97.05a9.23,9.23,0,0,1,.42-.9c17.18-28.29,22.81-60,27.54-92,.18-1.27.39-2.54.73-4.69,7.2,5.45,11.69,12.18,11.64,20.26-.11,19.18,3.69,37.76,7.38,56.35,1.67,8.36.26,15.09-4.4,22.42-28.78,45.3-53,93.2-78,140.62-1,1.93-2.68,3.81-1.73,7.4,7.66-9.9,14.65-19.39,20.36-29.74,18.19-32.94,36.19-66,54.44-98.89,3.45-6.22,6.57-12.77,12.85-19.65,1.06,7.91,2.1,14,2.64,20.17.85,9.61,1.47,19.25,2,28.89.38,7.24-1.38,13.2-7.47,18.48-24,20.8-44.7,44.76-64.63,69.34-10.24,12.63-18.91,26.54-28.3,39.86-2.59,3.67-3.8,8.77-9.51,9.25-.28,0-.55.37-.78.61-2,2.05-3.09,4.4-2,7.23.94,2.4,2.76,3.86,5.44,3.41,3.07-.52,5.23-3.26,4.66-5.62-1.58-6.44,2.93-9.76,5.89-13.93,25.7-36.24,54.74-69.63,86.13-101,2.34-2.35,4.18-5.2,6.66-8.31,3.77,4.21,2.38,7.57,2.09,10.54a202.94,202.94,0,0,1-32.48,92.35,292.74,292.74,0,0,1-41.1,50.12c-13.52,13.22-25.37,28.26-42.65,38.74,6.65,0,8.48-.65,15.14-6,4.14-3.35,8-7,12-10.58,4.12-3.71,8.19-7.48,13.18-12,.73,9.84,1.37,18.31,2,26.79a58.86,58.86,0,0,0,4.34,18.4c4.12,9.89,8.85,12,18.84,8.66,2.5-.84,5-1.78,7.2-2.59,2.83,1.52,1.61,3.75,1.43,5.45-.93,8.65-1.3,17.31,0,25.91.71,4.76-1.13,6.87-5.56,7.39-18.23,3.68-35.48-.11-52-7.46-6.81-3-13.65-5-17.91-4.88,16.68,2.47,34.43,12.48,54,16,21.16,1.92,40-3.28,55.69-18.15q9.75-9.21,20.05-17.79A97.16,97.16,0,0,1,413.81,1264.52Z"/><path class="cls-38" d="M323.49,1572.86c1.31,12.08,4.49,15.28,16.9,15.83,21.76,1,43.07-2.26,64.1-7.64,2.54-.65,5.08-1.32,9.14-2.38-2.07,6.44-5.41,11.18-8,16.21-6.53,12.89-14.82,24.42-26.12,33.63-2.07,1.69-4,3.4-6.77,3.89a293.34,293.34,0,0,1-92.65,1.33c1.5-5.23,3.61-9.9,4.09-14.73,1.44-14.42-1.53-27.94-11.2-39.16-6.93-8-14.5-15.51-22.45-23.94-.88,4.26,1.52,6.61,2.92,9.1,2.95,5.23,6.9,9.76,10.89,14.23,16,17.93,18.09,37.62,7.78,59.1-2.24,4.66-6.46,8.51-6.3,14.24a6.38,6.38,0,0,0-.91,1.19,6.07,6.07,0,0,1,.8-1.28c4.53-1,5.55-5.41,7.75-8.48s4.47-4.08,8.28-3.47c7.56,1.2,15.2,1.87,22.82,2.64,43.5,4.42,84.94-3.39,124.62-21.27,19.83-8.93,40.51-15.29,61.57-20.39,25.13-6.09,50.3-5,75.18,1.43a73.91,73.91,0,0,1,36.27,22,42.13,42.13,0,0,1,7.75,11.57c3.66,8.34,2.89,16.15-2.41,23.61-4.2,5.9-9.91,9.74-16.34,12.77-23.33,11-47.89,12.85-73.23,10.8-44.5-3.61-88.7-9.9-133.08-14.48-29.28-3-58.56-.06-87.66,4.22-31.33,4.61-61.9,13-93.13,18.2-22.11,3.66-43.72,4.34-64.73-5-16.38-7.27-23-19.12-19.73-36.88,1.55-8.5,3.8-16.89,5.89-25.29,3-12.18,1.9-23.63-6.43-36,.61,9.92,6.32,17.68,2.21,26.14-4.78-2.39-7.46-6.26-10-10.13-14.12-21.65-22.62-45.24-23.51-71.23-1-29.64,3.82-58.42,13.49-86.41.85-2.45,1-5.4,4.32-6.13,13.41-1.49,26.29,2.66,39.45,3.85,11.88,1.07,23.66,3.76,35.65,3.12,9.41-.51,18.49,1.95,27.8,2.1,34.54.54,68.1-5.8,101.28-14.55,12.63-3.33,14.31-2.22,14.76,11.1,1.31,38.59-2.55,77.1-1.8,115.68C322.88,1565.61,322.14,1569.31,323.49,1572.86Z"/><path class="cls-6" d="M109.36,1430.82c6,3.35,12.81,3.48,19.3,4.34,21.76,2.87,43.42,6.53,65.4,7.77,28.16,1.58,55.81-2,83.33-7.22A280.86,280.86,0,0,0,341,1416c4.82-2.19,7.59.32,10.52,3,4.4,4,7.34,9.46,13.3,13.44,3-10.61,9-19.42,13.84-28.55a4.71,4.71,0,0,1,3.65,2.42c18,26.51,34.91,53.61,42.42,85.26,5.06,21.39,8.58,43,7.57,65.2-.32,7-2.49,11.25-8.89,13.58a10.38,10.38,0,0,0-2.31,1.74c-14.94,4.43-29.78,9.16-45.36,11.11-11.26,1.42-22.55,1.46-33.82,1.37-11.11-.09-14.3-3.09-15-14.11s-.46-21.93-.7-32.89c-.17-7.64-.45-15.28-.68-22.91-2.65-3.55-1.72-7.69-1.74-11.6-.09-20.3,0-40.6-.08-60.9,0-9.61-.58-9.74-9.76-7.12-43.45,12.4-87.42,18.48-132.83,14-23.05-2.3-46-5-68.89-8.48a8.91,8.91,0,0,1-4.54-1.83C104,1435.35,104.4,1433.43,109.36,1430.82Z"/><path class="cls-39" d="M90.1,915c1.94-3.69,1.5-7.74,1.73-11.68a313.14,313.14,0,0,0-2.25-62.49c-1.27-1.94-.18-4.41-1.41-6.37l-.53-3.71c-.64-1.89-2-4.11,1.81-4,7.12,24.82,9.47,50.18,8.65,75.9-.17,5.31,0,10.62-.06,15.93-2.18,49.8-15,97.62-27.29,145.5-5,19.28-10.35,38.44-15.56,57.66-.6,2.22-1.75,4.33-1.34,6.76-8.57,24.23-13.78,49.34-19.05,74.41a652.73,652.73,0,0,0-13,97.92c-2,36.55,2.26,72.49,8.74,108.29,5.17,28.5,10.15,57.06,19.14,84.7q8.49,26.13,18.82,51.59c3.41,8.37,7.71,16.34,14.59,22.43,2.71,2.4,3.62,5.45,4.89,8.5,6.8,16.37,14,32.5,28.35,44,2.51,2,3.76,4,2.59,7.67-2.52,7.81-4.39,15.83-6.71,24.46-5-2.63-7.58-6.79-10-11-16.38-27.83-33.15-55.45-46.66-84.86-20.4-44.39-35.36-90.47-43.67-138.67-6.56-38.08-5.59-76.25-2.3-114.55,4.51-52.53,12-104.52,25.88-155.46,9.43-34.69,19.16-69.3,28.75-104A1066.66,1066.66,0,0,0,89,929.91C89.77,925,89.75,920,90.1,915Z"/><path class="cls-39" d="M153.22,1348.18c-9.54,10.52-19,21.07-27,33.16-38.41-53.87-43.88-169,37.35-239-1.23,8.06-5.76,14.55-5.85,22.1-1.34,20.51,5.61,38.25,18.07,54.15l-.11-.13c3.49,5.7,9.49,9.17,13,14.92,6.53,10.69,7.48,22.4,7.08,34.45C192.08,1300.19,177.67,1326.85,153.22,1348.18Z"/><path class="cls-38" d="M116.41,1395.71c-13-12.4-25-25.06-32.1-41.8-6.61-15.63-14.57-30.75-17.52-47.69-8.19-47,1.15-90,30.15-128.33a115.85,115.85,0,0,1,22.84-22.26q31.89-24.09,65.23-46.14c6-3.93,11.45-8.57,17.61-12.34-5,7.47-11.34,13.4-18.28,18.84-12.85,10-25.52,20.25-36.89,32.1a237,237,0,0,0-32.29,43.07c-10.24,17.16-15.38,36.08-18.36,55.61-3.88,25.43-6.37,51-1,76.51,3.55,17,8.7,33.51,17.65,48.61,2,3.42,3.3,7.31,5.41,10.68C121.78,1387.28,121.31,1391.25,116.41,1395.71Z"/><path class="cls-18" d="M351.75,1156.27c.77,11.14-1.45,19.93-2.23,28.82-2,22.47-3.77,45-7.34,67.27-1.3,8.11-4.87,13.39-12.93,15.67-4.38,1.23-8.56,3.14-13.14,4.86-3.33-5.75-4.9-11.8-6.26-17.92a74.5,74.5,0,0,1-1.32-7.86c-1-9.24-3.41-18.63-2.49-27.69s10.44-13.92,16.09-20.61C332.87,1186.12,341,1171.68,351.75,1156.27Z"/><path class="cls-40" d="M107.76,1438.66c17.46,2.18,34.88,4.67,52.38,6.49,31.8,3.31,63.8,6.39,95.52.79,20.53-3.62,41.44-6.07,61.28-13.24,2.34-.85,4.74-2.69,8.75-1,1.21,27.33,0,55.15-.09,83-2.64,3.19-1.45,7-1.52,10.53-.3,15.9-.41,31.8-.59,47.7-2.31-3.65-1.62-7.75-1.57-11.67.49-35.6-1.14-71.2.3-106.79.25-6.26.36-12.57-1-19.53a408.77,408.77,0,0,1-51.56,12.31,329.17,329.17,0,0,1-74.37,4.57c-28.29-1.47-56.21-5.2-84.17-9-2-.27-4-.5-5.47-2Z"/><path class="cls-41" d="M270.14,1028.84c4.21-.12,15.2,6.54,16.86,9.92,1,2.12.22,3.82-.82,5.54-4.62,7.64-9.31,15.23-13.85,22.91-1.4,2.36-2.78,3.24-5.59,2.08-2.59-1.08-4.91-1.79-4.42-5.35,1.46-10.47,2.77-21,4.21-31.43C266.82,1030.4,267.84,1028.75,270.14,1028.84Z"/><path class="cls-42" d="M243.79,1112.51c-9.13,10.09-17,21.63-30.54,27.12-.29-1.3-.72-2.21-.51-2.4,9.55-8.64,12.64-19.7,12.55-32.14-.06-7.22-.17-14.54,4.17-20.93.55,2.72,1.27,4.73,3.79,1.15a22.74,22.74,0,0,1,2.65-2.73c2.32,2.84,4.1,5.91,4.22,9.7-1,.87-3.7.2-2.63,2.83.48,1.19,1.08,2.64,2.07,3.24,5.65,3.45,6.57,7.94,3.5,13.57A5.22,5.22,0,0,0,243.79,1112.51Z"/><path class="cls-43" d="M465.71,1600.63c23.88-13.52,49.56-18.48,76.72-15.72a36.09,36.09,0,0,1,19.23,7.74c2.7,2.2-1.3,1.26-1.89,2.09-24.71-5.47-49.32-5.52-73.92.86C479.15,1597.33,472.84,1600.65,465.71,1600.63Z"/><path class="cls-44" d="M153.22,1348.18c6-7.8,12.24-15.46,18.05-23.42,12.24-16.75,21.19-34.91,22.84-56,5,1.58,2.24,5.08,2,8a94.91,94.91,0,0,1-12.36,36.65c-7.78,13.56-16.07,26.82-27.5,37.75Z"/><path class="cls-23" d="M311.9,1316.37c-12.22.24-23.55-3.51-34.39-8.52-8.31-3.83-16.64-6.5-28-5.29,8.74-5.88,15.68-2.88,22.34-1,5.72,1.62,11.12,4.31,16.76,6.23,12.73,4.33,25.93,5.16,39.25,4.89-2.19,2.57-5.2,1.7-8,1.94S314.12,1313.76,311.9,1316.37Z"/><path class="cls-45" d="M311.76,991.67c.1-1.66-.16-3.43.35-4.95q10.06-29.75,20.34-59.41a15.83,15.83,0,0,1,2-3.33.9.9,0,0,1,.85-.15c.28.12.45.47.67.73C331.35,948.17,322.53,970.27,311.76,991.67Z"/><path class="cls-46" d="M175.82,1218.63c-1.07-.7-2.4-1.2-3.15-2.15-10.49-13.4-16.44-28.53-17-45.65-.07-2.3-.07-4.69,2-6.35l1.73,1.7c-.56,18,4.76,34.17,15.08,48.81C175.27,1216,175.41,1217.41,175.82,1218.63Z"/><path class="cls-47" d="M240.12,1092.28c-4.59-1.85-5.36-5.36-4.22-9.7,2.86-2.22,6.16-3.5,8.85-.48,2.54,2.84,6.48-5,7.57,1.2.8,4.59-6,1-6.71,5.42C245.39,1090.16,242,1091.11,240.12,1092.28Z"/><path class="cls-48" d="M351.2,842.07c2.26,6.45.39,10.95-2,15.29a2.76,2.76,0,0,1-3.22,1.56,3,3,0,0,1-2.14-3C343.33,850.24,345.81,846.08,351.2,842.07Z"/><path class="cls-43" d="M463.85,1602.69c-.68-.41-2.34-.84-1.88-1.17,1-.76,2.61-.74,4-1C466.06,1602,464.76,1602.16,463.85,1602.69Z"/><path class="cls-49" d="M594,1257c-5,.25-10,.6-14.95.72-2.39.06-4.71-.42-5.39-3.33-3.57-15.22-9.53-29.8-12.13-45.27-1.19-7-.91-7.45,6.45-6.4,15.68,2.26,31.19.46,46.72-1.38,2-.24,4-.47,6-.55,3.39-.14,4.86,1.35,4.22,4.89-1.6,8.83-3.07,17.67-4.6,26.51a55.81,55.81,0,0,1-1.26,6.87c-1.65,5.36.18,12.56-4.45,15.9-4.37,3.15-11,1.23-16.58,1.78-1.32.13-2.66,0-4,0Z"/><path class="cls-50" d="M613.42,1198.26l-41.9.69c-9.59.16-10.84-.72-12.68-9.67-.93-4.54-1.52-9.16-2.45-15,25.44,2,50.46,2,76.22-4.66-1,8.9-3.27,16.39-5.59,23.84-.14.47-1.82.46-2.79.68-17.59-1.06-35.21-3.15-52.61,1.56-1.27.54,1,1.7,0,.74-3.32-3.48,36.78-4.57,48.15-1.29C619,1199.07,615.18,1196.53,613.42,1198.26Z"/><path class="cls-51" d="M559.85,1168.18c23.42-5.76,46.9-11,70.78-3C607.29,1172,583.73,1173.55,559.85,1168.18Z"/><path class="cls-52" d="M613.42,1198.26c1.6-1.47,4.47-.53,6.29-3.82-17.63-.06-34.52,0-53,2.62,13.34-6.63,37.13-7.52,57.5-2.87C621.38,1197.55,618.22,1200.09,613.42,1198.26Z"/><path class="cls-53" d="M89.45,826.79c-1.57.89-1.21,2.65-1.81,4C82,812,76.8,793,69.53,774.71c-.59-2.75-1.17-5.5-1.76-8.25,6.25,10.2,9.44,21.71,13.68,32.74C84.87,808.12,88.22,817.18,89.45,826.79Z"/><path class="cls-54" d="M43.56,714.74a6.82,6.82,0,0,0,4,6c2,7.15,7.42,12.51,10.24,19.24,2.29,5.45,6.26,10.28,6.05,16.63q-11.68-20.34-23.33-40.7c-.48-.85-1.18-2.67,1.28-2A11.09,11.09,0,0,1,43.56,714.74Z"/><path class="cls-54" d="M67.86,766.61a15.5,15.5,0,0,1-4.09-10.15C66.77,759.18,67.86,762.68,67.86,766.61Z"/><path class="cls-53" d="M88.17,834.47c2.08,1.77,2,4,1.41,6.37C87.94,839,87.81,836.78,88.17,834.47Z"/><path class="cls-46" d="M196.09,1276.72c-1.12-2.54.56-5.78-2-8-.08-2.28-.34-4.57-.23-6.84.71-14.83-3-27.85-14.86-37.75-1.69-1.41-3.63-3-3.31-5.67C195.13,1233.31,202.44,1254.19,196.09,1276.72Z"/><path class="cls-55" d="M244.23,1178.45a6.28,6.28,0,0,1-6.49-6.12,6,6,0,0,1,6.25-6.27c3.49.15,5.51,2.13,5.93,5.55A6.17,6.17,0,0,1,244.23,1178.45Z"/><path class="cls-56" d="M280.8,1152.73c-.73,3.56-3,5.33-6.37,4.9-2.81-.35-4.95-2.15-4.76-5.35.19-3.42,2-5.71,5.66-5.39C278.69,1147.18,280.59,1149.34,280.8,1152.73Z"/><path class="cls-23" d="M213.76,1418.47c-.19,2.83-2.82,3.32-4.84,4.37.75-2.34,1.9-4.25,5-4.25Z"/><path class="cls-20" d="M265.75,1652.48c.91,3-1.6,4.25-3.24,7.24-.15-3.94.5-6.14,3.35-7.15Z"/><path class="cls-57" d="M177.48,1257.35c-18.31,29.32-39.64,56.22-62,85.05C117.85,1333.56,165.16,1268.74,177.48,1257.35Z"/><path class="cls-58" d="M181.63,1274.1a584.54,584.54,0,0,1-59.17,73.61C140.2,1321.55,160.91,1297.74,181.63,1274.1Z"/><path class="cls-59" d="M113.45,1306.19c.75-4.14,3.69-7,6-10.19,14.44-19.55,29.84-38.34,45.29-57.1,1.13-1.39,2-3.22,4.39-3.51.19,3-2,4.82-3.51,6.77q-24.1,31.21-48.39,62.28a16.36,16.36,0,0,1-3.06,2.43Z"/><path class="cls-60" d="M164.34,1259a7.18,7.18,0,0,1-.66,1.86c-16.45,22.47-34.29,43.88-50.66,67.62,1.07-10.37,28.19-47.91,50.23-70.48C164.19,1257.76,164.52,1258.12,164.34,1259Z"/><path class="cls-61" d="M113.23,1290c11.77-19.7,25.67-37.87,39.88-55.82,3.57-4.52,7.49-8.76,11.38-13.27,1.58,2.28.21,3.17-.5,4.12q-23.67,32.05-47.41,64a15.9,15.9,0,0,1-2.15,2C113.49,1291.29,113.07,1291,113.23,1290Z"/><path class="cls-62" d="M152.29,1205.83,108.45,1263C110.36,1252.73,135.38,1218.68,152.29,1205.83Z"/><path class="cls-63" d="M111.2,1273.94c11-17.1,25.1-31.83,37.14-48.14,2.43-3.29,4.81-6.77,8.92-8.52-13.75,20.22-28.22,39.83-44.8,57.82C111.5,1275.3,111.05,1275,111.2,1273.94Z"/><path class="cls-62" d="M144.39,1201.1c-9,14.15-27.56,36.76-33.42,39.78,8.46-15.38,20.57-28,32.22-40.9C144.15,1199.76,144.55,1200.13,144.39,1201.1Z"/><path class="cls-63" d="M147.13,1185.32c-8.14,13.37-19.21,24.3-30,35.5C124.72,1207,135.9,1196.16,147.13,1185.32Z"/><path class="cls-64" d="M124.51,1364.48c6.28-11.79,15.2-21.51,24.91-32.5C147.17,1340.2,136,1355,124.51,1364.48Z"/><path class="cls-65" d="M147,1170.07c-1.8,4.2-4.32,7.72-9.8,11.34A19,19,0,0,1,147,1170.07Z"/><path class="cls-60" d="M163.25,1258c1.54-3,3.12-6.07,6.42-7.65l.42.4c-.65,3.64-3,6.09-5.76,8.25C164,1258.7,163.62,1258.36,163.25,1258Z"/><path class="cls-60" d="M169.67,1250.39c.56-3.26,2.9-5.09,5.43-6.79a8.94,8.94,0,0,1-5,7.19Z"/><path class="cls-62" d="M143.19,1200c1.16-2.9,3-5.12,6.81-7.75-1,4.79-3.26,6.86-5.61,8.87C144,1200.72,143.6,1200.35,143.19,1200Z"/><path class="cls-59" d="M114.19,1306.87a13.31,13.31,0,0,1-1.12,2.52c-.51.72-1.74,1.86-1.93,1.73-1.63-1.09-.23-2.15.36-3.08a10.76,10.76,0,0,1,2-1.85Z"/><path class="cls-61" d="M114.43,1291.07c-.52,2.22-1.91,3.63-4,5.11-.68-3.36,1.1-4.76,2.78-6.21Z"/><path class="cls-63" d="M112.46,1275.1c-.57,2-2,3.25-3.68,4.7-1.34-3.1.79-4.38,2.42-5.86Z"/><path class="cls-66" d="M227.61,1122.63c1.35-7.73,2.74-14.13,2.42-20.67.77-.08,1.65-.43,1.92-.16C241.31,1111,241.31,1111,227.61,1122.63Z"/></g></g></svg>