<svg xmlns="http://www.w3.org/2000/svg" viewBox="0 0 877.17 1462.23"><defs><style>.cls-1{fill:#050302;}.cls-2{fill:#15110e;}.cls-3{fill:#f0e19a;}.cls-4{fill:#ff9322;}.cls-5{fill:#432f1a;}.cls-6{fill:#fff;}.cls-7{fill:#fe9322;}.cls-8{fill:#422f1a;}.cls-9{fill:#fbfbfb;}.cls-10{fill:#f58e21;}.cls-11{fill:#eff0f0;}.cls-12{fill:#423b30;}.cls-13{fill:#473b28;}.cls-14{fill:#7d6e4c;}.cls-15{fill:#010000;}.cls-16{fill:#fffefc;}.cls-17{fill:#63c25c;}.cls-18{fill:#fefefe;}.cls-19{fill:#1c1f15;}</style></defs><title>Layer 3</title><g id="Layer_2" data-name="Layer 2"><g id="Layer_4" data-name="Layer 4"><g id="Layer_3" data-name="Layer 3"><path class="cls-1" d="M785.72,282.77c-1-6.33-.14-12.7.51-18.91,3.94-37.23-1.64-73.76-7.18-110.37-3.89-25.68-9.95-51-12.37-76.92-1.5-16.1-.9-31.88,5.11-47.21,9.72-24.8,35-35.8,59.6-25.53,12.45,5.19,23.2,13.08,32.92,22.3,7.35,7,10.19,16.21,11.68,25.93,2.78,18.09.15,35.9-2.89,53.66-5.53,32.2-15,63.49-22,95.37-11,50.26-18,101-19.32,152.43-.58,23-1.08,46-2.11,69-.26,5.74,1.64,8.57,6.79,10.33,6.29,2.15,12.51,4.56,18.61,7.2,5.95,2.57,6.42,6.29,1.29,10.3-5.46,4.28-12.06,5.56-18.8,5.68-9.12.17-9.27,0-9.62,9.46-.82,22.31-1.29,44.66-3.08,66.9-1.24,15.55,1.65,30.45,3.74,45.6a388.09,388.09,0,0,1-2.5,122.39c-.24,1.28-.07,2.75-1.36,3.59a12.83,12.83,0,0,1-2.21.84c-1.75-5.64-.37-12-3.93-17.12-.3-.42-1.1-.47-2.06-.86C815,705,813.64,723.11,812,741.2c-3.63,40.48-7.43,80.95-11,121.43-3.17,35.5-5.88,71-9.33,106.52-3.36,34.48-6.27,69-8.18,103.59-4.25,77.23-6.57,154.5-4.09,231.85.71,22,1.23,44,.89,66-.38,24.37-3.94,48.45-6.79,72.59-.83,7-4.41,10.82-11.53,13.1a119.59,119.59,0,0,1-42.29,5.85c-18.71-.85-30-14-27.81-32.52,1.38-11.62,5.4-22.66,7.92-34,4.94-22.22,5.16-45,7.45-67.47,7.2-70.68,8.92-141.63,11.07-212.57,1.22-40.3,3.58-80.56,5.34-120.84.33-7.65,0-15.34.44-23,.28-4.76-1.28-6.18-6.08-6.46-30.28-1.77-60.55-3.58-90.9-2.77-39.31,1.06-78.63,1.94-117.92,3.59a903.06,903.06,0,0,0-109.29,11.13,15.43,15.43,0,0,0-11.24,7.06,234.39,234.39,0,0,0-22.38,41.18c-13.22,31.47-21.74,64.2-27.73,97.78-8.5,47.72-13,95.71-12.43,144.15.42,35.34,2.34,70.6,8,105.52,2,12.47,5.63,24.67,5.92,37.43.12,5.37-1,10.56-1.63,15.83-1.38,11-8.13,16.45-18,18.23a141.29,141.29,0,0,1-47.71.66c-10.2-1.65-18-11.41-19-21.79a77.4,77.4,0,0,1,1.07-22.9c6.88-33.32,10.67-67.07,14.89-100.78,5.06-40.34,10.41-80.65,12.89-121.22,2.53-41.25,6.7-82.35,9.74-123.55,1.69-23,2.06-45.91,2.43-68.9.09-5.55-1.47-9.17-6.13-12.4-8.28-5.76-14.53-13.73-20.38-21.83-7.81-10.8-15.31-21.82-22.63-32.95-2.49-3.77-4.36-5.35-9.51-3.88-17.3,4.92-29.6-.8-38.47-16.52a84.79,84.79,0,0,1-10.91-38.12c-.72-16.43-6.86-28.82-19.6-39.28-14.24-11.7-25.18-26.53-34.22-42.67A126.86,126.86,0,0,1,121,748.64a51.56,51.56,0,0,1-1.35-9.85c-.27-4.16,2.47-4.22,5.26-3.11,3.23,1.28,5.18,4.19,6.94,7q6.41,10.13,12.36,20.54a118,118,0,0,0,26.6,32.18c1.44,1.2,2.58,3.12,5.52,2.67A249,249,0,0,0,165,754.79,589.29,589.29,0,0,0,131.77,680c-6.45-12.06-16.41-20.83-26.53-29.57-3.36-2.91-7.9-4.9-9.31-9.76,2.92-2.06,4.74.19,6.5,1.29a115,115,0,0,1,21.07,16.77c31.38,31.87,57.78,67,73.69,109.39a363.67,363.67,0,0,0,23.55,49.58c8.2,14.65,20.34,25.32,34,34.52a18.89,18.89,0,0,0,14.23,3.1,162,162,0,0,0,27-7c3.51-1.24,4.53-2.82,4.24-6.46-.52-6.62-.94-13.33,1.36-19.8.89-2.52-.46-4.45-1.78-6.42C280,786.08,279.64,753.81,287,720.55c2.48-11.13,2.71-11.08-6.44-17.29-.55-.37-1.08-.79-1.64-1.15-9.35-6-6.35-6-14.54,1.53-2.95,2.7-5.68,5.64-8.72,8.24-1.86,1.59-3.12,5.11-6.31,3.63-2.52-1.17-1.29-4.14-1.37-6.31-.37-10.51-3.41-20.25-7.91-29.67a26.33,26.33,0,0,0-9.65-11.1c-12-7.81-23.79-15.95-35.81-23.75-8.41-5.46-16.09-11.79-23.89-18-21.39-17.16-31.44-40.19-34.25-66.59-2.2-20.66-1.11-41.33,5.93-61.2,5.27-14.85,13.2-28.36,22.43-41,2.83-3.89,3.53-7.2,2.2-11.89-14.37-50.7-30.93-100.52-55.25-147.52-23.39-45.21-52-86.83-84.56-125.81a95.59,95.59,0,0,0-20.9-18.5A52.8,52.8,0,0,1,.74,150a3,3,0,0,1-.66-2.64c.48-1.45,1.93-1.72,3.26-1.28a13.4,13.4,0,0,1,3.54,1.79c18.87,13.72,40.57,21.36,62.42,28.44,32.91,10.67,65.54,22.41,99.47,29.54,32.58,6.85,65.35,12.91,98.9,12.57,6.64-.06,7.24,1,5.52,7.86A109.86,109.86,0,0,0,270,246.94a902.73,902.73,0,0,0,1.48,112.88c.55,7.64,1.24,15.27,1.84,22.91.25,3.14,1.19,5.63,4.33,7.24,20.38,10.47,39.86,23,63.09,26.76,10,1.63,20,1.65,29.67-1.29a188.59,188.59,0,0,0,65-34.09A505.69,505.69,0,0,0,558.12,236.66a174.88,174.88,0,0,1,15.1-22.33c23.3-29.41,33.16-63.32,34.26-100.27.12-4,.31-8,.69-12A2.34,2.34,0,0,1,611,100a4.48,4.48,0,0,1,2.49,1.33,7.82,7.82,0,0,1,1.17,2.73c7.94,24.68,18,48.79,20.93,74.86.44,4,.47,8,.69,11.92.9,5,1.47,10-.32,14.91-6.64-1.38-5.67-7.18-6.34-11.62-3.24-21.74-6.6-43.44-14.8-64.18-1.82,28.49-11.52,54.3-27.62,77.35-29,41.48-54.87,85-85.86,125.18-19.27,25-26.82,55.52-30.61,86.63-1.49,12.18-2.21,24.43-.13,36.73,2.62,15.52,7.45,29.49,20.89,39.38,19.87,14.62,33.94,33.11,39.86,57.82,6.35,26.47-15.23,56.83-51.79,52.32-18.12-2.24-31.69-13.16-45.86-23.05a15.37,15.37,0,0,0-6.64-2.66c-13.83-5.26-27.49-3-41,1.11-13.31,4-25.65,5.26-33.81-9.3-1.75-3.12-4.51-1.87-7.08-1.15-9.91,2.78-19.71,6-30.17,6.1-4.43,0-5.95,2.59-4.67,6.63,5.39,17.1,10.67,34.25,19.32,50.12,3,5.52,6.19,5.86,11,2A243.85,243.85,0,0,1,388,605.88c3.28-1.57,6.42-3.55,10.21-3.77,2.21.21,4.09.81,4.33,3.47-3.15,6.14-9.43,8.16-14.91,11.13-20.86,11.31-40.25,24.58-57,41.25,1.48,4.25,5,3.8,7.66,4.53C393.69,677.74,449,674.11,504,660.24c15.73-4,29.3-12.36,40.89-24,7.24-7.28,13.58-15.6,22.6-21a2.87,2.87,0,0,1,3.41,2.32c.12,4-2.21,7-4.56,9.72-17.36,20.39-37,37.52-64,43.88-69.45,16.38-138.35,17.24-204.84-11.7-36.54-15.91-67.41-40.67-90.28-73.75-15.33-22.17-15.29-47.05-6.68-71.84,2.75-7.92,2.65-14.69-1.23-22-2.81-5.28-5.84-5.54-10.27-2.26-13.71,10.15-21.86,24.06-26.78,40a92.13,92.13,0,0,0-3.92,22.61c-.14,2.87.05,7.32-3.53,7.24s-4.6-4.31-4.48-7.78c.69-19.25,3-38.4,16-53.56,9.39-11,9.21-21.21,1.94-33.63-8.56,13.82-16.78,27.27-20.41,42.87a148.09,148.09,0,0,0-.07,68.32c6.44,27.2,26.19,44.19,47.93,59.09,50,34.25,101.84,66,148.11,105.44C400.7,788.52,449.09,844,483.38,910.88c4.67,9.1,7.35,19,11.42,28,13.4-26.22,30.74-49.79,48.54-73.13,39.47-51.76,88.5-93,141.61-129.82q22.17-15.37,43.83-31.51a143.43,143.43,0,0,0,42.11-50c4.84-9.43,6-9.23,15.54-4.46,14.22,7.08,27,15.79,35.85,29.88,3.74-33.25,4-66-.64-99.05-6.57-46.41-25.25-87.35-52-125.17-4.6-6.51-3.11-9.47,4.93-10.31,11.07-1.15,21.94.95,32.77,2.71,13,2.13,25.8,1.16,39-2-1.75-3.28-4.85-3.74-7.36-4.73-21.49-8.44-39.62-21.87-55.82-38-10.85-10.78-22.55-20.82-31.28-33.61-7.76-11.37-7.19-15.71,5.14-22a145.61,145.61,0,0,0,53.87-46.61c-8.33,1.48-16,3.8-24,3-3.34-.34-7.62,1.1-9.25-3.71C788.89,298.44,783.36,288.8,785.72,282.77Z"/><path class="cls-2" d="M785.72,282.77c.15,2.3.41,4.61.41,6.91,0,8.5,0,8.5-8.13,11.82-3.48,3.73-8,3-12.19,2.38-24.26-3.44-47.31-11.08-69.48-21.28-8.71-4-9.76-7.74-5-14.64,15.65-22.49,22.87-47.88,25.79-74.7.86-7.94,2.62-15.78,2.6-24.24a295.87,295.87,0,0,1-71.86,51.5c-4.74,2.43-10.92,8-15.21,2.78-3.66-4.49-2.57-12,1.39-17.62,3.56-4.54.68-10,2.17-14.88,2.75,9.18,1.08,18.38-.37,28.36,6.4-1.56,11.27-4.82,16.14-7.8,25.29-15.5,49.65-32.2,69.47-54.66a15.43,15.43,0,0,1,3.64-3.36c2.63-1.51,4.49-.58,4.87,2.48a21.83,21.83,0,0,1,0,5c-1.57,14.87-2.9,29.78-4.87,44.59-3.41,25.58-13,48.56-30.6,69,10.3,5.74,21,9.65,31.73,13.4,16.38,5.72,33.13,9.74,50.55,10.46,6.91.28,6.88.22,7.65-6.68C784.79,288.64,785.3,285.71,785.72,282.77Z"/><path class="cls-3" d="M634.08,205.68c-.78,5.79.82,11.76-2.87,19.38,19.34-6.67,34.39-16.74,49.21-27.12s29.59-21.41,43.11-36.6c-3.7,31-5.51,60.16-18,87.17-3.21,7-6.19,14-11.45,19.76-6.24,6.86-6.12,7.52,2.64,11.63a245.77,245.77,0,0,0,45.85,16.73c11.61,2.85,23.25,5.82,35.41,4.87,12.44,1.57,24.46-1.12,37.21-4,.09,2.91-1.57,4.41-2.82,6.06-9.92,13-20.4,25.61-34.22,34.72-7.49,4.94-15.57,9-23.28,13.59-8,4.75-8.11,5-3.22,12.74,9.32,14.81,22.08,26.58,34.68,38.49,19.35,18.3,41.09,32.73,67.35,41.26-3.07,4.79-7.42,4.87-11.38,5.64-16.65,3.23-33.17,1.23-49.65-1.4a133.19,133.19,0,0,0-20.91-1.49c-1.26,0-2.69,0-3.49,1.36s0,2.38.85,3.46c20.17,24.86,34.66,52.87,44.55,83.15,12.78,39.14,15.76,79.53,13.14,120.41-.61,9.6-.38,19.34-3.17,29.65-5.47-5.62-8.49-12.51-14.29-17.29A164.09,164.09,0,0,0,781.73,650c-3.38-1.79-5.4-1.66-7,2.07-1.19,2.73-3.06,5.16-4.35,7.85-9.49,19.76-24.21,34.93-41.7,47.65C704.14,725.41,679.48,743.05,655,761A556.68,556.68,0,0,0,535.81,879.8c-7.53,10.18-14.92,20.43-21.81,31S500.44,932.21,495.23,944c-2.35-1.23-2.71-3.5-3.35-5.54-10.45-33.24-29.18-62.12-49.68-89.58-38.88-52.07-84-98.12-137.12-136.1-35.5-25.39-71.59-49.91-108-74-7.8-5.17-15-11.07-22.3-16.88-18.52-14.71-28.32-34.3-31.81-57.09-3.41-22.3-2.73-44.58,4.95-66.12,5.16-14.44,12.81-27.66,21.64-42.24,3.09,10.07,5.68,18.56,8.31,27,1.12,3.65-1.72,5.44-3.54,7.69-9.81,12.08-17.51,25.28-19.64,40.9-1.14,8.33-2.86,16.83-.29,25.49,2.89-31.32,12.38-58.73,41.7-75.55,1.14,1.5,1.74,2.22,2.26,3,7.51,11.29,7.49,22.19,3.17,35.54-8.06,24.94-4.88,49.29,12.44,70.6C241.77,625.36,276,651,317.69,664.83c39.79,13.22,81.07,18.47,123.2,13.54,14.89-1.74,29.69-4,44.53-6,36.86-5.07,63.77-25.08,84.74-54.57a17.94,17.94,0,0,1,3.68-7.68A22.54,22.54,0,0,1,568.3,616a268.55,268.55,0,0,1-31.41,30.69c-11.73,9.87-25.74,15.57-40.51,18.54-37,7.43-74.27,12.5-112.16,8.33a335.76,335.76,0,0,1-58.58-11.7c-.26-3.7,2.43-5,4.14-6.68,15.65-15.69,33.67-28.17,53-38.83,6.41-3.53,12.73-7.22,19.09-10.84,8.67-8.75,19.06-15.68,26.78-25.47a3.59,3.59,0,0,1,5.28-.34c6.62,4.45,13.19,9,19.88,13.33,13.41,8.71,27.88,12,43.77,8.82,21.71-4.37,35.27-23.84,31.66-45.85-3.65-22.2-16.27-38.94-32.63-53.37a43.84,43.84,0,0,0-5.5-4.31c-15.55-9.78-21.44-25.19-23.1-42.19-4.32-44.23,6.17-85.23,29.25-123,4.48-7.33,10.53-13.69,15.74-20.58,18.1-23.91,33.73-49.48,50-74.62,10.29-15.91,22.17-30.71,31.3-47.46,10.07-18.45,15.65-38,18-58.73.32-2.83-.32-6,2.26-9.37a222.75,222.75,0,0,1,13.34,44.88C630.19,180,632,192.87,634.08,205.68Z"/><path class="cls-4" d="M475.79,560.83c-22.11-25.78-56.14-33-86.73-19-13.62,6.23-27,13-40.89,18.67-12.16,4.94-24.91,7.25-37.77,8.95-15.32,2-28.76-4.25-41.73-11.12-15.81-8.38-29-20.14-39.94-34.25a183,183,0,0,1-34.48-72.52,85.93,85.93,0,0,1,1.88-45.41c4.38-13.88,12.29-25.06,25.68-31.68,7-3.46,14-4.1,20.87.42,4.46,2.92,9.13,5.52,13.5,8.56,18.66,13,38.75,23.47,59.45,32.62,23,10.15,46.54,10.28,70,1.11,19.71-7.69,37.86-18.08,53.87-32,13.81-12,27.45-24.24,42.27-37.36C464.67,392,453.25,435.61,470.1,481.85c-18-8.82-27.49-21.27-33.63-44.33-2.64,14.49,3.33,25.13,12.29,34.54,6.69,7,14.68,12.52,22.64,18,11,7.58,21.92,15.24,31,25.14,8.62,9.41,15.51,19.84,19.62,32.13,11.17,33.47-14,54.93-44.54,49.51a51.81,51.81,0,0,1-21.92-9.21c-3-2.17-6-4.18-9-6.36-17.7-13.11-37.26-14.95-58-9.66-4.19,1.07-8.31,2.43-12.51,3.46a15.72,15.72,0,0,1-12.53-1.79c-5.16-3.28-5.48-10.51,0-13,14.23-6.49,27.53-15.17,42.75-19.27,15.81-4.26,31.08-1.86,45.41,5.94C459.8,551.4,467.75,556.2,475.79,560.83Z"/><path class="cls-5" d="M779.34,654.37a147.07,147.07,0,0,1,26.06,17.34c6.37,5.24,7.36,11.46,6.31,18.7-2.19,15.12-2.55,30.38-3.85,45.57-1.56,18.14-3.76,36.23-5.53,54.35-.81,8.25-1.06,16.52-2,24.79-2.19,18.42-2.61,37-4.53,55.5-2.31,22.09-4.25,44.2-6.14,66.32-.62,7.25-1.5,14.49-1.76,21.79-.24,6.76-.54,7.24-7.85,6.92-9.93-.43-20-.66-29.7-2.55-10.85-2.12-21.82-2-32.67-3-40.47-3.59-81.15-3.38-121.69-1.9-20.26.75-40.57.39-60.78,1.76-21.52,1.45-43.17,1.63-64.55,4.11-32.17,3.73-64.35,7.37-96.14,14.64-22.83,5.22-46,9.66-69,14.1-6.42,1.23-7.3.61-7.34-6.49-.13-25.32-.06-50.64-.2-76,0-6.28.32-12.53-1.51-18.81-1.71-5.91,0-7.53,6.49-7.81,10.33-.46,19.66.18,29,7.23,12.05,9.13,27.36,11.69,42.41,12.61a230.77,230.77,0,0,0,63.3-5.32c5.81-1.26,11.82-1.59,17.7-2.57,6.79-1.14,11.3,1.38,14.45,7.49,6.71,13,12.54,26.44,18.36,39.86,1.54,3.54,2.59,7.38,5.52,10.12,3.53-1.79,4-5,5.28-7.54,7.66-15.61,18.38-29.25,27.79-43.73,3.6-5.53,8.27-7,14.39-6,21.87,3.73,43.65,7.83,65.31,12.7,25.89,5.83,52,10.62,78.81,9.13,21.74-1.2,42.21-7.29,60-19.29,15.35-10.35,26-25.43,32.73-43.11C789,826.2,788.76,797.11,779,767.66c-7.21-21.82-15.41-43.19-25.84-63.67-1.56-3.06-3.18-5.76.32-8.78,12-10.31,18.66-24,24-38.49A13,13,0,0,1,779.34,654.37Z"/><path class="cls-3" d="M535.27,889.47c10.69-13,20-24.79,29.69-36.14,31-36.1,66.41-67.28,105-95,25.67-18.48,52.08-35.95,76.93-56.3,3,2.51,3.93,6.07,5.46,9.21,10.24,21,17.79,43,24.43,65.41,8.75,29.47,5.62,58-7.4,85.56-10.56,22.38-28.52,37.38-51.43,44.56-22.64,7.09-46.4,7.93-70.17,4.07-26.65-4.32-52.73-11.31-79.27-16C558,892.89,547.49,891.4,535.27,889.47Z"/><path class="cls-5" d="M728.49,1457.65c-11.84.12-20-2-26.39-8.79-4.57-4.9-6.22-10.36-5.25-17.28,1.68-11.87,5.66-23.15,8-34.86,2.61-13,4-26.13,5.42-39.32,2-19.45,1.92-39.07,5.28-58.41,1.52-8.79,1.74-17.93,1.93-26.76.38-18,1.89-35.87,2.9-53.75,1.42-25,.33-49.94,2.1-74.77,1.21-17,.15-34,1.79-50.79,1.78-18.28.34-36.65,2.16-54.77,2.07-20.64,1-41.22,1.69-61.82.06-1.66,0-3.34.12-5,.34-3.55,1.84-5.15,5.9-4.65,15.12,1.86,30.26,3.65,45.45,4.82,5.56.44,6.87,2.92,6.35,7.59-1.07,9.56-1,19.36-2.53,28.7-2,11.56-1.8,23.2-2.77,34.69-1.3,15.48-2.26,31.13-3,46.72-1.07,22.27-.48,44.59-2,66.78-3.32,47.59-1.75,95.2-1,142.76q.52,33.35,1.41,66.78c.44,17.32-1.7,34.41-3.57,51.59-.89,8.2-2.24,16.44-2.36,24.72-.07,4.79-2.1,7.63-6.42,8.84C751.22,1454.2,738.64,1457.08,728.49,1457.65Z"/><path class="cls-6" d="M33.83,170.42c76,26.84,151.5,53.4,233.7,55.28-9.12,35.91-3.66,71.75-2.87,107.48.36,16.22.76,32.49,3.21,50.2-6.53-4.3-11.67-7.86-17-11.15-15.89-9.83-27.54-9-41.95,3-16,13.36-21.5,31.51-22.93,51.39-1.24,17.34,3.54,33.64,9.18,50.26l-10.29,4.43c-3-3.79-3.51-8.49-4.68-12.81-9.74-36-19.69-72-33-106.83-23.79-62.35-56.16-119.92-98.06-172C44,183.28,38.94,176.84,33.83,170.42Z"/><path class="cls-5" d="M823.55,424.92c-10.1-3.73-16.8-10.86-24-16.93-14.3-12.06-14.71-12.43-13.19-31.05,1-12,1.61-23.86,1.57-35.82,0-3.75,1.67-6.31,4.26-8.58,9-8,16.34-17.45,23.23-27.27a43.05,43.05,0,0,0,2.79-4.11c1.09-2,2.61-4.23.55-6.37-1.56-1.62-3.74-1.07-5.67-.53-5.74,1.61-11.39,3.56-17.5,3.48-3.64,0-5.69-1.31-5.57-5.21.1-3.33-.55-6.82.22-10,3.76-15.38,1.44-31.13,2.86-46.68.94-10.18-.16-21.21-1.57-31.71-2.29-17-4.43-34.13-7.28-51.13-3-17.63-5.84-35.27-9.09-52.85-3.17-17.1-4.87-34.47-2.73-51.57,1.8-14.39,6.11-28.62,20.46-37,11.17-6.54,22.5-8,34.32-3.09a99,99,0,0,1,35,24.31,19.18,19.18,0,0,1,4.1,6.73c4.46,12.33,5.57,24.72,4.38,38-3.27,36.57-13.81,71.52-21.87,107.05-6.16,27.12-11.71,54.37-15.22,82-2.76,21.74-4.34,43.51-6.07,65.33-1.66,21-.51,41.91-1.91,62.79C825,404.47,824.37,414.32,823.55,424.92Z"/><path class="cls-5" d="M386.27,980.06c-7.95,12.85-15.71,25.19-21.73,38.51-11.93,26.4-21.45,53.58-26.6,82.19-3.76,20.85-7.84,41.65-11.36,62.54-1.44,8.47-1.31,17.21-2.72,25.7-2.52,15.12-2,30.44-3.19,45.64-1.5,18.81-2,37.88.78,56.78a55.72,55.72,0,0,1,.37,7c.76,32.55,3.63,64.85,10.86,96.7,2.76,12.17,1.63,24.41-.72,36.58-.56,2.9-2.55,3.15-4.7,4.21-8.6,4.25-18,4.4-27.13,5.52-6.89.84-14,.55-21,.15-12.94-.74-20.1-8.39-21.18-21.37-.7-8.44,1-16.66,2.59-24.71,4-19.82,7.34-39.67,9.7-59.77,2.89-24.65,5.53-49.34,9.29-73.91,2.4-15.65,3.23-31.64,4.72-47.47,2.66-28.43,3.93-56.92,6.1-85.36,2-25.78,4.15-51.54,6.06-77.34,1.14-15.3,1.18-30.53,1.61-45.8.23-8.1.74-8.54,8.95-10.19,20.78-4.16,41.57-8.24,62.25-12.84C374.77,981.56,380.53,982.51,386.27,980.06Z"/><path class="cls-3" d="M316.15,827.46c-31.76-32.82-32.41-71.5-21.4-114.09A636.83,636.83,0,0,1,461,888.35c-7.12,3.13-13.73,3.14-20.08,4.19-23,3.81-45.94,7.48-69.43,5.23-17.79-1.7-33.64-8-47.15-19.42-15.9-13.43-19.15-31.64-18.16-51.29,3.91-1.1,5.12,2.29,7.54,2.93,9.45,2.4,15.63,11.31,24.29,12.7C330.5,839.28,321.79,835.67,316.15,827.46Z"/><path class="cls-4" d="M228.26,855.42c.73,1.94,2.52,1.87,4.1,2.14,21.95,3.67,43.7,4.3,64.91-4,1.18-.46,2.44-.71,4.19-1.21a97.31,97.31,0,0,0,13,25.69c-25.45-2.45-44,9-61.87,22.07a66.1,66.1,0,0,1-16.77,8.72c-12.42,4.47-23.14,1-30.49-10-6.42-9.59-9.76-20.41-11.28-31.72-2.54-18.77-4.65-37.69-8.15-56.24-4.67-24.76-10.57-49.44-20.7-72.8-6.48-14.95-12.11-30.28-19.59-44.8-.72-1.39-2.05-2.74-.47-5.17a228.85,228.85,0,0,1,21.8,29.56c9.38,15,16.46,31.17,23.2,47.48,6.87,16.61,14.27,33,22.55,48.93a103.88,103.88,0,0,0,31,36c1.74,1.29,4.28,1.88,5,5-6.89,1.5-13.76-.07-20.53.49a3.56,3.56,0,0,0-2.4-.82A9.33,9.33,0,0,1,228.26,855.42Z"/><path class="cls-6" d="M209,508.4c3.91,2.22,5,5.54,6.7,8.2a146.94,146.94,0,0,0,42,42c10.06,6.7,20.69,12,32.81,13.67,5.12.68,8,2.68,9.46,8.16a234.91,234.91,0,0,0,26.6,63.14c1.93,3.14,2.13,5.3-.75,7.65a16.47,16.47,0,0,0-3.46,3.57c-2.63,4-5.73,4.59-10.12,2.63-8.48-3.8-17.24-7-25.17-11.93-25.21-15.69-48.91-33-68-56.33-16.42-20.06-19-42.41-14.06-66.61C206,518,207.54,513.62,209,508.4Z"/><path class="cls-6" d="M398.08,603.73c-23,10.57-44.77,23.13-64.58,40.31-14-21.65-21.6-45-28.48-69.95,17.16.36,32.47-3.48,48.1-9.62,1,5.66,2.24,10.91,7.83,13.8,6.36,3.29,12.74,3.22,19.32,1.43,7-1.91,14-4.22,21.28-5.06,9-1,17.87-.92,26.25,3.19C422.88,592.19,411,598.55,398.08,603.73Z"/><path class="cls-7" d="M292,971.88c-17.19-16.1-29.82-35.69-42.52-55.25-2.58-4-2.39-6.27,1.87-8.68,9.85-5.58,18.45-13.13,28.62-18.22,1.48-.74,3-1.4,4.57-2,8.3-3.13,8.65-2.89,9.29,6,.09,1.33.26,2.65.39,4,1.6,23.7.35,47.42.65,71.13C294.9,970.69,294.12,971.93,292,971.88Z"/><path class="cls-8" d="M818.8,531.84c-9.51-28.6-25.19-53.75-41.83-78.89,6.13-2.95,11.45.4,16.58,1.14a196,196,0,0,0,21.73,1.76c7.94.28,8.68,1.16,7.39,8.76-1.06,6.28-.88,12.61-.6,18.88C822.79,499.62,819.55,515.47,818.8,531.84Z"/><path class="cls-9" d="M781.57,391.07c-12.38-10.68-22.2-21.53-30.4-34.64,11.05-3.91,20.5-9.27,30.4-14.9Z"/><path class="cls-10" d="M180.92,825.44c-27.76-18.72-55.33-66.3-57.56-85C127,742.23,128,746,129.83,749c5.6,9.42,10.83,19.06,16.63,28.36A88.94,88.94,0,0,0,171.72,804C179.89,809.55,180.82,816.68,180.92,825.44Z"/><path class="cls-11" d="M265.74,693l-13.46,16.47c-3-9.76-2.62-19.09-5.34-28.24C253.86,684,259.5,688.32,265.74,693Z"/><path class="cls-12" d="M398.08,603.73c6.63-5,14.08-8.77,20.16-14.53,3.63-3.45,7.43-6.69,9.56-11.37,2.32-.26,4.66-.59,6.15,1.88-3.34-.72-4.4,1.81-6,3.93-7,9.33-15.3,17.07-26.08,21.88C401.15,603.8,399.42,604.18,398.08,603.73Z"/><path class="cls-5" d="M292,971.88c4-2.58,2.09-6.59,2.12-9.92.17-21.43.1-42.86.1-64.29,2,1.78,1.75,4.16,1.75,6.47q.09,31.33.13,62.68c0,1.93.56,4.06-.9,5.69C294,973.9,292.91,972.94,292,971.88Z"/><path class="cls-13" d="M316.15,827.46c8.65,5.12,15.93,12.53,25.78,15.75-11.3-.31-20.35-5.46-28.2-13.22Z"/><path class="cls-14" d="M568.3,616q4.1-6.62,8.18-13.23c.63,6.33-2.1,11-6.32,15Z"/><path class="cls-15" d="M724.59,357.71a25.7,25.7,0,0,1-11.24,4.57c-11.32,2.22-20.06,8.41-27.07,17.41-7.77,10-15.89,19.55-25.36,28.1a123.63,123.63,0,0,1-44.46,25.94c-17.35,5.77-35,10.71-52.17,16.87C538,460,529,466.82,511.6,488.19c.44-7.13,3.47-12.87,2.35-18.94-2.4-13.14-2.05-26.51-3.28-39.75-3.5-37.32,3.93-72.31,23.92-104.09,13.9-22.12,33-39.09,56.15-51.23,22.78-11.94,71.53-11.75,97.65,18.27,8.76,10.08,15.73,21.51,19.14,34.66C710.48,338.5,714,349.52,724.59,357.71Z"/><path class="cls-16" d="M213.69,425.74c-.23-9.82,1.52-20.22,7-29.76,2.18-3.8,4.78-7.25,8.92-9.14s7.85-1.47,11.08,1.67c2.93,2.84,4.25,6.91,1.87,10-11.46,14.94-7.62,32.49-9.14,49.13-.31,3.44,1.48,8.08-3.11,9.61-5,1.67-7.9-2.41-10.57-5.8C215.11,445.57,213.63,439.08,213.69,425.74Z"/><path class="cls-1" d="M228.26,855.42H221c3.43-1.65,5.38-1.45,7.16.17Z"/><path class="cls-6" d="M550.4,313.91c11.16-10.4,22.2-20.8,34.87-29.6,25.9-18,69.3-11.48,87.83,2.69,14.4,11,23.26,25.37,28.36,42.28,2.7,8.94,4.92,18,10.69,25.3-1.16,3.21-3.91,2.56-6,3.18-10.34,3.06-18.08,9.66-24.44,18-8.47,11.15-17.24,22-28.18,30.88-8.55,7-17.59,13-28.23,17.22-4.3-5.5-3.12-13-7.23-18.25-2.63-1.78-3.61-4.6-4.82-7.35-13-29.54-30.23-55.88-56.5-75.54C553.94,320.67,549.14,319.23,550.4,313.91Z"/><path class="cls-17" d="M540.46,345.52c3-5.71-3.49-4.74-5.42-7.26,3.32-7.52,7.34-14.45,13-20.35,6.8-.1,10,5.51,14.49,9.12,22.65,18.45,37.61,42.46,49.54,68.67,2.07,4.54,2.75,9.39,3.74,14.18a14.18,14.18,0,0,0,.24,2c3.79,14.77,3.79,14.77-11.08,19.67-1.56.52-3.15,1-4.68,1.62-4.44,1.81-6.62.24-7.64-4.36-3.11-13.95-9.14-26.85-14.72-39.91-2.34-5.47-4.93-10.79-9-15.24-3.27-1.65-1.6-4.59-1.64-6.93-.25-14.48-6.11-20.31-20.39-20C544.69,346.74,542.34,347.48,540.46,345.52Z"/><path class="cls-18" d="M540.46,345.52c6.65-2.27,13.16-3.3,19.68.72,9.35,5.78,12.16,14.11,8.83,27.38-2.83,4.18-6.35,7.54-11.19,9.33a21.45,21.45,0,0,1-24-6.74c-5.52-7-5.47-17.24.13-24.84A20,20,0,0,1,540.46,345.52Z"/><path class="cls-19" d="M615.84,409.88c-7.87-17.1-15.24-34.45-26.05-50-11.42-16.47-25-30.77-41.72-41.93,0-1.76.17-3.47,2.33-4,.71,1.07,1.19,2.51,2.18,3.16,22.63,15,39.56,35.08,52.29,58.77,5.14,9.55,10.77,19,13.19,29.81C616.24,406.49,616.17,408.25,615.84,409.88Z"/></g></g></g></svg>