<svg xmlns="http://www.w3.org/2000/svg" viewBox="0 0 888.74 1641.95"><defs><style>.cls-1{fill:#432f1a;}.cls-2{fill:#040302;}.cls-3{fill:#2b2b2c;}.cls-4{fill:#f0e19a;}.cls-5{fill:#ff9322;}.cls-6{fill:#fff;}.cls-7{fill:#fefefe;}.cls-8{fill:#1e1e1e;}.cls-9{fill:#f68d20;}.cls-10{fill:#29281b;}.cls-11{fill:#d7d7d7;}.cls-12{fill:#363737;}.cls-13{fill:#d3d4d4;}.cls-14{fill:#4c2907;}.cls-15{fill:#3e2c13;}.cls-16{fill:#4d4a32;}.cls-17{fill:#d6d6d6;}.cls-18{fill:#969797;}.cls-19{fill:#494630;}.cls-20{fill:#b6b6b6;}.cls-21{fill:#c7c7c7;}.cls-22{fill:#646464;}.cls-23{fill:#656565;}.cls-24{fill:#b3b3b3;}.cls-25{fill:#a5a5a5;}.cls-26{fill:#6a6a6a;}.cls-27{fill:#020202;}.cls-28{fill:#040404;}.cls-29{fill:#090909;}.cls-30{fill:#171717;}.cls-31{fill:#0d0d0d;}.cls-32{fill:#2c2c2c;}.cls-33{fill:#1f1f1f;}.cls-34{fill:#0f0f0f;}.cls-35{fill:#9c9c9c;}.cls-36{fill:#838383;}.cls-37{fill:#fffdfb;}.cls-38{fill:#121212;}.cls-39{fill:#f0f0f0;}.cls-40{fill:#efefef;}.cls-41{fill:#cbcbcb;}.cls-42{fill:#8d8d8d;}.cls-43{fill:#898989;}.cls-44{fill:#c3c3c3;}.cls-45{fill:#cecece;}.cls-46{fill:#b0b0b0;}.cls-47{fill:#707070;}.cls-48{fill:#b7b7b7;}.cls-49{fill:#d4d4d4;}.cls-50{fill:#868686;}.cls-51{fill:#6f6f6f;}.cls-52{fill:#dadada;}.cls-53{fill:#bababa;}.cls-54{fill:silver;}.cls-55{fill:#aeaeae;}.cls-56{fill:#b2b2b2;}</style></defs><title>duck_menu_words</title><g id="Layer_2" data-name="Layer 2"><g id="Layer_1-2" data-name="Layer 1"><path class="cls-1" d="M671.91,181.57c5-4,10.62-6.83,16.38-9.45,16.69-6.78,31.13-17.6,46.82-26.19,22.48-12.29,44.68-25.12,67.79-36.24,8-3.86,11.24-2.27,11.83,6.48.74,10.94,2.11,21.8,2.45,32.8,2.24,72.91.88,145.86,2.36,218.75.68,33.94-.5,68,2,101.78,1.48,20.23-.6,40.62,3.22,60.69a22,22,0,0,1-.08,9c-6.25,27-3.61,54.18-1.88,81.37,1,15.3-.62,30.54-1.4,45.82-1.32,25.87.72,51.79,0,77.71-.45,16.63-2.46,33.13-2.37,49.82.36,64.56.13,129.13.16,193.7,0,7.73-1.64,15.23-2.37,22.84-.5,5.13-3.92,8.28-7.48,11.37-9.35,8.1-19.88,14.49-30.31,21-52.41,33-102.73,69.07-153.85,104-23.88,16.31-47.57,33-72.45,47.9-9.92,5.92-13.38,4.41-13.21-7.1.59-39.61-1-79.2,1.3-118.86,1.59-27.19,2.69-54.47,4.8-81.62,2.51-32.44,6.59-64.76,10.62-97.06,9.76-78.27,29-154.8,42.54-232.36,11.34-64.78,22.57-129.6,32.05-194.68,5.36-36.77,9.5-73.74,12.93-110.8,4.43-47.95,8.13-95.95,11.81-144C656.49,196.1,660.31,186.72,671.91,181.57Z"/><path class="cls-2" d="M671.91,181.57c2.62,3.52-.89,4-2.64,4.55-6.93,2.34-8.92,6.83-9.53,14.15-1.18,14.2-1.86,28.49-3.67,42.6-2.67,20.75-3.19,41.65-5.28,62.44-1.07,10.52-1.6,21.2-2.68,31.74-1.7,16.81-2.92,33.66-5.15,50.43-1.7,12.8-2.84,25.69-4.61,38.51-2.31,16.73-3.87,33.59-6.65,50.24-3.1,18.62-5.65,37.32-9.17,55.88-4.13,21.79-7,43.82-10.64,65.71-3.74,22.54-7.53,45.07-11.69,67.54q-9.76,52.77-21,105.25c-5.16,24-8.86,48.21-13.12,72.35-3.75,21.22-6,42.63-9.35,63.9-2.31,14.71-2.47,29.76-4.64,44.5-2.7,18.41-2.91,37-5.4,55.43-1.43,10.51-1.31,21.21-1.92,31.8-3,51.87-2.87,103.83-2.39,155.78a5.72,5.72,0,0,0,.7,1.77c2.65.73,4.35-1.09,6.25-2.33q67.19-43.92,133-89.94c34.82-24.49,70.2-48.13,106.52-70.34,2.83-1.73,5.61-3.59,8.27-5.58,18.28-13.73,19-14.86,19.05-37.79.17-55,.17-110,.31-165,0-11.22.87-22.39.13-33.65-1.22-18.62,1.65-37.17,2.15-55.8.51-19.24-.7-38.41-.55-57.63.13-17,3.56-33.84,1.87-50.8-2.39-23.92-1.43-47.88-1.68-71.82-.05-4.54-.13-8.76,2.75-13.22s1.56-10.38.33-15.57a54.34,54.34,0,0,1-1.15-9.88c-2.14-42.58-.61-85.26-2.47-127.79-2.72-62,.24-123.91-2-185.8C815,180.6,814.77,158,814,135.4c-.24-6.92-1.84-13.78-1.92-20.8-.06-5.66-1.76-6.58-6.78-4.23-6.93,3.26-13.8,6.65-20.52,10.33C755,137,725.13,153.05,696.08,170.6c-2.16,1.31-4.5,4.75-7.79,1.52C721.07,151,755.19,132.2,789.65,114c5-2.64,9.92-5.51,15.13-7.68,4.55-1.89,5.67-4.74,4.85-9.32a140,140,0,0,1,.79-51.7c4.23-21.66,17.36-36.39,37.86-44,9.88-3.69,18.24,1.18,25.31,7.89,5.71,5.41,8.69,12.45,10.75,20,6.23,22.72,5.29,45.53.64,68.27-2.39,11.73-5.63,23.31-8.92,34.83-5.07,17.81-5.54,36.16-6.78,54.42-.53,7.64-1,15.32-.94,23a743.83,743.83,0,0,1-4.12,84.79c-3.31,30.5-2.5,61.24-3.46,91.88-.51,16-.47,32-.45,48,0,22.33,3.22,44.51,3.23,66.85,0,12,1.11,24,1.21,36,.43,51.65,3.56,103.27,2.26,154.94C865.92,735,864.53,778,863.3,821q-.45,15.48-.71,31c-.76,48-2.15,96-2.06,144,.13,71.31-.74,142.65,2.48,213.93,2.48,54.94,8,109.64,12.52,164.42,1.13,13.94,1.16,28,3.1,41.85a9.77,9.77,0,0,1-2.38,8.31c-11.9,13.44-23.68,27-36,41.13-4.22-3.34-7.83-6.07-11.31-9-17.66-14.73-37.5-26.63-54.48-42.24-1.87-1.73-4.83-2.67-4.54-6-1.3-4.65.84-5.62,4.59-3.85,4.86,2.28,8.8,6,12.86,9.42a337.11,337.11,0,0,0,40.78,30c-3.17-40-10.41-79.45-12.24-119.3s-5.48-79.66-4.73-119.67c.75-40.2.18-80.42-1-121.35-12.1,8-23.93,15.53-34.36,25.06-2.24,2.05-2.9,5.19-3.61,8.12a38.55,38.55,0,0,0-1,9.92c1.35,71.27-3.36,142.48-1.92,213.74.32,15.61,1.82,31.2,3.08,46.78.37,4.61,2.45,10.07-4,12.69-2.59-11.06-3.32-22.36-4-33.62-3.63-60.16-2.38-120.39-2.24-180.6,0-20.62.75-41.24,1.14-61.87.06-3.21,0-6.42,0-9.33-3.18-1.27-4.49.74-5.83,1.91-28.13,24.57-60.25,43.78-89.61,66.69-27.79,21.69-56.06,42.76-84.12,64.09-5,3.81-9.63,8.18-15.4,10.91-4.63-3.73-.36-5.81,1.83-7.47,7.7-5.84,14.89-12.29,22.56-18.15,45.5-34.78,91-69.59,136.92-103.75,24.28-18.05,48.95-35.62,72.84-54.23,8.25-6.42,12.29-12.92,11.46-23.38-.58-7.31-1.64-14.5-2.58-21.56-1.56-1.23-2.63-.29-3.69.41-63.61,42-126.65,84.88-189.81,127.57C596.7,1171.81,576,1187,553.29,1199.1c-5.85,3.12-8.76,7.8-8.58,14.56.39,15.29,3.19,30.48,2,45.81-.38,4.84,4.59,6.16,5.44,10-4.85,3.07-6.83,6.93-6.24,13.15,2.8,29.84,4.91,59.74,7.51,89.59,2.1,24.22,3,48.53,6.07,72.67,3.17,24.8,9,49.11,13.6,73.64,3.07,16.36,6.21,32.71,9.84,49,1,4.42.33,7.79-2.17,11.15-1.78,2.41-3.52,4.86-5.48,7.12-14.58,16.91-28.64,34.24-41.64,52.39-3.16,4.41-5.66,4.81-10.46,2.15-16.24-9-32.82-17.39-49.27-26a40.46,40.46,0,0,1,0-15.89c1.46-.66,2.37-.57,2.47.09,1.75,11.52,10.64,15.55,19.85,19.62A198.64,198.64,0,0,1,517.47,1629c3.25,1.93,6.49,3.37,10.27,1.56,4.38-1.61,6.71-5.37,9.36-8.77,10.45-13.4,20.78-26.92,32-39.68,4.76-5.41,5.35-10.73,3.86-17.45-9.77-44.26-19.56-88.55-24.4-133.67-3.34-31.1-4.08-62.45-7.32-93.57-3.67-35.11-5.06-70.37-7.49-105.57-1.26-18.29-.35-36.65-.44-55-.1-22.33-.16-44.66,0-67,.46-63,6-125.67,12.84-188.26,8-72.68,23.12-144.05,37.07-215.7C602.84,605.16,620,504,632.68,402.06c5.94-47.58,9.72-95.39,12.8-143.25,1.63-25.23,6.84-50.18,5.85-75.64-.57-14.46-3-28.47-8.9-41.77A58.09,58.09,0,0,0,633.56,127c-16.31-19-36.45-20.63-55.22-4.4-22.46,19.42-26.57,44.57-21.21,72a1170.63,1170.63,0,0,1,19.51,147.53c4,59.8,2.9,119.65-5,179.42C561,601.74,553.18,682.38,539.14,762.16c-9.41,53.49-21.36,106.55-26.68,160.7-5.53,56.35-13.1,112.47-17.65,168.94-5.1,63.23-4.3,126.53-3.17,189.77,1,55.9,6.54,111.61,12.86,167.22,5,44.34,8.19,88.88,14.6,133.07,1.53,10.57,3.74,21,6,31.41.9,4.16,2.55,8.47-.92,12.34-6.72-1.49-6.72-7.67-7.94-12.39-6.72-25.87-9.74-52.37-12.89-78.83-6.23-52.24-11.62-104.58-17.22-156.89-2.35-21.85-4.42-43.84-4.45-65.71-.06-40-2.88-79.87-2.39-119.82A1651,1651,0,0,1,492,1002.78c6.08-47.56,9-95.51,17.23-142.8,6.55-37.71,13.34-75.38,21.51-112.78a28.62,28.62,0,0,1,2.53-7.45c-2.26,3.92-2.14,8.56-3.44,12.76-12.85,41.54-17.65,84.68-25.4,127.23-10.39,57-22.74,113.68-30,171.26q-6.57,52.55-9.54,105.38c-3,53.29-2.16,106.59-1.17,159.82.84,45.56.95,91.2,3.79,136.71,2.54,40.83,5.49,81.66,9.09,122.43.55,6.24,4.06,14-4.29,18.56-3-24.47-4.18-49.1-6.37-73.64-7-78.08-7.11-156.42-9.29-234.69a15.36,15.36,0,0,0-4.37-10.57c-11.72-13.13-26.29-22.44-41.2-31.32-28.33-16.86-57.32-32.63-84.86-50.81-16.12-10.65-32.17-21.4-48.34-32-2.69-1.77-5.15-4.14-9.94-4.89,0,2.73,0,5.21,0,7.69.35,36.32-.74,72.66,1.29,109,.45,8,.23,16,.17,24-.35,45.66.31,91.31,5,136.74,1,9.69-1,16.55-7.28,23.36-8.13,8.81-15.42,18.38-24.29,26.53-5.73,5.25-5.69,5.29-12.9,1-.07-14.67-2.48-29.11-4.14-43.63-2.18-19,.62-37.89,2.16-56.76,3.56-43.5,5.57-86.95-.1-130.45-3.62-27.82-2.6-55.81-2.58-83.76,0-9.67-.76-19.25-1.57-28.88-.68-8.17-4.05-13.66-11-17.66-5.47-3.17-11.05-6.16-16.41-9.51s-7.5-1.45-7,4.23c1.22,13.59,1.27,27.26,2.46,40.82,3.46,39.46,6,79.06,5,118.55-1.06,42.15-2,84.42-6.82,126.44-1.52,13.2-1.91,26.54-4.12,39.68-.74,4.45.52,8.53,1.94,12.67,1,2.9.87,5.49-3.5,3.92-4.5-.9-6.9-3.34-6.3-8.22.32-2.62.34-5.28.5-7.91,1.86-3.21-.19-7,1.5-10.21,1.93-31.56,3.66-63.13,5.81-94.67,3.95-58,2.71-115.84-.94-173.74-1.26-19.94-1.27-40-3-59.85-1.35-15.24-1.48-30.53-3-45.75-.49-4.87-2.25-6.29-6.8-5.82a131.52,131.52,0,0,0-20.58,3.8,50.11,50.11,0,0,1-18.76,1.22c-11.74-1.25-18.66-7.87-22.83-18.18-3-7.46-4.23-15.4-5.41-23.29-3.58-24-7.71-48-13.25-71.65a267.38,267.38,0,0,0-23-61.57c-13.55-26.37-27.7-52.39-46.35-75.65-5.47-6.82-11.41-13-19.85-16.23-.79-.3-1.35-1.31-1.94-2.05-.15-.2,0-.62,0-2.28a78.6,78.6,0,0,0,19-1.75,28.85,28.85,0,0,0,16.83-10C47.2,762.39,54.36,747,54.41,728.78c0-4.2-.28-8.57,2.25-12.85,4.62,3.9,5.77,9.2,7.62,14.08,7.5,19.77,21.77,26.38,40.67,24.69,7-.63,12.93-2.84,15.89-10.06.84-2,2.62-3.71,4.1-5.72,3.28,2.89,3.51,6.6,3.85,10,2.24,22.92,18,34.47,36.57,43.57a52.06,52.06,0,0,0,8.5,2.85,8.28,8.28,0,0,0,2.73-.12,2.12,2.12,0,0,0,0-2.79c-18.42-29-18.05-58.14-.91-87.56,5-8.62,9.5-17.55,14.25-26.33a20.42,20.42,0,0,0,1.46-16.39c-10.64-35-20.84-70.14-31.82-105-11.71-37.22-26.54-73.19-45.67-107.28-3.73-6.65-8-13-12-19.53-.74-1.9.35-2.74,1.91-3.31,5.73.85,7.95,5.79,10.48,9.79,10.59,16.83,20.3,34.15,27.44,52.78a90,90,0,0,0,10.47,24.5c11,22.93,17.54,47.44,25,71.61,9.82,31.81,18.14,64.06,28.4,95.75a162.07,162.07,0,0,1,8.08,41.13,12.84,12.84,0,0,1,3.93-8.53c4.19-4.43,8.64-8.77,15.4-7.6,6.57,1.14,8.54,6.72,10.55,12.14a51.84,51.84,0,0,1,3.3,19.57c-.11,4.32-.05,8.65,1.28,12.86,5.66,18,17.47,25,36,21a221.63,221.63,0,0,0,50.89-17.53c8.38-4.08,16.56-8.58,25.12-12.28a17.25,17.25,0,0,0,5.17-3c28.6-18.1,54.84-38.85,76.17-65.52,16-20,13.09-53.66-6.7-70.08-3-2.52-6.5-3.2-10.24-3.2-10.32,0-20.58-.06-30.89,1.54-6.62,1-10,4-11.92,10.09a457.47,457.47,0,0,0-13.09,53.37c-.85,4.47-.9,9.4-4.78,12.81-4.19-.91-3.77-4.45-4.28-7.47,1.57-22.4,6.86-44.07,13.94-65.28,2.07-6.21,1.32-10.38-3-15.27-9-10.33-18.85-18.6-33-20.67a56.92,56.92,0,0,1-17.85-6.31c-7.43-3.86-14.32-7.15-23.55-4.23-6.82,2.16-13.28-2.78-19.53-8,.05,5.71.38,10.58-.05,15.41-1.33,15-11.8,27.43-25.92,30.8-5.38,1.28-10.61,1.56-14.77-3.12-.39-2.61,1.42-3.43,3.36-4.13s3.71,0,4.36,0c-20.34-6.13-31.18-22.18-38.06-42-6.88-18.94-11.14-38.61-15.8-58.17-1.32-1-1.61,1.36-.81.29.25-.32.76-.14.78.56.15,4.59,7.39,8.83.71,13.75-5.5-2.54-4.52-8.35-6.25-12.09.45,4.6,1.33,11.17-5.26,12.09-8.27,1.15-9.08-7.58-12.89-13.54,2.76,5,3.67,9.62,4.8,14.11,2.54,10.12-1.54,14-11.58,11.24-3.25-.88-6.37-2-8.46-4.93-4.44-7.33-7.17-15.35-9.62-23.48-1.71-5.7-4.41-11.26-2.38-17.47,2.28-7,6.33-8.62,12.79-5.21a15.64,15.64,0,0,0,19.92-4c7.84-9.53,16.23-8.89,22.93,2.2,8,13.25,12.36,28,16.4,42.81,3.85,14.14,6.82,28.51,11.92,42.31,3.69,10,9.37,18.44,17.94,24.69,9.1,6.64,16.66,3.71,19.31-7.21,2-8.23.43-15.79-4.72-23.08,1.41,4.82,6.75,9.47.77,13.56-5.64,3.86-10.76.73-15.19-3.39-5-4.65-8.84-10.09-9.81-17-1.83-13,8.39-21,20.81-16.44,2.43.89,4.4,2.74,7.18,3.25-.14-4.45-2.58-8.32-1.85-14.17-.1.26-2.38,1.17-1,1.13.49,0,.41.27.25,1-1,4.12-4.33,7.88-7.54,5.74-5.79-3.86-8.48-.53-12.67,2.12-4.45,2.82-9.63,2.06-14.15-1a24,24,0,0,1-7.42-30.72c3.1-5.66,7.25-9.77,14.23-8.85,7.46,1,9.37,6.5,9.77,13a15.88,15.88,0,0,1,.56,2.36,15.75,15.75,0,0,0-.73-3.75c-1.12-6.77,2.39-9.62,8.52-10.89,6.63-1.37,12.66-1.53,16.51,5.23A42.27,42.27,0,0,1,268.14,498c1.49,13.12,7.46,24.43,14.39,35.35-10.61-15.81-16.62-32.89-14.56-52.24-.11-6.9,7.55-14.05,3-19.56-3.73-4.52-12.47-3.26-18.91-4.94-41.31-10.82-81.34-25.56-121.49-39.88-12-4.26-24.22-7.37-36.17-11.54-3.39-1.19-7.33-1.57-8.69-5.81.86-3,3-2.52,5.15-1.87,14.68,1.75,28.37,7.07,42.19,11.83,39.65,13.67,79,28.34,119.51,39.28,6.11,1.65,12.2,3.38,18.59,3.62s12,0,17.49-4.76c6.61-5.76,14.94-5.11,22.59-1.27,4.14,2.07,7.86,5,11.7,7.62,11.69,8,24.28,13.56,38.48,15.71,21.58,3.26,32.37-9.22,38.1-27,.9-2.82,1-5.89,1.55-8.84,3.81-22.15,13.91-41.45,26.41-59.83,18.56-27.28,31.54-57,37.89-89.52,4.34-22.23,3.19-44.44.67-66.7-.61-5.38-4.93-10.09-3.24-16.27,3.89,1.91,4.42,5.48,5.51,8.45,9.05,24.61,23,46.67,37.74,67.94,14.29,20.67,33.52,37,55.58,49.5a4.92,4.92,0,0,0,4.45.66c-1-16.31-2.52-32.78-4.76-49.18-4.06-29.7-8.8-59.28-13.79-88.84-4.33-25.68.22-50.38,19.75-69.35,27.23-26.45,55.7-23.85,77.65,6.88,11,15.34,13.93,33.64,15.19,52.13.13,1.93.24,3.87.37,5.87C665.18,185.9,668,182,671.91,181.57Z"/><path class="cls-1" d="M526.22,1631.81c-.21,4.44-2.5,3.81-5.32,2.26-6.4-3.52-12.81-7-19.27-10.44-4.71-2.48-9.33-5.32-14.32-7-8-2.74-13.57-6.74-12.31-16.35l-1.08,14c-2.83-6.61-1-13.58-1.58-20.37,3.8-6.92,1.58-14.17,1.11-21.31-.16-2.3-1.07-4.57-1.09-6.85-.18-22.26-3.09-44.34-4.52-66.51-1.65-25.84-2.46-51.72-4.09-77.53-1.76-28,0-55.92-1.78-83.77-3.41-53.58-1.69-107.17-1.11-160.73.18-16.75.28-33.8,2.93-50.63,1.48-9.43,1.25-19.15,2.19-28.75,2-20.77,5.14-41.38,7.74-62.07,3.22-25.66,7.79-51,12.55-76.43,4.27-22.78,9-45.46,13.17-68.26q5.85-32.23,10.82-64.62c3.57-23.29,8.33-46.26,15.77-68.65,2.39-7.2,3.62-14.77,7.22-22.57,2.46,6.58-.64,12.09-1.44,17.39-2.93,19.29-7.43,38.35-10.58,57.62-4.33,26.44-10,52.63-13.36,79.29q-3.75,30.06-7.1,60.16c-1.69,15.46-3.61,30.94-4.76,46.49-1,13.85-3.41,27.59-5.28,41.37-1,7.23-1.38,14.58-1.87,21.78-.75,11.25-2,22.5-2.89,33.72-1.57,19.27-.44,38.63-2.18,57.77-2.43,26.64-2.21,53.3-.92,79.78,1.33,27.3-.39,54.63,1.82,81.77,1.21,14.86.47,29.83,3.07,44.65,1.53,8.75,1.27,17.82,2.18,26.75q2.7,26.7,6,53.31c1.88,15.45,2.44,31.06,4.5,46.49,1.88,14.1,3.25,28.26,5.15,42.37,1.76,13.1,2.79,26.35,4.82,39.43,2.92,19,4.89,38.13,11.56,56.33.57,1.55.75,3.25,2.34,4.21l.83.7a8.37,8.37,0,0,1,1.18,4.13C526.27,1631.09,526.25,1631.45,526.22,1631.81Z"/><path class="cls-1" d="M768.43,1399.85c3.09-3.49,2.26-7.82,1.3-11.41-1.68-6.28-1-12.56-1.58-18.82-3.46-38.55-2.7-77.22-1.38-115.75,1.49-43.61.94-87.19,1.61-130.78.15-9.93,3-17.68,12.36-23.14A166.35,166.35,0,0,0,807,1080.26c1.72-1.53,3.47-3.14,6.18-2.84,2.09,1.82,1.07,4.29,1.08,6.44.07,54.31-.62,108.64.52,162.93.34,16.12-.14,32.56,3.15,48.62.59,2.89.27,6,.28,9,.08,22.94,2.64,45.64,5.54,68.38,2.25,17.73,4.08,35.53,6.54,53.25,1.1,7.88,2.88,15.68,1.56,24.29-3.73-.46-6.33-2.93-9.09-5-16.55-12.25-32.75-25-48.43-38.31-2.68-2.29-3.77-1.85-4.47,1.3C767.51,1405.82,768.14,1402.8,768.43,1399.85Z"/><path class="cls-1" d="M552.16,1269.47c-7.57-1.52-8.07-1.54-7.73-9,.72-16-1.75-31.85-2.23-47.79-.21-6.85,2.15-11.34,7.92-14.71,46.22-27.06,89.85-58.08,133.91-88.39,19.71-13.57,40.18-26,59.52-40.06,22.53-16.37,47.62-28.84,69.9-47.19a220.78,220.78,0,0,1,2.68,40.28c-.11,3.29-1.49,5.31-4,7.42-17.46,14.37-36.07,27.16-54.59,40.07-10.38,7.23-19.14,16.4-29.64,23.52-27.75,18.85-54,39.72-80.79,59.93-23.82,18-47.07,36.74-70.59,55.14-2.35,1.84-4.87,3.46-7.19,5.33-1.21,1-2.82,2.16-.9,4A66.47,66.47,0,0,1,552.16,1269.47Z"/><path class="cls-1" d="M184.29,1459.92c.93-.58,3.45-1.26,2.19-2.07-6.22-4-4.77-10-3.81-15.26,2.22-12.12,2.76-24.35,4-36.54,2.06-20.51,3-41,4.19-61.57.67-11.61,1.57-23.23,1.33-34.82-.2-9.39,1.86-18.48,2.07-27.81.63-28-2-55.85-2.49-83.79-.36-21.17-2.91-42.35-4-63.58-.47-9.56-1.58-19.07-1.28-29.81,12.89,7,24.91,13.86,36.45,21.55,2.52,1.68,3.23,4,3.36,6.79.63,13.26,2.43,26.43,2,39.79-.47,14.64,0,29.32,0,44,0,14,2.42,27.73,3.43,41.6.7,9.6,2.55,19.09,2.55,28.74,0,17.67.92,35.4-.32,53-1.06,14.87-1.71,29.78-3.07,44.64-1.63,17.83-4,35.76-2.45,53.74a341.71,341.71,0,0,0,4.76,36.41c.92,4.62-.77,6.74-3.23,9.39A509,509,0,0,1,184.29,1459.92Z"/><path class="cls-3" d="M104.25,427.87,102,430.35c-9.82-12.4-20.7-23.85-31.87-35.41,7.42-1.64,9.2-1.41,20.79,2.56-1.51.74-3.5.46-4.57,2.14,0,6.22,5.51,8.66,8.7,12.7C98.78,417.11,104.88,420.49,104.25,427.87Z"/><path class="cls-1" d="M180,1433.58c.61,3.57,1.23,7.13-1.5,10.21A15.39,15.39,0,0,1,180,1433.58Z"/><path class="cls-4" d="M296.59,913.36c-11.42-24.15-28.24-44.23-47.55-62.31-16.51-15.47-35.23-28.36-51.6-44a137.53,137.53,0,0,1-19-21.78c-9.54-14.05-10.13-30.07-8.76-46.13,1.65-19.36,13.05-34.32,24.07-51,4.88,11.75,6.68,22.7,8.67,33.58.38,2.1-1.31,3.69-2.16,5.46-2.08,4.33-3.57,9.22-2.05,13.55,2.39,6.82.34,11.41-5.57,15.63,8-1.94,14.69-7.34,20.37-15.77,4.11-6.11,6.65-13,10-19.5,3.77-7.22,6.49-7.27,11.17-.47a22.89,22.89,0,0,1,3.85,13.21,89.3,89.3,0,0,1-.45,9c-1.75,17.11,6.34,29.41,19.73,38.49,14,9.47,29.8,14.53,46.45,17,2,1.07,4.47.17,6.49,1.31l11.76,0c1.75-1.71,4-1.7,5.6-1.69a68.9,68.9,0,0,1-11.51-1.78c-16.27-3-32.18-7-48.41-17.56,37.25.12,67.2-15.07,96.82-30.7a260.23,260.23,0,0,0,78-63.19c10.09-12,21.06-23.25,28.89-37,2.26-4,5.47-7.68,4-13.32-7.17,3.1-8.1,11.16-13.95,16.23-1.45-20-7.3-37.7-21.57-51.82,3.18-2.15,6.24-2.18,9.11-2.86,11.12-2.63,21.51-6.75,30.83-13.62,14.84-10.94,19.22-25.35,11.26-41.91-6.1-12.7-14.19-24.18-26.25-32.15-7.22-4.77-14.52-9.44-22-13.84-8.72-5.16-16.43-11.34-22.33-19.67-13-18.38-16.81-38-8.6-59.54,5.13-13.49,12.23-25.84,20.19-37.79,19.81-29.78,33.53-62,39.16-97.49,2.41-15.19,3.62-30.45.93-46.3,3.58,1.05,3.86,3.89,5,5.94,6.71,12.27,12.57,25.09,20.17,36.78,15.29,23.52,34.9,42.93,60.15,55.72,7.27,3.68,9.76,8.26,10.19,16.07,3.14,57.68,3,115.18-5,172.59-6.84,49.16-12.31,98.5-18.45,147.76-2.07,16.61-7.64,32.37-12.24,48.36-8,27.82-17.41,55.27-22.24,83.94a24.06,24.06,0,0,1-4.57,9.89,122.37,122.37,0,0,1-23.06,24.82c-20.56,16.52-42.65,30.8-64.92,44.87-20.55,13-41.42,25.58-59.63,41.89-13.88,12.44-24.68,27-29.58,45.34a4.29,4.29,0,0,0-.81,2.78c.33,3.18-.1,6.77-3.47,7.25-3.93.56-3.86-3.78-4.71-6.35-5.82-17.57-12.33-34.86-21-51.26C297,917.86,297.34,915.52,296.59,913.36Z"/><path class="cls-1" d="M524.29,1625.9c-1.18-12.24-5.35-23.9-7-36.05-1.7-12.46-3.5-24.9-5-37.39-2-16.42-4.37-32.84-5.56-49.34S503,1470.18,502,1453.6c-1-15.84-3.41-31.59-5.33-47.37-.88-7.25-1.36-14.59-1.84-21.79-.74-11.26-1.58-22.62-3-33.71-2.65-20.87.29-41.93-3.37-62.66a35.27,35.27,0,0,1-.13-6c0-41.33-.39-82.66,0-124,.22-21.56,2.19-43.09,3.36-64.62,1-18.59,3.48-37,4.72-55.54,1-14.18,3.78-28.23,5.29-42.38.77-7.26,1.67-14.51,2.29-21.76,2.67-31,6.29-62,10.54-92.85,3.8-27.55,9.52-54.8,14.79-82.12,5-26,10-52,13.1-78.39,2.13-18.08,5.78-36,8.43-54,2.18-14.73,4.19-29.49,5.43-44.36,1.19-14.19,3.26-28.3,5-42.44,1.6-13.16,3.33-26.3,4.87-39.46,1.58-13.49,2.39-27.12,4.71-40.48A217.78,217.78,0,0,0,573.83,472c1-24.24,4.22-48.53,2.1-72.77-1.74-20,.09-40.07-2.25-59.78-2.47-20.71-3.95-41.53-6.77-62.22-2.85-21-6.35-41.92-8.82-63-.81-6.88-2.83-13.62-4.16-20.46-3.78-19.51-2.65-38.63,7.55-56,7.85-13.38,18.68-24.08,34.26-28.77a24.73,24.73,0,0,1,14.7-.07c14,4.22,24.91,12.27,31.93,25.32a100.64,100.64,0,0,1,11.74,43.88,259.9,259.9,0,0,1-3.26,54.61c-1.52,9.05-1.73,18.48-2.54,27.74-1.37,15.52-2.2,31.08-3.56,46.61-.89,10.23-1.7,20.51-2.51,30.76-1.36,17.18-3.27,34.3-5.29,51.42q-2.28,19.24-4.58,38.5c-2.56,21.38-5.75,42.67-9.09,63.93q-5.47,34.85-11.15,69.64c-2,12.1-4.1,24.17-6.22,36.25-3.82,21.85-8,43.64-11.43,65.56-3.49,22.62-8.44,44.94-13,67.34-7.69,38-15.67,75.89-21.61,114.22-3.76,24.23-7,48.51-10.08,72.82-2.75,21.37-4.82,42.82-7,64.22-1.24,12.14-1.58,24.59-3,36.7-2.09,18.22.1,36.6-3.26,54.67a44.27,44.27,0,0,0-.23,8c0,46.33-.76,92.67.29,139,.44,19.17.83,38.47,3.18,57.65,1.41,11.48.76,23.18,2.24,34.78,1.6,12.48,2.57,25.07,3.55,37.6.93,11.91,2.35,23.82,2.54,35.76.21,13.31,1.74,26.54,2.61,39.77,1.12,17.13,4,34.2,7.39,51.11,5,24.34,9.34,48.8,14.16,73.17,1.35,6.83,3.18,13.57,5.18,20.24,1.21,4,.26,6.91-2.5,9.93-14.16,15.44-26.85,32.08-39.34,48.87-1,1.33-2.26,2.46-3.22,3.81-2.8,3.89-4.29.2-6.21-1l.08.13c-1.82-1.66-.15-4.51-2.08-6.13Z"/><path class="cls-4" d="M330,971.76c10.23-28.35,30.69-47.84,55.31-63.65,15.13-9.71,30.46-19.11,45.66-28.72,26.15-16.55,52.1-33.38,74.9-58-3,17.41-5.55,32.61-8.3,47.77-9,49.45-19.29,98.68-26.54,148.43-6.25,42.84-11.84,85.78-13.14,129.14-.28,9-1.3,18-1.36,26.93,0,5.48-2.36,5.78-6.82,5.05-17.38-2.85-33.24-9.53-47.91-19-15.09-9.77-30-19.88-44.88-29.92-15.87-10.69-33.19-18.31-51.26-24.33-17.36-5.78-34.62-11.94-52.2-17-19.71-5.62-30.52-18.83-35.95-37.77-5.19-18.07-4.32-35.92,1.64-54l5.19,11.21c5,4.5,5.35,11.65,9.34,16.23-3.67-6.08-6.81-12.77-7.16-20.46a225.36,225.36,0,0,1-8.41-66.12c.41-29.55,6.76-57.44,22-83a29.44,29.44,0,0,1,2.42-2.85c13.06,11.77,25,24.16,35.07,38.23,6,8.38,11.23,17.3,16.81,26,8.59,8,11.2,19.23,15.8,29.34a218.83,218.83,0,0,1,13.67,41.6A25,25,0,0,1,330,971.76Z"/><path class="cls-1" d="M838.52,1458.33c.1-22.95-5.06-43-6.53-63.42-1-13.18-3.71-26.22-5.29-39.36a317.29,317.29,0,0,1-1.85-31.78c-.4-22-1.85-43.88-3-65.76-2.88-54.26-1.09-108.52-1.24-162.78-.05-15.89,2-31.82,1.55-47.79-.22-7.63.13-15.21-1.37-22.86a46.57,46.57,0,0,1,.18-16.89,83.75,83.75,0,0,0,1.2-14.86c.07-72.65-1.43-145.33.59-217.92,2-70.27.77-140.51,1.58-210.75.1-9,3-17.76,1.87-26.79-2.53-19.54-.53-39.29-2.34-58.75-2.71-29-1.21-57.88-1.42-86.81-.1-15-2.57-29.77-2.29-44.79.18-10,2.61-19.75,2.05-29.8-2.61-46.55-.76-93.19-2.45-139.74-.68-18.6.35-37.36-2-55.76-2.29-18.2-4-36.28-3.41-54.58.34-11.06,2.31-22,6.74-32C826,24,835.45,16.07,845.52,9.5c5.93-3.87,12.8-2.15,18.24,2.69,10.82,9.64,15.62,21.94,16.46,36.16,1.63,27.81-3.58,54.86-9.08,81.85a492.33,492.33,0,0,0-9.37,70.85c-1.22,21.62-.53,43.23-1.85,64.78-1.54,25.19-2,50.47-4.09,75.57-2.8,33-2,65.94-.93,98.79.8,23.94-.46,48,1.68,71.76,1.8,20,.61,39.9,2,59.76,3.64,53.25,2.3,106.55,1.06,159.76-.64,27.6.51,55.3-1.78,82.78-2.5,30-.41,59.89-1.75,89.8-4,89.89-1.07,179.82-1.54,269.73a422.66,422.66,0,0,0,3.43,57.6,50.89,50.89,0,0,1,.17,7c-.18,15.65,1.68,31.11,3.71,46.59,1.12,8.53,1.55,17.24,1.89,25.78.5,12.64,1.61,25.26,2.88,37.74,2.17,21.39,2.14,43.07,7,64.17.71,3.09.76,5.81-1.48,8.4C861.71,1433.06,852.06,1445.77,838.52,1458.33Z"/><path class="cls-5" d="M66.46,757.57,62,743.15c6.4,5.13,10.16,10.45,15.76,13.39,5.77,3,12,3.6,18.36,4,6.64.42,13-1.18,20.38-2.82-1.17,20,2.42,39,2.73,58.25,2.29-20.26-.37-40.78,3.71-60.56,7.09,24.26,26,36.25,49.31,44.63a134.38,134.38,0,0,0-13.94,41.84l-.16-.13c5.13-3.36,6-9.19,8-14.26,3.35-8.63,6.33-17.39,11.73-27.09.7,10,1.58,18.44,4.22,26.48,1.14,3.46,2.06,7.2,4.06,10.14,3.18,4.68,3.9,8.28-.36,13-4.51,4.95-6.38,11.58-8.51,17.92-8.23,24.54-12.85,49.62-11.8,75.6.36,9,1.2,17.87,5.39,28-6.6-3.88-9.41-8.81-13.41-12.8.36,7.88,4.39,14.73,11.45,20.26,11.08,8.67,24,12.72,37.6,14.83,1.61.25,3.34-.11,5.1,1.32-4.29,18.8-5.3,37.84,1.09,58.47a64.52,64.52,0,0,0-26.32-7.36c-12.15-.74-23.88,1.58-35.6,4.23-1.94.44-3.81,1.34-5.76,1.59-16.63,2.12-27.45-2.08-31-19.95-4.27-21.55-7.77-43.26-11.58-64.9-7-39.53-21.54-76.13-42.23-110.41-3.62-6-6.88-12.19-10.61-18.11-5-7.89-10.26-15.58-15.36-23.39S22.3,801,15,793.23c26.18-3,33.74-23.24,42.44-43.08,4.06,2.85,3.86,8.24,6.7,11.75,7.28,8.64,8.81,19.83,13.26,29.73,1.43,3.18,1.33,7.19,3.63,8.64C76.23,786.74,69,773,66.46,757.57Z"/><path class="cls-6" d="M236.35,593.55c18,5.69,36.88-8,38.1-27.8a64.39,64.39,0,0,0-1.77-20.65c3.69,1.51,5.26,4.74,8,6.59,7.12,4.82,14.4,9,22.58,2.27,2.72-2.24,4.16-.09,5.88,1.1,9.18,6.3,19.33,11,30.18,12.3,12.6,1.54,20.75,9.15,29.46,16.85,8.5,7.51,10.76,14.56,6.12,26.21-7.47,18.74-10.9,38.89-12.86,59.11-.32,11.48.31,23-1.92,34.36-1.76,3.91-4.83,4.12-8.17,2.52-2.8-1.35-5.27-3.78-4.6-6.93,2.31-10.82-2.7-8.43-8.51-5-1.87.57-3.69.09-5.52-.22-6.1-.19-7.59,3.64-6.48,8.46,1.2,5.16,5.49,8.17,10.41,6.88,5.08-1.33,9.72-.76,14.64-.24,6,.64,8.87,3.77,8.91,9.72-1.39,8.26,4.21,16.23,1,24.56-23.24,13.11-47.16,24.58-73.46,30.27-2.28.49-4.56,1.47-6.82,1.41-7.7-.2-15.86,3.16-22.74-3.57-8.39-8.19-15.12-17.12-14.19-29.51A54.19,54.19,0,0,0,240,716c-3.88-8.87-9.76-10.18-17.23-3.87-4.4,3.72-7.34,8.44-9.77,14-4.81-37-19.17-71.35-28.82-106.93s-20-71.05-34.07-105.24c-1.06-2.05-1.67-3.89,1.79-3.83a17.9,17.9,0,0,0,10.74,4.46c6.81.45,8.63-1.18,6.44-7.62-2.35-6.92-4.93-13.73-4.3-21.37,3.77,1.52,3.74,5.35,5.33,8.1,1.32,2.28,2.14,4.89,3.64,7a4.81,4.81,0,0,0,6.15,1.78c2-.88,2.8-2.66,2.92-4.81.23-4.2-1.45-8.38-.11-13.25,4.38,6.13,4.49,13.37,7.62,19.38a10,10,0,0,1,3.46,4.59c1,3.73,1.92,7.5,2.94,11.23,4,14.05,6.81,28.47,12.27,42.11S223.34,586.31,236.35,593.55Z"/><path class="cls-5" d="M406,537.65c-4.39.89-7.76,3.66-11.29,6.16q-10.21,7.2-20.51,14.27c-7.52,5.13-15.8,6.52-24.78,5.33-24.83-3.3-44.3-15.48-59.38-35.19a69.54,69.54,0,0,1-10.63-19.06c-5.8-16.25-3.3-31.57,4.3-46.32,7.49-14.51,16.62-16.53,30-7.35,4.12,2.83,8.17,5.77,12.39,8.43,10.62,6.72,22,10.91,34.83,10.72,1.86,0,3.93-.52,6.49,1.48-7,4.1-14.39,4.86-21.73,5s-14.31-2.69-21.17-5.33c-7.15-2.75-12.68-8-19.93-13.29,8.83,16.76,30.25,26.12,51.16,23.65,21.36-2.52,35.3-15.67,46.3-32.24,2.07-.61,2,.78,2.2,1.54,7.06,20.89,20.37,36.2,39.9,46.59,16.05,8.53,30.48,19.16,39.4,35.75,2.39,4.43,4.58,8.85,5.16,13.94,1.19,10.36-1.45,18.59-10.55,25.1-14.05,10.06-29.32,15.75-46.52,15.57-12.35-.13-24.65-.45-36.87,1.74-6.2,1.11-11-1.17-15.06-5.76-5.31-6-10.25-12.28-17.43-18,18.79-6.66,31.39-21.59,47.85-30.73,6.73-3.7,12.85-1.41,18.77,2,6.33,3.68,12.17,8.11,18.25,12.17C422.22,537.37,422.22,537.37,406,537.65Z"/><path class="cls-1" d="M456.27,1272c-12.79-13.16-27.17-22.17-41.65-30.88-30.45-18.34-62-35-91.18-55.29-40.94-28.48-83.33-54.65-126-80.38-7.79-4.7-12.87-10-11.28-19.86,1.34-8.32-2.26-16.42-1.88-24.77.3-6.76,1.39-7.72,7.68-6.06,7.93,2.1,14.48,6.49,20.28,12.18s10.91,11.7,17.31,16.57c9.47,7.2,20.76,10.5,31.75,14,24,7.77,48.4,14.3,71.42,24.79a125.8,125.8,0,0,1,15.6,8.85c15.37,9.88,30.83,19.66,45.88,30a131.11,131.11,0,0,0,56.88,22.5c5.49.77,5.17,4,5.17,7.74l0,52Q456.29,1257.74,456.27,1272Z"/><path class="cls-1" d="M238.92,1479c-2.51-2.09-2.55-4.12-2.58-6.12a228.79,228.79,0,0,0-3.78-35.51c-.83-4.81,1.61-9.22,1.45-13.77-.49-13.68,2-27.14,2.39-40.77.59-20.2,1.21-40.44,3.62-60.55.68-5.69-1.06-11.21-1.44-16.8-.83-12.24-.09-24.53-2.19-36.76-2-11.73-1.57-23.78-3.79-35.53a24,24,0,0,1-.26-4c-.58-25.91-3-51.77-2.15-77.73.22-6.57.38-13.19-1.91-19.22a3.53,3.53,0,0,1,4.34,0c9,5.7,17.81,11.62,26.91,17.11,3.64,2.19,5,4.89,4.85,9-.89,19.24.94,38.52-1.65,57.8-1.23,9.05-1.43,18.56,1,27.79.74,2.83.43,6,.43,8.95.05,28.64.4,57.29,0,85.92-.35,24.3,2.55,48.44,2.65,72.73,0,9,.29,18.56,2.86,27.59.76,2.66.66,5.25-1.31,7.52-8.91,10.28-17.79,20.6-26.74,30.85A9.67,9.67,0,0,1,238.92,1479Z"/><path class="cls-6" d="M364,677.77c3.79-22.95,8.42-45.71,16-67.77,3.28-9.55,3.25-9,13.22-10.38A194.92,194.92,0,0,1,427,597.77c3.48.12,6.58.62,9,3.32,13.89,15.54,21.81,33.11,18.7,54.51-.79,5.45-3.35,9.81-6.69,14.15-22.6,29.35-50.21,52.92-81.83,72-4.06.15-3.61-3.17-4-5.52C359,716.61,358.33,697.09,364,677.77Z"/><path class="cls-7" d="M104.25,427.87c-4-8.34-10.76-14.52-17.08-21a23.8,23.8,0,0,1-3.91-4.33c-2.65-4.63,2-1.92,3-2.87,51.8,15.65,102,36.28,154.06,51.05,12.14,3.44,24.23,7,37.55,7.39-3.13,8.06-6.26,15.68-7.87,23.78-1.74,4.51-.4,9.21-.84,13.81-.17,1.82.49,4.23-2.68,4.1-1.48-4.68-2.66-9.48-4.5-14-2.53-6.24-4.93-7.12-11.38-5-.6.2-1.06.86-1.66,1-2.63.7-5.93-2.41-8,1.15-1.53,2.65-.66,5.78-1,8.68-.34,1.1-1,1.39-2,.75-2.58-1.81-1.1-5-2.52-7.3-4.51-7.38-13.29-7.58-17.42,0-2.14,4-5.38,8.58-4.83,12.44.86,6,4.22,11.86,8.45,16.64,5.32,6,11.43,6,17.14.13,1.38-1.42,2.5-3.1,4.3-5.35,1.81,3.36,3.75,7.34,8.11,5.76,3.69-1.34,3.38-6.22,6.08-8.89,2.32,7.89,4.61,15.63,7.24,24.57-5.67-4-9.83-7.89-15.45-9.37-8.53-2.24-14.65,1.59-15.79,10.16-1.26,9.49,8.3,23.17,17.58,25.16,2,.44,4.07.57,5.5-1.2,1.56-1.94.35-3.85-.66-5.49-1.76-2.84-3.53-5.63-4.15-9-.24-1.27-1-2.5.09-3.92,2.93-1,3.81,1.73,5,3.32A30.9,30.9,0,0,1,263,565.37c-2.67,14.46-12.64,18.42-24.71,9.77-7.23-5.19-11.94-12.44-15.56-20.42-4.84-10.65-7.94-21.87-10.51-33.24-3.53-15.59-7.83-30.94-14-45.72a65.9,65.9,0,0,0-6.89-13.25c-2.61-3.65-5.72-6.77-10.61-6.26s-7.15,4.34-8.47,8.7c-.47,1.58-.85,3.2-1.48,5.63-5.4-2.47-10.92-4.37-13.23,3.3-3-.74-2.89-4-4.81-5.1-2.7-1.52-4.78-5.61-8.48-3.68-3.23,1.68-3.66,5.55-3.53,8.81.17,4.62,1.09,9.21,1.7,13.82.65,2.12-.31,2.61-2.2,2.16-7.27-14-14.38-28.06-21.9-41.9A92.52,92.52,0,0,0,104.25,427.87Z"/><path class="cls-6" d="M183.8,801.67l37.67,33.43c-4.05,9.36-11.32,14.23-23.69,14.12,8.33,7.63,14.07,14.74,18.59,22.84a15.15,15.15,0,0,1,1.57,12.34c-9.11,32.05-9.2,64.35-2.43,96.83,1.29,6.19.66,6.86-6,6-5.27-.65-10.42-2.09-15.62-3.16-12.18-2.49-17.48-10.42-20.12-21.77-5-21.63-3.14-43,1.41-64.33,3.81-17.87,7.63-35.85,17.43-51.69,1.78-2.88-.11-4.39-1.05-6.21C185.66,828.59,183.6,816.32,183.8,801.67Z"/><path class="cls-8" d="M191.9,508.46c-1.67-1.16-1.82-2.82-1.53-4.62,2-1.39,1.89-3.25,1.21-5.26-1.14-3.39-2.27-6.78-3.69-11.06,1.61,1.76.05.18,1.38.07a1.08,1.08,0,0,1,.77.49,10.15,10.15,0,0,1,1.45,2.55q8.32,28.81,16.55,57.68c3.27,16.5,11.37,29.65,26.22,38.27,2.28,1.32,6.39.82,6.14,5.22-1.45.36-3.06.32-4.05,1.75-9.15-1.44-15.59-6.87-20.7-14.19a85.56,85.56,0,0,1-12.47-25.93c-3.11-11.15-6.7-22.19-8.59-33.66A13.15,13.15,0,0,0,191.9,508.46Z"/><path class="cls-9" d="M224.86,838.35c3.75,1.18,5.5,3.24,7.56,4.87s2.34,3.67,1.08,6.1c-3.8,7.27-7.47,14.6-11.79,23.1A63.07,63.07,0,0,0,208.49,854C216,850.56,222.07,846.25,224.86,838.35Z"/><path class="cls-10" d="M330,971.76q-3.09,10.8-6.16,21.58c-4.59-28.17-17.47-52.68-29.43-77.51l2.22-2.47c12.7,19.31,19.8,41,26.44,63,3.76-1.59,2.3-6.46,5.08-8.72C328.59,969.06,328.47,970.77,330,971.76Z"/><path class="cls-11" d="M240.4,591.8c-20.48-5.69-27.43-22.69-33.62-40.29-.41-1.17-.37-2.62,1.26-3.2,3.07,10.41,8.81,19.27,16.12,27.12,7.54,8.12,16.8,12.9,28.34,12.94C249.2,593,244.52,591.35,240.4,591.8Z"/><path class="cls-12" d="M364,677.77c-.56,9.18-1.26,18.34-1.65,27.52a160.41,160.41,0,0,0,.94,28.57c.37,2.65-.41,6.12,2.88,7.86-.93,1.88-2.64,1.94-4.4,1.9-2.31-8.46-4.22-17-3.33-25.84,2.62-4.1-1.58-8-.38-12,.33-12.18.75-24.36,4-36.23C363.36,672.12,361.29,675.53,364,677.77Z"/><path class="cls-13" d="M266.53,499.77c2.45-2.51,1.08-5.67,1.41-8.54.36-3.2-.73-6.73,2.11-9.37-3.44,22.13,7,40,18.06,57.79C273.21,530.34,270.3,514.83,266.53,499.77Z"/><path class="cls-14" d="M406,537.65c7.52-4.26,14.69-2.17,21.67,1.36,9.2,4.65,17.17,11.13,26.11,17.52-3.4,2-5.45-.23-7.27-1.32-5.12-3.05-10.08-6.38-14.94-9.85-6.47-4.61-13.4-7.11-21.43-5.72C409.2,538,407.43,538.15,406,537.65Z"/><path class="cls-15" d="M66.46,757.57c6.94,14.24,10.73,29.58,15.23,44.74A248,248,0,0,1,64.18,761.9C66.19,761.11,66,759.17,66.46,757.57Z"/><path class="cls-16" d="M226.48,1003.61l10.66,24.9c-6.76-5.5-10.69-12.57-12.84-20.67C226.39,1007.13,225.83,1005.05,226.48,1003.61Z"/><path class="cls-17" d="M284.7,544.72c2.32-1.26,5-.21,7.38-1.64,3.17-1.94,4.3,1.44,6,3,1.08,1,.78,2.47-.13,3.51a4.72,4.72,0,0,1-6.11,1.31C288.92,549.47,285.79,548.32,284.7,544.72Z"/><path class="cls-18" d="M140.23,489.89c1.39-.06,1.53-1.38,2.2-2.16,3.55,7.31,4.43,15.75,9.51,22.41-1.8.71-1.13,2.58-1.79,3.83A125.2,125.2,0,0,1,140.23,489.89Z"/><path class="cls-19" d="M316.18,796.13c6.89-.62,13.73-.58,20.53,1.69-4.6,2.84-9.65,2-14.62,1.78C320.79,797.3,317.45,798.49,316.18,796.13Z"/><path class="cls-20" d="M227.06,486.34c1.61.68,2.91,1.62,3.08,3.43.25,2.84-3.06,7.64-5.15,7.38a2.59,2.59,0,0,1-2.23-2.81C223.14,491.17,223.29,487.71,227.06,486.34Z"/><path class="cls-21" d="M248,547.28c-4-5-5.8-8.62-5.33-13.14a2.29,2.29,0,0,1,2.7-2.16,1.6,1.6,0,0,1,1.52,2C246,537.91,248.39,541.57,248,547.28Z"/><path class="cls-22" d="M238.42,499.3c-.54,7-2.15,10.65-6.37,12.8a2.66,2.66,0,0,1-3.47-.94,2.74,2.74,0,0,1,.8-2.55C232.71,506.89,235,504.18,238.42,499.3Z"/><path class="cls-23" d="M146.71,485.8c3.37,4.24,4.09,9.21,4.73,15.83A21.87,21.87,0,0,1,146.71,485.8Z"/><path class="cls-24" d="M203.09,745.58c-1.84-3.79-1.05-7,.17-11.69C206.26,738.66,208.33,742,203.09,745.58Z"/><path class="cls-25" d="M232,498.17a15.34,15.34,0,0,1-.26,1.76c-1,3-2.88,5-6.37,4.28a1.86,1.86,0,0,1-1.1-1.39c-.23-3.83,3.69-2.71,5.36-4.32C229.91,498.19,230.66,498.33,232,498.17Z"/><path class="cls-26" d="M251.3,504.93a17.77,17.77,0,0,1-.21-12.22C253,497.08,252.57,500.46,251.3,504.93Z"/><path class="cls-22" d="M238,492.33l2-.75a3.24,3.24,0,0,1,.31.94c0,1.48.68,4-1.2,3.88S237.79,493.9,238,492.33Z"/><path class="cls-19" d="M310.33,799.56c-2.36.53-4.59.44-6.49-1.31C306.25,797.47,308.48,797.6,310.33,799.56Z"/><path class="cls-2" d="M524.22,1625.81c2.4,1.46,1.9,3.91,2.08,6.13C524,1630.46,524.34,1628,524.22,1625.81Z"/><path class="cls-2" d="M158.13,841.75c-.11,1.49-.21,3-.35,4.86-1.59-2.1-1.65-3.6.52-4.73Z"/><path class="cls-27" d="M303.83,718l-5.55-.09c-9.57-3.6-11.18-6.87-8.3-16.84.15-3.82,2.82-5.78,6.33-8.07-3.58-2.53-5.47-6.26-8.56-10-1.58,2.61-3.13,4.82-4.31,7.22s-2,3.74-4.87,1.62c-1.69-1.23-2.57,1.18-3.68,2.3a56.39,56.39,0,0,1-6.65,6c-3.24,2.34-6.21,3.29-5.8-2.72.23-3.31-3.12-4-4.71-6-5.1-6.31-4.44-17.17,1.59-22.57,4.83-4.33,10-2.62,11.43,3.86.65,2.92,1,5.9,1.52,8.85.42,2.31,1,4.54,4.79,5.21-.39-5.27-.92-10.32-1.08-15.39-.12-4.19.29-7.53,6.32-7.67,7.54-.18,8.59-.29,10.49,5.7,1.7,5.39,1.2,11.29,3.76,16.49,3.12,6.33,8.81,8.06,14.68,4.47a2.77,2.77,0,0,0,1.4-3.3c-.35-1.46-1-2.18-2.68-1.92-5.31.81-9.44-1.28-11.06-6.3-1.86-5.75,0-11.2,3.6-15.9,1.17-1.52,3.56-2.22,4.44-3.82,1.19-2.15,2.43-4.78-1.74-6.14-4-1.28-8.64-2.29-9.08-7.87-5,0-10-2.51-14.91-.45-4,1.68-7.77,3.93-12.31,2.22-1.61-.6-2.21.61-3.25,1.34-8.43,5.82-8.45,5.78-16.26-2.68-2.61,3.28-4.28,7.33-8.56,9.1-12.15,5-17.3,6.13-28.09-5.78-2.87-3.17-5.52-6.67-6.49-11.05-6.15-7.65-2.26-16.2-2.19-24.4.64-5.15,4.38-8.84,6.52-13.27,2.57-5.33,7.82-6.67,13.65-5.16s9.91,5.26,13.4,9.87c7.14,9.41,9.54,20.17,9.12,32,2.28-3.26.74-9.47,4.65-10.07,5.12-.79,4,5.93,6.5,8.7,1.08,1.18,2,2.52,3.6,4.63,1.64-2.73.7-4.9.64-6.88-.1-3.34-.27-6.67.95-9.87,1-2.63,2.68-4.92,5.68-4.86s3.1,2.91,3.48,5.18c.61,3.69,2.31,6.8,5.55,10.75.81-4.78,1.27-8.42,2.07-12,.52-2.34,1.7-4.47,4.58-4.46,2.26,0,3.45,1.56,4.5,3.4s1.13,4.64,4.74,6.1c.75-4.38.51-9,3.27-12.64,1.46-1.91,3.14-3.61,5.84-2.9s2.12,2.82,2.25,4.83c.27,4.49,2.31,8,6.37,10.73,1.4-3.2.71-5.77.08-8.18-2.76-10.57-1.53-21.26-.63-31.83.91-10.74,4.59-13.41,15.25-13.45a24.18,24.18,0,0,0,4.32-.93c-.49,5.44,0,10.69-4.18,14.86-2.92,2.9-1.75,7-2.81,10.38-1.44,4.61,1.76,6.49,4.4,9s2.47,6.68,4,11.33a93.41,93.41,0,0,1,5.2-7.82c3.89-4.67,9.12-6,13.25-3.53s5.21,7.33,2.53,13.21a32.55,32.55,0,0,1-2.71,4.16c.84,1.62,2.4,2.15,3.94,2.61s3.37-.17,4.46,1.54c-5.1,13.72-21.65,16.62-33.22,5.47-1.3,3.73-2.36,7.4-3.84,10.89-1.62,3.8-5.37,5.69-8.53,8.19,1.91,4.79,3.72,9.35,5.88,14.76,2.54-5.36,6.32-8.39,10.46-10.88,7.55-4.53,15.17-.51,15.61,8.22.32,6.32-1.46,11.95-7.08,15.59-6,3.9-11.39,1.86-17.09-3,.36,9.35,2.14,17.83-.42,26.14-1.19,3.86,2.87,4.8,4.12,7.31C318,715.32,312.12,720.51,303.83,718Z"/><path class="cls-28" d="M290,701.09a17.81,17.81,0,0,0,8.3,16.84c-3,6.92-8.28,2.85-13.06,2.35.35,3.49.73,6.71,1,9.94.38,4.94-1.5,9.17-4.58,12.83-5.48,6.5-13.47,6.53-18.79-.26-4.13-5.25-7.62-11-7.24-18.15.12-2.38.34-4.61-1.42-6.55-7.61-8.38-11.66-18.47-13.94-29.38-.34-1.66-.72-3.47-2.86-3.29a3.25,3.25,0,0,0-2.7,2.58c-.56,1.91-.83,4.07-1.94,5.6-1.52,2.08,1.1,6.59-4.08,6.54-4,0-7.26-.89-9.27-4.55-1.69-3.1-2.8-7.37,0-9.22,4.78-3.12,3.88-6.37,2.86-10.63-.59-2.45-.1-5.3.44-7.87.58-2.73,3-5.9,5.2-5.21,5.12,1.61,8.41-.15,12.63-2.68,3.68-2.21,6.79,1.13,8.16,5a85.11,85.11,0,0,1,4.05,19.49c1,9.25,1.81,18.53,5.23,27.34,2.18,5.62,5.33,9.95,11.93,10.45,6.4.27,4.21,4.09,1.25,9.07,4.63-3.79,3.78-6.67,3.33-9.48-.45-4-3.36-7.05-4.47-10.8-1.28-4.36.07-5.92,4.77-4.75,2.2.55,2.91,1.24,4-1.55,2.48-6.62,2.74-6.5,9.37-3.24C288.56,701.74,289.35,701.25,290,701.09Z"/><path class="cls-29" d="M358.08,705.76c3.35,3.9,2.76,7.93.38,12-.63-2.58.5-6.31-4.46-5.79-5.47.57-10.8-4.54-16.7.7-2.63,2.34-10.85-2.86-13-7.07-2-4-1.16-9.82,2-12.92,2.4-2.38,5-3.18,7.88-.74,3.42,3.36-.15,7.79,1.94,11.5A9.73,9.73,0,0,1,338,693.6a23.23,23.23,0,0,1,2.1-3.34c2.7-3.06,6.09-4.61,9.61-1.89,3.2,2.47,2.73,6,.19,8.75-3.22,3.49-1.1,5.18,1.74,6.88C353.58,705.19,355.55,706.53,358.08,705.76Z"/><path class="cls-30" d="M338,725.05c-13.76,6.09-23.91,16.62-33.5,28.39-1.68-4.81,2.87-7.3,3.18-11.83-7,3.68-12.47,8.32-17.88,13.06-1.27,1.11-2.76,2.23-4.31.71s0-3,.76-4.3a8.37,8.37,0,0,1,2-2.22c13-11.05,28-18.67,43.37-25.81C333.73,722.06,336.06,721.38,338,725.05Z"/><path class="cls-31" d="M191.76,510.53c-4.81,9.36-12,14.33-17.63,20.62-2.36,2.66-5.87.82-6.16-2.84a8.64,8.64,0,0,1,2.46-7.28C175.93,515.89,181.68,511.09,191.76,510.53Z"/><path class="cls-32" d="M204.05,613.5c.54,8.15-.44,16.44,2.19,24.4a6,6,0,0,0-3.73.54c-7,2.47-8.07,2-9.46-4.88-.42-2.08-1.9-3.4-2.2-5.18-.56-3.39,1.9-4.76,4.69-5.2,3.21-.52,5.15.43,3.51,4.23-.08.17.93.81,2,1.68C204.17,624.18,200,617.87,204.05,613.5Z"/><path class="cls-33" d="M220.7,673.83c-1.65,3.59-3.81,5.82-7.57,6s-5.63-1.44-5.43-5.29c.06-1.27.48-3.43,0-3.68-2.35-1.2-4.26-2.3-2.18-5.13s5.75-4.15,7.79-2.41C216.46,666,218.31,670.28,220.7,673.83Z"/><path class="cls-34" d="M284.45,615.82A3.94,3.94,0,0,1,281,614.3a3.32,3.32,0,0,1,0-4.53,120.08,120.08,0,0,1,10-9.53c1.33-1.11,3.15-.52,3.58,1.71C295.62,607.56,289.81,615.57,284.45,615.82Z"/><path class="cls-35" d="M274.48,721.86c2,1.1,2,3.3,2.63,5.08s1.92,3.9-.45,5.2c-2.11,1.17-4.47.73-6.66-.31,1.93-1.93-1.4-4.88.61-6.11,3.9-2.39-2.57-1.94-.71-3.45Z"/><path class="cls-28" d="M303.83,718c7.43-.27,13.68-4.33,20.55-6.41,2.18.72,2.13,3.37,1,3.43-5.45.3-10.06,2.86-15,4.47A7.08,7.08,0,0,1,303.83,718Z"/><path class="cls-36" d="M338,693.6c-.93,4.61-.81,9.09,2.28,14-5.4-1.45-7-4.48-6.68-8.86.16-2.28.41-4.55.62-6.82Z"/><path class="cls-2" d="M191.9,508.46c.65-.64,1.82-1.5,2.07-.3.79,3.81,4.44,7.55.62,11.61C193.46,516.05,191.26,512.59,191.9,508.46Z"/><path class="cls-37" d="M279,489.93c.6-5.79,1.5-12.05,5.49-17.29,3.34-4.38,8.09-5.85,12.27-4.1s6.44,6,5.3,11.68c-1.38,6.82-3.1,13.59-5,20.31-1.57,5.68-5.5,7.24-10.54,4.29C281.09,501.64,279.24,496.44,279,489.93Z"/><path class="cls-31" d="M240.1,463c3.34.68,8.1-1,9,2.53,1.07,4-4.06,4.49-6.71,5.61A137.24,137.24,0,0,1,215.2,480c-2.21.43-5,1.52-6.35-.87-1.51-2.76.62-5.17,2.68-6.81C219.94,465.6,230.1,464.19,240.1,463Z"/><path class="cls-38" d="M229.7,527.22c-.48,3.25-2.21,5.35-5.88,5.25-4-.11-6.15-2.32-6.26-6.26-.1-3.45,1.61-5.74,5.16-6.14S229.7,523.28,229.7,527.22Z"/><path class="cls-39" d="M225.91,643.19c-12.09,1.32-16.88-5-17.43-23.07C224.13,632.73,224.13,632.73,225.91,643.19Z"/><path class="cls-40" d="M224.57,606.18c12.22,5,16,19.74,8.84,35.5-1.42-3.58-6-5.8-.49-9.54,3.09-2.08.46-3.7-1.14-5.41C226.44,621,222.83,614.59,224.57,606.18Z"/><path class="cls-17" d="M222.22,601.09c-4.42,9.18-.8,16.69,3.15,25.53-7.62-3.13-10.49-8.43-10.35-14.07C215.12,608.78,213.13,602,222.22,601.09Z"/><path class="cls-41" d="M337.05,662.07c4.44,8.34,4.4,8.53-2.25,14.46C330.76,671.32,332,667,337.05,662.07Z"/><path class="cls-42" d="M315.55,645.68c4.79-8.64,1.12-18.33,3.48-27.67C322.49,630.66,321.72,637.72,315.55,645.68Z"/><path class="cls-20" d="M263.62,675.59c.77,6.46,4.05,10.81,2,15.95C259.73,686.27,259.73,686.27,263.62,675.59Z"/><path class="cls-43" d="M312.34,642.17a10.17,10.17,0,0,1-6.81,5.88,3.6,3.6,0,0,1-4.59-2.73c-.52-2.41,1.9-2.53,3.24-2.11,4.35,1.38,1.47-4.53,4.59-4.3.91.06,1.93-.72,2.77-.52S312.93,639.63,312.34,642.17Z"/><path class="cls-20" d="M299.26,704.22c3.78,1.73,6.7,2.9,9.43,4.4a2.47,2.47,0,1,1-2.2,4.43C303.2,711.43,300.41,709.41,299.26,704.22Z"/><path class="cls-44" d="M299.56,699.44c2.41-3.58,5.05-3.75,7.66-4.27,1.82,2.39,1.36,5.59-.25,6.91C303.8,704.67,302.45,700.41,299.56,699.44Z"/><path class="cls-45" d="M231.68,653.73c-5.7,1.21-8.82-1-11.61-5.18C225.2,647.57,229.41,647.4,231.68,653.73Z"/><path class="cls-46" d="M302.65,626l9.69,6.84C304.63,636.64,304.2,636.38,302.65,626Z"/><path class="cls-47" d="M284.67,670.49c2.46,3.63,2.11,6.79-1.24,10.52C281.81,676.59,282,673.4,284.67,670.49Z"/><path class="cls-48" d="M350.07,630.14c-1.27,2.37-3,2.07-4.43,2.19-2.62.21-4.13-1.35-4.85-3.7a2,2,0,0,1,.44-1.7c2-1.69,3.47.42,5.11,1A17.26,17.26,0,0,1,350.07,630.14Z"/><path class="cls-49" d="M307,668.2c1.58,5.13,2.48,7.87,3.25,10.65.34,1.24.49,2.74-1.14,3.15-1.9.47-3-.66-3.41-2.46C305,676.24,306,673.13,307,668.2Z"/><path class="cls-50" d="M289.78,633.23c4.35,1.53,6.75,3,8.36,6C293.4,640.8,291.61,638.42,289.78,633.23Z"/><path class="cls-24" d="M341.45,619.74c-.26-1-.45-1.24-.38-1.44.77-2.23,1.82-4.25,4.54-4.39.28,0,.93,1,.89,1.46C346.27,618,344.56,619.26,341.45,619.74Z"/><path class="cls-51" d="M263.25,645.11c-.56,1.58-1.37,2.4-2.31,2.09-1.54-.51-3-1.5-2.57-3.52a1,1,0,0,1,1.43-.79C261.22,643.42,262.89,643.68,263.25,645.11Z"/><path class="cls-52" d="M280.42,640.82c-3.23,1.64-6,2.61-6.23-.73-.29-3.83,2.05-1.52,3.48-.75Z"/><path class="cls-53" d="M261.77,731.25c4.56,3.5,8.08,4.93,12,5.32,1.33.14,2.81.44,2.8,2a3.79,3.79,0,0,1-3,3.43,6.12,6.12,0,0,1-5.51-1.26C265.36,738.85,262.82,736.86,261.77,731.25Z"/><path class="cls-54" d="M241,670.32c3.83,7.92,4.56,15.61,5.59,24.94C239.82,681,239.44,679.26,241,670.32Z"/><path class="cls-55" d="M231.38,686.92c-2.78-7-2.78-7-2.16-12.41C232.66,677.78,233.22,681.63,231.38,686.92Z"/><path class="cls-56" d="M225.83,689.42a2.55,2.55,0,0,1-2,3c-2.11.55-1.82-1.37-1.88-2.34-.07-1.17.23-2.69,2.1-2.23C224.92,688.07,226,688.29,225.83,689.42Z"/></g></g></svg>