<svg xmlns="http://www.w3.org/2000/svg" viewBox="0 0 570.18 566.77"><defs><style>.cls-1{fill:#010101;}.cls-2{fill:#f0dbc5;}</style></defs><title>eggs</title><g id="Layer_2" data-name="Layer 2"><g id="Layer_4" data-name="Layer 4"><path class="cls-1" d="M263.26,146.2c3.08.53,4.16-.93,5.4-1.93,16-12.93,34-15.85,53.67-11.37,2.27.52,4.57,1,6.78,1.7,3.29,1.08,4.79,0,5.63-3.37,2.37-9.36,5.23-18.59,7.52-28a202.33,202.33,0,0,1,17.86-46.47,127.43,127.43,0,0,1,22.59-30.33C399.88,9.13,420.26,3.39,444,9a116.82,116.82,0,0,1,33.34,13.11c31.76,19,56.08,44.44,69.22,79.86,11.8,31.8,18.38,64.63,21.53,98.25a449.53,449.53,0,0,1-7.24,135.19,168.16,168.16,0,0,1-4.59,17.37c-16.42,50.6-51.53,79.31-103.58,88-9.17,1.53-9.27,1.37-11.05,10.45A210.21,210.21,0,0,1,432.77,484c-14,37.77-40,63.25-78.38,75.44-39.85,12.65-78.48,9.29-114.52-12.42-34.2-20.59-51.8-52.6-59.17-90.9-1.69-8.76-2.69-17.65-4.11-27.17A155.18,155.18,0,0,1,138,435.33c-26.28.78-51-4.88-73.62-18.35-33-19.61-51-49.63-59.56-86.23S0,257.8,9.48,222Q27.66,153.51,47.38,85.4c7-24.22,18.15-46.42,36.1-64.79,17.6-18,38.26-24.39,62.84-18.45a116.14,116.14,0,0,1,31.56,12.19c32.62,19.06,57.72,44.75,70.7,81C254.53,112,260,128.75,263.26,146.2Z"/><path class="cls-2" d="M439.23,365.68c-.31,35.8-2.74,67.61-10.42,98.86-.79,3.23-1.66,6.45-2.65,9.62-14.17,45.78-45.37,72.72-92,81.39-33.4,6.21-65.1.45-93.67-18.48-29.5-19.56-44.6-48.38-51.82-82.26-7.27-34.13-3-67.61,4.6-100.95,10.79-47.09,24.12-93.45,41.5-138.57,8.18-21.25,17.81-41.59,34.46-57.88,14.3-14,30.94-19,50.35-14.52a93.12,93.12,0,0,1,16.23,4.86c37,16,64.66,41.54,79.61,79.65C433.31,273.07,438.73,320.83,439.23,365.68Z"/><path class="cls-2" d="M7.87,289.42c.2-28.29,5-52.09,10.58-75.8A1028.87,1028.87,0,0,1,57.54,84.69,267.65,267.65,0,0,1,72.08,52.93,113.16,113.16,0,0,1,91.94,26.76C106.29,12.34,123.16,7.37,143.12,12c12.82,3,24.93,7.57,35.84,14.73C206.28,44.64,228.4,67,239.38,98.82c5.77,16.71,11.15,33.47,14.59,50.82.87,4.34,1,8.08-2.21,12.08-13,16-21.77,34.37-27.14,54.1-12.69,46.57-27,92.69-38.76,139.52a289.12,289.12,0,0,0-8.7,57.2c-.23,5.12-1.68,7.63-6.75,9.07-56.64,16-131.17-3.85-155.06-82.73a171.51,171.51,0,0,1-6-29.33C8.39,301.62,8.16,293.61,7.87,289.42Z"/><path class="cls-2" d="M560.36,244.51c-.74,34-2.76,67.88-11.84,100.9q-19.46,70.8-91.44,85.85c-1,.2-1.95.44-2.94.6-9.31,1.54-9.36,1.29-8.35-8.21,7.06-66,3.19-130.94-19-194.15-14.13-40.22-41.38-68.32-78.62-87.63a42.31,42.31,0,0,0-4.54-2.09c-3.08-1.16-3.88-3.13-2.79-6.24,9.31-26.7,17.43-53.89,32-78.42,4.62-7.76,10.48-14.56,16.77-21,14.53-15,31.87-19.71,52-15a104.11,104.11,0,0,1,28.83,11c31.22,18.07,55,42.44,67.52,77.16,11.73,32.55,18,66.08,20.7,100.42C559.65,219.86,560.82,232.15,560.36,244.51Z"/></g></g></svg>