<svg xmlns="http://www.w3.org/2000/svg" viewBox="0 0 139.65 139.65"><defs><style>.cls-1{fill:#fff;}.cls-2{fill:#fc606f;}.cls-3{fill:#d1224b;}.cls-4{fill:#990e99;}.cls-5{fill:#ea4e42;}</style></defs><title>favicon</title><g id="Layer_2" data-name="Layer 2"><g id="Layer_1-2" data-name="Layer 1"><circle class="cls-1" cx="69.83" cy="69.83" r="69.83"/><path class="cls-2" d="M21.57,58.89c3.37-14.31,15.13-23.77,28.9-23.27,7.34.27,12.84,3.63,15.94,10.22S69.67,59.05,64.5,65a3.44,3.44,0,0,0-1.1,2.54l-1.13.13c-4.47.88-8.92,2.35-13-1.32-3.94-3.51-2.69-8.28-3-13-2.26,1.76-2.32,3.94-3.11,5.76Z"/><path class="cls-3" d="M62.27,67.63l1.13-.13c5.27,7.38,5.35,15.08,1.43,23a9.81,9.81,0,0,0-5-1.11q-15.91.06-31.82,0a8.86,8.86,0,0,0-4.56,1C20.22,85.49,19.28,80,19.38,74.24l25.31-.14C52.43,80.47,59.46,77.88,62.27,67.63Z"/><path class="cls-4" d="M23.43,90.42a8.86,8.86,0,0,1,4.56-1q15.92,0,31.82,0a9.81,9.81,0,0,1,5,1.11c-4,9.21-11.24,13.47-21,13.51S27.42,99.19,23.43,90.42Z"/><path class="cls-5" d="M44.69,74.1l-25.31.14a30,30,0,0,1,2.19-15.35l21.55.18C42.31,64.22,42.09,69.31,44.69,74.1Z"/><path class="cls-2" d="M73.42,58.89c3.37-14.31,15.13-23.77,28.9-23.27,7.34.27,12.84,3.63,15.94,10.22s3.26,13.21-1.91,19.12a3.44,3.44,0,0,0-1.1,2.54l-1.13.13c-4.47.88-8.92,2.35-13-1.32-3.93-3.51-2.69-8.28-3-13-2.25,1.76-2.32,3.94-3.11,5.76Z"/><path class="cls-3" d="M114.12,67.63l1.13-.13c5.27,7.38,5.36,15.08,1.43,23a9.79,9.79,0,0,0-5-1.11q-15.91.06-31.82,0a8.86,8.86,0,0,0-4.56,1c-3.21-4.93-4.15-10.42-4-16.18l25.31-.14C104.28,80.47,111.31,77.88,114.12,67.63Z"/><path class="cls-4" d="M75.28,90.42a8.86,8.86,0,0,1,4.56-1q15.91,0,31.82,0a9.79,9.79,0,0,1,5,1.11c-4,9.21-11.24,13.47-21,13.51S79.27,99.19,75.28,90.42Z"/><path class="cls-5" d="M96.54,74.1l-25.31.14a30.11,30.11,0,0,1,2.19-15.35L95,59.07C94.16,64.22,93.94,69.31,96.54,74.1Z"/></g></g></svg>