<svg xmlns="http://www.w3.org/2000/svg" viewBox="0 0 554.12 631.16"><defs><style>.cls-1{fill:#010101;}.cls-2{fill:#1a1a1a;}.cls-3{fill:#fff;}.cls-4{fill:#7bc2ff;}.cls-5{fill:#fcfcfc;}.cls-6{fill:#b6b6b6;}.cls-7{fill:#525252;}</style></defs><title>milk</title><g id="Layer_2" data-name="Layer 2"><g id="Layer_5" data-name="Layer 5"><path class="cls-1" d="M432.31,2.37c5.57.45,9.75,4.17,14.32,6.66,4.81,2.62,5.27,8.27,5.39,13.26a290.12,290.12,0,0,0,2,30.9c.78,5.94,1.62,11.9,1.82,17.87.14,4.47,2,5.69,6.15,5.58,10-.28,20-.35,30-.38,9.66,0,19.32-.09,29,.22s10.28,1.3,11.64,10.65c4.12,28.41,4.84,57,6.42,85.65,4.51,81.81,7.22,163.71,10.85,245.56.7,15.64,1.44,31.29,1.7,46.94.11,7.06,2.58,13.68,2.62,20.76,0,5.44-1.43,9.69-5.1,13.47-24.87,25.53-47.79,52.9-73.3,77.83-13.1,12.8-26.52,25.38-37.68,40-7.88,10.31-18.67,13.81-30.68,13.82q-182.42.12-364.83-.17c-10.63,0-21.24-1.16-31.91-.23-6.41.56-6.52.06-6.6-6.43-.75-57.62-1.29-115.25-2.25-172.87C.59,380.47-.36,309.51.13,238.54c.07-9.32.18-18.64,0-27.95C0,204,3.06,199.4,7.6,195c34.69-33.63,69.76-66.86,105.71-99.14,5.3-4.76,8.23-9.48,8.3-16.94.14-14.63,1.47-29.24,2.31-43.86-1.23-3.57-.52-7.27-.65-10.91-.13-3.43,1.39-6.15,4.87-6.41,3-.23,7.51-2.14,8.47,2.43.9,4.23,3.52,3.41,5.9,3.29,31.55-1.68,63.11-3.11,94.66-4.83a17.93,17.93,0,0,1,3.32-.67c11.84-.82,23.73.51,35.55-.84a17.54,17.54,0,0,1,3.27-.88c5-.8,10.09-.12,15.07-1.13,11-2.63,22.39-2.7,33.52-3.09,27.79-1,55.52-3.53,85.82-2.86-7-1.7-12.4,1.64-16.21-3.31-.38-2.88.95-4.42,3.76-4.32C411.62,1.86,422,.38,432.31,2.37Z"/><path class="cls-2" d="M432.31,2.37c-9.14.09-18.28.16-27.43.27-2.9,0-6.14-.45-6.68,3.79-5.94,5.16-13.39,3-20,3.27-10.34.44-20.87,3.75-31.2-.28-2.1-2.44-.57-3.7,1.69-3.76,5.77-.17,11.6-.84,17.32.2C351,4,336.18,8.09,322.23,7.35c5.31,1.94,12.08-2.61,18.29,1.16-.26,3.09-2.58,3.7-5,3.75-39.48.74-78.53,8.83-120.2,6.11,8.86,3.08,16.12-2.48,22.82,1.93-2.19,2.93-5.41,2.16-8.26,2.06-20.57-.72-41,2.29-61.52,2.63-10.49.17-21.08,1.46-31.67,1.52-2.46,0-5.29,1-7.37-1.54.08-3.88,4.7-1.67,5.59-4.29-.29-.51-.55-1.46-.88-1.48-8.64-.68-9.36-.08-9.79,7.93-.14,2.64-.24,5.29-.36,7.93-3.32-3.73-1.89-8.19-1.84-12.41s2.61-5.84,6.43-6c1.66-.08,3.32-.1,5,0,28,1,55.71-3,83.56-4.46,22.22-1.2,44.45-2.32,66.64-3.93,14.57-1.06,29.05-3.56,43.63-4.32C358.83,2.21,390.39,1.24,421.93.1,425.51,0,429.31-.44,432.31,2.37Z"/><path class="cls-3" d="M219.57,614.21,36.7,616.35l-5,.06c-10.9.08-10.93.08-11-10.76q-.77-76.95-1.49-153.89c0-1.33-.06-2.67,0-4,.18-7.53.19-7.55,8-7.5q99.93.64,199.86-1.32c54.61-1.12,109.2-3,163.8-4.55,5.33-.15,10.66-.27,16-.18,7.49.13,7.76.36,8,8,.51,18.65.9,37.3,1.32,55.95l2.25,99.9c0,2,.1,4,.09,6,0,8.54,0,8.61-9,8.69q-64.95.57-129.91,1c-20,.13-40,0-60,0Z"/><path class="cls-4" d="M217.53,421.89c-65.08,1.43-127.71,2.48-190.31,4.94-8.1.32-8.23.32-8.34-8.15q-.57-46-.95-92c-.08-8.67.05-8.67,8.91-8.61,55,.38,109.93-2,164.9-2.8,61.31-.88,122.55-4,183.84-5.41,10-.23,20-.56,30-1.15,5-.29,7.12,1.35,7.19,6.67.39,32.65,1.1,65.3,1.56,97.95.09,6.82-.58,7.59-7.33,7.75-16.31.4-32.67,1.13-49,.51C310.34,419.83,262.72,422.9,217.53,421.89Z"/><path class="cls-3" d="M222.26,297.23c-56.19,1.88-104.48,3.45-152.78,5.15-15,.53-29.95,1.49-44.93,2.17-6.58.3-6.74.21-6.92-6.3q-1.1-38.47-2-77c-.16-6.87,0-7,7.29-7.27q75.93-2.7,151.87-5.33,110.38-4,220.78-8.21c11.44-.43,15.35,3,15.52,14q.52,34,1.07,68c.16,10.7.16,10.53-10.9,10.77C339,294.57,276.67,296,222.26,297.23Z"/><path class="cls-3" d="M17.34,198.89c5.71-5.19,10.26-9.46,15-13.58,30.55-26.78,60.41-54.33,90-82.21,3.31-3.12,6.47-5.1,11.33-4.91,30.32,1.18,60.59-1,90.87-2.06,53.91-1.81,107.79-4.66,161.68-7.16,11-.51,21.92-1.56,32.9-2,5.95-.24,6.69.46,5.3,6.23-4.68,19.35-6,39.48-13.45,58.21-2.26,5.69-.72,11.88-1.56,17.81-2.68,18.88-.52,15.16-16.8,15.82Q234.32,191.5,76.1,197.81c-15.31.62-30.6,1.4-45.91,2C26.62,200,23,200.58,17.34,198.89Z"/><path class="cls-3" d="M431.89,604.91c-3.31-4.4-2.52-7.14-2.55-9.69-.56-50.63-.95-101.26-1.67-151.89-.09-6.56,1.79-10.77,7.05-15.07,21.65-17.73,41.9-37.07,62.3-56.23,9.23-8.66,18.36-17.43,27.57-26.12,1.63-1.54,2.93-3.69,5.59-3.66,2.42,1.71,1.57,4.26,1.64,6.44q2.31,66.4,4.51,132.83c.19,5.46-.37,10.15-4.52,14.59q-47.16,50.29-93.86,101C435.94,599.32,434.28,601.83,431.89,604.91Z"/><path class="cls-3" d="M296.76,29.92l123.91-6c2.33-.12,4.65-.33,7-.45,2.81-.15,4.29,1,4.3,4,0,13.32.37,26.66.22,40-.06,5.61-2.18,7.4-8.07,7.93-5.3.49-10.63.89-16,.94-63.32.64-126.52,4.4-189.75,7.59-25.94,1.31-51.87,3-77.81,4.45-8.26.47-9.05,0-8.46-7.85a312.31,312.31,0,0,0,.54-38c-.24-5,1.87-6.13,6.4-6.3C187,34.42,235,32.43,296.76,29.92Z"/><path class="cls-4" d="M429.23,418.5c-2.11-2.65-1.68-4.7-1.71-6.62-.53-33.94-.88-67.89-1.66-101.82-.15-6.34,1.87-10.31,6.88-14.21,27.59-21.47,53.52-44.91,79.57-68.2,4.39-3.94,8.46-8.38,13.6-11,2.51,1,2,2.9,2.05,4.43q1.32,46.91,2.59,93.81c.13,4.76-.23,8.81-4.32,12.48q-47.88,43.07-93.5,88.53A30.05,30.05,0,0,1,429.23,418.5Z"/><path class="cls-3" d="M426.9,284.84c-.46-.58-.81-.82-.82-1.06-.65-27-1.54-53.93-1.75-80.9a28.52,28.52,0,0,1,9.43-21.38c29.48-27.54,57-57.09,85.71-85.36,1.37-1.35,2.54-3,4.93-3.33,2.1,3.08,1.07,6.48,1.12,9.63.3,18.33.16,36.66.73,55,.34,11,1.78,21.83,2,32.83.13,7.1-2,11.9-7.39,16.21-9.61,7.72-18.71,16.08-28.31,23.8q-31.17,25.1-60.92,51.82C430.4,283.16,429.41,284.6,426.9,284.84Z"/><path class="cls-5" d="M504,91.36l-79.74,81.78c-.68-10-.91-17.5.78-24.87,4.24-18.46,8.86-36.84,13-55.32,1-4.35,2.63-6.27,7.24-6,18.58,1,37.17,1.69,55.75,2.56C501.6,89.5,502.13,90.13,504,91.36Z"/><path class="cls-6" d="M238.18,20.3H212.37c12.77-1.68,25.37-4.4,38.34-3.66,12,.68,23.78-1.71,35.57-3.45A227.85,227.85,0,0,1,322,10.55c6.25.06,12.61.44,18.65-1.9,1.8-1.9,3.67-1.88,5.61-.23,9.84.91,19.63-.07,29.44-.77,7.51-.54,15-.82,22.55-1.22,7.27,1.78,15.12-1.2,23.25,2.59-3,2.18-5.52,1.72-7.86,1.84q-56.71,2.88-113.42,5.71c-1.63.08-3.33-.12-4.73,1-5.81.15-11.68-1.16-17.43.61l.11,0c-9.06,2.67-18.35.5-27.5,1.22-3.59.28-7.29-.8-10.77.83L239,20Z"/><path class="cls-7" d="M440.28,16.25c3,5.09,3.84,10.41,4,16,.39,13.61-.88,27.26,1,40.82.24,1.72.14,3.59-2,3.83s-2.76-1.72-2.84-3.29c-.23-5-.23-10-.24-14.95Q440.25,37.46,440.28,16.25Z"/><path class="cls-2" d="M239.85,20.23c12.6-3.68,25.47-2.16,38.27-2.05-1.17,1.93-3.07,2.2-5.08,2.2Z"/><path class="cls-2" d="M278,18.22a26.71,26.71,0,0,1,17.43-.61C289.67,19,283.84,18.78,278,18.22Z"/><path class="cls-1" d="M346.21,8.42l-5.61.23H320.75c4.64-2.74,9.7-2.18,14.53-3.2,5.45-1.15,11.25-.72,16.9-.83A131.24,131.24,0,0,1,368,5.14c-4.06,1.78-8.32,1-12.47,1.28C352.37,6.68,348.8,5.33,346.21,8.42Z"/></g></g></svg>