<svg xmlns="http://www.w3.org/2000/svg" viewBox="0 0 780.38 1216.25"><defs><style>.cls-1{fill:#111;}.cls-2{fill:#010101;}.cls-3{fill:#151515;}.cls-4{fill:#050505;}.cls-5{fill:#131212;}.cls-6{fill:#0e0e0e;}.cls-7{fill:#070707;}.cls-8{fill:#242223;}.cls-9{fill:#2c2c2c;}.cls-10{fill:#272727;}.cls-11{fill:#353535;}.cls-12{fill:#5f5f5f;}.cls-13{fill:#323232;}.cls-14{fill:#424242;}.cls-15{fill:#454144;}.cls-16{fill:#454545;}.cls-17{fill:#777;}.cls-18{fill:#999;}.cls-19{fill:#343434;}.cls-20{fill:#5a5659;}.cls-21{fill:#666;}.cls-22{fill:#7a7a7a;}.cls-23{fill:#3d3d3d;}.cls-24{fill:#7b7b7b;}.cls-25{fill:#a4a4a4;}.cls-26{fill:#9a9a9a;}.cls-27{fill:#e9c9d8;}.cls-28{fill:#b7b7b7;}.cls-29{fill:#fefefe;}.cls-30{fill:#b5b5b5;}.cls-31{fill:#fdfdfd;}.cls-32{fill:#dfdfdf;}.cls-33{fill:#9db7d3;}.cls-34{fill:#b6b6b6;}.cls-35{fill:#f8f8f8;}.cls-36{fill:#f0f0f0;}.cls-37{fill:#a0b9d3;}.cls-38{fill:#f6f6f6;}.cls-39{fill:#afafaf;}.cls-40{fill:#fff;}.cls-41{fill:#474747;}.cls-42{fill:#515151;}.cls-43{fill:#b1b1b1;}.cls-44{fill:#eacad9;}.cls-45{fill:#b4b4b4;}.cls-46{fill:#494949;}.cls-47{fill:#2f2f2f;}</style></defs><title>mosue 1</title><g id="Layer_2" data-name="Layer 2"><g id="Layer_2-2" data-name="Layer 2"><path class="cls-1" d="M592,547c-2.57,2.87-2,6-1,9.33,1.35,4.77,2.36,9.64,3.56,14.68,2.82,1.09,4.73-1.14,6.88-2.29,31.38-16.84,60.2-37.49,88.24-59.29,3.91-3.05,8-5.91,12-8.86,2-.65,2.58.27,2.22,2.13-31.7,26-64.23,50.77-100.63,69.89-6.85,3.6-9,8-7.6,15l3,15.08a168.86,168.86,0,0,0,22.29-5.27c23.88-7.21,47.14-16.13,70.41-25.06,2-.82,2.63.11,2.4,2a520.62,520.62,0,0,1-87.9,31.46c-5.84,1.54-8.64,4-10.21,10-3.46,13.4-11,24.75-20.43,34.87-2.47,2.67-4.91,5.35-7.37,8-1.85,2.12-.76,4.41-.38,6.65,2.28,14.43,6.84,28.41,7.76,43.12,1.43,23,2.53,45.87-2.93,68.52-2,8.44-4.07,16.93-10.26,23.48-3,3.21-1.12,6.08-.27,9.21a473.46,473.46,0,0,0,27,72.89c19.24,41.9,12.85,115-12.11,153-8,12.22-15.62,24.69-24.25,36.55-8.23,11.31-18.12,20.26-30.5,26.58-1.12,1.7-2.27,3.37-4.57,3.54-7.47-2.45-13.37,1-19.5,4.67-5.24,3.13-13.91,8.91-16.62,3.53-3.5-6.94,7.08-8.15,12-10.83,7.51-4.1,12.32-8.59,15.68-17.48,5.53-14.63,14.86-27.83,25.18-40a3.69,3.69,0,0,1,3.33,2.58c.22,12.3-8.84,20.33-14,30.13-1.85,3.5-5,6.31-6,10.32-.42,1.65-.76,3.48.4,4.79,1.62,1.83,3.67.9,5.49,0,6.82-3.21,11.91-8.62,16.6-14.2,27.24-32.41,48.63-67.76,52.67-111.1,2.36-25.39,1.31-50.46-8.37-74.71-10-25.05-19.59-50.24-28.44-75.75-15.83-45.65-15.58-91.43-5.44-137.73-15.24,4.24-16.72,5.5-24.9,17.4-10.38,15.1-20.79,30.19-34.61,42.53-8.3,7.42-33,9.6-42.36,3.55-3.38-2.2-4.79-5.47-5.58-9.11-4.54-20.81-10.06-41.6-9.26-63.07.44-11.88-5.92-19.25-13.11-26.76-2-2.1-4.7-2.24-7.43-2.16-3.33.1-6.7.26-9.95-3.6,7.39-5.53,15.58-9.86,21.33-17.39,3-3.91,6.1,1,5,3.43-7.57,16,5.73,22.42,14.13,29.89,18.9,16.84,41.12,27.43,67,26.65,17.82-.54,33.62-8.39,47-19.78,11.87-10.12,23.22-21.18,28.89-36.45.81-2.17,2.57-4.65,1.3-6.63-1.86-2.89-4.89-.77-7.33-.32-9.83,1.82-19.65,3.7-29.57,4.92-3.23.4-7.33,1.3-7.89-3.5s4.66-3.62,6.55-5.47c9.19-9,20.55-3.55,30.66-5.67,10.64-2.23,11.91-4.38,11.32-14.9-.29-5.17-1.73-6.57-6.66-4.09-8.64,4.35-16.67,9.79-25.46,13.84-2.72,1.26-5.32,2.8-8.26,3.52-1.3.31-3,.77-3.82-.25-3.1-4,2-7.69.84-12-.55-2.17,2.83-4.29,5.07-3,5.63,3.31,9.42-.41,13.73-2.65s8.69-4.94,13-7.47c9.06-5.31,9.32-6.36,3.81-17.2-6.78,9.94-18.34,13.51-26.3,21.76-2.25,2.33-6.36,6.47-9.23,3.22-3.31-3.75,1.6-7,4.09-9.86a59.18,59.18,0,0,1,10.13-9.63c5-3.5,5.74-7.53,3.19-12.94a99.54,99.54,0,0,1-6.78-20.88c-.88-3.9-1.93-7.83.42-11.63a4.37,4.37,0,0,1,2.59-1.09c6.35,2.17,3.28,7.56,4.14,11.51a45.21,45.21,0,0,1,1.69-14.76c1.66-5.75-.39-8.65-6-9.51a5.27,5.27,0,0,1-.75-5.34c3.7-3.09,12.24-1.18,10.38-10.06,1.92-2.7,3.15-6.77,7.86-4,2.15,4.24.41,8.45,0,12.7-1.94,18.56-9.42,36.66-3.61,54.58,6.41-7.43,6.42-7.43,5.88-19.29-.9-19.45,1.86-38.59,6.68-57.26,4.73-18.31,4.68-34.81-10.4-48.51-.79-2.56.19-4.31,2.51-5.43,13.55,9.07,20.4,21.14,18.08,38-1.22,8.91-3.18,17.64-5,26.4-3.72,17.72-4.28,35.59-3.08,53.58C591.52,543.56,593,544.75,592,547Z"/><path class="cls-2" d="M577.6,486.74l-5.83,5.82c-1.67,4.59-6.58,5.13-9.77,7.83l.06,6.86c3.12,4.5,3.21,9-.07,13.47l-2.25,0c-5.1-3.78-5-9.4-4.26-14.58,4.76-35.26,7.17-71.07,23.51-103.72,1.75-3.5,4.13-8.12-1.83-9.78-5.64-1.58-6.26,3.39-7.13,7.31-8.23,37.05-25.09,70.06-47.09,100.67-2.14,3-4.16,6.11-8.07,7.07a4.63,4.63,0,0,1-4.09-1.72,11.62,11.62,0,0,1-2.11-7.08c6.15-4.14,7.55-8.07.44-13.08-3.79-2.68-5.08-7.52-5.95-12.12a27.56,27.56,0,0,1-1.07-5.7c.7-6.6,4-12,8.66-16.35,2.19-2,4.71-5.52,8.25-1.5a23.47,23.47,0,0,1,1.77,8.59c.07,2.68-3.1,4.18-2.4,8.25,3.06-3.39,3.29-8.19,7.21-9.76,2.16-2.69,1.7-5.18-.57-7.55-4.12-2.74-4.68-5.39.19-7.88a17.17,17.17,0,0,1,5.74-1.42c16.25-2,16.55-2.3,20.45-19.18-1.13-3.8-8-.87-7.59-6.45a10.28,10.28,0,0,1,1.92-.51c12.76-.73,12.73-.73,14.94-13.29,1.68-9.56,1.56-19.25,1.05-28.83-.5-9.25,0-18.53-1.58-27.78-1.67-9.7.53-19,4.66-28.05C569.5,306,578.08,302,588.42,300.51c4.47-.65,8.44.88,12.1,3.54,10.81,7.84,15.24,21.25,12.48,34.37-5,24-15.09,45.93-25.78,67.7-2.9,5.9-6.76,11.45-7.26,18.32L577.89,429a118,118,0,0,0,2.41,43.72C581.35,477.19,581.75,482.71,577.6,486.74Z"/><path class="cls-3" d="M243.8,1106.92c14.14-.55,28.39,1.66,42.3-1.13.82-3.2-1.54-3-2.65-3.71-22.24-14.26-35.22-34.63-39.71-60.48a178.7,178.7,0,0,1-2.15-30.76q0-30.86,0-61.73c-.7-2.33.52-2.76,2.45-2.48,4.93,14.77,3.77,29.87,3.67,45.18-.21,30.45-1.92,61.67,20.1,87.25,5,5.85,10.3,11.24,19,16.36-10.11-17.59-15.36-34.63-15.77-53-.07-6.4.72-12.84-.94-19.16a12,12,0,0,1,.27-6.58c.84-1.55,1.88-2.71,3.88-1.92,5.34,6,4.74,14.26,7.8,22.09,7.64-6.56,10.09-14.61,10.86-23.24a122.51,122.51,0,0,0,.11-21c-1.78-21.26,6.38-39.19,18.41-55.69,8.44-11.57,17.28-22.86,25.66-34.48,19.59-27.18,32.17-56.71,30.06-91.1a46.83,46.83,0,0,1,.37-11c.39-2.17.37-5.23,3.38-5.33,2.79-.1,3.49,2.81,4.16,4.91,4.91,15.48,3.76,31.13-.51,46.33-6.7,23.87-16.26,46.5-32.34,65.91-7,8.46-6.63,9.37,4.07,11.18,31.55,5.31,63.11,10.34,95.34,8.72,26.06-1.3,48.91-12,71.67-23.23,2.33-1.09,4.27-3.45,7.3-2.37,7.26,5.78,8.45,14.91,12.16,22.58,6.08,12.58,12.39,25.09,17.07,38.3,4.56,12.85,2.86,25.61-.91,38.27a13.13,13.13,0,0,1-4.87,7.38c-1.95.31-3-.8-3.78-2.37-1.41-4-.38-8,.76-11.76,3.8-12.78,2-25.12-3-37.09-4-9.51-9.15-18.5-12.92-28.13-2.23-5.7-5.77-7.48-11.74-4.73-27.2,12.5-23.54,6.89-18.91,32.6,5.5,30.46,11.46,60.83,15,91.63,1.84,16.18-1.38,22.56-16.11,29-26,11.44-53.77,15.45-81.72,16.84-31.91,1.59-63.94,1.31-95.31-6.39-19.54-4.79-23.78-11-19.17-30.82,8.68-37.33,20.79-73.69,32.29-110.2.3-.95.76-1.86,1.06-2.81,1.19-3.8,3.15-8-1.52-10.66s-7.37,1-9.84,4.16c-12.41,15.87-19.41,33.64-16,53.93,3.55,21.36.15,39.78-18.14,53.45-4.27,3.19-3.73,7.4-2.57,11.76,5.44,20.5,15.31,37.47,35.84,46.46,3.82,1.67,11.15,2.84,8.76,8.46-2.08,4.9-9,2.49-12.46,0-10.13-7.22-21.21-3.24-31.89-4-9.41-1.89-18.93-.35-28.36-1C250.36,1111.17,245.38,1112.78,243.8,1106.92Z"/><path class="cls-4" d="M243.8,1106.92c2.59,2.91,6.06,1.86,9.21,1.91,7.83.13,15.67,0,23.51.07,2.54,0,5.29-.66,7.27,1.77-3,3.85-7.4,4.55-11.69,4.57-31.28.12-62.62,2-93.6-4.82-17.37-3.84-33.87-10.1-50.23-16.66-34.59-13.88-67.43-8.92-98.91,8.64-11.91,6.65-22.25,16.37-20.07,31.81,2.23,15.8,15.31,21.13,28.77,23.77,20.79,4.08,41.79,2.69,62.63-.51,34.9-5.38,69.84-10.3,104.38-18,20.16-4.5,40.42-1.44,59.89,6,14.33,5.45,28.56,11.26,43.33,15.38,17.79,5,35.51,5.86,52.28-4a47.14,47.14,0,0,0,6.49-4.66c10.84-9.09,10.67-10.49-2-16.79a12.3,12.3,0,0,1-1.77-.91c-3.25-2.36-9.87-3.5-7.32-8.65,2-4,7.24-.41,10.78.77,23.81,7.89,47.34,11.1,70.62-2,3.41-1.92,9.16-5.56,11.6-1.26,2.76,4.85-3.39,7.75-6.94,10.44-5.8,4.39-12.53,7.14-20.08,9.47,3.86,3.93,9.15,3.14,11.78,6.92,1.17,3.53-1.36,3.4-3.56,3.59-2.16-.12-4.4.43-6.44-.72-5.36.11-9.43-2.62-12.06-6.81-1.86-3-3.92-4.23-7.17-4.24a16.48,16.48,0,0,1-4-.35c-10-2.59-16.19.49-22.55,9.57-14.73,21-37.17,24.47-60.74,20.47-18.42-3.13-35.54-11.08-53-17.48-15.55-5.7-31.51-9.09-48-7.25-11.86,1.33-23.56,4.29-35.26,6.8-32.28,6.93-65,11.1-97.74,14.73-17.19,1.9-34.62,1.5-51.55-3.47a58,58,0,0,1-18.81-9c-12.75-9.61-16.36-24.79-9.39-39.16a50.9,50.9,0,0,1,17.71-19.93,91.21,91.21,0,0,1,15.87-8.4c18.73-8,38.63-12.39,58.11-17.7,24.11-6.56,47.5.34,69.78,10.35,10.32,4.63,20.48,9.63,30.72,14.44,13.38,6.29,27.19,10.82,42.25,10.33C239.88,1105.83,241.85,1106.56,243.8,1106.92Z"/><path class="cls-5" d="M511.39,504l2.83,2.95c.86,5.89-3.28,9.26-6.87,12.54-7.14,6.5-14.31,13.22-23,17.46s-9.89,9.64-7.14,18.56c2.59,8.41,7.58,16.51,6,26a3.88,3.88,0,0,1-2,1.93c-5.63-.12-7.27-3.91-7.63-8.61-.57-7.42-3.46-14.18-5.69-21.13-1.7-5.31-5.19-6.57-10.08-4.38-5.19,2.32-2.9,5.88-1.31,9.14,4.23,8.67,9.68,16.68,13.68,25.48,4.73,10.41,4,11.81-7.88,13.89-2.73-1.35-4.57-3.85-3-6.43,3.73-6.28.28-10.93-2.94-15.46-6-8.41-7.63-20.25-19.34-24.27-2.75-.94-1.92-3.71-1-6,1.8-4.44-.42-8.37-3.55-10.51-3.49-2.38-5.78,1.92-8.18,3.89-4.09,3.35-7.29,7.79-12.24,10.14-2.56.88-5.53,1.71-6.71-1.43-1.38-3.68,3-3.35,4.5-5.07,5.5-4.71,10.94-9.51,16.55-14.09,3.08-2.51,3.82-4.93,1.45-8.4-2.05-3-3.57-6.36-5.35-9.54-21-37.64-39.82-76.42-59.93-114.53a17.74,17.74,0,0,1-.95-2.8c-.95-2.17.15-2.61,2-2.39,12.29,21.3,22.83,43.54,34.39,65.23s23.19,43.29,35.14,65.59c8.75-5.36,13.3-13.55,18.81-20.72,2-2.6-.35-5.72-1.28-8.48-11.71-34.61-23-69.34-33.63-104.32-1.91-6.35-3.54-12.78-5.3-19.17-.77-1.91-1.92-4,1.71-4,13.37,43.41,27.23,86.65,42.54,130,6.59-5.15,8.55-11.07,7.8-18.51-2-19.86-3.13-39.76.25-59.61,5.45,1.15,3.82,5.76,4.53,9.23-.09,15.58-.74,31.18,1.72,46.15,3.34-6.83,8.6-13.13,13.54-19.64,2.53-3.33,4.27-6.7,3.11-11.05-10-37.2.67-71.1,16.75-104.11,20-41.05,42.95-80.53,64.27-120.87a476.9,476.9,0,0,0,33-78.15c1.59-5,2.26-10.55,7-14,1.87.12,3.09.74,2.28,2.94-7,28.58-17.91,55.71-31.45,81.72-16.88,32.45-34.38,64.59-51.78,96.78-9.66,17.86-18.78,36-26.28,54.86-9.24,23.28-13.86,47.21-8.85,72.28.64,3.17,1.16,6.34,3.12,9.89,13.94-13.92,27.65-27.73,48.88-28,1.58,2.15,3.92,1.8,6.13,1.86s4.58-.22,5.74,2.38c-2.48,2.12-5.52,2.23-8.51,2.14-12.82-.39-23.07,5.38-32.47,13.31-21.19,17.89-35.44,41.31-50.74,63.87-2.87,4.23,1.62,25.55,5.58,28,3.38,2.14,4.85-1,6.39-2.85,5.56-6.74,9.29-14.57,12.73-22.52s6.12-16.19,9-24.34c1.15-3.21,1.19-7.54,5.93-8.31l1.83,5.15c-3.6,5.59,2.14,12.33-2.17,17.85-4.61,3.11-4.56,8.65-6.77,13C492.15,513,488.63,522,482,528.26c6.86-4.77,13.27-11.3,19.76-17.74C504.54,507.78,506.85,504.19,511.39,504Z"/><path class="cls-6" d="M275.6,852.42a19.82,19.82,0,0,1,1.91-3.45c5.26-6.17,4.49-11.81.62-18.86-16-29.13-14.25-58.79-.23-88.06a259.68,259.68,0,0,1,23.7-39.24c9.72-13.52,18.65-27.51,27.1-41.84,5.41-9.18,10.6-18.59,12.81-29.08,7.39-35.16,30.11-59,57.63-79.51,2-.75,2.89.37,3.52,2,.13,4.35-3.41,6.15-6,8.6-8.71,8.2-17.61,16.26-25.2,25.51C346.2,619.26,341.37,654,351.88,691.66c2.14,7.68,5.59,14.93,7.51,22.69.05,2.13-.45,4-2.47,5.08-3.12-.37-3.24,1.6-3.5,4.07-1.71,16.41-9.55,29.27-22.6,39.28a55.46,55.46,0,0,0-18.52,25.34c-6.69,18-13.61,36-23,52.83-3,5.42-5.31,11.56-11.61,14.38C276.06,855.06,274.85,854.45,275.6,852.42Z"/><path class="cls-7" d="M429.53,1152.88c1.67-.14,3.27-.41,4.27-2,3.61-3.72,8-2.17,12.21-1.81,35.78,3,68.42,16.41,100.42,31.29a301.73,301.73,0,0,0,98.67,27.06c22.91,2.21,45.86-2.07,66.43-13.88,12.38-7.11,12.76-11.39,4.54-22.78-11.53-16-26.52-23.67-47.16-20.79.68,4.9,5.32,7.37,6.92,11.45.63,1.6,1.21,3.27,0,4.7s-3.05,1-4.6.49a34.32,34.32,0,0,1-12.37-8.24A57.72,57.72,0,0,0,642.63,1147c-4.24-3.64-12,1.56-14.74-5.91a21.35,21.35,0,0,1,17.44-.61c6.39,2.59,13,2.34,19.63,2,4.65-.28,9.3-.51,14-.49,15.58.07,28.42,6,38.13,18.33,3.29,4.18,6.75,8.26,9.7,12.67,5.78,8.66,4.9,15.24-3.09,21.8-9.37,7.69-20.19,12.68-31.86,15.92-25.52,7.08-51.09,7.28-77,1.65s-50.54-13.79-74.23-25.61c-34.77-17.35-71.38-29-110.34-32.27-.73-.06-1.08-.31-1.06-.74S429.34,1152.88,429.53,1152.88Z"/><path class="cls-8" d="M466.13,427.34c-1.23-3.41,1.07-7.54-2.17-10.53,1-17.77,5.2-34.83,11.6-51.36,12.81-33.06,30.83-63.44,48.58-93.94,10.88-18.69,22.38-37,32.89-55.94,18-32.35,33.5-65.84,43.61-101.61,2.91-10.28,4.32-20.78,5.31-31.38.5-5.26,1.42-10.48,2.15-15.72a1.82,1.82,0,0,1,2.68.59c3,7.52,1.05,15,.13,22.62-4.88,40.1-21.26,76.19-39.33,111.55-23.2,45.4-52.13,87.62-75,133.25-13.51,27-24.45,54.76-26.4,85.33C470,423.11,470,426.4,466.13,427.34Z"/><path class="cls-9" d="M401.8,554.77l-2.66-2.39c4.69-6.17,4.75-6.24-.6-11.57q-35.28-35.14-70.64-70.23c-.28-1.68.05-2.7,2.06-1.92,24.1,22.45,47.69,45.45,71.06,68.66,2.38,2.37,4,6.61,8.72,5.28-.14.31-.25.63-.41.91-.76,1.38-3.63,2-2.66,3.67,1.45,2.56,3.4-.08,5.14-.41,8.43,3.88,13.47,11.61,19.92,17.71,7.95,7.51,15.76,15.2,23.11,23.29,2.12,2.33,7,6.1-.78,8-14.64-9.24-25.76-22.38-37.83-34.44C412.06,557.14,407.84,554.25,401.8,554.77Z"/><path class="cls-10" d="M627.89,1141.06c2,2.19,4.68,1.3,7.13,1.47,3.06.2,6.42-.73,8.78,2.24-16.32,2-29.78,9.62-41.53,20.81-1.55,1.48-4.36,2.68-6.3.6-2.16-2.31,0-4.27,1.56-6,2.43-2.72,5.45-4.85,8.54-8.6-23.89-1.7-44.55-11.17-64.37-22.46-11.17-6.37-22.45-13.35-24.51-28l4.6-2.39c.55,8.3,6.76,13.26,12.44,17.14,22.11,15.11,45.22,28.12,73.29,28.43A59,59,0,0,0,627.89,1141.06Z"/><path class="cls-11" d="M275.6,852.42c.69.77,1.39,1.54,2.09,2.3.41,7.95-6.55,10.94-10.85,15.49-6.65,7-14.48,12.84-24.28,14.61-6.43,1.17-6.37,4.27-4.29,9.08,6.18,14.28,5.64,29.78,7.87,44.78.43,2.89.18,6-2.54,8.14-.68.76-1.35,1.53-2,2.29-2.73-7-1.76-14.44-2.58-21.66-2-17.69-7.28-34.43-15.11-52.93,14.8,10.15,24.67,2.11,34.75-5.34C265.1,864.39,269.71,857.77,275.6,852.42Z"/><path class="cls-12" d="M330,468.66l-2.06,1.92c-6.25-4.49-11.28-10.3-16.69-15.67q-32.62-32.32-65-64.9c-3.7-3.71-7.09-7.73-10.65-11.63,2.16-2,2.87-.09,3.52.57,28.38,29.06,58.14,56.71,87.05,85.22C327.51,465.55,328.68,467.16,330,468.66Z"/><path class="cls-13" d="M592,547c-.67-1.55-1.34-3.09-2-4.64,3.57-1.34,5.67-4.45,8.13-7,19.63-20.52,39.41-40.91,57.81-62.56,1.75-.34,2.72.07,2,2.09C637.7,500.58,615.26,524.21,592,547Z"/><path class="cls-14" d="M703.79,502.74l-2.22-2.13c19.08-16.32,37.83-33,54.68-51.68,6-6.62,11.9-13.3,17.84-19.95,1.69-.46,2.7-.28,1.72,1.8C754.48,457.45,731.61,482.58,703.79,502.74Z"/><path class="cls-15" d="M610.16,127.27l-2.29-2.48c-2.85-2.85-1.78-6.27-1-9.37,6.92-26.81,8.93-54.08,8-81.66-.11-3.3,0-6.64,1.51-9.72a2.25,2.25,0,0,1,3-1.22C624.88,58.39,620.06,93.05,610.16,127.27Z"/><path class="cls-16" d="M413.37,365l-1.71,4q-8.32-25.32-16.63-50.65-6.76-20.65-13.46-41.32c-1-2.05.06-2.3,1.75-2C394.42,304.63,404.36,334.63,413.37,365Z"/><path class="cls-17" d="M323.39,317.17c-3.06-3.58-4.53-8-6.41-12.19-11-24.48-21.94-49-33.9-73-.7-1.41-2.05-2.72-.09-5.52,15.67,29.24,29.28,58.78,42.51,88.51C325,315.9,324.81,317.11,323.39,317.17Z"/><path class="cls-18" d="M704.19,403c7-15.08,15.36-29.48,22.14-44.69a219.94,219.94,0,0,0,13.72-39.45,15.34,15.34,0,0,1,3.08-6.17c-5.13,33.64-20.8,63-37.31,92.11A2.57,2.57,0,0,1,704.19,403Z"/><path class="cls-19" d="M323.39,317.17l2.11-2.23q19,38,38,75.91l-2,2.39c-8.07-12.51-13.87-26.21-20.57-39.43C334.82,341.73,329.22,329.4,323.39,317.17Z"/><path class="cls-20" d="M619.39,22.82l-.8,0-.79-.07c-6.27-1-3.34-7.69-7.44-11.41,2.76,14.89,2.24,29.05,2.12,43.19,0,4.19.82,8.72-2.68,12.21l-.84.12-.86,0c-.56-19.93-.22-39.9-3-59.74-.39-2.88-.44-6.59,3.6-7.07a6.67,6.67,0,0,1,7.42,5.38C617.55,11.15,618.34,17,619.39,22.82Z"/><path class="cls-21" d="M657.9,474.91l-2-2.09q18.6-25.33,37.18-50.68c1-.18,1.49.25,1.4,1.28A311.93,311.93,0,0,1,657.9,474.91Z"/><path class="cls-22" d="M383.32,275l-1.75,2c-3.08-3.66-3.91-8.35-5.33-12.66-4.53-13.8-10-27.23-15.34-40.69-.85-2.11-1.89-4.26-.12-7.17A600.64,600.64,0,0,1,383.32,275Z"/><path class="cls-23" d="M693.67,574.41l-2.4-2,52.28-25.88c2.12-.85,2.46.17,2.08,2C728.64,557.79,711.79,567.38,693.67,574.41Z"/><path class="cls-24" d="M745.63,548.49l-2.08-2c11.62-7.27,23.29-14.47,35.74-20.29.92-.17,1.28.17,1,1.1A218.07,218.07,0,0,1,745.63,548.49Z"/><path class="cls-25" d="M233.08,374.7c-6.94-4.69-10.52-10.74-16-16.38C223.57,360.41,229,366,233.08,374.7Z"/><path class="cls-21" d="M704.19,403l1.63,1.8c-3.31,6.5-6.75,12.92-11.35,18.63-.46-.43-.92-.86-1.4-1.28Z"/><path class="cls-17" d="M277.83,219.93a63,63,0,0,1-8-13.79C274.44,208.76,274.82,209.37,277.83,219.93Z"/><path class="cls-26" d="M263.37,194.88a12.67,12.67,0,0,1-5-11.45c1.9,3.64,5.32,6.5,5.52,10.93Z"/><path class="cls-17" d="M263.92,194.36a7.59,7.59,0,0,1,3.61,5.41c-3.36,0-3.28-2.86-4.16-4.89Z"/><path class="cls-27" d="M567.38,665.44c-2.88-2.39-2.42-4.59.38-6.65C567.63,661,567.5,663.22,567.38,665.44Z"/><path class="cls-28" d="M429.53,1152.88a5.2,5.2,0,0,1,.73,1.52c-2.47.89-4.7.73-6.52-1.4Z"/><path class="cls-28" d="M243.6,946.82c-.84-21.45-1.74-42.88-12.5-62.94,22.29-.48,34.87-14.16,46.59-29.16,9.25-11.55,14.83-25.09,20.65-38.46,4.24-9.74,7.92-19.71,11.75-29.62S319.36,768.18,328,762c13.74-9.9,21.45-23.18,23.38-39.91.15-1.32-.09-2.84.48-3.93,1.92-3.71,2.57.31,3.83.76,6.58,3.86,8.42,11.6,13.26,16-4.22-6-9.67-12-11.06-20.24-14.41-30.4-17.68-61.65-7.73-94.11,6.61-21.59,21.36-37.25,37-52.33,4.78-4.61,9.76-9,14.65-13.48,3.9-3.32,6.91-4.34,11.33.42A470.38,470.38,0,0,0,454,594c2.13,3.56,6.16.5,8.74,2.51,3.35.32,5-4,9.27-2-6.45-16.22-15.87-29.63-22.54-44.42,17.43-7.84,17.58-7.88,22.85,9.37,1.68,5.52,5.06,10.62,3.17,17.2-1.21,4.21,4.25,4,6.55,6l-.16.13c.48-7.24-3.32-13.45-4.84-20.22-.8-3.55-2.12-7-3.17-10.49-2.95-9.88-2.89-9.78,6.26-15.1,13.3-7.75,25.39-16.94,34.13-29.92,14.41-17.13,26.76-35.63,35.44-56.3,5.39-12.84,11.73-25.35,15.12-39,1.2-4.85,2.44-9.68,2.55-14.7.08-3.6.94-6.61,5-7.59a11.41,11.41,0,0,1,11.8,3.4c2,2.17,1.12,4.24-.07,6.35C565.86,431.36,563.07,467.4,558.56,503c-.75,5.89-.85,12,1.18,17.79,0,11.6,4.37,22.07,8.48,32.58,3.63,9.28,4.09,7.16-3.22,14.12q-8.91,8.46-17.76,17l1.63,1.92c3.62-3,7.06-6.16,10.9-8.79,5.31-3.63,8.35-10.54,15.7-11.11,1.83-.15.89-1.06,1-1.79,1-4.72,5.27-6.43,8.74-10.3,2.1,6.07,3.87,11.29,5.71,16.48,1.3,3.66-1.58,4.62-3.8,5.9-10.08,5.84-20.19,11.61-30.27,17.41-2.12-1.57-1.78-5.65-5.47-5a3.28,3.28,0,0,0-2.07,1.86c-1.13,3.1,1.28,4,4,4.83L546,601.88c3.28,1.84,5.32-.61,7.39-1.71,11.47-6.09,22.76-12.52,34.2-18.67,5.64-3,6.75-2.23,6.84,4.24.24,18.94.24,18.94-18.48,23-2.27.5-4.53,1.09-6.81,1.53a3.21,3.21,0,0,1-3.31-1.23c-4.52-4.82-4.41-4.63-7.2,1.86-1.48,3.46-5.31,2.94-8.32,3.18-1.5.12-3.06-1.18-4.66-1.39s-2.3,1.12-2.38,2.54a2.6,2.6,0,0,0,2,3c1.21.16,2.53-.47,3.81-.69l42-7.27c1.52,4.41-.71,7.67-2,10.92a90.18,90.18,0,0,1-35.47,43.52c-15.19,9.66-31.84,18.16-51.47,16a100.5,100.5,0,0,1-25.05-6.37c-14.32-5.47-28-12.25-38.6-24a155,155,0,0,0-12.8-12.57c-3.64-3.21-4.54-6-1-9.92,2.39-2.66,4.54-5.89,2.43-10.3-4.9,2.29-4.2,8.85-9.07,11.2-4.11,2-7.75,5-13.27,7,3.13,1.48,5.47,1.83,7.27.87,6.43-3.45,8.66,1.16,12.78,4.85,10.12,9.06,10.66,20.41,11.22,32.52.92,20,4.76,39.59,9.58,59,1,4.16,2.74,6,7.1,6.74a146.24,146.24,0,0,0,22.85,1.81,14.42,14.42,0,0,0,10.63-4.48c15.86-15.4,30.05-32.07,41-51.34a12,12,0,0,1,6.56-5.73c7.15-2.66,13.86-6.28,21.28-10.45-8.31,27.78-10.91,55.4-9.33,83.44.71,12.65,2.18,25.19,5.46,37.49,8.49,31.93,20.65,62.57,32.93,93.14,18.18,45.25,15.19,90.09-3.45,134.08-9.78,23.1-24.83,43.27-40.85,62.56-5.21,6.27-12.09,10.41-19.11,14.26-4,2.21-5.88,1.13-6.73-3.51-1-5.74,1.2-10.46,4.78-14.67,6.33-7.44,10.29-16.31,15.18-24.63a12.05,12.05,0,0,0,2.1-6.57c1.86-3.82,3.6-3.27,5.1.21,2.13,5,4.44,3.74,7.07.39,5.59-7.1,9.78-14.86,11.23-24a50.91,50.91,0,0,1-9.17,21.08c-1.48,2.06-3.07,4.78-6.28,3.9-3-.81-3.89-3.77-4.13-6.28-.92-9.51-2-19.13,4-27.67-.3-3.53,2.5-5.91,3.3-9.11,4-16,3.53-31.47-3.73-46.58-8-16.72-15.81-33.58-23.69-50.37-8.45-14.58-11.6-30.9-14.72-47.09-1.13-5.86-3.91-11.83-1.79-18.13-2.14,6.39,1.16,12.33,1.67,18.5s2.23,12.4,4.07,18.41c1.94,6.34,3.84,12.69,5.88,19,1.34,4.16,4.36,8.53.47,13C479.15,932.18,440,939.51,398.3,933.87c-18.78-2.54-37.59-5-56.17-8.85a31.66,31.66,0,0,1-10.44-3.75c24.8-28.54,40.68-61,43.75-98.71.72-8.86-1.15-17.7-4.23-26.95-2.33,2.06-1.74,4-1.8,5.69a33.33,33.33,0,0,0,.28,5c4,36.23-9.2,67.33-29.15,96.23-7.75,11.23-16.46,21.79-24.65,32.71a150.78,150.78,0,0,0-15,24.75c-6.09,12.48-6.05,25.85-5,39.13,1.15,14.55-1.39,27.84-10.2,39.67-1.37,1.83-2.4,4.12-6.18,3.89-1.87-9.06-2.47-18.74-6.17-27.62-10.55-10.62-5.08-22.52-2.48-34.17-5.29,21.18-9.57,42.43-5.92,62.43-.75-7.33-2-16.63-.83-25.88.4-3.14-1.17-8.95,3.6-9,5.14-.07,2.44,5.71,3.61,8.76l.84,5.52c1.65,6.76-.51,13.75,1.23,20.5.45,20.43,8.24,38.57,19.1,57-5.45-.11-8.2-2.51-10.94-4.58-21.67-16.35-33.72-38.08-35.42-65.2-.94-14.9-2.24-29.81-1.16-44.8C245.92,972.67,244.59,959.73,243.6,946.82Z"/><path class="cls-28" d="M517.19,1101.15c8,15.59,21.45,24.93,36.85,32.18,18,8.49,36.25,16.12,58.85,14.94L596,1165.73c4.77-.68,7.27-3.17,9.92-5.56,3.45-3.12,7.05-6.08,10.67-9,8-6.5,17.18-8.37,27.22-6.4a48.08,48.08,0,0,1,18.64,13,25,25,0,0,0,13.5,8.46c-3.34-8.07-9.72-12.11-14.42-19.42,17-.45,32.94-1.69,46.18,10.6,5.4,5,9.78,10.88,14,16.85,5.39,7.6,4.87,12.07-2.76,17.72a71.26,71.26,0,0,1-23,11.77c-23,6.45-46.24,8.33-70.05,4-33.31-6.1-64.74-17.26-95.34-31.58a287,287,0,0,0-67.08-22.2,149.34,149.34,0,0,0-29.7-3c-6.14-2.75-14-1.2-19.89-8.37,14-2.8,25.66-8.5,35.49-18-2.67-2.47-4.78-.51-6.38.46-27.15,16.4-54.82,12.45-82.71,2.42-1.14-.41-2.25-1.64-4.22,0,7.19,5.82,16,7.84,25.2,11.87-8.17,12.81-18,22.58-32.68,25.9-13.81,3.13-27.7,3.36-41.34-1.66-13.43-4.94-27-9.39-40.43-14.41-23.37-8.76-46.89-11.25-71.48-5-36.53,9.28-74.05,13.13-111.3,18.2a140.5,140.5,0,0,1-45.77-1.12,54.26,54.26,0,0,1-21.13-8.58c-11.15-7.8-14.41-20.22-8.69-32.6a43.3,43.3,0,0,1,19.76-20.52c31.11-16.17,63.25-21.92,97.28-9.48,16.55,6,32.8,12.95,50.05,17.1,26.19,6.3,52.78,6.58,79.43,5.93,9.6-.23,19.35.43,28.8-2.26a15.83,15.83,0,0,0,4-.08c9.59-2.63,18.64-3.09,27.25,3.53a13.11,13.11,0,0,0,11.84,2.24c-.83-2.46-2.87-3.15-4.84-3.94-.93-.36-1.8-.88-2.74-1.22-26-9.5-35.81-31-41.18-55.76-.89-4.06.31-5.59,4.51-7.74,13.45-6.88,18.52-19.56,19.07-33.94.28-7.25-.79-14.6-1.66-21.85-2.64-22,7.77-39.27,20.19-55.74,3.16-4.2,5.42-3.58,13.11.24,4.88,2.41,2.51,5.49,1.49,8.32-12.35,34.16-21.54,69.28-31.94,104a191.81,191.81,0,0,0-4.71,20.42c-2.06,11.12,1.78,16.74,13.05,19.63,26,6.67,52.58,8.34,79.3,8.14,21.33-.16,42.53-1.56,63.55-5.68A226.88,226.88,0,0,0,495,1078.67c10.14-4.08,13.36-9.13,12.14-20.19-1.78-16.21-3.76-32.41-6.47-48.48-3.64-21.66-7.93-43.21-12.23-64.75-1.08-5.42-.25-8.48,5.47-10.55a212.17,212.17,0,0,0,22.7-10.31c4.08-2,6.48-1.93,8.49,2.72,5.28,12.21,11.15,24.18,16.41,36.4,5.35,12.43,5.49,25.29,1.38,38.08a41.53,41.53,0,0,0-1.4,8.75c-.74,11.24.09,22.85-7.58,32.47-5.51,11-11.42,21.82-19.26,31.42-3.25,4-5.82,8.47-5.33,13.62.53,5.58-2.67,7.71-6.78,9.65-6.31,3-12.58,6.07-18.88,9.11-1.52.74-2.92,1.59-3.46,3.75,5.32.56,9.65-2,14-4.16,2.38-1.18,5.07-2.2,6.85-4C506.29,1096.73,511.56,1097.26,517.19,1101.15Z"/><path class="cls-27" d="M558.31,795.39C545.24,768.7,548.05,686.93,562.82,664,576.68,687.56,573.67,775.29,558.31,795.39Z"/><path class="cls-29" d="M438.29,657.44c12.24,9.46,23.14,17,35.68,21.69,3.11,1.16,3.68,3,2.75,6.19-4.16,14.35-7.29,29-12.62,43-1,2.66-1.29,6.19-5.75,5.19-4-.9-8.42,0-9.63-6.27-3.53-18.26-7.59-36.41-9-55C439.35,668,438.89,663.69,438.29,657.44Z"/><path class="cls-30" d="M577.6,486.74c1.09-10.66,1.85-21.29-4.46-30.87a6.58,6.58,0,0,1-.79-5.72c2-7,2.13-14.5,5.54-21.14,10.65,6.15,16.19,15.19,15.71,27.68a105.57,105.57,0,0,1-2.89,20.67c-5.27,21.75-8.53,43.67-5.81,66.07.94,7.79-6,9.46-9.28,15.31-4.84-9.08-6.34-17.13-4.84-25.81,2.07-12.1,4-24.22,6.06-36.31A39.56,39.56,0,0,0,577.6,486.74Z"/><path class="cls-31" d="M521.41,684.31c-9.44,20.31-23.49,35.89-39.47,49.92-4.33,3.8-9.25,2-14.69.75,3.41-11.67,6.77-23,10-34.26,1.64-5.72,1.42-13.09,5-16.8s10.39,1.33,16,1.28C505.81,685.14,513.33,685,521.41,684.31Z"/><path class="cls-13" d="M533.9,1042.81q3.78-16.23,7.58-32.47l2.44,2.49c-1.32,11-3.4,22.11-.17,33.94,10.67-8,12-20.14,17-30.72,1.14,11.06-7.15,29.91-15.51,35.74-3,2.12-4.64,1.12-5.67-2.37-.47-1.63,2.06-6.54-3.47-4.25Z"/><path class="cls-32" d="M562,520.72a55.69,55.69,0,0,0,.07-13.47c2.11-3.7,5.67-2.67,9.28-2.79,1.17,5.76-1.55,11.05-2.06,16.56-.48,5.14-1.65,10.21-2.62,15.9C562,532,564.85,525.52,562,520.72Z"/><path class="cls-33" d="M562,500.39c.29-2.83,1.26-5.08,4.52-5.49,2-.25,3.89-.7,5.25-2.34,4.06,1.76,2.89,5.21,1,6.93C569.84,502.2,566,504.76,562,500.39Z"/><path class="cls-34" d="M503.6,468.38c-3.42,4.68-4.18,10.4-6,15.68-4.5,12.88-9.06,25.73-16.75,37.17-3.11,4.62-6.37,9.17-12.21,12.51-3.31-10.15-6.32-19.55-9.48-28.9a5.69,5.69,0,0,1,.92-5.57c15.89-22.11,29.34-46.12,50.18-64.36,13-11.37,27.42-18.8,45.44-15.88-2.47,6.53-5.17,13-7.34,19.61-1.35,4.1-3.71,4.77-7.58,4.16-6.14-1-12.31-1.18-18,2.47,1.31,2.28,4.18,1.35,4.91,3.56a9.06,9.06,0,0,1-9.41,2c-1.21-2.42-2.64-1.22-3.79-.08A40.26,40.26,0,0,0,503.6,468.38Z"/><path class="cls-35" d="M511.39,504c-10.51,11.33-21,22.71-35.35,29.53,10.26-11.72,16.89-25.31,21.94-39.78.53-1.52.87-3.19,2.59-3.92a1,1,0,0,1,.82.19,3,3,0,0,1,.47.88c3.86,1.29,6.64,3.59,7.35,7.84C510.07,500.44,513,501.29,511.39,504Z"/><path class="cls-36" d="M594.05,310.38a6.82,6.82,0,0,1-3.14,4.86c-4.62,3.35-10,5.08-15.37,6.78-3.37,1.08-5.62-1.52-5.06-5.09,1.28-8.13,12.61-14.2,20.25-10.88C592.67,306.89,594.21,308,594.05,310.38Z"/><path class="cls-37" d="M509.21,498.74c-3.35-1.77-6.06-4.15-7.35-7.84,1.81-.34,1.92-1.5,1.22-2.82-2.92-5.47-1.28-10.16,2.35-14.55,1.36,6.43,4.11,11.84,10.46,14.77,1.73.8,4.12,1.84,3,4.21s-1.82,6.06-5.92,5.17C511.41,497.33,509.88,496.22,509.21,498.74Z"/><path class="cls-38" d="M518.25,450.86c2.86-2,6.14-2,9.41-2q6.06,4.86.3,10.05a10.56,10.56,0,0,1-8.58.16C516.5,456.66,517,453.81,518.25,450.86Z"/><path class="cls-39" d="M519.38,459l8.58-.16c-.22,2.87-6.19.93-4.52,5.79,1,2.87-1.24,4.9-4.16,5.41-2.16.39-3.78-.85-4.65-2.74-1.38-3,.24-4.87,2.62-6.43A19.66,19.66,0,0,0,519.38,459Z"/><path class="cls-30" d="M575.83,466.66a3.48,3.48,0,0,1-3.51,3.71,3.26,3.26,0,0,1-.78-6.41C573.73,463.48,575.19,464.48,575.83,466.66Z"/><path class="cls-40" d="M326.36,928.43c2.89-4.6,6.28-1.53,9.08-.93,31.94,6.86,64,12.13,96.85,11.84A143.81,143.81,0,0,0,489.39,927c8.51-3.73,17.37-6.71,25.39-11.55,1.57-.95,3.71-2.39,5,.28s-1.09,3.55-2.78,4.43a235.72,235.72,0,0,1-24.55,11c-9.77,3.78-9.84,4-7.82,14.58,3.35,17.63,6.91,35.23,10.12,52.9,3.51,19.3,6.86,38.65,7.17,58.36.19,12.47-2.41,16.7-14.15,21a235.47,235.47,0,0,1-55.29,12.63c-36.29,4-72.41,3.11-108.3-3.93a97.39,97.39,0,0,1-13.49-3.46c-7.65-2.66-9.53-5.69-8.22-13.55a264.46,264.46,0,0,1,8.56-34.85c8.47-27.29,17-54.56,25.53-81.85,1.29-4.12,2.32-8.33,3.6-12.45,1.06-3.44.33-5.54-3.4-6.8S329.19,931.53,326.36,928.43Z"/><path class="cls-41" d="M271.34,1017.17c-2.52-1.77-1.15-5.53-4.32-8.58-2,14.92-1.24,28.6-.5,42.26-9.28-24.77-2.16-48.59,4.07-72.46,2.88,4.6.51,8.88-.54,13.11-1.66,6.61-2.44,12.88,1.84,18.88.9,1.26,1,3.09,1.47,4.66Z"/><path class="cls-42" d="M515.38,910.43c1.25-3.82-.69-7.13-1.75-10.57-4.6-14.85-9.09-29.7-10.92-45.25a58.65,58.65,0,0,1,0-15.88c1.82,23.69,10.35,45.63,17.06,68C517.72,907.26,517.9,910.47,515.38,910.43Z"/><path class="cls-41" d="M273.41,1043.19c-2.78-6.69-1.56-13.62-1.23-20.5C275.08,1029.38,273.48,1036.33,273.41,1043.19Z"/><path class="cls-43" d="M199.7,1103.92c-11.64-.39-22.95-3-34-6.64-9.46-3.14-18.74-6.81-28.13-10.18-16-5.74-32.28-10.37-49.54-10.86,8.62-3.66,17.65-3.85,26.57-2.86,12.57,1.4,25,3.82,36.77,8.72C167.63,1088.86,183.19,1097.15,199.7,1103.92Z"/><path class="cls-44" d="M609.8,66.76c1.49-15.2.51-30.35-1.09-45.46a112.61,112.61,0,0,1-.54-17.65c4.74,3.28,7,7,7.53,11.69.32,2.59,0,5.35,2.09,7.43.12,8.91.27,17.81.35,26.72.22,23.95-4,47.29-9.59,70.46-.38,1.58-.46,3.23-.68,4.84-12.78,45.91-34.62,87.8-57.29,129.34C535,282.75,518.7,311,504.85,340.6c-8.07,17.23-15.23,34.76-18.08,53.75-2.39,16-2.1,31.93,2.9,47.42,1.29,4,1.37,6.58-1.64,9.72-7.31,7.64-12.58,16.89-19.28,26.65-3.65-17.82-2.21-34.36-2.62-50.8,1.58-10.15,2.88-20.35,4.8-30.44,5.67-29.81,19.51-56.37,33.65-82.74,20.56-38.36,44.89-74.59,64.69-113.36,16.19-31.69,30.9-64.07,37.28-99.45C608.6,90,610.9,78.49,609.8,66.76Z"/><path class="cls-34" d="M462.7,596.47c-3.12-.13-6.81,1.76-8.74-2.51.84,0,2.64.59,2.1-.72-.71-1.69-2.57-2.9-3.95-4.3-11.4-11.53-22.84-23-34.17-34.6-2.26-2.31-5.29-4.08-6.13-7.57,6.76-5.71,12.93-12.14,20.94-17.27,2.65,4.7,4.76,9.17,7.54,13.18,3.15,4.53-1.55,4.3-4.4,7.07,7.05-.8,10.1,2.7,12.67,7.58,4.76,9,10.08,17.82,15.15,26.71,1.11,2,2.77,3.58-.95,5.19C458.48,591.09,461.1,594,462.7,596.47Z"/><path class="cls-45" d="M455.4,506.57c3,9.19,5.62,17.74,8.53,26.19,1.18,3.41.58,5.79-2.63,7.45-1.76.91-3.51,1.88-5.34,2.65-8.61,3.64-9,3.48-13.74-5-6.09-10.92-6.15-11,2.6-20.25C448,514.29,450.1,510,455.4,506.57Z"/><path class="cls-34" d="M279.11,819c-7.58-13.4-8.37-27.84-6.87-42.46a90.47,90.47,0,0,1,11.37-36c8.09-14.18,16.27-28.3,25.9-41.52,10.4-14.28,18.94-29.69,27.41-45.07,3.49.69,1.88,3.21,2.05,4.8.47,4.3-.23,8.87.92,12.93,4.87,17.13-4.13,29.5-13.84,41.51-8,9.85-16,19.57-23.4,29.9C286.48,765.83,277.05,790.49,279.11,819Z"/><path class="cls-44" d="M342.88,695.53c4.77,7.43,7.48,13.24,5.31,20.22a3.63,3.63,0,0,0-.12,1c-.23,16-7,28.77-19.73,38.32-11.61,8.7-18.65,20.37-23.5,33.83A405.72,405.72,0,0,1,287.35,831c-3.3-4-3.29-7.77-3.68-11.49-2.43-22.87,4.32-43.35,16.46-62.31A279.34,279.34,0,0,1,324,725.28C331.33,716.71,338.73,708.17,342.88,695.53Z"/><path class="cls-46" d="M357.86,714.69c5.6,9,10.85,18.31,17.37,26.82a62,62,0,0,1-19.57-22.62C357.89,718.27,357.56,716.32,357.86,714.69Z"/><path class="cls-47" d="M479.63,606.85a3.57,3.57,0,0,1-3.77-3.55,3.39,3.39,0,0,1,3.39-4,3.79,3.79,0,0,1,4,3.59C483.55,605.17,482.22,606.58,479.63,606.85Z"/><path class="cls-5" d="M481.84,582.68c.39.44,1,.85,1.11,1.34a9.7,9.7,0,0,1-.2,2.44,14.29,14.29,0,0,1-.71-2.09,9.17,9.17,0,0,1-.05-1.82Z"/></g></g></svg>