<svg xmlns="http://www.w3.org/2000/svg" viewBox="0 0 935.35 957.98"><defs><style>.cls-1{fill:#020202;}.cls-2{fill:#2f2f2f;}.cls-3{fill:#373737;}.cls-4{fill:#494b29;}.cls-5{fill:#acacac;}.cls-6{fill:#b7b7b7;}.cls-7{fill:#ede7c2;}.cls-8{fill:#fff;}.cls-9{fill:#eacbda;}.cls-10{fill:#ebcbda;}.cls-11{fill:#181818;}.cls-12{fill:#e9c9d8;}.cls-13{fill:#b1b1b1;}.cls-14{fill:#fcfcfc;}.cls-15{fill:#fdfdfd;}.cls-16{fill:#e8c8d7;}.cls-17{fill:#b4b4b4;}.cls-18{fill:#202020;}.cls-19{fill:#191819;}.cls-20{fill:#bba4b0;}.cls-21{fill:#e7c8d6;}.cls-22{fill:#e5c6d5;}.cls-23{fill:#232323;}.cls-24{fill:#1e1c1d;}.cls-25{fill:#f1f1f1;}.cls-26{fill:#292929;}.cls-27{fill:#525252;}.cls-28{fill:#3b4c29;}.cls-29{fill:#e24f01;}.cls-30{fill:#dc3508;}.cls-31{fill:#ec2e02;}.cls-32{fill:#555;}.cls-33{fill:#f0f0f0;}.cls-34{fill:#2a551c;}.cls-35{fill:#303030;}.cls-36{fill:#2e2e2e;}.cls-37{fill:#696969;}.cls-38{fill:#f4f4f4;}.cls-39{fill:#584e55;}.cls-40{fill:#444;}.cls-41{fill:#3b3b3b;}.cls-42{fill:#f31803;}.cls-43{fill:#f9e14f;}.cls-44{fill:#dcc846;}.cls-45{fill:gray;}.cls-46{fill:#998b32;}.cls-47{fill:#ec9114;}.cls-48{fill:#d2c042;}.cls-49{fill:#b9b9b9;}.cls-50{fill:#787878;}.cls-51{fill:#d8c54c;}</style></defs><title>mouse 2</title><g id="Layer_2" data-name="Layer 2"><g id="Layer_4" data-name="Layer 4"><path class="cls-1" d="M301.61,158.77c-9.19-1.42-18.4-2.74-27.56-4.3s-18.18-4-26.56-8.31c-20.14-10.36-21.24-30.53-15.28-44.37,9.46-21.94,24-39.29,46.43-50,21.68-10.32,44.43-15.57,67.83-19.27,28.33-4.47,56.78-5.82,85.46-5.81,24.69,0,48.08-6.06,68-21.93,2.61-2.09,5.38-3.95,8.79-4.49,4.5-.71,8.9-.51,11.38,4,2.23,4,.62,7.8-2,11.06S511.6,21,507.88,23.26c-3.06,1.86-6.86,2.54-10.34,6.92h22.23c6.68-1.83,13.64.6,20.31-1.38l13.76-.57c2.87-.87,5.73-1.44,8.45.45a2.44,2.44,0,0,1-.58,2.59,8.76,8.76,0,0,1-2.55,1.1,19.36,19.36,0,0,1-3.95.28,21.93,21.93,0,0,0-6,.53,10,10,0,0,1-2.31.31,12.21,12.21,0,0,0-4.59.73,24.61,24.61,0,0,1-5.06.65c-6.5.56-13.26-1.35-19.37,2.22,2.11.76,3.61-1.36,5.6-1.31a9,9,0,0,1,2.63.95c7,2.76,13.78.79,20.52-1.3,9.54.13,19.13,1.75,28.54-1.11,5.58.46,11.13,1.41,16.76,1,4.43-2.17,8.94-.79,11.29-.64-2.16-.17-6.44-2.49-10.81.15-6.12-1-11.69-4.8-18.25-3.47-2.58-.88-6.15-.5-6.09-4.75l5.77-.41a57,57,0,0,1,20.38.08c14.33,2,27.45,8.06,40.66,13.31,7.83,3.11,10.64,11.43,11.07,19.81.6,11.91-2.64,23.07-7.3,34.1,5.11,2.93,10.84,3.45,16.21,5,27.1,7.88,48.46,23.23,62.61,47.94,17.22,30.05,15.79,61,1.39,91.05-14.07,29.33-37.21,50.83-65.9,66.19-24.25,13-49.44,23.11-77.21,25.58-2.76.25-5.88.11-8.11,3-3.89,5-4,7.59.11,12.93,10.92,14.27,22.24,28.22,31,44.11,12,22,20.39,44.83,19.6,70.67,5.7.29,9.49-3.16,13.17-6.18A70,70,0,0,0,645,439.19c1.51-2.2,2.92-4.47,4.55-6.58,3.87-5,7.75-11.19,15.17-8.84,7.07,2.24,11.33,8.29,12.53,15.58a68.06,68.06,0,0,1,.56,16.93c-.42,4.7,1.26,6.36,5.46,7.68,18,5.7,36.58,6.82,55.26,7,8.64.08,17.26.41,25.8-2,4.46-1.26,9.64-1.1,12.94,3,3.52,4.42,2.45,9.71.38,14.3-3.77,8.34-10.8,13.4-19.25,16.34a51.81,51.81,0,0,1-17.72,2.55c-18.66-.18-37.18-2.34-55.76-3.56-21.54-1.42-42.13,2.91-57.7,19.46-17.92,19-33.16,40-41,65.43-3.92,12.81-4.4,26.2-6,39.38-.26,2.17.79,4.55,1.47,6.76,11.32,36.88,13.38,74.6,10.14,112.78-1.08,12.64-4.19,25-7,37.27-1.29,5.61-.62,10.06,2.66,15,6.66,10,12.59,20.41,18.7,30.72a30,30,0,0,0,11.3,10.89c14.36,8.29,30.06,10.56,46.15,10.77,26.76.34,53.14-3.66,79.34-8.54,28.56-5.32,57-4.65,85.43.43,3.28.58,6.6,1,9.57,2.69-.34,4.32-3.9,4-6.74,4.66-8,.68-15.83-1.67-23.84-1.84-22-.46-43.71,1.57-65.52,4.93-35,5.39-70.31,7.82-93.89,2.4,15,3.29,41.69,3.07,68.61.65,20.13-1.82,40.33-3.8,60.6-2.21,5,.39,9.94-.4,14.91-.69A278.75,278.75,0,0,1,863.39,858c3.51,2,7.46,2.9,11.26,4.17a189.11,189.11,0,0,1,31.21,15.53A125.23,125.23,0,0,1,921,889.06c13.67,11.81,16.7,27,12.76,43.57-2.83,12-11.27,19.37-23.35,22-13.62,3-27.21.55-40.71-1.16-37.19-4.71-72.71-15.88-108-28.17-43.4-15.13-87.92-17.89-132.9-8.81-15.59,3.15-30.68,8.76-46.06,13-29.19,8.1-56.86,2.87-83-10.95-17.49-9.23-25.33-25.56-29.14-44.24-.53-2.57,1.32-7.18-3.24-7.08s-2.33,4.56-2.71,7.07c-3.45,23-14.33,40.49-36.26,50-25.89,11.17-52.37,14.79-79.84,6.25-6.66-2.07-13.63-3.27-20.16-5.69-18.31-6.81-37.27-9.84-56.65-10.83-31.87-1.64-63.21,1.49-93.54,11.71-28.07,9.46-56,19.24-85.12,25.14a342.29,342.29,0,0,1-53.41,7c-9.69.41-18.94-.81-27.42-6.95-16.89-12.22-15-42.94-2.38-55.67,11-11.11,24-18.89,37.79-25.67a137.58,137.58,0,0,0,15.66-8.42C75.7,853,89.65,848,104,844.23c2-1.2,4.47-.25,6.5-1.35l21.84-2.36c23.8-2.59,47.16.78,70.54,4.8,22.64,3.9,45.43,7.13,68.5,6.71,16.44-.29,32.48-2.55,47-11.24,3.83-2.28,7.11-4.81,9.39-8.66,4.25-7.15,8.43-14.36,12.93-21.37,2.15-3.35,1.93-5.58-.82-8.66a788,788,0,0,1-65.71-85.53,343,343,0,0,1-32.53-61.75c-18.82-46.11-19.13-92.73-5-139.94.77-2.55,1.63-5.07,2.38-7.63a16.34,16.34,0,0,0,.16-2.82c-14.93,2.21-29.86,2.43-44.78,2.68-12.11.2-23.09-2.58-31.89-11.55-4.15-4.24-6.67-9.11-6.53-15.14s2.41-8.68,8.06-9.56a22.88,22.88,0,0,1,7,0c27,4.4,53.65,2.41,80-4.68,5-1.34,7.39-3,6.42-8.83-.81-4.82.11-9.95.38-14.93.38-7,4.85-11.53,9.8-15.56,2.39-1.93,5.72-2.75,8.45-.81,4.82,3.43,6.89.28,9.4-3.08a275.7,275.7,0,0,1,74.36-68.9,31.43,31.43,0,0,0,3.3-2.25c8.63-7.16,8.94-9,3.59-19-15.26-28.47-30.6-56.9-41.67-87.36-1.24-3.42-2.19-6.95-3.28-10.44-.72-2-1.08-3.89,1.36-5,5.23,1.06,6.06,5.74,7.56,9.63,11.53,29.85,26.56,58,41.77,86.07,1.32,2.42,2.09,6.49,6.17,4.81,3.47-1.42,4.33-4.78,3.58-8.43s-2.52-6.92-1.8-10.73c.75-2.17,1.76-3.93,4.54-3,3.14,1.22,4.65,6.72,9.18,4,4.14-2.48,5.2-6.88,4.81-11.37-.84-9.62-2.58-19.13-3.89-28.69a452.05,452.05,0,0,1-2.16-102.54c.92-10.24,0-10.68-10.71-10.75-12-.08-23.84,2.42-35.85,2.31l-3.48,0c-12.68-.17-25.38,1.12-38-.82A25.33,25.33,0,0,1,301.61,158.77Z"/><path class="cls-2" d="M301.61,158.77l2.82-.08c7.23,11.86,7.33,26,12.24,38.62,3,7.69,4.75,15.85,7.36,23.72,1,3.06,2.49,6.29.1,9.46-2,.87-1.69,3-2.36,4.54C312.24,210.36,304.57,185.19,301.61,158.77Z"/><path class="cls-3" d="M831.84,846.72c2-.85,4.78.48,6.2-2.12,13.17,3.84,26.18,8,36.61,17.54-3.61,0-7.46,1.61-10.57-1.62-7.32-5.58-16.89-4.72-24.79-8.66C836.57,850.5,832.38,851.25,831.84,846.72Z"/><path class="cls-4" d="M561.87,30.09c-2.33-2.14-5.59-.23-8-1.86,4.56-2.22,9.41-1.89,14.25-1.57,1.56,2.25,4.7,1.28,6.43,3.17a3.89,3.89,0,0,1-2.19,2.27C568.53,33.06,564.78,33.72,561.87,30.09Z"/><path class="cls-4" d="M540.08,28.8c-6.58,3.28-13.46,2-20.31,1.38C526.45,28.34,533.26,28.59,540.08,28.8Z"/><path class="cls-4" d="M594.24,26.33c-6.8.35-13.59.74-20.38-.08C580.66,24,587.46,23.48,594.24,26.33Z"/><path class="cls-5" d="M110.49,842.88c-1.9,1.73-4.14,1.84-6.5,1.35C105.81,842.13,108,842,110.49,842.88Z"/><path class="cls-6" d="M374.41,824.17a112.62,112.62,0,0,1-18.05-37.33,260.4,260.4,0,0,1-2.13-126.45c.73-3.13-.1-8,5.77-7.32,12.48-.71,24.14,3.85,36.2,5.81,4.57.74,5.85,4.88,5.48,9.37-2.94,35.76-5.16,71.6-14.48,106.5-3.6,13.51-2,18.34,11.05,23.58,36.23,14.57,73,16.65,109.62,1.19,10.1-4.27,19.8-9.54,29.48-14.75,11.46-6.16,14-11.09,10.47-23.55-8.41-29.77-16.64-59.59-25-89.37-4.5-16-4-16.16,11.47-22.7,10.11-4.28,20.24-8.56,30-13.59,3.59-1.84,7.56-4.83,11.44-.2,2.53,14.36,6.93,28.32,9,42.8a265.28,265.28,0,0,1-6.14,107.52c-3.1,11.66-9.49,21.86-15,32.43-3.51,9.36-11.42,15.28-16.75,21.72,6.91-4.79,10.34-14.83,19.4-19.15,6.3-6.82,9.29-15.87,15.06-23.4,3.56,2.78,4.16,6.54,5.21,9.91,5.92,19,19,32.54,34.24,44.33,6.17,4.78,13.57,7.11,21,9a128.44,128.44,0,0,0,28.6,4.18c22.31.6,44.5-.52,66.8-2.24,32.17-2.48,64.53-1.34,96.79,1.14a208.8,208.8,0,0,1,36.43,5.78c16.49,4.26,31,12,42.52,24.77a8.57,8.57,0,0,0,1.39,1.43c13.76,9,14.71,22.75,13.64,37.2-.48,6.5-6.92,13.32-14.81,15.73-6.5,2-13.15,2-19.82,1.39a424.07,424.07,0,0,1-90.9-18.21c-14.61-4.56-29-9.83-43.49-14.79-18.4-6.31-37.47-8.79-56.74-10.83-22.75-2.42-45.24-.89-67.73,2.09-13.93,1.84-27.33,5.91-40.47,10.74-18.83,6.91-38.06,10.27-57.83,5.54-15.94-3.81-31.57-8.87-43.08-21.59-10.51-11.61-16.24-24.74-13.58-41,1.41-8.65,4.6-17.15,3.75-27.3-5.09,4.08-7.09,8.94-9.08,13.77-.89,2.15-1.53,4.41-2.36,6.58-1,2.51-3,3.41-5.54,3.43s-3.07-2.14-3.73-4c-2.12-6-4.32-11.84-9.89-17.45-1.27,4.87-.53,8.83.26,12.79,1,4.89,2,9.77,2.9,14.69,3.83,21.9-10.81,42.13-25.65,50.26-25.71,14.1-52.54,18.35-80.9,8.83-17.36-5.82-34.67-11.83-53-14-44.27-5.24-87.68-2.56-129.93,12.94-33.5,12.3-67.66,22.32-103.15,27.12-8.58,1.16-17.21,1.89-25.83,2.63a39.7,39.7,0,0,1-15.8-1.78c-9-2.93-14.08-9.87-14.1-19.24,0-4.66.19-9.32.37-14,.19-4.89,2.42-8.88,5.53-12.54,20.87-24.58,48-36,79.62-38.31,21.27-1.55,42.55-3.3,63.87-2.88,18.92.37,37.84.69,56.78,2.52,24.18,2.34,48.61,2.61,72.71-1.76,28.94-5.24,47.83-23.13,60-49.12,2.33-5,3-10.79,7.45-15.72,7.22,8.87,10,20,18.25,27.28,7.37,2.52,10.15,10,15.24,14.06C383.42,835.33,377,831.27,374.41,824.17Z"/><path class="cls-6" d="M447.65,347a6,6,0,0,0,.24.95c7.39,17.37,8.69,18.09,27,16.05,2.91-.33,4.8-1.26,6-4.11,2.36-5.73,5-11.34,7.58-17,1.47-15,10.38-27.35,14.62-41.36.64-2.1,3-2.16,5.1-1.71a38.18,38.18,0,0,1,13.36,17c9.33,22.05,19,43.94,21.87,68.1a137.75,137.75,0,0,1,.13,30.91C542,430.34,541.68,445.1,537,459.2c-2.1,6.33-1.39,13-1.58,19.63-1,33.41,8.54,64.49,19.64,95.32,5.07,14.1,10.06,28.23,15.09,42.35,2.17,6.93-3.58,8.36-7.66,10.73a199.19,199.19,0,0,1-86.7,26.62c-30.56,2.29-60.05-2.17-89.61-8.21-2.29-.47-4.52-1.18-6.15-3-4.23-.89-8.5-1.64-12.68-2.72-7.43-1.93-7.48-2-5.54-9.2,4.35-16.08,9.87-31.78,15.61-47.41,7.81-21.26,15.94-42.5,19.25-65,3.24-22,6.14-44.13-.69-66.21-3.35-10.85-3-22.4-4.18-33.63a144.89,144.89,0,0,1,2.4-45.61c2.83-13.48,8.2-26,12.88-38.75a194.68,194.68,0,0,1,9.48-20.87c2.8-5.55,6.7-10.25,13-12.3,1.47.8,3.05,1.72,3.53,3.32,3.58,12,8.77,23.45,13.55,35C447.66,341.75,447.06,344.44,447.65,347Z"/><path class="cls-7" d="M567.4,43q25.5,0,51,0a40.29,40.29,0,0,1,11.87,1.39c4.52,1.39,7.77,4.16,7.86,9.13.15,9,1,17.95-1.2,26.86-3.31,13.21-3.2,13.38-16.47,11.73a237.11,237.11,0,0,0-61.79.94c-26.08,3.6-51.74,9.5-77.15,16.44-24.1,6.58-48.6,11.48-73,16.88-2.4.53-7,3.72-7.31-2.72a16.9,16.9,0,0,0-.29-1.87c0,.62-.05,1.25-.12,1.88-.55,4.85-4.55,5.19-8.05,6-12,2.78-24.1,5.06-36.54,5-10.62,0-21.09,2.47-31.79,2.17-7-.21-13.91-1.32-20.86-2.05a5.24,5.24,0,0,1-3.58-1.48c-.4-.42.09-2.82-1.37-1.24a4.33,4.33,0,0,1-4.3,1.56,110,110,0,0,1-19.44-4.47,6.88,6.88,0,0,1-5-5.51c-2.16-9.76-4.63-19.49-3.44-29.61.82-6.95-.89-13.84.23-20.87,1.46-9.21,1-9.32,9.81-10.07,18.91-1.59,37.76-3.8,56.62-5.91,38.73-4.34,77.65-6.83,116.56-8.44C488.89,47.14,528.07,43.65,567.4,43Z"/><path class="cls-8" d="M360.09,650.53c-2.19-1.6-4.34-3.12-2.38-6.39,1.39-2.31,3.35-1.67,5.2-1.29,3.53.73,6.93,2.21,10.65,1.92,24.89,2.29,49.36,8.14,74.33,9.44,19.19,1,38.19-1.79,57.14-4.94,21.35-3.56,40-13.46,58.71-23.49,4.44-2.38,8.82-4.38,10.1,3.22l-.06.88c-12,9.91-26.63,14.72-40.7,20.43-13.42,5.45-14.26,5.47-10.31,19.27,8.12,28.43,16,56.93,24.41,85.26,5.51,18.54,3.8,23.06-12.74,32.3-26,14.52-53.49,24.22-83.62,23.17-17.88-.63-35.8-2.52-52.3-10.66-13.37-6.6-15.81-11.2-12-25.07,7-25.69,10-51.9,11.91-78.39.63-8.89.45-18.07,2.47-26.68,1.94-8.25-1.69-9.87-8.2-11C381.65,656.51,370.16,656.38,360.09,650.53Z"/><path class="cls-8" d="M341.3,723c-7.8-2.67-13-7.32-18.05-12.09-54.9-52.11-72.55-115-54.17-188.2.48-1.94.88-3.91,1.51-5.79,4.28-12.74,1.46-12.34,15.17-8.29,8.56,2.53,15.63,7.59,21.59,13.89C324.83,541,339.77,561.21,348,585.7c4.56,13.67,5.71,27.93,6.83,42.16a17,17,0,0,1-1,5.87c-8.18,27.95-12.92,56.37-11.78,85.61A20.46,20.46,0,0,1,341.3,723Z"/><path class="cls-6" d="M620.69,464.8c12.17-2.43,20.84-9.94,28-19.53,3-4,5.41-8.42,8.41-12.41,3.83-5.1,5.79-4.95,10.1,0a18.37,18.37,0,0,1,4.66,12.85c-.26,13.23-4.15,24.88-15.75,33.32,7.08.64,9.14.65,12.45-5.05,4.27-7.32,8.74-6.6,15.52-4.06,11.32,4.24,23.43,4.84,35.47,4.84q23,0,46-.19c3,0,6.19-.54,7.6,3.08s-.09,6.49-2.39,9.13c-6.45,7.39-14.36,11.62-24.39,11.8-17.32.31-34.49-.17-51.75-2.69-28.53-4.17-54.33,2.23-74.88,23.87-6,6.28-11.53,12.93-17.23,19.45-12.73,14.54-17.88,32.48-22.53,50.61-1.49,5.79-2,11.83-4.4,17.56-2.72-2-2.9-5-3.79-7.71-7.07-21.16-15.85-41.72-22.07-63.17-1.21-4.16-1.9-8.55-3.68-12.44-4.47-9.76-.46-17.39,5.56-24.53s11.91-14.31,18.78-20.63c1.58-5.23,6.32-6.45,10.53-8.32C593.58,464.9,607.1,464.56,620.69,464.8Z"/><path class="cls-6" d="M358.81,608.22c-.95-4.44-2.05-8.86-2.8-13.33-5.7-34-24.21-60.28-50-81.76-13.7-11.44-30.56-15.73-48.34-16.44A111.34,111.34,0,0,0,231,498.92c-14.91,3.05-29.86,1.53-44.81,1.32-9-.13-15.67-4.94-21.47-11.3a9.37,9.37,0,0,1-2.84-7.19c.21-3,1.36-5.24,4.71-5.25,4.32,0,8.64.32,13,.27,20-.21,40,1.24,59.85-2,5.24-.85,10.42-2.21,15.57-3.53,4.53-1.16,8-1.25,10.88,3.74,2.57,4.44,6.62,8.3,14,6.69-12.39-9.19-16.74-21.22-16.22-35.35A17,17,0,0,1,267,436.12c5-6.52,7.16-6.68,11.9-.13,2.73,3.78,5.12,7.8,7.81,11.6a49.9,49.9,0,0,0,29.94,20.31c6.72,1.59,13.82,1.17,20.75,2.26,16,2.52,28.78,9.9,38.7,22.52,4.51,5.74,9.8,10.84,13.3,17.43a13.16,13.16,0,0,1,1.19,10.32c-4.68,19.13-11.41,37.58-18,56.09-3.76,10.62-7.8,21.14-11.72,31.71Z"/><path class="cls-9" d="M452.37,140.45c-1-.92.28-5.68-2-3-4.49,5.29-10,6-15.86,6.8-9.23,1.28-18.44,2.76-27.7,3.84-2.49.29-6.18,2.43-7.08-2.52-1.13-6.23.5-10,5-11,19.45-4.45,38.93-8.76,58.35-13.31,28.51-6.69,56.7-14.68,85.58-19.77a251.67,251.67,0,0,1,94.33,1.11c21.84,4.42,41.93,13.29,57.28,30.3,24.22,26.82,30.62,57.33,18.39,91.57-12.05,33.74-35.73,57.2-66.3,74.22-23.14,12.89-47.88,21.53-74.3,24.92-1.6.2-3.2.71-4.74-.23,2.28-10.08,8.26-15.6,18.66-17.91,20-4.43,38.27-13.2,56.11-23.11,18.27-10.14,32.31-24.81,43.34-42,7.79-12.1,10.31-26.6,10.26-41.07,0-9-1.92-17.86-4.29-26.56a58.19,58.19,0,0,0-23.7-33.52c-13.1-9.09-27.65-14.14-43.33-16.5-27.69-4.16-55.07-.69-82.5,2.64-4,.48-9,4.21-12.18-1.67-.51-.93-.64-1.32-.85-.21-1.46,7.61-8,4.39-12.21,5.43-8.7,2.16-17.69,3.17-26.49,5-5.2,1.08-9.59.64-13.92-2.93-6.51-5.36-13.85-5.83-22.08-1.8,2.79,3.06,7.58-.63,9.35,3.33C463.7,135.11,458.22,138.18,452.37,140.45Z"/><path class="cls-8" d="M640.17,130.33c5.35,1.84,10.82,3.39,16,5.59,32.68,13.83,42.37,43.87,39.53,74.34-2.21,23.57-15.51,40.12-31.92,54.63-22.61,20-50.06,30.77-81,39.19,21.95-42.26,37.93-84.66,47.53-129.34-.68-12.17,2.44-24,3.39-36C634.06,134.89,634.79,130.62,640.17,130.33Z"/><path class="cls-10" d="M267.68,505.29a279,279,0,0,0-10.59,48.49C253,588,256.71,621.3,271.83,652.2s35.17,58.11,66.25,75.18c3.1,1.7,4.16,3.58,4.28,6.92.64,17.37,4,34.36,8.09,51.18,1.4,5.8.92,10.41-4.46,15.09-4.48-5.12-9.14-10.14-13.47-15.44-32.15-39.28-62-80-81.26-127.54C239.77,629.26,232,600.19,234,569.16a250.08,250.08,0,0,1,10.61-57.81c2.54-8.21,3.35-8.83,12.1-8.06C260.25,503.59,264.09,502.83,267.68,505.29Z"/><path class="cls-8" d="M550.19,308.54c-1,.88-1.82,2.15-3,2.58-9.74,3.65-15.64-1.16-14.1-11.36,3.42-22.67,6.56-45.35,7.88-68.27,1.52-26.3-.63-52.47-2.09-78.66-.37-6.59-3.52-14.44-.3-19.42,3.48-5.37,12.25-3.2,18.67-4.09,10.82-1.5,21.71-3.13,32.73-2.75,5.06,7.58,3.27,16.15,2.35,24.07-3,25.87-7.12,51.61-13.65,76.87-6.26,23.37-12.61,46.71-21.64,69.22C555.34,301,554.23,305.62,550.19,308.54Z"/><path class="cls-8" d="M527.81,301.84C505.3,279.05,491,255.21,490.5,223.93c-.3-20.44,0-40.6,4.21-60.61,1.42-6.8-.31-13.24-2-19.65-.8-3,0-4.38,2.95-4.88,11.5-2,23-3.9,34.46-6,3.47-.63,5,.84,5.3,4a49.06,49.06,0,0,1,.45,5c.16,31.65,2.73,63.28.35,94.94C534.58,258,531.64,279.07,527.81,301.84Z"/><path class="cls-8" d="M628.35,170.7a553.06,553.06,0,0,1-50.92,130.67c-1.42,2.62-2.66,5.39-5.36,7.05a15.13,15.13,0,0,1-10.71,4.45c-7.42.13-9.67-2.78-6.9-9.82A599.23,599.23,0,0,0,577,231.48c7.76-33.66,14.87-67.4,14.18-102.23a5.82,5.82,0,0,1,.86-2.8l0,0a63.28,63.28,0,0,1,22.13-.16l19.63,2.51c2.92,2.39,1.52,5.48,1.25,8.3C633.93,148.51,633.23,160,628.35,170.7Z"/><path class="cls-8" d="M407.38,303.66c-4.28-24.39-7.37-47-8.73-69.83-1.41-23.93-.51-47.88.18-71.82.22-7.63.43-7.76,7.55-8.77,11.75-1.67,23.52-3.14,36.56-4.87-4.8,11.53-1.54,21.76.22,32.12,3.54,20.85,2.08,41.84,0,62.61-1.45,14.37-8.66,27.17-16.88,39A138.25,138.25,0,0,1,407.38,303.66Z"/><path class="cls-8" d="M346.39,158.73,395.22,155c1.43,4.78.56,9.42.18,14A469.91,469.91,0,0,0,401,293.24c2.2,12.09.23,20.62-10.38,27-3.76-2.81-3.49-8.24-6.52-11.75a12.79,12.79,0,0,1-4.54-6.38C369.93,276.66,361,251,355.21,224.31c-4.36-18.64-7.71-37.46-10.51-56.39C344.2,164.56,343.49,161.37,346.39,158.73Z"/><path class="cls-10" d="M375.86,352.41c8.43-8.19,14.29-18.37,21.37-27.6a68.77,68.77,0,0,1,8.19-9c-4.13,11.43-8,22.94-12.25,34.25-11,28.94-12.17,58.42-6.3,88.47,3.38,17.35,4.67,35,7.08,52.45a35.93,35.93,0,0,1-.5,12.51c-3.35.91-3.64-1.64-4.52-3.13-10-16.71-23.29-29-43.16-32.45-4.08-.71-5.63-2.65-5.27-6.75.28-3.29,0-6.64-.08-10,2.36-8.06-.77-16.2.93-24.49A198.84,198.84,0,0,1,368,361.06C370.07,357.74,372,354.15,375.86,352.41Z"/><path class="cls-10" d="M566.18,476.55c-5.72,2.47-9.47,7.27-13.22,11.85-3.51,4.3-6.3,9.2-10.06,14.81-2.24-5.58-2.17-10.26-1.51-15.09,3.17-23.41,6.13-46.86,9.41-70.26,3.22-23-.29-45.09-7.83-66.75-4.12-11.86-8.41-23.66-11.54-36.28,3.69,4.75,7.49,9.44,11.06,14.28,4.93,6.67,9.22,13.85,15.48,19.46,7.14,3.07,9.18,10.31,12.6,16.16,16.16,27.67,25.89,57.29,26.23,89.68.08,8.26-2.76,13.12-11.29,14.66C578.67,470.29,572.8,474.48,566.18,476.55Z"/><path class="cls-8" d="M324.13,230.49c-4.16-13.61-8.36-27.21-12.47-40.84a213,213,0,0,1-7.23-31l39.24.15c5,22.9,7.63,46.23,13,69a590.48,590.48,0,0,0,22.47,72.49c1.52,4.05,1.63,8.27,2.9,12.29a9.67,9.67,0,0,0,.32,2c4.41,12.08,4.42,12.07-6.46,22.08C356.33,302.22,338.57,267.18,324.13,230.49Z"/><path class="cls-6" d="M507.79,294c-13.69-8.41-26.7-12.07-41.22-12.43s-26,5.73-37.45,13.49l-1-1.71c2.56-3.73,5-7.52,7.69-11.18,11.81-16.24,16.81-34.63,16.92-54.43.06-9.32-.34-18.67-1.12-28-.39-4.58,1.11-7,5.32-8,4.86-1.14,9.69-2.64,14.62-3.11,9.06-.85,12.83,3.11,11.93,12-1.25,12.29-1.73,24.51-.28,36.88a93.86,93.86,0,0,0,18.39,45.79C503.68,286.24,506.22,288.88,507.79,294Z"/><path class="cls-11" d="M360.09,650.53c12.36,2.44,24.68,5.14,37.11,7.19,5.23.86,6.55,3.15,6,8-4.06,37-4.44,74.37-15,110.46-3.46,11.81-1.14,16.14,10,21.39,17.52,8.27,36.28,10.56,55.4,10.34,30.74-.36,58.73-10.16,85-25.53,9.32-5.46,11.57-10.16,8.44-20.86-7.29-24.86-13.1-50.13-21.43-74.69-3.09-9.12-5.65-18.32-6.42-28.07-.34-4.35.64-6,4.47-7.14,17.64-5.13,33.82-13.67,50.17-21.79q1,2.73,2,5.48c-2.35-1.44-4.38-.45-6.52.68-13.85,7.3-28,14-43,18.59-4.73,1.45-4.18,4.29-3.22,7.73,3.21,11.53,6.07,23.18,9.69,34.58,6.53,20.62,10.39,42,17.7,62.36a30.52,30.52,0,0,1,1.41,11.83c-.22,5-2,9.11-6.4,11.72-29.77,17.69-60.25,33.1-96.53,29.58-15.55-1.51-31.18-2.68-45.89-8.63a88.65,88.65,0,0,1-8.24-3.57c-11.37-6-14.46-11.27-10.94-23.44,10.25-35.48,11.53-72.14,15.34-108.49.56-5.29-1.52-7-6.36-7.76-11.07-1.79-22.41-2.58-32.79-7.47Z"/><path class="cls-12" d="M299.79,152.25c-16.44-.57-32.4-3.6-47.53-10.1-11.51-4.94-16.92-15.82-15.52-28.52,1.2-10.95,5.5-20.43,12.13-29.06,3.8-4.94,7.53-9.89,13.12-13.43-3.42,11-2.52,22.46-6.07,33.28-4.2,12.83,1.93,24.69,14.9,29.24,8.76,3.08,17.55,6.28,26.91,7.17C301.82,144,303.82,147.59,299.79,152.25Z"/><path class="cls-5" d="M300,853.35c-9.71,6.06-21,5.45-31.68,7.3-14.58,2.53-29.3.78-43.86-.41-22.92-1.86-45.82-2.59-68.81-2.54-17.31,0-34.58-.75-51.9.67-11.26.92-22.43,2.52-34.19,4.15,1.33-3.24,3.85-3.7,6-4.67,18-8,36.93-10.61,56.37-11.61a213.19,213.19,0,0,1,57.59,4.68c18,4,36.28,5.11,54.61,5.21C262.75,856.23,281.41,856.79,300,853.35Z"/><path class="cls-13" d="M831.84,846.72c8.12,2.74,16.3,5.29,24.3,8.33,3,1.12,6.83,1.45,7.94,5.47-20-4.19-40.31-5.57-60.56-5.3-23.28.32-46.61-.37-69.88,1.33-14.93,1.09-29.88,1.94-44.83,2.89-16.11,1-31.81-2-47.53-4.84-2.37-.44-4.34-1.57-7-3.84,24.39,4.43,48,3.51,71.55,3,15.4-.33,30.52-2.66,45.5-5.89,22.43-4.83,45-4.41,67.63-2.43C823.23,845.84,827.54,846.3,831.84,846.72Z"/><path class="cls-14" d="M432.2,300.49c8-7.8,18.47-9.7,28.83-11.71,3.46-.68,3.63,2.14,3.77,4.45.34,6,.71,11.95.75,17.93.11,15.58,0,31.17,0,46.86-3.94,1.33-6.91.25-9-3.52-2-3.45-4.17-6.74-6.27-10.1A119.07,119.07,0,0,1,432.2,300.49Z"/><path class="cls-15" d="M485.69,340.26c-3.18,5.39-6.39,10.75-9.51,16.18a3.73,3.73,0,0,1-4.1,2c-2.21-.34-2.06-2.21-2.06-3.84,0-20.31.13-40.63,0-60.94,0-4.81,2.34-5.62,6.3-4.88,8.85,1.66,17.55,3.8,25.73,7.7a4.2,4.2,0,0,1,1.07,3.64C499.26,314.37,494.51,328.2,485.69,340.26Z"/><path class="cls-16" d="M295.74,447.62c-12-13.43-12.05-13.47-2-26.32a268.36,268.36,0,0,1,49.48-49.09c1.8-1.36,3.34-3.2,6.11-3.59C336.48,398.24,313.32,420.52,295.74,447.62Z"/><path class="cls-13" d="M572,358.85c8.57,13,17.24,25.95,24.17,40,9.86,20,17,40.43,15.58,63.1-2.66,5.66-7.91,4.42-12,3.49-4.52-1-3.6-5.82-3.53-9.34.63-31.39-8.94-60-23.76-87.14C569.09,362.89,569.13,362.86,572,358.85Z"/><path class="cls-17" d="M338.27,438.58a114.36,114.36,0,0,0-1.92,22.83c0,3.49-.67,5.76-4.91,5.46-3.73-.26-7.53.19-7.52-5.38,0-8-.47-15.95,1.45-23.83,5.81-23.83,16.86-45.22,30.35-65.48,2-.54,2.9.65,3.44,2.33-1.39,8.54-6,15.88-9.26,23.69C344.49,411.28,343.45,425.51,338.27,438.58Z"/><path class="cls-18" d="M573.84,629c-1.73-3.59-3.2-5.75-8-2.7a232.69,232.69,0,0,1-25.33,13.76c-20.38,9.71-42.24,13.28-64.55,15.05-30.75,2.43-61-1.06-90.94-7.62-3.83-.84-8-.25-11.49-2.72,2.1-.91,4.89.25,6.48-2.17,13.75,2.26,27.44,5,41.26,6.68,40.18,5,79.77,3.48,117.56-13,8.82-3.85,17.17-8.77,25.74-13.2,2.74-1.43,5.09-3.19,5.56-6.55C572.66,620.29,574.7,624.22,573.84,629Z"/><path class="cls-19" d="M572,358.85c-3.09,3.67.8,5.9,2.07,8.33,9.09,17.38,16.6,35.31,20.92,54.52a171.56,171.56,0,0,1,3.74,33.5c.27,10.85,2.88,12.16,13,6.76,2.16,3.55,5.92,2.11,9,2.84-5.88,4-12.77,1.69-19.14,2.82a90.43,90.43,0,0,0-31.24,11.26c-.76-1.87-2.42-2.14-4.13-2.33A35.41,35.41,0,0,1,588.08,466c5-.54,6.25-3,6.23-7.89-.13-34.39-9.77-65.93-27.71-95.11-2.93-4.77-5.76-9.62-8.63-14.44,2-2.05,3.62-4.6,6.67-.95C567.55,351.1,570.89,354.21,572,358.85Z"/><path class="cls-20" d="M476.54,30.79A234.62,234.62,0,0,1,438,34.46a405.55,405.55,0,0,0-41.82,2.61c-6,.66-11.68,5-18,1.53-23.61.18-46.8,4.32-70.57,8.13,1.93-3.4,4.91-3.46,7.35-4.33a41.94,41.94,0,0,1,8.64-2.25c15.8-2,31.63-3.93,47.44-5.88,24.39-3,49-2.6,73.44-4,5.27-.29,10.52-1,15.78-1.57C465.6,29.7,471.62,25.89,476.54,30.79Z"/><path class="cls-21" d="M356.35,140.79c11.58-.31,23-2.29,34.42-3.83,2.43-.32,6.21-2.68,7.14,2.13.8,4.14-2,9.31-5.3,10.22a20.3,20.3,0,0,1-5.83,1c-10.95-.28-21.69,2.14-32.58,2.43-10.4.84-11.48-.52-8.28-10.4l.07,0C349.24,140.49,353.08,142.56,356.35,140.79Z"/><path class="cls-22" d="M476.54,30.79c-5.31-1.81-11.29,1.71-16.35-2.06,4.52-3.17,10.16-2.86,15.09-4.85A113.21,113.21,0,0,0,502.87,8.06c5.28-4.15,10.18-5.13,12.48-2.76,2.44,2.52-.07,7.94-5.92,12.15A72.79,72.79,0,0,1,476.54,30.79Z"/><path class="cls-23" d="M578.28,232.8c-5.42,26.3-14.45,51.5-23.81,76.75,6.31,2.89,11.8-1.52,17.6-1.13-.23,2.8,1.36,6.06-2.05,8.06-5.76-2.46-12.36,3.3-17.86-1.81-.21-2.19.4-4.64-2-6.13,7.2-20.62,14.69-41.14,20.94-62.09,1.78-5.95,1.92-12.35,5-17.91C580.05,228.36,579,230.65,578.28,232.8Z"/><path class="cls-24" d="M338.27,438.58c-.68-8.49,2.13-16.43,4.33-24.36a221.92,221.92,0,0,1,15.51-39.69c1.55-9.24,10.19-14.95,12-24.08.79-1.75,1.8-3.92,3.88-3.42,2.67.64-.8,4.26,1.91,5.38-2.15,5.62-6.05,10.21-9,15.36-13.81,24.15-23.56,49.61-25,77.74-.11,2-.22,4-1.44,5.7C338.83,447.15,341.74,442.32,338.27,438.58Z"/><path class="cls-12" d="M312.19,142.28l15.78-.06c4.74-.95,9.47-1.29,14.18.18h0c4.78,10,4.18,11.33-6.65,11-11-.37-22.15,1.79-33.07-1.29C299.94,141.14,300.19,140.89,312.19,142.28Z"/><path class="cls-25" d="M317,461.87c-4,.89-5.79-.87-7.73-2-10.49-6.08-10.52-6.25-3.85-16.36,4.72-7.16,9.42-14.34,15.95-20.5C319,435.86,316.2,448.51,317,461.87Z"/><path class="cls-26" d="M382,312.67c-8.86-18.11-14.2-37.47-19.95-56.67-2.64-8.81-5.43-17.64-6.38-26.87-.19-1.91-1.76-4.45,2.08-4.48a700.05,700.05,0,0,0,25.49,80.07,25,25,0,0,1,.86,3.78C382.34,309.36,382.53,311.2,382,312.67Z"/><path class="cls-27" d="M578.28,232.8c-.65-1.46-.18-3.47-2.13-4.26,3.62-19.17,7.54-38.28,10.77-57.5,2.48-14.69,4.32-29.5,3.09-44.47l2-.12c1.6,34.9-5.3,68.81-12.18,102.71A19.52,19.52,0,0,1,578.28,232.8Z"/><path class="cls-28" d="M378.11,38.6c5.89-2,12-1.75,18-1.53.34,1.39-3.83,1.22-1.21,3.3,1.91,1.51,3.95,1.61,6.36.59,1.87-.8,2.92.76,3,2.66.08,1.46-.6,2.84-2.05,2.8-9.57-.3-18.51,3.45-27.9,4.15a5.44,5.44,0,0,1-4.53-1.43,1.61,1.61,0,0,1,.93-1.73c.77-1.08.38-2-.46-2.77.8-1.82,2.43-2,4.13-2.12C376.89,42.37,377.86,40.81,378.11,38.6Z"/><path class="cls-29" d="M369.85,49.14c-15.36,2.1-30.78,3.53-46.28,4.1-1.31,0-2.7.32-3.2-1.34a2.3,2.3,0,0,1,1.83-3C338,46.36,353.73,41.57,370,46.21a1.53,1.53,0,0,1,.74,1.28c0,.53-.06.79-.18.79A2.91,2.91,0,0,0,369.85,49.14Z"/><path class="cls-30" d="M428.72,38.18c5,0,9-.08,13,0a2.48,2.48,0,0,1,2.47,2.53,3.64,3.64,0,0,1-1.78,3.3,4,4,0,0,1-1.88.58c-9.91.58-19.76,2.31-29.74,1.72-2.06-.13-4.46-.51-4.66-2.78-.28-3.22,2.66-3.24,4.91-3.5C417.25,39.36,423.51,38.73,428.72,38.18Z"/><path class="cls-31" d="M475.93,36c8.73-2.69,17.69-1.48,26.57-1.56,2.35,0,5,.74,5,3.65s-2.83,3.56-5,3.79a130.91,130.91,0,0,1-26.7.53C472.81,40.23,472.82,38.1,475.93,36Z"/><path class="cls-32" d="M357.75,224.65c-1.59,1.08-1.46,2.95-2.08,4.48-5-16.17-7-32.94-9.67-49.56-1.11-6.86-1.57-13.82-2.33-20.73l2.72-.11c2.35,20.91,6.35,41.53,10.86,62.06C357.53,222.05,357.59,223.36,357.75,224.65Z"/><path class="cls-33" d="M552.16,314.67c4.85-.33,9.7-.5,14.43-1.95,3.25-1,3.84,1.09,3.43,3.76-3.14,6.13-6.91,10.94-15,10.11-6.12-.63-6.82-1.14-4.8-7.39A45.27,45.27,0,0,1,552.16,314.67Z"/><path class="cls-34" d="M475.93,36c-1,2.12-2.16,4.23-.14,6.41-9.19,4.13-18.62.28-27.91.81-1.83.11-2.08-1.3-2.18-2.62a2.48,2.48,0,0,1,2-2.92,36.82,36.82,0,0,1,14.7-.86c1,1.34,2.05,2.41,3.25.17C468.92,35.31,472.23,33.69,475.93,36Z"/><path class="cls-35" d="M485.69,340.26c4.63-12.87,11.43-24.87,15.33-38a52.16,52.16,0,0,0,1.05-5.71c2.11,1,4.54,1.32,6.09,3.31-3.57.29-3.47,3.13-4.3,5.66a257.08,257.08,0,0,1-15.42,37.41Z"/><path class="cls-36" d="M432.2,300.49q9,21.94,18.08,43.91l-2.63,2.6a249.53,249.53,0,0,1-18.12-46.11Z"/><path class="cls-37" d="M628.35,170.7c.49-8.92,3.33-17.42,4.66-26.2.8-5.21,1.86-10.41.79-15.72,2.33-.33,4.54-.19,6.37,1.55-4.07,2.55-3.12,6.83-3.67,10.62-1.65,11.33-2,22.9-6.13,33.79C629.7,173.4,629,172.05,628.35,170.7Z"/><path class="cls-38" d="M452.37,140.45c3.91-6.45,9.79-8.66,17.05-7.91a2.76,2.76,0,0,1,.33,3.57c-3.48,4.76-8.7,6.9-14,8.46C452.83,145.43,451.64,143.36,452.37,140.45Z"/><path class="cls-39" d="M302.48,152.1c10.48.24,21,.6,31.44.68,10.24.09,10.24,0,8.27-10.37l3.73,0a8.41,8.41,0,0,0-.33,1.9c.26,7.94.27,7.93,8.61,8.5-.83.51-1.64,1.41-2.5,1.46-15.41.86-30.82.41-46.23.08A3.48,3.48,0,0,1,302.48,152.1Z"/><path class="cls-40" d="M566.27,820.68c-6.93,9.69-15.47,17.8-24.87,25.18,6.14-10.28,14.41-18.84,22.22-27.75Z"/><path class="cls-4" d="M574.52,29.83c7-3.13,12.52-.66,17.33,4.55a1.25,1.25,0,0,1,.73,1.22c-.07.5-.17.76-.32.76-2.85.7-5.68,1.53-8.56,2.09-3.42.66-5.67-.9-6.81-4.14h-1.44c-1.25-.91-2-2-1.48-3.65Z"/><path class="cls-41" d="M374.41,824.17a112.73,112.73,0,0,1,19,23.13A117.6,117.6,0,0,1,372,826.61Z"/><path class="cls-42" d="M558.48,31a.85.85,0,0,1,1.2-.07c4.83,4.44,11.07-.09,16.18,2.56a3.06,3.06,0,0,0,1,.79c-.63,1.11-1.17,3.12-1.9,3.19-9.93,1-20,4.28-29.69-.95a2.75,2.75,0,0,1,2.2-3C551.09,32.43,555.41,34.45,558.48,31Z"/><path class="cls-4" d="M523.94,36.56c-6.31,5.75-7,5.69-13.08-1.71,9.47-.52,18.22-3.74,27.46-2.07C535,39.65,529.06,36.53,523.94,36.56Z"/><path class="cls-43" d="M523.94,36.56c1-2.19,3.08-2,5-2.1,3.2-.2,6.52.29,9.39-1.68l5.7-.11c0,3.61-.78,6.94-5.24,6.69-4.82-.26-9.85,1.64-14.44-1.22A2.52,2.52,0,0,0,523.94,36.56Z"/><path class="cls-44" d="M592.26,36.36c-.14-.66-.27-1.32-.41-2,.09-3.29,1.39-5.1,4.95-3.89a82.87,82.87,0,0,1,13,5.41A48.71,48.71,0,0,1,592.26,36.36Z"/><path class="cls-45" d="M370.07,350.45c1.62.31,2.4,1.62,1.44,2.71-5.65,6.4-8,14.85-13.4,21.37l-2.39-2.35Z"/><path class="cls-46" d="M289.53,56.74c6-4.16,11.23-4.79,16.2-6,1.38-.33,2.47.64,2.92,2.08.55,1.75-.74,2.59-1.92,2.87C301.66,56.9,296.52,57,289.53,56.74Z"/><path class="cls-47" d="M575.86,33.53c-3.36,2.29-7.45.82-11.15,2.38s-4.79-1.76-5-4.94l2.18-.88,12.1.57Z"/><path class="cls-4" d="M524.34,38.14c3.77,1.4,7.68.36,11.49.65,4.85.37,6.9-2.16,8.19-6.12,1.37-2.75,2.76-.41,4.15,0v1.28a4.84,4.84,0,0,0-2.87,2.63c-.9,1.72-1.81,3.89-4,3.69C535.63,39.73,529.37,43.59,524.34,38.14Z"/><path class="cls-39" d="M312.19,142.28l-8.86.47c-2.62,2.88-.09,6.28-.87,9.33l-2.67.17a31.61,31.61,0,0,0-2.06-11.42C302.64,140.43,307.6,139.5,312.19,142.28Z"/><path class="cls-27" d="M614.17,126.27c-7.37,1-14.75.13-22.13.16C599.39,122.89,606.78,124.22,614.17,126.27Z"/><path class="cls-47" d="M548.17,33.93a3.93,3.93,0,0,0,0-1.28l.05,0c1.6-1.93,4.4-.29,6-2.05l4.2.48c0,3.9-1.07,6.51-5.76,4.56C551.22,35,549.68,34.48,548.17,33.93Z"/><path class="cls-48" d="M465.61,37c-.8,1.88,3.41,4.39-.08,5.47-4.09,1.27-3.55-2.13-3.29-4.69,0-.32.08-.64.12-.95Z"/><path class="cls-39" d="M342.15,142.4c-4.73.38-9.46.73-14.18-.18C332.73,140.31,337.46,140,342.15,142.4Z"/><path class="cls-49" d="M543.24,314.41c1.64-.08,3,0,3.09,1.74.12,1.49-.7,2.54-2.22,2.36a2.76,2.76,0,0,1-2.44-2.61A1.4,1.4,0,0,1,543.24,314.41Z"/><path class="cls-50" d="M556.43,332.7c.28-1.89,1.42-2.17,2.78-2.12a1.69,1.69,0,0,1,1.83,1.67,2.4,2.4,0,0,1-2.23,2.61A2.27,2.27,0,0,1,556.43,332.7Z"/><path class="cls-51" d="M370.51,48.28c-.19-.69-.38-1.38-.56-2.07a5.62,5.62,0,0,1,.37-1.57l1-.06c2.22-.18,4.64.81,4.2,2.84C375,49.65,372.35,48.68,370.51,48.28Z"/><path class="cls-39" d="M356.35,140.79c-3.22,2.09-6.83,1.55-10.36,1.55C349.07,139.34,352.75,140.33,356.35,140.79Z"/><path class="cls-4" d="M554.27,30.56c-1.66,1.73-3.78,2.12-6,2.05C549.62,30.09,551.84,30,554.27,30.56Z"/></g></g></svg>