<svg xmlns="http://www.w3.org/2000/svg" viewBox="0 0 806.15 1034.68"><defs><style>.cls-1{fill:#020202;}.cls-2{fill:#050505;}.cls-3{fill:#080706;}.cls-4{fill:#2e2e2e;}.cls-5{fill:#201f20;}.cls-6{fill:#595458;}.cls-7{fill:#1f1f1f;}.cls-8{fill:#1e1e1e;}.cls-9{fill:#363636;}.cls-10{fill:#1c1b1c;}.cls-11{fill:#202020;}.cls-12{fill:#1d1d1d;}.cls-13{fill:#828282;}.cls-14{fill:#3f3f3f;}.cls-15{fill:#343434;}.cls-16{fill:#6b6b6b;}.cls-17{fill:#797979;}.cls-18{fill:#707070;}.cls-19{fill:#b7b7b7;}.cls-20{fill:#fff;}.cls-21{fill:#eacad9;}.cls-22{fill:#fefefe;}.cls-23{fill:#3e3e3e;}.cls-24{fill:#b3b3b3;}.cls-25{fill:#393c40;}.cls-26{fill:#afafaf;}.cls-27{fill:#232223;}.cls-28{fill:#b5b5b5;}.cls-29{fill:#676265;}.cls-30{fill:#f2f2f2;}.cls-31{fill:#e5e5e5;}.cls-32{fill:#feb975;}.cls-33{fill:#fafafa;}.cls-34{fill:#efefef;}.cls-35{fill:#3f3d3c;}.cls-36{fill:#b59eab;}.cls-37{fill:#bca4b1;}.cls-38{fill:#101010;}.cls-39{fill:#171717;}.cls-40{fill:#4f494c;}.cls-41{fill:#423d40;}.cls-42{fill:#4d464a;}.cls-43{fill:#4f484c;}.cls-44{fill:#575054;}.cls-45{fill:#544d52;}.cls-46{fill:#665d62;}.cls-47{fill:#524b50;}.cls-48{fill:#8d7f87;}.cls-49{fill:#eee;}</style></defs><title>mouse 3</title><g id="Layer_2" data-name="Layer 2"><g id="Layer_3" data-name="Layer 3"><path class="cls-1" d="M373.92,168.41c.29.92.28,2.26.91,2.72,11.41,8.39,9.8,19.65,6.08,30.69-2.65,7.91-4.94,15.83-7,23.9-3.32,13.17-2.7,26.42-1.93,39.7.75,12.95,3.12,25.69,5.44,39.55,6.59-4.89,8.81-12.2,14.06-16.84,3.61-.29,3.74,1.37,2.22,4-2.48,3.84-4.53,8.05-7.52,11.46-6.68,7.63-7.77,16.14-5.65,25.64a64.69,64.69,0,0,1,1.59,16.61c2.29,5.84-1.54,12.42,2.22,18.08l-.14-.12c1.47,1.27,2.76,2.6,1.74,4.77-.75,1.26-1.5,2.51-2.24,3.77-3.73,5,1.8,8.19,2.32,12.36-2.7,2.51-2.74,5.91-3,9.21a218.62,218.62,0,0,1-25.17,86.48C356,483.8,356,487.24,356,490.92c-.05,19.28,1.95,38.54-.12,57.82a358.44,358.44,0,0,1-7.74,44.16c-1.09,4.59-2.22,9.68-6.46,11.93-4.83,2.57-5.48,6.18-5.25,10.71.49,9.57,1,19.14,1.57,29.71,21.83-4.9,33-22.63,50.51-35.57-6.15,0-9.89,0-13.62,0-2.32,0-4.69.56-6.94.23-4.7-.71-8.14-4.75-8-8.82.17-4.22,3.67-7.47,9.08-7.16,7.61.43,15.18,1.64,22.76,2.53,7.24,2.73,15.19-1.32,22.33,2.36.34,3.79-2.59,5.29-5.17,6.55-16.78,8.18-29.23,21.88-43.21,33.63-13.67,11.48-29.45,16.43-47.14,15.75-2.64-.1-5.38-.26-7.19-2.7,2.95-7.27,10.38-2.6,14.91-5.63,3.93-1.88,5.09-5.17,4.3-9.15a42.2,42.2,0,0,1,0-17.83c1-4.49-.55-5.75-5.4-4.83-14,2.65-18.17-.25-23-13.74-4.09-11.37-2.68-23.61-6-36-7.59,6.74-13.94,14-22,19.3a60.42,60.42,0,0,1-5.83,3.84c-2.69,1.34-6,3.17-8.07,0-1.92-2.83,1.17-4.88,3.13-6.41,19.26-15.06,35.43-33.2,51.72-51.27C347.15,495,367.9,454.5,373.09,406.69a5.45,5.45,0,0,0-.93-3.9c-9.71,9.19-19.14,18.35-28.05,28a825.56,825.56,0,0,0-62.49,76.61c-2.87,4-3.54,8.53-5.15,12.86a7.91,7.91,0,0,1-7.63,5.46,6,6,0,0,1-5.67-3.44,7.45,7.45,0,0,1,1.44-9.25c17.1-15.8,26.84-37.19,41.86-54.56,19.81-22.92,38.72-46.67,62-66.34,3.79-3.21,6.81-7.29,6.19-12-1.93-14.73.11-29.83-4.18-45.75-10,15.22-18.05,30.1-26.14,44.89-12.79,23.37-24.82,47.15-38.22,70.2-4.53,7.81-10.12,14.86-15.11,22.34-1.59,2.38-3.82,6-6.95,4-2.95-1.9-.82-5.55.42-8.2,8.47-18.12,18.07-35.64,27.68-53.18C329,383.76,345,352.63,364,323.26c3.51-5.4,3.54-11.25,2.53-17.34-3.15-19-7.8-37.85-7.54-57.35.06-5.09-2.23-9.54-6.75-14.68-2.58,16.08-6.06,30.55-9,45.12-5.26,25.6-19.07,47.47-30.68,70.18-13.47,26.36-28.08,52.19-46.34,75.72-4.68,6-5.84,13.44-5.77,20.85.11,10.71-2.43,21.16-2.62,31.83-.06,3.3-1.1,6.57-2,9.77-.68,2.29-1.76,4.83-4.41,4.81-3.68,0-3.71-3.47-3.81-5.93-.36-9.31-.94-18.65.64-27.91A63,63,0,0,0,249.3,446c-1.62,1.94-2.94,2.9-4.63,3.29-1.35,0-3.33-.46-3.16-1.63.81-5.7-2.06-9.78-5.11-14.06-1.94-2.72-1.59-5.62,1.9-7.32,3.18-1.4,5.84-3.69,9.31-5.47-3.84-.3-7.24-2.06-10.58.24-3.22,1.66-6.95,7.85-9.07-.94.69-9.44,7.17-14.25,15-16.67,8.8-2.7,12.42-8.16,12.39-16.84,0-1,.27-2,.26-3,0-4.43,4.47-10.75.16-12.74-4.62-2.13-9.83,3.08-13.51,6.77-7.66,7.7-12.27,17.45-15.64,27.59-6.13,18.42-15.76,34.37-30.43,47.28s-27.31,27.32-33.36,46.46a6.94,6.94,0,0,1-3.09,3.8c-1.74.11-2.72-.87-3.39-2.32-1.53-5.24,1.48-9.7,2.55-14.78C101.73,543.91,89.42,612,113.5,688.22a85.47,85.47,0,0,0,8.59,18c2.91,4.91,5.53,5.16,8.62.24,3.93-6.24,9.7-11,14.06-16.86,2.17-2.94,4.58-5.78,8.61-6.3a4,4,0,0,1,3.48,2.29c1.46,5.05-2.15,8-4.84,11.22-13.65,16.31-24.09,34.7-34.54,53.07-2.5,4.39-6,9.23-1.23,14.48,0,3.11-2.44,3.51-4.57,4.28-4.21.94-3.81,4-3.32,7.15a11.51,11.51,0,0,1-2.24,3.84c-25,54-18.62,138.07,12.75,162.91,1-4.66-1.22-8.57-1.77-12.66-.26-2-.83-4.37,1.49-5.23,2.07-.76,3.83.88,5,2.53,5.24,7.74,7.58,16.27,6,25.58-1.7,9.85-4,19.58-6.1,29.35-4.29,19.91,1.37,31.07,20.26,38.85a87.38,87.38,0,0,0,45.06,5.78c33.76-4.3,66.7-12.83,100.09-19.05,54.51-10.14,108.62-5.51,162.94,2.47a647.85,647.85,0,0,0,88.48,7.27,108.49,108.49,0,0,0,50.19-11.63c22.16-11.19,24.75-30.66,6-47.14C580.31,944.48,561,938.48,539.65,937c-38.42-2.74-73.92,7.82-108.39,22.86-35,15.27-71.22,23.81-109.52,23.33a189.07,189.07,0,0,1-25.81-2.47c-11-1.67-20.19-.26-27.91,8a2.54,2.54,0,0,1-2.85-.94c-1.57-5.1,1.62-9,3.56-13.09,9.8-20.87,9.57-40.43-6.69-58.4-4.66-5.16-9.33-10.48-12.17-17-.94-2.16-1.91-4.76.22-6.46,1.72-1.37,3.94,0,5.46,1.22,20.1,16.64,35.69,35.61,30.18,64.11-1.38,7.12.54,9.76,7.4,10.35,25.32,2.21,50.56,2.17,75.6-2.65,8.26-1.59,14.24-7.09,19.41-13.32,7.9-9.52,14-20.17,19.68-32.49-12.58.73-23.89,4.33-35.54,5.56a247.11,247.11,0,0,1-29.89,1.36c-16.14-.26-20.66-4.76-21.37-20.81,0-14.84-.12-29.67.06-44.49.05-4.13-.9-8.75,3.52-11.64,5,2.46,3.91,7.25,4,11.33.35,12.32-.3,24.66.31,37,.82,16.6,3.48,18.7,19.78,19.17,20.58.59,40.46-2.94,60-8.86,3.81-1.16,7.55-2.75,11.69-2.09,1.75.55,3.46,1.15,3.27,3.5-5,9.38-9.81,18.84-15,28.12-5,9-10.5,17.7-19.7,25.55,7.35-.52,12.34-2.75,17.25-5.09,11.39-5.42,22.68-11.05,34.09-16.41,3.57-1.68,7.1-3.64,11.17-4,3.71-1.62,8.12,1.06,11.63-1.91a27.26,27.26,0,0,1,2.58-1.47,19.2,19.2,0,0,1,2.94-1.18c26.21-8.79,52.86-13,80.46-8.12A59.47,59.47,0,0,1,559.79,928c4,1.78,8.55,2,12.46,4.12s7.51,4.24,11.32,6.23A82.2,82.2,0,0,1,608,957.07c16.39,18.89,13.06,40.15-8.58,53-13.35,7.93-28.07,11.88-43.29,14.5-17.38,3-34.53.21-51.78-.95-42.89-2.89-85.27-10.35-128-14.22-19.67-1.78-39.25.55-58.85,2-29.7,2.13-58.28,10.26-87.34,15.87-20.22,3.9-40.41,8.65-61.33,7.18a100.82,100.82,0,0,1-37.29-10.29c-8.33-4-13.25-11.09-16.35-19.36A21.26,21.26,0,0,0,107,993.91c-4.78-3.24-8.14-7.82-11-12.75C80.29,954.49,64.34,928,50.88,900c-20.05-41.68-34-85.24-43-130.48A466.44,466.44,0,0,1,1,720.1c-2.58-29.08.11-58,3.08-86.76C9,586.64,15.34,540.08,27.38,494.59c11.41-43.11,23.84-85.95,35.41-129,9.07-33.77,16.78-67.86,21.93-102.48,1.32-8.88,2.14-17.84,3.19-26.76,7,2.55,3.65,8.73,4.72,13.36-.18,25.21-6.72,49.44-11.84,73.86-11.56,55.16-29.45,108.67-43.46,163.2-10.64,41.42-17.47,83.43-22.74,125.78a685.5,685.5,0,0,0-5.34,81.63c-.14,29.55,3.84,59.08,10.85,88,15.1,62.41,40,120.67,73.78,175.15,5,8,8.87,16.89,15.43,24.44,8.78-16.53,8.39-20.11-3-32.12-2.07-2.18-4.37-4.24-5.78-6.88-19-35.66-41.59-69.49-52.86-109.11-13.82-48.57-23.74-97.92-27.9-148.08-4.18-50.39,1.77-100.47,12.87-149.81C37.3,515,41,494,48,473.74c1.29-3.7,1.67-8,5.92-9.92,4.29,1.16,2.84,4.05,2,6.74-6.15,24.17-12,48.41-17,72.85a610,610,0,0,0-12.35,106c-.92,34.55,5.32,68.26,11.2,102.05a602.87,602.87,0,0,0,33.88,120.9c2.41,6,4.56,12.26,9.91,18.9-6.65-56.49,7-106.76,32.12-155.08-9.93-7.9-17.84-18.09-26.28-27.76-6.89-7.9-9.84-18.07-14.32-27.32-7.27-15-13.55-30.43-15.76-47.15-4.24-32.13.32-63,13.27-92.69,14-32.17,38.19-54.78,67.46-72.79,21-12.9,42.32-25.15,62.33-39.62,8.59-6.21,14.57-13.32,17.43-23.36a122.42,122.42,0,0,1,10.08-23.85,42.21,42.21,0,0,1,28.21-22.06c5.43-1.32,7.23-3.69,8.33-9,3.78-18.23,7.88-36.42,13.44-54.23,3.94-.18,2.77,2.24,2.22,4.35-3.52,18.81-8.86,37.27-11.41,56.7A48.44,48.44,0,0,1,291,368.68c3.53-2.28,3.78-6.11,4.91-9.37,3.56-10.25,5.71-21,10.12-30.95,7.71,2.81.84,6.54,1.84,9.13,2.82-2.6,1.33-7.64,2.67-11.81,9.13-21.1,17.77-42.36,23.13-64.8,4-3.5-1.05-7.15.14-10.69,6.14-14.25,5.67-29.1,4.33-44.1-.59-6.62-.63-13.3-.58-20,.05-5.61,2.05-9.63,7.86-12.42,7.57-3.63,14.45-8,23.3-4.29,1.49.64,2.47-1.66,3.48-2.85C373.87,166.09,374.85,166.32,373.92,168.41Z"/><path class="cls-2" d="M638.75,592c29-1.84,57.93-1.08,86.89-1.34,18.64-.17,37.28-.17,55.89-1.63,4.71-.37,9.11-1.74,13.63-2.84,6-1.47,10.09.82,10.86,5.53a9.26,9.26,0,0,1-7.94,10.8,46.18,46.18,0,0,1-7,.17c-47,.66-93.92,1.38-140.89,1.9-4.55.06-7.12,1-8.6,5.89-2.5,8.21-9.22,12.74-16.75,16.09-13.56,6-27.94,8.67-42.61,9.72-19.92,1.42-39.91,1.55-59.8,3.87-31.78,3.69-60.74,14.49-86.49,33.52-12.1,9-22,20.26-32.25,31.2-4.09,4.36-7.91,9-11.86,13.46-2.14.37-2.77-1-3-2.7,7.73-17.6,21.64-30.26,35.9-42,31.44-25.84,67.71-39.57,108.68-42.49,19.22-1.36,38.57.22,57.67-3.24a149.14,149.14,0,0,0,22.27-5.32c19.32-6.64,21.19-9.19,21.48-29C635.69,592,636.86,591.12,638.75,592Z"/><path class="cls-3" d="M638.76,592l-2.88,2c-13.17,1-24.87,6.25-36.32,12.32A23.69,23.69,0,0,1,588,609c-23.89-.34-47.67,3.47-71.58,2.08-7.7-.45-14.1,1.52-19.86,7.07-9,8.64-21,9-32.52,10.44-2.21.26-5.16-.15-5.86-2.69-.8-2.91,2.26-3.55,4.15-4.7,1.14-.69-.36-.1.91-.39,16.85-3.79,30.46-12.38,40.07-26.93,7.46,1.45,14.94,2.58,22.49.61,14.53-1.33,29.2-.1,44.18-2.2-5.09-16.64-9.44-33-12.86-49.54-2.09-10.12-2.5-20.47-4.88-30.56-2-8.47-.16-11.14,8.72-13.64a129.92,129.92,0,0,1,40.45-5.11c9.29.37,18.68-.21,27.82,2.21,8.16,2.16,8.77,2.62,7.2,10.93-4.4,23.21-9.1,46.36-13.65,69.55-.64,3.24-1.11,6.51-1.79,10.58A47.52,47.52,0,0,1,638.76,592Z"/><path class="cls-4" d="M389.63,716l2.23,2.33c-2.27,6.17-10.1,10.63-8.72,17.1,1.2,5.66,7,10.24,10.43,15.54,24.74,38.71,41.27,80.18,42.37,126.8.08,3.66-.16,7.4.53,11,2.14,11.07-2.41,17.86-12.78,21.28l-2.55-2.17c12.46-12.3,8.54-27.78,7.52-42.27-3-42.76-20-80.35-44-115.22-3.93-5.72-6.43-6-9.26.57-1.86,4.27-4.2,8.33-6.09,12.58-2.69,6-7.22,6.61-10.66,1.92-9.34-12.79-19.6-9.88-32.19-5.1C280.72,777.7,233,783.66,184.25,780.74c-22.19-1.33-44.22-5.11-66.19-8.76-3.37-.56-7.55-.79-8.7-5.38,2-1,4.74.22,6.36-2,3.42-3.51,7.56-1.81,11.34-1.3,32,4.31,63.83,9.88,96.28,8.17,36.36-1.91,72-7.61,106.62-21.68-2.62-4-6.42-4-9.68-4.6-33.55-5.94-66.82-8.54-98.25,9a11.35,11.35,0,0,1-5.76,1.4,4.36,4.36,0,0,1-2.81-1.43c-.08-4.05,3-5.62,5.86-7.29,16.31-9.66,33.7-15.3,52.9-15.22,16.95.07,33.85-.11,50.49,4,13,3.18,25.75,6.86,35.53,16.72,4.21,4.25,5.91,1.81,7.84-2.1,4.57-9.21,8.62-18.73,14.77-27.07C383.12,720,384.67,715.86,389.63,716Z"/><path class="cls-5" d="M55.94,470.56c-.74-2.07.42-4.77-2.09-6.25-3.6-4.5-.88-9,.33-13.27C67.76,402.6,80.44,354,89.91,304.51c2.63-13.77,2.57-27.84,4.93-41.63.55-3.21.24-6.78,3.47-9,4.69,3.73,1.84,8.57,1.94,13-.92,27.34-5.79,54.07-12.12,80.59-9.48,39.69-18.6,79.47-30.24,118.61A38.42,38.42,0,0,1,55.94,470.56Z"/><path class="cls-6" d="M100.25,266.88c-1.8-4,1.38-8.82-2.21-12.48-4.43-4.33-3.24-10-3.07-15.1.86-25.05-.81-49.8-7.38-74.07-3.51-21.08-13.19-40.11-20.15-60a25.27,25.27,0,0,1-1.09-2.64,45.63,45.63,0,0,0-3.41-8.94,21.67,21.67,0,0,1-1.09-2.53C59,82.7,54.72,75,50.38,67.39c-1.75-3.09-4.19-5.89-3.72-9.81a2.65,2.65,0,0,1,1.86-1.86A89.71,89.71,0,0,1,62.28,78.64c12.74,29.9,25.58,59.83,33,91.64,3.21,13.84,6.66,27.76,6.3,42.19a181.7,181.7,0,0,0,.09,37.74C102,255.84,102.43,261.47,100.25,266.88Z"/><path class="cls-6" d="M67.61,114.6c-3.53-5.34-4.86-11.6-7.18-17.43C51.64,75.08,38.8,55.21,26.63,35,20,23.91,13.52,12.74,7,0c8.81,2.38,9.7,10.34,13.9,15.13A191.22,191.22,0,0,1,33.55,31.86c4,5.71,8.09,11.39,10.9,17.83A23.06,23.06,0,0,1,44,52c5.13,14.21,14.68,26.22,19.87,40.38l-.08-.14c1.72,3.24,2.21,7,4.09,10.15l-.09-.15a41,41,0,0,1,2.7,7.76C70,111.81,69.58,113.7,67.61,114.6Z"/><path class="cls-7" d="M525.81,594.46c-7.34,3.07-14.66,2.79-22-.15-2.57-2.18-2.28-5.29-2.71-8.19-1.25-8.26-2.77-9.07-10-4.33a87.24,87.24,0,0,1-38.76,13.92c-10.15,1.14-20.32,2.49-30.17,5.49-2.84.87-5.83,1.57-8.39-.9-3.57-3.26-8-1.19-12-1.87-3.36-.56-7.15,1-10-2,18.59,2.55,35.78-5.48,53.81-7.17a162.21,162.21,0,0,0,16.69-2.48A58.48,58.48,0,0,0,489,574.2c4.1-3.47,8.31-4.69,13.6-2,5.51,2.84,6.09,7.3,5.63,12.54-.25,2.89-.38,5.79-.64,9.67Z"/><path class="cls-8" d="M463.85,938.47c-4.22,4.63-8.22,0-12.32-.3,22.8-11.47,45.91-21.89,72-23.11,18.57-.86,35.47,2.74,48.69,17-4.2-.23-8.7,2-12.48-1.57-6.59-6.7-15.37-6.83-23.76-7.45-24.57-1.79-47.76,4.17-70.3,13.34l.23-.15C465.73,937.46,462.84,936.12,463.85,938.47Z"/><path class="cls-9" d="M386,368.53l-1.74-4.77c26.6-27.5,53.36-54.84,81.38-80.91,4.61-4.3,9.38-8.44,14.07-12.65,2-.66,2.5.24,2.1,2.05-32.09,30.61-63.41,62-93.45,94.62A13.32,13.32,0,0,1,386,368.53Z"/><path class="cls-10" d="M67.61,114.6c.58-1.4,0-3.32,1.92-4.11,9.39,17.44,14.49,36.37,19.15,55.45a12.27,12.27,0,0,1,1.08,4.69c-.2,2.92,1,5.53,1.82,8.24,4.06,19.86,3.28,40,3.1,60,0,4.35,1.13,9.55-4.58,11.88-1.66-4.67,1.52-10.08-2.19-14.45-.51-15.24.57-30.5-1.15-45.73-2.61-23.22-8.56-45.59-16.4-67.52C69.36,120.29,68.52,117.43,67.61,114.6Z"/><path class="cls-11" d="M393.72,292.09c-.21-1.62-.48-3.2-2.22-4,7.23-12.36,16.69-23.06,25.63-34.11A606.94,606.94,0,0,1,464,202.47c1.74-.31,2.71.12,2.06,2.12-25.16,27-48.91,55.26-70.25,85.45A15.78,15.78,0,0,1,393.72,292.09Z"/><path class="cls-12" d="M333.76,250.19c2.79,2.93,7,5.56,2.21,10.14-7.08,13.56-9.63,28.74-15.43,42.78-3.29,7.95-6.57,16-8.78,24.34,1.05,5.35-2,9.18-4.83,14.11-2.34-4.91,3.5-9.45-.95-13.2A655.87,655.87,0,0,1,333.76,250.19Z"/><path class="cls-13" d="M310.13,206.5c2.67-9.3,7.05-17.92,11.1-26.63a779.76,779.76,0,0,1,38-72.44c1.17-2,2.67-3.75,4-5.62.93-.29,1.28.07,1.1,1-6.16,11.7-12.25,23.45-18.51,35.11a686.13,686.13,0,0,0-31.19,66.55c-.62,1.52-.95,3.2-2.48,4.17C310.87,208.51,310.75,207.27,310.13,206.5Z"/><path class="cls-14" d="M310.13,206.5l2,2.14c-9.47,25.18-20,50-27.07,76-1.46,5.39-2,11.12-5,16-.84-1.4-.3-3.5-2.22-4.35,2.84-16.11,8.71-31.31,14.46-46.5C297.87,235.24,304.17,220.94,310.13,206.5Z"/><path class="cls-15" d="M386,384.66c-3.63-3.58-6.31-7.35-2.32-12.36.25,2.24.51,4.47.89,7.75,20-17.13,39.73-33.54,61-47.95,2-.6,2.53.33,2.17,2.15C426.25,349.9,406.41,367.61,386,384.66Z"/><path class="cls-16" d="M373.92,168.41l-1.77-1.83c4.82-12.67,12-24.11,18.86-35.69,6.37-10.77,13.38-21.18,20.25-31.65,1.74-2.65,2.95-5.93,6.43-7l.17.15c-2.31,7-7.27,12.45-11,18.59-10.36,16.92-20.19,34.12-29.1,51.86C376.72,164.78,376.24,167.26,373.92,168.41Z"/><path class="cls-17" d="M447.77,334.25a3,3,0,0,0-2.17-2.15c19.51-15.07,39.89-28.81,61.78-40.24l.85.93c-12.24,8.42-24.41,17-36.76,25.22C463.51,323.34,456.28,329.73,447.77,334.25Z"/><path class="cls-18" d="M466.08,204.59c-.68-.71-1.37-1.41-2.06-2.12,14.54-16.81,31.43-31.13,48.34-45.49C497.31,173.23,482.44,189.63,466.08,204.59Z"/><path class="cls-16" d="M481.77,272.25l-2.1-2.05c14-14.26,28.72-27.6,45.54-38.5,1-.16,1.36.29,1.16,1.26Z"/><path class="cls-5" d="M101.62,250.21c-.42-.5-1.2-1-1.21-1.5-.18-12.1-1.89-24.25,1.12-36.24A248.93,248.93,0,0,1,101.62,250.21Z"/><path class="cls-9" d="M384.36,363.88c-4.91-5.52-2.33-11.95-2.22-18.08C384.58,351.62,383.31,357.89,384.36,363.88Z"/><path class="cls-17" d="M507.38,291.86c2.31-2.95,5.49-4.39,9.3-4.91a16.63,16.63,0,0,1-8.45,5.84C508,292.47,507.67,292.16,507.38,291.86Z"/><path class="cls-13" d="M370.21,92.67a21.59,21.59,0,0,1-5.87,10.14c-.36-.34-.72-.67-1.1-1,1.31-3.75,3-7.26,6-10Z"/><path class="cls-13" d="M376.19,82.67a20,20,0,0,1-6,10l-.94-.82a17.46,17.46,0,0,1,6.33-9.74Z"/><path class="cls-13" d="M375.6,82.11c1.23-3.28,2.38-6.64,6.31-7.7l-.17-.15a11.93,11.93,0,0,1-5.55,8.41Z"/><path class="cls-16" d="M525.21,231.7c2.33-2.67,4.65-5.34,8.63-5.36l-.06-.07c-1.14,3.7-4.56,4.88-7.41,6.69C526,232.53,525.61,232.11,525.21,231.7Z"/><path class="cls-16" d="M533.84,226.34c.59-2.54,2.43-3.13,5.07-3.21-1.2,2.39-2.72,3.49-5.13,3.14Z"/><path class="cls-13" d="M381.91,74.41c-.37-2.47.87-4,3.21-5.25.12,2.88-1.15,4.3-3.38,5.1Z"/><path class="cls-16" d="M417.69,92.2c-.23-2.56,1.36-4.08,3.84-6.15,0,3.45-1.08,5.26-3.67,6.3Z"/><path class="cls-6" d="M44.45,49.69a11.63,11.63,0,0,1,4.07,6l-1,.8c-3.82-.35-5.4-2.18-4-6Z"/><path class="cls-19" d="M413.81,600.3c15.78-4.21,32-6.09,48.05-8.64a62.3,62.3,0,0,0,30.52-14.08c2.27-1.91,4.47-4.38,7.89-2.72s4.09,5,4,8.48c-.07,3.66-.29,7.32-.44,11-5.22,12.72-13.68,21.62-27.64,24.79a57.55,57.55,0,0,0-16.88,6.23c15.86,1.56,30.19-3.42,40.55-14.55,2.48-2.66,5.1-2.7,8-2.64,25.91.46,51.76-1.12,77.64-2,6.11-.2,11.64-1.2,17.09-4.19,5.79-3.18,12.14-5.33,18.09-8.23,5.2-2.55,10.15-2.66,15.14.27,4.53,12.91,2,20.3-9.82,26.4-16,8.21-33.38,11.07-51.09,11.5-23.6.57-47.13,1.4-70.37,6.07a168.5,168.5,0,0,0-87.46,46.62c-9.92,9.84-19.51,19.9-27.51,31.39-11.07,11.91-17.11,26.73-23.83,41.15-.7,1.49-.85,3.23-2.73,4.45-16.19-22.46-41.1-24.51-65.5-27.07-10.54-1.1-21.31-.54-31.95-.12-18.47.73-35,7.57-50.24,17.58-.71.47-1,1.56-1.51,2.37l-.41.18.3-.3c3.69.52,6.21-2.06,9.05-3.6a102.11,102.11,0,0,1,47.79-12.37c19.37-.28,38.58.6,57.33,6a87.93,87.93,0,0,1,8.39,3.09c.48.2.71,1,1.45,2.17-10.53,5.92-22.13,8.74-33.44,12.12a303.51,303.51,0,0,1-69.56,11.75c-23.55,1.37-47.22,1.09-70.71-2.32-16.09-2.34-32.22-4.36-48.34-6.52-4.51-.75-7.47-1.74-4.58-7.64,9.22-18.81,20.48-36.35,32.49-53.44,4-5.68,9.11-10.52,12.6-16.6.31-4,3.17-6.46,5.42-9.31,15.43-19.55,28-40.52,32.49-65.5,3.63-21.92-.86-41.1-18.73-55.8a17,17,0,0,1-1.88-2.5,88.41,88.41,0,0,1-14.78-31.88c-1.64-6.68-3.22-13.43.73-19.95,5.8-16.81,12.86-32.82,27.44-44.21,2.61-2,4.79-4.64,7.35-6.74,14.38-11.79,23.47-27.06,29.2-44.47a109.86,109.86,0,0,1,12-25.13c5.7-8.88,14.27-13.32,25.68-16.59-1.87,12.49-3.6,23.49-5.12,34.52-.53,3.88-3.67,3.3-6,4-9.29,2.61-17.71,6.18-20.61,16.65-1.91,11.05,0,22.41-2.88,33.41-1.66,6.44-4.21,12.29-8.49,16.89,9.55-5.65,15-16.87,25.7-21.95l7.54-7.13c.38,17.09-3.09,33,.13,49,3.06-5.53,3.74-11.62,4.3-17.72,1.06-11.61,2.12-23.22,3-34.84A26.81,26.81,0,0,1,264.36,423c22.86-30.09,40.4-63.32,57.09-97.05.14-.3.25-.62.42-.91,17.18-28.28,22.81-60,27.54-92,.18-1.27.39-2.54.73-4.69,7.2,5.45,11.69,12.18,11.64,20.26-.11,19.18,3.69,37.76,7.38,56.35,1.67,8.36.26,15.09-4.4,22.42-28.78,45.3-53,93.19-78,140.62-1,1.93-2.68,3.8-1.73,7.4,7.66-9.9,14.65-19.39,20.36-29.74,18.19-32.94,36.19-66,54.44-98.89,3.45-6.22,6.57-12.77,12.85-19.65,1.06,7.91,2.1,14,2.64,20.17.85,9.61,1.47,19.25,2,28.88.38,7.25-1.38,13.21-7.47,18.49-24,20.8-44.7,44.76-64.63,69.34-10.24,12.63-18.91,26.54-28.3,39.86-2.59,3.67-3.8,8.77-9.51,9.25-.28,0-.55.37-.78.61-2,2.05-3.09,4.4-2,7.23.94,2.4,2.76,3.86,5.44,3.41,3.07-.52,5.23-3.26,4.66-5.62-1.58-6.45,2.93-9.76,5.89-13.94,25.7-36.23,54.74-69.63,86.13-101,2.34-2.35,4.18-5.2,6.66-8.31,3.77,4.21,2.38,7.57,2.09,10.54a202.94,202.94,0,0,1-32.48,92.35A292.74,292.74,0,0,1,302,548.4c-13.52,13.22-25.37,28.26-42.65,38.74,6.65,0,8.48-.65,15.14-6,4.14-3.35,8-7,12-10.58,4.12-3.72,8.19-7.49,13.18-12,.73,9.83,1.37,18.31,2,26.79a58.92,58.92,0,0,0,4.34,18.4c4.12,9.89,8.85,12,18.84,8.66,2.5-.85,5-1.78,7.2-2.59,2.83,1.52,1.61,3.75,1.43,5.45-.93,8.65-1.3,17.31,0,25.91.71,4.76-1.13,6.87-5.56,7.39-18.23,3.68-35.48-.11-52-7.46-6.81-3-13.65-5-17.91-4.89,16.68,2.48,34.43,12.48,54,16,21.16,1.92,40-3.28,55.69-18.15q9.75-9.21,20.05-17.79A96.91,96.91,0,0,1,413.81,600.3Z"/><path class="cls-19" d="M323.49,908.64c1.31,12.08,4.49,15.28,16.9,15.83,21.76.95,43.07-2.26,64.1-7.64l9.14-2.38c-2.07,6.44-5.41,11.18-8,16.21-6.53,12.89-14.82,24.42-26.12,33.63-2.07,1.69-4,3.4-6.77,3.89a293.34,293.34,0,0,1-92.65,1.33c1.5-5.23,3.61-9.9,4.09-14.73,1.44-14.42-1.53-27.94-11.2-39.16-6.93-8-14.5-15.51-22.45-23.94-.88,4.26,1.52,6.61,2.92,9.1,2.95,5.23,6.9,9.76,10.89,14.23,16,17.92,18.09,37.62,7.78,59.1-2.24,4.66-6.46,8.51-6.3,14.24a6.38,6.38,0,0,0-.91,1.19,6.07,6.07,0,0,1,.8-1.28c4.53-1,5.55-5.41,7.75-8.48s4.47-4.08,8.28-3.47c7.56,1.2,15.2,1.87,22.82,2.64,43.5,4.42,84.94-3.39,124.62-21.27,19.83-8.93,40.51-15.29,61.57-20.39,25.13-6.09,50.3-5,75.18,1.43a73.91,73.91,0,0,1,36.27,22A42.13,42.13,0,0,1,610,972.29c3.66,8.34,2.89,16.15-2.41,23.61-4.2,5.9-9.91,9.74-16.34,12.77-23.33,11-47.89,12.85-73.23,10.79-44.5-3.6-88.7-9.89-133.08-14.47-29.28-3-58.56-.06-87.66,4.22-31.33,4.61-61.9,13-93.13,18.2-22.11,3.66-43.72,4.34-64.73-5-16.38-7.27-23-19.12-19.73-36.88,1.55-8.5,3.8-16.89,5.89-25.29,3-12.18,1.9-23.63-6.43-36,.61,9.92,6.32,17.68,2.21,26.14-4.78-2.39-7.46-6.26-10-10.13C97.25,918.58,88.75,895,87.86,869c-1-29.64,3.82-58.42,13.49-86.42.85-2.44,1-5.39,4.32-6.12,13.41-1.49,26.29,2.66,39.45,3.85,11.88,1.07,23.66,3.76,35.65,3.12,9.41-.51,18.49,2,27.8,2.1,34.54.54,68.1-5.8,101.28-14.55,12.63-3.33,14.31-2.22,14.76,11.1,1.31,38.59-2.55,77.1-1.8,115.68C322.88,901.39,322.14,905.09,323.49,908.64Z"/><path class="cls-20" d="M109.36,766.6c6,3.35,12.81,3.48,19.3,4.34,21.76,2.87,43.42,6.53,65.4,7.77,28.16,1.58,55.81-2,83.33-7.22A280.86,280.86,0,0,0,341,751.77c4.82-2.19,7.59.32,10.52,3,4.4,4,7.34,9.46,13.3,13.44,3-10.61,9-19.42,13.84-28.55a4.71,4.71,0,0,1,3.65,2.42c18,26.51,34.91,53.61,42.42,85.26,5.06,21.39,8.58,43,7.57,65.19-.32,7-2.49,11.26-8.89,13.59a10.08,10.08,0,0,0-2.31,1.74C406.2,912.27,391.36,917,375.78,919c-11.26,1.42-22.55,1.46-33.82,1.37-11.11-.09-14.3-3.09-15-14.11s-.46-21.93-.7-32.89c-.17-7.64-.45-15.28-.68-22.91-2.65-3.55-1.72-7.69-1.74-11.6-.09-20.3,0-40.6-.08-60.9,0-9.61-.58-9.74-9.76-7.12-43.45,12.4-87.42,18.48-132.83,14-23.05-2.3-46-5-68.89-8.48a8.91,8.91,0,0,1-4.54-1.83C104,771.13,104.4,769.21,109.36,766.6Z"/><path class="cls-21" d="M90.1,250.79c1.94-3.69,1.5-7.74,1.73-11.68a313.14,313.14,0,0,0-2.25-62.49c-1.27-2-.18-4.42-1.41-6.37l-.53-3.71c-.64-1.89-2-4.11,1.81-4,7.12,24.82,9.47,50.18,8.65,75.9-.17,5.31,0,10.62-.06,15.93-2.18,49.8-15,97.62-27.29,145.5-5,19.28-10.35,38.44-15.56,57.66-.6,2.22-1.75,4.33-1.34,6.75-8.57,24.24-13.78,49.35-19.05,74.42a652.73,652.73,0,0,0-13,97.92c-2,36.55,2.26,72.49,8.74,108.29,5.17,28.5,10.15,57,19.14,84.7q8.49,26.13,18.82,51.59c3.41,8.37,7.71,16.34,14.59,22.43,2.71,2.4,3.62,5.45,4.89,8.5,6.8,16.37,14,32.5,28.35,44,2.51,2,3.76,4,2.59,7.67-2.52,7.81-4.39,15.83-6.71,24.46-5-2.63-7.58-6.79-10-11C85.75,949.47,69,921.85,55.47,892.44,35.07,848.05,20.11,802,11.8,753.77c-6.56-38.08-5.59-76.26-2.3-114.55,4.51-52.53,12-104.52,25.88-155.46,9.43-34.69,19.16-69.3,28.75-103.95A1066.66,1066.66,0,0,0,89,265.69C89.77,260.79,89.75,255.76,90.1,250.79Z"/><path class="cls-21" d="M153.22,684c-9.54,10.52-19,21.07-27,33.16-38.41-53.87-43.88-169,37.35-239-1.23,8.06-5.76,14.55-5.85,22.1-1.34,20.5,5.61,38.25,18.07,54.15l-.11-.13c3.49,5.7,9.49,9.17,13,14.92,6.53,10.69,7.48,22.4,7.08,34.45C192.08,636,177.67,662.63,153.22,684Z"/><path class="cls-19" d="M116.41,731.49c-13-12.4-25-25.06-32.1-41.8C77.7,674.06,69.74,658.94,66.79,642c-8.19-47,1.15-90,30.15-128.33a115.85,115.85,0,0,1,22.84-22.26q31.89-24.09,65.23-46.14c6-3.93,11.45-8.58,17.61-12.34-5,7.47-11.34,13.4-18.28,18.84-12.85,10.05-25.52,20.25-36.89,32.1a237.32,237.32,0,0,0-32.29,43.06C104.92,544.1,99.78,563,96.8,582.55c-3.88,25.43-6.37,51-1,76.51,3.55,17,8.7,33.51,17.65,48.61,2,3.42,3.3,7.31,5.41,10.68C121.78,723.06,121.31,727,116.41,731.49Z"/><path class="cls-22" d="M351.75,492.05c.77,11.14-1.45,19.93-2.23,28.82-2,22.47-3.77,45-7.34,67.27-1.3,8.11-4.87,13.39-12.93,15.67-4.38,1.23-8.56,3.14-13.14,4.86-3.33-5.75-4.9-11.81-6.26-17.92a74.5,74.5,0,0,1-1.32-7.86c-1-9.24-3.41-18.63-2.49-27.69s10.44-13.92,16.09-20.61C332.87,521.9,341,507.46,351.75,492.05Z"/><path class="cls-23" d="M107.76,774.44c17.46,2.18,34.88,4.67,52.38,6.49,31.8,3.31,63.8,6.39,95.52.79,20.53-3.62,41.44-6.07,61.28-13.24,2.34-.85,4.74-2.7,8.75-1,1.21,27.33,0,55.15-.09,83-2.64,3.19-1.45,7-1.52,10.53-.3,15.9-.41,31.8-.59,47.7-2.31-3.65-1.62-7.76-1.57-11.67.49-35.6-1.14-71.2.3-106.79.25-6.27.36-12.57-1-19.53A408.77,408.77,0,0,1,269.68,783a329.17,329.17,0,0,1-74.37,4.57c-28.29-1.47-56.21-5.2-84.17-9-2-.27-4-.5-5.47-2Z"/><path class="cls-24" d="M270.14,364.62c4.21-.12,15.2,6.54,16.86,9.92,1,2.12.22,3.82-.82,5.54-4.62,7.63-9.31,15.23-13.85,22.91-1.4,2.36-2.78,3.24-5.59,2.08-2.59-1.08-4.91-1.79-4.42-5.35,1.46-10.47,2.77-21,4.21-31.43C266.82,366.18,267.84,364.53,270.14,364.62Z"/><path class="cls-25" d="M243.79,448.29c-9.13,10.09-17,21.62-30.54,27.12-.29-1.3-.72-2.21-.51-2.4,9.55-8.64,12.64-19.71,12.55-32.14-.06-7.22-.17-14.54,4.17-20.93.55,2.72,1.27,4.73,3.79,1.15a22.74,22.74,0,0,1,2.65-2.73c2.32,2.84,4.1,5.91,4.22,9.7-1,.87-3.7.2-2.63,2.83.48,1.18,1.08,2.64,2.07,3.24,5.65,3.45,6.57,7.94,3.5,13.57A5.22,5.22,0,0,0,243.79,448.29Z"/><path class="cls-26" d="M465.71,936.41c23.88-13.52,49.56-18.48,76.72-15.72a36.09,36.09,0,0,1,19.23,7.74c2.7,2.2-1.3,1.26-1.89,2.09-24.71-5.47-49.32-5.52-73.92.86C479.15,933.11,472.84,936.43,465.71,936.41Z"/><path class="cls-27" d="M153.22,684c6-7.8,12.24-15.47,18.05-23.42,12.24-16.75,21.19-34.91,22.84-56,5,1.58,2.24,5.08,2,8a94.91,94.91,0,0,1-12.36,36.65C176,662.7,167.66,676,156.23,686.9Z"/><path class="cls-4" d="M311.9,652.15c-12.22.24-23.55-3.51-34.39-8.52-8.31-3.83-16.64-6.5-28-5.29,8.74-5.88,15.68-2.88,22.34-1,5.72,1.62,11.12,4.31,16.76,6.23,12.73,4.33,25.93,5.15,39.25,4.89-2.19,2.57-5.2,1.7-8,1.94S314.12,649.54,311.9,652.15Z"/><path class="cls-28" d="M311.76,327.45c.1-1.66-.16-3.44.35-4.95q10.06-29.75,20.34-59.41a15.83,15.83,0,0,1,2-3.33.9.9,0,0,1,.85-.15c.28.12.45.47.67.72C331.35,284,322.53,306.05,311.76,327.45Z"/><path class="cls-29" d="M175.82,554.41c-1.07-.71-2.4-1.2-3.15-2.15-10.49-13.4-16.44-28.53-17-45.65-.07-2.3-.07-4.69,2-6.35l1.73,1.7c-.56,18,4.76,34.17,15.08,48.81C175.27,551.78,175.41,553.19,175.82,554.41Z"/><path class="cls-30" d="M240.12,428.06c-4.59-1.85-5.36-5.36-4.22-9.7,2.86-2.22,6.16-3.5,8.85-.48,2.54,2.84,6.48-5,7.57,1.2.8,4.59-6,1-6.71,5.42C245.39,425.93,242,426.88,240.12,428.06Z"/><path class="cls-31" d="M351.2,177.85c2.26,6.44.39,11-2,15.29A2.76,2.76,0,0,1,346,194.7a3,3,0,0,1-2.14-3C343.33,186,345.81,181.86,351.2,177.85Z"/><path class="cls-26" d="M463.85,938.47c-.68-.41-2.34-.85-1.88-1.17,1-.76,2.61-.74,4-1C466.06,937.77,464.76,937.94,463.85,938.47Z"/><path class="cls-32" d="M594,592.74c-5,.25-10,.6-14.95.72-2.39.06-4.71-.42-5.39-3.33-3.57-15.22-9.53-29.8-12.13-45.27-1.19-7-.91-7.46,6.45-6.4,15.68,2.26,31.19.46,46.72-1.38,2-.24,4-.47,6-.55,3.39-.14,4.86,1.34,4.22,4.89-1.6,8.82-3.07,17.67-4.6,26.51a55.81,55.81,0,0,1-1.26,6.87c-1.65,5.36.18,12.56-4.45,15.9-4.37,3.15-11,1.23-16.58,1.78-1.32.13-2.66,0-4,0Z"/><path class="cls-33" d="M613.42,534l-41.9.7c-9.59.16-10.84-.72-12.68-9.67-.93-4.54-1.52-9.16-2.45-14.95,25.44,2,50.46,2,76.22-4.66-1,8.9-3.27,16.39-5.59,23.84-.14.47-1.82.46-2.79.68-17.59-1.06-35.21-3.15-52.61,1.56-1.27.54,1,1.7,0,.74-3.32-3.48,36.78-4.57,48.15-1.29C619,534.85,615.18,532.31,613.42,534Z"/><path class="cls-34" d="M559.85,504c23.42-5.76,46.9-11,70.78-3C607.29,507.74,583.73,509.32,559.85,504Z"/><path class="cls-35" d="M613.42,534c1.6-1.46,4.47-.52,6.29-3.81-17.63-.06-34.52,0-53,2.62,13.34-6.63,37.13-7.52,57.5-2.87C621.38,533.33,618.22,535.87,613.42,534Z"/><path class="cls-36" d="M89.45,162.57c-1.57.89-1.21,2.65-1.81,4-5.65-18.8-10.84-37.76-18.11-56-.59-2.75-1.17-5.5-1.76-8.25C74,112.44,77.21,124,81.45,135,84.87,143.89,88.22,153,89.45,162.57Z"/><path class="cls-37" d="M43.56,50.52a6.82,6.82,0,0,0,4,6C49.59,63.66,55,69,57.8,75.75,60.09,81.2,64.06,86,63.85,92.38Q52.17,72,40.52,51.68c-.48-.86-1.18-2.67,1.28-2A11.09,11.09,0,0,1,43.56,50.52Z"/><path class="cls-37" d="M67.86,102.39a15.5,15.5,0,0,1-4.09-10.15C66.77,95,67.86,98.46,67.86,102.39Z"/><path class="cls-36" d="M88.17,170.25c2.08,1.77,2,4,1.41,6.37C87.94,174.76,87.81,172.56,88.17,170.25Z"/><path class="cls-29" d="M196.09,612.5c-1.12-2.54.56-5.78-2-8-.08-2.28-.34-4.57-.23-6.84.71-14.83-3-27.85-14.86-37.75-1.69-1.41-3.63-3-3.31-5.67C195.13,569.09,202.44,590,196.09,612.5Z"/><path class="cls-38" d="M244.23,514.23a6.28,6.28,0,0,1-6.49-6.12,6,6,0,0,1,6.25-6.27c3.49.15,5.51,2.13,5.93,5.55A6.17,6.17,0,0,1,244.23,514.23Z"/><path class="cls-39" d="M280.8,488.51c-.73,3.56-3,5.33-6.37,4.9-2.81-.35-4.95-2.15-4.76-5.35.19-3.42,2-5.71,5.66-5.39C278.69,483,280.59,485.12,280.8,488.51Z"/><path class="cls-4" d="M213.76,754.25c-.19,2.83-2.82,3.32-4.84,4.37.75-2.34,1.9-4.25,5-4.26Z"/><path class="cls-1" d="M265.75,988.26c.91,3-1.6,4.25-3.24,7.24-.15-3.94.5-6.15,3.35-7.15Z"/><path class="cls-40" d="M177.48,593.13c-18.31,29.32-39.64,56.21-62,85C117.85,669.34,165.16,604.52,177.48,593.13Z"/><path class="cls-41" d="M181.63,609.88a584.54,584.54,0,0,1-59.17,73.61C140.2,657.33,160.91,633.52,181.63,609.88Z"/><path class="cls-42" d="M113.45,642c.75-4.14,3.69-7,6-10.19,14.44-19.55,29.84-38.35,45.29-57.1,1.13-1.39,2-3.22,4.39-3.51.19,3-2,4.82-3.51,6.77q-24.1,31.21-48.39,62.28a16.36,16.36,0,0,1-3.06,2.43Z"/><path class="cls-43" d="M164.34,594.82a7.18,7.18,0,0,1-.66,1.86c-16.45,22.47-34.29,43.88-50.66,67.62,1.07-10.37,28.19-47.91,50.23-70.48C164.19,593.54,164.52,593.9,164.34,594.82Z"/><path class="cls-44" d="M113.23,625.75c11.77-19.7,25.67-37.87,39.88-55.82,3.57-4.52,7.49-8.76,11.38-13.27,1.58,2.28.21,3.17-.5,4.12q-23.67,32.06-47.41,64.05a15.9,15.9,0,0,1-2.15,2C113.49,627.07,113.07,626.74,113.23,625.75Z"/><path class="cls-45" d="M152.29,541.61l-43.84,57.17C110.36,588.51,135.38,554.46,152.29,541.61Z"/><path class="cls-46" d="M111.2,609.72c11-17.1,25.1-31.83,37.14-48.14,2.43-3.29,4.81-6.77,8.92-8.52-13.75,20.22-28.22,39.83-44.8,57.82C111.5,611.08,111.05,610.72,111.2,609.72Z"/><path class="cls-45" d="M144.39,536.88c-9,14.15-27.56,36.76-33.42,39.78,8.46-15.38,20.57-28,32.22-40.9C144.15,535.54,144.55,535.91,144.39,536.88Z"/><path class="cls-46" d="M147.13,521.1c-8.14,13.37-19.21,24.3-30,35.5C124.72,542.78,135.9,531.94,147.13,521.1Z"/><path class="cls-47" d="M124.51,700.26c6.28-11.79,15.2-21.51,24.91-32.5C147.17,676,136,690.74,124.51,700.26Z"/><path class="cls-48" d="M147,505.85c-1.8,4.2-4.32,7.72-9.8,11.33A19,19,0,0,1,147,505.85Z"/><path class="cls-43" d="M163.25,593.82c1.54-3.06,3.12-6.07,6.42-7.65l.42.4c-.65,3.64-3,6.09-5.76,8.25C164,594.48,163.62,594.14,163.25,593.82Z"/><path class="cls-43" d="M169.67,586.17c.56-3.26,2.9-5.09,5.43-6.79a8.94,8.94,0,0,1-5,7.19Z"/><path class="cls-45" d="M143.19,535.76c1.16-2.9,3-5.12,6.81-7.76-1,4.8-3.26,6.87-5.61,8.88C144,536.5,143.6,536.13,143.19,535.76Z"/><path class="cls-42" d="M114.19,642.65a13.31,13.31,0,0,1-1.12,2.52c-.51.72-1.74,1.86-1.93,1.73-1.63-1.09-.23-2.15.36-3.08a10.76,10.76,0,0,1,2-1.85Z"/><path class="cls-44" d="M114.43,626.85c-.52,2.22-1.91,3.63-4,5.11-.68-3.36,1.1-4.76,2.78-6.21Z"/><path class="cls-46" d="M112.46,610.88c-.57,2-2,3.24-3.68,4.7-1.34-3.1.79-4.38,2.42-5.86Z"/><path class="cls-49" d="M227.61,458.41c1.35-7.73,2.74-14.13,2.42-20.67.77-.08,1.65-.43,1.92-.16C241.31,446.79,241.31,446.8,227.61,458.41Z"/></g></g></svg>