<svg xmlns="http://www.w3.org/2000/svg" viewBox="0 0 589.31 887.1"><defs><style>.cls-1{fill:#010101;}.cls-2{fill:#0a0808;}.cls-3{fill:#221e1e;}.cls-4{fill:#a69a3e;}.cls-5{fill:#1e1f1f;}.cls-6{fill:#fff;}.cls-7{fill:#7e560c;}.cls-8{fill:#414141;}.cls-9{fill:#ffe200;}.cls-10{fill:#ec0000;}.cls-11{fill:#050404;}.cls-12{fill:#7b540c;}.cls-13{fill:#998e38;}.cls-14{fill:#e80000;}.cls-15{fill:#f0f0f0;}.cls-16{fill:#aea240;}.cls-17{fill:#d00;}.cls-18{fill:#fcfbf8;}.cls-19{fill:#e40000;}.cls-20{fill:#edd200;}.cls-21{fill:#3b3c3c;}.cls-22{fill:#c90000;}.cls-23{fill:#d5d7d7;}.cls-24{fill:#ced2d2;}.cls-25{fill:#908a36;}.cls-26{fill:#020201;}.cls-27{fill:#040303;}.cls-28{fill:#c0c1c1;}.cls-29{fill:#030303;}.cls-30{fill:#090707;}.cls-31{fill:#313232;}.cls-32{fill:#c99a0b;}.cls-33{fill:#e7d599;}.cls-34{fill:#e8d599;}.cls-35{fill:#b0aca2;}.cls-36{fill:#bcb6aa;}.cls-37{fill:#beb7aa;}.cls-38{fill:#655436;}.cls-39{fill:#c6990c;}.cls-40{fill:#604e2f;}.cls-41{fill:#c5c9c9;}.cls-42{fill:#323232;}.cls-43{fill:#313131;}.cls-44{fill:#303030;}.cls-45{fill:#100c06;}.cls-46{fill:#3b3409;}.cls-47{fill:#bdb6a9;}.cls-48{fill:#cab241;}.cls-49{fill:#e9dfaf;}.cls-50{fill:#645438;}.cls-51{fill:#eccba6;}.cls-52{fill:#211904;}.cls-53{fill:#eba83a;}.cls-54{fill:#675538;}.cls-55{fill:#291e08;}.cls-56{fill:#dec744;}</style></defs><title>owl 1</title><g id="Layer_2" data-name="Layer 2"><g id="Layer_4" data-name="Layer 4"><path class="cls-1" d="M290.21,224c-1.09,1.81-2.29,3.55-3.24,5.43-1.28,2.54-3.14,5.13-3.31,7.79-.19,2.81,3.67,3.18,5.35,5.15,6.6,7.75,8.71,16.74,7.54,26.6-2,16.73-7.89,32.26-15.13,47.3a21.54,21.54,0,0,0-2.3,10.84c1,23.45-5.26,44.62-20.45,62.87a10.94,10.94,0,0,1-5.92,4c2-4.43,4-8.29,4.8-12.6s1.88-8.27,1.14-13.18c-5.07.24-10,0-14.92.13-7.58.13-13,5.34-18.4,9.87-1.6,1.35-1.62,4.83-2,7.39-1.58,12.25-3,24.53-4.5,36.8a24.79,24.79,0,0,1-.41,4.25c-2.62,8.54.09,15.76,5.17,22.56,3.26,4.37,6.29,8.9,10.72,13.05a113,113,0,0,0,18.33-24.45c1.41-2.49,2.68-5,4.84-7,6.71-6.12,14.81-9,23.58-8q15.63,1.76,31.28,2.2c23.76.72,47.56,1.63,71.3.08,22.51-1.47,45.12-3.31,66.7-10.41,11.81-3.88,22.62-1.91,33.15,2.93,19.62,9,39,18.52,58.46,27.95,8.8,4.27,16.73,9.92,24.44,15.93,13.81,10.76,20.76,25,22.21,42.2a195.27,195.27,0,0,1-3.48,54.63c-4.71,23.77-9.61,47.5-14.23,71.29-2.13,11-4.25,21.95-4.84,33.14-1,19.38,3.58,37.72,10.26,55.69,5.15,13.83,9.67,27.87,11.53,42.56,1.62,12.77,2.28,25.59-.83,38.28-1.23,5-3.37,8.37-8.91,10.7-9.89,4.17-19.94,5.92-30.44,6.4-41.61,1.92-83.2.1-124.79-.53-23.29-.35-46.55-2-69.87-1.37-16.2.4-32.21,2.72-48.32,4-6.65.51-13.3.53-19.94.67-12.84.29-25.58,2.33-38.46,1.77a64.14,64.14,0,0,1-20.1-4.22c-8.31-3.14-12.34-9.08-13-17.75-1.4-17.65.35-35,3.4-52.43,3.7-21.07,9.35-41.72,13-62.79.41-2.34.66-4.71,1-7a3.58,3.58,0,0,0-1.42-3.71c-7.93-6.48-12.63-15.32-17.46-24.06-7.81-14.14-14.28-29-22.7-42.82a229.93,229.93,0,0,0-22.48-30.34c-1.52-.55-2,0-2.42.56a186.3,186.3,0,0,1-34,32.38c-2.59,1.9-3.39,4.33-4,7.2-4,20-10.92,38.84-22.45,55.84-3.47,5.13-6.77,10.4-11.37,14.58-2.72,2.47-3.58,5.11-3.61,8.72-.15,14.81,2.2,29.38,4,44,2.94,24.56,5.61,49.13,4.06,73.94-.07,1.17-.34,2.33-.51,3.5-3.88-.44-3.08-3.62-3.32-6-.34-3.29.07-6.65-.83-9.9-2.67-27-3.27-54.29-8.7-81-1-5.18-.6-10.41-.75-15.61-.07-2.49.35-5.1-1.72-8-1.57,2.81-.9,5.09-.49,7.27,3.29,17.67,7.16,35.35,8.14,53.24,1.17,21.27,5,42.4,3.69,63.8a5.49,5.49,0,0,1-1.73,3.35c-.56,3.42.4,6.48,1.89,9.56,6.23,12.83,7.73,26.32,5.17,40.29-.28,1.5.14,3.47-2.4,4.13-1-2.41-1-5-.93-7.46a93.3,93.3,0,0,0-6.87-35.45c-1.38-3.47-3.38-6.8-3.11-10.84.16-2.45-2-3.63-3.65-4.93-3.65-3-7.44-5.78-11.79-9.12,7.39.31,12.83,3.65,19.34,7.3-.24-4.7-.28-8.41-.65-12.08-1.62-16.31-3.45-32.59-5-48.91-1.13-12.12-4-23.88-6.79-35.66-2.22-9.25-4.22-18.54-4.26-28.12,0-1.67,0-3.35-1.08-4.76-5.6-7-8.18-15.48-11.49-23.59a2.68,2.68,0,0,0-2.19-2.06c-2.69,8.92-5.3,17.94-8.13,26.89-4.64,14.67-9.1,29.39-14.77,43.73-1.59,4-1.65,8.68-2.42,13a4.73,4.73,0,0,0,.29,3.56c8,1,16.11,1.6,23.75,4.51,4,1.52,7.75,3.4,9.92,8.39-4.77-.38-7.21-4.18-11-5.13a90.94,90.94,0,0,0-11.84-2.49c-4-.47-8-.79-13.64-1.33,5.43,4.47,9.91,7.71,13.83,11.52s7.07,8,8.06,14.46a37.44,37.44,0,0,1-7.83-7.39c-5.37-6.12-11.85-11-18-16.23-2.85-2.42-5.22-2.29-7.85.64-3.66,4.08-7.21,8.22-10.53,12.57-1.87,2.45-3.65,5-6.68,6.48,4.41-10.24,10.31-19.48,19.13-27.37l-4.75-8.11c4.12-.34,5.39,3.53,8.56,5.18C25.15,739,25.78,733,27,727.12c3.26-15.59,7.24-31,9.94-46.73.85-5,.12-10.07,1.19-14.9,6.84-30.82-2.55-59.25-12.89-87.43-5.41-14.71-11.56-29.12-16.48-44-8.21-24.9-8.56-49.9-3-75.29,4.25-19.34,9.82-38.18,19-55.86,2.94-5.68,4.6-12,7.92-17.52a7.27,7.27,0,0,0,.87-3.39c1-27.11,9.62-52.26,20.31-76.75,19.24-44.12,49.56-79.1,89.19-106.14a87.49,87.49,0,0,1,29.75-13.36,21.54,21.54,0,0,0,13.11-8.93c6.94-9.5,11.47-20.21,15.7-31.08,1.16-3,0-5.54-.88-8.27-5.14-16.64-8.95-33.56-8.89-51.09C192,31.42,243.88-9.89,297.5,2.08A127.15,127.15,0,0,1,357.26,33.8c34.27,31.88,55.52,71,62.33,117.35,4.79,32.64-1,63.46-20.62,90.88-12.75,17.78-30,27.51-51.75,28.57-11.85.58-23.14-1.84-32.84-9.35-.36-2.25,1.29-2.38,2.8-2.66a12,12,0,0,1,4.78,1.29c27.37,12.25,58-.27,73.34-24.08,16.32-25.37,21.75-53,17.63-82.5C406.85,109.86,387.38,73,356.18,42.4c-18.2-17.83-39.71-29.86-65.33-34C249.28,1.61,208,31.16,200.62,72.88c-3.39,19.26.34,37.8,4.11,57.79,2.73-4.6,3.14-8.78,4.58-12.55.63-1.62.91-4.31,3.4-3.71,2.15.53,2.12,3,1.94,4.86-1,10-3.78,19.63-7.07,29-4.81,13.75-10.79,26.95-22.11,36.9-1.56,1.38-3.78,3-3.17,5.24.71,2.61,3.58,1.63,5.57,1.92,23.65,3.36,42.83,14.95,58.63,32.39,4,4.39,8.23,8.57,11.92,13.23,2.1,2.65,4.32,2.82,7.5,1.56,7.24-2.88,13.39-6.35,16.43-14.34,1.38-3.61,3.21-8.16,8.37-8.83C294.2,219.18,293.55,221.7,290.21,224Z"/><path class="cls-2" d="M93.62,800.71c2.22,2.61.87,5.73,1.24,8.61.32,2.4-.87,5.12,1.46,7.11-.57,4.26,1.39,6.08,5.54,7.12,22.94,5.81,43,17.51,61.82,31.42a59.1,59.1,0,0,1,12.69,12.78,9.89,9.89,0,0,1-6.5-2.65,326.88,326.88,0,0,0-64.17-36.68c-2-.85-4.21-3.77-6.72-.6-2.63.94-3.68-2-5.8-2.35-1-.39-1.06-2.14-2.57-1.86.06-1.1.12-2.2.17-3.3,2.33-3.69.76-7.79,1.24-11.67C92.35,806,91.07,803,93.62,800.71Z"/><path class="cls-1" d="M93.18,825.47c.79-1.48,1.67-1,2.65-.19s2.1,1.7,3.15,2.54a117.58,117.58,0,0,1,33.09,42.78,34.66,34.66,0,0,1,3.65,16.5c-2.31-.5-2-2.48-2.41-4-2-6.43-5.51-12.06-9.15-17.6a189.32,189.32,0,0,0-29.72-34.93C92.75,829.06,93.42,827.22,93.18,825.47Z"/><path class="cls-3" d="M317.29,259.7c-1.13.23-2.31.33-2.91,1.55-11-6.33-17.18-16.3-21.26-27.91-1.07-3.07-1-6.5-2.91-9.3.89-2.4,2.57-4.8-.08-7.16-3.33-5.48-1.73-10.95.08-16.39.36-1.1,1.08-2.3,2.54-1.9.94.26,1.31,1.28,1.59,2.2a15.34,15.34,0,0,1,.27,5.65c-1.33,19.22,4.52,35.52,19.48,48.17C315.64,255.93,317.77,257,317.29,259.7Z"/><path class="cls-4" d="M31.79,749.13c-2.1-1-1.68-2.26-.29-3.57C31.6,746.76,31.69,747.94,31.79,749.13Z"/><path class="cls-5" d="M323.13,472.4a272,272,0,0,0,39.61-2.79,9.72,9.72,0,0,1,1.43-.07c17.55,0,35-1.79,52.63-1.68,14.39.09,28.8-1.22,43.19-2.41,17-1.4,33.57-5.65,50.46-6.92,14.29-1.08,29-2.67,43.07,2.35,16.13,5.75,25.46,17.59,29.21,33.92,2.41,10.49,2.15,21.29,1.39,31.9a258.1,258.1,0,0,1-4.47,31.53c-4.71,23.62-10.33,47-14.79,70.71-2.49,13.19-5.21,26.4-4.9,40.06a141.3,141.3,0,0,0,6.43,38.34c3.68,12,8.55,23.6,12.09,35.67,4.4,15,5.15,30.33,4.37,45.77-.4,8.07-3.77,15-11.69,18-4.52,1.71-9.7,1.76-14.61,2.32-22,2.51-44.12,1.39-66.18,1.34-8,0-16-1.5-23.94-2.32a21.25,21.25,0,0,0-2.82-.34c-13.3.48-26.47-2-39.8-1.53-12.59.48-25.22.45-37.81,0-13.09-.46-26,1.37-39.07,1.86a172.3,172.3,0,0,0-28.06,3.55A93.24,93.24,0,0,1,302,813.23c-12.58.22-25.1,1.07-37.65,1.67-12.4.59-24.4-2.61-36.51-4.53-3.79-.6-6.55-2.91-7.57-7.43-2.19-9.69-1.43-19.45-.93-29.09.55-10.57,2.61-21.07,4-31.59,2.38-17.58,7.16-34.68,10.33-52.09,1.9-10.46,3.16-21,4.19-31.56,1.62-16.64.68-33.21,1.06-49.81.34-14.73-2.19-29.18-4.91-43.6a177.41,177.41,0,0,0-7.31-25.94,10.77,10.77,0,0,1-.9-4.8,4,4,0,0,1,3.44-.61c8.91,2.14,18,1.11,27,1.37,5.44.15,5.48.18,5.55,5.73,0,2.37.26,4.77-.68,7-.86,2-.9,4.13.05,7.27,10.68-9.13,23.66-11.09,36.33-14.3-3.74,4.39-6,8.9-3.17,14.25,1.85,3.51,8.45,5.32,12.87,4.06s6.22-5.22,5.95-13.72c5.14,2,10.18,4,15.28,5.8,3.35,1.2,7.56,2.48,9.82-.61,2.42-3.31-1.88-5.86-3.36-8.62-1.4-2.6-4.66-3.93-5.69-7.65,17-3.35,34-3.78,50.82-5s33.65,1.24,50.49,1.39c17.05.16,33.89,2.78,50.77,4.83,16.64,2,32.34,8.42,48.61,11.37.79-2,.27-3-.53-3.37-7.44-3.83-8.64-11-9-18.09-.35-6.33-.86-12.74.92-19.12,1.47-5.3,2.5-10.64,6.9-14.49.69-.6,1.43-1.38.9-2.44a2.5,2.5,0,0,0-3-1.34,45.75,45.75,0,0,0-6.69,2.36c-14.77,6.76-30.53,9.87-46.27,13.32-13,2.85-26.18,3.87-39.29,5.24-16.2,1.7-32.54,2.55-48.83,3.57-19,1.2-38,.28-56.93,1.08-7.41.32-14.55-2.21-22-1.52-1.51.14-2.67-.77-3.87-1.58-17.24-11.71-35.83-21.36-52.3-34.26a7.11,7.11,0,0,1-2.34-2.6c2.21-2.38,5.17-2,7.94-2,13.65-.07,27.29,0,40.93-.14,1.76.09,3.51.09,5.27.08A155.49,155.49,0,0,1,323.13,472.4Z"/><path class="cls-6" d="M317.29,259.7c-11.82-8.38-20-19.33-23.1-33.64-1.4-6.42-3.05-12.84-1.65-19.57.46-2.22.07-4.62.07-7.67a45.41,45.41,0,0,0-2.48,18.06c-4,5.33-7.84,10.75-10.11,17.11-.55,1.54-1,3.21-3.12,3.41-4.89.45-9.07,2.76-13,5.38-2.27,1.5-3.66,1.21-5.22-1.06a133.82,133.82,0,0,0-19.91-22.25C223.2,205.1,205.38,195.19,183.64,194c-1.88-.1-4,.27-4.92-1.94s.7-3.66,2.13-4.88c20.25-17.07,26.59-40.89,31.72-65.29a14.17,14.17,0,0,0-.25-7c-2.55,7.29-3.92,14.26-7.13,20.6-.56-.41-1.18-.63-1.26-1-4.63-19.49-8.48-39.09-5.49-59.26A81.57,81.57,0,0,1,298.18,7.81a123.57,123.57,0,0,1,57.95,32.05c32.55,31.41,52.87,69.41,58.8,114.44,4.06,30.8-1.79,59.65-20.21,85.32-11,15.29-25.58,24.33-44.45,26.62C338.45,267.67,327.67,265,317.29,259.7Z"/><path class="cls-7" d="M173.56,188.54c-.13,3.29-3.31,3.9-3.79,6.85,4.51,3,9.88.71,14.7,1.85,5.07,1.19,10.23,2,15.11,4a98.91,98.91,0,0,1,14.6,7.38c4.45,2.74,9,5.34,13.25,8.36a130.72,130.72,0,0,1,12.22,9.8,63.33,63.33,0,0,1,11.19,12.48c-5.19-1.14-8.85-3.23-12.94-4-22-4-47.88,11.95-54.52,36.95-5.34,20.08,2.79,43,19.75,54.91a26.81,26.81,0,0,0,9,4.2c3.72.91,5.36,2.2,4.44,6.87a31.87,31.87,0,0,0,2.55,20.85c1.87,3.72,4.77,6.44,8.14,9.68-12.18,9.69-26.52,14.65-39.85,21.45,5.16,1.13,7.47.88,15.77-2.31,5.29-2,10.46-4.38,16.36-6.86.32,6.2-1.4,11.49-2.82,16.76-.43,1.6-2.52,2.15-4.07,2.62-8.54,2.58-17.08,3.88-25.37-.91-4.78-2.76-10.37-2.82-15.46-5-28.22-11.93-54.27-27.27-77.28-47.55a121.35,121.35,0,0,1-31-42.11c-1.77-4-1.35-7.1.54-10.72a272.25,272.25,0,0,1,34.07-49.91c13.17-15.5,28.39-28.65,44.86-40.45A96.29,96.29,0,0,1,157.63,195C162.71,192.63,168,190.76,173.56,188.54Z"/><path class="cls-7" d="M42.65,562.74c-1.24,5.47.17,9.38.71,13.35,2.32,17.15,2.45,34.55,5.72,51.59,1.38,7.21,3.13,14.36,4.84,21.51,1,4.18.43,5.47-3.21,6-3.28.46-4.34-.49-4.68-4.45-.67-8-.85-16.15-2-24.11-2.64-18.41-8.13-36.05-15-53.3-6.71-16.75-13.1-33.61-17.52-51.19-5-19.8-4.63-39.52-.31-59.26C16,441,24,420.18,33.92,399.52c1,4.61,1.9,8.78,2.88,12.93,4.6,19.41,15.36,35.63,27.13,51.21,11,14.61,23.41,28.15,36,41.44,18.14,19.17,36.69,38,55,56.95,7.09,7.34,7,7.33.25,14.89-21.86,24.6-48,43.82-75.9,60.94-1.14.71-2.58,1-3.7,3.4,16.29-6.2,29.94-15.5,43.71-24.34,1.49,1.66.58,2.94.24,4.28-3.86,15.12-11.06,28.79-18.46,42.37-2.73,5-5.4,10.06-8.23,15-1.29,2.25-2.44,4.61-4.45,6.41-5.06,4.54-10,4.25-13.9-1.26-4.48-6.25-6.87-13.55-9.57-20.65-7.14-18.72-11.34-38.18-14.39-57.94C48.4,591.37,46.38,577.56,42.65,562.74Z"/><path class="cls-8" d="M241.82,469.76c-4.54-4.34-4.45-4.26-.73-8.69a119.51,119.51,0,0,0,15.27-22.26c4.52-8.83,12-13,21.59-11.78,8.54,1.06,17.07.49,25.57,1.11,27.27,2,54.57,1.53,81.87,1.26,10.89-.11,21.65-1.74,32.4-3.22a317.85,317.85,0,0,0,44.33-9.67,17.16,17.16,0,0,1,13.69,1.68c21.85,12.6,46.31,19.68,68,32.52,2,1.19,4.14,2.23,7.67,4.12-7.87-.91-14.14-2.09-20.44-2.26-14.27-.38-28.23,2.47-42.27,4.62-9.34,1.43-18.65,3-28.1,3.94-24.12,2.3-48.32,2.1-72.48,3.07-14.85.6-29.78,1.43-44.59,3.53-7.23,1-14.69.39-21.94,1.86-7.19,3.19-14.24,2.79-21.86-.07,2.7-3.83,5.95-3.31,8.89-3.44,18.06-.78,35.74-4,53.23-8.41,2-.5,5-.42,5.09-2.89.12-2.63-3.06-2.6-4.91-3-11.46-2.79-23.08-1.93-34.66-1-17.48,1.35-34.62,5.37-52.11,6.74a46,46,0,0,0-11.7,2.89c-1.43.52-3.79.83-3.55,2.83.27,2.18,2.64,2.61,4.47,2.72,5.93.36,11.87.13,17.8.18a30,30,0,0,1,7.79.59c1.15.31,2.56.77,2.72,2,.21,1.59-1.21,2.44-2.51,3.08-1.77.87-3.71.68-5.6.69-10.68,0-21.36-.14-32,.11C248.73,472.57,245.46,470.67,241.82,469.76Z"/><path class="cls-7" d="M200.7,593.67c-9.95-29-20.5-57.75-35-84.87a90,90,0,0,1-7.83-22.1c-1.62-6.92-3.13-13.9-4.13-20.93-1.56-11-2.95-22-2.83-33.22,3.22,17.4,5.6,35,10.92,51.89s13.79,32.72,22,48.51c2.34-1,2.71-3.07,3.39-4.76a434.56,434.56,0,0,0,17.06-49.85c4.36-16.07,6.47-32.54,8.37-49,.24-2-1-2.45-2.57-2.53s-1.6.77-1.7,2.21c-.33,4.66-1.18,5.15-4.79,2.65-4.77-3.29-10.15-4.92-15.44-7-6.06-2.42-13-2.87-18.16-7.43-1.74-1.55-2.9-.38-4.38.4a27.69,27.69,0,0,1-14.4,3.33c-6.13-.31-12.24-1.5-18.39,0a5.94,5.94,0,0,1-3.41-.54,1.26,1.26,0,0,1-.3-2.27,24.52,24.52,0,0,1,3.78-1.85,48,48,0,0,0,16.82-12.86c-2.77-2.46-5.92-3.64-8.94-5-14.82-6.48-29.2-13.81-43.4-21.56C82,368.46,68,358.38,56.41,345.16c-2.63-3-5.12-6.15-8.34-10-3.3,6.3-4.14,12.21-5.59,17.89A130.62,130.62,0,0,0,40,403.21c2.66,19.71,12.51,36.27,24,51.85,15.55,21.08,33.56,40.06,51.75,58.86,17,17.58,34.72,34.51,50.57,53.24,12.62,14.9,25.14,29.79,34.12,47.28,5.32,10.36,10.5,20.8,16,31.09,3.74,7,7.56,14.07,13.6,19.71a96.6,96.6,0,0,0-6.09-15.66A441.25,441.25,0,0,1,200.7,593.67Z"/><path class="cls-7" d="M334.62,546.75a21,21,0,0,0-2.12-2.84c-11.78-13.22-24.87-24.77-40.35-33.65-14.42-8.26-29-16.28-42.56-26-10.24-7.39-20.21-15.06-27.77-25.39-1.75-2.39-2.87-5.32-5.91-7.49-1.85,5.65-2.25,11.07-3.29,16.34a316.17,316.17,0,0,1-11.82,42.51c-2.33,6.7-2.07,7.18,4.46,10.11a82.82,82.82,0,0,0,15.57,5c14.76,3.39,29.74,3,44.7,2.9a101.82,101.82,0,0,1,26.11,3c11.83,3.05,22.67,8.45,33.22,14.52,3.13,1.8,6.13,4.53,10.49,3.34A11.15,11.15,0,0,0,334.62,546.75Z"/><path class="cls-6" d="M219.47,536.9c-1.22-3.2-2.71-5.23-6.24-5.83a42.76,42.76,0,0,1-14.52-5.64c-2.16-1.29-3-.67-4.26,1.48-5.22,9-7.9,18-1.65,27.73,1.12,1.75,1.43,4,2.13,6,8.42,24.19,16.33,48.58,26.73,72,3.14,7.09,6.57,14.06,9.87,21.08l1.55-.43c.65-23.7,1.38-47.4-2.14-71A217.36,217.36,0,0,0,219.47,536.9Z"/><path class="cls-8" d="M517,498c-3.87,13.67-3.57,26-.36,38.93-7.1-1.54-14.09-3.32-21.18-4.56-16.55-2.91-33.23-4.73-50-6.11a649.89,649.89,0,0,0-74-2.2c-13.21.41-26.57.6-39.55,3.71-8.44,2-13.41-2.31-18.09-9,3.08-1.18,6.07-.67,8.94-.38a237.9,237.9,0,0,0,47.58,0c2.36-.23,4.74-.23,7.12-.25,20.87-.1,41.6-2.18,62.37-4.09,16.77-1.55,33.42-3.45,49.78-7.46A182.52,182.52,0,0,0,517,498Z"/><path class="cls-9" d="M224.18,281.33c-15.5,2.3-24.63,12.09-30.46,27.4-5.73-11.24-7.45-21.69-5-32.69,4.64-21,24.3-36.25,45-35a24.38,24.38,0,0,1,17.48,8.31c1.36,1.53,2.14,3.06.54,5-4.58,5.48-6.41,12.64-10.94,18.16C233.27,271.81,228.29,275.75,224.18,281.33Z"/><path class="cls-10" d="M165.86,394.93c-3.85,1.93-7.92,2.74-11.14,5.27-1.51,1.19-2.94.95-4.56,0-15.64-9.46-32.75-16.14-48.49-25.48-18.09-10.74-35.1-22.53-47.36-40.2-3.37-4.85-4.37-8.95-1.56-14.28,2.41-4.55,4-9.49,6.62-15.73,4.69,13.2,11.71,23.13,19.69,32.45A112.06,112.06,0,0,0,93.14,351c20.86,17.06,43,32.08,68.54,41.32A7.29,7.29,0,0,1,165.86,394.93Z"/><path class="cls-11" d="M241.82,469.76c15.86,1.67,31.74,1.36,47.63.65.79,0,1.91-.38,2.27-2.33-7.86,0-15.59-.06-23.32,0a28.33,28.33,0,0,1-9.09-1.43c-1.73-.55-3.08-1.5-3.07-3.42s1.3-2.92,3-3.58c4.86-1.95,9.89-3.7,15-4.12,18.17-1.5,36-5.9,54.14-7.13,11.31-.77,22.81-1.66,34,1.24,3.3.85,8.37,1.08,8.39,5.2,0,4.46-5.24,3.87-8.42,4.68-19.07,4.88-38.34,8.53-58.11,8.71a2.8,2.8,0,0,0-2.87,1.34h20.27a2.89,2.89,0,0,0,1.44,2.81c-1.86,2.1-4.37,1.33-6.63,1.37-4.93.09-9.87,0-14.81,0q-2.13-2.31-4.26,0l-49.91.1Z"/><path class="cls-12" d="M265,261.48c5.62,6.08,6.08,12,5.55,19.08a160.1,160.1,0,0,1-10.27,45.52A76.2,76.2,0,0,1,242.07,353a16.45,16.45,0,0,1-4.51,3.39c-3,1.38-5.69.32-7.06-2.72-2.54-5.67-2-11.6-.95-17.48.39-2.21,2.54-2.86,4.38-3.1,14.63-1.89,21.85-12.59,27.65-24.17C269,294.19,269.26,278.47,265,261.48Z"/><path class="cls-13" d="M93.62,800.71c-.05,5.61-.11,11.21-.12,16.82,0,1.86-.34,3.29-2.72,2.78,0-25.64-2.7-51.12-4.91-76.6-1.16-13.38-4.82-26.55-7.43-39.8a51,51,0,0,1-.9-10.31,18.39,18.39,0,0,1,6.7-.58c.18.43.36.65.35.85-1,21.23,3.46,42,5.56,62.91C91.61,771.39,92.48,786.07,93.62,800.71Z"/><path class="cls-4" d="M54.38,658.91c-1.74,5.48-3.46,11.06-5.26,16.61-7.35,22.55-14,45.31-19.65,68.34-.41,1.66,0,4.78-2.49,4.21s-.71-3.24-.33-4.77c5.07-20.49,10.81-40.81,14.43-61.64a118.33,118.33,0,0,0,1.24-14.17c.34-6.71.36-6.71,6.93-8.38C50.8,658.72,52.3,657.65,54.38,658.91Z"/><path class="cls-14" d="M178.21,400.28A44.65,44.65,0,0,1,190,405.21a2.34,2.34,0,0,1,1.21,2.35,8.31,8.31,0,0,1-.37,1.36c-1,3.86-1.63,8.14-5.57,10.15-2.65,1.35-13-3.78-14.92-6.89-.35-.58-.84-1.58-.61-1.92,2-2.86,2.27-6.73,5.3-9A4.25,4.25,0,0,1,178.21,400.28Z"/><path class="cls-15" d="M279.41,251.4c4,3.76,4.49,7.66,4.74,11.57.33,5-.8,9.92-1.9,14.79a96.51,96.51,0,0,1-8.42,23.35C275.2,284.84,276.16,268.57,279.41,251.4Z"/><path class="cls-16" d="M264.33,372.69c.45-7.52-.27-13.33-2.41-18.92a5.52,5.52,0,0,1,.45-5.38c3.24-4.86,6.4-9.77,9.77-14.95C274.35,342.77,270.66,362.18,264.33,372.69Z"/><path class="cls-17" d="M143.12,414.85c10.24-5.82,16-17.32,30.34-16.73-3.51,3.38-5.87,6.1-10.3,5.77-2.61-.19-4.84,1.2-6.49,3.46,1.79,1.11,3-.28,4.32-.4,2.34-.23,4.86-1,5.18,2.79.26,3-.1,5.33-3.7,5.42C156.42,415.3,150.35,417.65,143.12,414.85Z"/><path class="cls-18" d="M224.18,281.33c2.79-9.86,7.46-12.35,16.55-8.82-2.95,6-5.9,12.07-8.92,18.27C226.84,289.12,225.15,285.52,224.18,281.33Z"/><path class="cls-19" d="M200,406.86a55.84,55.84,0,0,0,15.71-2.75c.64,5.45-1.35,10.2-1.45,15.11,0,1.68.27,4.42-2.41,4.26-2.41-.15-5.22-.45-6-3.84C204.81,415.31,203.77,410.94,200,406.86Z"/><path class="cls-20" d="M258.73,267.62c3.27,9.86,3.3,18.06.76,26.86-2-2.32-3.75-4.46-5.67-6.39-4.5-4.52-4.58-4.5-1.6-9.7C254.07,275.15,256.07,272,258.73,267.62Z"/><path class="cls-21" d="M285.06,537.4l-17.76,6.94c-.29-.5-.74-.9-.68-1.2,1.56-8,1.57-8.07,9.66-7.91C279.22,535.3,282.39,534.63,285.06,537.4Z"/><path class="cls-22" d="M204,425.47l-13.55-3.76c2.6-5,2.6-5,7.59-2.79-.16-3.34-5-5.9-1.09-10C201.41,413.07,201,419.05,204,425.47Z"/><path class="cls-23" d="M275.89,251.39c-1.38,4.48-.64,8.6-3,12.64-2.53-1.8-3.19-4.57-4.6-6.78-.83-1.3-.05-2.27.93-2.93C271,253.16,272.51,251.63,275.89,251.39Z"/><path class="cls-24" d="M307.6,551.49c-.53,2.28-2.24,2.8-4.23,2.58s-4.2-1-4.71-3.38c-.36-1.69,2.73-3.23,5.44-2.83C306.19,548.17,307.49,549.24,307.6,551.49Z"/><path class="cls-25" d="M251.86,362.12c1.35-2.56,2.43-4.3,4.63-5C259,362.67,259,362.67,251.86,362.12Z"/><path class="cls-26" d="M539.57,763.45c-8.52-1.59-17.55-3.32-26.6-5-14.65-2.65-29.29-5-44.28-5.12a388.25,388.25,0,0,0-43.31,1.77,404.43,404.43,0,0,0-53,8.82c-15.59,3.78-31.24,7.62-47.2,9.24-10.78,1.1-21.79,1.12-32.55-1.49-6.87-1.67-11.8-5.77-15.39-11.73-6.93-11.5-10.7-24.28-9.3-37.32s-.25-26,2.18-39a34.39,34.39,0,0,0-.6-16.26c-.78-2.56-.48-5.19-.53-7.79-.33-19.2-1.81-38.34-7.28-56.77-4.28-14.46-8.35-29.25-18.38-41.24-1.51-1.8-2.35-3.91-.46-5.69,1.58-1.48,3.65-.84,5.16.56,5,4.66,11.36,7,17.66,8.91,7.69,2.29,15.89,3.84,23.81,2.25s16-.62,24-2.36c9.18-2,18.62-2.91,28-4.11,6.09-.77,12.31-.74,18.32-1.89,9.82-1.87,19.89-.25,29.66-2.51a21.67,21.67,0,0,1,6.39-.17c18.41,1.35,36.65,4,54.35,9.27A374.35,374.35,0,0,0,491.42,576c8,1.42,16.22,3.11,24.65,1.23a16.78,16.78,0,0,0,10.8-7.31c1.6-2.34,2.91-5.63,6.37-4.43,4,1.38,1.56,4.62,1.33,7.28-.63,7.25-3.84,13.68-6.47,20.23a152.11,152.11,0,0,0-9.56,37.68,280.45,280.45,0,0,0-2.69,41c.38,21.52,4.7,41.77,18,59.45,4.69,6.24,8.68,13,13,19.54,1.66,2.51,4.28,4.79,2.55,8.27C548.09,761.54,543.85,763.47,539.57,763.45Z"/><path class="cls-27" d="M386.13,535.14c1.87.09,3.89-.36,5.45,1,2.82,2.42,6.23,4.47,5.75,9-.38,3.62-2.91,5.34-5.84,6.39-3.7,1.34-7.41,1.49-10.36-1.9-1.37-1.58-3.29-2.77-3.64-5.07C376.56,538.56,379.14,534.37,386.13,535.14Z"/><path class="cls-28" d="M462,542c2.27,0,4.5.11,4.68,2.54.13,1.76-1.75,1.94-3.21,1.91-2-.05-4.15-.42-4.37-2.69C458.91,541.76,461.1,542.37,462,542Z"/><path class="cls-1" d="M297.43,473.76c.2-1.45.6-2.76,2.47-2.53,1.45.18,1.61,1.39,1.79,2.53Z"/><path class="cls-29" d="M444.15,440.18a96.29,96.29,0,0,0-14-.11c-6.57.34-13.19-.38-19.79-.75a2.88,2.88,0,0,1-2.62-2.1c-.39-1.32.44-2.23,1.36-3a8.42,8.42,0,0,1,4.52-1.88c5.76-.82,11.1-3.59,17.22-3,3.05.31-3-2.14.34-2.55,1.88-.23,3.81-.13,5.69-.37,1.64-.21,3.23-.8,4.87-1a48.67,48.67,0,0,1,5-.14h5.71c1.66,0,3.33.14,5,.05,3.64-.18,7,1,10.48,1.83,2.24.55,4.8,1.54,4.88,4.48.06,2.61-2.22,3.44-4.2,4.25-1.28.53-2.64.86-4,1.28,1.25,2,3.23,1.05,4.74,1,9.78-.66,19.41,1.19,29.13,1.56a20.53,20.53,0,0,1,7.47,2.17c3.49,1.62,3.77,4.81.93,7.4-2,1.84-4.67,2.39-7.17,3a312,312,0,0,1-42.1,6.14c-14.25,1.24-28.47,1.06-42.71,1.19a31.47,31.47,0,0,1-6.37-.47c-1.58-.3-3.33-.94-3.78-2.83s.86-3.11,2.19-4.14a9.76,9.76,0,0,1,2.47-1.41C420.65,446.38,431.68,441.33,444.15,440.18Z"/><path class="cls-30" d="M321,433.79c5.89.28,11.87-.47,17.65,1.39a19.48,19.48,0,0,1,2.07.46c1.88.87,4.51,1.27,4.6,3.84s-2.54,3.3-4.46,3.87c-6.6,1.94-13.45,2.55-20.26,3.22-8.79.86-17.45-1.42-26.22-1.39a6.64,6.64,0,0,1-2.72-.72c-1.68-.76-3.92-1.27-3.67-3.7.19-1.92,2.07-2.29,3.65-2.87C301.18,434.42,311,433.49,321,433.79Z"/><path class="cls-31" d="M364.76,454.91c-33.29,9.47-67.37,9.88-102.53,8.56,3.68-3.32,7.58-3.41,11.31-3.89,14.72-1.87,29.4-4.2,44.18-5.35,9.79-.77,19.14-5.05,29.22-3.27,5.95,1.05,12,1.67,17.95,2.49Z"/><path class="cls-32" d="M273.36,642.28c-2.11-15-4.08-30-8.62-44.61-3-9.73-6.73-19.21-10.09-28.71a1.86,1.86,0,0,1,2.61-.44c10.88,5.06,22.38,5.81,34.13,5,17.29-1.15,34.37-4,51.51-6.35,4-.55,8-1.18,12-.77.74,2.3-.39,4.24-1.53,6-15.56,23.38-30.14,47.43-47.25,69.79a8.2,8.2,0,0,1-3.21,1.62C293,644,283,646.44,273.36,642.28Z"/><path class="cls-33" d="M296.09,654a3.41,3.41,0,0,1,1.35-.44,7.92,7.92,0,0,1,5.22-2c21.84,0,43.68-1,65.49.45,4.36,1.65,3.13,4.73,1.6,7.47C360.56,676,351.66,692.57,342.4,709a10,10,0,0,1-6.45,5.13,45.7,45.7,0,0,1-13.3,1.65c-13.92-.2-27.82,0-41.64,1.84-5,.68-7.8-.7-7.08-6.38.44-3.49-.46-7.06.5-10.55a39.55,39.55,0,0,1,.7-15.66A109.7,109.7,0,0,1,296.09,654Z"/><path class="cls-34" d="M306.07,641c2.71-5.83,7-10.64,10.44-16,12.8-19.56,26.27-38.66,38.42-58.65,20.4-4.54,40.91-5.79,61.58-2,.23.68.66,1.48.42,2.06-5.47,13.06-10.57,26.33-19.63,37.53-8.67,2.88-17.84,1.2-26.65,2.94s-17.74,1.62-25.93,6.29-10.82,11.32-10.92,19.93c-.09,8.25-1.08,9.27-9.47,9.53-3.8.12-7.54.59-11.31,1C310.41,644,307.23,644.88,306.07,641Z"/><path class="cls-32" d="M397.41,602.24a330,330,0,0,0,19.09-37.77,269,269,0,0,1,35.89,7.81c10.88,3.07,21.83,5.8,32.91,8-10.22,16.36-18.35,33.92-28.91,50.09a7.93,7.93,0,0,1-2.93,1.73,23.12,23.12,0,0,1-6.37.54c-4.57,0-6.7-2.11-7.43-6.73-2.23-14.26-9.05-19.8-23.63-20.29-6.1-.2-12.35,1.23-18.3-1.3A1.39,1.39,0,0,1,397.41,602.24Z"/><path class="cls-32" d="M484.43,716.72c9.38-1.19,18.8-2.18,28.14-3.67,3-.47,4.69-.41,6.07,2.71,5.88,13.32,14.89,24.72,23,36.68,1.11,1.64,3.84,3.12,2.43,5.33s-4.33,1.2-6.57.79c-11.87-2.19-23.69-4.62-35.57-6.7a208.85,208.85,0,0,0-44.53-3.06c-5.68.22-11.37.19-17.05.27-.23-.42-.54-1-.35-1.3,6.05-10.69,11.77-21.64,21.27-29.88C468.84,714.5,476.68,716.57,484.43,716.72Z"/><path class="cls-32" d="M376.21,757.85c-23.39,6.44-47,11.61-71.44,11.23-1.88,0-3.83.17-5.52-1,9.84-1.7,12.23-10.23,16.47-17.38,5.25-8.86,8.37-19,15.9-26.53a8,8,0,0,1,2.23-.85c15.16.13,30.22-2.6,45.39-1.72,5.47.32,10.71-2.4,16.2-1,5.4,2.73,1.95,6,.13,8.57C388.86,738.57,382.62,748.27,376.21,757.85Z"/><path class="cls-34" d="M456,629.36q9.76-17.93,19.54-35.84c1.46-2.68,3-5.33,4.46-8,1.26-2.27,2.47-4.58,5.32-5.23a122.71,122.71,0,0,0,24.64,2.29c5.43-.09,10.88,0,15.58-3.14.47.59,1,1,1,1.21a252.45,252.45,0,0,0-13.83,46c-2.36,2.33-5.5,2.92-8.49,3-13.67.28-27.24,2.5-40.93,1.89C460.65,631.36,458,631.45,456,629.36Z"/><path class="cls-34" d="M376.21,757.85c-1.77-2.1.21-3.33,1.14-4.76q10-15.27,20.09-30.52a3.91,3.91,0,0,1,1.92-1.76,41.26,41.26,0,0,1,11.86-2c12.79,0,25.53-.86,38.28-1.64,3.27-.21,6.65-.39,9.77,1.12l1,.88-19.92,29.91C418.83,751.06,397.32,753,376.21,757.85Z"/><path class="cls-34" d="M331.13,725.21c-6.95,13-13.94,26.1-20.85,39.18-1.34,2.55-3.06,4-6.14,3.57a29.82,29.82,0,0,0-4.9.14c-8.42-.05-14.39-4.06-18.39-11.34-3.71-6.75-6.27-13.82-6.56-21.59-.55-8.43,0-9.31,7.89-9.41,14.37-.2,28.67-1.87,43.05-2C327.35,723.7,329.5,723.35,331.13,725.21Z"/><path class="cls-35" d="M397.41,602.24c0,.38.09.77.16,1.15.74,1.42.45,2.87.15,4.33-.63,2.21-1.49,4.19-4.33,4-.69-.13-1.67,0-2-.38-.95-1.07-1.4-2.09-3.43-1.88-9.08,1-18.34-.62-27.34,1.84-3.2.87-6.57,0-10.13.75,11.84,1.79,23-2.75,34.53-1.63a64.58,64.58,0,0,1,7.61,1.42c1.42,1.39.63,2.7-.1,4a3.87,3.87,0,0,1-3.08,1.4c-14.16.72-28.36,1-42.43,2.91-7.47,1-9.57,3.9-8.89,11.67.55,6.29,2.3,6.94,10.27,7.23,9.45.33,18.75-3.36,28.22-.79a3.16,3.16,0,0,1,1.73,2.68c-.35,3.61-2.61,6.44-3.95,9.65a10.94,10.94,0,0,1-2.36,3.31,1.82,1.82,0,0,1-1.88-.08l-72.69-.26q.13-.68.21-1.35c.27-4.78,3.28-7.67,7-10.08l1.44-1.13a4.68,4.68,0,0,0,4.68,1c5.83-1.44,11.76-1.2,17.67-1.35,3-.07,4.14-1.18,3.51-4.47a24.33,24.33,0,0,1,.26-9.18c2.26-11.69,10.57-16.78,21.06-19.12a180.16,180.16,0,0,1,38-4.35A13.44,13.44,0,0,0,397.41,602.24Z"/><path class="cls-32" d="M507.23,646c2.32,0,4.33.33,4,3.43-.14,1.4-.26,2.81-.37,4.22a180.81,180.81,0,0,0,1.63,40.86c1.14,7.64,1.33,7.61-6.52,7.89-2.94,2.52-6.86,1-10.06,2.48a40.07,40.07,0,0,1-8,.6c-2.57,0-5.16-.16-7.65.74a18.11,18.11,0,0,1-8.81,0,3.87,3.87,0,0,1-1.7-1.29c-.85-2,.09-3.73,1.09-5.34,11.09-18,22.09-36,34.42-53.22A2.49,2.49,0,0,1,507.23,646Z"/><path class="cls-36" d="M507.23,646l-1.54.58c-3,2.5-6.74,2.18-10.19,2.49-16.49,1.49-33,3.31-49.55,3.44a7.6,7.6,0,0,1-2.22-.77,2.57,2.57,0,0,1-1.25-1.73c1.35-6.46,5.82-11.28,9-16.8.76-1.11,2.09-1.56,3-2.55l1.58-1.3c15.43.93,30.74-1.81,46.15-1.62,3.53,0,6.89-1.89,10.53-1.13-.13,2.08-.23,4.16-.38,6.24C511.94,637.75,510.66,642.29,507.23,646Z"/><path class="cls-37" d="M331.13,725.21c-17,1.26-34.07,2.61-51.18,2.73-4.39,0-4.76-1.54-5.65,7.23-1.74-3.59-1.24-7.48-1.13-11.19.25-7.77-.68-15.63,1.26-23.31.09,4,.2,8.05.25,12.07,0,2.22.65,3.84,3.29,3.3,15.42-3.14,31-2.52,46.63-2.42,4.55,0,8.81-1.88,13.36-1.39a3.94,3.94,0,0,1,.66,1.8,6.82,6.82,0,0,1-.26,1.91,65.71,65.71,0,0,1-4.24,7.37c-.62.71-1.6,1-2.19,1.73A1.49,1.49,0,0,0,331.13,725.21Z"/><path class="cls-38" d="M496,703.32c3.22-1.68,6.64-1.2,10-.92,1.33,1.46,3.06,1,4.67.91,2.62-.22,3.9,1.16,4.65,3.42.69,2.1.68,3.61-2.08,4.1-4.17.73-8.28,2.36-12.45,2.49-6.41.2-12.61,1.93-19,1.92-.76-.53-.4,1.52.08.7s-.38.09.55.31c.68.17,1.37.31,2.06.47a4.36,4.36,0,0,1-3.19,1.15q-10.5.63-21,1.29l-.43-.07c1.16-5.6,4.49-10,8.07-14.18a2.69,2.69,0,0,1,1.9-.33,2.29,2.29,0,0,1,.56.68c3.38,1.12,6.92-.1,10.32.69a2,2,0,0,0,0-.69c-.08-.2-.31-.35-.47-.52,2.23-1.57,4.72-1.16,7.18-.93,2.89,1,5.88.24,8.81.46a6.5,6.5,0,0,1,2,.22C497.6,703.85,496.36,704.4,496,703.32Z"/><path class="cls-39" d="M296.09,654c-6.3,10.79-13.74,20.81-21,31-.23-8.44-.4-16.89-.73-25.33-.12-3.08.65-4.71,4.17-4.93C284.41,654.4,290.2,653.2,296.09,654Z"/><path class="cls-40" d="M304.63,642.16l-7,10.08c-6.6.09-13.24-.2-19.79.43-3.7.36-4.75-.79-4.67-4q.07-3.18.17-6.36Z"/><path class="cls-41" d="M385.21,542.1c.88,0,1.12,0,1.34,0,2.05.33,4.32.44,4.93,3,.32,1.32-.72,2.2-1.85,2.55-2.71.84-5.1.3-6.64-2.24C381.93,543.65,383.3,542.13,385.21,542.1Z"/><path class="cls-42" d="M414.23,454c28.5-10.17,57.68-12.6,88.08-8.93a6.64,6.64,0,0,1-4.88,2.91C479.92,451.43,425.42,455.8,414.23,454Z"/><path class="cls-43" d="M468.72,430.9c-7.93,4.4-33,6.66-54.18,5C431.71,429.42,449.33,427.88,468.72,430.9Z"/><path class="cls-44" d="M296.25,440.11c14.2-3.23,28.6-1.89,43-.85C325.09,443.82,310.75,442.72,296.25,440.11Z"/><path class="cls-32" d="M338,713.3a2.16,2.16,0,0,1-.06-1.07c3.61-3.88,5.47-8.84,8-13.33,7.75-13.6,15.18-27.38,22.71-41.11.67-1.22,1.56-2.41,1.44-3.94a4.16,4.16,0,0,1,1.3-.39,9.81,9.81,0,0,1,6-1.76c12.77.82,25.39-1.84,38.13-1.51a100.78,100.78,0,0,0,16.9-1.21c3.36-.47,7.14-1.07,10,1.86a1.81,1.81,0,0,1,.72.24c0,4.4-3.23,7.24-5.24,10.59-8.86,14.77-18.11,29.31-27.13,44-1.11,1.81-2.19,3.66-4.12,4.8a8.35,8.35,0,0,1-2.26.8c-1.63.33-3.15,1.15-4.81,1.15-20,0-39.9,2.37-59.9,1.91A3,3,0,0,1,338,713.3Z"/><path class="cls-45" d="M454.4,630.66c.11,1.33-1,1.91-1.69,2.73-13.71,7.43-27.62,13.26-44,11.16a95.8,95.8,0,0,0-24.78.52c-2.59.34-5.86,1.12-6.78-2.93.1-.92.21-1.84.31-2.76a5.08,5.08,0,0,1,1.82-1.69c3.73-2,7.79-1.83,11.82-1.85,11.39-.06,22.77,0,34.16-.06,5.27,0,9.27-1.85,10.75-7.36,1.57-5.85-.3-9-6.32-10.25-9.16-1.85-18.46-.65-27.69-1-3.47-.14-7.21.73-10.07-2.23.23-.93.47-1.85.71-2.77l.85-.51a45.29,45.29,0,0,1,13.82-1.18c-4.78-1.51-8.32-1.37-11.21-3.34a5.12,5.12,0,0,1,1.42-3.73c8.48-.26,17-.64,25.38.88,11.13,2,17.65,9.56,18.65,20.74.52,5.81.52,5.8,6.45,5.69C450.16,630.66,452.28,630.67,454.4,630.66Z"/><path class="cls-46" d="M331.93,725a1.49,1.49,0,0,1,.93-1.69,17.11,17.11,0,0,1,9.44-2.74c16.78-.46,33.51-2.14,50.31-2a11.07,11.07,0,0,1,5.49,1.22,1.61,1.61,0,0,1,.7,2.28l-1.36.48c-14.31.67-28.62,1.41-42.93,2C347,724.86,339.45,724.89,331.93,725Z"/><path class="cls-47" d="M398.8,722.09a4.63,4.63,0,0,0,.09-1.39c0-3.58,2.65-5.8,4.28-8.54a14,14,0,0,1,2.78-2.55l1.44-.5c4.13-2.87,9.07-2.6,13.65-3,13.85-1.08,27.74-1.76,41.59-2.9,2.14-.18,4.27,0,5.87,1.75-2,5.25-5.52,9.56-8.67,14.09-15.66-.16-31.23,2.42-46.93,1.69C408.15,720.56,403.62,722.91,398.8,722.09Z"/><path class="cls-48" d="M392,614.92c12.75.63,25.54-.32,38.28,1,7.56.8,8.3,1.57,8.31,9.19,0,8.26-2.75,12.32-9.18,12.63-7.56.37-15.14.42-22.7.31-9.23-.12-18.44,0-27.65.68a39.41,39.41,0,0,1,11.38-22.38Z"/><path class="cls-49" d="M390.41,616.38q-5.7,11.19-11.38,22.38l-1.53.62c-10.92-.73-21.64,1.65-32.5,2.08-5.25.21-8.53-1.86-9-7.2-.15-1.65-.07-3.32-.06-5,.07-8,2.21-10.22,10.29-11.33,11.95-1.64,24-.94,36-2.64C384.88,614.93,387.92,614.24,390.41,616.38Z"/><path class="cls-50" d="M377.19,642.14c1.25,1.44,2.94,1.49,4.59,1.25,13.2-2,26.49-.62,39.73-1,4-.13,8-.18,11.95-1.21,2.49-.65,4.62-1.4,5.51-3.84,1.32-3.62,4-4.2,7.34-3.95,2.12.16,4.26,0,6.4,0l-9.21,16.17c-12.53.18-25.06,1-37.56,1.76-9.24.56-18.45.83-27.68.84-1.87,0-3.85.18-5.29-1.47A37.38,37.38,0,0,1,377.19,642.14Z"/><path class="cls-51" d="M392.68,612.15c-4.71.19-9.48-.43-14.09,1.17-.86.3-2.32.55-2.75.11-4-4.12-7.51-.62-11.29.41s-7.85,3.42-11.37-.93c-.55-.69-1.69.3-2.54.64-1.67.68-2.1,3.43-4.57,2.73,1.64-3.95,2.18-4.83,5-5.3a234.93,234.93,0,0,1,38.76-3.22c3.49,0,.44,4.06,3.21,3.69l.24.22A.53.53,0,0,1,392.68,612.15Z"/><path class="cls-52" d="M373,650.69c19.5,1,38.89-1.8,58.37-1.6,1.62,0,3.23-.81,4.87-.93,2.52-.17,5.26-1.09,7.29,1.41l-1,1.27c-21.34.75-42.62,2.62-64,2.68-2.37,0-4.75,0-7.12,0A3.1,3.1,0,0,1,373,650.69Z"/><path class="cls-53" d="M393.25,611.67l-.24-.23c2.25-.56,2.87-2.31,3.12-4.32,3.29.07,6.58.18,9.87.19,2.55,0,4.6.56,5.16,4.1A62.56,62.56,0,0,1,393.25,611.67Z"/><path class="cls-34" d="M468.5,705c-10.44,1.8-21.05,1.52-31.57,2.31-9.81.73-19.63,2.33-29.54,1.8,2.41-6.52,6.86-11.86,10.39-17.73,7.23-12,14.71-23.86,22.07-35.78,1-1.62,1.85-3.33,3.4-4.52,10.81-.29,21.55-1.52,32.33-2.17,9.56-.59,19.13-1.66,28.7-2.39a11.09,11.09,0,0,1,1.41.06c-3.57,8.61-9.66,15.68-14.41,23.57-7,11.59-14.3,23-21.48,34.43Z"/><path class="cls-26" d="M480.24,704.74l2.5.79c-4.16.25-8.32,1.74-12.38-.27Z"/><path class="cls-26" d="M496,703.32l3.93.77c-4.21.25-8.41,2-12.45-.28Z"/><path class="cls-54" d="M404.41,712.08a35.16,35.16,0,0,1-5.52,8.62c-17.82-.83-35.53,2-53.36,1.6-4.16-.1-8.35,1.66-12.67,1.05a32.2,32.2,0,0,1,4.63-8.35c7.76-3.06,15.95-1.15,23.91-1.82,13.4-1.15,26.89-1.63,40.37-1.89A4,4,0,0,1,404.41,712.08Z"/><path class="cls-55" d="M404.41,712.08c-13.41,0-26.77,1.42-40.17,1.89-8.9.31-17.82.92-26.75,1l.51-1.7a43.44,43.44,0,0,1,8.42-1.09q25.89-.9,51.76-2c2.6-.1,5.18-.42,7.77-.65A3.33,3.33,0,0,1,404.41,712.08Z"/><path class="cls-56" d="M412.84,608.41a45.18,45.18,0,0,1,16,.08c1.4.2,2.08,1.8,2.27,4.36C425.29,611.05,418.75,614.5,412.84,608.41Z"/></g></g></svg>