<svg xmlns="http://www.w3.org/2000/svg" viewBox="0 0 314.87 904.15"><defs><style>.cls-1{fill:#010100;}.cls-2{fill:#4a4428;}.cls-3{fill:#655f5f;}.cls-4{fill:#454242;}.cls-5{fill:#b4a842;}.cls-6{fill:#7e560c;}.cls-7{fill:#fff;}.cls-8{fill:#ed0000;}.cls-9{fill:#ffe200;}.cls-10{fill:#7d550c;}.cls-11{fill:#fde101;}.cls-12{fill:#b5a842;}.cls-13{fill:#ab9f3f;}.cls-14{fill:#fefdfb;}.cls-15{fill:#eff0f0;}.cls-16{fill:#8e8334;}.cls-17{fill:#868635;}.cls-18{fill:#8c8333;}</style></defs><title>owl 2</title><g id="Layer_2" data-name="Layer 2"><g id="Layer_2-2" data-name="Layer 2"><path class="cls-1" d="M29.84,149.45c7.47,11.88,16.89,21.7,29.55,28.17,4.55,2.33,9,4,14.66.7C60.8,169,51.32,157.17,48.62,141c-1-6.32-1.67-12.77,2.05-19.94-.38,7.37-.16,13.55,1.5,19.7,4.61,17,15.8,28.34,30.88,36.36,4,2.11,4.34,1.75,6.43-2.34,6.45-12.57,6.77-26,5.82-39.69-.11-1.51-.35-2.59-2.23-3-19.39-3.88-28.81-17.62-32.82-35.33-8.85-39.1,14-88.78,68.08-96a100.08,100.08,0,0,1,44.3,4.2c26.21,8.41,48.92,36.89,47.56,66.86-.41,9-.84,18-3.14,26.84-1.71,6.52-4.34,12.64-9.21,17.45-2.9,2.86-4,6.47-4.78,10.14-2.92,14.4-.16,27.87,7.42,40.36a15.84,15.84,0,0,0,6.58,6.22c13.19,6.59,23.45,16.67,29.43,30,11.21,24.91,21.72,50.17,23.92,77.94.55,6.88,1.35,13.84.63,20.64-1.76,16.8,1.4,33.14,3.78,49.55,4,27.57,12.09,54.23,18.32,81.3,7.15,31,14.16,62.07,18.49,93.66,4.62,33.66,3.86,67.19.51,101-4.14,41.67-16.7,80.81-31.92,119.37-6.21,15.73-12.09,31.53-12,48.81a6.49,6.49,0,0,1-.53,2.77,2.32,2.32,0,0,1-2.13,1.61,2.23,2.23,0,0,1-2.13-1.6,76.26,76.26,0,0,1-1.86-9.78c-2.57-25.24-11.13-48.49-23.16-70.63C233,707.7,228,697.75,222.69,687.92c-1.32-2.46-2.24-5.26-5-7.16-6.86,13.09-13,26.33-19,39.72-2.08,4.71-.46,9.34-.65,14a269.56,269.56,0,0,0,.85,32.78c1.15,14.2,1.66,28.49,5,42.43.72,3,1.82,5.88,2.7,8.84.71,2.41,2.16,3.79,4.5,5,8,4.23,14.66,10.24,22,16.25-5.55.16-5.83,0-19-8.37-1.35-3.94-5.61-4.38-8.21-6.82-7.72-8.74-8.8-19.79-10.15-30.54-2.1-16.66-4.74-33.32-3.37-50.49-4.55,2.32-5.52,5.29-4,9.86,5.91,18.16,6.76,37.19,9.19,56-1.06,4.11,2.37,9.42-3.29,12.3-5.41-4.22-12.23-4.63-18.74-6.59,4.39-3.24,5.83-3.17,18.18.68.14-7-1.43-13.73-2.34-20.5-1.82-13.44-4.53-26.69-7.42-39.93-2.18-10-7.49-18.24-12.12-26.92-2.48.41-2.45,2.44-3.11,3.76-3.5,7-6.85,14.09-10.25,21.15-4.57,9.5-6.49,19.84-9.24,29.9-8.1,29.61-13.65,59.74-17.77,90.14-.83,6.16-.66,6.18,4.83,9,4.67,2.41,9.1,5.17,12.62,9.15,1.53,1.74,3.38,3.42,2.33,7.13-4.92-3.14-9.8-5.82-14.18-9.15-6.09-4.63-12.44-5.37-20-4.54-22.23,2.46-43.15,9-63.34,18.31-1,.47-2,1.37-3.35.48-1.14-2.24.92-2.89,2.16-3.53,5.7-2.92,11.42-5.85,17.27-8.44,10.63-4.71,21.36-9.17,32.6-14-10.42-3.56-21-5.32-31.32-7.72.71-3.25,3-2.64,4.64-2.78,10.32-.82,20.38.9,30.34,3.33,2.54.62,5,1.38,7.58,2,4.34,1.05,4.35,1,5.17-4.42.88-1.44.07-3.15.74-4.63q4.74-32.1,8.21-64.36c1.37-12.76,2.83-25.51.89-38.38a26.82,26.82,0,0,0-3.29-10.05A110,110,0,0,1,110,700.13a42.81,42.81,0,0,0-5-16.9c-24.77-48.83-40.9-100.16-45.36-155-2-25.15-3.6-50.3-2.54-75.52,1.65-39.27,5.91-78.19,17.26-116,1.82-6.08,1.78-6.09-3.44-9.11a41.29,41.29,0,0,1-15.15-15.75,44.7,44.7,0,0,0-2.45-4.33c-1-1.35-2.4-2.64-4.13-2.44C47,305.31,47.3,307.5,47,309a79.14,79.14,0,0,0-1.49,14.17,101.52,101.52,0,0,0,1.25,14,16.35,16.35,0,0,1-8.12-7.59C28,311.07,23,291.4,27.13,270.06c1.72-8.85,6.5-16.32,12-23.24a16.27,16.27,0,0,0,3.62-10.41c.17-7.59,1.1-15.17,1.25-22.77.14-6.43,3.88-11.67,5.2-18.08A80.4,80.4,0,0,1,21,181c-.22-1.44.34-2.07,1.82-1.76,6.93,4.06,14,7.64,21.95,9.51,5.47,1.29,10.32,1.7,13.83-4.77-12.83-7.56-23.8-17.53-30.31-31.63C27.39,150.65,27.38,149.41,29.84,149.45Z"/><path class="cls-2" d="M194.26,821.7c2.63-4.09.31-8.75,1.52-13,5.87,5.29,2.19,11.4,2.14,17,2.8-1.78,6.49-1.43,10.2-1a14.55,14.55,0,0,1,6,3.18c1.49,1.2.95,2.32,0,3.5-7.49-4.41-14.75-3.36-22.14.51-6.51,3.41-12.78,7.16-18.94,11.13a39.69,39.69,0,0,1-4.35,2.36c-.84.41-1.86.8-2.61,0-1.09-1.19-.24-2.18.65-3A94.37,94.37,0,0,1,182.06,831c3.28-1.87,6.59-3.72,10-5.4A3.49,3.49,0,0,0,194.26,821.7Z"/><path class="cls-3" d="M22.85,179.26C22,179.6,21.22,180,21,181c-11.85-8.35-20.37-18.74-21-34,2.23,13,10.34,22,20.4,29.76C21.31,177.51,22.48,178,22.85,179.26Z"/><path class="cls-4" d="M29.84,149.45c-1.45.48-1.16,1.87-1.52,2.92a37.37,37.37,0,0,1-6.62-23.19C23.63,136.27,27,142.74,29.84,149.45Z"/><path class="cls-5" d="M119.55,863.6a4.42,4.42,0,0,1-.74,4.64C118.29,866.57,118.24,865,119.55,863.6Z"/><path class="cls-6" d="M195.41,660c-2.26,1.06-2.27,3.14-2.9,4.84-3.72,10-6.89,20.23-11,30.12-3.27,7.92-7.32,15.41-11.12,23.06-3.69,7.43-7.07,15-10.53,22.57a104.67,104.67,0,0,1-10.19,17.14A27.81,27.81,0,0,1,146,762c-3.81,3.54-6.37,3.42-9.32-.88a149.12,149.12,0,0,1-16.81-31.31c-3.32-8.72-4.27-18-6.69-26.88-.21-.78.46-1.26,1.72-1.65,2.57,6.86,5.1,13.87,10.52,21-.55-8.44-3.57-14.58-6.4-20.67-5.9-12.7-12.39-25.13-18.18-37.88C85.18,629.28,73.31,593.5,67.52,556c-2.49-16.16-3.84-32.5-5.06-48.84-1.27-17.11-1.24-34.19-1.26-51.3,0-21.41,2.2-42.64,5.39-63.79.81-5.39,1.38-10.83,1.88-16.26.31-3.21,1.45-4.17,4.61-2.79,11.91,5.18,24.62,6.54,37.39,7.95a259.39,259.39,0,0,0,44.13.95c40-2.44,79.26-8.75,115.58-27.17a7.65,7.65,0,0,1,1.75-.3c2.68,9,3.48,18.42,5.61,27.56,7.36,31.65,15.24,63.18,21.13,95.15,5.25,28.46,10.11,56.93,11.47,86,1,20.54-.8,40.73-3.08,61-1.91,17-3.89,33.95-8.11,50.55a513,513,0,0,1-19.09,58.18c-3.41,8.86-6.7,17.78-10,26.69-2.62,7.13-4.84,14.37-5.14,22.11-1-5.41-1.85-10.84-2.95-16.23-4-19.81-13.05-37.6-22.2-55.38-13.83-26.88-29.75-52.46-46.52-77.6-26.48-39.71-47.94-82-62.58-127.55a230.89,230.89,0,0,1-10.56-85,50.42,50.42,0,0,1,1.52-9.1,21,21,0,0,0,.6-9.22c-5.45,19-7.72,37.31-5.66,56.43,3.71,34.47,14.91,66.54,28.83,97.94,10.62,24,23.43,46.76,37.07,69,9,14.78,19.38,28.76,28.77,43.35,2.68,4.16,3.05,7.53.87,11.75-4.9,9.51-9,19.4-13,29.29-2.53,6.17-5.08,12.29-5.09,19.15,0,4.2-1.81,7.79-4.4,11-1.83,2.31-3.95,2.89-6,.66-4.4-4.81-7-10.71-9.31-16.69-.83-2.13.59-4.15,1.53-6.06,3.37-6.82,6.77-13.63,10.13-20.45,5-10.12,7.49-21,9.6-32A27.3,27.3,0,0,0,195.41,660Z"/><path class="cls-6" d="M104,343.63c-3.7-4.53-9.36-7.11-12.38-12.25.43-.55.63-1.1,1-1.27,13.68-6,21-17.31,25.08-31,1.28-4.3,3.12-6.34,7.84-7.52a68.75,68.75,0,0,0,35.89-21.87c8.25-9.51,11.07-21,10.64-33.05-.45-12.4-4.19-24.18-9.33-35.52-6.52-14.39-18.21-20.42-33.23-21.73-7.18-.62-14.14,1.14-21.22,1.43l.06.07c7.31-3.7,15.48-3.95,23.28-5.32,18.94-3.32,38.14-4.29,57.35-4.54,24.94-.34,43,11.57,53.65,33.3,11.49,23.43,21.27,47.83,23.63,74.18,1.39,15.49,2.86,31.25-3.35,46.44-1.3,3.17-2.28,4.84-5.83,4.33-8.49-1.22-16.33.8-24.14,4.25-25.72,11.39-52.81,18.58-80.31,23.73-20.75,3.88-41.86,5-63,1.06-4.65-.86-9.34-1.26-13.84-2.92-2.24-.82-3-1.68-2.29-4.11,1.39-5,2.36-10.15,3.7-15.19,1.55-5.85,6.35-7.24,11.2-3.14,3.07,2.61,5.81,5.61,9.25,7.78,2,1.25,3.78,3,6.39,2.76Z"/><path class="cls-7" d="M202,122c-8,17.46-3.17,32.4,5.78,46.83-39.65-3.69-78.14,1-115.89,11.67-1.35-2.31.39-3.5,1.1-4.78,6.8-12.17,8.08-25.27,6-38.7-.61-4,.33-5.05,3.88-6.44,8.51-3.34,14.29-9.55,16-19-1.23,1.82-2.4,3.69-3.7,5.46-9.83,13.32-24,14.73-36.23,3.59C70.54,112.9,66.23,103,64.39,92A74.73,74.73,0,0,1,134.57,5.08a106.6,106.6,0,0,1,29,2.14c31.12,7.05,54.87,37.16,51.34,70-.63,5.9-1,11.82-2.15,17.67-2,10.27-7.14,18.51-15.78,24.48-4.66,3.22-9.37,6.37-14.57,9.9C189.89,129.8,194.84,124.94,202,122Z"/><path class="cls-8" d="M268.43,320.69c1,9,1.79,17,2.77,24.95.51,4.14-2.53,5.35-5.27,6.58-13,5.86-26.06,11.61-39.84,15.36a337.48,337.48,0,0,1-105.78,11.64,189.67,189.67,0,0,1-38-5.32c-1.6-.42-3.21-.84-4.78-1.38-7.95-2.74-9.27-6-5.78-13.8,1.26-2.79,3.14-1.32,4.77-.83,8.68,2.63,17.55,3.8,26.59,4.58,23.48,2,46.37-1.19,69.16-6.5,22.94-5.35,45.5-11.77,67-21.56a33.71,33.71,0,0,1,18.16-2.51c4.49.54,6.64-1.15,7.72-5.21A11,11,0,0,1,268.43,320.69Z"/><path class="cls-9" d="M122.05,287.41a76,76,0,0,0,5.88-12.27c3-8.55,1.89-16.46-3.68-23.5a23.48,23.48,0,0,1-4.8-12.31c-1.43-11.58-4-22.91-9.12-33.51a65.24,65.24,0,0,0-10.6-15.62c5.16-3.79,11-4.58,16.65-5.79a42,42,0,0,1,23.17,1.23c6.66,2.35,12.66,6,16.09,12.27,8.07,14.83,13.11,30.5,11.29,47.73A36.44,36.44,0,0,1,160,264.08c-9,12.05-21.28,19.37-35.59,23.47A8.56,8.56,0,0,1,122.05,287.41Z"/><path class="cls-10" d="M81.63,196.09C71.54,208,69,222.67,67.39,237.19c-2.28,20.38,7.88,46.61,33.17,54.48,5.3,1.65,5.29,1.82,3.32,6.6-2.38,5.75-5.31,11.13-10.11,15.29a18.35,18.35,0,0,1-4.68,3.18c-5.49,2.34-8.93,1.43-12-3.65-6.66-11.13-10.51-23.38-12.68-36-3.16-18.43-1.94-36.85,2.57-55a69.54,69.54,0,0,1,9.92-22.69C78,197.83,79.05,196.3,81.63,196.09Z"/><path class="cls-5" d="M128.32,878.37c-1.89-.84-2.75-1.19-3.58-1.59-4.62-2.2-5.54-1.42-3.76-8.47a466.5,466.5,0,0,0,12.93-85.65c.35-5.7-.45-11.34-1-18,5.66,5.2,11.14,4.76,17.15,1.26-5,18.79-10.79,36.78-14.12,55.39S128.87,858.57,128.32,878.37Z"/><path class="cls-11" d="M75.18,245.62l-3.86,3.5c-.84-18.22,1.59-34.53,12.88-48.6,2.06-2.57,3.75-3,6.24-.35a47,47,0,0,1,7.86,11.74c3.84,8,5.75,16.41,7.27,25.68H96.1c-2,0-2.64-1.76-3.68-2.94-3-3.43-6.8-4.33-10.87-2.68-3.87,1.58-5.48,4.93-5.5,9.08C76,242.61,76.85,244.37,75.18,245.62Z"/><path class="cls-12" d="M42.1,253.48c1,9.19,1.73,17.15,2.7,25.07.41,3.29,1.26,6.53,2,9.79a9.64,9.64,0,0,1-.28,6.27,60.8,60.8,0,0,0-5,29.37c-4.35-3.52-8.73-16.31-10.08-29.1C29.82,280.27,31.36,266.4,42.1,253.48Z"/><path class="cls-13" d="M208.12,824.75c-4.61,1.49-9.55,1.66-15.09,4.7,5.66-7.43,4.11-14.1,2.75-20.75-1-21.41-5.29-42.22-11.78-63.39,5.83,1.2,6.26-4.6,9.62-6.93,1.2,2.7.62,5,.59,7.32a360.92,360.92,0,0,0,2.76,49,78.23,78.23,0,0,0,9.47,28.81C206.76,824,207.55,824.33,208.12,824.75Z"/><path class="cls-14" d="M75.18,245.62c-.1-.45-.18-.91-.28-1.36-1.67-7.1.58-12.4,6.15-14.43s10.86.29,14.44,6.51c.23.4.41.83.61,1.25.16,3.64-.37,7-3.08,9.81A11.46,11.46,0,0,1,75.18,245.62Z"/><path class="cls-15" d="M73.22,197.13A96.74,96.74,0,0,0,61.37,228.9,2.28,2.28,0,0,1,59,231.06c-2.15-.06-1.8-1.81-1.64-3.14.84-7.07,1.48-14.19,2.72-21.19C61.55,198.61,63.53,197.27,73.22,197.13Z"/><path class="cls-16" d="M60.11,236.77c-.45,13.68-1,27.13.41,40.54-3.52-4-6-26-4.58-35.64C56.23,239.64,56.26,237.3,60.11,236.77Z"/><path class="cls-17" d="M85.31,888.78c.93-2.22,2.72-2.86,4.52-3.41,6.76-2.1,13.52-4.22,20.32-6.19,4.19-1.21,8.26-1.3,12.78,3.44C109.23,882.45,97,883.78,85.31,888.78Z"/><path class="cls-18" d="M67.52,303.2c-4.45-6.51-7.58-13.44-6.9-21.6C64,288.45,66,295.77,67.52,303.2Z"/><path class="cls-6" d="M108.3,180.85a2.85,2.85,0,0,1-2.32,1.21c-.64.05-1.36.29-2-.81l4.42-.33Z"/><path class="cls-1" d="M104,343.63l3.52.28c-1.6,1.39-2.61,1-3.44-.38Z"/></g></g></svg>