<svg xmlns="http://www.w3.org/2000/svg" viewBox="0 0 419.51 900.33"><defs><style>.cls-1{fill:#010000;}.cls-2{fill:#768b8b;}.cls-3{fill:#423e3e;}.cls-4{fill:#879a9a;}.cls-5{fill:#7e560c;}.cls-6{fill:#fff;}.cls-7{fill:#fee200;}.cls-8{fill:#ec0000;}.cls-9{fill:#eb0000;}.cls-10{fill:#ea0000;}.cls-11{fill:#f9f9f9;}.cls-12{fill:#fefefd;}.cls-13{fill:#f5f5f5;}.cls-14{fill:#fefdfb;}.cls-15{fill:#e70000;}.cls-16{fill:#9b9139;}.cls-17{fill:#9d923a;}.cls-18{fill:#f8f9f9;}.cls-19{fill:#75500b;}.cls-20{fill:#e4e4e4;}.cls-21{fill:#67470a;}.cls-22{fill:#444040;}.cls-23{fill:#7d8787;}.cls-24{fill:#8c9b9b;}.cls-25{fill:#040302;}.cls-26{fill:#b6aa43;}.cls-27{fill:#9a9039;}.cls-28{fill:#fdfdfb;}</style></defs><title>owl 3</title><g id="Layer_2" data-name="Layer 2"><g id="Layer_3" data-name="Layer 3"><path class="cls-1" d="M317.5,873.08c12.64,4.74,20.76,13.26,23.25,27.25-3.05-.63-3.24-2.85-4.12-4.39-5.4-9.54-13-16.19-23.78-19.05A66.4,66.4,0,0,1,296.42,870c3.65,14.65,3.28,18.32-2.25,24.23-1.32-.87-.67-2-.35-3,1.68-5.31.64-10.39-1.5-15.27s-3.93-10.15-7.14-14.65c-1.4-2-1.6-4.42-2-6.78A189.42,189.42,0,0,0,258,785.28c-4.39-7.24-5.68-15.57-9.71-22.88-3.2-5.81-5.58-12.07-8.73-17.92a123.6,123.6,0,0,1-13.49-41.81c-.32-2.29,0-5-3.72-4.76-15.51.84-28.53-6-41.29-13.57-.6-.36-1.25-.6-1.81-.87-1.93.87-1.16,2.5-1.19,3.78a121.84,121.84,0,0,1-13.38,54.16c-5.85,11.39-11.83,22.72-15.55,35.08a33.27,33.27,0,0,1-3.53,7c-12.67,21.5-21.5,44.41-25.42,69.13A28.62,28.62,0,0,1,116.38,863C110,873.77,109,878.81,109,893.15c-5.29-4.85-5.73-8.53-2.5-23.65-7.4,4.39-15.23,6-22.52,9.08-7.52,3.17-12.76,8.91-16.9,15.8-1.16,1.94-1.83,4.29-4.07,5.92.14-12.72,9.67-23.53,24.75-28.59,2.08-2.41,5.73-1.44,8-3.73.72-.38-.81-1-.13-.32.23.22.08.36-.3.63-2.81,2-6.11,1.57-9.25,1.91l-3.9.41c-1.46.86-3.24.18-4.72,1-8.85,1.71-11.22,2.72-17.65,7.58-2.74-2.62-.74-4.75.87-6.59,3.27-3.74,7.8-5.39,12.48-6.38,7.9-1.68,15.88-3,23.8-4.59,3.72-.74,7.39-1.76,11.1-2.55,2.72-.58,4-1.84,3.7-4.9-1.93-21.34,4-40.91,13.57-59.66,2.92-5.7,5.34-11.66,8.11-17.44,3.06-6.39,2.89-13.06,1.75-19.76A236.32,236.32,0,0,0,121.94,710c-8.31-21-15.31-42.46-21.72-64.11-.33-1.12-.82-2.2-1.57-4.2l-2.56,6C90.5,660.79,84.87,673.89,78.4,686.6c-8.67,17-11.58,35-9.42,54,.8,7,3.68,13.17,6.72,19.48-4,2.74-7.19,1.32-10-1.78a44.73,44.73,0,0,1-4.26-5.7c-14.62-22.71-23.58-47.46-27.9-74.15a414.54,414.54,0,0,1-.19-132.09c4.51-28.52,13.11-56,22.23-83.25,6.33-18.94,14.57-37.16,21.33-55.94a289.65,289.65,0,0,0,16.38-80.77c.49-8,.47-6.62-6.18-8.49a42,42,0,0,1-21.71-14.23C47.81,281.82,46.35,253.22,61.82,230,68,220.71,77,214.4,86.24,208.49c1.93-1.23,4-2.31,7.35-4.28-13-1.3-24.47-1.46-35.91.42-15,2.46-29.53,7-43.72,12.43a31.84,31.84,0,0,0-4.73,2.76c-1.58.34-2.06-.38-1.76-1.84,12.81-9.14,27.68-13.1,42.6-16.89,19.62-5,39.4-6.16,59.34-1.92a4.92,4.92,0,0,0,2.88-.26c-27.19-12.23-54.72-22.6-85.61-15.75,4.86-4.51,11.11-5,17-6.07a64.35,64.35,0,0,1,24.8.61c16.5,3.53,33.08,6.73,48.57,13.74,2.63,1.19,3.69.44,5.08-1.71,6.75-10.42,6.78-10.37-.85-20.14A255.88,255.88,0,0,0,93.7,139.77c-3.12-2.9-6.78-5-11.62-8.38,5.8-.71,9.11,1.23,12.35,3.29,11.19,7.09,20.13,16.61,28.56,26.66,2.73,3.26,5.32,6.64,7.91,9.88,1.83-.91,2.07-2.36,2.52-3.7,2.7-7.89,4-16.12,5.89-24.2.62-2.6.38-4.38-2.32-5.86-19.45-10.65-26.32-28.27-27.14-49.27a91,91,0,0,1,6.44-37.67c11.45-28.68,33.17-44.29,63.09-49.3a82.85,82.85,0,0,1,24.16-.6C222,3,236.06,12.08,245.29,28.2c1.89,3.3,3.24,3.68,6.47,2.14,20.47-9.75,42.06-13.1,64.56-10.69,46.62,5,79.26,29.43,96.74,72.52,15.08,37.2,3.09,73.56-29.67,96.85a95.29,95.29,0,0,1-24,12.56c1.63,2.66,4.58,2.52,6.91,3.38,10.28,3.77,20.45,7.71,29.4,14.22,2.85,2.06,5.54,4.22,7.45,7.4-2.91,1.84-4.45-.31-6.18-1.14-15.46-7.37-31-14.48-47.92-17.95-13.76-2.82-27.71-3-41.83-2.13,9.48,3.39,17.6,8.76,25.3,14.87,19.17,15.23,25.84,43.76,15.09,65.71-7.17,14.65-18,25.63-33.59,31.2-3.84,1.38-5.08,3.25-4.88,7.19.91,17.38,3.82,34.44,7.4,51.43C320.42,394,327,411.29,334,428.49,348.3,464,360.71,500.2,367.86,537.93A405.74,405.74,0,0,1,369.75,677c-4.24,27.2-13,52.49-27.83,75.66a47,47,0,0,1-3.64,5.27c-3.38,4-4.47,4.25-10.54,3.39,0-.48-.17-1,0-1.4,10.81-21.6,8.76-43.38.2-64.88-5.08-12.78-11.42-25.07-17.12-37.61-2.13-4.7-4-9.49-6.42-15.11-3.82,11.8-7.39,22.68-10.87,33.58C290,687,286.17,698,281.83,708.8a254.62,254.62,0,0,0-13.95,48.55c-1.29,7-1.42,13.94,1.82,20.61s6.05,13.43,9.37,20c9,17.74,13.92,36.36,12.46,56.35-.24,3.3.77,4.73,3.81,5.53,8.06,2.12,16.26,3.44,24.44,4.91,5.38,1,10.78,1.8,15.88,3.9a16.79,16.79,0,0,1,7.88,5.87c1.11,1.61,1.9,3.3-.26,5.33-5.56-5.22-12.63-7-19.9-8.17-5.9-.61-11.9-.45-17.54-2.89C309.92,869.8,314,870.45,317.5,873.08Z"/><path class="cls-2" d="M317.5,873.08a30.53,30.53,0,0,1-14.09-5.44c7.52,1.43,13.89,1.91,20,4C321.56,872.73,319,870.64,317.5,873.08Z"/><path class="cls-3" d="M7.47,218l1.76,1.84L0,226.57C1.05,222.18,4.16,220,7.47,218Z"/><path class="cls-4" d="M86.1,870.2c3.43-2.07,7.31-1.73,11-2.34a14.34,14.34,0,0,1-9.36,3.85Z"/><path class="cls-4" d="M77.48,871.58c1.35-1.39,3-1.43,4.72-1A4.47,4.47,0,0,1,77.48,871.58Z"/><path class="cls-5" d="M83,448.05a90.06,90.06,0,0,0-3.77,19.18c-1.68,17.51-2.44,35-.52,52.6.8,7.29.89,14.67,1.47,22,1.44,18.25,4.7,36.19,8.14,54.11,1.88,9.78,4.08,19.52,6.8,29.1A24.59,24.59,0,0,1,93.67,643c-6,12.92-11.94,25.9-18.08,38.77-5.14,10.76-9.46,21.68-11,33.67-2,14.91-1.76,29.32,7.17,43.27-3.12-.35-4.24-2.17-5.26-3.8C53,733.29,43.65,710,39.4,684.9c-4.41-26-6.82-52.25-5.83-78.68A432.52,432.52,0,0,1,50.11,501.07c8-27.64,17.74-54.65,28.26-81.4C84.56,403.92,88.66,387.6,91.9,371c.17-.87,0-1.93,1.56-2.56l15.75,10.75C105.39,385,101.65,390.4,98.13,396A7.47,7.47,0,0,1,91,399.73a1.41,1.41,0,0,0-1.53,1.15c-.24,1.18.63,1.77,1.45,2.14a8.29,8.29,0,0,0,5.6.22,44.63,44.63,0,0,0,6.09-2,50.59,50.59,0,0,1,15.73-4c5.16-.42,10.41-1.26,14.93-4.24a4.42,4.42,0,0,1,4.74-.29c7.63,4.12,15.79,2.42,23.81,2.23,2.09-.05,4-.79,5.84,1.25,5.45,6.17,13,8.72,20.59,10.62,14.62,3.65,28.82,8.13,41,18.2,1.27-2.71-.52-3.58-1.49-4.61a129.35,129.35,0,0,1-15.88-20.11c-2.3-3.67-2-4.19,1.85-5.27,33.81-9.42,63.76-25.69,89.12-50.14.66-.63,1.42-1.17,2.51-2.06,3,4.68,2.39,9.88,3.1,14.55A337.67,337.67,0,0,0,329.7,434a611.51,611.51,0,0,1,32.77,107.5c2.55,12.53,3.68,25.32,5.2,38,1.47,12.31,1.43,24.66,2,37a209,209,0,0,1-1.13,29.88c-1.42,14.13-2.55,28.34-5.43,42.29-4.78,23.22-12.85,45.19-25.58,65.3-1.1,1.73-1.85,3.93-4.65,4.76-.51-2.11.87-3.5,1.63-5,3.06-5.79,4.19-12,4.64-18.48,1.32-19.06-3.24-36.71-11.83-53.57-6.91-13.55-13.44-27.28-19.26-41.35a18.29,18.29,0,0,1-.69-12.43,523.73,523.73,0,0,0,14-71.12c2.83-21.66,3.66-43.5,3.53-65.39a224.08,224.08,0,0,0-7.56-55.54,13.39,13.39,0,0,0-2.33-5.53c-1.44,7.35,1.56,13.74,2.77,20.26a243,243,0,0,1,2.9,65.18c-1,11.58-1.67,23.17-2.95,34.73-2.76,24.8-7.9,49.1-13.75,73.33-7.72,31.94-18.66,62.79-30,93.55a165.21,165.21,0,0,0-9.47,41.51c-.26,2.79-.4,5.93-3.92,6.86-2.93.77-6.87-1.67-8.47-4.93-2.81-5.74-5.51-11.54-8.56-17.16-7-12.88-11.12-26.64-13.84-41-.74-3.9.39-5,3.76-5.88,1.88-.47,4.42.09,6-3.13-13.18-.65-26.18.76-38.66-3.74-12.24-4.41-23-11.27-34.08-19.15a5.12,5.12,0,0,0,3,4.77c4.73,2.56,5.44,6.59,5.22,11.45a128.42,128.42,0,0,1-10.53,45.52c-4.23,9.79-9.27,19.22-14,28.79-1.5,3-4.65,4.16-8.43,3.5-2.52-.44-2.78-2.19-3-4.16-1.95-21.75-9.1-42-16.67-62.34-14-37.42-25-75.69-32-115.08-3.42-19.15-5.9-38.36-7.4-57.79a499.15,499.15,0,0,1-.76-54.14C82.4,464,83.46,456.72,83,448.05Z"/><path class="cls-6" d="M263,88.2c-2.23,4.78-3.32,9.9-4.34,15-2.56,12.81-10,22.42-21.33,27.83-28.75,13.73-58.48,17.3-89.11,5.92-18.56-6.89-30.11-19.64-32.83-39.4-3.67-26.68,2.33-51,21.82-70.13,20.08-19.75,45-25.53,72.41-20.27,8,1.54,15.07,5.68,21.07,11.39,4.81,4.57,8.67,9.91,13.12,15.54-17.1,9.88-32,21.42-40.06,41.48,4.09-2.49,5.32-5.42,7.1-7.84A86,86,0,0,1,235.17,45c16.11-9.93,32.92-18.2,52-20.26,46.43-5,91.29,11.18,116.22,58.7,13.28,25.32,14.81,51.61-1.13,76.7C389.91,179.57,372,192,349.54,197.56a22.87,22.87,0,0,1-9.2.54,125.21,125.21,0,0,0-23.45-1.44,15.24,15.24,0,0,1-8.21-2.08c16.11-8.35,33.53-9.94,51.17-13-1.65-2.54-3.66-2-5.3-2.14-16.91-1.14-33.2,2.42-48.92,7.93-7.45,2.61-12.53,1.08-18-3.56-10.64-8.95-10.73-8.79-1.74-19.61a166.68,166.68,0,0,1,22.84-22.47c1.61-1.31,3.5-2.38,4.43-4.57-7.69-.1-15.6,5.88-39.76,29.94-5.47-8.06-8.4-17-10.24-26.23-2.69-13.49-1.78-27,.55-40.4.37-2.11.66-4.22,1-6.33,1.15-4.67-.2-9.79,2.62-14.15C265.46,82.54,266.13,86.35,263,88.2Z"/><path class="cls-5" d="M292.87,320.9c2.14,0,4.28-.07,6.41,0,1.76.08,4.1-1.07,4.94,1.42.76,2.28.8,4.72-1.26,6.6-2.28,2.07-4.5,4.23-6.91,6.15-11.29,9-24.33,14.8-37.56,20.15-13,5.25-25.79,11.15-39.71,13.46a113.83,113.83,0,0,1-38.23.13c-6.08-1.06-12-2.66-18-3.95s-11.7-1.67-17.62-.21a13,13,0,0,1-5.65.16,109.42,109.42,0,0,1-39.44-17.57c-2.91-2-3.93-4.27-2.93-7.86,1.41-5.08.86-10.4.87-15.62,0-3,1.07-4.16,4.14-4.34,20.37-1.18,38.34-8.85,54.05-21.49,10.87-8.75,18.47-19.8,18.78-34.52a11.13,11.13,0,0,1,3.06-7.75c5.57-5.87,12.12-9.81,20.43-10.42,10.76-.78,20.84.91,29.73,7.46,2.44,1.8,3.58,3.73,3.08,7.21-3.27,22.68,6.64,39.15,25.29,50.9C265.09,316.36,278.35,321.67,292.87,320.9Z"/><path class="cls-6" d="M143.57,140.79c19.78,7.49,39.21,9.69,59,5.59,19.36-4,38-9.82,52.53-25.89.53,7,.66,12.92,1.46,18.7a80.88,80.88,0,0,0,10.77,30.73c1.42,2.37,1.59,4.11-.11,6.38-3,4-4.8,9.71-8.69,11.9s-9.39-1.54-14.25-2.26c-31.94-4.7-63.81-6.55-95.54,1.63-7,1.81-5.9,2-9.53-3.78-1.14-1.8-2.24-3.65-3.46-5.4-1-1.49-1.43-2.93-.5-4.62C140.79,163.78,142.32,152.72,143.57,140.79Z"/><path class="cls-5" d="M144.51,193.55c24.21-9.51,87.38-9.31,111.37.19-1.89,4.06-3.89,8-5.63,12.15-4.47,10.46-8.85,21-13.23,31.47-1.09,2.62-1.91,4.6-5.6,2.62-20.39-11-40.34-11.14-59.28,3.27-2.31-.6-2-2.68-2.48-4.08-1.74-5-3.87-10-7.55-13.62-6.06-5.88-8.94-13.26-12.11-20.66C148.43,201.21,146.52,197.67,144.51,193.55Z"/><path class="cls-5" d="M246.42,282.35c1.09-.69,1.61-.08,2.16.25,8.77,5.23,17.76,4.58,26.63.6A211.76,211.76,0,0,0,301,269.53c7.2-4.49,12.43-11,17.78-17.34,1-1.24,1.6-3,4-3.5,5.23,13.23,5.26,26.34,1.35,40.09-3.54,12.45-11.82,17.83-23.64,19.08-19.93,2.11-37.13-3.44-50.4-19.11C248.52,286.83,246.87,284.87,246.42,282.35Z"/><path class="cls-5" d="M80.89,247.65c2.4,2.93,5.12,5.83,7.35,9.06,3.6,5.21,8.42,9,13.65,12.28,8.84,5.62,18.3,10.08,27.83,14.32,6.67,3,13.81,2.85,21,.62.08,2.53-1.7,3.51-3,4.52C132.63,300,115.94,307,96.54,306.77c-6.45-.09-10.41-2.72-13.4-8.51-8-15.61-9.35-31.59-4.13-48.23A2.93,2.93,0,0,1,80.89,247.65Z"/><path class="cls-7" d="M104.39,255.75c-2.18,1.69-2,4.72-3.71,6.68-9.87-5.69-14.12-15.7-11.1-26.5a35.53,35.53,0,0,1,9.81-16.29,18.09,18.09,0,0,1,14.2-5.41c11.89.73,22.9,3.84,32.12,11.87,5.49,4.79,9.72,10.42,11.8,17.46,1.35,4.55,2.6,9.14,3.62,13.77,1.45,6.58,1,12.73-4.76,17.35-.52-.23-1.21-.37-1.23-.57-1.25-12.07-8.82-19-19.2-23.58a39.25,39.25,0,0,0-9.44-3.09,3.18,3.18,0,0,1-1.78-2c-3.27-7.74-5.53-9.16-11.79-7.38-7.17,2-9.46,5.93-8.11,13.84C105.05,253.2,105.77,254.59,104.39,255.75Z"/><path class="cls-7" d="M275.77,248.15a45,45,0,0,0-15,6.28c-6.61,4.29-11.66,9.75-12.58,18.07a3.89,3.89,0,0,1-1.49,3.11,7.94,7.94,0,0,1-3.66-5.79c-1.48-15.4,2.05-29.25,12.89-40.7a28.87,28.87,0,0,1,14-8.06c7.1-1.86,14-4.15,21.52-4.35,7.88-.2,12.91,3.1,17.1,9.31,9.55,14.14,6.41,29.47-6.38,37.53-1.66-3.34-2.75-7-5.38-9.76a5,5,0,0,1-.27-3.47c.92-4.35-.87-7.56-4.59-9.44-4.21-2.13-7.77-.33-10.92,2.67C279.32,245.15,278.39,247.62,275.77,248.15Z"/><path class="cls-8" d="M190.26,372.9a97.83,97.83,0,0,0,36.21-2.84A285.07,285.07,0,0,0,287,345.5a102.23,102.23,0,0,0,15.67-11.09c.92-.76,1.8-2.72,3.36-1,1.39,1.52.83,2.9-.68,4.24-4.09,3.61-8,7.41-12.11,11a201.26,201.26,0,0,1-59.12,36.46c-6.82,2.73-13.76,5.19-20.58,8-3.66,1.48-6.16,1.06-8.14-2.75C202,383.76,196.75,378.61,190.26,372.9Z"/><path class="cls-8" d="M154.6,368.13,171,370.35c2.27.3,3.4,1.36,2.76,3.83-.7,2.74-1.09,5.56-1.89,8.27-1.94,6.52-5.86,10.29-13.22,10.48a50.9,50.9,0,0,1-21.37-4c-3.1-1.29-4.51-3.35-2.9-6.7.21-.42.26-.91.43-1.35C139.43,369.07,139.56,368.46,154.6,368.13Z"/><path class="cls-9" d="M168.06,393.35c1.58-1.27,3.13-1.92,3.71-3.07,2.88-5.67,7.1-6.95,12.67-4.1.76-1.57-.45-1.9-1-2.25-6.39-3.78-6.41-3.76-5.1-11.8,9,2.32,15.59,7.85,20.92,15,3.82,5.14,7.14,10.66,10.84,15.89,2.31,3.26,4.92,6.32,7.56,9.68C209.89,412,174,398.25,168.06,393.35Z"/><path class="cls-10" d="M95.39,348.84c6,3.69,11.38,7,16.76,10.39s11.74,4.59,18.19,7.69c-6,2.88-11.54,4.89-16,8.72-1.59,1.37-3,.8-4.5-.18a110.23,110.23,0,0,1-13.92-10.92c-2.14-2-2.45-4.4-2.33-7.1A19.62,19.62,0,0,1,95.39,348.84Z"/><path class="cls-11" d="M321.81,227.93c20.39,15.15,24.4,41.77,9.2,61.24a33.79,33.79,0,0,1-3,2.68c7.56-23.14,2.66-43.15-8-62.27C319.74,228.08,320.38,227.58,321.81,227.93Z"/><path class="cls-12" d="M104.39,255.75a10,10,0,0,0-.57-2c-5.2-10,2.84-18.5,13.62-18.29,5.68.11,8.43,4,9.06,12a33.81,33.81,0,0,1-2.22,4.37C119,259.37,113.29,260.47,104.39,255.75Z"/><path class="cls-13" d="M82.12,229.73c-4.61,9.12-8.69,18.44-10.25,28.64-2.15,14.1-1.35,19.9,5,38.08C57.78,280.28,59.52,247,80.41,228.17,81.77,227.82,82.36,228.32,82.12,229.73Z"/><path class="cls-14" d="M275.77,248.15a34.65,34.65,0,0,1,2.21-4.39c3.66-5.28,10.43-7.16,15.47-4.43,5.34,2.89,6.34,7.27,3.32,14.46-.95.7-1.93,1.37-2.85,2.1C287.06,261.34,275.82,258.38,275.77,248.15Z"/><path class="cls-15" d="M134.15,370.91c-2.32,5.36-2.32,5.36-11.07,10.58.69,1.44,1.92.66,2.88.63a27.71,27.71,0,0,0,3.46-.47c1.82,1.8.63,4.22,1.64,6.11,1.49,2.81-.16,4.17-2.64,4.29-8.32.39-16.3,2.62-24.56,4.58C108.58,383.64,117,376.44,134.15,370.91Z"/><path class="cls-16" d="M147,770.19c-6.78,13.51-14.3,26.42-19.32,40.5-4.88,13.68-7.29,28-11.09,42-2.38-5.32-.73-10.31.09-15.2a128.75,128.75,0,0,1,12.05-36.41,134.27,134.27,0,0,0,10.47-27.2C140.4,769.06,140.39,769.06,147,770.19Z"/><path class="cls-17" d="M256.9,770.78c5.54-.69,5.48-.67,6.93,4.16a147,147,0,0,0,9.49,24.46,142.43,142.43,0,0,1,13.61,41,61.15,61.15,0,0,1,.77,13,3.66,3.66,0,0,1-3-3.48c-3.21-26.54-12.77-50.85-25.9-73.93C257.86,774.41,256.67,772.83,256.9,770.78Z"/><path class="cls-18" d="M273.9,180c5,4.44,9.33,9.12,14.77,12.72-7.79,8-14.55,1.93-21.73-.83C268.51,187.34,271.24,183.86,273.9,180Z"/><path class="cls-19" d="M274.58,200.46c-5.6,3.63-10.2,7.25-16,9-1.45-2.41.58-3.68,1.28-5.19C264.11,195,264.9,194.78,274.58,200.46Z"/><path class="cls-20" d="M135.81,190.69c-2.93,2.51-6.28,3.06-9.19,4.46a2.36,2.36,0,0,1-2.66-.44c-.85-.83-.39-1.7.14-2.5,1.9-2.92,3.82-5.84,6.28-9.6C132.46,185.72,134.07,188.1,135.81,190.69Z"/><path class="cls-21" d="M143.17,206.41l-11.24-8c5.62-3.81,5.64-3.82,8.23.5,1.32,2.18,2.56,4.42,3.83,6.63Z"/><path class="cls-22" d="M263,88.2c.46-4.56,2.92-8.21,6.23-11.7q-2.3,8.82-4.58,17.65C263.51,92.33,265.67,89.59,263,88.2Z"/><path class="cls-23" d="M82.12,229.73a2.26,2.26,0,0,0-1.71-1.56c.71-1.61,2-2.49,4.13-3A4.76,4.76,0,0,1,82.12,229.73Z"/><path class="cls-24" d="M321.81,227.93,320,229.58c-1.44-.86-1.78-2.41-2.89-4.14A4.62,4.62,0,0,1,321.81,227.93Z"/><path class="cls-25" d="M205.46,263.61c8.82-.71,14.67,3.11,18.47,11.26,4.29,9.19,3.48,18.49,1.6,27.8-3.06,15.2-8.15,29.68-16.65,42.82a65.69,65.69,0,0,0-7,13.19c-.5,1.39-1.54,2.57-3.24,1.82-1.3-.58-1.23-2-1-3.11.68-2.77.81-5.68,1.53-8.35,1.16-4.28-.3-7.11-3-10.21a73.19,73.19,0,0,1-16.25-32,5.63,5.63,0,0,1-.14-.69,190.77,190.77,0,0,1-.65-28.17c.32-5.11,5-8,9.16-10.13C193.63,265.17,199.24,263.06,205.46,263.61Z"/><path class="cls-26" d="M204.56,342.11c1.75-15.86-6.11-28.35-15.08-40.49a36.28,36.28,0,0,1-6.78-18.48c-.34-3.61.74-6.42,4.17-8.24,8.51-4.54,17.14-8.08,27.12-5.35a7.22,7.22,0,0,1,5.66,5.51,51.92,51.92,0,0,1,1.75,23.21,123.65,123.65,0,0,1-15.23,43.37C205.88,342.14,205.65,342.43,204.56,342.11Z"/><path class="cls-27" d="M198.51,332.39c-6.66-9.36-12.53-19.11-15-30.43C189.85,311.44,197.28,320.41,198.51,332.39Z"/><path class="cls-28" d="M216.06,290.53c.05,2.2-.17,4.49-2.18,5.7s-3.67-.45-5.06-1.6c-3.46-2.86-6.75-5.71-11.09-7.48s-3.88-5.61.25-8C205.65,274.72,215.89,281.17,216.06,290.53Z"/></g></g></svg>