<svg xmlns="http://www.w3.org/2000/svg" viewBox="0 0 891.44 1212.15"><defs><style>.cls-1{fill:#010101;}.cls-2{fill:#464343;}.cls-3{fill:#7e8b8b;}.cls-4{fill:#817932;}.cls-5{fill:#7e560c;}.cls-6{fill:#1f1f1f;}.cls-7{fill:#fff;}.cls-8{fill:#414141;}.cls-9{fill:#fee100;}.cls-10{fill:#ec0000;}.cls-11{fill:#050404;}.cls-12{fill:#eb0000;}.cls-13{fill:#e90000;}.cls-14{fill:#f9f9f9;}.cls-15{fill:#fefdfb;}.cls-16{fill:#f4f5f5;}.cls-17{fill:#e60000;}.cls-18{fill:#fdfcfb;}.cls-19{fill:#958b37;}.cls-20{fill:#f3f5f5;}.cls-21{fill:#2e2626;}.cls-22{fill:#734f0b;}.cls-23{fill:#e5e9e9;}.cls-24{fill:#62440a;}.cls-25{fill:#5f5c5c;}.cls-26{fill:#9ca4a4;}.cls-27{fill:#020201;}.cls-28{fill:#020101;}.cls-29{fill:#040303;}.cls-30{fill:#c0c1c1;}.cls-31{fill:#050402;}.cls-32{fill:#030303;}.cls-33{fill:#090707;}.cls-34{fill:#313232;}.cls-35{fill:#c99a0b;}.cls-36{fill:#e8d599;}.cls-37{fill:#b0aca2;}.cls-38{fill:#bcb6aa;}.cls-39{fill:#beb7a9;}.cls-40{fill:#655436;}.cls-41{fill:#c6990c;}.cls-42{fill:#604e2f;}.cls-43{fill:#ced2d2;}.cls-44{fill:#c5c9c9;}.cls-45{fill:#b6a943;}.cls-46{fill:#8e8435;}.cls-47{fill:#323232;}.cls-48{fill:#313131;}.cls-49{fill:#303030;}.cls-50{fill:#100c06;}.cls-51{fill:#3b3409;}.cls-52{fill:#bdb6aa;}.cls-53{fill:#cab241;}.cls-54{fill:#e9dfaf;}.cls-55{fill:#645438;}.cls-56{fill:#eccba6;}.cls-57{fill:#211904;}.cls-58{fill:#eba83a;}.cls-59{fill:#675538;}.cls-60{fill:#291e08;}.cls-61{fill:#fcfcf8;}.cls-62{fill:#dec744;}</style></defs><title>owl_oven_on</title><g id="Layer_2" data-name="Layer 2"><g id="Layer_2-2" data-name="Layer 2"><path class="cls-1" d="M102.14,1123.4c-9.16,1.54-18.16,3.46-25.45,10.92-2.92-6.27.84-9.07,4-11.55,5.37-4.19,11.92-5.79,18.49-7,10.14-1.93,20.3-3.72,30.44-5.64,2.61-.49,5.14-1.41,7.76-1.81,5.24-.81,7.12-3.36,6.46-8.87-1.23-10.32,0-20.59,1.77-30.81,2.28-12.92,6.75-25,12.38-36.79,4.46-9.31,8.64-18.75,13.19-28s4.65-19,2.78-28.88a316.72,316.72,0,0,0-16.61-58.51c-10.71-26.94-19.54-54.51-28-82.21-.54-1.79-1.16-3.56-2-6-3.29,3.51-3.69,7.67-5.33,11.19-7.17,15.39-14,31-21.36,46.22a123.29,123.29,0,0,0-12.79,56.92c.22,13.61,3,26.33,9.94,38.07-8.9,3.48-13.35-1.71-17-7.47a279.29,279.29,0,0,1-20.58-37.63c-11.4-25.92-16.35-53.34-19.92-81.17-10-78-2-154.08,21.94-228.82,9.85-30.79,21.21-61,33.3-90.93,13.7-34,20.26-69.57,24.58-105.71.24-2,.22-4,.28-6,.26-10.33.19-10.14-9.39-13.37-10.6-3.57-19.84-9.31-26.85-18.27-27.55-35.2-24.15-83.71,12.15-112,7-5.48,14.55-10.17,24.14-15.89-37.23-4.7-69.92,3.82-101.92,16.59-2.06.93-3.86,1.29-4-1.88,14.37-9.61,30.85-13.83,47.24-18.11,27.12-7.09,54.5-9.07,83-2.2-8.86-7-34-15.94-52.53-20.28-18.77-4.39-37.45-5.31-56.18-1.12-1.16-2.37.51-2.48,1.41-3a14.91,14.91,0,0,1,2.74-1.21c15.49-4.93,31.19-6.62,47.28-3.19,21.49,4.59,43.12,8.67,63.3,17.84,3,1.38,4.66.81,6.55-1.92,9-13,9-13.31-.67-25.76a324.28,324.28,0,0,0-35.13-38.23c-4.1-3.83-8.81-6.79-14.9-10.94,6.92-1.54,10.87,1.12,14.87,3.59,14.65,9.09,26.16,21.56,37.13,34.59,3.42,4.06,6.67,8.25,10.27,12.72,2.61-1.9,3.15-4.44,3.75-6.86,2.35-9.36,4.6-18.75,6.95-28.11,1-4,.47-6.73-3.65-9-22.51-12.51-32.19-32.84-33.88-57.6-2.36-34.61,6.27-66,31.88-90.19C201.93,2.71,236-5,273.25,3c21.19,4.55,35.67,18.52,46.06,38.29,4.24-1.78,8.39-3.57,12.59-5.25,43.92-17.58,87.69-15.78,129.85,4.4C499,58.25,523.67,88.53,536,127.86c14,44.76-2.41,88.38-42.15,116.42-9.29,6.56-19.35,11.63-30.81,16.24,10.85,4.41,20.93,8.15,30.7,12.58,9.93,4.51,19.51,9.75,26.36,19.18-4.16,2.12-6.39-.65-8.89-1.86-20.76-9.95-41.69-19.7-64.58-23.39-16.5-2.66-33.27-3.81-50.24-2.31,12,4.66,22.23,11.69,32.4,19.09,19.27,14,35.74,54.15,20.17,84.08-9.76,18.75-23.08,33.54-43.19,40.79-6.19,2.23-7.34,5.5-6.94,11,2.58,36,8.68,71.41,21.27,105.38,13.31,35.89,28.51,71.09,39,108,1,3.53,2.12,7,3.15,10.53,4,13.66,1.64,11.59,15,12.38,41.93,2.49,83.94,3.7,125.88,1.43,31.55-1.72,63.25-4.47,93.49-14.45,16.55-5.46,31.73-2.86,46.47,3.91,28.11,12.91,55.86,26.6,83.67,40.15,12,5.86,22.77,13.73,33.29,22,18.72,14.68,28.26,34.09,30.45,57.4,2.48,26.42.25,52.58-4.93,78.53-6.64,33.31-13.58,66.56-20,99.91-3.12,16.34-6.32,32.7-6.78,49.45-.71,26.13,5.79,50.78,14.77,75,10.73,28.9,18.61,58.37,17.59,89.61-.32,9.72-1.5,19.23-4.65,28.48-1.38,4-3.82,6.28-7.78,8.21-16.94,8.24-34.9,9.74-53.37,10.48-55.33,2.22-110.6-.26-165.89-1-33-.43-65.9-2.79-98.92-2-23,.57-45.79,3.87-68.7,5.62-9,.69-18,.66-27,.85-18,.37-35.84,3.19-53.89,2.48a86.2,86.2,0,0,1-30.95-7c-9.17-3.94-14.42-11.11-15.27-20.6-1.75-19.57-2.25-39.19,1.49-58.68,1.18-6.13,3.21-12.36,0-18.54-1.69-2.11.07-4.93-1.45-7.08l-.63-4.71c-1.1-1.59-.35-3.64-1.27-5.27-3.91-16.06-8.21-32-14.92-47.15-4.72-10.67-9.34-21.42-15.85-31.12-5.69-8.48-6.8-18.71-11.63-27.51-4.15-7.58-7.16-15.78-11.27-23.38-9-16.6-14.53-34.24-17.61-52.81-1.46-8.83.33-8.13-8.85-8.1-15.58.05-29-6.39-42.41-13.36-3.17-1.65-5.74-4.57-10.16-4.89-.48,5.64-1,11.18-1.44,16.72a155.1,155.1,0,0,1-17.29,59c-7.27,13.84-14.39,27.77-19,42.83a41.89,41.89,0,0,1-4.37,9C171,1038,159.3,1068.6,154.47,1101.66c-1,6.94-5.42,12-8,18.1-6.88,16.14-7.11,16-5.89,31.63-7.3-5.57-8.07-12.78-2.84-30.38-9,5-18,7.66-26.92,10.8-10.49,3.69-18,11-23.86,20.34-1.7,2.72-2.5,6.16-7,9,3.18-18.34,13.2-29,28.46-35.58,3.45-3,7.75-3.82,10.14-4.28C114.65,1123.81,108.24,1122.33,102.14,1123.4Z"/><path class="cls-2" d="M14.58,278.05c.85,1.66,2.67,1.26,4,1.88L0,291.73A26.73,26.73,0,0,1,14.58,278.05Z"/><path class="cls-3" d="M102.14,1123.4c6.64-3.11,13.85-2.68,20.92-3.58-4.24,3.76-9.26,5.19-14.6,5.78C107.1,1122.72,104.07,1124.63,102.14,1123.4Z"/><path class="cls-4" d="M364.78,1100.11c2.77,1.9,2,4.51,1.45,7.09C364.3,1105.13,364.11,1102.71,364.78,1100.11Z"/><path class="cls-4" d="M362.88,1090.13c2.19,1.33,2.19,3.2,1.28,5.28A4.81,4.81,0,0,1,362.88,1090.13Z"/><path class="cls-5" d="M216.47,509.62c2.18,6,7.67,8,12.74,10.37a97.78,97.78,0,0,0,19,6.08c15.34,3.63,30.06,8.74,42.71,18.59a6.3,6.3,0,0,0,5.72,1.47c-4.89-5.88-9.35-11.31-13.87-16.69A102.85,102.85,0,0,1,270.4,511c47.2-12.83,88.29-35,123-68.69,4.2,5.86,3.56,12.23,4.33,17.93,5.07,37.58,16.44,73.26,30.83,108.16,10.28,25,18.11,50.78,25.68,76.66,2.34,8,2.14,8.06-5.44,10.09-16.06,4.3-17.91,5.48-30.49,20,1-42,2-82.72-13.56-121.52,1.26,7.43,2.21,14.92,3.82,22.27,6.92,31.54,6.18,63.3,4.76,95.34-.64,14.4-6.57,24.35-15.21,34.35-6.36,7.36-13.62,13.69-20.63,20.29-15.22,14.32-20.31,31.37-15.69,51.64,3.86,16.93,9.79,33.19,16,49.35,3.62,9.42,3.63,18.23.18,27.93-8.26,23.2-15.92,46.61-24.68,69.64a220,220,0,0,0-12.73,55.26c-.36,3.36-.14,7-4.64,7.61-4.22.53-8.08-.46-10.11-4.68-10.77-22.42-23.94-43.81-28.09-69-2.15-13-2.67-13,9-17-2.13-2.8-5.27-2.67-8.1-2.45-28.31,2.24-53.08-6.85-75.63-23.27a43.93,43.93,0,0,0-4.23-2.55c-.16-.09-.54.19-.82.3,8.25,11.58,8.58,11.62,6.48,28.45-2.32,18.56-6.82,36.59-15.32,53.45C204,960.6,199,970.71,194.31,981c-2.34,5.17-6.38,5.4-10.77,4.83s-4.61-4.4-4.9-7.65c-2.39-27.17-11.46-52.5-21-77.75a868.45,868.45,0,0,1-43.09-157.62c-4.45-25.55-6.75-51.35-8.62-77.23a425.83,425.83,0,0,1-1.11-43.87c.41-13.59,2-27.14,3-40.71.13-1.64,0-3.3,0-6.84-5.42,17.31-6.9,33.35-7.36,49.42-1.29,45,2.78,89.66,11.22,134,3.05,16,6.16,32,10.75,47.65,2.75,9.37,1.34,17.59-2.64,26-8.27,17.45-16.22,35.07-24.65,52.44-8.88,18.29-13.61,37.3-13.15,57.79.29,13,2.08,25.16,10.31,36.36-5.87-2.89-5.94-2.85-8.11-6.42a253.75,253.75,0,0,1-34.17-92c-4.77-29.64-7.79-59.43-7.19-89.37a548.84,548.84,0,0,1,21.3-142.64c10.6-36.5,23.41-72.17,37.36-107.47,8.22-20.82,13.08-42.54,17.69-65.14,6.39,4.12,12.43,8.05,18.5,11.92,2.47,1.58,2.8,3.19,1,5.71-4.22,6-8.39,12-12.14,18.31-2.67,4.45-7.53,4.6-12.42,6.6,4.53,4,8.85,2.82,12.85,2a46.34,46.34,0,0,0,9.35-3.45c5.22-2.37,10.55-4.06,16.36-3.82,1,0,2-.17,3-.14,7.54.24,13.78-6.33,20.74-5.38,6.75.93,13.24,3.67,20.41,3.71,6.56,0,13.07-2.64,19.64-.39Z"/><path class="cls-6" d="M518.45,723.75A382,382,0,0,0,574,719.86a14.74,14.74,0,0,1,2-.1c24.61,0,49.11-2.49,73.76-2.33,20.17.13,40.37-1.7,60.54-3.36,23.81-2,47-7.9,70.72-9.67,20-1.51,40.62-3.74,60.35,3.32,22.59,8.09,35.7,24.67,40.89,47.58,3.41,15,3.1,30.51,1.89,45.7-1.47,18.44-4.86,36.71-8.69,54.85-6.9,32.7-14.1,65.34-20.56,98.13-3.66,18.57-6,37.46-4.29,56.43a192.43,192.43,0,0,0,8.63,42.77c5.42,16.73,12,33,17,50,6.16,21.07,7.16,42.51,6.07,64.14-.55,10.88-5,20.13-15.58,24.81-6.39,2.82-13.59,2.64-20.4,3.44-31.16,3.68-62.48,2.14-93.74,2-11.18,0-22.36-2.14-33.54-3.3a31.62,31.62,0,0,0-4-.46c-19.3.55-38.42-2.91-57.77-2.15-17.64.69-35.34.56-53,0s-35.16,1.9-52.75,2.58a233.44,233.44,0,0,0-39.32,5,118,118,0,0,1-22.71,2.11c-18.29.25-36.5,1.7-54.76,2.36-17,.61-33.52-3.75-50.17-6.4-5.3-.84-9.18-4.16-10.46-10.54-2.9-14.59-2.29-29.24-.72-43.7.78-7.16,1.54-14.5,2.37-21.67,3.78-32.31,11.81-63.73,18.08-95.53,2.67-13.57,3.59-27.55,5-41.38,2.4-23.31,1-46.54,1.53-69.8.47-20.65-3.19-40.86-6.91-61.1-4.12-22.38-13.08-43.15-20.29-64.51-3.09-9.18-5.45-18.44-4.79-28.29,1-14.59,5.92-26.4,20.52-32.44a31.53,31.53,0,0,1,12.52-2.64c21.67.08,43.33,0,65,0,4.65-3.7,10.13-2.69,15.43-2.74,2.34,0,4.69,0,7,0C498.74,722.69,508.61,722.58,518.45,723.75Z"/><path class="cls-7" d="M280,179.5c-6.18,1.27-12.35,2.69-18.56,3.79a130.18,130.18,0,0,1-75.34-8.79c-19.71-8.43-32.52-23.06-36.38-44.42C143.29,94.43,150.8,62,176.48,35.92c24.92-25.33,56.5-32.79,91-27.37a54.07,54.07,0,0,1,31.94,17.37c5.1,5.58,9.83,11.5,15.43,18.09-22.41,12.14-40.6,27.45-50.38,50.81,3.47-.69,4.71-3.72,6.51-6.08,26.19-34.34,61.89-51.91,103.81-57,31.89-3.92,62.77,1.71,90.55,18.14,34.48,20.39,58.18,49.72,65.81,89.85,6.07,31.93-2.46,60.1-25.43,83.47-15,15.28-32.58,26.32-53.64,31.29-.33.07-.64.18-1,.26-6.49,1.46-46.58-1.36-52.72-4,20.64-10.2,42.65-13,66.08-16.29-3-3.17-5.28-2.78-7.29-2.91-22-1.4-43.17,3.21-63.69,10.36-8.81,3.07-15.12,1.28-21.86-4.18C357,225.83,356.9,226,368.6,211.9A216.45,216.45,0,0,1,397,183.78c2.51-2.09,5.6-3.65,6.94-7.08-10.88.7-23.38,10.16-50.58,38.12-3.08-.74-3.61-3.66-4.74-5.9-11.86-23.58-13.18-48.53-9.35-74.11.45-3,.95-5.92,1.42-8.88,1.74-2.52-.14-5.75,1.63-8.27a3.73,3.73,0,0,0,.28-1.81c2.51-3.46-1.3-7.83,1.44-11,.83-1.43-.17-1.16-.21-.92a11.39,11.39,0,0,1-3.23,5.86c-3.4,6.09-4.79,12.89-6,19.57-1.81,9.92-5.3,18.81-12.15,26.27-1.18,6-5.19,9.5-10.11,12.52C302.32,174.29,291.79,178.6,280,179.5Z"/><path class="cls-5" d="M259.93,477.61c-15.27.34-29-1.95-42.58-5.38-7.79-2-15.68-3.8-23.67-2.71-19,2.6-35.25-4.62-51.29-13.1-.88-.47-1.63-1.19-2.54-1.58-11.69-5-18.76-12.12-13.76-26.12,1.16-3.27.46-7.27.34-10.93-.13-4.18,1.57-5.81,5.85-6,24-1.22,45.23-10.38,64.48-24.26,10.65-7.68,19.28-17.25,24.72-29.53,2.2-5,4-10.19,4-15.34-.18-13.18,8.57-19.28,18.54-23.3,16.87-6.79,33.31-4.1,48.56,5.69,4.27,2.74,6.09,6.48,5.54,11.83-2.9,28.49,9.58,51.45,34.43,65.12,16.21,8.93,33.29,13.12,51.76,12,2.67-.16,6.39-2,7.85,2,1.36,3.73.19,7-2.85,9.86a115.53,115.53,0,0,1-23.33,17c-23.19,12.59-47.7,22.1-72.76,30.1A100.46,100.46,0,0,1,259.93,477.61Z"/><path class="cls-8" d="M466.42,721.67H393.54c2.49-6,6.77-9.63,10.12-13.86,7.65-9.65,15-19.46,20.85-30.37,7.32-13.75,18.59-19.67,33.75-17.1,5.31.91,10.57.88,15.86,1.2,44.2,2.68,88.44,2.55,132.68,2,14.9-.2,29.66-2.42,44.39-4.48a449.38,449.38,0,0,0,62.11-13.54,23.33,23.33,0,0,1,18.26,2c33.18,18.41,69.65,29.93,102.39,49.22.84.49,1.62,1.07,3.63,2.41-10.13-1.17-18.94-2.85-27.79-3.07-20-.51-39.56,3.46-59.23,6.46-13.09,2-26.12,4.25-39.36,5.5-33.14,3.12-66.37,2.89-99.55,4.25-21.49.89-43.07,1.89-64.48,5-10.14,1.45-20.59.54-30.74,2.6-10.13,4.39-22.63,3.9-32.33-2.91,34-3.85,66.15-6,98.4-17-8.4-6.56-16.24-7.07-24.08-7.44-26.74-1.26-53.08,2.44-79.29,6.94-13.4,2.31-27.21,2-40.28,6.2-3.28,1.06-9,1.11-8.59,5.1.49,4.53,6.06,3.91,10,4,9.31.26,18.65-.25,27.95.33,3.08.19,8.38,0,7.72,4C475.16,723.58,470.63,724.48,466.42,721.67Z"/><path class="cls-7" d="M330.11,166.26c-.27,18.45,4.89,35.5,13.9,51.37,2.53,4.45,2.47,7.65-.6,11.57-3.47,4.44-5.47,10.79-9.85,13.54-4.73,3-10.69-1.59-16.17-2.57-12.13-2.15-24.26-4.09-36.62-4.43-23.26-.63-46.57-2.55-69.67,2-7.5,1.47-15,3-22.36,5.06-3.54,1-5.68.47-7.33-2.79a29.55,29.55,0,0,0-3.71-5.91c-3.91-4.57-4.34-9-1.31-14.44,6.37-11.3,6.93-24.14,8.84-37.85,34,12.57,67.67,12.77,101.21-.14,12.47-7.41,26.21-12.65,37.51-22l2.48-2.51C331.89,158.45,327.88,163.6,330.11,166.26Z"/><path class="cls-5" d="M222.08,313.52c-3.33-2.83-3.74-6.69-5.39-9.86-2.63-5-4.73-10.63-8.79-14.47-11.44-10.83-13.27-26.47-21.85-39.7,12.78-4.76,25.11-6.49,37.52-8,22.27-2.65,44.51.16,66.75.63a132.86,132.86,0,0,1,35.37,5.55c3.15.94,4.73,2.33,2.91,5.69-10,18.43-15.07,39-25.59,57.84C275.68,296.94,248.38,293.09,222.08,313.52Z"/><path class="cls-7" d="M383.65,856.86c14.29,51.92,12.26,151.47-8.45,216.05-.88-2.82-1.76-5-2.2-7.19-2.48-12.51-7.29-24.15-12.79-35.57-4.19-8.68-8-17.53-12.31-26.16-4.5-9.07-4.17-18.47-2.44-28a326.75,326.75,0,0,1,18.66-64c6.24-15.42,11.49-31.19,16.5-47C381.49,862.2,382.63,859.55,383.65,856.86Z"/><path class="cls-5" d="M319,363.65c14.59,9.14,27.78,5.84,40.82-.68,6.25-3.12,12.47-6.32,18.73-9.44,14-7,24.91-17.52,34-30.07.77-1.06,1.37-2.32,3.43-2.55,7.45,16.32,7.38,32.84,2.47,50.08-4.32,15.19-13.25,23.39-29,25.67-26.5,3.84-48.49-3.87-66.4-23.56C321.06,371,319.05,368.64,319,363.65Z"/><path class="cls-9" d="M134.75,329.46l-5.28,9.45c-21.37-16.31-19.13-46.89,4.28-59.8a22.58,22.58,0,0,1,11.47-2.9c33,.55,57.31,21.78,59.82,45.64.34,3.25,2.07,6.34,2.68,9.59,1.61,8.46,1.68,16.63-6.94,23.4-3.39-21.86-18.46-31.07-37.64-35.75-1.91-.45-2.47-2.06-3-3.62-2.24-7.25-6.92-10.28-14.4-8.35s-11,6.85-10.5,14.63C135.45,324.33,136.54,327,134.75,329.46Z"/><path class="cls-5" d="M103,319.19c3.07.88,3.65,3,4.73,4.58,15.3,22.26,38.66,32.78,62.41,42.52,7.86,3.22,16.28,1.89,24.43.14a1.92,1.92,0,0,1-.64,2.48c-20.14,17.24-43.13,27-70,26.7-7.73-.08-13-3.46-16.57-10.47C96.67,363.87,95,342.1,103,319.19Z"/><path class="cls-9" d="M355.72,320a60.51,60.51,0,0,0-14,5.13c-12.37,6.08-21.19,14.88-22.29,30-4.66-1.28-6-4.58-6.26-8.14-1.5-21.3,3.08-41,20.6-54.47,14.4-11,32-13.95,50.14-12.38a10.8,10.8,0,0,1,6.34,2.71c19.89,17.92,19.48,44.4-.43,56.92-2.59-3.9-3.28-9.21-7.34-12.14-2-5.78,1.29-13.92-7.4-16.67-8.4-2.66-12.63,3.58-17.55,8.31A3.15,3.15,0,0,1,355.72,320Z"/><path class="cls-10" d="M248.07,482.31c45.44,1,84.42-17.88,123.19-37.34,6.84-3.43,12.81-8.33,18.64-13.33,1.31-1.12,2.57-3.84,4.75-1.66s.45,4-1.36,5.77c-21.34,20.8-44.64,38.87-71.56,52a420.88,420.88,0,0,1-45.14,18.7c-7.79,2.72-8,2.71-12.06-3.79A109.81,109.81,0,0,0,248.07,482.31Z"/><path class="cls-11" d="M466.42,721.67c2.81-.37,5.93.07,8.79-4-11.84,0-22.65-.09-33.46,0a39.81,39.81,0,0,1-12.74-2c-2.42-.78-4.31-2.12-4.3-4.81s1.84-4.08,4.18-5c6.82-2.72,13.86-5.17,21.09-5.77,25.47-2.09,50.42-8.24,75.87-10,15.85-1.07,32-2.32,47.67,1.75,4.63,1.2,11.73,1.52,11.76,7.29,0,6.25-7.34,5.42-11.8,6.56-26.72,6.83-53.72,11.94-81.43,12.18a4,4,0,0,0-4,1.88h28.41c0,1.64.43,3.09,2,3.93-2.62,2.93-6.13,1.86-9.3,1.91-6.91.13-13.83,0-20.75,0q-3-3.23-6,0h-16Z"/><path class="cls-10" d="M200.8,507a71.88,71.88,0,0,1-24.11-5.6c-3.67-1.58-5-4.21-3.79-8,.7-2.21,1.65-4.35,2.38-6.55,2.77-8.29,8.22-12.1,17.22-11.81a219.82,219.82,0,0,1,27.72,2.53c3.52.56,4.43,2.45,3.84,5.53-.5,2.61-1,5.22-1.74,7.77C218.85,503,213.44,507,200.8,507Z"/><path class="cls-12" d="M216.56,509.71c1.73-5.27,7.44-7.44,9.65-12.41.76-1.72,2.83-1.42,4.49-1.18,2.22.32,4.35,1.84,7.41.23-6.87-3.34-12.74-7.07-8.08-16.13,6.76.86,12.15,4.74,17.19,9a55.26,55.26,0,0,1,9.58,10.11c7.81,11,14.84,22.47,23.1,33.43-21.06-8.51-43.3-12.91-63.43-23.1Z"/><path class="cls-13" d="M123.23,449.62c14.08,9.74,27.8,18.45,44.87,22.78-7.47,4.84-15.16,7.22-21.28,12.25-2.29,1.88-4.46.12-6.31-1.18-3.8-2.67-7.52-5.48-11.17-8.36C119.51,467.35,118.65,464.09,123.23,449.62Z"/><path class="cls-14" d="M416.78,295.4c25.57,20.21,29.23,55.28,8.24,79-1.18-.51-.92-1.56-.67-2.36,7.52-24.8,2.84-48-9-70.39a25.39,25.39,0,0,1-1.28-3.68C413.72,295.74,414.73,295,416.78,295.4Z"/><path class="cls-15" d="M134.75,329.46c-.85-2.48-2.12-4.9-2.48-7.45-1.66-11.82,12-22.29,23-17.6,6.36,2.71,7.87,8.37,7.82,14.68a39.34,39.34,0,0,1-2.63,5.23C153.34,334.68,145.62,336.19,134.75,329.46Z"/><path class="cls-16" d="M106.35,293.89c-14.07,28-21.31,56.3-7.14,87.52C75,359.68,76.83,311.77,106.35,293.89Z"/><path class="cls-17" d="M132.69,512.23c8.74-17.93,21.11-29.21,39.25-33.56-1.87,6.32-1.87,6.32-14.22,14.08,3.45,1.42,6.47-1.67,9.68-.15a15.9,15.9,0,0,1,.87,2.58c1.65,9.69,1.61,9.51-8.52,10.81A140.44,140.44,0,0,0,132.69,512.23Z"/><path class="cls-18" d="M355.72,320c1.54-4.14,3.71-7.8,7.52-10.28,5.51-3.59,13.09-3.27,17.68.76,4.76,4.19,5.15,8.47,1.57,17.19-1.34.91-2.64,1.91-4,2.73C366.88,337.2,358.62,333.4,355.72,320Z"/><path class="cls-4" d="M369.08,1100.09c-5.32-18.21-7.95-36.88-14.62-54.56s-15.6-34.39-24.86-51.29c9.18-1.33,9.33-1.36,11,5.4,3,12,7.78,23.35,13.3,34.38a177,177,0,0,1,16,49.22C370.89,1088.78,371.5,1094.4,369.08,1100.09Z"/><path class="cls-19" d="M148.31,1099c-.12-16.71,4.17-32,9.35-47.08a166.25,166.25,0,0,1,8.3-19.22c5.6-11.37,10.47-23.06,13.37-35.36,1.33-5.62,3.82-6.16,8.93-4.71,0,5.9-3.71,10.31-6.35,15a232.12,232.12,0,0,0-22.74,55.19c-2.7,10.25-4.37,20.78-6.47,31.2C152.31,1095.91,152.36,1098.05,148.31,1099Z"/><path class="cls-20" d="M353.62,232a145.25,145.25,0,0,0,18.73,16.56c-10.34,10-19,2.69-28.2-1.51A63.58,63.58,0,0,1,353.62,232Z"/><path class="cls-21" d="M324,159.6C319.27,167.33,311.31,171,303.9,175c-5.42,3-11,6-17.46,6.63-1.52-2.55-4.34-1.23-6.41-2.14,4.19-2.81,9.23-3.31,13.83-5,11-4.1,21-9.57,28.53-18.82C322.87,157,322.56,158.63,324,159.6Z"/><path class="cls-22" d="M353.5,258.68c-6.06,4.58-12.11,8.8-19.66,11.07C335.62,253.79,341.43,250.57,353.5,258.68Z"/><path class="cls-23" d="M168,235.38c3.32,4.64,6,7.23,6.37,11.07-8.62,4.42-8.62,4.42-15.06,4.42C160.6,245.08,164.81,241.36,168,235.38Z"/><path class="cls-24" d="M184.86,266.35l-14.33-10.3c7.07-4.87,7.14-4.91,10.14.06,1.84,3,3.43,6.25,5.13,9.38Z"/><path class="cls-25" d="M340.55,109.82c.38-4.6,2.76-8.15,5.95-11.38a49.61,49.61,0,0,1-3.95,17.41C341.36,114,343.09,111.21,340.55,109.82Z"/><path class="cls-21" d="M330.11,166.26c-2.16-2.68,1.47-7.69-3.68-9.17,1.27-2.22,3-4.34,4.16-.31A15.61,15.61,0,0,1,330.11,166.26Z"/><path class="cls-26" d="M416.78,295.4l-2.66,2.54a7.15,7.15,0,0,1-3.37-6.29A6.45,6.45,0,0,1,416.78,295.4Z"/><path class="cls-25" d="M342.27,117.66a10.05,10.05,0,0,1-1.63,8.27C339.83,122.91,339.94,120.07,342.27,117.66Z"/><path class="cls-27" d="M504.92,1145.61a106.29,106.29,0,0,1-27.36-1.94c-10.79-2.3-18.77-8.14-24-17.73-11.19-20.45-15.73-42.07-11.34-65.23a8.86,8.86,0,0,0,.15-2c-.79-17,2.85-34,1.57-50.71-1.26-16.5-1.15-33.07-3.08-49.59-2-17.46-3.22-35-8.51-51.8-6.37-20.17-11.73-41-25.78-57.8-2.11-2.53-3.36-5.56-.68-8s5.39-.54,8,1.31c19.09,13.42,40.05,18,63.17,14,9.09-1.55,18.48-.56,27.73-2.3,13-2.45,26.12-4,39.23-5.66,8.54-1.09,17.26-1.05,25.68-2.65,13.76-2.63,27.87-.35,41.56-3.51a30.85,30.85,0,0,1,9-.24c25.8,1.94,51.38,5.47,76.18,13a541.8,541.8,0,0,0,57.85,14.25c9,1.68,18.26,3.47,27.68,2.67s17.57-3.17,22.54-12.07c1.78-3.2,4-6.95,8.41-5.36,4.83,1.75,2.41,5.66,2,9.29-1.06,10.5-5.5,19.84-9.32,29.33a213.72,213.72,0,0,0-13.42,52.81c-2.58,19.79-4.24,39.57-3.75,59.51.72,29.12,6.82,56.51,24.64,80.48,7.13,9.58,13.43,19.79,19.95,29.81,5.53,8.5,1.7,15.7-8.47,16.14a33.06,33.06,0,0,1-7.89-.81c-19.14-3.79-38.19-8.36-57.51-10.65-13.09-1.54-26.32-3-39.7-2.71-21.58.4-43,1.79-64.51,3.74-35.8,3.24-70.31,12.43-105.31,19.52C534.77,1143.79,519.71,1146.88,504.92,1145.61Z"/><path class="cls-28" d="M484.45,819.7c-18.72,2.83-36.68,7.73-52.2,19.49-2.75-2.81-1.95-5.92-1.56-8.69,2.78-19.84,3.2-39.65-.82-59.37-.47-2.34-1.63-4.63,1-6.2,2.85-1.71,4.1.77,5.61,2.5,2.58,3,6.28,3.5,9.8,4.26a459.29,459.29,0,0,0,57.83,8.53c25,2.1,49.86,1.53,74.73,1.21,20.49-.27,41-1.68,61.5-3.28,16.84-1.31,33.63-3.06,50.42-4.63a396.07,396.07,0,0,0,93.93-20.21c5.93-2.07,11.31-5.64,17.48-7.21a4.22,4.22,0,0,1,4.51,1.35c1.07,1.29.38,2.64-.63,3.48-8.21,6.78-9.55,16.65-10.8,26.05-1.48,11.14-2.17,22.49,1.64,33.55,1.78,5.18,3.73,9.89,9.23,12.26a4,4,0,0,1,2.64,4.1c-5.62,2.69-11.11,0-16.09-1.62-17.1-5.39-34.37-10-52.12-12.35-14.4-1.9-28.88-3.54-43.24-5.56-19.51-2.75-39.06-1.16-58.58-3-18.69-1.74-37.85-2.42-56.69,1a48,48,0,0,1-8,.35c-20.93.17-41.47,3.75-62,7.17-9.39,1.57-19,2.4-27.63,6.87Z"/><path class="cls-28" d="M484.39,819.75c5.82-.43,11.09.51,15.75,4.59,4.39,3.84,5.1,8.46,3.83,13.54-1.06,4.26-6.46,7.59-11.55,7.86-6.41.33-12.1-1.29-15.27-7.25-3-5.62-.1-12.35,7.3-18.79Z"/><path class="cls-29" d="M606.82,811.7c2.61.11,5.43-.47,7.62,1.43,3.93,3.41,8.7,6.32,7.94,12.75-.6,5-4.19,7.42-8.29,8.88-5.21,1.86-10.4,2-14.49-2.81-1.91-2.23-4.58-3.89-5-7.13C593.41,816.75,596.55,810.64,606.82,811.7Z"/><path class="cls-30" d="M713.59,821.29c3,.32,6.17.32,5.86,4-.21,2.46-2.89,2.39-4.84,2.22-2.65-.23-5.8-.73-5.58-4.15C709.2,820.83,712.14,821.78,713.59,821.29Z"/><path class="cls-1" d="M482.43,725.64c.28-2,.83-3.86,3.45-3.54,2,.26,2.27,1.95,2.52,3.54Z"/><path class="cls-31" d="M292.75,375.49a156.49,156.49,0,0,1-15.67,56.34c-5.24,10.39-11.2,20.41-16.86,30.59-.8,1.44-1.72,3.09-3.72,2.59-2.23-.55-2-2.61-1.49-4.06,3.93-11.56,1.77-20.77-6.75-30.44a70.7,70.7,0,0,1-16.44-35.92c-1.82-11.76-1.26-23.73-1-35.61.13-5.52,5-8.59,8.93-11.42A42.12,42.12,0,0,1,271,339.85c11.1,1.53,19.48,11.86,21.3,25.66C292.62,368.14,292.54,370.82,292.75,375.49Z"/><path class="cls-32" d="M688.28,677.93c-5.24,0-10.54-.52-15.7.12-9.32,1.14-18.54-.68-27.8-.28a13.59,13.59,0,0,1-4.92-.6c-3.59-1.21-4-4.25-1.07-6.84a11.62,11.62,0,0,1,6.3-2.71c8.06-1.17,15.53-5,24.12-4.18,4.78.47-4.12-3,.49-3.58,2.63-.32,5.33-.16,8-.49,2.29-.29,4.52-1.14,6.82-1.41a62.38,62.38,0,0,1,7-.2q4,0,8,0c2.33,0,4.66.11,7,.09,5.73,0,11.18,1.4,16.53,3.21,2.55.86,5,2.3,5.15,5.45s-2.26,4.6-4.82,5.64a22.18,22.18,0,0,0-6.84,3.68c5.89,0,11.8-.23,17.67,0,10.28.51,20.56,1.16,30.8,2.13a29.16,29.16,0,0,1,9.49,2.9c5.23,2.47,5.53,7.47.82,11-3,2.22-6.65,3-10.2,3.82-19.44,4.37-39.14,6.64-59,8.43-20.3,1.83-40.55,1.38-60.82,1.58-4.6,0-9.73.6-12.3-4.44-1.56-3.06,2.27-6.69,9.86-9.38C657.71,686.59,672.15,679.7,688.28,677.93Z"/><path class="cls-33" d="M515.69,669.65c8.26.34,16.64-.61,24.72,2a56.27,56.27,0,0,1,5.62,1.91c1.83.8,3.69,1.89,3.66,4.23s-1.86,3.5-3.74,4.15c-3.75,1.29-7.53,2.89-11.41,3.32-14.13,1.54-28.25,4.29-42.54,1-3.19-.72-6.63-.35-9.95-.43-3-.09-6-.18-8.72-1.66-1.77-1-3.87-1.76-4.08-3.95-.28-2.91,2.09-3.76,4.35-4.59C487.21,670.65,501.3,669.11,515.69,669.65Z"/><path class="cls-34" d="M433.12,711.11c3.67-4.59,8.21-4.27,11.63-4.82,12.7-2,25.56-3.13,38.36-4.58,13.45-1.52,27.34-1.74,40.23-4.93A106.26,106.26,0,0,1,552.53,694c8.1.23,16.15,2,24.16,4.25C530,712.39,482.32,713.22,433.12,711.11Z"/><path class="cls-35" d="M448.63,961.77c-2.94-21.38-5.6-42.83-12.38-63.45-4.35-13.23-9.09-26.33-13.66-39.49,1-1.31,2.27-1,3.51-.42,15.24,7.1,31.36,8.15,47.81,7.06,24.24-1.6,48.17-5.58,72.2-8.87,5.59-.76,11.17-1.65,16.85-1.08,1,3.24-.54,6-2.14,8.36-21.82,32.76-42.25,66.46-66.24,97.77a11.61,11.61,0,0,1-4.51,2.28C476.2,964.17,462.17,967.62,448.63,961.77Z"/><path class="cls-36" d="M450.1,1043.61c-1.31-7.39-.63-14.7,1-22,7.16-16.25,17.24-30.52,29.38-43.4a4.88,4.88,0,0,1,1.89-.61,11.14,11.14,0,0,1,7.32-2.82c30.59,0,61.2-1.37,91.77.67,6.1,2.31,4.39,6.63,2.24,10.48-12.88,23-25.37,46.32-38.35,69.31a14.05,14.05,0,0,1-9.05,7.19,64.12,64.12,0,0,1-18.63,2.31c-19.5-.29-39-.08-58.35,2.56-7,1-10.93-1-9.92-9C450,1053.5,448.75,1048.49,450.1,1043.61Z"/><path class="cls-36" d="M494.45,960.05c3.8-8.16,9.77-14.91,14.65-22.36C527,910.3,545.93,883.52,563,855.53c28.59-6.36,57.33-8.1,86.29-2.72.32,1,.93,2.07.59,2.89-7.68,18.3-14.8,36.89-27.52,52.57-12.15,4.05-25,1.67-37.35,4.11s-24.86,2.27-36.34,8.81c-11.29,6.43-15.16,15.86-15.3,27.92-.13,11.55-1.52,13-13.28,13.36-5.33.16-10.57.82-15.86,1.35C500.54,964.2,496.08,965.43,494.45,960.05Z"/><path class="cls-35" d="M622.47,905.72a459.59,459.59,0,0,0,26.77-52.92,378.1,378.1,0,0,1,50.29,11c15.24,4.31,30.58,8.13,46.11,11.22-14.31,22.93-25.73,47.53-40.53,70.19A11.18,11.18,0,0,1,701,947.6c-2.92.87-5.92.72-8.92.75-6.41.06-9.4-3-10.42-9.43-3.12-20-12.68-27.76-33.1-28.44-8.55-.28-17.31,1.72-25.64-1.84A2,2,0,0,1,622.47,905.72Z"/><path class="cls-35" d="M744.36,1066.19c13.15-1.66,26.35-3,39.43-5.13,4.21-.67,6.58-.57,8.51,3.79,8.23,18.67,20.85,34.65,32.19,51.41,1.56,2.3,5.39,4.37,3.41,7.47-2.07,3.25-6.07,1.68-9.2,1.1-16.63-3.06-33.2-6.47-49.85-9.4a293.66,293.66,0,0,0-62.39-4.31c-8,.32-15.93.27-23.9.38-.31-.59-.76-1.36-.5-1.83,8.48-15,16.51-30.31,29.84-41.87C722.51,1063.06,733.5,1066,744.36,1066.19Z"/><path class="cls-35" d="M592.7,1123.78c-32.78,9-65.84,16.24-100.11,15.7-2.64,0-5.37.24-7.75-1.38,13.74-2.43,17.16-14.32,23.09-24.35,7.36-12.42,11.73-26.66,22.29-37.17a11.43,11.43,0,0,1,3.13-1.19c21.25.19,42.35-3.64,63.6-2.39,7.68.45,15-3.36,22.71-1.4,7.56,3.82,2.74,8.42.18,12C610.43,1096.76,601.7,1110.36,592.7,1123.78Z"/><path class="cls-36" d="M704.53,943.75q13.69-25.11,27.4-50.21c2.05-3.76,4.17-7.47,6.25-11.21,1.77-3.19,3.47-6.43,7.47-7.34a172.21,172.21,0,0,0,34.51,3.23c7.62-.13,15.26.06,21.84-4.4.67.82,1.45,1.44,1.34,1.7A354.49,354.49,0,0,0,784,939.93c-3.31,3.26-7.72,4.09-11.9,4.17-19.15.39-38.17,3.51-57.37,2.64C711.07,946.57,707.34,946.69,704.53,943.75Z"/><path class="cls-36" d="M592.7,1123.78c-2.49-3,.29-4.68,1.6-6.68q14-21.4,28.16-42.76a5.5,5.5,0,0,1,2.68-2.47,57.93,57.93,0,0,1,16.63-2.81c17.92-.07,35.77-1.2,53.64-2.29,4.58-.28,9.32-.54,13.7,1.59l1.39,1.23-27.94,41.91C652.43,1114.27,622.28,1117,592.7,1123.78Z"/><path class="cls-36" d="M529.54,1078q-14.62,27.43-29.23,54.9c-1.89,3.57-4.29,5.58-8.6,5-2.25-.3-4.59.11-6.87.19-11.81-.07-20.17-5.69-25.77-15.9-5.2-9.46-8.79-19.37-9.18-30.26-.77-11.81,0-13,11.05-13.19,20.15-.27,40.19-2.61,60.33-2.83C524.25,1075.89,527.26,1075.41,529.54,1078Z"/><path class="cls-37" d="M622.47,905.72c.06.54.13,1.08.22,1.62,1,2,.63,4,.22,6.06-.89,3.1-2.09,5.87-6.07,5.61-1-.18-2.57,0-2.84-.52-1.35-2.63-3.08-2.61-5.89-2.53-13.25.37-26.54,0-39.6,2.75-3.89.81-7.85-.92-10.4.36,8,2.83,16.79-1.43,25.33-1.74,10.38-.36,21.78-2.11,32.3,1.85,2,1.94.87,3.79-.15,5.65a5.45,5.45,0,0,1-4.32,2c-19.84,1-39.73,1.45-59.46,4.06-10.46,1.39-13.41,5.48-12.46,16.35.78,8.79,3.24,9.71,14.42,10.11,13.24.48,26.27-4.72,39.54-1.06a4.51,4.51,0,0,1,2.43,3.77c-.18,5.18-3,9.3-5.49,13.57a17.28,17.28,0,0,1-3.4,4.57,2.58,2.58,0,0,1-2.64-.12l-101.85-.4c.13-.63.23-1.26.3-1.9.36-6.71,4.6-10.74,9.78-14.12l2-1.57c1.88,1.9,4.4,2,6.56,1.41,8.18-2,16.49-1.68,24.77-1.88,4.23-.1,5.8-1.67,4.92-6.27a34.05,34.05,0,0,1,.37-12.86c3.17-16.39,14.81-23.51,29.52-26.79a253,253,0,0,1,53.2-6.08A18.63,18.63,0,0,0,622.47,905.72Z"/><path class="cls-35" d="M776.34,967.09c3.26,0,6.07.47,5.62,4.81-.2,2-.36,4-.52,5.92a252.7,252.7,0,0,0,2.27,57.25c1.59,10.71,1.85,10.67-9.15,11.06-4.11,3.54-9.61,1.46-14.09,3.48-3.71.85-7.49.74-11.26.83-3.6,0-7.23-.22-10.72,1-4.12.8-8.24,1.17-12.35-.06a5.42,5.42,0,0,1-2.38-1.8c-1.18-2.83.13-5.23,1.53-7.49,15.55-25.2,31-50.48,48.26-74.56A3.52,3.52,0,0,1,776.34,967.09Z"/><path class="cls-38" d="M776.34,967.09l-2.15.82c-4.18,3.51-9.44,3.06-14.28,3.49-23.11,2.08-46.2,4.63-69.44,4.79a10.62,10.62,0,0,1-3.11-1.07,3.58,3.58,0,0,1-1.75-2.43c1.88-9.07,8.15-15.81,12.56-23.54,1.07-1.56,2.93-2.18,4.15-3.57l2.21-1.83c21.62,1.31,43.07-2.52,64.67-2.24,4.95.06,9.66-2.66,14.75-1.59-.17,2.92-.32,5.84-.52,8.75C783,955.53,781.15,961.9,776.34,967.09Z"/><path class="cls-39" d="M529.54,1078c-23.88,1.76-47.75,3.68-71.72,3.78-6.79,0-6.79.25-7.93,10.15-2.43-5-1.73-10.48-1.57-15.67.36-10.89-.95-21.9,1.78-32.66.12,5.64.28,11.27.35,16.91,0,3.11.91,5.37,4.61,4.62,21.61-4.4,43.5-3.52,65.33-3.38,6.39,0,12.36-2.62,18.72-1.93a5.48,5.48,0,0,1,.93,2.52,9.36,9.36,0,0,1-.36,2.68,94.55,94.55,0,0,1-5.94,10.33c-.88,1-2.25,1.36-3.09,2.41A2.15,2.15,0,0,0,529.54,1078Z"/><path class="cls-40" d="M738.49,1049.4c3.13-2.2,6.62-1.63,10.07-1.31,4.05,1.38,8.22.35,12.32.65a9.22,9.22,0,0,1,2.82.3c-.89-.88-2.62-.12-3.19-1.63,4.51-2.35,9.3-1.68,14.06-1.28,1.85,2,4.29,1.46,6.54,1.27,3.67-.31,5.46,1.63,6.51,4.8,1,2.94,1,5.06-2.91,5.74-5.84,1-11.6,3.31-17.44,3.49-9,.28-17.68,2.69-26.67,2.68-1.06-.74-.57,2.13.11,1s-.53.12.76.44c1,.23,1.93.44,2.9.65-1.22,1.31-2.82,1.51-4.48,1.61l-29.4,1.8-.6-.09c1.61-7.86,6.28-14,11.32-19.88a3.72,3.72,0,0,1,2.65-.45,3,3,0,0,1,.79.95c4.73,1.57,9.68-.14,14.44,1a2.45,2.45,0,0,0,0-1C739,1049.84,738.72,1049.64,738.49,1049.4Z"/><path class="cls-41" d="M480.47,978.25c-8.83,15.12-19.26,29.16-29.38,43.4-.32-11.83-.56-23.66-1-35.49-.17-4.32.91-6.61,5.85-6.9C464.1,978.77,472.22,977.09,480.47,978.25Z"/><path class="cls-42" d="M492.44,961.63l-9.78,14.11c-9.26.13-18.56-.28-27.74.6-5.18.5-6.65-1.11-6.54-5.65.07-3,.16-6,.25-8.92Z"/><path class="cls-8" d="M789.73,760.81c-5.2,18.15-4.7,35.46-.19,53.42-10.12-2.2-19.94-4.67-29.89-6.44-23.19-4.12-46.56-6.55-70-8.58A888.86,888.86,0,0,0,585,796.07c-45.28,1.45-89.77,8.45-132.73,23.5-4.05,1.42-8,3.21-13.54,5.48a99.58,99.58,0,0,0,1.49-46.81c10.75,2.09,20.22,3.49,29.44,5.86,8.46,2.17,17.14,2.59,25.62,3.16,26.19,1.78,52.44,3.43,78.73,2.25,25.86-1.16,51.8-1.7,77.55-4.19,30.64-3,61.5-4.56,91.67-11.51,13.6-3.14,27.1-6.5,40.14-11.57C785.15,761.55,786.83,760.28,789.73,760.81Z"/><path class="cls-43" d="M490.36,829.38c3.3.22,6.19,1.12,6.16,4.88,0,3.39-2.75,4.14-5.53,3.94-3-.21-6.43-1.2-6.7-4.47C484,830,487.6,829.74,490.36,829.38Z"/><path class="cls-44" d="M608.88,829.73c-3.61-.36-6.88-1.53-6.91-5.5,0-3,3-2.94,5.27-2.75,2.9.26,6.42.56,6.87,4.11C614.53,829,611.49,829.49,608.88,829.73Z"/><path class="cls-45" d="M264.16,439.67c1.32-19.22-8-34.78-19.06-49.62-5.32-7.12-8.14-15.2-9.43-23.91-.56-3.81-.39-7.67,3.06-9.91,11.45-7.43,23.55-12.29,37.66-8.44,4.1,1.12,5.8,3.59,7,7.45,2.54,8.42,3.76,17,2.65,25.65a156.31,156.31,0,0,1-19,57.47C266.51,439.17,266.1,440.25,264.16,439.67Z"/><path class="cls-46" d="M255.74,428.39c-8.49-11.84-16.23-24-18.85-38.75C244.64,401.84,255,412.78,255.74,428.39Z"/><path class="cls-47" d="M770.13,687.4c-42,10.67-83.79,9.43-125.56,12.27C658.23,686.91,747.2,677.88,770.13,687.4Z"/><path class="cls-48" d="M646.61,672.56c24.13-8.47,48.68-11.67,74-5.64C696.25,672.81,671.55,674.26,646.61,672.56Z"/><path class="cls-49" d="M542.31,678.31c-21.19,5.39-41.38,3.83-61.81.9C490.94,674.92,532.09,674,542.31,678.31Z"/><path class="cls-35" d="M539.18,1061.32a3,3,0,0,1-.07-1.49c5-5.44,7.66-12.39,11.25-18.69,10.86-19.05,21.29-38.35,31.83-57.58.94-1.71,2.2-3.38,2-5.52a6.15,6.15,0,0,1,1.83-.55,13.87,13.87,0,0,1,8.44-2.47c17.89,1.16,35.58-2.57,53.44-2.09a143.55,143.55,0,0,0,23.68-1.69c4.71-.66,10-1.5,14.07,2.61a2.52,2.52,0,0,1,1,.34c.22,5.49-3.84,9-6.32,13.13-12.74,21.28-26.1,42.18-39.07,63.33-1.55,2.53-3.07,5.13-5.78,6.72a11.43,11.43,0,0,1-3.16,1.11c-2.28.47-4.42,1.62-6.74,1.62-28,0-55.91,3.3-83.94,2.64C540.59,1062.71,539.93,1061.94,539.18,1061.32Z"/><path class="cls-50" d="M702.32,945.58c.15,1.86-1.37,2.68-2.38,3.82-19.2,10.42-38.7,18.57-61.6,15.63-11.37-1.45-23.15-.84-34.72.71-3.63.48-8.23,1.57-9.5-4.11.14-1.29.29-2.58.44-3.87a7.13,7.13,0,0,1,2.54-2.37c5.22-2.74,10.92-2.56,16.56-2.59,16-.08,31.91,0,47.86-.07,7.38,0,13-2.58,15.08-10.3,2.21-8.19-.42-12.66-8.86-14.36-12.84-2.6-25.86-.92-38.79-1.44-4.86-.2-10.1,1-14.11-3.14.33-1.3.66-2.59,1-3.89l1.18-.7a61.67,61.67,0,0,1,17.14-2c-4.47-1.79-9.43-1.59-13.47-4.35-.25-2.09.82-3.68,2-5.23,11.88-.36,23.83-.89,35.55,1.24,15.6,2.84,24.73,13.41,26.13,29.08.73,8.13.73,8.12,9,8C696.37,945.57,699.34,945.59,702.32,945.58Z"/><path class="cls-51" d="M530.65,1077.77a2.08,2.08,0,0,1,1.31-2.36,23.94,23.94,0,0,1,13.23-3.84c23.52-.64,47-3,70.51-2.82a15.41,15.41,0,0,1,7.69,1.73,2.27,2.27,0,0,1,1,3.2l-1.91.66c-20.05.94-40.1,2-60.16,2.76C551.76,1077.53,541.2,1077.56,530.65,1077.77Z"/><path class="cls-52" d="M624.37,1073.68a7.17,7.17,0,0,0,.13-2c0-5,3.7-8.13,6-12a19.71,19.71,0,0,1,3.89-3.57l2-.69c5.79-4,12.71-3.65,19.13-4.15,19.41-1.51,38.87-2.46,58.28-4,3-.25,6,0,8.23,2.47-2.81,7.35-7.75,13.38-12.16,19.74-22-.23-43.77,3.37-65.76,2.35C637.47,1071.54,631.12,1074.82,624.37,1073.68Z"/><path class="cls-53" d="M614.84,923.49c17.87.89,35.8-.44,53.65,1.46,10.58,1.13,11.62,2.21,11.63,12.89,0,11.57-3.85,17.26-12.87,17.7-10.59.51-21.21.57-31.81.42-12.93-.19-25.84,0-38.74.93,2-12.12,7.06-22.72,15.95-31.35Z"/><path class="cls-54" d="M612.65,925.54q-8,15.68-15.95,31.35l-2.15.87c-15.3-1-30.32,2.34-45.54,2.89-6.83.25-11.72-2.48-12.57-9.1a60.29,60.29,0,0,1-.13-8c.09-11.28,3.1-14.33,14.42-15.87,16.75-2.29,33.71-1.31,50.45-3.69C604.91,923.51,609.17,922.54,612.65,925.54Z"/><path class="cls-55" d="M594.12,961.63c1.75,2,4.13,2.09,6.43,1.75,18.5-2.76,37.11-.86,55.67-1.45,5.63-.18,11.19-.25,16.75-1.7,3.49-.9,6.47-2,7.72-5.36,1.85-5.08,5.61-5.89,10.29-5.54,3,.23,6,.06,9,.07L687,972.06c-17.57.25-35.12,1.39-52.64,2.45q-19.41,1.17-38.79,1.16c-2.62,0-5.39.25-7.4-2.06Z"/><path class="cls-56" d="M615.84,919.6c-6.6.28-13.29-.59-19.74,1.65-1.21.41-3.25.77-3.86.14-5.62-5.76-10.52-.87-15.81.58s-11,4.78-15.94-1.32c-.78-1-2.36.46-3.56.9-2.4.87-2.85,5-6.38,3.77,2.27-5.48,3-6.71,6.94-7.37a329,329,0,0,1,54.31-4.49c4.89,0,.62,5.68,4.51,5.17l.33.3A.73.73,0,0,1,615.84,919.6Z"/><path class="cls-57" d="M588.21,973.61c27.32,1.39,54.49-2.51,81.78-2.22,2.27,0,4.54-1.14,6.83-1.29,3.53-.24,7.37-1.53,10.22,2-.45.6-.91,1.2-1.37,1.79-29.89,1-59.72,3.65-89.65,3.73-3.33,0-6.65-.05-10-.08C586.18,975.88,586.64,974.43,588.21,973.61Z"/><path class="cls-58" d="M616.64,918.93l-.34-.31c3.16-.79,4-3.24,4.38-6,4.61.1,9.22.26,13.82.26,3.58,0,6.45.79,7.23,5.74A87.26,87.26,0,0,1,616.64,918.93Z"/><path class="cls-36" d="M722.05,1049.76c-14.63,2.51-29.51,2.11-44.24,3.21-13.75,1-27.52,3.27-41.4,2.52,3.38-9.14,9.62-16.62,14.57-24.84,10.13-16.82,20.62-33.43,30.94-50.14,1.39-2.26,2.6-4.65,4.77-6.32,15.14-.41,30.2-2.12,45.31-3,13.39-.81,26.79-2.31,40.21-3.33a16.49,16.49,0,0,1,2,.09c-5,12.06-13.55,22-20.21,33-9.77,16.24-20.05,32.18-30.11,48.24Z"/><path class="cls-27" d="M760.51,1047.41l5.47,1.07c-5.86.36-11.75,2.76-17.42-.39Z"/><path class="cls-27" d="M738.49,1049.4l3.5,1.1c-5.82.35-11.66,2.43-17.34-.38Z"/><path class="cls-59" d="M632.23,1059.65c-1.8,4.52-4.75,8.31-7.73,12.07-25-1.17-49.8,2.84-74.78,2.22-5.84-.14-11.7,2.33-17.76,1.47a45.64,45.64,0,0,1,6.49-11.71c10.88-4.28,22.35-1.59,33.51-2.54,18.78-1.59,37.69-2.26,56.57-2.63A5.68,5.68,0,0,1,632.23,1059.65Z"/><path class="cls-60" d="M632.23,1059.65c-18.79,0-37.51,2-56.28,2.62-12.48.43-25,1.29-37.5,1.43.24-.79.48-1.58.73-2.38a60.61,60.61,0,0,1,11.8-1.52q36.27-1.24,72.53-2.72c3.63-.14,7.25-.59,10.88-.9A4.63,4.63,0,0,1,632.23,1059.65Z"/><path class="cls-61" d="M278.55,373.73c0,3.42-.14,6.25-2.69,7.79-2.83,1.7-5.06-.43-7.09-2-4.45-3.37-8.49-7.07-13.9-9.27-5.13-2.09-5-6.89-.17-9.9s10-3.62,15.06-.68C275.35,362.94,277.65,368.32,278.55,373.73Z"/><path class="cls-62" d="M645.92,914.27c8,.85,17.35-4.46,23.54,5.18C661.63,917.67,652.22,923.42,645.92,914.27Z"/></g></g></svg>