<svg xmlns="http://www.w3.org/2000/svg" viewBox="0 0 825.85 1244.14"><defs><style>.cls-1{fill:#010101;}.cls-2{fill:#2f2e23;}.cls-3{fill:#333;}.cls-4{fill:#1e1f1f;}.cls-5{fill:#fff;}.cls-6{fill:#7e560c;}.cls-7{fill:#414141;}.cls-8{fill:#fefefe;}.cls-9{fill:#ffe200;}.cls-10{fill:#ec0000;}.cls-11{fill:#050303;}.cls-12{fill:#7c540c;}.cls-13{fill:#9b9039;}.cls-14{fill:#aca03f;}.cls-15{fill:#e80000;}.cls-16{fill:#ab9f3f;}.cls-17{fill:#f0f1f1;}.cls-18{fill:#db0000;}.cls-19{fill:#fbfaf7;}.cls-20{fill:#e60000;}.cls-21{fill:#f1d600;}.cls-22{fill:#3a3c3c;}.cls-23{fill:#ca0000;}.cls-24{fill:#dbdddd;}.cls-25{fill:#c0c3c3;}.cls-26{fill:#605c5c;}.cls-27{fill:#8e8936;}.cls-28{fill:#020101;}.cls-29{fill:#030202;}.cls-30{fill:#040303;}.cls-31{fill:#030303;}.cls-32{fill:#080606;}.cls-33{fill:#313232;}.cls-34{fill:#7f7a7a;}.cls-35{fill:#c8c7c7;}.cls-36{fill:#c9c7c7;}.cls-37{fill:#adadac;}.cls-38{fill:#3c3a39;}.cls-39{fill:#7e7a7a;}.cls-40{fill:#3a3937;}.cls-41{fill:#bcbebe;}.cls-42{fill:#bdc0c0;}.cls-43{fill:#323232;}.cls-44{fill:#313131;}.cls-45{fill:#303030;}.cls-46{fill:#abaaa9;}.cls-47{fill:#3b3a39;}.cls-48{fill:#0e0c08;}.cls-49{fill:#adacab;}.cls-50{fill:#3b3b3a;}.cls-51{fill:#8d7d52;}.cls-52{fill:#cfc8b5;}.cls-53{fill:#dfa238;}.cls-54{fill:#deca45;}</style></defs><title>owl_pven_off</title><g id="Layer_2" data-name="Layer 2"><g id="Layer_1-2" data-name="Layer 1"><path class="cls-1" d="M406,314.52c-1.28,2.33-2.69,4.6-3.82,7-1.69,3.6-4.22,7.22-4.49,11-.29,4,5.05,4.6,7.41,7.32,7.09,8.19,10.41,17.71,10.79,28.36.49,13.55-3,26.45-7.06,39.15-4.17,13-8.91,25.83-15.38,37.91a20.66,20.66,0,0,0-2.24,11.43c1.63,33.58-7,63.95-28.93,90a17.39,17.39,0,0,1-2.67,2.93,26.3,26.3,0,0,1-6.25,3.45c7.25-11,9-23.23,10-37-7.94,0-15.54-.55-23,.14-9.73.89-16.66,7.77-24.19,13.1-2.31,1.64-2,4.82-2.41,7.42-4,24-5.79,48.28-9,72.39a13,13,0,0,0,.85,6.82c3.15,7.92,15.1,24.35,23.27,31.6,9.85-10.38,18.62-21.56,25.33-34.22,8.61-16.24,23.18-22,40-20.67,15.94,1.29,31.87,2.72,47.84,3.15,31.65.84,63.34,2.08,95,0,31.89-2.08,63.9-4.67,94.5-14.66,16.54-5.4,31.68-2.5,46.43,4.3,27.19,12.52,54.07,25.74,81,38.77,10.52,5.09,20,11.81,29.63,18.47,25.4,17.66,36.07,42.48,37.18,72.62,1.27,34.69-5.52,68.29-12.55,101.9-6.83,32.6-14.13,65.14-18.65,98.15a158.32,158.32,0,0,0,6,70.18c5.16,16.18,10.83,32.19,15.95,48.38a195.41,195.41,0,0,1,9.09,64,92.57,92.57,0,0,1-5,28.43c-1.32,3.8-3.73,5.69-7.29,7.43-16.91,8.23-34.86,9.84-53.36,10.58-55.67,2.2-111.29-.27-166.92-1-32.31-.43-64.58-2.71-96.94-2-23.38.51-46.48,3.83-69.73,5.63-9.33.73-18.64.67-28,.89-17.65.43-35.18,3.16-52.9,2.47a86.61,86.61,0,0,1-31-7c-8.78-3.74-14-10.44-15.13-19.57a213,213,0,0,1,.86-58.7c5.69-37.92,15.77-74.93,22.5-112.63.92-5.13.18-8.22-4.12-11.83-8-6.68-13.34-15.73-18.25-24.84-6.47-12-12.71-24.18-18.83-36.38-13.21-26.31-28.53-51.2-48.51-73-3.41-.25-4.29,2.79-5.87,4.66-12.55,14.82-26.38,28.35-42.1,39.68-5.48,4-7.57,8.74-8.77,14.75-5.52,27.77-15.77,53.59-31.76,77.07-4.7,6.91-9.24,13.94-15.53,19.48-3.93,3.45-4.82,7.38-4.79,12.35.1,17.05,2.15,33.92,4.4,50.76,5.34,40,9.25,80.13,6.74,120.57-.34,5.41,1.82,6.93,6.18,8,31.23,7.78,58.61,23.4,84.45,42,7.36,5.3,14.77,10.82,18.67,19.9-33.07-22.63-67.07-43.35-104.87-57.24,19.86,21,39.09,42.21,48.35,70.28,1.52,4.6,2.51,9.28.89,15.49-8.3-25.47-23.58-45.07-40.57-63.41-5.54-6-9.29-13.72-17.13-17.79-1.69-.88-1.51-5.34-2.41-9-4.38,4.59-1.74,8.39,0,12a92.53,92.53,0,0,1,8.87,50.52,62.88,62.88,0,0,1-2.78,13.74c-3.8-1.8-3.12-5.2-3-7.87,1-20.81-5.85-39.81-11.58-59.39-3.47-11.83-10.32-18.49-19.49-24.53-1.1-.72-2.39-1.23-2.83-3.25,9.19,0,16.51,4.73,24.69,9.6,1.34-3.82.77-7,.45-10.11q-4.55-44.23-9.32-88.44c-1.48-13.62-5.64-26.71-8.58-40-2.66-12-5-24.13-5.34-36.52,0-2,.28-4.09-1.07-5.77C90.14,953,86.72,939.54,80.35,925.74c-9.53,28.17-16.14,55.89-26.68,82.3-3,.37-3.39-1.86-3.89-4,2.61-16.11,8-31.51,12.53-47.12,2.32-8,5.34-15.77,7.81-23.72.69-2.2,3-5.56-1.2-6.48-2.79-.6-5,1.65-5.8,4.49-1.23,4.18-1.13,8.57-1.61,12.85-3.52,30.86-13,60.41-19.72,90.56-.79,3.56-2.21,7-1,10.74,1,1.53,1.57,3.35,3.13,4.5,11.29.95,22.54,2.15,33.31,6,5.73,2,10.79,4.94,14.47,11.2-6.88,1-10-5-15.07-6.32A142.57,142.57,0,0,0,59.13,1057a95.09,95.09,0,0,0-16.83-.68c11.93,9.57,24.45,18.24,29.48,34.88-5.06-1.73-7.31-5-9.72-7.85-7.66-8.9-16.7-16.27-25.75-23.62-6.79-5.51-7.72-5.45-13.84,1.33-4.91,5.43-9.34,11.29-14,16.92-2.33,2.81-4.36,5.9-7.65,8-2-2.5.22-4.37,1.17-6,6.16-10.27,11.9-20.95,21.17-28.85,3.42-2.92,3.35-5,.84-8.15-1.56-2-2.63-4.32-4.42-7.34,6,.59,8,5.59,12,7.62,2.73-2.16,2.07-5.44,2.67-8.2Q42.38,997.59,50.34,960a113.75,113.75,0,0,0,2.78-23.77,33.06,33.06,0,0,1,.71-8c6.59-26.47.8-52.13-5.23-77.7-6.38-27-18.42-52-28.09-77.89C12.69,751.72,6,730.45,3.43,708.11c-2.64-22.82.32-45.24,5.06-67.46,5.65-26.46,13.65-52.14,26.18-76.3,4.13-8,6.46-16.78,11.15-24.51,1.25-2.07,1.41-4.39,1.46-6.75.55-27,8.26-52.51,17-77.75,19.87-57.65,53.24-106.37,98.3-147.15,16.32-14.76,33.83-28.08,53.55-38.17,8.63-4.42,17.59-8.11,27.07-10,7.06-1.43,12.05-5.34,16.18-10.71,10.68-13.9,17.3-29.89,23.6-46.06,1.55-4-.52-7.21-1.58-10.57A262.33,262.33,0,0,1,269,125.08c-3.29-73.66,69.7-145,156.71-120a185.18,185.18,0,0,1,80.12,47.05c46.57,46,75.41,101.27,83,166.58,5,43.14-3.64,83.51-29,119.59-17.83,25.37-42.06,39.74-73,40.91-30,1.13-53.61-10.9-69-37.4-1.84-2.46-.72-3.8,1.74-4.64,3.89.28,5.51,3.44,7.43,6.07,27.36,37.56,78.81,34.29,108.08,8.35,26.62-23.59,40.54-54.47,43.81-89.43C586,186.2,557.19,123,507,68c-27.09-29.71-59.72-49.5-99.79-56.45C344.09.63,280.76,53.69,280.13,117.65a294.84,294.84,0,0,0,7.15,67.14c3-7.45,4-16.78,9.11-25.83,5.08,5.49,4.41,11.29,3.29,16.51-6.8,31.54-16.16,62-40.13,85.48-1.8,1.77-4.78,3.46-3.67,6.48.95,2.6,4,1.79,6.22,2,26.42,3,49,14.78,68.87,31.59,10.87,9.2,21.22,19.3,29.8,30.84,3.93,5.3,7.79,5.48,13.72,3.14,9.36-3.69,16.95-8.31,20.68-18.39,1.81-4.88,5.54-9.06,8.71-13.36,1.82-1.7,3-4.71,6.44-3,2,2.86,2,6,1.24,9.25C411,312.6,408,313,406,314.52Z"/><path class="cls-2" d="M51.53,1003.88c.41,1.54.41,3.3,2.14,4.16-2.31,11.55-7.54,22.31-9.08,34.08-.34,2.59-1.19,5.12-.63,7.78L39.69,1048C40.56,1032.44,42.93,1017.32,51.53,1003.88Z"/><path class="cls-3" d="M406,314.52c.16-2.51,3.13-2.7,3.88-4.73,7.49,7.94,9.8,17.68,9.89,28.21-1.74.72-1.55,2.43-2,3.83-4.75-5.3-6.06-12.11-8.15-18.57C408.67,320.24,408.92,316.71,406,314.52Z"/><path class="cls-4" d="M451.75,662.07a349.48,349.48,0,0,0,55.51-3.89,9.59,9.59,0,0,1,2-.1c19,1.12,37.77-3.22,56.76-2.05,22.65,1.39,45.2-1.29,67.75-2.38,21.07-1,42.1-4.27,62.92-8.22,24.34-4.61,48.93-5.75,73.23-1.12,24.84,4.74,38.43,22.17,45.35,45.41a59.1,59.1,0,0,1,2.54,19.67c-.35,7.65-.29,15.34,0,23,.53,15.72-2.4,31-5.21,46.33-6,32.58-13.79,64.74-20.33,97.18a506.64,506.64,0,0,0-8.12,54.94c-.89,10.06,1.1,20.47,2.44,30.63,3.14,23.92,13.23,45.85,20.21,68.67,6.13,20,10.61,40.35,11,61.44.13,7.4-1.56,14.53-2.92,21.63-2,10.35-11.14,17.19-21.66,18.94-37.36,6.23-75,3.37-112.52,3.71-8.52.08-17.06-2-25.59-3-2-.25-3.94-.62-5.92-.75-25.9-1.64-51.81-2.41-77.77-2-11,.18-22,0-33,0-20.27-.08-40.38,1.91-60.53,3.75-28,2.55-55.9,7.51-84.25,6.39-7.89-.32-15.71,2-23.76,2-17.37-.13-34.21-3.83-51.13-6.87-8.44-1.52-10.84-5.09-10.94-14.06-.16-15-1-30.07.22-45,1.24-15.45,3.94-30.8,6.48-46.15,4.7-28.43,12.68-56.17,16.9-84.66a189.9,189.9,0,0,0,1.87-24.74c.25-17.31,3.28-34.46,2.45-51.76-1.68-35.11-4-70.14-14.68-104-1-3.17-2.29-6.24-3.46-9.35-2.39-6.3-1-8.8,5.07-7.27,11.89,3,23.87,1.16,35.79,1.65,8.81.37,8.59.15,7.66,8.48-.68,6.12-.27,12.35-1.8,18.74,8.76-4.39,16.33-9.64,25.29-12.12,8.77-2.44,17.13-6.59,27.35-6.76-3.57,6.74-11.39,11.89-4.11,19.87,5.26,5.76,11.9,7.64,18.81,4.82,6.48-2.64,8.06-6.55,6.93-17.36,4.57-.5,8.17,2,12,3.79,5.75,2.71,11.58,5.12,18.15,4.57s8.25-3.42,4.34-9.06c-3.51-5.07-7.87-9.56-11.53-16.24,32.18-4.9,63.47-7.53,94.86-6.47,31.13,1.06,62.25,2.3,93.32,5.49C681,751,711.21,759.34,742,767.18c0-2.33.26-3.26,0-3.51-10.33-8.73-13.4-19.92-12.37-33.08.81-10.21-.73-20.57,3.7-30.45,1.79-4,3.42-7.82,6.3-11.18,2.43-2.84.15-4.77-2.38-4.48a29.59,29.59,0,0,0-10.36,3.19c-19.39,10.25-40.71,14-61.81,18.26-21.76,4.39-43.86,6.23-66,8.33-19.82,1.89-39.72,2.47-59.49,4.22-29.31,2.58-58.55.72-87.8,1.45-7.6.19-15-2.59-22.76-2.15-2.1.11-4.56-1.18-6.41-2.46C404.81,703,385.91,692.5,367.8,680.75c-6.95-4.5-13.38-9.79-20.05-14.72,1.4-6.2,6.61-4.62,10.5-4.68,19.31-.28,38.62-.06,57.93-.28,1.83.1,3.68.12,5.51.13C431.72,661,441.76,660.84,451.75,662.07Z"/><path class="cls-5" d="M419.75,338q-5-14.1-9.89-28.21-.24-4.77-.49-9.54c-2.85-7-.65-13.55,1.77-22-3.79,9.49-2.32,18.2-5.1,26-5.21,8.11-11.16,15.81-14.14,25.15a4.6,4.6,0,0,1-4.29,3.46c-6.47.76-12.06,3.69-17.36,7.23-3.31,2.21-5.47,2.22-8.08-1.53a185.06,185.06,0,0,0-30.05-33.22c-21.41-18.8-45.66-32.12-75.06-33.33-2.71-.11-5.69.06-6.79-2.92s1.33-5,3.33-6.68c27.47-23.15,36.51-55.42,43.84-88.52a27.13,27.13,0,0,0-.47-13.06c-2.51,11.2-5.2,20.65-10.38,31.1-7.52-30.68-13.36-60-7.82-89.85C290.52,38.63,353.9-8.2,425.23,12.85a175.82,175.82,0,0,1,71.34,40.7c46,43.11,74.85,95.77,84.38,158.19,6.89,45.15-1.11,87.54-28.53,125.18-11.53,15.81-26.28,27.35-45.18,32.92C474.86,379.38,441.35,372.36,419.75,338Z"/><path class="cls-6" d="M351.84,336.34c-7.69-2.62-13.06-5.74-19.38-6.72-37.1-5.8-77.18,26.94-77.36,66.72-.09,21.53,6,39.88,21.28,55.12,6,6,12.92,10.6,21.11,12.84,5.18,1.41,7,4.22,6.09,9.41-.45,2.59-.1,5.32-.27,8-1,14.21,3.13,26.26,15.43,35C301,530,281.12,538.3,261.64,547.51c16.57,1.45,30.07-8.27,45.5-12.76,1.28,7.47-1.67,14-2.59,20.74-.45,3.24-3.84,4.57-6.67,5.46-11.95,3.78-23.9,5.84-35.55-1.2-5.51-3.33-12.2-2.76-18-5.4-33.1-15-65.55-30.74-94.24-53.74-21.31-17.09-40.39-35.7-54.16-59.41-1.17-2-2.27-4.07-3.48-6.06-6.16-10.12-5.2-19.29.79-29.8,19.84-34.75,44-66,73.47-92.91,17.72-16.18,36.65-30.95,58.64-41.21a86.34,86.34,0,0,1,18.84-6.52c-.82,4.18-5.73,5.17-5.77,10.62,14.33.61,28.94,1.1,42.36,7.22,13.66,6.23,27,13.18,39,22.22C331.32,313.43,343.08,322,351.84,336.34Z"/><path class="cls-6" d="M212.93,611.81c-2.61,10.82-.26,21.32,1.16,31.67,2.54,18.41,5.76,36.76,11.69,54.51,2.76,8.27,6.67,16,10.64,23.66,15,29,27,59.28,37.56,90.15,11.78,34.31,24.1,68.44,40.81,100.78,2.58,5,4.41,10.4,6.52,15.64.22.55,0,1.28-.11,2.76-2.88-.78-4-3.05-5.36-5-9.85-14.33-17.32-30-25-45.51-11.49-23.38-24.14-46.14-41.16-65.92-11.7-13.6-22.52-28-35.15-40.8-25.47-25.87-51.08-51.63-75.8-78.21-23.57-25.33-46.64-51.14-64.43-81.2C56.85,584.81,51,553.3,55.23,519.44a238.68,238.68,0,0,1,11.05-48.26c3-.94,3.79,1.39,4.85,2.86,17.87,24.58,42.05,41.43,68.28,55.75,19.87,10.84,40,21.1,61,29.8,3,1.27,6.24,2.41,8.72,5.53-5.73,8.44-14.16,13.57-22.91,18.28-1.73.93-4,1-5.21,2.72-.8,1.15-.93,2.63.68,3.23a7.29,7.29,0,0,0,3.89.48c9.6-2.14,19.17-.18,28.75,0,5.84.14,11.2-1.67,16.27-4.21,3.31-1.66,5.78-1.38,9.21.19a218.72,218.72,0,0,0,25.71,9.93c7.38,2.3,14.55,4.6,20.59,9.65,2.79,2.33,4.92,1.51,5.7-2.08.45-2.05-.81-5.35,3-5,4.07.39,2.91,3.74,2.69,6.23-3.86,42.36-14.31,83.11-30.08,122.54-2.59,6.46-5.26,12.89-8.47,20.73A320.13,320.13,0,0,1,212.93,611.81Z"/><path class="cls-6" d="M107.19,897c22-7.13,40.35-20.37,60.12-32.41.9,6.25-1.59,11.09-3.07,16-5.41,18-14.81,34.17-23.53,50.65-3.58,6.76-7.43,13.39-11.2,20.06a42.8,42.8,0,0,1-3.67,5.93c-7.71,9.56-15.56,9.38-22.53-.72-4.18-6.05-6.81-12.93-9.57-19.74a321.87,321.87,0,0,1-17.85-60.17c-3.69-19.25-6.71-38.62-10.09-57.93A156.17,156.17,0,0,0,60,794.39c0,3.89-.54,7.87.08,11.66,3.74,22.64,3.87,45.68,7.6,68.32,2,12.13,4.73,24.1,7.86,36,1.37,5.2.59,6.69-4.26,7.58-4.64.84-7.05-.7-7.32-5.55-.49-8.64-1-17.26-1.63-25.89-1.88-25.86-9.31-50.21-18.47-74.17-8.66-22.69-17.6-45.26-24.65-68.55-10-33-10.36-66.16-2.58-99.55,6.68-28.63,17.24-55.86,30.75-83.77A251.25,251.25,0,0,0,56.24,593c6.66,19.11,17.91,35.65,29.58,51.84,13.64,18.93,29.33,36.24,45.21,53.29,20.21,21.69,41.11,42.73,61.64,64.11,9.69,10.09,19.06,20.49,28.89,30.44,3.89,3.93,3.75,6.5.18,10.72-21.86,25.91-47.23,47.77-75.14,66.87C133.45,879.25,120.53,888.57,107.19,897Z"/><path class="cls-7" d="M337.71,658c-3.6-3.92-4-6.94.07-11.68a194.58,194.58,0,0,0,21.93-32c6.19-11,16.05-17.45,28.82-15.83,12.3,1.56,24.58.64,36.82,1.57,38.53,2.91,77.11,2.07,115.68,1.79,14.92-.11,29.63-2.58,44.35-4.72a465.1,465.1,0,0,0,64.08-13.78c7.1-2.08,14.27.45,19.94,4.1,19.2,12.35,41.31,18.2,61.41,28.49,11.79,6,24,11.3,37.14,19.85-5.79,0-9.62.69-13.1-.12-15.67-3.65-31.13-.45-46.52,1.41-22,2.65-43.7,7.52-65.89,9.34-24.51,2-49,3.5-73.58,3.66-29.9.2-59.66,2.43-89.39,5.65-9.87,1.07-19.92.47-29.75,2.43-8.1,4.8-16.8,2.63-25.32,2.07-1.79-.12-4.39-.71-4.22-3.27.16-2.35,2.62-2.93,4.48-3.1,10.58-.93,21.2-1.22,31.77-2.67a425.5,425.5,0,0,0,49.86-9.49c2.9-.76,7.75-.63,7.26-5.06-.35-3.12-4.45-3.3-7.39-3.87-20.89-4-41.83-2.27-62.59.45-22.05,2.89-44.07,6.17-66,9.65-4.58.73-12.35.6-11.72,6.27.6,5.46,8.17,3.79,13,3.94,8,.26,16-.14,24,.22,3.28.15,8.43.21,8.41,3.58,0,4.85-5.25,5.08-9.32,5.12-11.33.11-22.66,0-34,0C357.62,662.08,347.31,662.77,337.71,658Z"/><path class="cls-6" d="M469.09,769.52c-4.65,1.21-7.84-1.71-11.26-3.41-13.08-6.55-25.7-14-39.6-18.89-13.35-4.69-27.13-6.53-41.13-6.91-13.65-.37-27.35.26-41-.62-17.95-1.16-35.67-3.91-52-12.33-4.24-2.18-6-4.21-4.12-9.19,10.37-27.46,17.19-55.87,21.86-84.59a2.86,2.86,0,0,1,3.69,1.41c12,19.5,29.42,33.26,47.79,46.12,19.95,14,41.58,25.13,62.28,37.86a199.06,199.06,0,0,1,51.62,45.12C468.24,765.36,469.55,766.53,469.09,769.52Z"/><path class="cls-8" d="M265,754.84c3.26-6.52,6.18-13.22,9.41-20.23,8.88,4.43,17.48,8.71,27,10.36,3.61.62,4.49,3.5,5.58,6.31a290.26,290.26,0,0,1,16.38,63.65c4.43,30.42,4.57,61,3.55,91.68-.11,3.2.14,6.55-2.06,10-11.76-21.65-20.93-44.05-29.28-66.76"/><path class="cls-7" d="M723.72,698.85c-1.89,9.38-4.79,17.62-3.87,26.29s1.94,17,2.91,25.53c-1.27,1.58-3,1.46-4.57,1-30.54-8.46-61.82-11.49-93.29-14.07a956.13,956.13,0,0,0-103.62-3.26c-19.21.51-38.46,1.66-57.45,5.22-10.39,1.94-16-1.05-24.4-12.77,3.24-1.25,6.6-.94,9.7-.47,20.55,3.11,41.22,1.71,61.8,1.29,24.89-.5,49.83-1.63,74.61-3.92,38.92-3.6,78-6.39,115.88-17.51C708.59,704.1,715.36,700.57,723.72,698.85Z"/><path class="cls-9" d="M313.93,394.33c-21.27,3.22-34.11,16.5-41.51,36.1-3.49-1.1-3.89-3.55-4.62-5.49-18.77-50.08,21.25-89,59.06-87.13,9.75.48,18.12,3.95,24.73,11.29,1.87,2.08,3.53,4.29,1.3,7-6.38,7.77-9,17.8-15.4,25.55C327.25,381.44,319.22,385.34,313.93,394.33Z"/><path class="cls-10" d="M233.61,552.85c-6.17,3.24-12.18,4.48-17,8a4.66,4.66,0,0,1-5.54.21c-31.53-17.83-65.34-31.56-95-52.85a180.09,180.09,0,0,1-40.22-39.88c-4.72-6.41-5.66-12.1-2.14-19.19,3.24-6.52,5.69-13.43,8.45-20.07,3.6.58,3.22,3.41,4.06,5.37,7.26,17.13,18.16,31.9,31.25,44.78,27.52,27.05,58.78,48.86,94.3,64.3C218.73,546.6,225.75,549.52,233.61,552.85Z"/><path class="cls-11" d="M337.71,658c52.52,3.19,63.63,3,71.79-2-10.79,0-21.58-.07-32.37,0a40.49,40.49,0,0,1-12.75-1.92c-2.39-.75-4.34-1.84-4.61-4.56s1.52-4.26,3.69-5.36c7.54-3.85,15.8-5.24,24-6,16.87-1.46,33.4-5.12,50.17-7.18,23.09-2.83,46.21-5.44,69.4-1,4.81.92,11.54,1.51,12,6.9.59,6.65-7,5.94-11.31,7.14-17.56,4.94-35.59,7.52-53.62,10.27-10.73,1.64-21.51,1.39-32.21,3.78h27.78c0,1.65.44,3.09,2,3.93-2.62,2.92-6.13,1.85-9.3,1.91-6.92.12-13.84,0-20.76,0q-2-2.1-4,0c-19.89,0-39.79,0-59.69.12-3.47,0-7.38-1.4-10.28,2Z"/><path class="cls-12" d="M373,369.59c4.24,4.87,7.35,10,6.76,16.85-2,23.22-5.62,46.07-13.93,68-5.63,14.82-14.44,27.63-25.1,39.21-3.39,3.68-7.22,7.63-12.79,6.16-6.41-1.7-6.16-8-7.42-13-1.36-5.36.9-10.51,1.45-15.76.3-3,3-3.43,5.22-3.79,22.13-3.6,33-19.54,41.06-38C376.61,410.05,377.33,390.1,373,369.59Z"/><path class="cls-13" d="M129.2,1149.33c-2.21-.8-1.78-2.65-1.8-4.11-.4-31.93-4.86-63.6-6.15-95.49-.62-15.6-5.11-30.77-8.14-46.08-1.54-7.82-2.87-15.69-4-23.57-1.29-8.59-1.16-8.61,9.12-8.27,0,11.51-.28,23.07,1.16,34.61,3.45,27.68,7.42,55.31,9.39,83.17,1.26,17.91,2.1,35.84,2.39,53.79C131.15,1145.46,131.91,1148,129.2,1149.33Z"/><path class="cls-14" d="M51.53,1003.88c-5.82,14.19-8.59,29.2-11.84,44.08-2.46.74-4.11.1-3.46-2.72,1.32-5.84,2.91-11.62,4.4-17.41,5.63-21.91,11.39-43.79,15.63-66a177,177,0,0,0,3.23-27.72c.3-9.71,1.35-9,8.71-10.3,1.94-.34,3.86-.85,5.8-1.22.24,0,.56.28,1.81,1C67.63,950.11,58.4,976.65,51.53,1003.88Z"/><path class="cls-15" d="M267.38,573.45a32.76,32.76,0,0,1-5.28,12.11,4.2,4.2,0,0,1-5.13,1.75,76.63,76.63,0,0,1-9.32-3.25c-10.67-4.9-11.8-8.87-5.34-18.56,2.11-3.15,4.77-5.36,9.13-4a71.39,71.39,0,0,1,13.67,5.67C267,568.16,268.11,569.65,267.38,573.45Z"/><path class="cls-16" d="M370.28,523.67c.36-9.69.4-19.29-3.44-28.46-.81-1.93-1.2-3.81,0-5.68,4.82-7.41,9.67-14.81,14.95-22.9C384.46,480.63,379.29,506.33,370.28,523.67Z"/><path class="cls-17" d="M391.53,351.89c5.74,6.21,6.6,12,6.53,18-.23,17.88-6.33,34.23-13.67,50.37A528.67,528.67,0,0,1,391.53,351.89Z"/><path class="cls-18" d="M243.14,557.7c-5.16,5.7-9.38,8.8-15.7,8.45a7.08,7.08,0,0,0-7.16,4.4c2.39,2.07,4.29-.54,6.45-.53,3.07,0,6.05-.49,6.38,4.05.29,4,.35,7.51-4.94,7.68-8.47.26-17,3.36-27.09-.12C214.72,572.23,223.46,557.36,243.14,557.7Z"/><path class="cls-19" d="M313.93,394.33c4.66-14.19,10.1-17.12,23.56-12.67-4.16,8.53-8.33,17.06-12.55,25.7C317.58,405.7,316,399.83,313.93,394.33Z"/><path class="cls-20" d="M280.84,570.22c7.92-.62,14.42-1.31,21.32-4.5.18,10.13-1.66,18.9-3.31,27.81-6.41.19-10.37-1.9-11.3-8.5C286.86,580.13,284.45,575.75,280.84,570.22Z"/><path class="cls-21" d="M362.39,376.11c4.65,13.12,4.84,24.23.78,36.18-3.86-4.38-7-9.11-11.72-12.17a3,3,0,0,1-1-4.31C354,389.24,357.53,382.65,362.39,376.11Z"/><path class="cls-22" d="M374.13,763.53c.31-13.13.69-13.55,11.6-13.47,3.3,0,6.61.19,9.9.48.87.07,1.68.86,3.52,1.86C391.32,757.8,382.37,758.65,374.13,763.53Z"/><path class="cls-23" d="M285.18,596.06l-18.13-4.87c2.7-7.58,2.7-7.58,10.5-4.55-1.13-4.45-6.42-7.83-2.21-13.79C282.39,578.75,281.74,587.48,285.18,596.06Z"/><path class="cls-24" d="M383.32,370.11c-10.55-10.92-10.39-12.08,2-17.66C386.68,358.56,384.2,363.9,383.32,370.11Z"/><path class="cls-25" d="M431.14,772.39c0,2.35-1.66,3.66-4.13,4.14-3.48.67-8.6-1.74-8.79-4.43-.25-3.51,2.81-3.92,5.27-4.35C427.4,767.05,430.71,769.05,431.14,772.39Z"/><path class="cls-26" d="M406,304.17c-.33-9.29.65-18.35,5.27-26.86q-1,11.47-1.94,22.94C408,301.3,408.13,303.7,406,304.17Z"/><path class="cls-27" d="M353.11,507.29c0-2.71,2.35-3.82,3.84-5.47,1-1.06,2.34-1.55,3.33-.26a8.75,8.75,0,0,1,1.35,3.62,2.16,2.16,0,0,1-2,2.82C357.47,508.24,355.17,509,353.11,507.29Z"/><path class="cls-28" d="M375.69,1008.78c2.73-27.87,2.92-55.86,1.78-83.75-1.75-42.93-7.42-85.23-27.41-124.27-2-3.88-3.95-7.65-7.2-10.68a21.84,21.84,0,0,1-3.47-4.82c-1.06-1.74-1.85-3.63-.08-5.45a4.43,4.43,0,0,1,6.31-.57c5.4,4,11.55,6.64,17.56,9.47,15.15,7.15,31,8.86,47.54,6,9.47-1.62,19.15-.65,28.71-2.52,11.33-2.23,23.12-2.3,34.36-4.86,7.54-1.72,15.17-1.64,22.66-2.62,9.77-1.27,19.62-3.34,29.68-2.82,6.94.36,13.92.51,20.8-1.57,2.76-.83,6-.56,9-.21,19,2.24,38.16,3.68,56.91,8.35,24.43,6.08,48.35,14.29,73.22,18.47,10.08,1.69,20.25,3.61,30.61,3,9-.49,17-2.86,21.62-11.63a25.16,25.16,0,0,1,2.73-4.17,5.39,5.39,0,0,1,6.3-1.72c2.39.81,2.39,3,2.41,5,.08,8.48-2.72,16.29-5.74,24-4.34,11.12-9.3,22-12.28,33.63-2.88,11.25-4.35,22.71-6.12,34.16-3.16,20.57-1.22,41.18-1.83,61.77-.77,25.49,7.22,48.33,21.08,69.38,7.12,10.82,14.13,21.73,21.46,32.4,2.82,4.1,5.33,8.35,2.22,12.76s-8.48,5.12-13.62,4.26c-12.07-2-24.19-3.84-36.11-6.54a312.69,312.69,0,0,0-64-7.39,479,479,0,0,0-57.73,2.33c-28.29,3-56.44,7.28-84.06,14.34a443.54,443.54,0,0,1-56.47,11,135.25,135.25,0,0,1-47.59-2.22,28.9,28.9,0,0,1-18.22-12.83c-9.67-14.89-15.49-30.77-15-48.7C375.78,1016.11,375.69,1012.45,375.69,1008.78Z"/><path class="cls-29" d="M555.75,762.31c-.12,7.33-5,11.75-13.07,11.73-7.11,0-15.29-7.26-14.81-13.11.54-6.47,5.9-10.95,13-10.91C550.24,750.08,555.87,754.74,555.75,762.31Z"/><path class="cls-30" d="M647.69,772c-5.08.67-8.67-2.74-12-5.68-3.94-3.43-1.42-11.46,4.06-14,5.92-2.75,11.71-1.49,16.85,1.8,3.36,2.15,6.11,5.35,4.8,10S654.23,772.25,647.69,772Z"/><path class="cls-1" d="M417.72,664c.28-1.44.29-3.35,2.43-3,1.29.24,1.42,1.77,1.54,3Z"/><path class="cls-31" d="M599.66,600.09c4.47-3.81,10.22-2.28,15.25-3.09a110.86,110.86,0,0,1,40.58,1.38,16,16,0,0,1,5.36,2.58c2.87,1.95,2.6,4.3.41,6.7-3,3.31-7.5,3.65-11.34,6.5,2.73,0,5.48.17,8.19,0,13.67-1,27.15,1.52,40.74,2.08a19.7,19.7,0,0,1,12,4.22c3.61,3,3.52,6,0,9.23-2.84,2.59-6.52,3.33-10,4.15-19.38,4.56-39.09,6.63-58.89,8.54-20.59,2-41.14,1.49-61.72,1.71-3.68,0-7.34,0-10.64-2-3.82-2.31-4.18-5.09-.74-7.82a26,26,0,0,1,5.26-2.67A175,175,0,0,1,623.41,617c-7.14-.86-14.18-.5-21.29-.21-9.21.37-18.48-.49-27.71-.93a4.18,4.18,0,0,1-3.8-2.82c-.76-2.34.88-3.86,2.71-4.69,3-1.36,6.12-3,9.32-3.37,6-.75,11.44-3.16,17.1-4.94Z"/><path class="cls-32" d="M449.89,608c8.6.34,17.33-.8,25.74,2a25.17,25.17,0,0,1,5.53,2.1c3.45,2.18,3.32,5.61,0,8-2.89,2-6.33,1.82-9.57,2.45-15.36,3-30.74,5.09-46.39,2-5.5-1.1-11.34.55-16.75-1.88-1.79-.8-4.12-1-4.43-3.42-.36-2.75,1.53-4.3,3.82-5.18a96.93,96.93,0,0,1,28.09-5.92C440.55,607.78,445.23,608,449.89,608Z"/><path class="cls-33" d="M369.46,648.66c4.26-3,9-4,13.8-4.61,20.35-2.54,40.64-5.84,61.07-7.46,13.75-1.1,26.89-7,41.06-4.59,8.32,1.42,16.93,1.27,24.89,5C464.14,650.82,417,651.44,369.46,648.66Z"/><path class="cls-34" d="M382.2,899.56c-2.2-36.11-12.46-70.23-26.78-104.84,7.92,2.73,14,6,20.79,7.3A127.64,127.64,0,0,0,411,803.51c23.18-1.83,46.12-5.54,69.14-8.68,7.85-1.08,15.78-1.64,23.67-2.43-26.74,33.33-46.83,71.24-72.5,105.33-1.82,2.67-3.38,5.7-7.39,5.33q-14.87,0-29.71-.08C389.89,903,385.48,903.17,382.2,899.56Z"/><path class="cls-35" d="M383.45,1004.09c.58-15.33-1.39-30.8,2.53-45.94,9-15.75,17.42-31.91,31.43-44.13a17.68,17.68,0,0,1,3.36-.73c28.82-.8,57.63-.26,86.44-.3,3.31,0,6.63.23,9.61,1.94,3.16,2.63,2.69,5.87,1,8.94-13.41,25-26.56,50.11-41.28,74.37a4.84,4.84,0,0,1-1.57,1.21,11.83,11.83,0,0,1-3.28,1.09,189,189,0,0,1-39.81,2.49c-12.7-.54-25.24,1.09-37.84,2.18C390.51,1005.52,386.77,1006.55,383.45,1004.09Z"/><path class="cls-36" d="M429.76,896.09c20.79-31.23,41.66-62.4,62.28-93.73,3-4.63,6.48-8.21,11.72-10a222.27,222.27,0,0,1,77.88-2c4.09,1.72,2.79,4.88,1.6,7.48-6.61,14.4-13.79,28.53-21.22,42.52a11.73,11.73,0,0,1-7.57,6c-17.6,3.77-35.73,3-53.37,6.36-13.91,2.65-26.22,7.4-31.53,22.23-1.62,4.53-1,9.23-1.21,13.85-.27,6.32-3.58,9.87-9.52,11-8.55,1.66-17.25,1.05-25.88,1.33C430,901.32,427.64,899.76,429.76,896.09Z"/><path class="cls-34" d="M556.1,844.41c2-1.31,3.08-3.31,4.13-5.4,6.95-13.81,14-27.58,20.94-41.38,1.16-2.3,2.71-4.64.47-7.19a496.25,496.25,0,0,1,61.89,14.12c12.69,3.69,25.7,5.83,38.47,9.07-11.81,11.88-17.59,27.57-25.94,41.61-5,8.47-9.57,17.27-14.57,25.79-1.7,2.52-2.78,5.72-6.57,5.89-2.32,0-4.64-.33-6.94-.17-8,.55-11.56-2.38-12.53-11C613.37,857.09,604,849.63,585,848.77c-9.5-.43-19.16,1.53-28.5-1.66A1.64,1.64,0,0,1,556.1,844.41Z"/><path class="cls-34" d="M709.83,1000.33c4.91.42,10.39-3.65,14.28-.8,3.34,2.45,4.36,8,6.6,12,8.38,15.14,18.56,29.11,28.46,43.25,1.48,2.1,3.8,3.79,3.68,6.88-3,3.21-6.72,2-10.21,1.36-16.63-3.09-33.19-6.55-49.85-9.38-20.95-3.56-42-5.45-63.35-4.26-7.29.41-14.61.22-21.92.3-2.23-3.66.44-6.28,2.16-8.86,7.63-11.44,15-23,22.93-34.31a6.76,6.76,0,0,1,4.34-1.74c17.68-2.09,35.57-2,53.13-5.27C703.44,998.88,706.52,1000.79,709.83,1000.33Z"/><path class="cls-34" d="M525.8,1062.16c-16.73,5.32-34,8.41-51.17,11.73-14.7,2.84-29.63,3.54-44.55,4-3.58.12-7.34.71-10.64-1.51,12.64-3.05,17-13.5,22.39-23.73,6.7-12.81,13.33-25.71,20.94-38.05a5.77,5.77,0,0,1,4.54-1.67c26-.2,52-1.74,77.95-3.51,3.3-.22,6.59-.42,9.8.54,5,1.84,3.24,5.25,1.4,8C546.44,1032.85,537.75,1048.64,525.8,1062.16Z"/><path class="cls-36" d="M639.57,879.94c11.11-20,22.32-40,33.24-60.07,2.14-3.94,4.8-6.12,9.2-6.24,8.23,1.12,16.39,2.86,24.76,2.74,5.32-.08,10.65-.2,16-.11,5,.08,9.42-2.22,14.4-4.4.75,4.13-1,6.72-2.09,9.28a231.84,231.84,0,0,0-15.72,54.48,9.85,9.85,0,0,1-1.29,2.6,15.06,15.06,0,0,1-7.38,2.79c-19.84,2.29-39.73,4.07-59.72,4C646.81,884.94,641.15,886.54,639.57,879.94Z"/><path class="cls-36" d="M525.8,1062.16c-.16-2.12.83-3.77,2-5.46q15.06-22.25,30-44.56a7.21,7.21,0,0,1,3-2.22,40,40,0,0,1,12.71-2.46c19.34,0,38.58-2,57.88-2.41,4.24-.09,8.78-.53,12.2,3-5.63,11.19-13.58,20.9-20.16,31.48-2.06,3.32-5,6.14-5.92,10.13C586.75,1052.39,556,1055.31,525.8,1062.16Z"/><path class="cls-36" d="M463.51,1016.12c-3,9.94-9.4,18.2-13.84,27.44-3.88,8.07-8.9,15.61-12.62,23.75-3.06,6.69-7.32,9.9-14.7,8.63a9.53,9.53,0,0,0-2.91.48c-12.12-.08-20.67-5.82-26.31-16.39-6.68-12.5-10.3-25.7-9.7-39.95a8.22,8.22,0,0,1,6.2-2.76c22.55-.88,45.06-2.39,67.59-3.56A7.27,7.27,0,0,1,463.51,1016.12Z"/><path class="cls-34" d="M711.85,902.1c3.67,4.13,4.24,8.89,4,14.33-1.05,22.48-.48,44.92,3.27,67.18a6.19,6.19,0,0,1-5,2.84c-17.94.55-35.71,3.64-53.67,3.51-6.9-3.81-2-8.08.15-11.35,11.24-17.19,21.45-35,33.12-52q6.5-9.4,12.11-19.38C707.62,905.35,707.64,901.24,711.85,902.1Z"/><path class="cls-37" d="M711.85,902.1c-3.11.85-1.62,4.72-4,6.08-24.9,3.61-50.07,4.1-75.07,6.62A21.38,21.38,0,0,1,624,914c-4.73-2-3.93-5.69-2.07-8.93,3.71-6.46,6.46-13.62,12.48-18.55l1.53-.37c2.86-1.09,1.09-4.92,3.66-6.19,2.55,3.12,6.09,2,9.28,2a466.54,466.54,0,0,0,56.27-3.73c4.25-.51,8.61,0,12.92,0C717.06,886.46,718.66,895.37,711.85,902.1Z"/><path class="cls-37" d="M463.51,1016.12c-16.23,3.68-32.89.69-49.29,3.47-10,1.69-20.51.43-30.79.49a25.63,25.63,0,0,1,0-16c8.83-3.12,18.26-3,27.28-3.64,21-1.52,42.22.34,63.25-2.22-.08,6.7-2.38,12.21-8.42,15.72C464.88,1014.67,464.2,1015.4,463.51,1016.12Z"/><path class="cls-38" d="M657.59,987.87c11.87-1.09,23.73-2.35,35.62-3.21,8.61-.63,17.26-.72,25.89-1,2.35,3.36,3.09,7.21,3.42,11.69-4.23,1.07-8.58,2.17-12.91,3.32-.16,0-.3.58-.26.86a2.6,2.6,0,0,0,.48.85c-3.72,3.08-8.29,1.5-12.44,2.25-12.72,2.29-25.52,4.34-38.47,3.61-4.45-.25-8.94,3.65-13.26-.18-.06-7.65,6.05-12.1,9.31-18A2.48,2.48,0,0,1,657.59,987.87Z"/><path class="cls-39" d="M415.91,916.28q-13.26,19.2-26.55,38.37a29.31,29.31,0,0,1-3.38,3.5q-1-17.21-2-34.41c-.14-2.65-.3-5.44,3.37-6C396.74,913.89,406.08,910.36,415.91,916.28Z"/><path class="cls-40" d="M415.91,916.28c-9.59-1.27-18.91,2.87-28.51,1.46-6.33-4.75-4.8-11.74-5.2-18.18,11.54.09,23.09.08,34.62.35,3.08.07,6.73-1.4,9,2.18.29,6.5-4.07,10.14-8.48,13.74A3.77,3.77,0,0,0,415.91,916.28Z"/><path class="cls-41" d="M541.81,759.73c2.82.51,6.45.65,6.65,4.45.18,3.45-2.89,4-5.69,3.84-3.89-.17-7.47-3.17-6.75-5.74C536.83,759.39,539.39,759.66,541.81,759.73Z"/><path class="cls-42" d="M648,759.37a19.39,19.39,0,0,1,4.23.93,2.88,2.88,0,0,1,1.77,3.11,2.61,2.61,0,0,1-2.52,2.46,14.66,14.66,0,0,1-4.78-.22c-1.81-.52-4-1.45-3.72-3.76C643.24,759.39,645.68,759.74,648,759.37Z"/><path class="cls-43" d="M702.07,625.07c-1.52,2.08-3.78,2.45-6.08,2.93-38.44,7.92-77.53,7.51-117.36,9.94C593.81,625.12,681.16,616.48,702.07,625.07Z"/><path class="cls-44" d="M579.87,610.84c24.35-7.68,48.81-12.2,74.08-5.49C629.58,611.49,604.75,612.26,579.87,610.84Z"/><path class="cls-7" d="M599.66,600.09a20.11,20.11,0,0,1,2.9-.05,5.71,5.71,0,0,1,1.64.78c-.49.35-1,.94-1.46,1a2.61,2.61,0,0,1-3-1.83Z"/><path class="cls-45" d="M476.12,617.4c-10.18,1.17-20.14,2.9-30.44,2.78a198.81,198.81,0,0,1-29.48-2.55c5.37-3.33,5.37-3.52,9.73-3.55q21.84-.14,43.69,0C472,614.09,475.16,613.27,476.12,617.4Z"/><path class="cls-46" d="M417.37,915.83c1.43-5.44,5.36-9.34,8.48-13.74,2.49-1.23,1.22-4.91,3.91-6,.33,1.64.68,3.71,2.88,3.1,7.2-2,14.53-.71,21.77-1.21,9.76-.67,11-2.13,11.2-12,.07-4-.16-7.85,1.05-11.81,3.93-12.9,14-19,25.71-22,20.82-5.44,42.41-5.68,63.72-7.68,0,.67-.05,1.34-.08,2a4.88,4.88,0,0,1,.83,4.12c-1,3.23-1.75,6.66-5.42,8.12a3.64,3.64,0,0,1-2.38-1.35c-9.87-5.62-20.94-3.29-30.94-2.47-9.25.77-19,1.45-28.19,4.3-1.32.2.09,2.08-.37.82-.14-.4.09-.65.7-.69,9.43-.63,19.15-3,27.91-3.26,9.84-.28,21-3.4,31,1.49a2.78,2.78,0,0,1,1.12,2.75,6.58,6.58,0,0,1-3.36,3.37c-19.94,3.34-40.25,2.47-60.24,5.34-6.18.88-11.76,2.18-13.54,9.43-3.05,12.43,1.73,17.5,14.52,17.36s25.63-3.59,38.59-2a9.32,9.32,0,0,1,2.92,1.15,3.6,3.6,0,0,1,1.49,2.52c-.74,7.44-5.82,12.87-9,19.18-1,1.12-2.06,1.95-3.67,1.64-2.85-3.38-6.76-2.07-10.23-2.09Q462.53,915.88,417.37,915.83Z"/><path class="cls-34" d="M517.92,918.22l2-2.38c2.34-1.26,4.71-2.57,7.44-2.62,28.49-.51,56.92-2.37,85.36-4a13.28,13.28,0,0,1,3.9.6c6,2.17,3.83,6.46,1.83,9.69C603,944.34,588.77,969.89,572,993.89a11.63,11.63,0,0,1-4.61,2.36c-25.88,3.68-52,2.36-78,4.74-4.74.43-10,1-13.92-3.26,5.07-12.25,12.34-23.34,18.5-35C501.83,947.82,509.93,933,517.92,918.22Z"/><path class="cls-47" d="M475.46,997.73c25-.14,50-1.66,75-3.26,6.24-.4,12.53-.11,18.79-.13,0,7.74-4.75,12.74-10.19,17.31a2.51,2.51,0,0,0-1.25.49c-18.15,1.44-36.37,1.32-54.51,2.38-9.87.58-19.75,1.4-29.66,1.59-2.8,0-6.09,1.16-8.07-2.16L474,998.23A8.59,8.59,0,0,0,475.46,997.73Z"/><path class="cls-48" d="M549.28,860.07a6.35,6.35,0,0,0,.42-1.93l.13-.12,1.93-.83c8.15-3.77,17-.54,25.36-2.65,6.1-2.49,11.85,2.72,18,.24-6.31,1.79-12.47-3.7-18.84.19-7-2.11-14.68-1-21.44-4.35.41-1.4.82-2.8,1.22-4.19a121,121,0,0,1,39.33,1c13.12,2.39,19.47,11.43,22.44,23.43.92,3.75,1.8,7.71.4,11.87,3.78,2.13,7.43.85,10.89,1.08,2.47.17,5.44-1.06,6.84,2.31l-.33-.19c-9.07,2.92-17.35,6.81-25,13-6.93,5.6-16.57,4.75-25.13,3.9-15-1.49-29.87.3-44.78,0-4.08-.09-9.82,1.79-11.21-5a4.05,4.05,0,0,1,.75-1.68c5.29-5.17,12.11-4.93,18.72-5,16-.23,32,.19,47.93-.19,9.87-.24,13.16-3.41,13.73-12.06.61-9.36-2.09-12.86-11.68-13.52-12.63-.86-25.3,0-37.94-.46C556.7,864.71,551.23,866.31,549.28,860.07Z"/><path class="cls-49" d="M559.05,1011.65c2.26-6.45,7.24-11.28,10.19-17.31l2.18-2.53c25.39-4.37,51.2-3.63,76.73-6.25,3-.31,6,.08,8,2.81-2.13,6.69-6.93,11.8-10.51,17.64l-2.06,2.07c-23-1.05-45.93,3.16-69,2.15C569.45,1010,564.43,1013.11,559.05,1011.65Z"/><path class="cls-36" d="M656.17,988.37c-15.3,2.06-30.84.52-46.1,3.17a52.72,52.72,0,0,1-6.9.44c-7.54.3-15.11-.51-22.59,1.7-2.92.86-6.63,1.28-9.16-1.87L620,912.37c.27-.83.78-1,1.49-.49,16.85-.53,33.65-1.69,50.45-3.33,9.2-.89,18.47-1.17,27.68-2.36,2.81-.37,6.07-.91,8.29,2-8.68,16-19.74,30.54-29.15,46.11-6.84,11.32-14.08,22.39-21.14,33.58A3.27,3.27,0,0,1,656.17,988.37Z"/><path class="cls-50" d="M621.46,911.88a4.09,4.09,0,0,0-1.49.49c-20.76,1.34-41.57,1.72-62.33,3.32-12.51,1-25.15.16-37.73.15l9.54-18c1.71,2.78,4.52,2.38,7.1,2.27,8.55-.36,17.16.76,25.64-1.54,3.14-.85,6.47.09,9.76.52,11.78,1.55,23.63,2.12,35.28-1.14,3.21-.89,6.94-2,7.83-5.43,1.73-6.62,6.49-6.47,11.6-6.38,3,.06,6-.11,8.92-.17C631.47,894.91,624.76,902.47,621.46,911.88Z"/><path class="cls-51" d="M549.28,860.07c2.69,2.9,6.23,1.73,9.41,1.8,11.3.24,22.61.23,33.91.39a105.42,105.42,0,0,1,11,.54c9.23,1.09,10.37,2.5,10.53,12.12,0,1.66,0,3.33,0,5-.51,9.76-4.48,13.9-14.17,14.11-11.3.26-22.6.18-33.91.21-12,0-23.94-.46-35.77,1.91h-.65l-.63-.19c4.76-12,9.63-24,18.47-33.72Z"/><path class="cls-52" d="M547.39,862.23c-5.4,11.65-10.21,23.63-18.47,33.72-15.54-.24-30.91,1.91-46.31,3.55-6.3.67-12-3-12.69-9.42a58.66,58.66,0,0,1,.06-12.91c.81-6.74,4.76-10.43,13.23-10.88,10.22-.54,20.23-2.91,30.59-2.39C525,864.47,536.08,860.8,547.39,862.23Z"/><path class="cls-52" d="M549.7,858.14c-5.94.06-11.91-.73-17.75,1.35-1.8.63-4,0-5.91.49-3.66.88-5.83-6-8.41-2.78-2.32,2.89-4.87,2.62-7.38,3.6-4.8,1.86-10.34,2.66-14.58.67-5.16-2.42-7.93,5.65-12.69,1.39,4.14-6,10.75-7.76,17.1-8.36,15.12-1.44,30.25-3.16,45.53-2.73,5.58.15,4.58,3,4.22,6.25Z"/><path class="cls-53" d="M577.75,854.14c-.36,1.59-.74,3.15-2.84,3.27-7.73.44-15.45,1.32-23.15-.22l3-6.57c3,.07,6,.38,8.93.16A21.47,21.47,0,0,1,577.66,854Z"/><path class="cls-54" d="M577.66,854c7-4.87,14.62-1.28,21.94-1.62,2.45-.12,3.79,2.23,4,5.45-8.91.37-17.75,1.44-25.84-3.73Z"/></g></g></svg>