<svg xmlns="http://www.w3.org/2000/svg" viewBox="0 0 1768.98 600.88"><defs><style>.cls-1{fill:#010101;}.cls-2{fill:#ede7c2;}.cls-3{fill:#ffe650;}.cls-4{fill:#030201;}.cls-5{fill:#030301;}.cls-6{fill:#050401;}.cls-7{fill:#040401;}.cls-8{fill:#050502;}.cls-9{fill:#070702;}.cls-10{fill:red;}.cls-11{fill:#e50000;}.cls-12{fill:#0a9932;}.cls-13{fill:#0c9831;}.cls-14{fill:#ffdf78;}.cls-15{fill:#ffdb75;}.cls-16{fill:#ffd572;}.cls-17{fill:#ffd270;}.cls-18{fill:#ffc76b;}.cls-19{fill:#ffd06f;}.cls-20{fill:#ffc66a;}.cls-21{fill:#ffdf77;}.cls-22{fill:#fcd673;}.cls-23{fill:#fbcd6e;}.cls-24{fill:#fdda75;}.cls-25{fill:#fbc96b;}.cls-26{fill:#fccf6f;}.cls-27{fill:#fcd471;}.cls-28{fill:#fabd65;}.cls-29{fill:#fdd874;}.cls-30{fill:#ffd471;}.cls-31{fill:#ffd170;}.cls-32{fill:#ffc56a;}.cls-33{fill:#ffc86b;}.cls-34{fill:#ffd974;}.cls-35{fill:#ffc469;}.cls-36{fill:#ffc167;}.cls-37{fill:#ffcc6d;}.cls-38{fill:#ffc067;}.cls-39{fill:#ffc569;}.cls-40{fill:#ffcb6c;}.cls-41{fill:#ffca6c;}</style></defs><title>quiche_dish</title><g id="Layer_2" data-name="Layer 2"><g id="Layer_1-2" data-name="Layer 1"><path class="cls-1" d="M0,350.72C.28,309.27,4.91,268.26,12.1,227.5c1.62-9.19,4.8-18.47,4.32-27.55-.61-11.5,6.25-18.88,10.84-27.69,2.2-4.24,6-7,10.35-6.65C42.3,166,46.05,164.39,50,163,184.7,114.19,320.55,68.74,455.45,20.62c12.83-4.57,25.38-9.77,38.86-12.52,16.57-3.4,32.81-6.54,50.1-6.34,46.3.53,92.63-1.21,139-1.5,158.3-1,316.6,1,474.9,2.45,33,.3,66,.68,99,.93,5,0,10-.5,15-.61,18.64-.42,36.45,3.1,53.14,11.58,1.94,1,4.62,1.05,4.2,5-.24,2.3,4,2.94,6.33,4q195.21,89.76,388.81,183c10.8,5.23,20.27,12.43,31.13,17.37,5.39,2.46,7.35,8.36,7.63,13.25,1.42,24.62,4.9,49.06,5.46,73.74,1.89,83-24.05,156.55-74.64,221.86-10.82,14-22.28,27.41-33.71,40.88-3.14,3.71-6.08,7.38-8.16,12.41-2.46,6-9.29,11.17-16.95,12.6-5.23,1-10.54,1.55-15.83,2.1-4.53.47-8.33-2.39-13-2.52q-144.91-3.82-289.82-8.28c-149.57-4.38-299.18-7.66-448.81-9-126.3-1.13-252.62-1.4-378.93-1.78q-161.48-.48-322.87-5.33c-27-.81-54-2-80.92-2.91-12.81-.41-23.35-7.31-34.72-11.79-3.15-1.24-4.22-5-5.92-7.86-17.94-29.81-28.18-62.42-34.91-96.3A513.94,513.94,0,0,1,0,350.72Z"/><path class="cls-2" d="M874.68,216.05c156,1.41,311.91,5.08,467.86,7.61q171,2.78,341.94-.95c5.33-.11,10.7.23,16-.29,11.59-1.13,21.57,3.29,31.25,8.64,7.77,4.3,13,11.08,13.2,20,.82,39.2,6.2,78.3-.53,117.61-8.81,51.41-26.67,98.92-56.32,141.91-15.53,22.52-32.92,43.6-50.21,64.77-5.15,6.3-10.52,8.56-18.72,8.29q-173.86-5.76-347.77-10.86c-265.22-7.75-530.51-9.34-795.82-7.72q-168.48,1-336.93-3.26c-19-.48-38-1.68-57-1.55-9,.07-13.71-3.63-17.92-11.06-15.6-27.58-25.41-57.16-32-88C19.1,402.7,17.92,343.59,22.64,284.16c2.17-27.27,6.32-54.26,10.29-81.3,1.25-8.52,2.88-8.15,9.24-7.75,122.44,7.62,245,11.27,367.64,13.85Q642.24,213.85,874.68,216.05Z"/><path class="cls-3" d="M1702.76,210.63c-4.26,1.34-8.58.92-12.81,1-127,2-253.92,1.36-380.87-1.27-124.27-2.58-248.54-5.55-372.82-7.38-111.63-1.65-223.27-1.64-334.9-3-134.95-1.64-269.92-2.36-404.83-6.43C145.23,192,94,189.36,42.73,186.58a24.74,24.74,0,0,1-3-.16c-1.22-.21-2.82.11-3.17-1.7-.39-2,.91-3.14,2.47-3.78,2.77-1.13,5.63-2,8.46-3q203.88-71,406.43-145.67c4.06-1.5,8.26-2.74,12.12-4.66,22.62-11.22,46.55-13.59,71.61-14,126.64-2,253.26-1.89,379.89-.42,123.63,1.42,247.25,3.31,370.87,4.8,7.3.09,13.64,2.23,20,5.23q180.38,85,360.78,169.91c9.35,4.4,18.72,8.73,28,13.19C1699.2,207.26,1701.73,207.56,1702.76,210.63Z"/><path class="cls-4" d="M576.16,106.62c-35.34-.37-62.63-1-89.27-8.3-9.67-2.65-19.18-5.69-27.41-11.67-9.71-7.07-10.05-12.17-4.49-22.85,5.08-9.74,12.85-14.73,22.83-17.71a298.35,298.35,0,0,1,43.89-9.45c21.76-3.07,43.49-6.38,65.3-9,37.35-4.46,73.73.17,109,13.08a58.29,58.29,0,0,1,17.45,9.57c7.44,6.16,8.22,13.29,2.22,20.92-5.53,7-13.13,11.21-21.18,14.57-16.69,7-34.34,10.53-51.89,14.39A295.31,295.31,0,0,1,576.16,106.62Z"/><path class="cls-5" d="M895.15,170.38c-28.31-.08-56.55-1.19-84.53-6-9.53-1.63-18.92-3.87-27.81-7.75a62.69,62.69,0,0,1-11.39-6.12c-12.29-8.75-12.84-22.29-1.18-31.82,9.66-7.91,21.07-12.57,32.88-16.32,18.47-5.86,37.5-9.06,56.67-11.37,26.76-3.23,53.59-5.63,80.61-4.86,7.66.23,15.27.89,22.87,1.85C984,90.64,1001,100.38,1015,115.61c12.64,13.81,10.19,29.66-6.08,39.3-12.59,7.46-26.8,9.71-41,11.46A573.76,573.76,0,0,1,895.15,170.38Z"/><path class="cls-5" d="M1227,135c-32.14.07-63.78-3.61-94.76-12.39a178.54,178.54,0,0,1-31.57-12.35A53.92,53.92,0,0,1,1086,99.93c-9.09-9.31-9.45-20.49-.78-30.31,6.32-7.15,14.43-11.72,23.13-15.28,15.84-6.48,32.42-9.82,49.33-12,17.64-2.28,35.25-1.53,52.82.13,21.51,2,43.21,2.56,64.34,7.84,16.64,4.15,32.29,10.18,46,20.87,16.31,12.72,16.24,25.63.32,40.82-7.54,7.2-17.28,11.16-27.14,14.45C1275,132.82,1258.12,134.94,1227,135Z"/><path class="cls-6" d="M355.71,173.9c-20.3.16-43.28,1.36-66.2-1.36-8.95-1.06-17.85-2.37-26.2-5.94-14.35-6.15-16.5-18.49-5.17-29.13A41.94,41.94,0,0,1,269,130.42a89.51,89.51,0,0,1,25.62-8.12c29.93-4.32,59.69-9.61,90.3-6.26,17.81,1.95,36,.76,53.72,4,14.72,2.73,29.53,5.15,43.69,10.28,4.7,1.71,9.39,3.48,13.05,7.11,5.51,5.45,5.52,11.16-.1,16.47-4.75,4.48-10.83,6.47-16.9,8.23-15.08,4.39-30.56,6.54-46.15,8.2C407.66,173,383,172.44,355.71,173.9Z"/><path class="cls-7" d="M578.69,177.73c-7.61-.69-15.93-1.27-24.19-2.26a30.37,30.37,0,0,1-8.57-2.58c-12.52-5.63-13.9-17.5-2.94-25.81,21-15.88,44.84-19.46,70.16-15.71,13.18,1.94,26.19,5,39.37,6.91a237,237,0,0,0,64.78.57,21.41,21.41,0,0,1,3-.26c2.56,0,5.9-.86,6.49,2.75.46,2.83-2.37,3.76-4.56,4.48-7,2.32-14,4.43-20.93,6.72a699,699,0,0,1-91,22.79A167.88,167.88,0,0,1,578.69,177.73Z"/><path class="cls-8" d="M911.18,31.75a169.34,169.34,0,0,1,54,7c4.46,1.31,9,2.62,12.73,5.58,4.6,3.66,4.78,7.86.42,11.77-3.54,3.16-8,4.72-12.41,6.25-14.86,5.16-30.16,4.72-45.47,3.32-41.1-3.76-82-9.3-123.38-10.24a8.26,8.26,0,0,1-1-.06c-2.76-.42-7,.81-7.2-3.25-.17-3.82,4.07-3.59,6.86-4.24a689.73,689.73,0,0,1,69.72-12.44C879.93,33.53,894.29,31.63,911.18,31.75Z"/><path class="cls-9" d="M1161.23,155.69c21,0,42-.24,62.92.08,13,.21,25.75,3.24,38.33,6.56a39.37,39.37,0,0,1,5.63,2c2.24,1,4.06,2.55,4,5.22s-2.06,4.05-4.35,4.92c-8.79,3.35-18,4.79-27.25,6-30.47,3.9-60.47-.35-90.47-5-18.81-2.91-37-8.47-55.5-12.65a31.19,31.19,0,0,1-3.86-1c-2-.74-3.51-2.1-3-4.47a3.58,3.58,0,0,1,3.65-2.8c2.32-.13,4.66-.15,7-.15h63C1161.22,154.82,1161.23,155.25,1161.23,155.69Z"/><path class="cls-6" d="M1406.07,138a133.82,133.82,0,0,1,18.86,1.87c10,1.79,17.91,6.94,24.63,14.17,5.76,6.19,6,13.08.89,19.85-5.44,7.15-13.12,10-21.76,10.51a79.4,79.4,0,0,1-37.91-7.28c-18.89-8.62-38.55-14.61-58.59-19.66-3.91-1-10.1-1.05-9.89-6.45s6.38-4.63,10.38-5.51a66.8,66.8,0,0,1,9.89-1.21c15-.92,29.86-2.29,44.61-5.16A75.06,75.06,0,0,1,1406.07,138Z"/><path class="cls-10" d="M576.53,97.91c-29.81.18-53.48.25-76.93-3.55a124.55,124.55,0,0,1-29.79-8.23,34.72,34.72,0,0,1-10.17-6.24c-1.91-1.78-2.54-3.69-1.38-6.23,4-8.73,9.08-16,19-19.16a234.56,234.56,0,0,1,46.87-9.73c20.54-2.18,41-5.39,61.46-7.59,35.49-3.82,70.55-1.09,104.73,9.79a67.89,67.89,0,0,1,16.39,7.32c7.39,4.78,7.68,9,1,14.93a39.3,39.3,0,0,1-6.6,4.48A87.72,87.72,0,0,1,680.78,82C644.63,91.85,608,98.63,576.53,97.91Z"/><path class="cls-11" d="M893.44,162.1c-23.3-.51-55.93-1.19-88.08-7.81-9.14-1.88-18.16-4.32-26.37-9-11.82-6.74-12.45-15-1.59-23.2,7.25-5.44,15.48-9.07,24-12,23.41-8.13,47.68-12.15,72.12-15.45,29.64-4,59.15-1,88.63,1.64,18.78,1.66,34,11.1,46.8,24.48,9.79,10.2,8.24,20.65-4,28-10.24,6.17-21.84,8-33.39,9.48C948.74,161.21,925.78,162.12,893.44,162.1Z"/><path class="cls-10" d="M1226.6,126.46c-33.48,0-66.38-4.19-98.44-14.11-10.19-3.15-20.21-6.85-29.35-12.43-16.42-10-16.78-21.09-1.17-32.41C1108.07,60,1120.1,56,1132.36,52.75c26.71-7.07,53.79-7.77,81.21-5.12a495.33,495.33,0,0,1,58.15,8.91c15.46,3.38,29.84,9,42.73,18.46,16.82,12.31,13,23.14-2,33.66-13.93,9.74-30.39,13.12-47,15.69C1252.56,126.35,1239.58,126.33,1226.6,126.46Z"/><path class="cls-10" d="M365.2,165.85c-24.94.14-49.88,1.44-74.77-1.44-8.29-1-16.53-2.08-24.23-5.42-8.86-3.84-9.72-9.06-3-16,3.82-3.94,8.68-6.12,13.58-8.18,14.26-6,29.39-8.62,44.6-10,45.22-4.2,90.3-3.39,135,5.52a179.1,179.1,0,0,1,24.94,7c3.13,1.11,6.26,2.33,8.78,4.61,3.23,2.93,3.28,5.53-.26,8.21-4.31,3.25-9.42,4.86-14.59,6.22-17.77,4.69-35.93,6.84-54.2,7.75C402.45,165,383.82,165.28,365.2,165.85Z"/><path class="cls-12" d="M691.3,146.63c-10.1,5.74-21,8.44-31.77,11.1-18.38,4.52-36.87,9-55.57,11.71a140.62,140.62,0,0,1-47.71-.93,27.07,27.07,0,0,1-6.65-2c-7-3.37-8.12-8-2.27-13,8.9-7.53,18.63-13.39,30.73-15.43,16.53-2.79,32.45-.24,48.41,3,17,3.5,34.07,5.74,51.44,5.52C682.38,146.59,686.84,146.63,691.3,146.63Z"/><path class="cls-12" d="M821.87,50a2.11,2.11,0,0,1,1.84-2.54c26.64-5.26,53.35-11.13,80.6-10.53,19.45.43,39.14,1.48,58,7.65,4,1.3,10.2,1.63,10.4,6,.21,4.77-6.11,4.94-10,6.35-13.51,4.93-27.57,4.22-41.39,2.69-22.71-2.51-45.34-5.73-68.13-7.69C842.73,51,832.27,50.25,821.87,50Z"/><path class="cls-13" d="M1121.63,160.57c47-2.51,93.72-3.26,141.75,7.33-4.77,3.56-8.37,4-12,4.5s-7.18,1.5-10.8,1.73c-39.1,2.48-77.5-2.5-115.52-11.27C1123.87,162.59,1122.25,162.78,1121.63,160.57Z"/><path class="cls-12" d="M1340.75,153.69c1.87-3.32,4-3.06,5.94-3,15.74.55,31-2.45,46.33-5.52,15.84-3.18,31.1-.77,44.93,8.17,4.46,2.88,9.81,5.89,8.69,12.1-1.21,6.7-7.07,9.65-13.18,10.57a70.33,70.33,0,0,1-30.56-2.39,73.1,73.1,0,0,1-9.42-3.22A243.35,243.35,0,0,0,1340.75,153.69Z"/><path class="cls-14" d="M504.8,77.55c-5.17.13-8.57-2.36-8.45-6.18.13-4.19,5.5-8.73,10.49-8.87s8.76,3.08,8.77,7.4C515.62,74.55,511.63,77.38,504.8,77.55Z"/><path class="cls-15" d="M583.1,58.22c-3.6-.24-5.74-1.9-6-5.4-.29-3.66,3-6.73,6.91-6.6,3.59.12,6.34,3,5.83,6.41C589.25,56.5,586.54,58,583.1,58.22Z"/><path class="cls-16" d="M550.58,58a6.41,6.41,0,0,1-6.47,6.49c-3.5-.06-5.69-1.88-6-5.38-.27-3,3.29-6.46,6.51-6.33C548,52.92,550.12,54.79,550.58,58Z"/><path class="cls-17" d="M623.12,51.09c-.57,3.35-2.37,5.35-5.86,5.47s-6.58-2.61-6.45-5.88a6.15,6.15,0,0,1,6.87-5.52C621.05,45.61,622.76,47.78,623.12,51.09Z"/><path class="cls-18" d="M545.9,84.46c-.31,3.18-1.94,5-4.95,5.17-3.16.16-7-3.57-6.31-6.1a5.79,5.79,0,0,1,5.81-4.38C544,79,545.69,81.19,545.9,84.46Z"/><path class="cls-19" d="M613.15,81.3c-.6,3.47-2.75,5.17-6.18,5.06-3-.08-5.19-1.63-5.37-4.7-.22-3.65,2.22-5.34,5.57-5.54C610.69,75.9,612.66,77.81,613.15,81.3Z"/><path class="cls-20" d="M635.72,70.63c4,.2,6,2.06,6,5.56.08,3.14-1.9,5-4.83,5.19A4.82,4.82,0,0,1,631.38,77C630.89,73.44,632.88,71.5,635.72,70.63Z"/><path class="cls-21" d="M663.79,54.39c-.8,3.08-2.77,4.55-5.8,4s-5.85-2.1-5-5.82c.74-3.39,3.49-4.67,6.81-3.94C662.74,49.26,663.92,51.48,663.79,54.39Z"/><path class="cls-15" d="M571.81,79.38c3.27.29,5.4,1.82,5.4,4.9,0,3.26-2.4,4.51-5.36,4.45-2.6,0-4.41-1.4-4.59-4.16C567,81.24,569.24,80,571.81,79.38Z"/><path class="cls-22" d="M895.73,147c-.73,3.49-3.4,4.54-6.63,4.44-4.18-.11-7.83-3.34-7.4-6.52.52-3.78,3.24-4.63,6.58-4.39C892.91,140.88,896.09,143.57,895.73,147Z"/><path class="cls-23" d="M941.29,109.52c-.17,3.21-2,4.93-5,5.18s-5.12-1.46-5.5-4.52,1.22-5.33,4.27-5.68C938.55,104.09,940.64,106.09,941.29,109.52Z"/><path class="cls-24" d="M813.69,136.65c-3.42-.55-5.2-2.64-4.76-6.07a4.78,4.78,0,0,1,5.39-4.52c3.45.17,5.62,2,5.44,5.55S817.15,136.61,813.69,136.65Z"/><path class="cls-25" d="M929.45,140.82c-.16,3.62-2.18,5.45-5.59,5.57a5.09,5.09,0,0,1-.81-10.14C926.37,135.88,928.75,137.33,929.45,140.82Z"/><path class="cls-26" d="M969,121.67c-2.89-.53-5.17-1.89-5.17-5,0-3.64,2.57-5.08,5.87-4.93,3.11.14,4.66,2.14,4.39,5.2S971.92,121.53,969,121.67Z"/><path class="cls-24" d="M849.9,145.16c-.14,2.94-1.43,5.07-4.6,5.22-3.5.15-5.72-1.73-5.72-5.25,0-3.07,2.1-4.8,5.1-4.84S849.41,142.13,849.9,145.16Z"/><path class="cls-27" d="M859.64,114.85c-.25,2.71-1.58,4.48-4.29,4.47-3,0-5.06-1.65-5.29-4.66-.22-2.76,1.73-4.11,4.29-4.26C857.45,110.22,859.18,111.9,859.64,114.85Z"/><path class="cls-28" d="M965.23,138.08c-.47,2.54-2.15,4.11-4.68,4-2.93-.17-5-1.91-4.46-5.12.42-2.63,2.49-3.81,5-3.51S965.18,135.27,965.23,138.08Z"/><path class="cls-29" d="M895.09,110.92c-.94,2.94-3,4.31-5.89,3.91-3.09-.43-4.45-2.54-3.9-5.53.48-2.61,2.4-3.8,5-3.44C893.17,106.26,894.91,107.93,895.09,110.92Z"/><path class="cls-30" d="M1281,99c.25,3.59-2.79,7-6.63,7.35s-7.81-2.35-8.3-5.6c-.52-3.45,3.26-7.57,7.34-8A7,7,0,0,1,1281,99Z"/><path class="cls-31" d="M1237.93,110.21c-4.6.08-8.13-2.82-8-6.3.14-4,2.74-5.68,6.48-5.82,4.15-.15,7.5,2.59,7.32,6.17C1243.52,108.2,1241,109.91,1237.93,110.21Z"/><path class="cls-31" d="M1207.09,108.54c-.74,3.39-3.3,5.1-6.83,5.46-3.92.39-8-2.76-7.54-5.87.59-4,3.86-5,7.2-5.28S1207,105.42,1207.09,108.54Z"/><path class="cls-32" d="M1213.65,64.45c-.47,3.52-2.43,5.52-5.89,5.6s-5.61-1.91-6-5.33,2.85-6.43,6.3-6.08S1213.28,61.1,1213.65,64.45Z"/><path class="cls-33" d="M1285.22,76.88c0,3.62-1.78,5.35-4.82,5.57a4.41,4.41,0,0,1-4.94-3.89c-.58-3.19,1.15-5.13,4.15-5.61C1282.82,72.43,1284.38,74.5,1285.22,76.88Z"/><path class="cls-34" d="M1159.77,66.38c0,2.86-1.37,4.66-4,4.91-3.12.3-5.14-1.41-5.07-4.57a4.22,4.22,0,0,1,4.48-4.32C1157.88,62.34,1159.38,63.91,1159.77,66.38Z"/><path class="cls-35" d="M1251.05,66c-.11,2.59-1.67,4-4.21,4.27s-4.58-1-5-3.5c-.56-3.23,1.58-4.82,4.53-4.91C1248.9,61.73,1250.55,63.23,1251.05,66Z"/><path class="cls-17" d="M1119.66,86.65c-2.75-.11-4.38-1.52-4.47-4.26s1.49-4.37,4.22-4.46,4.37,1.45,4.47,4.2S1122.35,86.32,1119.66,86.65Z"/><path class="cls-36" d="M1164,105.2c-.37,2.58-1.83,4.19-4.45,4.14s-4.31-1.57-4.21-4.23a4.06,4.06,0,0,1,4.37-4.18C1162.33,101,1163.71,102.62,1164,105.2Z"/><path class="cls-16" d="M383.8,137.62c-.17,3.74-2,6.23-5.85,6.42s-6.14-2.07-6.45-5.83c-.32-3.91,1.9-6.22,5.71-6.4S383.21,133.8,383.8,137.62Z"/><path class="cls-37" d="M352.19,138.09c-.07,3.38-2,5.51-5.3,5.71s-5.59-1.76-5.56-5.32,2.6-5.19,5.77-5.31C350.1,133.06,351.83,135,352.19,138.09Z"/><path class="cls-38" d="M429.08,139.75c-.43,2.9-2,4.78-5,4.93s-5.05-1.5-5.21-4.54c-.18-3.5,1.89-5.56,5.34-5.47C427.15,134.75,428.78,136.73,429.08,139.75Z"/><path class="cls-39" d="M365.66,154.6c-.46,3-2.24,4.5-5.3,4.23-2.53-.22-4.27-1.7-4.34-4.32a4.48,4.48,0,0,1,4.8-4.93C363.74,149.58,365.52,151.4,365.66,154.6Z"/><path class="cls-30" d="M320.17,140.55c-.3,2.81-1.8,4.33-4.57,4.19-2.23-.11-3.79-1.33-3.93-3.66-.17-2.74,1.28-4.46,4-4.64S319.91,137.89,320.17,140.55Z"/><path class="cls-40" d="M403.29,152c-.16,2.62-1.57,4.2-4.31,4.2-2.32,0-3.59-1.49-3.76-3.71s.91-4,3.15-4.29C401,147.82,402.73,149.2,403.29,152Z"/><path class="cls-41" d="M331.45,158.81c-2.69-.29-4.29-1.3-3.88-3.83s2.38-3,4.5-2.8,4.6,1.19,4.38,3.21C336.19,157.86,333.54,158.71,331.45,158.81Z"/></g></g></svg>