<svg xmlns="http://www.w3.org/2000/svg" viewBox="0 0 592.33 822.31"><defs><style>.cls-1{fill:#010200;}.cls-2{fill:#297d02;}.cls-3{fill:#287a02;}.cls-4{fill:#1f5308;}</style></defs><title>spinach</title><g id="Layer_2" data-name="Layer 2"><g id="Layer_3" data-name="Layer 3"><path class="cls-1" d="M299.47,805.45c-1.3.91-2,1.16-2.31,1.66-2.26,3.52-4.93,7-9.55,5.52-4.92-1.55-5.68-6.16-5.51-10.69.16-4.32.1-8.77,1.12-12.92,1.65-6.75-1.17-11.39-5.45-16.06Q246.72,739,216,704.82c-7-7.78-14.94-13-25.59-13.94-4.29-.37-8.5-1.63-12.78-2.27-33.41-5-60.09-22.32-84-45.13C43.56,595.63,14.83,537.22,4.56,468.85a408.45,408.45,0,0,1,6.88-156.74c3.08-13,5.85-26,9-38.95,3.8-15.67,4.86-31.56,4.56-47.62-.1-5.18-1.32-11.59,5.09-13.85,5.6-2,9.28,2.77,12.55,6.43,12,13.4,23.69,27.09,35.68,40.51,8.85,9.91,18,19.58,26.74,29.08,3.74-1,3.42-3.77,4.07-5.83a458.5,458.5,0,0,1,43.32-96.39c8-13.46,15.67-27.11,23.74-40.53,9.67-16.07,17.57-32.88,22.62-51a60.46,60.46,0,0,1,4.49-12.16c3.12-5.84,8.49-6.36,13.1-1.61,3.06,3.15,4.92,7.13,6.66,11.09,7.92,18,15.7,36,23.65,54,3.57,8.09,7.41,16.08,11.09,24,3.88-1.23,4.6-4.07,6.09-6.11,16.94-23.17,34.9-45.45,55.37-65.66C332.3,84.69,345,71.45,358,58.55a202.83,202.83,0,0,0,32.7-41.5c2.19-3.73,4.62-7.32,7-10.92,2.3-3.43,5.08-6.65,9.6-6.06,5,.64,7.07,4.7,8.27,9a127.22,127.22,0,0,1,3.12,13.62c3.08,18.74,5.91,37.52,9,56.25,6.42,39.14,16,77.65,23.9,116.48,1.73,8.47,3.58,16.92,5.33,25.2,3.45,1.28,5.32-1.17,7.47-2.37,23-12.91,45.93-25.86,64.21-45.4a17.93,17.93,0,0,1,3.09-2.54c6.91-4.68,12.38-2.22,12.93,6.3a112.26,112.26,0,0,1-.63,18c-1.93,19.9-4.45,39.75-6.08,59.67-1.51,18.59-2.19,37.25-3.18,55.88-.09,1.57-.51,3.27,1.12,5.08,10.76-3,20.69-8.19,30.21-14.27,4.77-3.05,9.39-6.35,14.17-9.38,2.83-1.8,5.93-3.59,9.22-1.13,3,2.29,3.13,5.71,2.59,9.11a70.9,70.9,0,0,1-1.8,8.81c-18.09,61.78-28.83,125.26-43.34,187.87-9.63,41.59-25.53,79.85-53.67,112.42a249.58,249.58,0,0,1-63.32,53c-14.09,8.22-28.31,16.27-42.79,23.8-22.78,11.84-40.13,29.41-55,49.93-2.54,3.53-3.16,7.14-2.94,11.25a233.63,233.63,0,0,1-.12,32c-.57,6.94-.6,14.22-8,18.25-1.81,1-1.49,2.61-1.25,4.34.5,3.62,1,7.26,1.1,10.91.16,4.18-.63,8.2-5.25,9.73-5.12,1.71-8.29-1.53-10.67-5.29C303,813.2,301.45,809.45,299.47,805.45Z"/><path class="cls-2" d="M224.35,233c-16.94,75.93-15.83,152.74-11.25,229.56,4.58,77,22.66,151.44,44.94,225-3.51-4.19-5.37-9.11-7.49-13.91C245.83,663,238.83,655,227.94,649.54c-23.86-12-47-25.33-64.27-46.51a271,271,0,0,1-38.22-63c-11.9-27.24-20.4-55.6-24.15-85.11-3.28-25.76-4.07-51.63-1-77.64,2.54-21.8,5.23-43.55,10.44-64.86,6.72-27.54,16.47-54,28.16-79.88,12.4-27.41,28.75-52.53,43.68-78.47,10.16-17.64,20-35.34,24.71-55.36a54,54,0,0,1,2.49-6.55c4.05.64,4.46,4.12,5.39,6.61,25.81,69.16,62.21,133.32,93.9,199.7,10.89,22.82,22,45.57,29.8,69.73A251.38,251.38,0,0,1,351,437.68c.33,9.92.74,19.76.33,29.76-1.54,37.39-10.34,72.93-24.47,107.35-6.07,14.77-11.83,29.68-18.34,44.26-16.58,37.07-18.29,75.77-14.29,115.43,1.89,18.73,7.46,36.38,12.55,54.24.8,2.8,2.69,5.46,1.16,9.33-4.5-6.25-6.33-13.28-8.26-19.88-11.22-38.32-25.4-75.67-36.77-113.91-12.7-42.68-23.94-85.79-32-129.62a731.52,731.52,0,0,1-10.61-92c-1.85-32.56-3.38-65.09-3.51-97.71-.1-27,2.75-53.74,5.53-80.52C223.34,254,223.68,243.45,224.35,233Z"/><path class="cls-2" d="M480.38,301.09C431,356.72,396.28,421.44,363,487.24c0-12.52,0-25.05,0-37.57a266.9,266.9,0,0,0-23.38-110.43c-2-4.47-2.15-7.55,1.23-11.56a420.24,420.24,0,0,1,53.49-52.3c27.1-22.41,57.61-39.5,88-56.71,16.91-9.56,33.11-19.86,46.47-34.17,1.3-1.4,2.46-3.17,5.39-3.59,2.07,9.93-1.17,19.5-2.17,29.09-1.83,17.51-4.59,34.91-5.38,52.53-1.31,29.24-3.3,58.44-4.44,87.7-.76,19.57-2.58,39.13-3.69,58.71-2.29,40.58-10.54,79.7-29.7,116a307.24,307.24,0,0,1-39.58,57.37C431,603.46,409,620.06,387.19,637c-21.41,16.59-42.42,33.41-56.36,57.24C323.27,707.12,315.52,720,310.05,734c-.78,2-1.12,4.59-4.33,5.84-2.62-10-.16-19.59,1.58-29.13a1151,1151,0,0,1,30-125c11.28-37.6,23.68-74.88,41.26-110.19s34.85-70.47,55.11-104.19c12.53-20.85,27.45-40.11,40.72-60.48C476.45,307.65,478.38,304.35,480.38,301.09Z"/><path class="cls-2" d="M33,222.75c8.21,5.09,11.93,11.54,16.48,17C62.86,255.87,76,272.26,91,287c.48.46.92,1,1.41,1.42,7.94,7.47,11.86,15.15,7.79,27.06-4.8,14.07-5.71,29.28-7.58,44.12-.28,2.19.42,4.79-2.78,6.28-2.45-9.54-4.88-19-7.74-30.05-1.51,3.72-1.33,5.82-.85,7.85,2.55,10.66,3.65,21.6,5.91,32.29a96,96,0,0,1,1.62,22.83c-1.34,46.53,6.49,91.4,24.18,134.51,10.92,26.64,24.55,51.75,42.23,74.51a129.55,129.55,0,0,0,21.86,21.86c3.12,2.47,6.64,4.88,8.73,8.12,13.64,21.13,25.73,43.24,40.82,63.47l-1.52,1.37L216.42,694c-6.36-6.31-13.8-9.57-22.9-10.79-32.67-4.39-62.05-16.11-87-38.65C79,619.66,56.65,591.06,40.12,557.9,25.73,529,17.77,498.26,12.75,466.54c-3.29-20.8-4.33-41.64-4.28-62.65.08-29.77,4.32-58.94,11-87.86,4.25-18.46,8.32-37,12.48-55.43,1.18-5.26.92-10.61,1-15.93C33,238.05,33,231.42,33,222.75Z"/><path class="cls-2" d="M404.7,14.92c4.63,8.93,4.61,17.44,5.44,25.46,4.14,40.41,12.94,79.95,21.22,119.59,4.07,19.5,8.52,38.93,12.72,58.4,2.09,9.67,1.4,10.63-7.28,16-24.35,15.14-47.55,31.76-68.4,51.62-9.4,9-19,17.69-27.33,27.65-1.43,1.7-2.62,3.95-6.24,4.39,6.18-26.72,12-53.1,20.84-78.73C364.42,214,374.4,189,381.17,163,369,186,360.59,210.57,351,234.67c-9.7,24.4-15.39,50.05-22.91,77.6-6.13-12.42-11.53-22.65-16.29-33.18-12.89-28.54-27.59-56.19-41.37-84.28a65,65,0,0,0-3.63-7.11c-2.87-4.34-1.8-8.07,1-11.92,12.45-17.29,25.25-34.29,39.45-50.2,17.76-19.89,36.87-38.45,55.84-57.15,14.07-13.87,26.82-28.66,36.3-46.11C400.63,20,402.44,18,404.7,14.92Z"/><path class="cls-2" d="M329.59,722.72c.05-6,2.53-10.27,4.8-14.6,11.21-21.36,27.33-38.32,46.37-52.85,24.86-19,50.18-37.37,71.64-60.46,34.28-36.91,57.91-79.44,68.81-128.7a301.81,301.81,0,0,0,5.48-37.42c2.91-31.44,5.53-62.91,6.33-94.5.13-5.32,1.64-9.71,7.4-11.7,13.64-4.71,26-11.94,37.74-20.18,1.06-.74,2-1.81,3.63-1.56,1.84,2.06.73,4.28.07,6.38-13.42,42.54-22.06,86.21-31.12,129.8-5.47,26.33-10.87,52.7-18.06,78.64-12.74,46-38.37,83.48-74.58,114.48-19.73,16.89-42.08,29.24-64.53,41.47-23.07,12.56-44.57,26.62-60.31,48.16C332.52,720.69,331.29,721.34,329.59,722.72Z"/><path class="cls-3" d="M272.23,748c-24-33.81-48.86-64.52-69.12-100.89,9.41,4.93,17.37,8.72,24.93,13.19a29.66,29.66,0,0,1,11.88,13.19q16.17,34.89,32.28,69.79C272.45,743.76,272.23,744.5,272.23,748Z"/><path class="cls-4" d="M319.14,741.12c-1.7,15,3.29,27.78-.37,40.88-3.39-6.1-1.58-13-3.09-19.49S312.56,749,319.14,741.12Z"/></g></g></svg>