<svg xmlns="http://www.w3.org/2000/svg" viewBox="0 0 797.01 575.19"><defs><style>.cls-1{fill:#010000;}.cls-2{fill:#d70202;}.cls-3{fill:#d50202;}.cls-4{fill:#379206;}.cls-5{fill:#369106;}</style></defs><title>tomatoes</title><g id="Layer_2" data-name="Layer 2"><g id="Layer_2-2" data-name="Layer 2"><path class="cls-1" d="M554.06,174.88c.74.22,1.43.68,1.94.53,20.56-6.23,40.89-2.95,61.28,1.17C692.91,191.86,746.14,236,780.73,303.81a147.88,147.88,0,0,1,15.74,80.44c-2.83,34.17-19.59,61.15-46.28,82-25.5,19.92-54.92,30.94-86.54,36.77-45.27,8.35-90.25,5.79-135.08-3.08-13.07-2.58-26-5.65-39-8.76-4.08-1-6.87-.62-9.14,3.41C459.23,532.11,425,552,385.22,564c-35.55,10.7-72.16,13.07-108.9,9.86A533,533,0,0,1,127,538.72c-26.47-10.41-51.72-23.2-73.72-41.53C23.85,472.69,6.52,441.3,1,403.43c-2.4-16.49-.36-32.7,4.79-48.34,16.8-51,48.91-87.94,99.94-107,5-1.85,7.21-4.45,8.33-9.74,9.48-45.09,34.74-79.91,72.66-104.85,37.75-24.82,79-27.91,121.72-14,2.85.93,5.59,2.21,8.45,3.09,5.12,1.59,8.53-1.09,8-6.33-.28-3.06-1.95-5.64-3.55-8.17-5.21-8.28-12.11-15-19.69-21.08-12.85-10.36-13.82-18.73-3.27-31.28A209.4,209.4,0,0,1,353.92,9,72.14,72.14,0,0,1,375.23.59c4.74-1,9.49-1.22,12.53,3.51s1,9.18-2.1,12.84a183.21,183.21,0,0,1-31.91,30.11c-5.6,4.08-11.38,8.05-15.05,13.87,1.27,3.47,4.27,3.67,6.54,4.79,4.81,2.38,9.41,5,13.31,8.74,9.7,9.32,13.59,20.56,5.58,33.15-.87,1.37-1.82,2.78-1.57,4.57,1.5,1.18,3.15.74,4.73.27,15.13-4.47,30.37-3.3,45.57-.68a284.82,284.82,0,0,1,61.44,17.33c7,2.9,7,2.85,10.92-4.18,3.44-6.21,8.58-11,13.27-16.18,11.71-13,25.35-23.57,39.88-33.12,8.4-5.52,17.27-10.07,27.12-12.42,5-1.21,10-1.85,13.68,3,2.82,3.72,2,8.92-3,14.48-9.29,10.48-19.24,20.3-30.63,28.59a116.35,116.35,0,0,0-12.24,10.25c-4.36,4.21-4.18,4.94,1.28,7.56,6,2.91,11.87,6,16.6,10.9,9.93,10.35,11.23,18.87,4.68,31.63C555,171.24,553.38,172.71,554.06,174.88Z"/><path class="cls-2" d="M304,552.38c-40.86-.92-80.72-8.21-120-19.2-33.18-9.3-65.09-21.71-94.67-39.62-14-8.5-27.3-18-37.49-31.08C19.5,421,13.21,380.3,38.11,334.21c18.7-34.61,46.58-59.86,85.2-71.12,19-5.52,38.44-7.82,58.25-5,6.25.9,12.67.31,18.83,2.12,5.69,1.67,6.93,4.11,4.42,9.41-1.73,3.64-7.08,7.21-2.77,11.23,3.4,3.18,7.09-1.89,10.81-2.69,20.45-4.45,40.23-12.56,61.42-12.73,16-.13,31.71,3.23,47.28,7.1,33.05,8.21,62.31,23.55,87,46.85,21.76,20.51,39.88,44.07,51,72,8.47,21.24,12.52,43.42,8.76,66.51-4.35,26.68-19.29,46.44-40.63,61.71-23,16.45-49.3,24.64-76.94,28.89C335.32,551,319.75,552.6,304,552.38Z"/><path class="cls-2" d="M607.62,485c-36.55.31-72.18-6-107.41-15.08-8.9-2.29-8.69-2.56-7.47-11.73,3.66-27.4.11-54.21-11.19-79.14C456,322.64,416,280.1,357.81,256.28c-7.55-3.09-7.75-3.88-2.6-10.43,34.08-43.3,79-60.06,133.13-54.42,4.63.48,9.3.8,13.88,1.6,6.93,1.21,8.35,4.31,5,10.4-1.75,3.12-5.42,6.3-2.68,9.8,3.08,3.94,6.54-.27,9.84-1.14,23.74-6.25,47.1-15.24,72.25-13a221,221,0,0,1,64.82,15.48C703,235.72,738.82,273.2,761.73,323.27a121.11,121.11,0,0,1,10.52,58.37c-2.14,34.3-20.53,58.4-48.64,75.79-24.46,15.14-51.57,22.63-80.13,25.67C631.52,484.37,619.6,484.9,607.62,485Z"/><path class="cls-2" d="M274,128.81c14-1.13,26.18.22,38.31,2.22,5,.82,6.47,4.22,4.26,8.81-1,2.08-2.53,3.91-3.64,5.94-1,1.79-1.63,3.82-.06,5.57s3.6,1,5.49.26c16.1-6.59,33.22-9.43,50-13.26,18.3-4.16,36.46-1.15,54.43,2.68,29.34,6.24,56.61,17.28,80.65,35.6,1.85,1.41,3.68,2.85,5.42,4.39a15.93,15.93,0,0,1,1.93,2.74c-3.34,1.71-5.94-.24-8.46-1.13a149.86,149.86,0,0,0-48-8.42c-37.94-.65-70.25,12.68-97.74,38.43-8.77,8.21-17.21,16.81-23.91,26.77-3.66,5.46-7.85,6.44-13.58,5.13-7.78-1.78-15.64-3.09-23.52-4.37-14.06-2.28-27.82-2-41.51,1.93a11.06,11.06,0,0,1-2.94,0c-.59-3.56,1.74-5.8,3.09-8.26,4.74-8.65,3.34-16.55-2-24.35-4.91-7.15-11.87-11.46-19.44-15.16-6.36-3.12-6.44-3.82-1.27-9a65.92,65.92,0,0,1,9-7.85c11.62-8,21.35-18,31.08-28.08C277.33,143.63,280.11,137.45,274,128.81Z"/><path class="cls-3" d="M252.29,131c.07,2.55-1.72,3-3.13,3.72-22.82,11.7-42.14,27.83-59.2,46.82-1.11,1.24-2.28,2.43-3.31,3.74-9.73,12.29-9.25,19.61,2.51,29.93,6.51,5.72,13.29,11.09,18.33,18.26,2.3,3.29,4.64,6.61,5.66,10.5,1.63,6.27-1.93,9.57-8.17,7.51-7.27-2.4-14.39-5.27-21.91-6.81a180.92,180.92,0,0,0-37.64-4c-8.33.06-9.19-1.17-6.87-9.44a129.12,129.12,0,0,1,21.74-43.55c20.3-26.7,45.48-46.58,78.58-55.12C243.28,131.42,247.64,129.91,252.29,131Z"/><path class="cls-4" d="M556.53,71.48c3.62,0,5.89,3.3,4.35,6.32a22.29,22.29,0,0,1-4.4,5.33c-5.91,5.84-12,11.55-17.84,17.4-5.42,5.39-10.94,10.71-16,16.4-9.22,10.32-9.06,10.79,2.53,17.35,7.36,4.16,12.17,11.16,18.22,16.76,4.68,4.32-1,19.24-7.33,21.12-4.06,1.22-8.58-.7-10-5.93-2.88-10.34-9.52-16.94-18.14-22.66-8.4-5.58-9.11-11.1-4.61-20.53,7.37-15.46,20-26.28,32.6-37.08,3.52-3,7.13-5.95,10.64-9A27.08,27.08,0,0,1,556.53,71.48Z"/><path class="cls-5" d="M253.21,138.75c3.92.21,5.84,3.22,4.13,6.43a27.3,27.3,0,0,1-5,6.1c-9.67,9.63-19.44,19.18-29.14,28.79a79.13,79.13,0,0,0-5.43,5.86c-7.3,8.87-7.32,9.86,3.12,14.19,8.83,3.66,13.27,11.82,19.76,17.8,4.11,3.79-.79,17.85-6,20.24a8,8,0,0,1-10.45-3.09,32.89,32.89,0,0,1-3.34-8.29A20,20,0,0,0,210.38,214c-1.17-.64-2.38-1.21-3.49-1.94-10.08-6.63-12-13-6-23.64,5.75-10.15,12.5-19.54,22-26.81,7.12-5.45,13.66-11.66,20.42-17.57C246.37,141.42,249.43,138.9,253.21,138.75Z"/><path class="cls-5" d="M309.31,69.8c.08-6.5,3.07-11,5.85-15.5,7.59-12.39,18.5-21.65,29.44-30.84,5.08-4.27,10.31-8.37,15.54-12.46,2.54-2,5.48-3.12,8-.36,3.11,3.34.8,6.1-1.68,8.54-8.79,8.63-17.67,17.15-26.39,25.85-4.93,4.93-10.07,9.7-13.8,15.71-3.49,5.6-3.69,6.56,2.41,8.46,10.69,3.32,15.79,12.9,23.27,19.69,5.12,4.63-1.67,20.2-8.56,21.34a5,5,0,0,1-4.62-1.25c-1.62-1.64-3.87-3.27-4.38-5.28-2.78-10.78-9.54-17.81-19.15-23C311.07,78.48,308.64,74.22,309.31,69.8Z"/></g></g></svg>