<?xml version="1.0" encoding="utf-8"?>
<!-- Generator: Adobe Illustrator 24.3.0, SVG Export Plug-In . SVG Version: 6.00 Build 0)  -->
<svg version="1.1" id="Layer_1" xmlns:serif="http://www.serif.com/"
	 xmlns="http://www.w3.org/2000/svg" xmlns:xlink="http://www.w3.org/1999/xlink" x="0px" y="0px" viewBox="0 0 1048.8 595.6"
	 style="enable-background:new 0 0 1048.8 595.6;" xml:space="preserve">
<style type="text/css">
	.st0{fill-rule:evenodd;clip-rule:evenodd;fill:#85BFAE;}
</style>
<g id="Layer1">
	<g transform="matrix(1.88876e-16,-3.08457,3.08457,1.88876e-16,-446.231,1719.43)">
		<path class="st0" d="M540.5,145.8c3.8,1.5,5,1.6,8.2,4.2c7.1,5.8,10.2,16.4,6.8,25.3c-1.5,3.9-2.5,4.6-5,7.8L418.8,314.7
			l131.6,131.6l2.9,3.6c2.1,4.2,3.8,8.6,3.6,13.3c-0.6,12.3-12.8,22.9-25.7,20.8c-4.6-0.7-8.6-3.3-12.3-6.2L371.6,330.5
			c-2.4-3-3.3-3.6-4.8-7.2c-2.2-5.4-2.2-11.6,0-17c1.5-3.6,2.4-4.2,4.8-7.2L519,151.6c3.7-3,7.7-5.5,12.3-6.2
			C534.3,144.8,537.4,145.3,540.5,145.8z"/>
	</g>
</g>
</svg>
