<?xml version="1.0" encoding="utf-8"?>
<!-- Generator: Adobe Illustrator 19.0.0, SVG Export Plug-In . SVG Version: 6.00 Build 0)  -->
<svg version="1.1" id="Layer_1" xmlns="http://www.w3.org/2000/svg" xmlns:xlink="http://www.w3.org/1999/xlink" x="0px" y="0px"
	 viewBox="0 0 500 500" style="enable-background:new 0 0 500 500;" xml:space="preserve">
<style type="text/css">
	.st0{fill:#E74D89;}
	.st1{fill:#B2215A;}
</style>
<g id="XMLID_1_">
	<path id="XMLID_3_" class="st0" d="M250,79.8c94.1,0,170.2,76.1,170.2,170.1S344.1,420.2,250,420.2S79.8,344,79.8,250.1
		S155.9,79.8,250,79.8z"/>
	<path id="XMLID_11_" class="st1" d="M250,432.3c-100.7,0-182.5-81.7-182.5-182.2c0-100.7,81.8-182.4,182.5-182.4
		s182.5,81.7,182.5,182.2S350.7,432.3,250,432.3z M403.8,274.9c-5.3-1.7-48.2-14.4-97.1-6.7c20.4,55.9,28.7,101.5,30.2,110.9
		C372,355.6,397,318.2,403.8,274.9z M310.9,393.5c-2.3-13.7-11.4-61.3-33.2-118.1c-0.3,0.1-0.7,0.3-1,0.3
		c-88,30.7-119.5,91.5-122.3,97.2c26.4,20.5,59.6,32.8,95.7,32.8C271.5,405.9,292.2,401.5,310.9,393.5z M134.2,354.3
		c3.6-6,46.3-76.7,126.8-102.8c2-0.7,4.1-1.3,6.1-1.9c-3.8-8.8-8.1-17.7-12.7-26.4c-77.8,23.2-153.4,22.2-160.3,22.1
		c0,1.6-0.1,3.1-0.1,4.7C94.2,290.1,109.3,326.6,134.2,354.3z M97.4,218.3c7,0.1,71.1,0.4,144.1-19c-25.8-45.9-53.8-84.4-57.7-90
		C140.1,129.9,107.6,170.1,97.4,218.3z M213.5,98.8c4.3,5.7,32.7,44.2,58.2,91.1c55.5-20.8,78.8-52.2,81.7-56.2
		c-27.5-24.4-63.7-39.2-103.4-39.2C237.5,94.5,225.2,96.1,213.5,98.8z M370.6,151.7c-3.3,4.4-29.4,37.9-87,61.5
		c3.6,7.4,7.1,15,10.4,22.5c1.1,2.7,2.3,5.4,3.4,8c51.9-6.6,103.4,4,108.5,5C405.6,212,392.4,178.2,370.6,151.7z"/>
</g>
</svg>
