<?xml version="1.0" encoding="utf-8"?>
<!-- Generator: Adobe Illustrator 24.3.0, SVG Export Plug-In . SVG Version: 6.00 Build 0)  -->
<svg version="1.1" id="Layer_1" xmlns="http://www.w3.org/2000/svg" xmlns:xlink="http://www.w3.org/1999/xlink" x="0px" y="0px"
	 viewBox="0 0 367 367" style="enable-background:new 0 0 367 367;" xml:space="preserve">
<style type="text/css">
	.st0{fill:#E74D89;}
	.st1{fill:#B2215A;}
</style>
<g id="XMLID_1_">
	<path id="XMLID_3_" class="st0" d="M183,12.8c94.1,0,170.2,76.1,170.2,170.1S277.1,353.2,183,353.2S12.8,277,12.8,183.1
		S88.9,12.8,183,12.8z"/>
	<path id="XMLID_11_" class="st1" d="M183,365.3C82.3,365.3,0.5,283.6,0.5,183.1C0.5,82.4,82.3,0.7,183,0.7s182.5,81.7,182.5,182.2
		S283.7,365.3,183,365.3z M336.8,207.9c-5.3-1.7-48.2-14.4-97.1-6.7c20.4,55.9,28.7,101.5,30.2,110.9
		C305,288.6,330,251.2,336.8,207.9z M243.9,326.5c-2.3-13.7-11.4-61.3-33.2-118.1c-0.3,0.1-0.7,0.3-1,0.3
		c-88,30.7-119.5,91.5-122.3,97.2c26.4,20.5,59.6,32.8,95.7,32.8C204.5,338.9,225.2,334.5,243.9,326.5z M67.2,287.3
		c3.6-6,46.3-76.7,126.8-102.8c2-0.7,4.1-1.3,6.1-1.9c-3.8-8.8-8.1-17.7-12.7-26.4C109.6,179.4,34,178.4,27.1,178.3
		c0,1.6-0.1,3.1-0.1,4.7C27.2,223.1,42.3,259.6,67.2,287.3z M30.4,151.3c7,0.1,71.1,0.4,144.1-19c-25.8-45.9-53.8-84.4-57.7-90
		C73.1,62.9,40.6,103.1,30.4,151.3z M146.5,31.8c4.3,5.7,32.7,44.2,58.2,91.1c55.5-20.8,78.8-52.2,81.7-56.2
		C258.9,42.3,222.7,27.5,183,27.5C170.5,27.5,158.2,29.1,146.5,31.8z M303.6,84.7c-3.3,4.4-29.4,37.9-87,61.5
		c3.6,7.4,7.1,15,10.4,22.5c1.1,2.7,2.3,5.4,3.4,8c51.9-6.6,103.4,4,108.5,5C338.6,145,325.4,111.2,303.6,84.7z"/>
</g>
</svg>
