<?xml version="1.0" encoding="utf-8"?>
<!-- Generator: Adobe Illustrator 24.3.0, SVG Export Plug-In . SVG Version: 6.00 Build 0)  -->
<svg version="1.1" id="Layer_1" xmlns="http://www.w3.org/2000/svg" xmlns:xlink="http://www.w3.org/1999/xlink" x="0px" y="0px"
	 viewBox="0 0 55.6 55.2" style="enable-background:new 0 0 55.6 55.2;" xml:space="preserve">
<style type="text/css">
	.st0{fill:#346DA6;}
	.st1{fill:#FFFFFF;}
</style>
<g id="XMLID_1_">
	<circle id="XMLID_3_" class="st0" cx="27.9" cy="27.6" r="27.5"/>
	<path id="XMLID_7_" class="st1" d="M20.5,40.3V23.5h-5.2v16.8H20.5z M20.5,17.6c0-1.5-1-2.6-2.7-2.6c-1.6,0-2.7,1.1-2.7,2.6
		s1,2.6,2.6,2.6l0,0C19.4,20.2,20.5,19,20.5,17.6z M28.9,40.3v-9.6c0-0.5,0-1,0.2-1.4c0.4-1,1.3-2.1,2.9-2.1c2.1,0,3.3,1.2,3.3,3.5
		v9.6h5.2v-9.8c0-5.3-2.8-7.7-6.5-7.7c-3.1,0-4.4,1.7-5.2,2.9v-2.2h-5.2c0.1,1.6,0,16.9,0,16.9L28.9,40.3L28.9,40.3z"/>
</g>
</svg>
