<svg xmlns="http://www.w3.org/2000/svg" viewBox="0 0 933 849"><defs><style>.cls-1{fill:#fff;}.cls-2{fill:#3f3b4a;}.cls-3{fill:#fec72e;}</style></defs><g id="Layer_1" data-name="Layer 1"><path class="cls-1" d="M463.91,241.51l83.16,0c-.76-10.33.31-20,8.78-27a24.58,24.58,0,0,1,16.74-5.92c15.21.34,22.4,9.86,24.65,33.22h5.43c14.54,0,29.07-.09,43.61,0,23.68.21,41.86,18.14,41.88,41.81q.09,190.8-.11,381.61c0,23.63-18.27,41.72-42,41.72q-207.17.07-414.32-.11c-24,0-42.07-18.18-42.07-42.14q-.06-190.54.11-381.09c0-23.68,18.14-41.71,41.77-41.91,16.26-.13,32.52,0,49.59,0,0-3.05-.06-5.91,0-8.77a24.9,24.9,0,0,1,49.79,0c.08,2.74,0,5.48,0,8.5l83.09,0c0-2.54,0-5.21,0-7.89.27-14.18,11.26-25.11,25.11-25,13.62.09,24.4,11,24.71,24.9C464,236,463.91,238.57,463.91,241.51Z"/><path class="cls-2" d="M463.91,241.51l83.16,0c-.76-10.33.31-20,8.78-27a24.58,24.58,0,0,1,16.74-5.92c15.21.34,22.4,9.86,24.65,33.22h5.43c14.54,0,29.07-.09,43.61,0,23.68.21,41.86,18.14,41.88,41.81q.09,190.8-.11,381.61c0,23.63-18.27,41.72-42,41.72q-207.17.07-414.32-.11c-24,0-42.07-18.18-42.07-42.14q-.06-190.54.11-381.09c0-23.68,18.14-41.71,41.77-41.91,16.26-.13,32.52,0,49.59,0,0-3.05-.06-5.91,0-8.77a24.9,24.9,0,0,1,49.79,0c.08,2.74,0,5.48,0,8.5l83.09,0c0-2.54,0-5.21,0-7.89.27-14.18,11.26-25.11,25.11-25,13.62.09,24.4,11,24.71,24.9C464,236,463.91,238.57,463.91,241.51ZM206.36,358.12v5.44q0,149.81-.08,299.59c0,16.9,10.24,27.13,27.17,27.14q205.35.08,410.7.11c17.23,0,27.33-10.16,27.33-27.5q.06-149.53.09-299.06v-5.59Zm390.46-99.71c0,8.78.12,17,0,25.29a24.87,24.87,0,0,1-49.74.2c-.22-8.4,0-16.81,0-25.09l-83.1,0c0,8.36.67,16.39-.24,24.24a36.26,36.26,0,0,1-5.51,15.73c-5.83,8.57-17,11.41-26.9,8.23a24.89,24.89,0,0,1-17.14-23c-.18-8.41,0-16.83,0-25.22l-83.09,0c0,7.8,0,15.23,0,22.65-.06,15.54-10.53,26.78-24.9,26.79s-24.89-11.26-24.94-26.74c0-7.56,0-15.11,0-23.09-16.79,0-33-.09-49.24,0-14.83.09-25.41,10.75-25.51,25.64-.09,13.66,0,27.33,0,41V341.1l465.05.13c0-20.48.56-40.69-.19-60.86-.45-12.2-11.45-21.48-23.72-21.89-5.35-.18-10.72-.05-16.09-.05Zm-299.05-.6c0,8,0,15.92,0,23.88.05,6.1,3.26,9.83,8.29,9.83s8.26-3.74,8.29-9.83q.09-23.35,0-46.72c0-6.1-3.26-9.83-8.29-9.83s-8.23,3.72-8.29,9.83C297.73,242.58,297.77,250.2,297.77,257.81Zm149.53,1.07c0-8,.05-15.92,0-23.87-.05-6.11-3.27-9.83-8.29-9.83s-8.27,3.72-8.29,9.83q-.07,23.36,0,46.72c0,6.1,3.26,9.83,8.28,9.83s8.24-3.74,8.3-9.83C447.35,274.11,447.3,266.5,447.3,258.88Zm132.92-.47c0-7.79,0-15.57,0-23.36-.05-6.11-3.26-9.83-8.29-9.83s-8.27,3.71-8.29,9.82q-.09,23.36,0,46.72c0,6.1,3.25,9.83,8.27,9.84s8.25-3.74,8.31-9.83C580.26,274,580.22,266.2,580.22,258.41Z"/><circle class="cls-2" cx="268.88" cy="426.71" r="24.66"/><circle class="cls-2" cx="351.08" cy="426.71" r="24.66"/><circle class="cls-2" cx="433.28" cy="426.71" r="24.66"/><circle class="cls-2" cx="515.48" cy="426.71" r="24.66"/><circle class="cls-2" cx="597.69" cy="426.71" r="24.66"/><circle class="cls-2" cx="268.88" cy="521.25" r="24.66"/><circle class="cls-2" cx="351.08" cy="521.25" r="24.66"/><circle class="cls-2" cx="433.28" cy="521.25" r="24.66"/><circle class="cls-2" cx="515.48" cy="521.25" r="24.66"/><circle class="cls-2" cx="597.69" cy="521.25" r="24.66"/><circle class="cls-2" cx="268.88" cy="615.78" r="24.66"/><circle class="cls-2" cx="351.08" cy="615.78" r="24.66"/><circle class="cls-2" cx="433.28" cy="615.78" r="24.66"/><path class="cls-3" d="M441,470.12c-3.22-3.89-8.35-3.62-11.93.06-9.37,9.67-18,19.94-24.57,31.81-10.88,19.54,1.34,39.39,17.38,45.55,2.58,1,5.26,1.72,7.9,2.57h10.93c1.16-.39,2.3-.86,3.48-1.15,18.71-4.64,34.32-27,20.7-48.1C457.93,490,449.31,480.12,441,470.12Z"/><path class="cls-1" d="M754.51,196.92C731.38,173.48,708,150.29,684.69,127a24.94,24.94,0,0,0-16.53-7.34,25.89,25.89,0,0,0-25,14.56,25.47,25.47,0,0,0,4.22,28.9c3.88,4.15,8.34,7.75,12.08,11.17L633.6,200.24a39.67,39.67,0,0,0-2.73-3.28C623,189,615.2,180.92,607,173.25a28.45,28.45,0,0,0-39.53.18c-10.86,10.47-11.65,27.36-1.83,39.23.76.93,1.47,1.89,2.54,3.26-1.5,1.28-2.86,2.28-4.05,3.47q-56.06,56-112,112.1c-23.88,24.05-26.84,60.78-7.59,88.62.68,1,1.31,2,2.12,3.3-5.75,5.65-11.42,11.07-16.91,16.68-4.05,4.14-3.86,9.66.18,12.9,3.59,2.88,7.95,2.59,11.72-1.11,5.6-5.48,11.05-11.12,16.78-16.92,28.74,21.9,69,19.12,96.5-9.66,35.22-36.88,71.94-72.32,108-108.42a24,24,0,0,0,2.62-4c7.67,7.41,15.57,11,24.93,9.87,11.74-1.39,20.12-7.71,24.1-18.86S716,282.55,707.86,274c-6.49-6.78-13.18-13.38-19.91-19.92-2.27-2.21-5-4-7.62-6.12l23.85-23.69c.6-.59,1.23-1.14,2.49-2.32,3.66,3.87,7.15,7.89,11,11.55,10.65,10.18,26.57,10.15,36.68.09A25.75,25.75,0,0,0,754.51,196.92Z"/><polygon class="cls-3" points="523.7 270.53 614.13 360.95 523.7 443.15 474.38 434.93 441.5 402.05 441.5 360.95 465.18 328.42 523.7 270.53"/><path class="cls-2" d="M429.82,550.11c-2.64-.85-5.32-1.58-7.9-2.57-16-6.16-28.26-26-17.38-45.55,6.6-11.87,15.2-22.14,24.57-31.81,3.58-3.68,8.71-3.95,11.93-.06,8.27,10,16.89,19.86,23.89,30.74,13.62,21.15-2,43.46-20.7,48.1-1.18.29-2.32.76-3.48,1.15Zm5.75-62.37c-7.08,8.4-13.77,15.92-17.5,25.41a12.52,12.52,0,0,0-.32,7.3c1.88,7.23,7.08,11.29,14.22,12.53a17.73,17.73,0,0,0,18.12-7.11c4.37-5.74,4-11.72,0-17.48C445.49,501.61,440.68,495,435.57,487.74Z"/><path class="cls-2" d="M458.43,435c-5.73,5.8-11.18,11.44-16.78,16.92-3.77,3.7-8.13,4-11.72,1.11-4-3.24-4.23-8.76-.18-12.9,5.49-5.61,11.16-11,16.91-16.68-.81-1.27-1.44-2.31-2.12-3.3-19.25-27.84-16.29-64.57,7.59-88.62q55.81-56.25,112-112.1c1.19-1.19,2.55-2.19,4.05-3.47-1.07-1.37-1.78-2.33-2.54-3.26-9.82-11.87-9-28.76,1.83-39.23a28.45,28.45,0,0,1,39.53-.18C615.2,180.92,623,189,630.87,197a39.67,39.67,0,0,1,2.73,3.28l25.89-25.92c-3.74-3.42-8.2-7-12.08-11.17a25.47,25.47,0,0,1-4.22-28.9,25.89,25.89,0,0,1,25-14.56A24.94,24.94,0,0,1,684.69,127c23.32,23.26,46.69,46.45,69.82,69.89a25.75,25.75,0,0,1-.18,36.67c-10.11,10.06-26,10.09-36.68-.09-3.83-3.66-7.32-7.68-11-11.55-1.26,1.18-1.89,1.73-2.49,2.32L680.34,248c2.66,2.12,5.34,3.91,7.61,6.12,6.73,6.54,13.42,13.14,19.91,19.92,8.17,8.55,10.68,18.71,6.69,29.86s-12.36,17.47-24.1,18.86c-9.36,1.1-17.26-2.46-24.93-9.87a24,24,0,0,1-2.62,4c-36,36.1-72.75,71.54-108,108.42C527.45,454.08,487.17,456.86,458.43,435Zm56-141.68c5.45,5.34,10.82,10.46,16,15.75,3.51,3.56,3.82,7.89,1.16,11.38-3.21,4.24-8.66,4.63-12.82.59-5.4-5.26-10.57-10.75-15.61-15.91l-26.56,26.65c4.86,4.82,9.95,9.82,15,14.89,4.33,4.37,4.67,9.32,1,12.95s-8.63,3.11-13-1.18c-5-5-10-10.09-15.33-15.41-12.51,13.14-17.52,28.38-14.65,45.68,3.47,20.87,15.72,35.22,35.81,41.61s38.2,1.67,53.37-13.08C549.34,407,559.61,396.43,570,386c9-9,18.06-18,26.55-26.42l-8.9-10.14c-9.25,9.26-18.23,18.28-27.25,27.26-4.51,4.49-9.66,4.9-13.26,1.19s-3-8.6,1.26-13c5.51-5.58,11-11.15,16.64-16.64,3.57-3.49,7.29-6.83,10.75-10.07L522.47,285ZM552.81,255c5.36,5.32,10.82,10.72,16.26,16.16s6,10.33,2.12,14.15-8.6,3.16-14.12-2.38S546.28,272,541.34,267.05l-5.66,5.38,51.68,51.77,44.36-44.38L579.9,227.94Q566.66,241.14,552.81,255ZM669.86,234.9c9.72-9.74,19.49-19.57,29.31-29.36,5-4.95,9.16-5,14.17-.06s10.1,10.12,15.19,15.14c4.53,4.46,9.89,4.87,13.79,1.17s3.84-9.5-.74-14.09q-33.83-33.94-67.77-67.77c-4.47-4.46-9.87-4.62-13.77-.71s-3.48,9.36.88,13.79q7.65,7.8,15.45,15.46c2.47,2.42,4.07,5.25,3,8.64a14.18,14.18,0,0,1-3.51,5.53c-9.72,9.86-19.58,19.6-29.14,29.13Zm-80.3-52.71c-7.75.07-12.46,4-13.64,9.4-1.1,5.11,1.14,8.89,4.61,12.34q21.16,21,42.23,42.17,27.48,27.5,55,55c3.21,3.23,6.73,5.57,11.49,4.84a11.33,11.33,0,0,0,9.56-7.82c1.63-4.68.49-8.88-2.93-12.36-6.68-6.8-13.44-13.51-20.18-20.25q-39.07-39.07-78.24-78.07C594.78,184.84,591.16,183.24,589.56,182.19Zm19.3,164.13,44.3-44.23-7.83-9L600.5,338C603.12,340.58,606.07,343.52,608.86,346.32Z"/><path class="cls-2" d="M539.36,394.25a8.26,8.26,0,0,1-8.24,8.31,8.37,8.37,0,0,1-8.4-8.62,8.27,8.27,0,0,1,8.5-8A8.16,8.16,0,0,1,539.36,394.25Z"/></g></svg>