<svg xmlns="http://www.w3.org/2000/svg" xmlns:xlink="http://www.w3.org/1999/xlink" viewBox="0 0 1182.04724 841.88976"><defs><clipPath id="clip-path"><rect width="260.7874" height="841.88976" style="fill:none"/></clipPath><clipPath id="clip-path-2"><rect x="2.83465" y="861.73228" width="260.7874" height="841.88976" style="fill:none"/></clipPath></defs><g id="Chris_Welna" data-name="Chris Welna"><g id="Layer_copy" data-name="Layer copy"><rect x="260.29137" width="255.11811" height="296.38593" style="fill:#a7ead2"/><text transform="translate(288.63735 376.08654)" style="font-size:16px;fill:#232d38;font-family:Roboto-Light, Roboto;font-weight:300">In<tspan x="13.04688" y="0" style="letter-spacing:-0.00732421875em">v</tspan><tspan x="20.625" y="0">ol</tspan><tspan x="33.17188" y="0" style="letter-spacing:-0.00634765625em">v</tspan><tspan x="40.76563" y="0" xml:space="preserve">ed in social  justice, go </tspan><tspan x="0" y="19.2002">camping, going </tspan><tspan x="111.03906" y="19.2002" style="letter-spacing:-0.009765625em">t</tspan><tspan x="116.02344" y="19.2002">o li</tspan><tspan x="136.04688" y="19.2002" style="letter-spacing:-0.00634765625em">v</tspan><tspan x="143.64063" y="19.2002">e </tspan><tspan x="0" y="38.3999">conce</tspan><tspan x="42.5" y="38.3999" style="letter-spacing:0.0244140625em">r</tspan><tspan x="48.27344" y="38.3999">ts.</tspan></text><path d="M877.4597,379.13745h-5.32031v4.64062h6.11719v.8125h-7.07813v-11.375h7.03907v.8125h-6.07813V378.325h5.32031Z" style="fill:#232d38"/><path d="M882.71752,379.56714l2.28125-3.42969h1.10937l-2.86719,4.14844,2.99219,4.30468h-1.10156l-2.40625-3.57812-2.40625,3.57812h-1.10156l2.98437-4.30468-2.86719-4.14844h1.10157Z" style="fill:#232d38"/><path d="M889.29564,373.97339v2.16406h1.75v.76562h-1.75v5.63867a1.75709,1.75709,0,0,0,.25391,1.04786.983.983,0,0,0,.84765.34472,5.8858,5.8858,0,0,0,.75782-.07812l.03906.75879a3.052,3.052,0,0,1-1,.13183,1.66746,1.66746,0,0,1-1.39844-.55859,2.62746,2.62746,0,0,1-.4375-1.64453v-5.64063h-1.55469v-.76562h1.55469v-2.16406Z" style="fill:#232d38"/><path d="M896.88939,376.93432a3.52685,3.52685,0,0,0-.63281-.05468,2.283,2.283,0,0,0-1.48047.48828,2.66777,2.66777,0,0,0-.86328,1.418v5.80468h-.92969v-8.45312h.91406l.01563,1.34375a2.48542,2.48542,0,0,1,2.38281-1.5,1.54656,1.54656,0,0,1,.61719.10156Z" style="fill:#232d38"/><path d="M897.69408,380.239a4.97072,4.97072,0,0,1,.47266-2.19531,3.55064,3.55064,0,0,1,3.293-2.0625,3.47778,3.47778,0,0,1,2.73438,1.18359,4.56452,4.56452,0,0,1,1.04687,3.13672v.19531a5.027,5.027,0,0,1-.47265,2.207,3.53928,3.53928,0,0,1-1.332,1.51172,3.65041,3.65041,0,0,1-1.96094.53125,3.47943,3.47943,0,0,1-2.73047-1.18359,4.54754,4.54754,0,0,1-1.05078-3.13672Zm.9375.25781a3.835,3.835,0,0,0,.78516,2.48828,2.65652,2.65652,0,0,0,4.10937,0,3.9619,3.9619,0,0,0,.78516-2.5664V380.239a4.30524,4.30524,0,0,0-.35938-1.77344,2.89682,2.89682,0,0,0-1.00781-1.24609,2.57969,2.57969,0,0,0-1.48438-.44141,2.49716,2.49716,0,0,0-2.03906.98047,3.96517,3.96517,0,0,0-.78906,2.56641Z" style="fill:#232d38"/><path d="M909.68627,383.30151l2.57031-7.16406h.96094l-3.15625,8.45312h-.75782l-3.17187-8.45312h.96094Z" style="fill:#232d38"/><path d="M917.92064,384.74682a3.665,3.665,0,0,1-1.94922-.53125,3.61591,3.61591,0,0,1-1.35547-1.48047,4.61257,4.61257,0,0,1-.48437-2.1289v-.33594a4.97072,4.97072,0,0,1,.47266-2.19531,3.7514,3.7514,0,0,1,1.3164-1.53516,3.25,3.25,0,0,1,1.82813-.55859,3.054,3.054,0,0,1,2.4414,1.05078,4.26105,4.26105,0,0,1,.90235,2.87109v.52344h-6.03125v.17969a3.53784,3.53784,0,0,0,.82422,2.39453,2.62118,2.62118,0,0,0,2.07421.957,3.04142,3.04142,0,0,0,1.32422-.27344,2.93682,2.93682,0,0,0,1.043-.875l.58594.44532A3.41088,3.41088,0,0,1,917.92064,384.74682Zm-.17187-7.96875a2.33668,2.33668,0,0,0-1.77735.77344,3.56383,3.56383,0,0,0-.8789,2.07813h5.07031v-.10157a3.1047,3.1047,0,0,0-.69531-1.98437A2.15425,2.15425,0,0,0,917.74877,376.77807Z" style="fill:#232d38"/><path d="M926.81908,376.93432a3.52685,3.52685,0,0,0-.63281-.05468,2.283,2.283,0,0,0-1.48047.48828,2.66777,2.66777,0,0,0-.86328,1.418v5.80468h-.92969v-8.45312h.91406l.01563,1.34375a2.48542,2.48542,0,0,1,2.38281-1.5,1.54656,1.54656,0,0,1,.61719.10156Z" style="fill:#232d38"/><path d="M930.13939,373.97339v2.16406h1.75v.76562h-1.75v5.63867a1.75709,1.75709,0,0,0,.25391,1.04786.983.983,0,0,0,.84765.34472,5.8858,5.8858,0,0,0,.75782-.07812l.03906.75879a3.052,3.052,0,0,1-1,.13183,1.66746,1.66746,0,0,1-1.39844-.55859,2.62746,2.62746,0,0,1-.4375-1.64453v-5.64063H927.6472v-.76562h1.55469v-2.16406Z" style="fill:#232d38"/><path d="M933.63158,386.71557l-.55469-.40625a3.40609,3.40609,0,0,0,.73438-1.97656v-1.21094h.91406v.97657A3.36808,3.36808,0,0,1,933.63158,386.71557Z" style="fill:#232d38"/><path d="M941.82689,384.59057h-.9375v-12h.9375Z" style="fill:#232d38"/><path d="M944.31127,373.696a.62316.62316,0,0,1,.17187-.44629.61057.61057,0,0,1,.46875-.18261.62527.62527,0,0,1,.47266.18261.61827.61827,0,0,1,.17578.44629.606.606,0,0,1-.17578.44238.63389.63389,0,0,1-.47266.17872.61885.61885,0,0,1-.46875-.17872A.61075.61075,0,0,1,944.31127,373.696Zm1.10156,10.89453h-.9375v-8.45312h.9375Z" style="fill:#232d38"/><path d="M948.62377,384.59057v-7.6875h-1.39844v-.76562h1.39844V375.114a2.7822,2.7822,0,0,1,.66015-1.99219,2.41229,2.41229,0,0,1,1.83985-.69531,3.59931,3.59931,0,0,1,.99218.13184l-.07031.77441a3.65186,3.65186,0,0,0-.85156-.09375,1.52746,1.52746,0,0,0-1.20313.48145,1.98382,1.98382,0,0,0-.42968,1.36718v1.04981h2.01562v.76562h-2.01562v7.6875Z" style="fill:#232d38"/><path d="M956.3347,384.74682a3.66494,3.66494,0,0,1-1.94921-.53125A3.61578,3.61578,0,0,1,953.03,382.7351a4.61257,4.61257,0,0,1-.48438-2.1289v-.33594a4.97072,4.97072,0,0,1,.47266-2.19531,3.7514,3.7514,0,0,1,1.3164-1.53516,3.25,3.25,0,0,1,1.82813-.55859,3.05408,3.05408,0,0,1,2.44141,1.05078,4.2611,4.2611,0,0,1,.90234,2.87109v.52344h-6.03125v.17969a3.53784,3.53784,0,0,0,.82422,2.39453,2.6212,2.6212,0,0,0,2.07422.957,3.04145,3.04145,0,0,0,1.32422-.27344,2.93688,2.93688,0,0,0,1.043-.875l.58594.44532A3.41087,3.41087,0,0,1,956.3347,384.74682Zm-.17187-7.96875a2.33664,2.33664,0,0,0-1.77734.77344,3.56384,3.56384,0,0,0-.87891,2.07813h5.07031v-.10157a3.10464,3.10464,0,0,0-.69531-1.98437A2.15425,2.15425,0,0,0,956.16283,376.77807Z" style="fill:#232d38"/><path d="M964.70189,380.239a4.97072,4.97072,0,0,1,.47266-2.19531,3.55067,3.55067,0,0,1,3.293-2.0625,3.47776,3.47776,0,0,1,2.73437,1.18359,4.56452,4.56452,0,0,1,1.04688,3.13672v.19531a5.027,5.027,0,0,1-.47266,2.207,3.53921,3.53921,0,0,1-1.332,1.51172,3.65039,3.65039,0,0,1-1.96094.53125,3.47945,3.47945,0,0,1-2.73047-1.18359,4.54754,4.54754,0,0,1-1.05078-3.13672Zm.9375.25781a3.835,3.835,0,0,0,.78516,2.48828,2.65652,2.65652,0,0,0,4.10937,0,3.9619,3.9619,0,0,0,.78516-2.5664V380.239a4.30524,4.30524,0,0,0-.35938-1.77344,2.89682,2.89682,0,0,0-1.00781-1.24609,2.57966,2.57966,0,0,0-1.48437-.44141,2.49718,2.49718,0,0,0-2.03907.98047,3.96517,3.96517,0,0,0-.78906,2.56641Z" style="fill:#232d38"/><path d="M974.85033,384.59057v-7.6875h-1.39844v-.76562h1.39844V375.114a2.7822,2.7822,0,0,1,.66016-1.99219,2.41225,2.41225,0,0,1,1.83984-.69531,3.59938,3.59938,0,0,1,.99219.13184l-.07032.77441a3.65186,3.65186,0,0,0-.85156-.09375,1.52744,1.52744,0,0,0-1.20312.48145,1.98377,1.98377,0,0,0-.42969,1.36718v1.04981h2.01562v.76562h-2.01562v7.6875Z" style="fill:#232d38"/><path d="M984.81908,373.97339v2.16406h1.75v.76562h-1.75v5.63867a1.757,1.757,0,0,0,.25391,1.04786.983.983,0,0,0,.84765.34472,5.88553,5.88553,0,0,0,.75781-.07812l.03907.75879a3.052,3.052,0,0,1-1,.13183,1.66746,1.66746,0,0,1-1.39844-.55859,2.62746,2.62746,0,0,1-.4375-1.64453v-5.64063h-1.55469v-.76562h1.55469v-2.16406Z" style="fill:#232d38"/><path d="M989.43627,377.56714a3.29822,3.29822,0,0,1,1.17968-1.17188,3.08419,3.08419,0,0,1,1.57032-.41406,2.53547,2.53547,0,0,1,2.02343.76562,3.45956,3.45956,0,0,1,.67188,2.29688v5.54687h-.92969v-5.55468a2.59117,2.59117,0,0,0-.48047-1.6875,1.88207,1.88207,0,0,0-1.51172-.55469,2.3629,2.3629,0,0,0-1.53515.543,3.17926,3.17926,0,0,0-.98828,1.46484v5.78906h-.92969v-12h.92969Z" style="fill:#232d38"/><path d="M1000.56127,384.74682a3.665,3.665,0,0,1-1.94922-.53125,3.61584,3.61584,0,0,1-1.35547-1.48047,4.61257,4.61257,0,0,1-.48438-2.1289v-.33594a4.97072,4.97072,0,0,1,.47266-2.19531,3.75142,3.75142,0,0,1,1.31641-1.53516,3.25,3.25,0,0,1,1.82812-.55859,3.05406,3.05406,0,0,1,2.44141,1.05078,4.2611,4.2611,0,0,1,.90234,2.87109v.52344h-6.03125v.17969a3.53789,3.53789,0,0,0,.82422,2.39453,2.62122,2.62122,0,0,0,2.07422.957,3.04142,3.04142,0,0,0,1.32422-.27344,2.93691,2.93691,0,0,0,1.043-.875l.58593.44532A3.41086,3.41086,0,0,1,1000.56127,384.74682Zm-.17188-7.96875a2.33665,2.33665,0,0,0-1.77734.77344,3.5639,3.5639,0,0,0-.87891,2.07813h5.07031v-.10157a3.10464,3.10464,0,0,0-.69531-1.98437A2.15425,2.15425,0,0,0,1000.38939,376.77807Z" style="fill:#232d38"/><path d="M1016.241,380.45a5.09354,5.09354,0,0,1-.875,3.13672,2.78859,2.78859,0,0,1-2.34375,1.16015,3.12857,3.12857,0,0,1-2.65625-1.21875v4.3125h-.92968V376.13745h.86718l.04688,1.19531a2.999,2.999,0,0,1,2.64844-1.35156,2.81325,2.81325,0,0,1,2.3789,1.14844,5.20536,5.20536,0,0,1,.86328,3.1875Zm-.9375-.16406a4.3501,4.3501,0,0,0-.66406-2.55469,2.14283,2.14283,0,0,0-1.85156-.9375,2.46671,2.46671,0,0,0-2.42188,1.61719v4.05468a2.4768,2.4768,0,0,0,.96094,1.10938,2.77085,2.77085,0,0,0,1.47656.38281,2.12141,2.12141,0,0,0,1.83985-.94141A4.74038,4.74038,0,0,0,1015.30345,380.28589Z" style="fill:#232d38"/><path d="M1023.6472,384.59057a4.39693,4.39693,0,0,1-.17968-1.17968,3.26034,3.26034,0,0,1-1.25391.98828,3.84647,3.84647,0,0,1-1.61328.34765,2.83249,2.83249,0,0,1-1.97266-.67968,2.21352,2.21352,0,0,1-.7539-1.71875,2.2609,2.2609,0,0,1,1.02734-1.95313,4.93183,4.93183,0,0,1,2.86328-.71875h1.69531v-.96094a1.85287,1.85287,0,0,0-.55859-1.42578,2.30962,2.30962,0,0,0-1.62891-.51953,2.5499,2.5499,0,0,0-1.61718.5,1.48348,1.48348,0,0,0-.64063,1.20313l-.9375-.00782a2.17394,2.17394,0,0,1,.9375-1.74609,3.60867,3.60867,0,0,1,2.30469-.73828,3.29283,3.29283,0,0,1,2.23047.707,2.53856,2.53856,0,0,1,.83984,1.97266v4a4.96249,4.96249,0,0,0,.25781,1.83593v.09375Zm-2.9375-.67187a3.14149,3.14149,0,0,0,1.67579-.45313,2.67,2.67,0,0,0,1.07421-1.21093v-1.85938h-1.67187a4.18655,4.18655,0,0,0-2.1875.51172,1.53553,1.53553,0,0,0-.78906,1.36328,1.51179,1.51179,0,0,0,.52734,1.17969A1.98665,1.98665,0,0,0,1020.7097,383.9187Z" style="fill:#232d38"/><path d="M1030.78783,376.93432a3.52685,3.52685,0,0,0-.63281-.05468,2.283,2.283,0,0,0-1.48047.48828,2.66777,2.66777,0,0,0-.86328,1.418v5.80468h-.92969v-8.45312h.91406l.01563,1.34375a2.48542,2.48542,0,0,1,2.38281-1.5,1.54656,1.54656,0,0,1,.61719.10156Z" style="fill:#232d38"/><path d="M1034.10814,373.97339v2.16406h1.75v.76562h-1.75v5.63867a1.75709,1.75709,0,0,0,.25391,1.04786.983.983,0,0,0,.84765.34472,5.8858,5.8858,0,0,0,.75782-.07812l.03906.75879a3.052,3.052,0,0,1-1,.13183,1.66746,1.66746,0,0,1-1.39844-.55859,2.62746,2.62746,0,0,1-.4375-1.64453v-5.64063H1031.616v-.76562h1.55469v-2.16406Z" style="fill:#232d38"/><path d="M1040.47533,383.24682l2.46875-7.10937h1.00781l-3.60937,9.89062-.1875.4375a2.27144,2.27144,0,0,1-2.14844,1.53907,2.64179,2.64179,0,0,1-.71875-.10938l-.00781-.77344.48437.04688a1.73218,1.73218,0,0,0,1.11328-.33985,2.58946,2.58946,0,0,0,.72266-1.168l.41406-1.14063-3.1875-8.38281h1.02344Z" style="fill:#232d38"/><path d="M1044.366,386.71557l-.55468-.40625a3.40607,3.40607,0,0,0,.73437-1.97656v-1.21094h.91406v.97657A3.36808,3.36808,0,0,1,1044.366,386.71557Z" style="fill:#232d38"/><path d="M872.00658,403.79077h-.9375v-12h.9375Z" style="fill:#232d38"/><path d="M874.03,399.43921a4.97079,4.97079,0,0,1,.47265-2.19532,3.55067,3.55067,0,0,1,3.293-2.0625A3.47776,3.47776,0,0,1,880.53,396.365a4.56457,4.56457,0,0,1,1.04687,3.13672v.19531a5.027,5.027,0,0,1-.47265,2.207,3.53923,3.53923,0,0,1-1.332,1.51172,3.65038,3.65038,0,0,1-1.96093.53125,3.47939,3.47939,0,0,1-2.73047-1.1836,4.54753,4.54753,0,0,1-1.05078-3.13671Zm.9375.25781a3.83507,3.83507,0,0,0,.78515,2.48828,2.65653,2.65653,0,0,0,4.10938,0,3.962,3.962,0,0,0,.78515-2.56641v-.17968a4.30521,4.30521,0,0,0-.35937-1.77344,2.89691,2.89691,0,0,0-1.00781-1.2461,2.57978,2.57978,0,0,0-1.48438-.4414,2.49716,2.49716,0,0,0-2.03906.98047,3.96511,3.96511,0,0,0-.78906,2.5664Z" style="fill:#232d38"/><path d="M884.9597,393.17358v2.16406h1.75v.76563h-1.75v5.63867a1.757,1.757,0,0,0,.25391,1.04785.983.983,0,0,0,.84766.34473,5.88619,5.88619,0,0,0,.75781-.07813l.03906.75879a3.0519,3.0519,0,0,1-1,.13184,1.66748,1.66748,0,0,1-1.39844-.5586,2.62744,2.62744,0,0,1-.4375-1.64453v-5.64062h-1.55468v-.76563h1.55468v-2.16406Z" style="fill:#232d38"/><path d="M892.0222,399.43921a4.97079,4.97079,0,0,1,.47266-2.19532,3.55067,3.55067,0,0,1,3.293-2.0625,3.47774,3.47774,0,0,1,2.73437,1.1836,4.56452,4.56452,0,0,1,1.04688,3.13672v.19531a5.02688,5.02688,0,0,1-.47266,2.207,3.53921,3.53921,0,0,1-1.332,1.51172,3.65039,3.65039,0,0,1-1.96094.53125,3.47939,3.47939,0,0,1-2.73046-1.1836,4.54748,4.54748,0,0,1-1.05079-3.13671Zm.9375.25781a3.835,3.835,0,0,0,.78516,2.48828,2.65653,2.65653,0,0,0,4.10938,0,3.962,3.962,0,0,0,.78515-2.56641v-.17968a4.30521,4.30521,0,0,0-.35937-1.77344,2.89692,2.89692,0,0,0-1.00782-1.2461,2.57973,2.57973,0,0,0-1.48437-.4414,2.49716,2.49716,0,0,0-2.03906.98047,3.96511,3.96511,0,0,0-.78907,2.5664Z" style="fill:#232d38"/><path d="M902.17064,403.79077v-7.6875H900.7722v-.76563h1.39844v-1.02343a2.7822,2.7822,0,0,1,.66016-1.99219,2.41222,2.41222,0,0,1,1.83984-.69531,3.59938,3.59938,0,0,1,.99219.13183l-.07031.77442a3.65188,3.65188,0,0,0-.85157-.09375,1.52744,1.52744,0,0,0-1.20312.48144,1.9838,1.9838,0,0,0-.42969,1.36719v1.0498h2.01563v.76563h-2.01563v7.6875Z" style="fill:#232d38"/><path d="M911.35814,403.79077v-7.6875H909.9597v-.76563h1.39844v-1.02343a2.7822,2.7822,0,0,1,.66016-1.99219,2.41222,2.41222,0,0,1,1.83984-.69531,3.59938,3.59938,0,0,1,.99219.13183l-.07031.77442a3.65188,3.65188,0,0,0-.85157-.09375,1.52744,1.52744,0,0,0-1.20312.48144,1.9838,1.9838,0,0,0-.42969,1.36719v1.0498h2.01563v.76563h-2.01563v7.6875Z" style="fill:#232d38"/><path d="M919.06908,403.947a3.665,3.665,0,0,1-1.94922-.53125,3.616,3.616,0,0,1-1.35547-1.48047,4.61258,4.61258,0,0,1-.48437-2.12891v-.33593a4.97079,4.97079,0,0,1,.47265-2.19532,3.75153,3.75153,0,0,1,1.31641-1.53515,3.25,3.25,0,0,1,1.82812-.5586,3.05408,3.05408,0,0,1,2.44141,1.05078,4.26113,4.26113,0,0,1,.90234,2.8711v.52344H916.2097v.17968a3.53787,3.53787,0,0,0,.82422,2.39453,2.6212,2.6212,0,0,0,2.07422.957,3.04142,3.04142,0,0,0,1.32422-.27344,2.937,2.937,0,0,0,1.043-.875l.58594.44531A3.41086,3.41086,0,0,1,919.06908,403.947Zm-.17188-7.96875a2.33663,2.33663,0,0,0-1.77734.77344,3.56385,3.56385,0,0,0-.87891,2.07812h5.07032v-.10156a3.10475,3.10475,0,0,0-.69532-1.98438A2.15424,2.15424,0,0,0,918.8972,395.97827Z" style="fill:#232d38"/><path d="M927.3347,403.947a3.66494,3.66494,0,0,1-1.94921-.53125A3.61584,3.61584,0,0,1,924.03,401.9353a4.61258,4.61258,0,0,1-.48438-2.12891v-.33593a4.97079,4.97079,0,0,1,.47266-2.19532,3.75143,3.75143,0,0,1,1.3164-1.53515,3.25005,3.25005,0,0,1,1.82813-.5586,3.05411,3.05411,0,0,1,2.44141,1.05078,4.26113,4.26113,0,0,1,.90234,2.8711v.52344h-6.03125v.17968a3.53782,3.53782,0,0,0,.82422,2.39453,2.62118,2.62118,0,0,0,2.07422.957,3.04145,3.04145,0,0,0,1.32422-.27344,2.937,2.937,0,0,0,1.043-.875l.58594.44531A3.41085,3.41085,0,0,1,927.3347,403.947Zm-.17187-7.96875a2.3366,2.3366,0,0,0-1.77734.77344,3.56378,3.56378,0,0,0-.87891,2.07812h5.07031v-.10156a3.10469,3.10469,0,0,0-.69531-1.98438A2.15424,2.15424,0,0,0,927.16283,395.97827Z" style="fill:#232d38"/><path d="M933.37377,403.79077h-.9375v-12h.9375Z" style="fill:#232d38"/><path d="M935.85814,392.89624A.62311.62311,0,0,1,936.03,392.45a.61057.61057,0,0,1,.46875-.18262.62525.62525,0,0,1,.47265.18262.61826.61826,0,0,1,.17578.44629.606.606,0,0,1-.17578.44238.63386.63386,0,0,1-.47265.17871.61884.61884,0,0,1-.46875-.17871A.61071.61071,0,0,1,935.85814,392.89624Zm1.10156,10.89453h-.9375v-8.45313h.9375Z" style="fill:#232d38"/><path d="M940.38939,395.33764l.03125,1.44532a3.35154,3.35154,0,0,1,1.1875-1.19141,3.08434,3.08434,0,0,1,1.57031-.41016,2.53551,2.53551,0,0,1,2.02344.76563,3.45954,3.45954,0,0,1,.67188,2.29687v5.54688h-.92969v-5.55469a2.59127,2.59127,0,0,0-.48047-1.6875,1.88207,1.88207,0,0,0-1.51172-.55469,2.363,2.363,0,0,0-1.53515.543,3.17936,3.17936,0,0,0-.98829,1.46485v5.78906h-.92968v-8.45313Z" style="fill:#232d38"/><path d="M947.91283,399.48608a5.0878,5.0878,0,0,1,.87891-3.14453,2.83456,2.83456,0,0,1,2.38671-1.16016,2.94067,2.94067,0,0,1,2.625,1.375l.04688-1.21875h.875v8.28125a3.58169,3.58169,0,0,1-.91406,2.58594,3.27354,3.27354,0,0,1-2.47657.95313,3.76288,3.76288,0,0,1-1.68359-.39454,3.26867,3.26867,0,0,1-1.26172-1.05078l.52344-.5625a2.96068,2.96068,0,0,0,2.35937,1.21875,2.39964,2.39964,0,0,0,1.82813-.6914,2.75522,2.75522,0,0,0,.67969-1.918V402.697a3.02322,3.02322,0,0,1-2.61719,1.25,2.81843,2.81843,0,0,1-2.35938-1.17188,5.106,5.106,0,0,1-.89062-3.16406Zm.94531.16406a4.40488,4.40488,0,0,0,.64844,2.55078,2.09647,2.09647,0,0,0,1.82812.9336,2.49924,2.49924,0,0,0,2.44532-1.54688V397.658a2.66851,2.66851,0,0,0-.94532-1.23829,2.54836,2.54836,0,0,0-1.48437-.42578,2.12165,2.12165,0,0,0-1.83594.92578A4.71066,4.71066,0,0,0,948.85814,399.65014Z" style="fill:#232d38"/><path d="M962.22533,401.64233a1.33246,1.33246,0,0,0-.55859-1.11719,4.3173,4.3173,0,0,0-1.6836-.66015,7.59534,7.59534,0,0,1-1.74609-.54688,2.32661,2.32661,0,0,1-.92188-.7539,1.87594,1.87594,0,0,1-.30078-1.07813,2.00957,2.00957,0,0,1,.83594-1.65234,3.37657,3.37657,0,0,1,2.14062-.65235,3.47777,3.47777,0,0,1,2.26954.69922,2.24367,2.24367,0,0,1,.85546,1.82422h-.9375a1.51339,1.51339,0,0,0-.62109-1.23437,2.80355,2.80355,0,0,0-3.04687-.082,1.26408,1.26408,0,0,0-.5586,1.06641,1.15082,1.15082,0,0,0,.46485.98047,4.91417,4.91417,0,0,0,1.69531.63672,7.95792,7.95792,0,0,1,1.84375.61719,2.39241,2.39241,0,0,1,.91015.78906,2.16976,2.16976,0,0,1-.5664,2.82812,3.69228,3.69228,0,0,1-2.25391.64063,3.78519,3.78519,0,0,1-2.39453-.71485,2.19929,2.19929,0,0,1-.918-1.80859h.9375a1.62384,1.62384,0,0,0,.69141,1.27734,2.82412,2.82412,0,0,0,1.68359.457,2.66094,2.66094,0,0,0,1.57813-.42969A1.29071,1.29071,0,0,0,962.22533,401.64233Z" style="fill:#232d38"/><text transform="translate(549.42556 101.125)" style="font-size:16px;fill:#232d38;font-family:Roboto-Light, Roboto;font-weight:300"><tspan style="letter-spacing:-0.01513671875em">W</tspan><tspan x="14.10156" y="0">ork with people with a similar </tspan><tspan x="0" y="13">mindset</tspan></text><text transform="translate(549.42565 66.44836)" style="font-size:18px;fill:#191d23;font-family:Roboto-Bold, Roboto;font-weight:700">G<tspan x="12.26074" y="0" style="letter-spacing:-0.01025390625em">O</tspan><tspan x="24.50391" y="0">ALS</tspan></text><text transform="translate(549.42565 347.07812)" style="font-size:18px;fill:#191d23;font-family:Roboto-Bold, Roboto;font-weight:700">M<tspan x="15.76758" y="0" style="letter-spacing:-0.04150390625em">O</tspan><tspan x="27.44824" y="0">TI</tspan><tspan x="43.83105" y="0" style="letter-spacing:-0.03662109375em">V</tspan><tspan x="54.94043" y="0" style="letter-spacing:-0.05859375em">A</tspan><tspan x="65.99707" y="0">TIONS</tspan></text><text transform="translate(288.63738 347.07812)" style="font-size:18px;fill:#191d23;font-family:Roboto-Bold, Roboto;font-weight:700">BIO</text><text transform="translate(869.74044 347.07812)" style="font-size:18px;fill:#191d23;font-family:Roboto-Bold, Roboto;font-weight:700">PERSO<tspan x="56.71582" y="0" style="letter-spacing:0.0087890625em">N</tspan><tspan x="69.58301" y="0">AL</tspan><tspan x="91.44141" y="0" style="letter-spacing:-0.01416015625em">I</tspan><tspan x="96.43359" y="0" style="letter-spacing:0.0078125em">T</tspan><tspan x="107.70996" y="0">Y</tspan></text><text transform="translate(549.42565 627.70959)" style="font-size:18px;fill:#191d23;font-family:Roboto-Bold, Roboto;font-weight:700">BRANDS</text><text transform="translate(288.63738 627.70959)" style="font-size:18px;fill:#191d23;font-family:Roboto-Bold, Roboto;font-weight:700">TECHNO<tspan x="70.89258" y="0" style="letter-spacing:-0.03125em">L</tspan><tspan x="80.07715" y="0">OGY</tspan></text><text transform="translate(869.74044 627.70959)" style="font-size:18px;fill:#191d23;font-family:Roboto-Bold, Roboto;font-weight:700">SO<tspan x="23.49316" y="0" style="letter-spacing:0.009765625em">F</tspan><tspan x="33.53027" y="0" style="letter-spacing:0.00732421875em">T</tspan><tspan x="44.79785" y="0" style="letter-spacing:-0.02099609375em">W</tspan><tspan x="60.16113" y="0">ARE &amp; APPS</tspan></text><text transform="translate(549.42556 145.90454)" style="font-size:16px;fill:#232d38;font-family:Roboto-Light, Roboto;font-weight:300">Manage business efficiently</text><path d="M552.136,373.21557l4.19532,10.03907,4.21093-10.03907h1.28125v11.375h-.96093v-4.95312l.07812-5.07813-4.23437,10.03125h-.74219l-4.21875-9.99218.07812,5.00781v4.98437h-.96093v-11.375Z" style="fill:#232d38"/><path d="M569.82347,384.59057a4.41687,4.41687,0,0,1-.17968-1.17968,3.26034,3.26034,0,0,1-1.25391.98828,3.84647,3.84647,0,0,1-1.61328.34765,2.83331,2.83331,0,0,1-1.97266-.67968,2.21352,2.21352,0,0,1-.7539-1.71875,2.262,2.262,0,0,1,1.02734-1.95313,4.93289,4.93289,0,0,1,2.86328-.71875H569.636v-.96094a1.85287,1.85287,0,0,0-.55859-1.42578,2.308,2.308,0,0,0-1.62891-.51953,2.54988,2.54988,0,0,0-1.61718.5,1.48479,1.48479,0,0,0-.64063,1.20313l-.9375-.00782a2.17394,2.17394,0,0,1,.9375-1.74609,3.60962,3.60962,0,0,1,2.30469-.73828,3.292,3.292,0,0,1,2.23047.707,2.53856,2.53856,0,0,1,.83984,1.97266v4a4.96249,4.96249,0,0,0,.25781,1.83593v.09375Zm-2.9375-.67187a3.14149,3.14149,0,0,0,1.67579-.45313,2.66725,2.66725,0,0,0,1.07421-1.21093v-1.85938H567.9641a4.1878,4.1878,0,0,0-2.1875.51172,1.53553,1.53553,0,0,0-.78906,1.36328,1.51179,1.51179,0,0,0,.52734,1.17969A1.98665,1.98665,0,0,0,566.886,383.9187Z" style="fill:#232d38"/><path d="M575.06566,380.33276l-1.07031,1.03125v3.22656h-.9375v-12h.9375v7.67969l.88281-.95312,3.23438-3.17969h1.17968L575.70629,379.7l3.89843,4.89062h-1.11718Z" style="fill:#232d38"/><path d="M580.8391,373.696a.62523.62523,0,0,1,.17187-.44629.61057.61057,0,0,1,.46875-.18261.62453.62453,0,0,1,.47266.18261.61827.61827,0,0,1,.17578.44629.606.606,0,0,1-.17578.44238.63313.63313,0,0,1-.47266.17872.6013.6013,0,0,1-.64062-.6211Zm1.10156,10.89453h-.9375v-8.45312h.9375Z" style="fill:#232d38"/><path d="M585.37035,376.13745l.03125,1.44531a3.35537,3.35537,0,0,1,1.1875-1.19141,3.0844,3.0844,0,0,1,1.57031-.41015,2.53483,2.53483,0,0,1,2.02344.76562,3.45693,3.45693,0,0,1,.67187,2.29688v5.54687H589.925v-5.55468a2.5856,2.5856,0,0,0-.48047-1.6875,1.88209,1.88209,0,0,0-1.51172-.55469,2.36292,2.36292,0,0,0-1.53516.543,3.183,3.183,0,0,0-.98828,1.46484v5.78906h-.92969v-8.45312Z" style="fill:#232d38"/><path d="M592.89379,380.28589a5.08788,5.08788,0,0,1,.8789-3.14454,2.83522,2.83522,0,0,1,2.38672-1.16015,2.9396,2.9396,0,0,1,2.625,1.375l.04688-1.21875h.875v8.28125a3.58167,3.58167,0,0,1-.91407,2.58594,3.27279,3.27279,0,0,1-2.47656.95312,3.76449,3.76449,0,0,1-1.68359-.39453,3.27226,3.27226,0,0,1-1.26172-1.05078l.52344-.5625a2.96135,2.96135,0,0,0,2.35937,1.21875,2.39961,2.39961,0,0,0,1.82813-.69141,2.75515,2.75515,0,0,0,.67968-1.918v-1.0625a3.02263,3.02263,0,0,1-2.61718,1.25,2.81841,2.81841,0,0,1-2.35938-1.17187,5.106,5.106,0,0,1-.89062-3.16406Zm.94531.16406a4.40491,4.40491,0,0,0,.64844,2.55078,2.09761,2.09761,0,0,0,1.82812.93359,2.49879,2.49879,0,0,0,2.44531-1.54687v-3.92969a2.66858,2.66858,0,0,0-.94531-1.23828,2.54731,2.54731,0,0,0-1.48437-.42578,2.12221,2.12221,0,0,0-1.83594.92578A4.71064,4.71064,0,0,0,593.8391,380.45Z" style="fill:#232d38"/><path d="M609.30785,384.74682a3.66622,3.66622,0,0,1-1.94922-.53125,3.61922,3.61922,0,0,1-1.35547-1.48047,4.61257,4.61257,0,0,1-.48437-2.1289v-.33594a4.97071,4.97071,0,0,1,.47265-2.19531,3.755,3.755,0,0,1,1.31641-1.53516,3.25,3.25,0,0,1,1.82812-.55859,3.05338,3.05338,0,0,1,2.44141,1.05078,4.2611,4.2611,0,0,1,.90234,2.87109v.52344h-6.03125v.17969a3.53789,3.53789,0,0,0,.82422,2.39453,2.6226,2.6226,0,0,0,2.07422.957,3.04142,3.04142,0,0,0,1.32422-.27344,2.93691,2.93691,0,0,0,1.043-.875l.58594.44532A3.41031,3.41031,0,0,1,609.30785,384.74682Zm-.17188-7.96875a2.33667,2.33667,0,0,0-1.77734.77344,3.57013,3.57013,0,0,0-.87891,2.07813H611.55v-.10157a3.1047,3.1047,0,0,0-.69532-1.98437A2.15425,2.15425,0,0,0,609.136,376.77807Z" style="fill:#232d38"/><path d="M615.19066,376.13745l.03125,1.44531a3.35537,3.35537,0,0,1,1.1875-1.19141,3.0844,3.0844,0,0,1,1.57031-.41015,2.53483,2.53483,0,0,1,2.02344.76562,3.45693,3.45693,0,0,1,.67188,2.29688v5.54687h-.92969v-5.55468a2.5856,2.5856,0,0,0-.48047-1.6875,1.88209,1.88209,0,0,0-1.51172-.55469,2.3629,2.3629,0,0,0-1.53515.543,3.1829,3.1829,0,0,0-.98829,1.46484v5.78906H614.3v-8.45312Z" style="fill:#232d38"/><path d="M622.57347,380.239a4.97072,4.97072,0,0,1,.47266-2.19531,3.55067,3.55067,0,0,1,3.293-2.0625,3.47776,3.47776,0,0,1,2.73437,1.18359,4.56214,4.56214,0,0,1,1.04688,3.13672v.19531a5.02014,5.02014,0,0,1-.47266,2.207,3.536,3.536,0,0,1-1.332,1.51172,3.65039,3.65039,0,0,1-1.96094.53125,3.47941,3.47941,0,0,1-2.73046-1.18359,4.54985,4.54985,0,0,1-1.05079-3.13672Zm.9375.25781a3.835,3.835,0,0,0,.78516,2.48828,2.65653,2.65653,0,0,0,4.10938,0,3.962,3.962,0,0,0,.78515-2.5664V380.239a4.3054,4.3054,0,0,0-.35937-1.77344,2.88993,2.88993,0,0,0-1.00782-1.24609,2.57856,2.57856,0,0,0-1.48437-.44141,2.49845,2.49845,0,0,0-2.03906.98047,3.96512,3.96512,0,0,0-.78907,2.56641Z" style="fill:#232d38"/><path d="M637.48754,383.52026a3.03915,3.03915,0,0,1-2.69532,1.22656,2.61483,2.61483,0,0,1-2.05468-.78515,3.43751,3.43751,0,0,1-.71875-2.32422v-5.5h.92968v5.38281q0,2.41407,1.95313,2.41406a2.394,2.394,0,0,0,2.57031-1.67968v-6.11719h.9375v8.45312h-.90625Z" style="fill:#232d38"/><path d="M640.4641,380.28589a5.08781,5.08781,0,0,1,.87891-3.14454,2.83518,2.83518,0,0,1,2.38671-1.16015,2.9396,2.9396,0,0,1,2.625,1.375l.04688-1.21875h.875v8.28125a3.5817,3.5817,0,0,1-.91406,2.58594,3.27283,3.27283,0,0,1-2.47657.95312,3.76452,3.76452,0,0,1-1.68359-.39453,3.27226,3.27226,0,0,1-1.26172-1.05078l.52344-.5625a2.96135,2.96135,0,0,0,2.35937,1.21875,2.39961,2.39961,0,0,0,1.82813-.69141,2.75521,2.75521,0,0,0,.67969-1.918v-1.0625a3.02263,3.02263,0,0,1-2.61719,1.25,2.81842,2.81842,0,0,1-2.35938-1.17187,5.106,5.106,0,0,1-.89062-3.16406Zm.94531.16406a4.40491,4.40491,0,0,0,.64844,2.55078,2.09761,2.09761,0,0,0,1.82812.93359,2.49882,2.49882,0,0,0,2.44532-1.54687v-3.92969a2.66853,2.66853,0,0,0-.94532-1.23828,2.54731,2.54731,0,0,0-1.48437-.42578,2.12221,2.12221,0,0,0-1.83594.92578A4.71064,4.71064,0,0,0,641.40941,380.45Z" style="fill:#232d38"/><path d="M650.64379,377.56714a3.30209,3.30209,0,0,1,1.17968-1.17188,3.08677,3.08677,0,0,1,1.57032-.41406,2.5348,2.5348,0,0,1,2.02343.76562,3.45688,3.45688,0,0,1,.67188,2.29688v5.54687h-.92969v-5.55468a2.5856,2.5856,0,0,0-.48047-1.6875,1.88207,1.88207,0,0,0-1.51172-.55469,2.3629,2.3629,0,0,0-1.53515.543,3.183,3.183,0,0,0-.98828,1.46484v5.78906h-.92969v-12h.92969Z" style="fill:#232d38"/><path d="M663.23754,376.13745l.03125,1.375a3.12415,3.12415,0,0,1,1.17187-1.14844,3.21655,3.21655,0,0,1,1.5625-.38281,2.37136,2.37136,0,0,1,2.53906,1.64062,3.17036,3.17036,0,0,1,1.21094-1.21484,3.35012,3.35012,0,0,1,1.67188-.42578q2.71875,0,2.77343,2.96875v5.64062h-.9375v-5.57031a2.52061,2.52061,0,0,0-.48828-1.67969,1.98932,1.98932,0,0,0-1.5664-.54687,2.48945,2.48945,0,0,0-1.70313.65234,2.30328,2.30328,0,0,0-.77344,1.55078v5.59375h-.9375V378.95a2.31655,2.31655,0,0,0-.51171-1.6211,2.03787,2.03787,0,0,0-1.55079-.53515,2.35754,2.35754,0,0,0-1.51562.5039,2.95646,2.95646,0,0,0-.9375,1.4961v5.79687h-.9375v-8.45312Z" style="fill:#232d38"/><path d="M676.05,380.239a4.97071,4.97071,0,0,1,.47265-2.19531,3.55067,3.55067,0,0,1,3.293-2.0625,3.47779,3.47779,0,0,1,2.73438,1.18359,4.56219,4.56219,0,0,1,1.04687,3.13672v.19531a5.02013,5.02013,0,0,1-.47265,2.207,3.53606,3.53606,0,0,1-1.332,1.51172,3.65038,3.65038,0,0,1-1.96093.53125,3.47942,3.47942,0,0,1-2.73047-1.18359,4.54985,4.54985,0,0,1-1.05078-3.13672Zm.9375.25781a3.83505,3.83505,0,0,0,.78515,2.48828,2.65653,2.65653,0,0,0,4.10938,0,3.9619,3.9619,0,0,0,.78515-2.5664V380.239a4.30524,4.30524,0,0,0-.35937-1.77344A2.88991,2.88991,0,0,0,681.3,377.21948a2.57861,2.57861,0,0,0-1.48438-.44141,2.49847,2.49847,0,0,0-2.03906.98047,3.96512,3.96512,0,0,0-.78906,2.56641Z" style="fill:#232d38"/><path d="M686.41722,376.13745l.03125,1.44531a3.35545,3.35545,0,0,1,1.1875-1.19141,3.08444,3.08444,0,0,1,1.57032-.41015,2.5348,2.5348,0,0,1,2.02343.76562,3.45688,3.45688,0,0,1,.67188,2.29688v5.54687h-.92969v-5.55468a2.5856,2.5856,0,0,0-.48047-1.6875,1.88207,1.88207,0,0,0-1.51172-.55469,2.3629,2.3629,0,0,0-1.53515.543,3.183,3.183,0,0,0-.98828,1.46484v5.78906h-.92969v-8.45312Z" style="fill:#232d38"/><path d="M697.5891,384.74682a3.66622,3.66622,0,0,1-1.94922-.53125,3.61922,3.61922,0,0,1-1.35547-1.48047,4.61257,4.61257,0,0,1-.48437-2.1289v-.33594a4.97071,4.97071,0,0,1,.47265-2.19531,3.755,3.755,0,0,1,1.31641-1.53516,3.25,3.25,0,0,1,1.82812-.55859,3.05338,3.05338,0,0,1,2.44141,1.05078,4.2611,4.2611,0,0,1,.90234,2.87109v.52344h-6.03125v.17969a3.53789,3.53789,0,0,0,.82422,2.39453,2.6226,2.6226,0,0,0,2.07422.957,3.04142,3.04142,0,0,0,1.32422-.27344,2.93691,2.93691,0,0,0,1.043-.875l.58594.44532A3.41031,3.41031,0,0,1,697.5891,384.74682Zm-.17188-7.96875a2.33667,2.33667,0,0,0-1.77734.77344,3.57013,3.57013,0,0,0-.87891,2.07813h5.07032v-.10157a3.1047,3.1047,0,0,0-.69532-1.98437A2.15425,2.15425,0,0,0,697.41722,376.77807Z" style="fill:#232d38"/><path d="M705.15941,383.24682l2.46875-7.10937H708.636l-3.60937,9.89062-.1875.4375a2.27144,2.27144,0,0,1-2.14844,1.53907,2.64457,2.64457,0,0,1-.71875-.10938l-.00781-.77344.48437.04688a1.73221,1.73221,0,0,0,1.11329-.33985,2.58537,2.58537,0,0,0,.72265-1.168l.41406-1.14063-3.1875-8.38281h1.02344Z" style="fill:#232d38"/><path d="M714.64379,384.59057v-7.6875h-1.39844v-.76562h1.39844V375.114a2.7822,2.7822,0,0,1,.66015-1.99219,2.41374,2.41374,0,0,1,1.83985-.69531,3.59677,3.59677,0,0,1,.99218.13184l-.07031.77441a3.64886,3.64886,0,0,0-.85156-.09375,1.52746,1.52746,0,0,0-1.20313.48145,1.98619,1.98619,0,0,0-.42968,1.36718v1.04981h2.01562v.76562h-2.01562v7.6875Z" style="fill:#232d38"/><path d="M723.175,376.93432a3.527,3.527,0,0,0-.63282-.05468,2.28388,2.28388,0,0,0-1.48046.48828,2.67082,2.67082,0,0,0-.86329,1.418v5.80468h-.92968v-8.45312h.91406l.01562,1.34375a2.48589,2.48589,0,0,1,2.38282-1.5,1.54487,1.54487,0,0,1,.61718.10156Z" style="fill:#232d38"/><path d="M723.97972,380.239a4.97072,4.97072,0,0,1,.47266-2.19531,3.55067,3.55067,0,0,1,3.293-2.0625,3.47776,3.47776,0,0,1,2.73437,1.18359,4.56214,4.56214,0,0,1,1.04688,3.13672v.19531a5.02014,5.02014,0,0,1-.47266,2.207,3.536,3.536,0,0,1-1.332,1.51172,3.65039,3.65039,0,0,1-1.96094.53125,3.47941,3.47941,0,0,1-2.73046-1.18359,4.54985,4.54985,0,0,1-1.05079-3.13672Zm.9375.25781a3.835,3.835,0,0,0,.78516,2.48828,2.65653,2.65653,0,0,0,4.10938,0,3.962,3.962,0,0,0,.78515-2.5664V380.239a4.3054,4.3054,0,0,0-.35937-1.77344,2.88993,2.88993,0,0,0-1.00782-1.24609,2.57856,2.57856,0,0,0-1.48437-.44141,2.49845,2.49845,0,0,0-2.03906.98047,3.96512,3.96512,0,0,0-.78907,2.56641Z" style="fill:#232d38"/><path d="M734.30785,376.13745l.03125,1.375A3.12415,3.12415,0,0,1,735.511,376.364a3.21655,3.21655,0,0,1,1.5625-.38281,2.37137,2.37137,0,0,1,2.53907,1.64062,3.17027,3.17027,0,0,1,1.21093-1.21484,3.35015,3.35015,0,0,1,1.67188-.42578q2.71875,0,2.77344,2.96875v5.64062h-.9375v-5.57031a2.52067,2.52067,0,0,0-.48828-1.67969,1.98936,1.98936,0,0,0-1.56641-.54687,2.48945,2.48945,0,0,0-1.70313.65234,2.30327,2.30327,0,0,0-.77343,1.55078v5.59375h-.9375V378.95a2.3165,2.3165,0,0,0-.51172-1.6211A2.03786,2.03786,0,0,0,736.8,376.7937a2.35757,2.35757,0,0,0-1.51563.5039,2.95659,2.95659,0,0,0-.9375,1.4961v5.79687h-.9375v-8.45312Z" style="fill:#232d38"/><path d="M752.97972,373.97339v2.16406h1.75v.76562h-1.75v5.63867a1.76065,1.76065,0,0,0,.25391,1.04786.98362.98362,0,0,0,.84766.34472,5.87752,5.87752,0,0,0,.75781-.07812l.03906.75879a3.052,3.052,0,0,1-1,.13183,1.6681,1.6681,0,0,1-1.39844-.55859,2.62746,2.62746,0,0,1-.4375-1.64453v-5.64063h-1.55468v-.76562h1.55468v-2.16406Z" style="fill:#232d38"/><path d="M762.00316,384.59057a4.4168,4.4168,0,0,1-.17969-1.17968,3.26024,3.26024,0,0,1-1.2539.98828,3.84647,3.84647,0,0,1-1.61328.34765,2.83331,2.83331,0,0,1-1.97266-.67968,2.21352,2.21352,0,0,1-.75391-1.71875,2.262,2.262,0,0,1,1.02735-1.95313,4.93289,4.93289,0,0,1,2.86328-.71875h1.69531v-.96094a1.85287,1.85287,0,0,0-.55859-1.42578,2.308,2.308,0,0,0-1.62891-.51953,2.54991,2.54991,0,0,0-1.61719.5,1.4848,1.4848,0,0,0-.64062,1.20313l-.9375-.00782a2.17394,2.17394,0,0,1,.9375-1.74609,3.60962,3.60962,0,0,1,2.30469-.73828,3.292,3.292,0,0,1,2.23047.707,2.53859,2.53859,0,0,1,.83984,1.97266v4a4.96249,4.96249,0,0,0,.25781,1.83593v.09375Zm-2.9375-.67187a3.14143,3.14143,0,0,0,1.67578-.45313,2.66722,2.66722,0,0,0,1.07422-1.21093v-1.85938h-1.67187a4.1878,4.1878,0,0,0-2.1875.51172,1.53554,1.53554,0,0,0-.78907,1.36328,1.5118,1.5118,0,0,0,.52735,1.17969A1.98665,1.98665,0,0,0,759.06566,383.9187Z" style="fill:#232d38"/><path d="M766.69066,373.97339v2.16406h1.75v.76562h-1.75v5.63867a1.76058,1.76058,0,0,0,.25391,1.04786.9836.9836,0,0,0,.84765.34472,5.87763,5.87763,0,0,0,.75782-.07812l.03906.75879a3.052,3.052,0,0,1-1,.13183,1.66809,1.66809,0,0,1-1.39844-.55859,2.62746,2.62746,0,0,1-.4375-1.64453v-5.64063h-1.55469v-.76562h1.55469v-2.16406Z" style="fill:#232d38"/><path d="M771.83129,373.97339v2.16406h1.75v.76562h-1.75v5.63867a1.76066,1.76066,0,0,0,.2539,1.04786.98362.98362,0,0,0,.84766.34472,5.87752,5.87752,0,0,0,.75781-.07812l.03906.75879a3.05193,3.05193,0,0,1-1,.13183,1.66807,1.66807,0,0,1-1.39843-.55859,2.6274,2.6274,0,0,1-.4375-1.64453v-5.64063H769.3391v-.76562h1.55469v-2.16406Z" style="fill:#232d38"/><path d="M774.84691,380.239a4.97072,4.97072,0,0,1,.47266-2.19531,3.55067,3.55067,0,0,1,3.293-2.0625,3.47776,3.47776,0,0,1,2.73437,1.18359,4.56214,4.56214,0,0,1,1.04688,3.13672v.19531a5.02014,5.02014,0,0,1-.47266,2.207,3.5361,3.5361,0,0,1-1.332,1.51172,3.65039,3.65039,0,0,1-1.96094.53125,3.47943,3.47943,0,0,1-2.73047-1.18359,4.5499,4.5499,0,0,1-1.05078-3.13672Zm.9375.25781a3.835,3.835,0,0,0,.78516,2.48828,2.65652,2.65652,0,0,0,4.10937,0,3.9619,3.9619,0,0,0,.78516-2.5664V380.239a4.30524,4.30524,0,0,0-.35938-1.77344,2.88984,2.88984,0,0,0-1.00781-1.24609,2.57858,2.57858,0,0,0-1.48437-.44141,2.49847,2.49847,0,0,0-2.03907.98047,3.96517,3.96517,0,0,0-.78906,2.56641Z" style="fill:#232d38"/><path d="M783.80785,380.239a4.97072,4.97072,0,0,1,.47266-2.19531,3.55064,3.55064,0,0,1,3.293-2.0625,3.47778,3.47778,0,0,1,2.73438,1.18359,4.56219,4.56219,0,0,1,1.04687,3.13672v.19531a5.02013,5.02013,0,0,1-.47265,2.207,3.5361,3.5361,0,0,1-1.332,1.51172,3.65044,3.65044,0,0,1-1.96094.53125,3.47943,3.47943,0,0,1-2.73047-1.18359,4.5499,4.5499,0,0,1-1.05078-3.13672Zm.9375.25781a3.835,3.835,0,0,0,.78516,2.48828,2.65652,2.65652,0,0,0,4.10937,0,3.9619,3.9619,0,0,0,.78516-2.5664V380.239a4.30524,4.30524,0,0,0-.35938-1.77344,2.88984,2.88984,0,0,0-1.00781-1.24609,2.57861,2.57861,0,0,0-1.48438-.44141,2.49847,2.49847,0,0,0-2.03906.98047,3.96512,3.96512,0,0,0-.78906,2.56641Z" style="fill:#232d38"/><path d="M796.19066,379.96557h-3.74219v-.78906h3.74219Z" style="fill:#232d38"/><path d="M550.5891,386.696a.62523.62523,0,0,1,.17187-.44629.61057.61057,0,0,1,.46875-.18261.62453.62453,0,0,1,.47266.18261.61827.61827,0,0,1,.17578.44629.606.606,0,0,1-.17578.44238.63313.63313,0,0,1-.47266.17872.6013.6013,0,0,1-.64062-.6211Zm1.10156,10.89453h-.9375v-8.45312h.9375Z" style="fill:#232d38"/><path d="M555.12035,389.13745l.03125,1.44531a3.35537,3.35537,0,0,1,1.1875-1.19141,3.0844,3.0844,0,0,1,1.57031-.41015,2.53483,2.53483,0,0,1,2.02344.76562,3.45693,3.45693,0,0,1,.67187,2.29688v5.54687H559.675v-5.55468a2.5856,2.5856,0,0,0-.48047-1.6875,1.88209,1.88209,0,0,0-1.51172-.55469,2.36292,2.36292,0,0,0-1.53516.543,3.183,3.183,0,0,0-.98828,1.46484v5.78906h-.92969v-8.45312Z" style="fill:#232d38"/><path d="M562.64379,393.28589a5.08788,5.08788,0,0,1,.8789-3.14454,2.83522,2.83522,0,0,1,2.38672-1.16015,2.9396,2.9396,0,0,1,2.625,1.375l.04688-1.21875h.875v8.28125a3.58167,3.58167,0,0,1-.91407,2.58594,3.27279,3.27279,0,0,1-2.47656.95312,3.76449,3.76449,0,0,1-1.68359-.39453,3.27226,3.27226,0,0,1-1.26172-1.05078l.52344-.5625a2.96135,2.96135,0,0,0,2.35937,1.21875,2.39961,2.39961,0,0,0,1.82813-.69141,2.75515,2.75515,0,0,0,.67968-1.918v-1.0625a3.02263,3.02263,0,0,1-2.61718,1.25,2.81841,2.81841,0,0,1-2.35938-1.17187,5.106,5.106,0,0,1-.89062-3.16406Zm.94531.16406a4.40491,4.40491,0,0,0,.64844,2.55078,2.09761,2.09761,0,0,0,1.82812.93359,2.49879,2.49879,0,0,0,2.44531-1.54687v-3.92969a2.66858,2.66858,0,0,0-.94531-1.23828,2.54731,2.54731,0,0,0-1.48437-.42578,2.12221,2.12221,0,0,0-1.83594.92578A4.71064,4.71064,0,0,0,563.5891,393.45Z" style="fill:#232d38"/><path d="M577.23754,386.97339v2.16406h1.75v.76562h-1.75v5.63867a1.76066,1.76066,0,0,0,.2539,1.04786.98362.98362,0,0,0,.84766.34472,5.87752,5.87752,0,0,0,.75781-.07812l.03906.75879a3.05193,3.05193,0,0,1-1,.13183,1.66807,1.66807,0,0,1-1.39843-.55859,2.6274,2.6274,0,0,1-.4375-1.64453v-5.64063h-1.55469v-.76562H576.3v-2.16406Z" style="fill:#232d38"/><path d="M580.25316,393.239a4.97072,4.97072,0,0,1,.47266-2.19531,3.55067,3.55067,0,0,1,3.293-2.0625,3.47776,3.47776,0,0,1,2.73437,1.18359A4.56214,4.56214,0,0,1,587.8,393.30151v.19531a5.02014,5.02014,0,0,1-.47266,2.207,3.5361,3.5361,0,0,1-1.332,1.51172,3.65039,3.65039,0,0,1-1.96094.53125,3.47943,3.47943,0,0,1-2.73047-1.18359,4.5499,4.5499,0,0,1-1.05078-3.13672Zm.9375.25781a3.835,3.835,0,0,0,.78516,2.48828,2.65652,2.65652,0,0,0,4.10937,0,3.9619,3.9619,0,0,0,.78516-2.5664V393.239a4.30524,4.30524,0,0,0-.35938-1.77344,2.88984,2.88984,0,0,0-1.00781-1.24609,2.57858,2.57858,0,0,0-1.48437-.44141,2.49847,2.49847,0,0,0-2.03907.98047,3.96517,3.96517,0,0,0-.78906,2.56641Z" style="fill:#232d38"/><path d="M595.07347,386.97339v2.16406h1.75v.76562h-1.75v5.63867a1.76065,1.76065,0,0,0,.25391,1.04786.98362.98362,0,0,0,.84766.34472,5.87752,5.87752,0,0,0,.75781-.07812l.03906.75879a3.052,3.052,0,0,1-1,.13183,1.6681,1.6681,0,0,1-1.39844-.55859,2.62746,2.62746,0,0,1-.4375-1.64453v-5.64063h-1.55468v-.76562H594.136v-2.16406Z" style="fill:#232d38"/><path d="M602.66722,389.93432a3.52685,3.52685,0,0,0-.63281-.05468,2.28391,2.28391,0,0,0-1.48047.48828,2.67081,2.67081,0,0,0-.86328,1.418v5.80468H598.761v-8.45312h.91407l.01562,1.34375a2.48587,2.48587,0,0,1,2.38281-1.5,1.54492,1.54492,0,0,1,.61719.10156Z" style="fill:#232d38"/><path d="M609.16722,397.59057a4.41687,4.41687,0,0,1-.17968-1.17968,3.26034,3.26034,0,0,1-1.25391.98828,3.84647,3.84647,0,0,1-1.61328.34765,2.83331,2.83331,0,0,1-1.97266-.67968,2.21352,2.21352,0,0,1-.7539-1.71875,2.262,2.262,0,0,1,1.02734-1.95313,4.93289,4.93289,0,0,1,2.86328-.71875h1.69531v-.96094a1.85287,1.85287,0,0,0-.55859-1.42578,2.308,2.308,0,0,0-1.62891-.51953,2.54988,2.54988,0,0,0-1.61718.5,1.48479,1.48479,0,0,0-.64063,1.20313l-.9375-.00782a2.17394,2.17394,0,0,1,.9375-1.74609,3.60962,3.60962,0,0,1,2.30469-.73828,3.292,3.292,0,0,1,2.23047.707,2.53856,2.53856,0,0,1,.83984,1.97266v4a4.96249,4.96249,0,0,0,.25781,1.83593v.09375Zm-2.9375-.67187a3.14149,3.14149,0,0,0,1.67579-.45313,2.66725,2.66725,0,0,0,1.07421-1.21093v-1.85938h-1.67187a4.1878,4.1878,0,0,0-2.1875.51172,1.53553,1.53553,0,0,0-.78906,1.36328,1.51179,1.51179,0,0,0,.52734,1.17969A1.98665,1.98665,0,0,0,606.22972,396.9187Z" style="fill:#232d38"/><path d="M614.91722,396.30151l2.57032-7.16406h.96093l-3.15625,8.45312h-.75781l-3.17187-8.45312h.96093Z" style="fill:#232d38"/><path d="M623.1516,397.74682a3.66622,3.66622,0,0,1-1.94922-.53125,3.61922,3.61922,0,0,1-1.35547-1.48047,4.61257,4.61257,0,0,1-.48437-2.1289v-.33594a4.97071,4.97071,0,0,1,.47265-2.19531,3.755,3.755,0,0,1,1.31641-1.53516,3.25,3.25,0,0,1,1.82812-.55859,3.05338,3.05338,0,0,1,2.44141,1.05078,4.2611,4.2611,0,0,1,.90234,2.87109v.52344h-6.03125v.17969a3.53789,3.53789,0,0,0,.82422,2.39453,2.6226,2.6226,0,0,0,2.07422.957,3.04142,3.04142,0,0,0,1.32422-.27344,2.93691,2.93691,0,0,0,1.043-.875l.58594.44532A3.41031,3.41031,0,0,1,623.1516,397.74682Zm-.17188-7.96875a2.33667,2.33667,0,0,0-1.77734.77344,3.57013,3.57013,0,0,0-.87891,2.07813h5.07032v-.10157a3.1047,3.1047,0,0,0-.69532-1.98437A2.15425,2.15425,0,0,0,622.97972,389.77807Z" style="fill:#232d38"/><path d="M629.19066,397.59057h-.9375v-12h.9375Z" style="fill:#232d38"/><path d="M636.47191,389.13745l.03125,1.375A3.12418,3.12418,0,0,1,637.675,389.364a3.21652,3.21652,0,0,1,1.5625-.38281,2.37137,2.37137,0,0,1,2.53906,1.64062,3.17036,3.17036,0,0,1,1.21094-1.21484,3.35011,3.35011,0,0,1,1.67187-.42578q2.71875,0,2.77344,2.96875v5.64062h-.9375v-5.57031a2.52067,2.52067,0,0,0-.48828-1.67969,1.98934,1.98934,0,0,0-1.56641-.54687,2.48944,2.48944,0,0,0-1.70312.65234,2.30328,2.30328,0,0,0-.77344,1.55078v5.59375h-.9375V391.95a2.3165,2.3165,0,0,0-.51172-1.6211,2.03786,2.03786,0,0,0-1.55078-.53515,2.35757,2.35757,0,0,0-1.51563.5039,2.95659,2.95659,0,0,0-.9375,1.4961v5.79687h-.9375v-8.45312Z" style="fill:#232d38"/><path d="M649.28441,393.239a4.97072,4.97072,0,0,1,.47266-2.19531,3.55067,3.55067,0,0,1,3.293-2.0625,3.47776,3.47776,0,0,1,2.73437,1.18359,4.56214,4.56214,0,0,1,1.04688,3.13672v.19531a5.02014,5.02014,0,0,1-.47266,2.207,3.5361,3.5361,0,0,1-1.332,1.51172,3.65039,3.65039,0,0,1-1.96094.53125,3.47943,3.47943,0,0,1-2.73047-1.18359,4.5499,4.5499,0,0,1-1.05078-3.13672Zm.9375.25781a3.835,3.835,0,0,0,.78516,2.48828,2.65652,2.65652,0,0,0,4.10937,0,3.9619,3.9619,0,0,0,.78516-2.5664V393.239a4.30524,4.30524,0,0,0-.35938-1.77344,2.88984,2.88984,0,0,0-1.00781-1.24609,2.57858,2.57858,0,0,0-1.48437-.44141,2.49847,2.49847,0,0,0-2.03907.98047,3.96517,3.96517,0,0,0-.78906,2.56641Z" style="fill:#232d38"/><path d="M662.66722,389.93432a3.52685,3.52685,0,0,0-.63281-.05468,2.28391,2.28391,0,0,0-1.48047.48828,2.67081,2.67081,0,0,0-.86328,1.418v5.80468H658.761v-8.45312h.91407l.01562,1.34375a2.48587,2.48587,0,0,1,2.38281-1.5,1.54492,1.54492,0,0,1,.61719.10156Z" style="fill:#232d38"/><path d="M667.26879,397.74682a3.66619,3.66619,0,0,1-1.94922-.53125,3.61908,3.61908,0,0,1-1.35547-1.48047,4.61257,4.61257,0,0,1-.48438-2.1289v-.33594a4.97072,4.97072,0,0,1,.47266-2.19531,3.755,3.755,0,0,1,1.31641-1.53516,3.25,3.25,0,0,1,1.82812-.55859,3.05338,3.05338,0,0,1,2.44141,1.05078,4.2611,4.2611,0,0,1,.90234,2.87109v.52344h-6.03125v.17969a3.53789,3.53789,0,0,0,.82422,2.39453,2.62259,2.62259,0,0,0,2.07422.957,3.04142,3.04142,0,0,0,1.32422-.27344,2.93691,2.93691,0,0,0,1.043-.875l.58593.44532A3.41029,3.41029,0,0,1,667.26879,397.74682Zm-.17188-7.96875a2.33665,2.33665,0,0,0-1.77734.77344,3.57007,3.57007,0,0,0-.87891,2.07813H669.511v-.10157a3.10464,3.10464,0,0,0-.69531-1.98437A2.15425,2.15425,0,0,0,667.09691,389.77807Z" style="fill:#232d38"/><text transform="translate(549.42507 426.88256)" style="font-size:16px;fill:#232d38;font-family:Roboto-Light, Roboto;font-weight:300">Able <tspan x="34.60156" y="0" style="letter-spacing:-0.009765625em">t</tspan><tspan x="39.58594" y="0">o h</tspan><tspan x="61.21875" y="0" style="letter-spacing:-0.00732421875em">a</tspan><tspan x="69.67188" y="0" style="letter-spacing:-0.00634765625em">v</tspan><tspan x="77.26563" y="0">e a li</tspan><tspan x="109.05469" y="0" style="letter-spacing:-0.01171875em">f</tspan><tspan x="114.16406" y="0">e outside of work</tspan></text><text transform="translate(869.74047 101.125)" style="font-size:16px;fill:#232d38;font-family:Roboto-Light, Roboto;font-weight:300"><tspan style="letter-spacing:-0.00634765625em">P</tspan><tspan x="9.75" y="0">eople sending DMs when being </tspan><tspan x="0" y="19.2002" style="letter-spacing:-0.009765625em">t</tspan><tspan x="4.98438" y="19.2002">old not </tspan><tspan x="57.09375" y="19.2002" style="letter-spacing:-0.009765625em">t</tspan><tspan x="62.07813" y="19.2002">o</tspan></text><text transform="translate(869.74019 66.44836)" style="font-size:18px;fill:#191d23;font-family:Roboto-Bold, Roboto;font-weight:700">FRUSTR<tspan x="66.88477" y="0" style="letter-spacing:-0.05859375em">A</tspan><tspan x="77.94141" y="0">TIONS</tspan></text><text transform="translate(869.74047 151.87561)" style="font-size:16px;fill:#232d38;font-family:Roboto-Light, Roboto;font-weight:300">Spending a lot of time doing admin <tspan x="0" y="19.2002">work outside of tat</tspan><tspan x="130.75781" y="19.2002" style="letter-spacing:-0.009765625em">t</tspan><tspan x="135.74219" y="19.2002">ooing</tspan></text><text transform="translate(869.74047 200.53479)" style="font-size:16px;fill:#232d38;font-family:Roboto-Light, Roboto;font-weight:300">Not being able <tspan x="104.80469" y="0" style="letter-spacing:-0.009765625em">t</tspan><tspan x="109.78906" y="0">o switch off and </tspan><tspan x="0" y="19.2002">missing spending time with friends</tspan></text><text transform="translate(869.74095 666.93359)" style="font-size:16px;fill:#232d38;font-family:Roboto-Light, Roboto;font-weight:300">Gmail</text><text transform="translate(869.74095 701.32006)" style="font-size:16px;fill:#232d38;font-family:Roboto-Light, Roboto;font-weight:300">Instag<tspan x="43.73438" y="0" style="letter-spacing:-0.01953125em">r</tspan><tspan x="48.80469" y="0">am</tspan></text><text transform="translate(869.74095 734.2893)" style="font-size:16px;fill:#232d38;font-family:Roboto-Light, Roboto;font-weight:300">Shop company website</text><text transform="translate(549.42495 666.93359)" style="font-size:16px;fill:#232d38;font-family:Roboto-Light, Roboto;font-weight:300">Sullen Clothing</text><text transform="translate(549.42495 701.32006)" style="font-size:16px;fill:#232d38;font-family:Roboto-Light, Roboto;font-weight:300">High Di<tspan x="50.51563" y="0" style="letter-spacing:-0.00634765625em">v</tspan><tspan x="58.10938" y="0">e</tspan></text><text transform="translate(549.42495 734.2893)" style="font-size:16px;fill:#232d38;font-family:Roboto-Light, Roboto;font-weight:300">Born Dead</text><text transform="translate(291.47206 90.53662)" style="font-size:17px;fill:#191d23;font-family:Roboto-LightItalic, Roboto;font-weight:300;font-style:italic"><tspan style="letter-spacing:-0.03662109375em">T</tspan><tspan x="9.30518" y="0" style="letter-spacing:-0.01953125em">r</tspan><tspan x="14.60107" y="0" style="letter-spacing:-0.00732421875em">a</tspan><tspan x="23.3916" y="0" style="letter-spacing:-0.00634765625em">v</tspan><tspan x="31.29395" y="0">elling tat</tspan><tspan x="93.35889" y="0" style="letter-spacing:-0.009765625em">t</tspan><tspan x="98.57178" y="0">oo a</tspan><tspan x="130.22266" y="0" style="letter-spacing:0.0244140625em">r</tspan><tspan x="136.26563" y="0">tist </tspan><tspan x="0" y="21">looking </tspan><tspan x="56.81885" y="21" style="letter-spacing:-0.009765625em">t</tspan><tspan x="62.03174" y="21">o work with and </tspan><tspan x="0" y="42.00049">for li</tspan><tspan x="32.14063" y="42.00049" style="letter-spacing:-0.009765625em">k</tspan><tspan x="40.13428" y="42.00049">e-minded people, </tspan><tspan x="0" y="63.00049">spend time with friends </tspan><tspan x="0" y="84.00049">and co-wor</tspan><tspan x="81.55518" y="84.00049" style="letter-spacing:-0.009765625em">k</tspan><tspan x="89.54883" y="84.00049">ers without </tspan><tspan x="0" y="105.00049">h</tspan><tspan x="9.13086" y="105.00049" style="letter-spacing:-0.00732421875em">a</tspan><tspan x="17.92139" y="105.00049">ving </tspan><tspan x="52.17041" y="105.00049" style="letter-spacing:-0.009765625em">t</tspan><tspan x="57.3833" y="105.00049">o check emails and </tspan><tspan x="0" y="126.00049">DMs all the time</tspan><tspan x="117.979" y="126.00049" style="letter-spacing:-0.0830078125em">.</tspan><tspan x="120.58545" y="126.00049">”</tspan></text><path d="M294.30712,57.1088q0-5.60206,2.67032-8.85126A12.89252,12.89252,0,0,1,304.76431,44v3.8841a7.741,7.741,0,0,0-5.11655,4.10818,6.66047,6.66047,0,0,0-.56021,3.1745h5.8635V64.989H294.30712Zm17.70253,0q0-5.67677,2.745-8.88861A13.22625,13.22625,0,0,1,322.46684,44v3.8841a7.55247,7.55247,0,0,0-5.0792,4.18287,5.89777,5.89777,0,0,0-.59756,3.09981h5.8635V64.989H312.00965Z" style="fill:#fff"/><text transform="translate(288.63762 661.72509)" style="font-size:16px;fill:#666;font-family:Roboto-Light, Roboto;font-weight:300">Desk<tspan x="34.67969" y="0" style="letter-spacing:-0.009765625em">t</tspan><tspan x="39.66406" y="0">op</tspan></text><text transform="translate(288.63762 698.45007)" style="font-size:16px;fill:#666;font-family:Roboto-Light, Roboto;font-weight:300">Sma<tspan x="32.22656" y="0" style="letter-spacing:0.0244140625em">r</tspan><tspan x="38" y="0">t Phone</tspan></text><text transform="translate(288.63762 735.42639)" style="font-size:16px;fill:#666;font-family:Roboto-Light, Roboto;font-weight:300">Social Media</text><path d="M492.73232,668.81092a1.42149,1.42149,0,0,1-1.41732,1.41732H290.05515a1.42149,1.42149,0,0,1-1.41732-1.41732h0a1.42149,1.42149,0,0,1,1.41732-1.41732H491.315a1.42149,1.42149,0,0,1,1.41732,1.41732Z" style="fill:#dbdbda"/><path d="M379.34649,668.81092a1.42149,1.42149,0,0,1-1.41732,1.41733h-87.874a1.4215,1.4215,0,0,1-1.41732-1.41733h0a1.42149,1.42149,0,0,1,1.41732-1.41732h87.874a1.42149,1.42149,0,0,1,1.41732,1.41732Z" style="fill:#a7ead2"/><circle cx="377.92917" cy="668.81092" r="7.08661" style="fill:#a7ead2"/><path d="M492.73232,705.53538a1.42149,1.42149,0,0,1-1.41732,1.41732H290.05515a1.41732,1.41732,0,0,1,0-2.83464H491.315A1.42149,1.42149,0,0,1,492.73232,705.53538Z" style="fill:#dbdbda"/><path d="M472.8898,705.5354a1.4215,1.4215,0,0,1-1.41732,1.41733H290.05515a1.4215,1.4215,0,0,1-1.41732-1.41733h0a1.42149,1.42149,0,0,1,1.41732-1.41732H471.47248a1.42149,1.42149,0,0,1,1.41732,1.41732Z" style="fill:#a7ead2"/><circle cx="470.05515" cy="705.53538" r="7.08661" style="fill:#a7ead2"/><text transform="translate(288.63762 772.27734)" style="font-size:16px;fill:#666;font-family:Roboto-Light, Roboto;font-weight:300">Gmail</text><path d="M492.73232,779.3621a1.42149,1.42149,0,0,1-1.41732,1.41732H290.05515a1.41732,1.41732,0,0,1,0-2.83464H491.315A1.42149,1.42149,0,0,1,492.73232,779.3621Z" style="fill:#dbdbda"/><path d="M472.8898,779.36212a1.4215,1.4215,0,0,1-1.41732,1.41733H290.05515a1.41732,1.41732,0,0,1,0-2.83465H471.47248A1.42149,1.42149,0,0,1,472.8898,779.36212Z" style="fill:#a7ead2"/><circle cx="470.05515" cy="779.3621" r="7.08661" style="fill:#a7ead2"/><path d="M492.73232,742.51171A1.42149,1.42149,0,0,1,491.315,743.929H290.05515a1.41733,1.41733,0,0,1,0-2.83465H491.315A1.4215,1.4215,0,0,1,492.73232,742.51171Z" style="fill:#dbdbda"/><path d="M492.73232,742.51171A1.42149,1.42149,0,0,1,491.315,743.929H290.05515a1.41733,1.41733,0,0,1,0-2.83465H491.315A1.4215,1.4215,0,0,1,492.73232,742.51171Z" style="fill:#a7ead2"/><circle cx="492.73232" cy="742.51171" r="7.08661" style="fill:#a7ead2"/><g style="clip-path:url(#clip-path)"><rect width="260.7874" height="841.88976" style="fill:#191d23"/><g style="opacity:0.23"><g style="opacity:0.28"><polygon points="75.241 670.053 -33.502 670.053 -87.874 764.228 -33.502 858.403 75.241 858.403 129.613 764.228 75.241 670.053" style="fill:none;stroke:#fff;stroke-miterlimit:10"/><polygon points="292.459 670.053 183.715 670.053 129.343 764.228 183.715 858.403 292.459 858.403 346.831 764.228 292.459 670.053" style="fill:none;stroke:#fff;stroke-miterlimit:10"/><polygon points="-32.475 481.89 -141.219 481.89 -195.591 576.065 -141.219 670.239 -32.475 670.239 21.897 576.065 -32.475 481.89" style="fill:none;stroke:#fff;stroke-miterlimit:10"/><polygon points="404.841 481.89 296.097 481.89 241.725 576.065 296.097 670.239 404.841 670.239 459.213 576.065 404.841 481.89" style="fill:none;stroke:#fff;stroke-miterlimit:10"/><polygon points="184.742 481.89 75.999 481.89 21.627 576.065 75.999 670.239 184.742 670.239 239.114 576.065 184.742 481.89" style="fill:none;stroke:#fff;stroke-miterlimit:10"/></g><g style="opacity:0.28"><polygon points="75.241 294.617 -33.502 294.617 -87.874 388.792 -33.502 482.967 75.241 482.967 129.613 388.792 75.241 294.617" style="fill:none;stroke:#fff;stroke-miterlimit:10"/><polygon points="292.459 294.617 183.715 294.617 129.343 388.792 183.715 482.967 292.459 482.967 346.831 388.792 292.459 294.617" style="fill:none;stroke:#fff;stroke-miterlimit:10"/><polygon points="-32.475 106.454 -141.219 106.454 -195.591 200.628 -141.219 294.803 -32.475 294.803 21.897 200.628 -32.475 106.454" style="fill:none;stroke:#fff;stroke-miterlimit:10"/><polygon points="404.841 106.454 296.097 106.454 241.725 200.628 296.097 294.803 404.841 294.803 459.213 200.628 404.841 106.454" style="fill:none;stroke:#fff;stroke-miterlimit:10"/><polygon points="184.742 106.454 75.999 106.454 21.627 200.628 75.999 294.803 184.742 294.803 239.114 200.628 184.742 106.454" style="fill:none;stroke:#fff;stroke-miterlimit:10"/></g><g style="opacity:0.28"><polygon points="75.241 -82.391 -33.502 -82.391 -87.874 11.784 -33.502 105.959 75.241 105.959 129.613 11.784 75.241 -82.391" style="fill:none;stroke:#fff;stroke-miterlimit:10"/><polygon points="292.459 -82.391 183.715 -82.391 129.343 11.784 183.715 105.959 292.459 105.959 346.831 11.784 292.459 -82.391" style="fill:none;stroke:#fff;stroke-miterlimit:10"/></g></g></g></g><text transform="translate(27.85012 321.56628)" style="font-size:24px;fill:#a7ead2;font-family:Roboto-Bold, Roboto;font-weight:700">Chris <tspan x="62.56641" y="0" style="letter-spacing:-0.01513671875em">W</tspan><tspan x="83.19141" y="0">elna</tspan><tspan x="128.83594" y="0" style="font-family:Roboto-Light, Roboto;font-weight:300">, 35</tspan></text><text transform="translate(27.85048 385.95923)" style="font-size:9px;fill:#fff;font-family:Roboto-Bold, Roboto;font-weight:700"><tspan style="letter-spacing:0.0087890625em">M</tspan><tspan x="7.96289" y="0">ARRIED</tspan><tspan x="0" y="15">KIDS</tspan><tspan x="0" y="30">EDUC</tspan><tspan x="22.72412" y="30" style="letter-spacing:-0.05859375em">A</tspan><tspan x="28.25244" y="30">TION</tspan><tspan x="0" y="45">OCCU</tspan><tspan x="23.91504" y="45" style="letter-spacing:-0.0869140625em">P</tspan><tspan x="28.93799" y="45" style="letter-spacing:-0.05859375em">A</tspan><tspan x="34.46631" y="45">TION</tspan><tspan x="0" y="60" style="letter-spacing:-0.03125em">L</tspan><tspan x="4.59229" y="60">OC</tspan><tspan x="16.69482" y="60" style="letter-spacing:-0.05859375em">A</tspan><tspan x="22.22314" y="60">TION</tspan></text><text transform="translate(27.85024 349.91272)" style="font-size:18px;fill:#fff;font-family:Roboto-Light, Roboto;font-weight:300"><tspan style="letter-spacing:-0.03662109375em">T</tspan><tspan x="10.08984" y="0" style="letter-spacing:-0.01953125em">r</tspan><tspan x="15.79395" y="0" style="letter-spacing:-0.00732421875em">a</tspan><tspan x="25.30371" y="0" style="letter-spacing:-0.00634765625em">v</tspan><tspan x="33.84668" y="0">elling</tspan><tspan x="75.12012" y="0" style="letter-spacing:-0.01953125em"> </tspan><tspan x="79.14551" y="0" style="letter-spacing:-0.05517578125em">T</tspan><tspan x="88.90137" y="0">at</tspan><tspan x="104.32617" y="0" style="letter-spacing:-0.009765625em">t</tspan><tspan x="109.93359" y="0">ooer</tspan></text><text transform="translate(93.04763 385.00937)" style="font-size:9px;fill:#fff;font-family:Roboto-Regular, Roboto">No<tspan x="0" y="15">No</tspan><tspan x="0" y="30">High school &amp; Apprenticeship</tspan><tspan x="0" y="45" style="letter-spacing:-0.05517578125em">T</tspan><tspan x="4.87354" y="45">at</tspan><tspan x="12.70898" y="45" style="letter-spacing:-0.009765625em">t</tspan><tspan x="15.56104" y="45">oo A</tspan><tspan x="33.92578" y="45" style="letter-spacing:0.0244140625em">r</tspan><tspan x="37.19092" y="45" xml:space="preserve">tist  </tspan><tspan x="0" y="60">Alexandria </tspan><tspan x="44.57373" y="60" style="letter-spacing:-0.03662109375em">V</tspan><tspan x="49.97021" y="60">A</tspan></text><g id="Layer_10_copy" data-name="Layer 10 copy"><rect x="549.92176" y="72.53543" width="59.52783" height="4" style="fill:#a7ead2"/><rect x="289.13319" y="351.49606" width="28.34713" height="4" style="fill:#a7ead2"/><rect x="289.13319" y="636.62992" width="113.38649" height="4" style="fill:#a7ead2"/><rect x="549.92176" y="353.16535" width="119.05461" height="4" style="fill:#a7ead2"/><rect x="870.23622" y="353.16535" width="121.88976" height="4" style="fill:#a7ead2"/><rect x="549.92176" y="636.62992" width="70.86564" height="4" style="fill:#a7ead2"/><rect x="870.23622" y="636.62992" width="161.5748" height="4" style="fill:#a7ead2"/><rect x="870.23622" y="72.53543" width="130.3937" height="4" style="fill:#a7ead2"/></g></g><g id="Elise_Maya" data-name="Elise Maya"><g id="Layer_4_copy_2" data-name="Layer 4 copy 2"><g style="clip-path:url(#clip-path-2)"><g style="opacity:0.23"><g style="opacity:0.28"><polygon points="78.076 779.342 -30.668 779.342 -85.039 873.516 -30.668 967.691 78.076 967.691 132.448 873.516 78.076 779.342" style="fill:none;stroke:#fff;stroke-miterlimit:10"/><polygon points="295.294 779.342 186.55 779.342 132.178 873.516 186.55 967.691 295.294 967.691 349.665 873.516 295.294 779.342" style="fill:none;stroke:#fff;stroke-miterlimit:10"/><polygon points="-29.64 591.178 -138.384 591.178 -192.756 685.353 -138.384 779.528 -29.64 779.528 24.731 685.353 -29.64 591.178" style="fill:none;stroke:#fff;stroke-miterlimit:10"/><polygon points="407.675 591.178 298.932 591.178 244.56 685.353 298.932 779.528 407.675 779.528 462.047 685.353 407.675 591.178" style="fill:none;stroke:#fff;stroke-miterlimit:10"/><polygon points="187.577 591.178 78.833 591.178 24.462 685.353 78.833 779.528 187.577 779.528 241.949 685.353 187.577 591.178" style="fill:none;stroke:#fff;stroke-miterlimit:10"/></g></g></g></g></g></svg>