<svg xmlns="http://www.w3.org/2000/svg" xmlns:xlink="http://www.w3.org/1999/xlink" viewBox="0 0 1190.55118 841.88976"><defs><clipPath id="clip-path"><rect width="260.7874" height="841.88976" style="fill:none"/></clipPath><clipPath id="clip-path-2"><rect x="11.33859" y="878.74016" width="260.7874" height="841.88976" style="fill:none"/></clipPath></defs><g id="Cory_Dixon" data-name="Cory Dixon"><g id="Layer_4" data-name="Layer 4"><g style="clip-path:url(#clip-path)"><rect width="260.7874" height="841.88976" style="fill:#191d23"/><g style="opacity:0.23"><g style="opacity:0.28"><polygon points="75.241 670.053 -33.502 670.053 -87.874 764.228 -33.502 858.403 75.241 858.403 129.613 764.228 75.241 670.053" style="fill:none;stroke:#fff;stroke-miterlimit:10"/><polygon points="292.459 670.053 183.715 670.053 129.343 764.228 183.715 858.403 292.459 858.403 346.831 764.228 292.459 670.053" style="fill:none;stroke:#fff;stroke-miterlimit:10"/><polygon points="-32.475 481.89 -141.219 481.89 -195.591 576.065 -141.219 670.239 -32.475 670.239 21.897 576.065 -32.475 481.89" style="fill:none;stroke:#fff;stroke-miterlimit:10"/><polygon points="404.841 481.89 296.097 481.89 241.725 576.065 296.097 670.239 404.841 670.239 459.213 576.065 404.841 481.89" style="fill:none;stroke:#fff;stroke-miterlimit:10"/><polygon points="184.742 481.89 75.999 481.89 21.627 576.065 75.999 670.239 184.742 670.239 239.114 576.065 184.742 481.89" style="fill:none;stroke:#fff;stroke-miterlimit:10"/></g><g style="opacity:0.28"><polygon points="75.241 294.617 -33.502 294.617 -87.874 388.792 -33.502 482.967 75.241 482.967 129.613 388.792 75.241 294.617" style="fill:none;stroke:#fff;stroke-miterlimit:10"/><polygon points="292.459 294.617 183.715 294.617 129.343 388.792 183.715 482.967 292.459 482.967 346.831 388.792 292.459 294.617" style="fill:none;stroke:#fff;stroke-miterlimit:10"/><polygon points="-32.475 106.454 -141.219 106.454 -195.591 200.628 -141.219 294.803 -32.475 294.803 21.897 200.628 -32.475 106.454" style="fill:none;stroke:#fff;stroke-miterlimit:10"/><polygon points="404.841 106.454 296.097 106.454 241.725 200.628 296.097 294.803 404.841 294.803 459.213 200.628 404.841 106.454" style="fill:none;stroke:#fff;stroke-miterlimit:10"/><polygon points="184.742 106.454 75.999 106.454 21.627 200.628 75.999 294.803 184.742 294.803 239.114 200.628 184.742 106.454" style="fill:none;stroke:#fff;stroke-miterlimit:10"/></g><g style="opacity:0.28"><polygon points="75.241 -82.391 -33.502 -82.391 -87.874 11.784 -33.502 105.959 75.241 105.959 129.613 11.784 75.241 -82.391" style="fill:none;stroke:#fff;stroke-miterlimit:10"/><polygon points="292.459 -82.391 183.715 -82.391 129.343 11.784 183.715 105.959 292.459 105.959 346.831 11.784 292.459 -82.391" style="fill:none;stroke:#fff;stroke-miterlimit:10"/></g></g></g></g><g id="Layer"><rect x="260.7874" width="255.11811" height="294.80315" style="fill:#d4d3ed"/><text transform="translate(289.13277 377.66908)" style="font-size:16px;fill:#191d23;font-family:Roboto-Light, Roboto;font-weight:300">Spend time outside with <tspan x="0" y="19.2002">family BBQing, li</tspan><tspan x="112.52344" y="19.2002" style="letter-spacing:-0.009765625em">k</tspan><tspan x="120.20313" y="19.2002">e </tspan><tspan x="132.35938" y="19.2002" style="letter-spacing:-0.009765625em">t</tspan><tspan x="137.34375" y="19.2002">o t</tspan><tspan x="155.33594" y="19.2002" style="letter-spacing:-0.01953125em">r</tspan><tspan x="160.40625" y="19.2002" style="letter-spacing:-0.00732421875em">a</tspan><tspan x="168.85938" y="19.2002" style="letter-spacing:-0.00634765625em">v</tspan><tspan x="176.45313" y="19.2002">el </tspan><tspan x="0" y="38.3999" style="letter-spacing:-0.009765625em">t</tspan><tspan x="4.98438" y="38.3999">o local parks.</tspan><tspan x="0" y="76.7998">Go on holid</tspan><tspan x="79.23438" y="76.7998" style="letter-spacing:-0.00732421875em">a</tspan><tspan x="87.6875" y="76.7998">y </tspan><tspan x="99.17969" y="76.7998" style="letter-spacing:-0.009765625em">t</tspan><tspan x="104.16406" y="76.7998">o Hawaii with </tspan><tspan x="0" y="96">family and switch off.</tspan><tspan x="0" y="134.3999">Hang out with co-wor</tspan><tspan x="149.875" y="134.3999" style="letter-spacing:-0.009765625em">k</tspan><tspan x="157.55469" y="134.3999">ers </tspan><tspan x="0" y="153.6001">after work.</tspan></text><path d="M877.95552,380.7194h-5.32031V385.36h6.11719v.8125h-7.07813v-11.375h7.03906v.8125h-6.07812v4.29687h5.32031Z" style="fill:#191d23"/><path d="M883.21333,381.14909l2.28125-3.42969H886.604l-2.86719,4.14844,2.99219,4.30469H885.6274l-2.40625-3.57813-2.40625,3.57813h-1.10157l2.98438-4.30469-2.86719-4.14844h1.10156Z" style="fill:#191d23"/><path d="M889.79146,375.55534v2.16406h1.75v.76563h-1.75v5.63965a1.76472,1.76472,0,0,0,.2539,1.04785.98319.98319,0,0,0,.84766.34375,5.70285,5.70285,0,0,0,.75781-.07813l.03907.75879a3.052,3.052,0,0,1-1,.13184,1.66529,1.66529,0,0,1-1.39844-.5586,2.62555,2.62555,0,0,1-.4375-1.64453V378.485h-1.55469v-.76563H888.854v-2.16406Z" style="fill:#191d23"/><path d="M897.38521,378.51628a3.52591,3.52591,0,0,0-.63281-.05469,2.284,2.284,0,0,0-1.48047.48828,2.67835,2.67835,0,0,0-.86328,1.418v5.80469H893.479V377.7194h.91406l.01563,1.34375a2.48586,2.48586,0,0,1,2.38281-1.5,1.545,1.545,0,0,1,.61719.10156Z" style="fill:#191d23"/><path d="M898.1899,381.821a4.97075,4.97075,0,0,1,.47265-2.19531,3.55067,3.55067,0,0,1,3.293-2.0625,3.47777,3.47777,0,0,1,2.73438,1.1836,4.56218,4.56218,0,0,1,1.04687,3.13671v.19532a5.017,5.017,0,0,1-.47266,2.207,3.52475,3.52475,0,0,1-1.332,1.51172,3.65038,3.65038,0,0,1-1.96093.53125,3.47939,3.47939,0,0,1-2.73047-1.1836,4.54815,4.54815,0,0,1-1.05078-3.13672Zm.9375.25782a3.835,3.835,0,0,0,.78515,2.48828,2.65655,2.65655,0,0,0,4.10938,0,3.962,3.962,0,0,0,.78515-2.56641V381.821a4.30847,4.30847,0,0,0-.35937-1.77343,2.89575,2.89575,0,0,0-1.00781-1.2461,2.57868,2.57868,0,0,0-1.48438-.4414,2.49845,2.49845,0,0,0-2.03906.98047,3.96877,3.96877,0,0,0-.78906,2.5664Z" style="fill:#191d23"/><path d="M910.18208,384.88346l2.57032-7.16406h.96093l-3.15625,8.45313h-.75781l-3.17187-8.45313h.96093Z" style="fill:#191d23"/><path d="M918.41646,386.32878a3.66622,3.66622,0,0,1-1.94922-.53125,3.61319,3.61319,0,0,1-1.35547-1.48047,4.60974,4.60974,0,0,1-.48437-2.12891v-.33594a4.97075,4.97075,0,0,1,.47265-2.19531,3.76754,3.76754,0,0,1,1.31641-1.53515,3.25,3.25,0,0,1,1.82812-.5586,3.05342,3.05342,0,0,1,2.44141,1.05078,4.26463,4.26463,0,0,1,.90234,2.8711v.52343h-6.03125v.17969a3.53612,3.53612,0,0,0,.82422,2.39453,2.61955,2.61955,0,0,0,2.07422.957,3.04157,3.04157,0,0,0,1.32422-.27343,2.927,2.927,0,0,0,1.043-.875l.58594.44531A3.41029,3.41029,0,0,1,918.41646,386.32878Zm-.17188-7.96875a2.33666,2.33666,0,0,0-1.77734.77343,3.57291,3.57291,0,0,0-.87891,2.07813h5.07032V381.11a3.10473,3.10473,0,0,0-.69532-1.98438A2.15724,2.15724,0,0,0,918.24458,378.36Z" style="fill:#191d23"/><path d="M927.3149,378.51628a3.526,3.526,0,0,0-.63282-.05469,2.284,2.284,0,0,0-1.48047.48828,2.67848,2.67848,0,0,0-.86328,1.418v5.80469h-.92968V377.7194h.91406l.01562,1.34375a2.48589,2.48589,0,0,1,2.38282-1.5,1.54487,1.54487,0,0,1,.61718.10156Z" style="fill:#191d23"/><path d="M930.63521,375.55534v2.16406h1.75v.76563h-1.75v5.63965a1.76472,1.76472,0,0,0,.2539,1.04785.98319.98319,0,0,0,.84766.34375,5.70285,5.70285,0,0,0,.75781-.07813l.03907.75879a3.052,3.052,0,0,1-1,.13184,1.66529,1.66529,0,0,1-1.39844-.5586,2.62555,2.62555,0,0,1-.4375-1.64453V378.485H928.143v-.76563h1.55469v-2.16406Z" style="fill:#191d23"/><path d="M934.1274,388.29753l-.55469-.40625a3.40373,3.40373,0,0,0,.73437-1.97657v-1.21093h.91407v.97656A3.36506,3.36506,0,0,1,934.1274,388.29753Z" style="fill:#191d23"/><path d="M942.32271,386.17253h-.9375v-12h.9375Z" style="fill:#191d23"/><path d="M944.80708,375.278a.6268.6268,0,0,1,.17188-.44629.61405.61405,0,0,1,.46875-.18262.62812.62812,0,0,1,.47265.18262.61986.61986,0,0,1,.17579.44629.606.606,0,0,1-.17579.44238.6331.6331,0,0,1-.47265.17871.60131.60131,0,0,1-.64063-.62109Zm1.10157,10.89453h-.9375V377.7194h.9375Z" style="fill:#191d23"/><path d="M949.11958,386.17253V378.485h-1.39843v-.76563h1.39843V376.696a2.78218,2.78218,0,0,1,.66016-1.99218,2.41729,2.41729,0,0,1,1.83984-.69532,3.59685,3.59685,0,0,1,.99219.13184l-.07031.77441a3.64892,3.64892,0,0,0-.85156-.09375,1.52806,1.52806,0,0,0-1.20313.48243,1.98183,1.98183,0,0,0-.42969,1.36621v1.0498h2.01563v.76563h-2.01563v7.6875Z" style="fill:#191d23"/><path d="M956.83052,386.32878a3.66622,3.66622,0,0,1-1.94922-.53125,3.61325,3.61325,0,0,1-1.35547-1.48047,4.60974,4.60974,0,0,1-.48437-2.12891v-.33594a4.97088,4.97088,0,0,1,.47265-2.19531,3.76762,3.76762,0,0,1,1.31641-1.53515,3.25005,3.25005,0,0,1,1.82813-.5586,3.05341,3.05341,0,0,1,2.4414,1.05078,4.26463,4.26463,0,0,1,.90235,2.8711v.52343h-6.03125v.17969a3.53611,3.53611,0,0,0,.82421,2.39453,2.61956,2.61956,0,0,0,2.07422.957,3.04157,3.04157,0,0,0,1.32422-.27343,2.927,2.927,0,0,0,1.043-.875l.58594.44531A3.41029,3.41029,0,0,1,956.83052,386.32878Zm-.17187-7.96875a2.33667,2.33667,0,0,0-1.77735.77343,3.57284,3.57284,0,0,0-.8789,2.07813h5.07031V381.11a3.10473,3.10473,0,0,0-.69531-1.98438A2.15726,2.15726,0,0,0,956.65865,378.36Z" style="fill:#191d23"/><path d="M965.19771,381.821a4.97088,4.97088,0,0,1,.47265-2.19531,3.55067,3.55067,0,0,1,3.293-2.0625,3.47776,3.47776,0,0,1,2.73438,1.1836,4.56218,4.56218,0,0,1,1.04687,3.13671v.19532a5.01714,5.01714,0,0,1-.47265,2.207,3.52488,3.52488,0,0,1-1.332,1.51172,3.65044,3.65044,0,0,1-1.96094.53125,3.47941,3.47941,0,0,1-2.73047-1.1836,4.5482,4.5482,0,0,1-1.05078-3.13672Zm.9375.25782a3.83507,3.83507,0,0,0,.78515,2.48828,2.65655,2.65655,0,0,0,4.10938,0,3.962,3.962,0,0,0,.78516-2.56641V381.821a4.30848,4.30848,0,0,0-.35938-1.77343,2.89568,2.89568,0,0,0-1.00781-1.2461,2.57868,2.57868,0,0,0-1.48438-.4414,2.49847,2.49847,0,0,0-2.03906.98047,3.96877,3.96877,0,0,0-.78906,2.5664Z" style="fill:#191d23"/><path d="M975.34615,386.17253V378.485h-1.39844v-.76563h1.39844V376.696a2.78217,2.78217,0,0,1,.66015-1.99218,2.41729,2.41729,0,0,1,1.83985-.69532,3.59677,3.59677,0,0,1,.99218.13184l-.07031.77441a3.64886,3.64886,0,0,0-.85156-.09375,1.52807,1.52807,0,0,0-1.20313.48243,1.98183,1.98183,0,0,0-.42968,1.36621v1.0498h2.01562v.76563h-2.01562v7.6875Z" style="fill:#191d23"/><path d="M985.3149,375.55534v2.16406h1.75v.76563h-1.75v5.63965a1.76472,1.76472,0,0,0,.2539,1.04785.98319.98319,0,0,0,.84766.34375,5.70285,5.70285,0,0,0,.75781-.07813l.03906.75879a3.0519,3.0519,0,0,1-1,.13184,1.66528,1.66528,0,0,1-1.39843-.5586,2.62548,2.62548,0,0,1-.4375-1.64453V378.485h-1.55469v-.76563h1.55469v-2.16406Z" style="fill:#191d23"/><path d="M989.93208,379.14909a3.3022,3.3022,0,0,1,1.17969-1.17188,3.09647,3.09647,0,0,1,1.57031-.41406,2.538,2.538,0,0,1,2.02344.76563,3.457,3.457,0,0,1,.67188,2.29687v5.54688h-.92969v-5.55469a2.58564,2.58564,0,0,0-.48047-1.6875,1.88531,1.88531,0,0,0-1.51172-.55469,2.36827,2.36827,0,0,0-1.53516.543,3.18306,3.18306,0,0,0-.98828,1.46484v5.78907h-.92968v-12h.92968Z" style="fill:#191d23"/><path d="M1001.05708,386.32878a3.66622,3.66622,0,0,1-1.94922-.53125,3.61316,3.61316,0,0,1-1.35546-1.48047,4.60962,4.60962,0,0,1-.48438-2.12891v-.33594a4.97075,4.97075,0,0,1,.47266-2.19531,3.76752,3.76752,0,0,1,1.3164-1.53515,3.25005,3.25005,0,0,1,1.82813-.5586,3.0534,3.0534,0,0,1,2.4414,1.05078,4.26458,4.26458,0,0,1,.90235,2.8711v.52343h-6.03125v.17969a3.53607,3.53607,0,0,0,.82422,2.39453,2.61954,2.61954,0,0,0,2.07422.957,3.04152,3.04152,0,0,0,1.32421-.27343,2.92689,2.92689,0,0,0,1.043-.875l.58594.44531A3.41029,3.41029,0,0,1,1001.05708,386.32878Zm-.17187-7.96875a2.33667,2.33667,0,0,0-1.77735.77343,3.57284,3.57284,0,0,0-.8789,2.07813h5.07031V381.11a3.10473,3.10473,0,0,0-.69531-1.98438A2.15724,2.15724,0,0,0,1000.88521,378.36Z" style="fill:#191d23"/><path d="M1016.73677,382.0319a5.09157,5.09157,0,0,1-.875,3.13672,2.78736,2.78736,0,0,1-2.34375,1.16016,3.12857,3.12857,0,0,1-2.65625-1.21875v4.3125h-.92969V377.7194h.86719l.04688,1.19531a3.00113,3.00113,0,0,1,2.64843-1.35156,2.812,2.812,0,0,1,2.37891,1.14844,5.20536,5.20536,0,0,1,.86328,3.1875Zm-.9375-.16406a4.35017,4.35017,0,0,0-.66406-2.55469,2.14167,2.14167,0,0,0-1.85156-.9375,2.46669,2.46669,0,0,0-2.42188,1.61719v4.05469a2.47671,2.47671,0,0,0,.96094,1.10937,2.76437,2.76437,0,0,0,1.47656.38281,2.12138,2.12138,0,0,0,1.83984-.9414A4.73226,4.73226,0,0,0,1015.79927,381.86784Z" style="fill:#191d23"/><path d="M1024.143,386.17253a4.41,4.41,0,0,1-.17969-1.17969,3.251,3.251,0,0,1-1.2539.98828,3.84636,3.84636,0,0,1-1.61328.34766,2.83331,2.83331,0,0,1-1.97266-.67969,2.2121,2.2121,0,0,1-.75391-1.71875,2.26321,2.26321,0,0,1,1.02735-1.95313,4.94034,4.94034,0,0,1,2.86328-.71875h1.69531v-.96093a1.8543,1.8543,0,0,0-.55859-1.42578,2.31252,2.31252,0,0,0-1.62891-.51954,2.55,2.55,0,0,0-1.61719.5,1.48613,1.48613,0,0,0-.64062,1.20313l-.9375-.00781a2.17394,2.17394,0,0,1,.9375-1.7461,3.60966,3.60966,0,0,1,2.30469-.73828,3.297,3.297,0,0,1,2.23046.707,2.53857,2.53857,0,0,1,.83985,1.97266v4a4.959,4.959,0,0,0,.25781,1.83594v.09375Zm-2.9375-.67188a3.13281,3.13281,0,0,0,1.67578-.45312,2.66234,2.66234,0,0,0,1.07422-1.21094v-1.85938h-1.67187a4.19744,4.19744,0,0,0-2.1875.51172,1.53555,1.53555,0,0,0-.78907,1.36328,1.51035,1.51035,0,0,0,.52735,1.17969A1.98665,1.98665,0,0,0,1021.20552,385.50065Z" style="fill:#191d23"/><path d="M1031.28365,378.51628a3.526,3.526,0,0,0-.63282-.05469,2.284,2.284,0,0,0-1.48047.48828,2.67848,2.67848,0,0,0-.86328,1.418v5.80469h-.92968V377.7194h.91406l.01562,1.34375a2.48589,2.48589,0,0,1,2.38282-1.5,1.54487,1.54487,0,0,1,.61718.10156Z" style="fill:#191d23"/><path d="M1034.604,375.55534v2.16406h1.75v.76563h-1.75v5.63965a1.7683,1.7683,0,0,0,.2539,1.04785.98379.98379,0,0,0,.84766.34375,5.69521,5.69521,0,0,0,.75781-.07813l.03907.75879a3.052,3.052,0,0,1-1,.13184,1.66591,1.66591,0,0,1-1.39844-.5586,2.62555,2.62555,0,0,1-.4375-1.64453V378.485h-1.55469v-.76563h1.55469v-2.16406Z" style="fill:#191d23"/><path d="M1040.97115,384.82878l2.46875-7.10938h1.00781l-3.60938,9.89063-.1875.4375a2.27009,2.27009,0,0,1-2.14843,1.53906,2.60975,2.60975,0,0,1-.71875-.10938l-.00782-.77343.48438.04687a1.73223,1.73223,0,0,0,1.11328-.33984,2.58128,2.58128,0,0,0,.72266-1.168l.41406-1.14063-3.1875-8.38281h1.02344Z" style="fill:#191d23"/><path d="M1044.86177,388.29753l-.55469-.40625a3.40374,3.40374,0,0,0,.73438-1.97657v-1.21093h.91406v.97656A3.36342,3.36342,0,0,1,1044.86177,388.29753Z" style="fill:#191d23"/><path d="M1053.05708,386.17253h-.9375v-12h.9375Z" style="fill:#191d23"/><path d="M1055.08052,381.821a4.97075,4.97075,0,0,1,.47266-2.19531,3.55064,3.55064,0,0,1,3.293-2.0625,3.47774,3.47774,0,0,1,2.73437,1.1836,4.5598,4.5598,0,0,1,1.04688,3.13671v.19532a5.01032,5.01032,0,0,1-.47266,2.207,3.52173,3.52173,0,0,1-1.332,1.51172,3.65039,3.65039,0,0,1-1.96094.53125,3.47941,3.47941,0,0,1-2.73047-1.1836,4.55056,4.55056,0,0,1-1.05078-3.13672Zm.9375.25782a3.835,3.835,0,0,0,.78516,2.48828,2.65654,2.65654,0,0,0,4.10937,0,3.962,3.962,0,0,0,.78516-2.56641V381.821a4.30848,4.30848,0,0,0-.35938-1.77343,2.88864,2.88864,0,0,0-1.00781-1.2461,2.57757,2.57757,0,0,0-1.48437-.4414,2.49978,2.49978,0,0,0-2.03907.98047,3.96883,3.96883,0,0,0-.78906,2.5664Z" style="fill:#191d23"/><path d="M1066.01021,375.55534v2.16406h1.75v.76563h-1.75v5.63965a1.7683,1.7683,0,0,0,.2539,1.04785.98379.98379,0,0,0,.84766.34375,5.69521,5.69521,0,0,0,.75781-.07813l.03907.75879a3.052,3.052,0,0,1-1,.13184,1.66591,1.66591,0,0,1-1.39844-.5586,2.62555,2.62555,0,0,1-.4375-1.64453V378.485H1063.518v-.76563h1.55469v-2.16406Z" style="fill:#191d23"/><path d="M1073.07271,381.821a4.97088,4.97088,0,0,1,.47265-2.19531,3.55067,3.55067,0,0,1,3.293-2.0625,3.47776,3.47776,0,0,1,2.73438,1.1836,4.5598,4.5598,0,0,1,1.04687,3.13671v.19532a5.01032,5.01032,0,0,1-.47265,2.207,3.52173,3.52173,0,0,1-1.332,1.51172,3.65044,3.65044,0,0,1-1.96094.53125,3.47941,3.47941,0,0,1-2.73047-1.1836,4.55051,4.55051,0,0,1-1.05078-3.13672Zm.9375.25782a3.83507,3.83507,0,0,0,.78515,2.48828,2.65655,2.65655,0,0,0,4.10938,0,3.962,3.962,0,0,0,.78516-2.56641V381.821a4.30848,4.30848,0,0,0-.35938-1.77343,2.88871,2.88871,0,0,0-1.00781-1.2461,2.57758,2.57758,0,0,0-1.48438-.4414,2.49978,2.49978,0,0,0-2.03906.98047,3.96877,3.96877,0,0,0-.78906,2.5664Z" style="fill:#191d23"/><path d="M1083.22115,386.17253V378.485h-1.39844v-.76563h1.39844V376.696a2.78217,2.78217,0,0,1,.66015-1.99218,2.41876,2.41876,0,0,1,1.83985-.69532,3.59424,3.59424,0,0,1,.99218.13184l-.07031.77441a3.64586,3.64586,0,0,0-.85156-.09375,1.52807,1.52807,0,0,0-1.20313.48243,1.98425,1.98425,0,0,0-.42968,1.36621v1.0498h2.01562v.76563h-2.01562v7.6875Z" style="fill:#191d23"/><path d="M1092.40865,386.17253V378.485h-1.39844v-.76563h1.39844V376.696a2.78217,2.78217,0,0,1,.66015-1.99218,2.41876,2.41876,0,0,1,1.83985-.69532,3.59424,3.59424,0,0,1,.99218.13184l-.07031.77441a3.64586,3.64586,0,0,0-.85156-.09375,1.52807,1.52807,0,0,0-1.20313.48243,1.98425,1.98425,0,0,0-.42968,1.36621v1.0498h2.01562v.76563h-2.01562v7.6875Z" style="fill:#191d23"/><path d="M1100.11958,386.32878a3.66743,3.66743,0,0,1-1.94922-.53125,3.61646,3.61646,0,0,1-1.35546-1.48047,4.60962,4.60962,0,0,1-.48438-2.12891v-.33594a4.97075,4.97075,0,0,1,.47266-2.19531,3.77117,3.77117,0,0,1,1.3164-1.53515,3.25005,3.25005,0,0,1,1.82813-.5586,3.05272,3.05272,0,0,1,2.4414,1.05078,4.26458,4.26458,0,0,1,.90235,2.8711v.52343h-6.03125v.17969a3.53607,3.53607,0,0,0,.82422,2.39453,2.62092,2.62092,0,0,0,2.07422.957,3.04152,3.04152,0,0,0,1.32421-.27343,2.92689,2.92689,0,0,0,1.043-.875l.58594.44531A3.40972,3.40972,0,0,1,1100.11958,386.32878Zm-.17187-7.96875a2.33667,2.33667,0,0,0-1.77735.77343,3.5791,3.5791,0,0,0-.8789,2.07813h5.07031V381.11a3.10473,3.10473,0,0,0-.69531-1.98438A2.15724,2.15724,0,0,0,1099.94771,378.36Z" style="fill:#191d23"/><path d="M1108.38521,386.32878a3.66741,3.66741,0,0,1-1.94922-.53125,3.61649,3.61649,0,0,1-1.35547-1.48047,4.60974,4.60974,0,0,1-.48437-2.12891v-.33594a4.97075,4.97075,0,0,1,.47265-2.19531,3.77119,3.77119,0,0,1,1.31641-1.53515,3.25,3.25,0,0,1,1.82812-.5586,3.05274,3.05274,0,0,1,2.44141,1.05078,4.26463,4.26463,0,0,1,.90234,2.8711v.52343h-6.03125v.17969a3.53612,3.53612,0,0,0,.82422,2.39453,2.62093,2.62093,0,0,0,2.07422.957,3.04157,3.04157,0,0,0,1.32422-.27343,2.927,2.927,0,0,0,1.043-.875l.58594.44531A3.40972,3.40972,0,0,1,1108.38521,386.32878Zm-.17188-7.96875a2.33666,2.33666,0,0,0-1.77734.77343,3.57911,3.57911,0,0,0-.87891,2.07813h5.07032V381.11a3.10473,3.10473,0,0,0-.69532-1.98438A2.15724,2.15724,0,0,0,1108.21333,378.36Z" style="fill:#191d23"/><path d="M1114.42427,386.17253h-.9375v-12h.9375Z" style="fill:#191d23"/><path d="M1119.86958,381.54753h-3.74218v-.78907h3.74218Z" style="fill:#191d23"/><path d="M871.40083,394.47819a.62681.62681,0,0,1,.17188-.44629.61409.61409,0,0,1,.46875-.18262.62816.62816,0,0,1,.47265.18262.61987.61987,0,0,1,.17579.44629.606.606,0,0,1-.17579.44238.6331.6331,0,0,1-.47265.17871.60131.60131,0,0,1-.64063-.62109Zm1.10157,10.89453h-.9375V396.9196h.9375Z" style="fill:#191d23"/><path d="M875.93208,396.9196l.03125,1.44531a3.35545,3.35545,0,0,1,1.1875-1.19141,3.08444,3.08444,0,0,1,1.57032-.41015,2.538,2.538,0,0,1,2.02343.76562,3.45688,3.45688,0,0,1,.67188,2.29688v5.54687h-.92969V399.818a2.58564,2.58564,0,0,0-.48047-1.6875,1.8853,1.8853,0,0,0-1.51172-.55468,2.36822,2.36822,0,0,0-1.53515.543,3.18281,3.18281,0,0,0-.98828,1.46484v5.78906h-.92969V396.9196Z" style="fill:#191d23"/><path d="M883.45552,401.068a5.08976,5.08976,0,0,1,.87891-3.14453,2.83519,2.83519,0,0,1,2.38672-1.16015,2.94166,2.94166,0,0,1,2.625,1.375l.04687-1.21875h.875v8.28125a3.58009,3.58009,0,0,1-.91406,2.58593,3.26916,3.26916,0,0,1-2.47656.95313,3.76453,3.76453,0,0,1-1.6836-.39453,3.26386,3.26386,0,0,1-1.26172-1.05078l.52344-.5625a2.96136,2.96136,0,0,0,2.35938,1.21875,2.39958,2.39958,0,0,0,1.82812-.69141,2.75521,2.75521,0,0,0,.67969-1.918V404.279a3.02028,3.02028,0,0,1-2.61719,1.25,2.8184,2.8184,0,0,1-2.35937-1.17187,5.106,5.106,0,0,1-.89063-3.16407Zm.94531.16407a4.40491,4.40491,0,0,0,.64844,2.55078,2.09539,2.09539,0,0,0,1.82813.93359,2.4988,2.4988,0,0,0,2.44531-1.54687v-3.92969a2.67352,2.67352,0,0,0-.94531-1.23828,2.55451,2.55451,0,0,0-1.48438-.42578,2.12221,2.12221,0,0,0-1.83594.92578A4.71064,4.71064,0,0,0,884.40083,401.2321Z" style="fill:#191d23"/><path d="M897.768,403.22428a1.33369,1.33369,0,0,0-.55859-1.11718,4.31409,4.31409,0,0,0-1.6836-.66016,7.54784,7.54784,0,0,1-1.74609-.54687,2.31856,2.31856,0,0,1-.92188-.75391,1.87965,1.87965,0,0,1-.30078-1.07813,2.01215,2.01215,0,0,1,.83594-1.65234,3.37753,3.37753,0,0,1,2.14063-.65234,3.47776,3.47776,0,0,1,2.26953.69922,2.245,2.245,0,0,1,.85547,1.82421h-.9375a1.51471,1.51471,0,0,0-.6211-1.23437,2.80352,2.80352,0,0,0-3.04687-.082,1.26526,1.26526,0,0,0-.5586,1.0664,1.152,1.152,0,0,0,.46485.98047,4.89383,4.89383,0,0,0,1.69531.63672,8.00511,8.00511,0,0,1,1.84375.61719,2.3971,2.3971,0,0,1,.91016.78906,2.1698,2.1698,0,0,1-.56641,2.82813,3.68488,3.68488,0,0,1-2.25391.64062,3.7862,3.7862,0,0,1-2.39453-.71484,2.1993,2.1993,0,0,1-.918-1.8086h.9375a1.6239,1.6239,0,0,0,.69141,1.27735,2.82515,2.82515,0,0,0,1.68359.457,2.653,2.653,0,0,0,1.57813-.42969A1.28955,1.28955,0,0,0,897.768,403.22428Z" style="fill:#191d23"/><path d="M900.61177,407.49772l-.55469-.40625a3.40369,3.40369,0,0,0,.73438-1.97656V403.904h.91406v.97656A3.36505,3.36505,0,0,1,900.61177,407.49772Z" style="fill:#191d23"/><path d="M910.88521,404.73991a2.46954,2.46954,0,0,0,1.63672-.55078,1.93836,1.93836,0,0,0,.71484-1.42578h.89844a2.64772,2.64772,0,0,1-.48438,1.41015,3.029,3.029,0,0,1-1.18359.9961,3.57142,3.57142,0,0,1-1.582.35937,3.26361,3.26361,0,0,1-2.63672-1.15625,4.67255,4.67255,0,0,1-.97266-3.10937v-.28125a5.28035,5.28035,0,0,1,.4375-2.21094,3.373,3.373,0,0,1,1.25391-1.48438,3.46259,3.46259,0,0,1,1.91016-.52343,3.26175,3.26175,0,0,1,2.293.82812,3.0232,3.0232,0,0,1,.96485,2.17969h-.89844a2.26222,2.26222,0,0,0-2.35937-2.21094,2.33059,2.33059,0,0,0-1.96485.91406,4.13526,4.13526,0,0,0-.69922,2.5625v.27344a4.04109,4.04109,0,0,0,.69922,2.52344A2.34552,2.34552,0,0,0,910.88521,404.73991Z" style="fill:#191d23"/><path d="M921.33833,405.37272a4.40954,4.40954,0,0,1-.17968-1.17969,3.25112,3.25112,0,0,1-1.25391.98829,3.84647,3.84647,0,0,1-1.61328.34765,2.83327,2.83327,0,0,1-1.97266-.67969,2.21208,2.21208,0,0,1-.7539-1.71875,2.26319,2.26319,0,0,1,1.02734-1.95312,4.94027,4.94027,0,0,1,2.86328-.71875h1.69531v-.96094a1.85431,1.85431,0,0,0-.55859-1.42578,2.31257,2.31257,0,0,0-1.62891-.51953,2.54988,2.54988,0,0,0-1.61718.5,1.48608,1.48608,0,0,0-.64063,1.20312l-.9375-.00781a2.17394,2.17394,0,0,1,.9375-1.74609,3.60962,3.60962,0,0,1,2.30469-.73828,3.297,3.297,0,0,1,2.23047.707,2.53854,2.53854,0,0,1,.83984,1.97265v4a4.959,4.959,0,0,0,.25781,1.83594v.09375Zm-2.9375-.67187a3.1327,3.1327,0,0,0,1.67578-.45313,2.66234,2.66234,0,0,0,1.07422-1.21094v-1.85937H919.479a4.19727,4.19727,0,0,0-2.1875.51172,1.53552,1.53552,0,0,0-.78906,1.36328,1.51037,1.51037,0,0,0,.52734,1.17969A1.98665,1.98665,0,0,0,918.40083,404.70085Z" style="fill:#191d23"/><path d="M928.479,397.71647a3.52683,3.52683,0,0,0-.63281-.05469,2.2839,2.2839,0,0,0-1.48047.48829,2.67833,2.67833,0,0,0-.86328,1.418v5.80469h-.92969V396.9196h.91406l.01563,1.34375a2.48586,2.48586,0,0,1,2.38281-1.5,1.545,1.545,0,0,1,.61719.10156Z" style="fill:#191d23"/><path d="M929.90083,394.47819a.62681.62681,0,0,1,.17188-.44629.61409.61409,0,0,1,.46875-.18262.62816.62816,0,0,1,.47265.18262.61987.61987,0,0,1,.17579.44629.606.606,0,0,1-.17579.44238.6331.6331,0,0,1-.47265.17871.60131.60131,0,0,1-.64063-.62109Zm1.10157,10.89453h-.9375V396.9196h.9375Z" style="fill:#191d23"/><path d="M934.43208,396.9196l.03125,1.44531a3.35545,3.35545,0,0,1,1.1875-1.19141,3.08444,3.08444,0,0,1,1.57032-.41015,2.538,2.538,0,0,1,2.02343.76562,3.45688,3.45688,0,0,1,.67188,2.29688v5.54687h-.92969V399.818a2.58564,2.58564,0,0,0-.48047-1.6875,1.8853,1.8853,0,0,0-1.51172-.55468,2.36822,2.36822,0,0,0-1.53515.543,3.18281,3.18281,0,0,0-.98828,1.46484v5.78906h-.92969V396.9196Z" style="fill:#191d23"/><path d="M941.95552,401.068a5.08976,5.08976,0,0,1,.87891-3.14453,2.83519,2.83519,0,0,1,2.38672-1.16015,2.94166,2.94166,0,0,1,2.625,1.375l.04687-1.21875h.875v8.28125a3.58009,3.58009,0,0,1-.91406,2.58593,3.26916,3.26916,0,0,1-2.47656.95313,3.76453,3.76453,0,0,1-1.6836-.39453,3.26386,3.26386,0,0,1-1.26172-1.05078l.52344-.5625a2.96136,2.96136,0,0,0,2.35938,1.21875,2.39958,2.39958,0,0,0,1.82812-.69141,2.75521,2.75521,0,0,0,.67969-1.918V404.279a3.02028,3.02028,0,0,1-2.61719,1.25,2.8184,2.8184,0,0,1-2.35937-1.17187,5.106,5.106,0,0,1-.89063-3.16407Zm.94531.16407a4.40491,4.40491,0,0,0,.64844,2.55078,2.09539,2.09539,0,0,0,1.82813.93359,2.4988,2.4988,0,0,0,2.44531-1.54687v-3.92969a2.67352,2.67352,0,0,0-.94531-1.23828,2.55451,2.55451,0,0,0-1.48438-.42578,2.12221,2.12221,0,0,0-1.83594.92578A4.71064,4.71064,0,0,0,942.90083,401.2321Z" style="fill:#191d23"/><path d="M951.01021,407.49772l-.55469-.40625a3.40376,3.40376,0,0,0,.73438-1.97656V403.904h.91406v.97656A3.36505,3.36505,0,0,1,951.01021,407.49772Z" style="fill:#191d23"/><path d="M959.04927,396.9196l.03125,1.44531a3.35537,3.35537,0,0,1,1.1875-1.19141,3.0844,3.0844,0,0,1,1.57031-.41015,2.53806,2.53806,0,0,1,2.02344.76562,3.457,3.457,0,0,1,.67188,2.29688v5.54687H963.604V399.818a2.58564,2.58564,0,0,0-.48047-1.6875,1.88531,1.88531,0,0,0-1.51172-.55468,2.36827,2.36827,0,0,0-1.53516.543,3.183,3.183,0,0,0-.98828,1.46484v5.78906h-.92968V396.9196Z" style="fill:#191d23"/><path d="M966.43208,401.02116a4.97072,4.97072,0,0,1,.47266-2.19531,3.55067,3.55067,0,0,1,3.293-2.0625,3.47776,3.47776,0,0,1,2.73437,1.18359,4.56214,4.56214,0,0,1,1.04688,3.13672v.19531a5.01714,5.01714,0,0,1-.47266,2.207,3.52482,3.52482,0,0,1-1.332,1.51172,3.65039,3.65039,0,0,1-1.96094.53125,3.47945,3.47945,0,0,1-2.73047-1.18359,4.54822,4.54822,0,0,1-1.05078-3.13672Zm.9375.25781a3.835,3.835,0,0,0,.78516,2.48828,2.65652,2.65652,0,0,0,4.10937,0,3.9619,3.9619,0,0,0,.78516-2.5664v-.17969a4.30865,4.30865,0,0,0-.35937-1.77344,2.89567,2.89567,0,0,0-1.00782-1.24609,2.57856,2.57856,0,0,0-1.48437-.44141,2.49844,2.49844,0,0,0-2.03906.98047,3.96882,3.96882,0,0,0-.78907,2.56641Z" style="fill:#191d23"/><path d="M976.79927,396.9196l.03125,1.44531a3.35537,3.35537,0,0,1,1.1875-1.19141,3.0844,3.0844,0,0,1,1.57031-.41015,2.53806,2.53806,0,0,1,2.02344.76562,3.457,3.457,0,0,1,.67188,2.29688v5.54687H981.354V399.818a2.58564,2.58564,0,0,0-.48047-1.6875,1.88531,1.88531,0,0,0-1.51172-.55468,2.36827,2.36827,0,0,0-1.53516.543,3.183,3.183,0,0,0-.98828,1.46484v5.78906h-.92968V396.9196Z" style="fill:#191d23"/><path d="M987.604,400.74772h-3.74219v-.78906H987.604Z" style="fill:#191d23"/><path d="M990.28365,396.9196v9.46093a2.56746,2.56746,0,0,1-.5625,1.78907,2.13,2.13,0,0,1-1.65625.61718,2.35924,2.35924,0,0,1-.82032-.14648l.01563-.76758a2.48337,2.48337,0,0,0,.70312.10156q1.39014,0,1.39063-1.60253V396.9196Zm-.46094-3.07032a.60806.60806,0,0,1,.64844.62891.61475.61475,0,0,1-.17188.44238.63032.63032,0,0,1-.47656.17871.60627.60627,0,0,1-.46485-.17871.61987.61987,0,0,1-.168-.44238.63424.63424,0,0,1,.168-.44629A.60169.60169,0,0,1,989.82271,393.84928Z" style="fill:#191d23"/><path d="M998.36177,404.30241a3.03686,3.03686,0,0,1-2.69531,1.22656,2.61484,2.61484,0,0,1-2.05469-.78515,3.43751,3.43751,0,0,1-.71875-2.32422v-5.5h.92969v5.38281q0,2.41406,1.95312,2.41406a2.394,2.394,0,0,0,2.57032-1.67969V396.9196h.9375v8.45312h-.90625Z" style="fill:#191d23"/><path d="M1001.33833,401.068a5.09651,5.09651,0,0,1,.87891-3.13671,2.82941,2.82941,0,0,1,2.38672-1.168,2.94112,2.94112,0,0,1,2.60937,1.35156v-4.74219h.92969v12h-.875l-.03906-1.125a3.01885,3.01885,0,0,1-2.64063,1.28125,2.81736,2.81736,0,0,1-2.35547-1.17578,5.11667,5.11667,0,0,1-.89453-3.17578Zm.94532.16407a4.405,4.405,0,0,0,.64843,2.55078,2.0954,2.0954,0,0,0,1.82813.93359,2.51638,2.51638,0,0,0,2.45312-1.52344v-3.96875a2.4979,2.4979,0,0,0-2.4375-1.64843,2.12219,2.12219,0,0,0-1.83593.92578A4.71064,4.71064,0,0,0,1002.28365,401.2321Z" style="fill:#191d23"/><path d="M1010.229,401.068a5.08983,5.08983,0,0,1,.8789-3.14453,2.83522,2.83522,0,0,1,2.38672-1.16015,2.94163,2.94163,0,0,1,2.625,1.375l.04688-1.21875h.875v8.28125a3.58009,3.58009,0,0,1-.91406,2.58593,3.26917,3.26917,0,0,1-2.47657.95313,3.76452,3.76452,0,0,1-1.68359-.39453,3.26386,3.26386,0,0,1-1.26172-1.05078l.52344-.5625a2.96135,2.96135,0,0,0,2.35937,1.21875,2.39961,2.39961,0,0,0,1.82813-.69141,2.75521,2.75521,0,0,0,.67969-1.918V404.279a3.02029,3.02029,0,0,1-2.61719,1.25,2.81842,2.81842,0,0,1-2.35938-1.17187,5.106,5.106,0,0,1-.89062-3.16407Zm.94531.16407a4.40491,4.40491,0,0,0,.64844,2.55078,2.09538,2.09538,0,0,0,1.82812.93359,2.49882,2.49882,0,0,0,2.44532-1.54687v-3.92969a2.67347,2.67347,0,0,0-.94532-1.23828,2.55448,2.55448,0,0,0-1.48437-.42578,2.12221,2.12221,0,0,0-1.83594.92578A4.71064,4.71064,0,0,0,1011.17427,401.2321Z" style="fill:#191d23"/><path d="M1022.7524,405.529a3.66619,3.66619,0,0,1-1.94922-.53125,3.613,3.613,0,0,1-1.35547-1.48047,4.6097,4.6097,0,0,1-.48438-2.1289v-.33594a4.97072,4.97072,0,0,1,.47266-2.19531,3.76764,3.76764,0,0,1,1.31641-1.53516,3.25,3.25,0,0,1,1.82812-.55859,3.0534,3.0534,0,0,1,2.44141,1.05078,4.26458,4.26458,0,0,1,.90234,2.87109v.52344H1019.893v.17969a3.53615,3.53615,0,0,0,.82422,2.39453,2.61958,2.61958,0,0,0,2.07422.957,3.04145,3.04145,0,0,0,1.32422-.27344,2.92687,2.92687,0,0,0,1.043-.875l.58593.44531A3.41029,3.41029,0,0,1,1022.7524,405.529Zm-.17188-7.96875a2.33662,2.33662,0,0,0-1.77734.77344,3.57272,3.57272,0,0,0-.87891,2.07812h5.07031v-.10156a3.10464,3.10464,0,0,0-.69531-1.98437A2.15722,2.15722,0,0,0,1022.58052,397.56022Z" style="fill:#191d23"/><path d="M1028.59615,396.9196l.03125,1.375a3.13871,3.13871,0,0,1,1.17187-1.14844,3.21655,3.21655,0,0,1,1.5625-.38281,2.37136,2.37136,0,0,1,2.53906,1.64062,3.18039,3.18039,0,0,1,1.21094-1.21484,3.36036,3.36036,0,0,1,1.67188-.42578q2.71875,0,2.77343,2.96875v5.64062h-.9375v-5.57031a2.5198,2.5198,0,0,0-.48828-1.67969,1.98932,1.98932,0,0,0-1.5664-.54687,2.4949,2.4949,0,0,0-1.70313.65234,2.30328,2.30328,0,0,0-.77344,1.55078v5.59375h-.9375V399.7321a2.31586,2.31586,0,0,0-.51172-1.6211,2.03783,2.03783,0,0,0-1.55078-.53515,2.35754,2.35754,0,0,0-1.51562.5039,2.95646,2.95646,0,0,0-.9375,1.4961v5.79687h-.9375V396.9196Z" style="fill:#191d23"/><path d="M1045.19771,405.529a3.66741,3.66741,0,0,1-1.94922-.53125,3.61636,3.61636,0,0,1-1.35547-1.48047,4.6097,4.6097,0,0,1-.48437-2.1289v-.33594a4.97071,4.97071,0,0,1,.47265-2.19531,3.77129,3.77129,0,0,1,1.31641-1.53516,3.25,3.25,0,0,1,1.82812-.55859,3.05271,3.05271,0,0,1,2.44141,1.05078,4.26458,4.26458,0,0,1,.90234,2.87109v.52344h-6.03125v.17969a3.53615,3.53615,0,0,0,.82422,2.39453,2.621,2.621,0,0,0,2.07422.957,3.04142,3.04142,0,0,0,1.32422-.27344,2.92687,2.92687,0,0,0,1.043-.875l.58594.44531A3.40972,3.40972,0,0,1,1045.19771,405.529Zm-.17188-7.96875a2.33663,2.33663,0,0,0-1.77734.77344,3.579,3.579,0,0,0-.87891,2.07812h5.07032v-.10156a3.1047,3.1047,0,0,0-.69532-1.98437A2.15722,2.15722,0,0,0,1045.02583,397.56022Z" style="fill:#191d23"/><path d="M1051.08052,396.9196l.03125,1.44531a3.3593,3.3593,0,0,1,1.1875-1.19141,3.0844,3.0844,0,0,1,1.57031-.41015,2.53737,2.53737,0,0,1,2.02344.76562,3.45431,3.45431,0,0,1,.67188,2.29688v5.54687h-.92969V399.818a2.58,2.58,0,0,0-.48047-1.6875,1.88531,1.88531,0,0,0-1.51172-.55468,2.36827,2.36827,0,0,0-1.53516.543,3.18667,3.18667,0,0,0-.98828,1.46484v5.78906h-.92968V396.9196Z" style="fill:#191d23"/><path d="M1060.43208,394.75553v2.16407h1.75v.76562h-1.75v5.63965a1.76821,1.76821,0,0,0,.25391,1.04785.98379.98379,0,0,0,.84766.34375,5.69648,5.69648,0,0,0,.75781-.07812l.03906.75879a3.052,3.052,0,0,1-1,.13183,1.66593,1.66593,0,0,1-1.39844-.55859,2.62555,2.62555,0,0,1-.4375-1.64453v-5.64063h-1.55468v-.76562h1.55468v-2.16407Z" style="fill:#191d23"/><path d="M1069.45552,405.37272a4.42994,4.42994,0,0,1-.17969-1.17969,3.251,3.251,0,0,1-1.2539.98829,3.84651,3.84651,0,0,1-1.61328.34765,2.8341,2.8341,0,0,1-1.97266-.67969,2.21208,2.21208,0,0,1-.75391-1.71875,2.26432,2.26432,0,0,1,1.02735-1.95312,4.94133,4.94133,0,0,1,2.86328-.71875h1.69531v-.96094a1.85431,1.85431,0,0,0-.55859-1.42578,2.31093,2.31093,0,0,0-1.62891-.51953,2.54991,2.54991,0,0,0-1.61719.5,1.48741,1.48741,0,0,0-.64062,1.20312l-.9375-.00781a2.17394,2.17394,0,0,1,.9375-1.74609,3.61056,3.61056,0,0,1,2.30469-.73828,3.29608,3.29608,0,0,1,2.23046.707,2.53855,2.53855,0,0,1,.83985,1.97265v4a4.959,4.959,0,0,0,.25781,1.83594v.09375Zm-2.9375-.67187a3.13273,3.13273,0,0,0,1.67578-.45313,2.65957,2.65957,0,0,0,1.07422-1.21094v-1.85937h-1.67187a4.1985,4.1985,0,0,0-2.1875.51172,1.53553,1.53553,0,0,0-.78907,1.36328,1.51035,1.51035,0,0,0,.52735,1.17969A1.98665,1.98665,0,0,0,1066.518,404.70085Z" style="fill:#191d23"/><path d="M1073.73677,405.37272h-.9375v-12h.9375Z" style="fill:#191d23"/><text transform="translate(549.92203 102.70842)" style="font-size:16px;fill:#191d23;font-family:Roboto-Light, Roboto;font-weight:300">G<tspan x="10.9375" y="0" style="letter-spacing:-0.009765625em">r</tspan><tspan x="16.16406" y="0">ow business and expand shop </tspan></text><text transform="translate(549.92166 68.03162)" style="font-size:18px;fill:#191d23;font-family:Roboto-Bold, Roboto;font-weight:700">G<tspan x="12.26074" y="0" style="letter-spacing:-0.01025390625em">O</tspan><tspan x="24.50391" y="0">ALS</tspan></text><text transform="translate(549.92166 348.66127)" style="font-size:18px;fill:#191d23;font-family:Roboto-Bold, Roboto;font-weight:700">M<tspan x="15.76758" y="0" style="letter-spacing:-0.04150390625em">O</tspan><tspan x="27.44824" y="0">TI</tspan><tspan x="43.83105" y="0" style="letter-spacing:-0.03662109375em">V</tspan><tspan x="54.94043" y="0" style="letter-spacing:-0.05859375em">A</tspan><tspan x="65.99707" y="0">TIONS</tspan></text><text transform="translate(289.13341 348.66127)" style="font-size:18px;fill:#191d23;font-family:Roboto-Bold, Roboto;font-weight:700">BIO</text><text transform="translate(870.23647 348.66127)" style="font-size:18px;fill:#191d23;font-family:Roboto-Bold, Roboto;font-weight:700">PERSO<tspan x="56.71582" y="0" style="letter-spacing:0.0087890625em">N</tspan><tspan x="69.58301" y="0">AL</tspan><tspan x="91.44141" y="0" style="letter-spacing:-0.01416015625em">I</tspan><tspan x="96.43359" y="0" style="letter-spacing:0.0078125em">T</tspan><tspan x="107.70996" y="0">Y</tspan></text><text transform="translate(549.92166 629.29179)" style="font-size:18px;fill:#191d23;font-family:Roboto-Bold, Roboto;font-weight:700">BRANDS</text><text transform="translate(289.13341 629.29179)" style="font-size:18px;fill:#191d23;font-family:Roboto-Bold, Roboto;font-weight:700">TECHNO<tspan x="70.89258" y="0" style="letter-spacing:-0.03125em">L</tspan><tspan x="80.07715" y="0">OGY</tspan></text><text transform="translate(870.23647 629.29179)" style="font-size:18px;fill:#191d23;font-family:Roboto-Bold, Roboto;font-weight:700">SO<tspan x="23.49316" y="0" style="letter-spacing:0.009765625em">F</tspan><tspan x="33.53027" y="0" style="letter-spacing:0.00732421875em">T</tspan><tspan x="44.79785" y="0" style="letter-spacing:-0.02099609375em">W</tspan><tspan x="60.16113" y="0">ARE &amp; APPS</tspan></text><text transform="translate(549.92203 137.09465)" style="font-size:16px;fill:#191d23;font-family:Roboto-Light, Roboto;font-weight:300">Get mo<tspan x="51.375" y="0" style="letter-spacing:-0.00927734375em">r</tspan><tspan x="56.60938" y="0">e empl</tspan><tspan x="103.66406" y="0" style="letter-spacing:-0.00732421875em">o</tspan><tspan x="112.50781" y="0" style="letter-spacing:-0.00634765625em">y</tspan><tspan x="120.00781" y="0">ees</tspan></text><text transform="translate(549.92203 170.06373)" style="font-size:16px;fill:#191d23;font-family:Roboto-Light, Roboto;font-weight:300">Manage cus<tspan x="85.9375" y="0" style="letter-spacing:-0.009765625em">t</tspan><tspan x="90.92188" y="0">omers</tspan></text><text transform="translate(549.92154 386.17298)" style="font-size:16px;fill:#191d23;font-family:Roboto-Light, Roboto;font-weight:300">Getting better quality clients</text><text transform="translate(549.92154 428.46501)" style="font-size:16px;fill:#191d23;font-family:Roboto-Light, Roboto;font-weight:300">Easier and mo<tspan x="100.17969" y="0" style="letter-spacing:-0.00927734375em">r</tspan><tspan x="105.41406" y="0">e efficient w</tspan><tspan x="189.99219" y="0" style="letter-spacing:-0.00732421875em">a</tspan><tspan x="198.44531" y="0">ys </tspan><tspan x="218.03906" y="0" style="letter-spacing:-0.009765625em">t</tspan><tspan x="223.02344" y="0">o </tspan><tspan x="0" y="13">manage.</tspan></text><text transform="translate(549.92154 469.01371)" style="font-size:16px;fill:#191d23;font-family:Roboto-Light, Roboto;font-weight:300">Cont<tspan x="33.28125" y="0" style="letter-spacing:-0.009765625em">r</tspan><tspan x="38.50781" y="0">ol </tspan><tspan x="54.94531" y="0" style="letter-spacing:-0.00732421875em">o</tspan><tspan x="63.78906" y="0" style="letter-spacing:-0.00634765625em">v</tspan><tspan x="71.38281" y="0">er types of designs done</tspan></text><text transform="translate(870.23645 102.70842)" style="font-size:16px;fill:#191d23;font-family:Roboto-Light, Roboto;font-weight:300">Checking multiple channels <tspan x="195.5625" y="0" style="letter-spacing:-0.009765625em">t</tspan><tspan x="200.54688" y="0">o </tspan><tspan x="0" y="19.2002">manage admin work</tspan></text><text transform="translate(870.23622 68.03162)" style="font-size:18px;fill:#191d23;font-family:Roboto-Bold, Roboto;font-weight:700">FRUSTR<tspan x="66.88477" y="0" style="letter-spacing:-0.05859375em">A</tspan><tspan x="77.94141" y="0">TIONS</tspan></text><text transform="translate(870.23645 153.4589)" style="font-size:16px;fill:#191d23;font-family:Roboto-Light, Roboto;font-weight:300">Applications and softwa<tspan x="168.45313" y="0" style="letter-spacing:-0.00927734375em">r</tspan><tspan x="173.6875" y="0">e used is </tspan><tspan x="0" y="19.2002">easy</tspan></text><text transform="translate(870.23645 202.11793)" style="font-size:16px;fill:#191d23;font-family:Roboto-Light, Roboto;font-weight:300">Not being able <tspan x="104.80469" y="0" style="letter-spacing:-0.009765625em">t</tspan><tspan x="109.78906" y="0">o switch off and </tspan><tspan x="0" y="19.2002">missing spending time with family</tspan></text><text transform="translate(870.23694 668.51475)" style="font-size:16px;fill:#191d23;font-family:Roboto-Light, Roboto;font-weight:300">Gmail</text><text transform="translate(870.23694 702.90098)" style="font-size:16px;fill:#191d23;font-family:Roboto-Light, Roboto;font-weight:300">Instag<tspan x="43.73438" y="0" style="letter-spacing:-0.01953125em">r</tspan><tspan x="48.80469" y="0">am</tspan></text><text transform="translate(870.23694 735.8701)" style="font-size:16px;fill:#191d23;font-family:Roboto-Light, Roboto;font-weight:300">Shop company website</text><text transform="translate(549.92195 668.51475)" style="font-size:16px;fill:#191d23;font-family:Roboto-Light, Roboto;font-weight:300">Sullen Clothing</text><text transform="translate(549.92195 702.90098)" style="font-size:16px;fill:#191d23;font-family:Roboto-Light, Roboto;font-weight:300">High Di<tspan x="50.51563" y="0" style="letter-spacing:-0.00634765625em">v</tspan><tspan x="58.10938" y="0">e</tspan></text><text transform="translate(549.92195 735.8701)" style="font-size:16px;fill:#191d23;font-family:Roboto-Light, Roboto;font-weight:300">Born Dead</text><text transform="translate(28.34615 323.14943)" style="font-size:24px;fill:#d4d3ed;font-family:Roboto-Bold, Roboto;font-weight:700">Co<tspan x="29.27344" y="0" style="letter-spacing:0.0087890625em">r</tspan><tspan x="38.23828" y="0">y Di</tspan><tspan x="78.22266" y="0" style="letter-spacing:-0.01953125em">x</tspan><tspan x="89.96484" y="0">on</tspan><tspan x="116.97656" y="0" style="font-family:Roboto-Light, Roboto;font-weight:300">, 35</tspan></text><text transform="translate(28.34651 387.54228)" style="font-size:9px;fill:#fff;font-family:Roboto-Bold, Roboto;font-weight:700"><tspan style="letter-spacing:0.0087890625em">M</tspan><tspan x="7.96289" y="0">ARRIED</tspan><tspan x="0" y="15">KIDS</tspan><tspan x="0" y="30">EDUC</tspan><tspan x="22.72412" y="30" style="letter-spacing:-0.05859375em">A</tspan><tspan x="28.25244" y="30">TION</tspan><tspan x="0" y="45">OCCU</tspan><tspan x="23.91504" y="45" style="letter-spacing:-0.0869140625em">P</tspan><tspan x="28.93799" y="45" style="letter-spacing:-0.05859375em">A</tspan><tspan x="34.46631" y="45">TION</tspan><tspan x="0" y="60" style="letter-spacing:-0.03125em">L</tspan><tspan x="4.59229" y="60">OC</tspan><tspan x="16.69482" y="60" style="letter-spacing:-0.05859375em">A</tspan><tspan x="22.22314" y="60">TION</tspan></text><text transform="translate(28.34627 351.49592)" style="font-size:18px;fill:#fff;font-family:Roboto-Light, Roboto;font-weight:300"><tspan style="letter-spacing:-0.05517578125em">T</tspan><tspan x="9.75586" y="0">at</tspan><tspan x="25.18066" y="0" style="letter-spacing:-0.009765625em">t</tspan><tspan x="30.78809" y="0">ooer Dad</tspan></text><text transform="translate(291.96809 92.11975)" style="font-size:17px;fill:#191d23;font-family:Roboto-LightItalic, Roboto;font-weight:300;font-style:italic"><tspan style="letter-spacing:-0.05517578125em">T</tspan><tspan x="8.98975" y="0">at</tspan><tspan x="23.28369" y="0" style="letter-spacing:-0.009765625em">t</tspan><tspan x="28.49658" y="0">oo shop owne</tspan><tspan x="131.01123" y="0" style="letter-spacing:-0.06005859375em">r</tspan><tspan x="135.61816" y="0">, looking </tspan><tspan x="0" y="21" style="letter-spacing:-0.009765625em">t</tspan><tspan x="5.21289" y="21">o expand my business and </tspan><tspan x="0" y="42.00049">manage clients mo</tspan><tspan x="139.38672" y="42.00049" style="letter-spacing:-0.00927734375em">r</tspan><tspan x="144.85693" y="42.00049">e </tspan><tspan x="0" y="63.00049">efficiently so I can spend </tspan><tspan x="0" y="84.00049">mo</tspan><tspan x="24.02246" y="84.00049" style="letter-spacing:-0.00927734375em">r</tspan><tspan x="29.49268" y="84.00049">e time with family and </tspan><tspan x="0" y="105.00049">actually be able </tspan><tspan x="117.00781" y="105.00049" style="letter-spacing:-0.009765625em">t</tspan><tspan x="122.2207" y="105.00049">o switch </tspan><tspan x="0" y="126.00049">off and not </tspan><tspan x="83.82959" y="126.00049" style="letter-spacing:-0.009765625em">k</tspan><tspan x="91.82324" y="126.00049">eep checking </tspan><tspan x="0" y="147.00049">emails/DMs</tspan><tspan x="88.50293" y="147.00049" style="letter-spacing:-0.0830078125em">.</tspan><tspan x="91.10938" y="147.00049">”</tspan></text><text transform="translate(93.54317 386.59343)" style="font-size:9px;fill:#fff;font-family:Roboto-Regular, Roboto">Yes<tspan x="0" y="15">2 (5 yr/old &amp; 8 yr/old)</tspan><tspan x="0" y="30">High school &amp; Apprenticeship</tspan><tspan x="0" y="45" style="letter-spacing:-0.05517578125em">T</tspan><tspan x="4.87354" y="45">at</tspan><tspan x="12.70898" y="45" style="letter-spacing:-0.009765625em">t</tspan><tspan x="15.56104" y="45">oo A</tspan><tspan x="33.92578" y="45" style="letter-spacing:0.0244140625em">r</tspan><tspan x="37.19092" y="45">tist (pa</tspan><tspan x="65.14453" y="45" style="letter-spacing:0.0244140625em">r</tspan><tspan x="68.40967" y="45">tial) owner </tspan><tspan x="0" y="60">Orlando FL</tspan></text><path d="M294.80315,58.69158q0-5.60206,2.67032-8.85127a12.89259,12.89259,0,0,1,7.78687-4.25757v3.8841a7.74107,7.74107,0,0,0-5.11656,4.10819,6.66044,6.66044,0,0,0-.5602,3.1745h5.86349v9.82229H294.80315Zm17.70253,0q0-5.67677,2.745-8.88861a13.22626,13.22626,0,0,1,7.71218-4.22023v3.8841a7.55248,7.55248,0,0,0-5.07921,4.18288,5.89785,5.89785,0,0,0-.59755,3.09981h5.86349v9.82229H312.50568Z" style="fill:#fff"/><text transform="translate(289.13365 667.3936)" style="font-size:16px;fill:#191d23;font-family:Roboto-Light, Roboto;font-weight:300">Desk<tspan x="34.67969" y="0" style="letter-spacing:-0.009765625em">t</tspan><tspan x="39.66406" y="0">op</tspan></text><text transform="translate(289.13365 704.11845)" style="font-size:16px;fill:#191d23;font-family:Roboto-Light, Roboto;font-weight:300">Sma<tspan x="32.22656" y="0" style="letter-spacing:0.0244140625em">r</tspan><tspan x="38" y="0">t Phone</tspan></text><text transform="translate(289.13365 741.09458)" style="font-size:16px;fill:#191d23;font-family:Roboto-Light, Roboto;font-weight:300">Social Media</text><path d="M493.22834,674.48022a1.42149,1.42149,0,0,1-1.41732,1.41732H290.55118a1.42149,1.42149,0,0,1-1.41732-1.41732h0a1.42149,1.42149,0,0,1,1.41732-1.41733H491.811a1.42149,1.42149,0,0,1,1.41732,1.41733Z" style="fill:#dbdbda"/><path d="M379.84252,674.48022a1.42149,1.42149,0,0,1-1.41733,1.41732h-87.874a1.42148,1.42148,0,0,1-1.41732-1.41732h0a1.42148,1.42148,0,0,1,1.41732-1.41732h87.874a1.42149,1.42149,0,0,1,1.41733,1.41732Z" style="fill:#d4d3ed"/><circle cx="378.42519" cy="674.48022" r="7.08661" style="fill:#d4d3ed"/><path d="M493.22834,711.20467A1.42149,1.42149,0,0,1,491.811,712.622H290.55118a1.41733,1.41733,0,0,1,0-2.83465H491.811A1.42149,1.42149,0,0,1,493.22834,711.20467Z" style="fill:#dbdbda"/><path d="M473.38582,711.2047a1.42148,1.42148,0,0,1-1.41732,1.41732H290.55118a1.42148,1.42148,0,0,1-1.41732-1.41732h0a1.42148,1.42148,0,0,1,1.41732-1.41732H471.9685a1.42148,1.42148,0,0,1,1.41732,1.41732Z" style="fill:#d4d3ed"/><circle cx="470.55118" cy="711.20467" r="7.08661" style="fill:#d4d3ed"/><text transform="translate(289.13365 777.94523)" style="font-size:16px;fill:#191d23;font-family:Roboto-Light, Roboto;font-weight:300">Gmail</text><path d="M493.22834,785.0314a1.42149,1.42149,0,0,1-1.41732,1.41732H290.55118a1.41733,1.41733,0,0,1,0-2.83465H491.811A1.42149,1.42149,0,0,1,493.22834,785.0314Z" style="fill:#dbdbda"/><path d="M473.38582,785.03142a1.42148,1.42148,0,0,1-1.41732,1.41732H290.55118a1.42148,1.42148,0,0,1-1.41732-1.41732h0a1.42148,1.42148,0,0,1,1.41732-1.41732H471.9685a1.42148,1.42148,0,0,1,1.41732,1.41732Z" style="fill:#d4d3ed"/><circle cx="470.55118" cy="785.0314" r="7.08661" style="fill:#d4d3ed"/><path d="M493.22834,748.181a1.42149,1.42149,0,0,1-1.41732,1.41733H290.55118a1.41733,1.41733,0,0,1,0-2.83465H491.811A1.42148,1.42148,0,0,1,493.22834,748.181Z" style="fill:#dbdbda"/><path d="M493.22834,748.181a1.42149,1.42149,0,0,1-1.41732,1.41733H290.55118a1.41733,1.41733,0,0,1,0-2.83465H491.811A1.42148,1.42148,0,0,1,493.22834,748.181Z" style="fill:#d4d3ed"/><circle cx="493.22834" cy="748.181" r="7.08661" style="fill:#d4d3ed"/></g><g id="Layer_10" data-name="Layer 10"><rect x="549.92183" y="75.37008" width="59.52783" height="4" style="fill:#d4d3ed"/><rect x="289.13326" y="354.33071" width="28.34706" height="4" style="fill:#d4d3ed"/><rect x="289.13326" y="639.46457" width="116.22108" height="4" style="fill:#d4d3ed"/><rect x="549.92183" y="356" width="119.05455" height="4" style="fill:#d4d3ed"/><rect x="870.23628" y="356" width="121.88976" height="4" style="fill:#d4d3ed"/><rect x="549.92183" y="639.46457" width="76.53543" height="4" style="fill:#d4d3ed"/><rect x="870.23628" y="639.46457" width="164.40939" height="4" style="fill:#d4d3ed"/><rect x="870.23628" y="75.37008" width="130.3937" height="4" style="fill:#d4d3ed"/></g></g><g id="Chris_Welna" data-name="Chris Welna"><g id="Layer_copy" data-name="Layer copy"><g style="clip-path:url(#clip-path-2)"><g style="opacity:0.23"><g style="opacity:0.28"><polygon points="86.58 796.349 -22.164 796.349 -76.535 890.524 -22.164 984.699 86.58 984.699 140.952 890.524 86.58 796.349" style="fill:none;stroke:#fff;stroke-miterlimit:10"/><polygon points="303.797 796.349 195.054 796.349 140.682 890.524 195.054 984.699 303.797 984.699 358.169 890.524 303.797 796.349" style="fill:none;stroke:#fff;stroke-miterlimit:10"/><polygon points="-21.137 608.186 -129.88 608.186 -184.252 702.361 -129.88 796.535 -21.137 796.535 33.235 702.361 -21.137 608.186" style="fill:none;stroke:#fff;stroke-miterlimit:10"/><polygon points="416.179 608.186 307.436 608.186 253.064 702.361 307.436 796.535 416.179 796.535 470.551 702.361 416.179 608.186" style="fill:none;stroke:#fff;stroke-miterlimit:10"/><polygon points="196.081 608.186 87.337 608.186 32.966 702.361 87.337 796.535 196.081 796.535 250.453 702.361 196.081 608.186" style="fill:none;stroke:#fff;stroke-miterlimit:10"/></g></g></g></g></g></svg>