<svg xmlns="http://www.w3.org/2000/svg" xmlns:xlink="http://www.w3.org/1999/xlink" viewBox="0 0 1176.37795 841.88976"><defs><clipPath id="clip-path"><rect width="260.7874" height="841.88976" style="fill:none"/></clipPath></defs><g id="Elise_Maya" data-name="Elise Maya"><g id="Layer_4_copy_2" data-name="Layer 4 copy 2"><g style="clip-path:url(#clip-path)"><rect width="260.7874" height="841.88976" style="fill:#191d23"/><g style="opacity:0.23"><g style="opacity:0.28"><polygon points="75.241 670.053 -33.502 670.053 -87.874 764.228 -33.502 858.403 75.241 858.403 129.613 764.228 75.241 670.053" style="fill:none;stroke:#fff;stroke-miterlimit:10"/><polygon points="292.459 670.053 183.715 670.053 129.343 764.228 183.715 858.403 292.459 858.403 346.831 764.228 292.459 670.053" style="fill:none;stroke:#fff;stroke-miterlimit:10"/><polygon points="-32.475 481.89 -141.219 481.89 -195.591 576.065 -141.219 670.239 -32.475 670.239 21.897 576.065 -32.475 481.89" style="fill:none;stroke:#fff;stroke-miterlimit:10"/><polygon points="404.841 481.89 296.097 481.89 241.725 576.065 296.097 670.239 404.841 670.239 459.213 576.065 404.841 481.89" style="fill:none;stroke:#fff;stroke-miterlimit:10"/><polygon points="184.742 481.89 75.999 481.89 21.627 576.065 75.999 670.239 184.742 670.239 239.114 576.065 184.742 481.89" style="fill:none;stroke:#fff;stroke-miterlimit:10"/></g><g style="opacity:0.28"><polygon points="75.241 294.617 -33.502 294.617 -87.874 388.792 -33.502 482.967 75.241 482.967 129.613 388.792 75.241 294.617" style="fill:none;stroke:#fff;stroke-miterlimit:10"/><polygon points="292.459 294.617 183.715 294.617 129.343 388.792 183.715 482.967 292.459 482.967 346.831 388.792 292.459 294.617" style="fill:none;stroke:#fff;stroke-miterlimit:10"/><polygon points="-32.475 106.454 -141.219 106.454 -195.591 200.628 -141.219 294.803 -32.475 294.803 21.897 200.628 -32.475 106.454" style="fill:none;stroke:#fff;stroke-miterlimit:10"/><polygon points="404.841 106.454 296.097 106.454 241.725 200.628 296.097 294.803 404.841 294.803 459.213 200.628 404.841 106.454" style="fill:none;stroke:#fff;stroke-miterlimit:10"/><polygon points="184.742 106.454 75.999 106.454 21.627 200.628 75.999 294.803 184.742 294.803 239.114 200.628 184.742 106.454" style="fill:none;stroke:#fff;stroke-miterlimit:10"/></g><g style="opacity:0.28"><polygon points="75.241 -82.391 -33.502 -82.391 -87.874 11.784 -33.502 105.959 75.241 105.959 129.613 11.784 75.241 -82.391" style="fill:none;stroke:#fff;stroke-miterlimit:10"/><polygon points="292.459 -82.391 183.715 -82.391 129.343 11.784 183.715 105.959 292.459 105.959 346.831 11.784 292.459 -82.391" style="fill:none;stroke:#fff;stroke-miterlimit:10"/></g></g></g></g><g id="Layer_copy_2" data-name="Layer copy 2"><rect x="261.17767" width="255.11811" height="294.80315" style="fill:#dae5ac"/><text transform="translate(288.63736 377.66957)" style="font-size:16px;fill:#232d38;font-family:Roboto-Light, Roboto;font-weight:300">L<tspan x="8.42969" y="0" style="letter-spacing:-0.00732421875em">o</tspan><tspan x="17.27344" y="0" style="letter-spacing:-0.00634765625em">v</tspan><tspan x="24.86719" y="0">es animals and pet, </tspan><tspan x="0" y="19.2002">spending time with family </tspan><tspan x="0" y="38.3999">and friends, t</tspan><tspan x="90.54688" y="38.3999" style="letter-spacing:-0.01953125em">r</tspan><tspan x="95.61719" y="38.3999" style="letter-spacing:-0.00732421875em">a</tspan><tspan x="104.07031" y="38.3999" style="letter-spacing:-0.00634765625em">v</tspan><tspan x="111.66406" y="38.3999">elling and </tspan><tspan x="0" y="57.6001">switching off, spending time </tspan><tspan x="0" y="76.7998">in natu</tspan><tspan x="47.55469" y="76.7998" style="letter-spacing:-0.00927734375em">r</tspan><tspan x="52.78906" y="76.7998">e</tspan></text><text transform="translate(869.74071 386.17324)" style="font-size:16px;fill:#232d38;font-family:Roboto-Light, Roboto;font-weight:300">Ext<tspan x="22.02344" y="0" style="letter-spacing:-0.009765625em">r</tspan><tspan x="27.25" y="0" style="letter-spacing:-0.00732421875em">o</tspan><tspan x="36.09375" y="0" style="letter-spacing:-0.00634765625em">v</tspan><tspan x="43.6875" y="0">e</tspan><tspan x="51.95313" y="0" style="letter-spacing:0.0244140625em">r</tspan><tspan x="57.72656" y="0">ted int</tspan><tspan x="101.42969" y="0" style="letter-spacing:-0.009765625em">r</tspan><tspan x="106.65625" y="0" style="letter-spacing:-0.00732421875em">o</tspan><tspan x="115.5" y="0" style="letter-spacing:-0.00634765625em">v</tspan><tspan x="123.09375" y="0">e</tspan><tspan x="131.35938" y="0" style="letter-spacing:0.0244140625em">r</tspan><tspan x="137.13281" y="0">t</tspan></text><text transform="translate(549.42555 102.70876)" style="font-size:16px;fill:#232d38;font-family:Roboto-Light, Roboto;font-weight:300">Respected in a male dominated <tspan x="0" y="19.2002">indust</tspan><tspan x="43.29688" y="19.2002" style="letter-spacing:0.0087890625em">r</tspan><tspan x="48.82031" y="19.2002">y</tspan></text><text transform="translate(549.42564 68.03115)" style="font-size:18px;fill:#191d23;font-family:Roboto-Bold, Roboto;font-weight:700">G<tspan x="12.26074" y="0" style="letter-spacing:-0.01025390625em">O</tspan><tspan x="24.50391" y="0">ALS</tspan></text><text transform="translate(549.42564 348.66091)" style="font-size:18px;fill:#191d23;font-family:Roboto-Bold, Roboto;font-weight:700">M<tspan x="15.76758" y="0" style="letter-spacing:-0.04150390625em">O</tspan><tspan x="27.44824" y="0">TI</tspan><tspan x="43.83105" y="0" style="letter-spacing:-0.03662109375em">V</tspan><tspan x="54.94043" y="0" style="letter-spacing:-0.05859375em">A</tspan><tspan x="65.99707" y="0">TIONS</tspan></text><text transform="translate(288.63738 348.66091)" style="font-size:18px;fill:#191d23;font-family:Roboto-Bold, Roboto;font-weight:700">BIO</text><text transform="translate(869.74045 348.66091)" style="font-size:18px;fill:#191d23;font-family:Roboto-Bold, Roboto;font-weight:700">PERSO<tspan x="56.71582" y="0" style="letter-spacing:0.0087890625em">N</tspan><tspan x="69.58301" y="0">AL</tspan><tspan x="91.44141" y="0" style="letter-spacing:-0.01416015625em">I</tspan><tspan x="96.43359" y="0" style="letter-spacing:0.0078125em">T</tspan><tspan x="107.70996" y="0">Y</tspan></text><text transform="translate(549.42564 629.29262)" style="font-size:18px;fill:#191d23;font-family:Roboto-Bold, Roboto;font-weight:700">BRANDS</text><text transform="translate(288.63738 629.29262)" style="font-size:18px;fill:#191d23;font-family:Roboto-Bold, Roboto;font-weight:700">TECHNO<tspan x="70.89258" y="0" style="letter-spacing:-0.03125em">L</tspan><tspan x="80.07715" y="0">OGY</tspan></text><text transform="translate(869.74045 629.29262)" style="font-size:18px;fill:#191d23;font-family:Roboto-Bold, Roboto;font-weight:700">SO<tspan x="23.49316" y="0" style="letter-spacing:0.009765625em">F</tspan><tspan x="33.53027" y="0" style="letter-spacing:0.00732421875em">T</tspan><tspan x="44.79785" y="0" style="letter-spacing:-0.02099609375em">W</tspan><tspan x="60.16113" y="0">ARE &amp; APPS</tspan></text><text transform="translate(549.42555 147.48732)" style="font-size:16px;fill:#232d38;font-family:Roboto-Light, Roboto;font-weight:300">Get business off the g<tspan x="153.125" y="0" style="letter-spacing:-0.009765625em">r</tspan><tspan x="158.35156" y="0">ound</tspan></text><text transform="translate(549.42506 386.17324)" style="font-size:16px;fill:#232d38;font-family:Roboto-Light, Roboto;font-weight:300">Cont<tspan x="33.28125" y="0" style="letter-spacing:-0.009765625em">r</tspan><tspan x="38.50781" y="0">ol business and scheduling</tspan></text><text transform="translate(549.42506 440.03188)" style="font-size:16px;fill:#232d38;font-family:Roboto-Light, Roboto;font-weight:300">Affo<tspan x="29.54688" y="0" style="letter-spacing:-0.00927734375em">r</tspan><tspan x="34.78125" y="0">d solutions</tspan></text><text transform="translate(869.74046 102.70778)" style="font-size:16px;fill:#232d38;font-family:Roboto-Light, Roboto;font-weight:300">Not being <tspan x="71.625" y="0" style="letter-spacing:-0.00927734375em">r</tspan><tspan x="76.85938" y="0">espected in community</tspan></text><text transform="translate(869.7402 68.03115)" style="font-size:18px;fill:#191d23;font-family:Roboto-Bold, Roboto;font-weight:700">FRUSTR<tspan x="66.88477" y="0" style="letter-spacing:-0.05859375em">A</tspan><tspan x="77.94141" y="0">TIONS</tspan></text><text transform="translate(869.74046 153.45839)" style="font-size:16px;fill:#232d38;font-family:Roboto-Light, Roboto;font-weight:300">Spending a lot of time doing admin <tspan x="0" y="19.2002">work outside of tat</tspan><tspan x="130.75781" y="19.2002" style="letter-spacing:-0.009765625em">t</tspan><tspan x="135.74219" y="19.2002">ooing</tspan></text><text transform="translate(869.74046 202.11757)" style="font-size:16px;fill:#232d38;font-family:Roboto-Light, Roboto;font-weight:300">Not being able <tspan x="104.80469" y="0" style="letter-spacing:-0.009765625em">t</tspan><tspan x="109.78906" y="0">o switch off and </tspan><tspan x="0" y="19.2002">missing spending time with friends</tspan></text><text transform="translate(869.74095 668.5165)" style="font-size:16px;fill:#232d38;font-family:Roboto-Light, Roboto;font-weight:300">Gmail</text><text transform="translate(869.74095 702.90297)" style="font-size:16px;fill:#232d38;font-family:Roboto-Light, Roboto;font-weight:300">Instag<tspan x="43.73438" y="0" style="letter-spacing:-0.01953125em">r</tspan><tspan x="48.80469" y="0">am</tspan></text><text transform="translate(869.74095 735.87221)" style="font-size:16px;fill:#232d38;font-family:Roboto-Light, Roboto;font-weight:300">Shop company website</text><text transform="translate(549.42494 668.5165)" style="font-size:16px;fill:#232d38;font-family:Roboto-Light, Roboto;font-weight:300">Sullen Clothing</text><text transform="translate(549.42494 702.90297)" style="font-size:16px;fill:#232d38;font-family:Roboto-Light, Roboto;font-weight:300">High Di<tspan x="50.51563" y="0" style="letter-spacing:-0.00634765625em">v</tspan><tspan x="58.10938" y="0">e</tspan></text><text transform="translate(549.42494 735.87221)" style="font-size:16px;fill:#232d38;font-family:Roboto-Light, Roboto;font-weight:300">Born Dead</text><text transform="translate(27.85013 323.14907)" style="font-size:24px;fill:#dae5ac;font-family:Roboto-Bold, Roboto;font-weight:700">Elise M<tspan x="78.53906" y="0" style="letter-spacing:-0.00732421875em">ay</tspan><tspan x="103.10156" y="0">a</tspan><tspan x="115.96875" y="0" style="font-family:Roboto-Light, Roboto;font-weight:300">, 28</tspan></text><text transform="translate(27.85049 387.54213)" style="font-size:9px;fill:#fff;font-family:Roboto-Bold, Roboto;font-weight:700"><tspan style="letter-spacing:0.0087890625em">M</tspan><tspan x="7.96289" y="0">ARRIED</tspan><tspan x="0" y="15">KIDS</tspan><tspan x="0" y="30">EDUC</tspan><tspan x="22.72412" y="30" style="letter-spacing:-0.05859375em">A</tspan><tspan x="28.25244" y="30">TION</tspan><tspan x="0" y="45">OCCU</tspan><tspan x="23.91504" y="45" style="letter-spacing:-0.0869140625em">P</tspan><tspan x="28.93799" y="45" style="letter-spacing:-0.05859375em">A</tspan><tspan x="34.46631" y="45">TION</tspan><tspan x="0" y="60" style="letter-spacing:-0.03125em">L</tspan><tspan x="4.59229" y="60">OC</tspan><tspan x="16.69482" y="60" style="letter-spacing:-0.05859375em">A</tspan><tspan x="22.22314" y="60">TION</tspan></text><text transform="translate(27.85025 351.4955)" style="font-size:18px;fill:#fff;font-family:Roboto-Light, Roboto;font-weight:300"><tspan style="letter-spacing:-0.01025390625em">F</tspan><tspan x="9.94043" y="0">emale</tspan><tspan x="58.16602" y="0" style="letter-spacing:-0.01953125em"> </tspan><tspan x="62.19141" y="0" style="letter-spacing:-0.05517578125em">T</tspan><tspan x="71.94727" y="0">at</tspan><tspan x="87.37207" y="0" style="letter-spacing:-0.009765625em">t</tspan><tspan x="92.97949" y="0">oo A</tspan><tspan x="128.75977" y="0" style="letter-spacing:0.0244140625em">r</tspan><tspan x="135.25488" y="0">tist</tspan></text><text transform="translate(291.47206 92.1194)" style="font-size:17px;fill:#191d23;font-family:Roboto-LightItalic, Roboto;font-weight:300;font-style:italic"><tspan style="letter-spacing:-0.01025390625em">F</tspan><tspan x="9.18066" y="0">emale tat</tspan><tspan x="77.5376" y="0" style="letter-spacing:-0.009765625em">t</tspan><tspan x="82.75049" y="0">oo a</tspan><tspan x="114.40137" y="0" style="letter-spacing:0.0244140625em">r</tspan><tspan x="120.44434" y="0">tist looking </tspan><tspan x="0" y="21" style="letter-spacing:-0.009765625em">t</tspan><tspan x="5.21289" y="21">o g</tspan><tspan x="27.85742" y="21" style="letter-spacing:-0.009765625em">r</tspan><tspan x="33.31934" y="21">ow business and be </tspan><tspan x="0" y="42.00049" style="letter-spacing:-0.00927734375em">r</tspan><tspan x="5.47021" y="42.00049">espected in a </tspan><tspan x="0" y="63.00049">male-dominated indust</tspan><tspan x="168.32324" y="63.00049" style="letter-spacing:0.0087890625em">r</tspan><tspan x="174.10059" y="63.00049">y </tspan><tspan x="0" y="84.00049">c</tspan><tspan x="8.57471" y="84.00049" style="letter-spacing:-0.00927734375em">r</tspan><tspan x="14.04492" y="84.00049">eating sa</tspan><tspan x="80.52588" y="84.00049" style="letter-spacing:-0.01171875em">f</tspan><tspan x="85.87158" y="84.00049">e spaces for </tspan><tspan x="0" y="105.00049">other </tspan><tspan x="42.15137" y="105.00049" style="letter-spacing:-0.01171875em">f</tspan><tspan x="47.49707" y="105.00049">emale a</tspan><tspan x="105.09619" y="105.00049" style="letter-spacing:0.0244140625em">r</tspan><tspan x="111.13916" y="105.00049">tists and </tspan><tspan x="0" y="126.00049">clients, p</tspan><tspan x="64.23145" y="126.00049" style="letter-spacing:-0.009765625em">r</tspan><tspan x="69.69336" y="126.00049" style="letter-spacing:-0.00732421875em">o</tspan><tspan x="78.89063" y="126.00049">viding the best </tspan><tspan x="0" y="147.00049">possible work</tspan><tspan x="100.50586" y="147.00049" style="letter-spacing:-0.0830078125em">.</tspan><tspan x="103.1123" y="147.00049">”</tspan></text><text transform="translate(93.04715 386.5931)" style="font-size:9px;fill:#fff;font-family:Roboto-Regular, Roboto">No<tspan x="0" y="15">No</tspan><tspan x="0" y="30">High school &amp; Apprenticeship</tspan><tspan x="0" y="45" style="letter-spacing:-0.05517578125em">T</tspan><tspan x="4.87354" y="45">at</tspan><tspan x="12.70898" y="45" style="letter-spacing:-0.009765625em">t</tspan><tspan x="15.56104" y="45">oo A</tspan><tspan x="33.92578" y="45" style="letter-spacing:0.0244140625em">r</tspan><tspan x="37.19092" y="45" xml:space="preserve">tist  </tspan><tspan x="0" y="60" style="letter-spacing:-0.01025390625em">F</tspan><tspan x="4.88232" y="60">o</tspan><tspan x="10.01514" y="60" style="letter-spacing:0.0244140625em">r</tspan><tspan x="13.28027" y="60">t Lauderdale FL</tspan></text><path d="M294.30712,58.69157q0-5.60206,2.67032-8.85126a12.89262,12.89262,0,0,1,7.78687-4.25757v3.8841a7.741,7.741,0,0,0-5.11655,4.10818,6.66047,6.66047,0,0,0-.56021,3.1745h5.8635v9.82229H294.30712Zm17.70253,0q0-5.67675,2.745-8.88861a13.2263,13.2263,0,0,1,7.71218-4.22022v3.8841a7.55247,7.55247,0,0,0-5.0792,4.18287,5.89777,5.89777,0,0,0-.59756,3.09981h5.8635v9.82229H312.00965Z" style="fill:#fff"/><text transform="translate(288.63762 663.308)" style="font-size:16px;fill:#666;font-family:Roboto-Light, Roboto;font-weight:300">Desk<tspan x="34.67969" y="0" style="letter-spacing:-0.009765625em">t</tspan><tspan x="39.66406" y="0">op</tspan></text><text transform="translate(288.63762 700.0331)" style="font-size:16px;fill:#666;font-family:Roboto-Light, Roboto;font-weight:300">Sma<tspan x="32.22656" y="0" style="letter-spacing:0.0244140625em">r</tspan><tspan x="38" y="0">t Phone</tspan></text><text transform="translate(288.63762 737.00942)" style="font-size:16px;fill:#666;font-family:Roboto-Light, Roboto;font-weight:300">Social Media</text><path d="M492.73232,670.39369A1.42149,1.42149,0,0,1,491.315,671.811H290.05515a1.42149,1.42149,0,0,1-1.41732-1.41732h0a1.42149,1.42149,0,0,1,1.41732-1.41732H491.315a1.42149,1.42149,0,0,1,1.41732,1.41732Z" style="fill:#dbdbda"/><path d="M379.34649,670.3937a1.42149,1.42149,0,0,1-1.41732,1.41732h-87.874a1.41733,1.41733,0,0,1,0-2.83465h87.874A1.42149,1.42149,0,0,1,379.34649,670.3937Z" style="fill:#dae5ac"/><circle cx="377.92917" cy="670.39369" r="7.08661" style="fill:#dae5ac"/><path d="M492.73232,707.11815a1.42149,1.42149,0,0,1-1.41732,1.41732H290.05515a1.41732,1.41732,0,0,1,0-2.83464H491.315A1.42149,1.42149,0,0,1,492.73232,707.11815Z" style="fill:#dbdbda"/><path d="M472.8898,707.11818a1.42149,1.42149,0,0,1-1.41732,1.41732H290.05515a1.41733,1.41733,0,0,1,0-2.83465H471.47248A1.4215,1.4215,0,0,1,472.8898,707.11818Z" style="fill:#dae5ac"/><circle cx="470.05515" cy="707.11815" r="7.08661" style="fill:#dae5ac"/><text transform="translate(288.63762 773.86025)" style="font-size:16px;fill:#666;font-family:Roboto-Light, Roboto;font-weight:300">Gmail</text><path d="M492.73232,780.94487a1.4215,1.4215,0,0,1-1.41732,1.41733H290.05515a1.41732,1.41732,0,0,1,0-2.83465H491.315A1.42149,1.42149,0,0,1,492.73232,780.94487Z" style="fill:#dbdbda"/><path d="M472.8898,780.9449a1.42149,1.42149,0,0,1-1.41732,1.41732H290.05515a1.41733,1.41733,0,0,1,0-2.83465H471.47248A1.4215,1.4215,0,0,1,472.8898,780.9449Z" style="fill:#dae5ac"/><circle cx="470.05515" cy="780.94487" r="7.08661" style="fill:#dae5ac"/><path d="M492.73232,744.09448a1.42149,1.42149,0,0,1-1.41732,1.41732H290.05515a1.41732,1.41732,0,1,1,0-2.83464H491.315A1.42149,1.42149,0,0,1,492.73232,744.09448Z" style="fill:#dbdbda"/><path d="M492.73232,744.09448a1.42149,1.42149,0,0,1-1.41732,1.41732H290.05515a1.41732,1.41732,0,1,1,0-2.83464H491.315A1.42149,1.42149,0,0,1,492.73232,744.09448Z" style="fill:#dae5ac"/><circle cx="492.73232" cy="744.09448" r="7.08661" style="fill:#dae5ac"/></g><g id="Layer_10_copy_2" data-name="Layer 10 copy 2"><rect x="549.92243" y="76.53543" width="59.52783" height="4" style="fill:#dae5ac"/><rect x="289.13386" y="355.49606" width="28.34713" height="4" style="fill:#dae5ac"/><rect x="289.13386" y="640.62992" width="113.38649" height="4" style="fill:#dae5ac"/><rect x="549.92243" y="357.16535" width="119.05461" height="4" style="fill:#dae5ac"/><rect x="870.23688" y="357.16535" width="121.88976" height="4" style="fill:#dae5ac"/><rect x="549.92243" y="640.62992" width="70.86564" height="4" style="fill:#dae5ac"/><rect x="870.23688" y="640.62992" width="161.5748" height="4" style="fill:#dae5ac"/><rect x="870.23688" y="76.53543" width="130.3937" height="4" style="fill:#dae5ac"/></g></g></svg>