<svg id="Layer_1" data-name="Layer 1" xmlns="http://www.w3.org/2000/svg" viewBox="0 0 1000 1000"><defs><style>.cls-1{fill:#fff;}</style></defs><path class="cls-1" d="M541,550.4a1087.63,1087.63,0,0,1,56.59,206.79C504.77,793,404.85,775.66,330.29,717.48,384.89,631.9,454.58,576.18,541,550.4Zm-22-53.48c-6-13.3-12.1-26.53-18.59-39.71q-115.58,36.44-275.82,36.72l-.42,7.07a273.55,273.55,0,0,0,63.67,175.61Q378.11,541.07,519,496.92ZM375,256.07A275.56,275.56,0,0,0,232.28,435.92c93-.66,173.4-10.85,240.8-30.64A1243.12,1243.12,0,0,0,375,256.07Zm291.54,27.57C620.08,247.8,562.11,226.18,499,226.18a272.75,272.75,0,0,0-67.41,8.73,1284.79,1284.79,0,0,1,96.73,150.74Q616.38,348.35,666.53,283.64ZM998,209.92V792.08C998,906.89,904.93,1000,790.07,1000H207.91C93.05,1000,0,906.89,0,792.08V209.92C0,95.11,93.05,2,207.91,2H790.07C904.93,2,998,95.11,998,209.92ZM831.66,501c0-183.72-148.95-332.67-332.67-332.67S166.32,317.28,166.32,501,315.28,833.67,499,833.67,831.66,684.72,831.66,501ZM554.88,436.88c7.48,15.43,14.47,31,21.29,46.57q89.76-15.46,196.85,2A273.78,273.78,0,0,0,708.7,323.73C670.36,371.51,618.88,409.18,554.88,436.88Zm43.45,101.34a1139.25,1139.25,0,0,1,53.19,191.2A275.45,275.45,0,0,0,770.2,543.66Q676.26,527.39,598.33,538.22Z"/></svg>