<svg id="Layer_1" data-name="Layer 1" xmlns="http://www.w3.org/2000/svg" viewBox="0 0 1000 1000"><defs><style>.cls-1{fill:#fff;}</style></defs><path class="cls-1" d="M790.07,2H207.91C93.1,2,0,95.11,0,209.92V792.08C0,906.89,93.1,1000,207.91,1000H790.07C904.93,1000,998,906.89,998,792.08V209.92C998,95.11,904.93,2,790.07,2ZM332.66,792.08H207.91V334.67H332.66ZM270.28,281.94c-40.17,0-72.77-32.85-72.77-73.35s32.6-73.36,72.77-73.36,72.77,32.85,72.77,73.36S310.49,281.94,270.28,281.94ZM831.66,792.08H706.91v-233c0-140-166.34-129.45-166.34,0v233H415.82V334.67H540.57v73.39c58-107.53,291.09-115.48,291.09,103Z"/></svg>