<?xml version="1.0" encoding="utf-8"?>
<!-- Generator: Adobe Illustrator 24.2.3, SVG Export Plug-In . SVG Version: 6.00 Build 0)  -->
<svg version="1.1" xmlns="http://www.w3.org/2000/svg" xmlns:xlink="http://www.w3.org/1999/xlink" x="0px" y="0px"
	 viewBox="0 0 1858.8 1416.7" style="enable-background:new 0 0 1858.8 1416.7;" xml:space="preserve">
<style type="text/css">
	.st0{fill:#F0F2F2;}
	.st1{fill:url(#SVGID_1_);}
	.st2{fill:url(#SVGID_2_);}
	.st3{fill:#333333;}
	.st4{opacity:0.1;fill:url(#SVGID_3_);enable-background:new    ;}
	.st5{fill:#1A1A1A;}
	.st6{fill:#FFFFFF;}
	.st7{opacity:0.904;fill:url(#SVGID_4_);enable-background:new    ;}
	.st8{opacity:0.1;fill:url(#SVGID_5_);enable-background:new    ;}
</style>
<g id="Layer_5">
	<rect class="st0" width="1858.8" height="1416.7"/>
</g>
<g id="Layer_1">
</g>
<g id="Layer_1_copy">
</g>
<g id="Layer_2">
	<g transform="translate(50.747 -79.364)">
		<g transform="translate(4150.4 633.85)">
			
				<linearGradient id="SVGID_1_" gradientUnits="userSpaceOnUse" x1="-2510.3345" y1="-916.5223" x2="-2510.3345" y2="-1723.4723" gradientTransform="matrix(0.27 0 0 -0.27 -2457.075 129.0867)">
				<stop  offset="9.255550e-02" style="stop-color:#707070"/>
				<stop  offset="0.1393" style="stop-color:#787878"/>
				<stop  offset="0.3236" style="stop-color:#939393"/>
				<stop  offset="0.4883" style="stop-color:#A3A3A3"/>
				<stop  offset="0.6159" style="stop-color:#A8A8A8"/>
				<stop  offset="0.7073" style="stop-color:#A4A4A4"/>
				<stop  offset="0.8041" style="stop-color:#979797"/>
				<stop  offset="0.9029" style="stop-color:#828282"/>
				<stop  offset="1" style="stop-color:#666666"/>
			</linearGradient>
			<path image-rendering="auto" color-rendering="auto" class="st1" d="M-3266.2,376.5c-5.7,98.5-13.6,181.8-81.5,217.8h425.9
				c-67.9-36-75.8-119.4-81.5-217.8H-3266.2z"/>
			
				<linearGradient id="SVGID_2_" gradientUnits="userSpaceOnUse" x1="-1760.3346" y1="-1223.5223" x2="-1760.3346" y2="-1278.6354" gradientTransform="matrix(0.27 0 0 -0.27 -2659.5386 264.0625)">
				<stop  offset="0" style="stop-color:#B3B3B3"/>
				<stop  offset="1" style="stop-color:#B3B3B3"/>
			</linearGradient>
			<rect x="-3347.7" y="594.4" image-rendering="auto" color-rendering="auto" class="st2" width="425.9" height="14.9"/>
		</g>
		<path image-rendering="auto" color-rendering="auto" class="st3" d="M417.6,158.1h1196.2c8.9,0,16.2,7.3,16.2,16.2v837.1
			c0,8.9-7.3,16.2-16.2,16.2H417.6c-8.9,0-16.2-7.3-16.2-16.2V174.3C401.4,165.4,408.6,158.1,417.6,158.1z"/>
		<path image-rendering="auto" color-rendering="auto" class="st3" d="M417.6,163.5h1196.2c8.9,0,16.2,7.3,16.2,16.2v837.1
			c0,8.9-7.3,16.2-16.2,16.2H417.6c-8.9,0-16.2-7.3-16.2-16.2V179.7C401.4,170.8,408.6,163.5,417.6,163.5z"/>
		
			<linearGradient id="SVGID_3_" gradientUnits="userSpaceOnUse" x1="6540.4653" y1="293.7477" x2="6540.4653" y2="2720.4277" gradientTransform="matrix(0.27 0 0 -0.27 -749.9524 897.9125)">
			<stop  offset="0" style="stop-color:#000000;stop-opacity:0"/>
			<stop  offset="1" style="stop-color:#FFFFFF;stop-opacity:0.661"/>
		</linearGradient>
		<path image-rendering="auto" color-rendering="auto" class="st4" d="M417.6,163.5h1196.2c8.9,0,16.2,7.3,16.2,16.2v837.1
			c0,8.9-7.3,16.2-16.2,16.2H417.6c-8.9,0-16.2-7.3-16.2-16.2V179.7C401.4,170.8,408.6,163.5,417.6,163.5z"/>
		<path image-rendering="auto" color-rendering="auto" class="st5" d="M417.6,163.5h598.1l614.3,710.1v143.2c0,9-7.2,16.2-16.2,16.2
			H417.6c-9,0-16.2-7.2-16.2-16.2V179.7C401.4,170.8,408.6,163.5,417.6,163.5z"/>
		<path image-rendering="auto" color-rendering="auto" d="M443.6,196.5h1143.9c7.8,0,14.2,6.4,14.2,14.2v733.2
			c0,7.8-6.4,14.2-14.2,14.2H443.6c-7.8,0-14.2-6.4-14.2-14.2V210.6C429.4,202.8,435.8,196.5,443.6,196.5z"/>
		<rect x="450.7" y="217.2" image-rendering="auto" color-rendering="auto" class="st6" width="1129.6" height="720.1"/>
	</g>
</g>
<g id="Layer_7">
	
		<image style="overflow:visible;" width="1430" height="1356" xlink:href="3F4250F3237776E9.png"  transform="matrix(0.525 0 0 0.525 717.2239 139.3063)">
	</image>
</g>
<g id="Layer_3">
	<g transform="matrix(.78053 0 0 .78053 203.16 1787.5)">
		<path image-rendering="auto" color-rendering="auto" class="st3" d="M833.2-1306v627.6c0,8.9-7.3,16.2-16.2,16.2H-20.1
			c-8.9,0-16.2-7.3-16.2-16.2V-1306c0-8.9,7.3-16.2,16.2-16.2H817C826-1322.2,833.2-1314.9,833.2-1306z"/>
		<path image-rendering="auto" color-rendering="auto" class="st3" d="M827.8-1306v627.6c0,8.9-7.3,16.2-16.2,16.2H-25.5
			c-8.9,0-16.2-7.3-16.2-16.2V-1306c0-8.9,7.3-16.2,16.2-16.2h837.1C820.6-1322.2,827.8-1314.9,827.8-1306z"/>
		
			<linearGradient id="SVGID_4_" gradientUnits="userSpaceOnUse" x1="8387.9277" y1="-2162.2385" x2="8387.9277" y2="264.4416" gradientTransform="matrix(0 0.1132 0.2107 0 628.3172 -1941.6189)">
			<stop  offset="0" style="stop-color:#000000;stop-opacity:0"/>
			<stop  offset="1" style="stop-color:#FFFFFF;stop-opacity:0.661"/>
		</linearGradient>
		<path image-rendering="auto" color-rendering="auto" class="st7" d="M827.8-1306v627.6c0,8.9-7.3,16.2-16.2,16.2H-25.5
			c-8.9,0-16.2-7.3-16.2-16.2V-1306c0-8.9,7.3-16.2,16.2-16.2h837.1C820.6-1322.2,827.8-1314.9,827.8-1306z"/>
		<path image-rendering="auto" color-rendering="auto" class="st5" d="M827.8-1306v314.5L117.7-667.8H-25.5c-9,0-16.2-7.2-16.2-16.2
			v-622c0-9,7.2-16.2,16.2-16.2h837.1C820.6-1322.2,827.8-1315,827.8-1306L827.8-1306z"/>
		<g transform="matrix(.47265 0 0 1.006 2269 57.476)">
			<rect x="-4760.4" y="-1326.9" image-rendering="auto" color-rendering="auto" width="1605.8" height="565.1"/>
			<rect x="-4723.7" y="-1309.7" image-rendering="auto" color-rendering="auto" class="st6" width="1532.6" height="530.7"/>
		</g>
	</g>
</g>
<g id="Layer_8">
	
		<image style="overflow:visible;" width="1511" height="1026" xlink:href="3F4250F3237776EB.png"  transform="matrix(0.3695 0 0 0.3695 233.1107 822.9619)">
	</image>
</g>
<g id="Layer_4">
	<g transform="translate(40)">
		<g transform="matrix(.39729 0 0 .39729 3306.7 2687.5)">
			<path image-rendering="auto" color-rendering="auto" class="st3" d="M-6572.1-4323.9h532.1c9.4,0,17,7.6,17,17v877.6
				c0,9.4-7.6,17-17,17h-532.1c-9.4,0-17-7.6-17-17v-877.6C-6589.1-4316.3-6581.5-4323.9-6572.1-4323.9z"/>
			<path image-rendering="auto" color-rendering="auto" class="st3" d="M-6572.2-4318.5h532.3c9.3,0,16.9,7.6,16.9,16.9v872.4
				c0,9.3-7.6,16.9-16.9,16.9h-532.3c-9.3,0-16.9-7.6-16.9-16.9v-872.4C-6589.1-4311-6581.5-4318.5-6572.2-4318.5z"/>
			
				<linearGradient id="SVGID_5_" gradientUnits="userSpaceOnUse" x1="11632.9902" y1="-5423.2788" x2="11632.9902" y2="-2996.5984" gradientTransform="matrix(4.941929e-02 0 0 -0.1118 -6880.9419 -4241.9727)">
				<stop  offset="0" style="stop-color:#000000;stop-opacity:0"/>
				<stop  offset="1" style="stop-color:#FFFFFF;stop-opacity:0.661"/>
			</linearGradient>
			<path image-rendering="auto" color-rendering="auto" class="st8" d="M-6572.2-4318.5h532.3c9.3,0,16.9,7.6,16.9,16.9v872.4
				c0,9.3-7.6,16.9-16.9,16.9h-532.3c-9.3,0-16.9-7.6-16.9-16.9v-872.4C-6589.1-4311-6581.5-4318.5-6572.2-4318.5z"/>
			<path image-rendering="auto" color-rendering="auto" class="st5" d="M-6572.9-4318.5h246.5l303.4,710.1v179.9
				c0,9-7.2,16.2-16.2,16.2h-533.7c-9,0-16.2-7.2-16.2-16.2v-873.8C-6589.1-4311.3-6581.9-4318.5-6572.9-4318.5L-6572.9-4318.5z"/>
			<g transform="matrix(.39745 0 0 .9553 2575.6 115.29)">
				<rect x="-22952.1" y="-4554.1" image-rendering="auto" color-rendering="auto" width="1215.1" height="755.6"/>
				<rect x="-22909.3" y="-4536.4" image-rendering="auto" color-rendering="auto" class="st6" width="1129.6" height="720.1"/>
			</g>
		</g>
	</g>
</g>
<g id="Layer_9">
	
		<image style="overflow:visible;" width="1330" height="1334" xlink:href="3F4250F3237776EE.png"  transform="matrix(0.1328 0 0 0.1328 752.8205 1020.422)">
	</image>
</g>
</svg>
