<svg id="Layer_1" data-name="Layer 1" xmlns="http://www.w3.org/2000/svg" viewBox="0 0 300 150"><rect x="0.34156" width="300" height="150" style="fill:#00719f"/><path d="M24.97224,70.00409v-34.79h4.41015V66.08417H48.78571v3.91992Z" style="fill:#fff"/><path d="M52.90193,39.62421V34.23407h4.3125v5.39014Zm0,30.37988V44.426h4.3125V70.00409Z" style="fill:#fff"/><path d="M86.36872,70.00409H82.0572V55.82245q0-4.03125-1.25-5.90088a4.25579,4.25579,0,0,0-3.79688-1.86963,7.7517,7.7517,0,0,0-3.5039.87207,10.54772,10.54772,0,0,0-3.08692,2.34815A8.78454,8.78454,0,0,0,68.484,54.68524V70.00409h-4.3125V44.57294h3.9209v5.49267a11.04022,11.04022,0,0,1,2.6455-3.1123,12.31027,12.31027,0,0,1,3.67481-2.04248,12.81253,12.81253,0,0,1,4.3125-.73,7.751,7.751,0,0,1,3.69922.80273,5.995,5.995,0,0,1,2.35254,2.23682,10.28244,10.28244,0,0,1,1.2246,3.38037,22.79963,22.79963,0,0,1,.36719,4.23Z" style="fill:#fff"/><path d="M111.11384,70.00409,102.2447,57.60565l-4.85059,4.54v7.8584h-4.3125v-35.77h4.3125V57.65448l13.23047-13.08154h4.6543L105.08747,55.1164l10.68164,14.88769Z" style="fill:#fff"/><path d="M129.48884,70.49433a12.94276,12.94276,0,0,1-5.26758-1.0459,12.66449,12.66449,0,0,1-4.11621-2.86963,13.09051,13.09051,0,0,1-2.69434-4.207,13.4523,13.4523,0,0,1-.956-5.0586,13.182,13.182,0,0,1,1.666-6.56591,12.79834,12.79834,0,0,1,11.417-6.56641,12.27817,12.27817,0,0,1,6.73828,1.82568,12.80477,12.80477,0,0,1,4.459,4.76953,13.16042,13.16042,0,0,1,1.5918,6.35254q0,.48707-.02441.94873a5.34916,5.34916,0,0,1-.07325.70557H121.01228a9.5181,9.5181,0,0,0,1.39648,4.38428,8.73973,8.73973,0,0,0,3.11133,3.00342A8.16841,8.16841,0,0,0,129.6363,67.26a8.88686,8.88686,0,0,0,4.43457-1.17578,6.29088,6.29088,0,0,0,2.86621-3.08691l3.72363,1.0288a9.85858,9.85858,0,0,1-2.4746,3.332,12.0656,12.0656,0,0,1-3.8711,2.30322A13.694,13.694,0,0,1,129.48884,70.49433Zm-8.624-14.7002h17.44433a9.23122,9.23122,0,0,0-1.4209-4.35889,8.81571,8.81571,0,0,0-3.13672-2.95459,8.50332,8.50332,0,0,0-4.21386-1.06543,8.40972,8.40972,0,0,0-4.165,1.06543,8.61019,8.61019,0,0,0-3.11133,2.95459A9.36359,9.36359,0,0,0,120.86482,55.79413Z" style="fill:#fff"/><path d="M145.46247,57.362a14.52687,14.52687,0,0,1,1.49414-6.59033,12.42669,12.42669,0,0,1,4.11621-4.79053,10.34879,10.34879,0,0,1,6.002-1.80029,9.82621,9.82621,0,0,1,5.53711,1.61719,12.14488,12.14488,0,0,1,3.82226,3.91992V34.23407h4.31153V65.10419a1.73317,1.73317,0,0,0,.31835,1.15137,1.46441,1.46441,0,0,0,1.05372.4165v3.332a12.96079,12.96079,0,0,1-1.91114.1958,3.1846,3.1846,0,0,1-2.22949-.88183,2.62735,2.62735,0,0,1-.95508-1.96V65.20233a11.01217,11.01217,0,0,1-4.06738,3.87061,10.724,10.724,0,0,1-5.292,1.42139,11.34117,11.34117,0,0,1-4.875-1.0459,11.84026,11.84026,0,0,1-3.8711-2.89405,13.76788,13.76788,0,0,1-3.4541-9.19238Zm20.97168,3.73389V53.822a8.06076,8.06076,0,0,0-1.91113-2.98291,10.8497,10.8497,0,0,0-2.96484-2.13379,7.43327,7.43327,0,0,0-6.7129,0,8.435,8.435,0,0,0-2.6455,2.13379,9.67959,9.67959,0,0,0-1.69043,3.03125,10.72348,10.72348,0,0,0-.58789,3.54,9.7841,9.7841,0,0,0,.66113,3.58838,9.5,9.5,0,0,0,1.8623,3.00732,8.58331,8.58331,0,0,0,2.793,2.03663,8.20019,8.20019,0,0,0,3.4541.72753,7.33565,7.33565,0,0,0,2.42579-.43652,9.98007,9.98007,0,0,0,2.376-1.21191,8.15916,8.15916,0,0,0,1.91114-1.81934A5.5645,5.5645,0,0,0,166.43415,61.09589Z" style="fill:#fff"/><path d="M178.63532,70.00409v-34.79h4.41016v34.79Z" style="fill:#fff"/><path d="M212.88532,70.00409H208.5738V55.82245q0-4.03125-1.25-5.90088a4.25578,4.25578,0,0,0-3.79687-1.86963,7.75171,7.75171,0,0,0-3.50391.87207,10.54755,10.54755,0,0,0-3.08691,2.34815,8.78444,8.78444,0,0,0-1.93555,3.41308V70.00409h-4.3125V44.57294h3.9209v5.49267a11.04022,11.04022,0,0,1,2.6455-3.1123,12.31027,12.31027,0,0,1,3.67481-2.04248,12.81253,12.81253,0,0,1,4.3125-.73,7.751,7.751,0,0,1,3.69922.80273,5.995,5.995,0,0,1,2.35254,2.23682,10.28267,10.28267,0,0,1,1.22461,3.38037,22.80052,22.80052,0,0,1,.36718,4.23Z" style="fill:#fff"/><path d="M24.97224,115.0036v-34.79H47.95368v3.91993H29.38239V95.74677H45.01325v3.6748H29.38239v15.582Z" style="fill:#fff"/><path d="M52.85212,84.62372V79.23407h4.3125v5.38965Zm0,30.37988V89.42548h4.3125V115.0036Z" style="fill:#fff"/><path d="M64.22028,79.23407h4.31153v29.28809q0,2.1167.58789,2.6084a2.14183,2.14183,0,0,0,1.42187.49218,8.4602,8.4602,0,0,0,1.96-.2207,12.22224,12.22224,0,0,0,1.56739-.46582l.68652,3.52832a14.08482,14.08482,0,0,1-2.54785.73535,13.50072,13.50072,0,0,1-2.59766.294,4.97227,4.97227,0,0,1-5.38965-5.41211Z" style="fill:#fff"/><path d="M91.36579,113.87665q-.53905.24609-1.46972.63672a14.0178,14.0178,0,0,1-2.15625.68652,11.14077,11.14077,0,0,1-2.59668.294,7.31351,7.31351,0,0,1-2.89161-.56348,4.61706,4.61706,0,0,1-2.10644-1.76465,5.39271,5.39271,0,0,1-.78418-3.01269V92.9538H75.88142V89.57294h3.47949V81.04657h4.31152v8.52637h5.7334V92.9538h-5.7334v15.876a2.69841,2.69841,0,0,0,.93164,2.03321,3.05347,3.05347,0,0,0,1.96.66211,6.1547,6.1547,0,0,0,2.35157-.44141,14.69819,14.69819,0,0,0,1.4209-.63672Z" style="fill:#fff"/><path d="M106.359,115.49384a12.95064,12.95064,0,0,1-5.26758-1.0459,12.67326,12.67326,0,0,1-4.11621-2.87012,13.08521,13.08521,0,0,1-2.69434-4.207,13.44675,13.44675,0,0,1-.956-5.05859,13.18155,13.18155,0,0,1,1.666-6.56543,12.79589,12.79589,0,0,1,11.417-6.56641,12.28613,12.28613,0,0,1,6.73829,1.8252,12.80388,12.80388,0,0,1,4.459,4.7705,13.15527,13.15527,0,0,1,1.5918,6.35157q0,.48779-.02442.94922a5.37648,5.37648,0,0,1-.07324.70605H97.88239a9.51626,9.51626,0,0,0,1.39649,4.38379,8.74913,8.74913,0,0,0,3.11133,3.00391,8.16789,8.16789,0,0,0,4.11621,1.08886,8.88179,8.88179,0,0,0,4.43457-1.17578,6.29294,6.29294,0,0,0,2.86621-3.08691l3.72363,1.02929a9.85494,9.85494,0,0,1-2.47461,3.33106,12.06637,12.06637,0,0,1-3.87109,2.30371A13.694,13.694,0,0,1,106.359,115.49384Zm-8.624-14.7002h17.44434a9.224,9.224,0,0,0-1.4209-4.3584,8.817,8.817,0,0,0-3.13672-2.95507,8.50844,8.50844,0,0,0-4.21387-1.06543,8.41479,8.41479,0,0,0-4.165,1.06543,8.61137,8.61137,0,0,0-3.11133,2.95507A9.35631,9.35631,0,0,0,97.73493,100.79364Z" style="fill:#fff"/><path d="M137.522,93.19892a10.61514,10.61514,0,0,0-5.708,1.6416,8.61542,8.61542,0,0,0-3.5039,4.38476V115.0036h-4.3125V89.57294h4.01855v5.78125a11.95171,11.95171,0,0,1,3.50391-4.28711,8.73025,8.73025,0,0,1,4.581-1.83789h.833a3.07862,3.07862,0,0,1,.58789.0498Z" style="fill:#fff"/><path d="M271.06981,13.68009a15.39684,15.39684,0,1,1-15.40415,15.04069A15.39106,15.39106,0,0,1,271.06981,13.68009Zm-.3574,4.22544H278.086a10.58868,10.58868,0,0,0-1.29319-.72174,12.72918,12.72918,0,0,0-6.09212-1.28326c-.058-.0027-.116-.00875-.17386-.0076a12.63853,12.63853,0,0,0-4.09151.80882c-.04086.01487-.127.01363-.11371.0759a.27746.27746,0,0,0,.15122.19985.44949.44949,0,0,0,.129.01414c.16987.01911.33968.03875.52063.05947a6.54527,6.54527,0,0,0-.40507.89763,1.03663,1.03663,0,0,0-1.258.02471c.0378-.1677.06039-.27191.085-.37566.02171-.09173.05841-.18177-.05939-.24405-.11316-.05982-.1868-.1713-.35934-.08324a14.40082,14.40082,0,0,0-2.40361,1.56593.26814.26814,0,0,0-.11794.34475c.014.03655.04757.07771-.01168.138-.25188-.203-.4183-.03165-.58719.151a6.45567,6.45567,0,0,1-.52649.53863c-.24039.2055-.45694.4028-.29243.75742l-.02384.04076c-.31-.25026-.42517.0282-.57418.22039a13.087,13.087,0,0,0-1.2916,2.05594,5.16445,5.16445,0,0,0-.42478,1.01734l.32978-.45246c.179.13831.19363.39962.41684.4508.18895.04332.38609.051.63271.08083a2.11693,2.11693,0,0,0-.46392.34888c-.11119.15337.08424.33546.03714.54757a1.02648,1.02648,0,0,0-1.23189-.00749l-.01668-.20389a1.43456,1.43456,0,0,0-.14791.346c-.118.37858-.11746.37859.28366.4216a.69677.69677,0,0,1,.0901.02771,2.23861,2.23861,0,0,0-.44828.33069c-.12526.1541.07761.33445.03738.51267-.27474-.05913-.2818-.06015-.323.22376-.06566.45257-.12385.90629-.179,1.36027a.4516.4516,0,0,0,.35925.43976,3.073,3.073,0,0,1,.55012.07722,2.19776,2.19776,0,0,0-.444.32907c-.12511.1569.07387.33569.037.52909-.13785-.04976-.273-.0933-.40372-.14733-.10909-.04507-.14661-.01718-.13574.09922a2.64854,2.64854,0,0,1,.02654.45493c-.0166.20452.05937.25121.25668.25094q6.17259-.00858,12.34521-.00568c.07656,0,.16077.02884.22921-.03428q.796.00078,1.59208.0015,5.845.00018,11.69.00434c.1835.00027.24595-.03577.24965-.2318.00974-.51566.0131-1.03051.00008-1.5463-.00516-.2044-.05577-.26443-.2685-.2641q-6.63015.01032-13.26034.00527l0-2.02829h13.18914a14.68136,14.68136,0,0,0-.56989-1.82433.27775.27775,0,0,0-.31618-.20906q-6.15152.00727-12.303.00386l-.00007-2.0209h11.47341a13.37941,13.37941,0,0,0-1.52766-1.95694c-.07993-.08454-.17287-.05985-.2629-.05988q-4.8414-.002-9.6828-.00109Zm.34582,14.2165H266.652q-4.1008,0-8.2016-.00453c-.20586-.00051-.23824.04018-.18316.23805.14986.53833.32025,1.06846.51717,1.59147a.27775.27775,0,0,0,.31114.21649q3.90446-.00983,7.809-.00452,8.038,0,16.076.00414c.19234.00018.29391-.0401.36435-.23709.18315-.51219.36264-1.02463.49692-1.552.064-.25145.06244-.252-.19764-.252Q277.35121,32.122,271.05823,32.122Zm-11.07439,4.06975a.07485.07485,0,0,0,.01423.08665,12.9672,12.9672,0,0,0,1.45115,1.84721.31.31,0,0,0,.25292.09237q9.35521-.002,18.71042.00126a.3542.3542,0,0,0,.28461-.12221c.30135-.32524.58958-.66145.85686-1.015a7.82587,7.82587,0,0,0,.61156-.89027Zm4.0651,4.05739a13.152,13.152,0,0,0,13.99488,0Z" style="fill:#fdfdfd"/><path d="M270.71241,26.02115l0,2.02829-.003,2.03109c-.06844.06312-.15265.03426-.22921.03428q-6.1726.00231-12.34521.00568c-.19731.00027-.27328-.04642-.25668-.25094a2.64854,2.64854,0,0,0-.02654-.45493c-.01087-.1164.02665-.14429.13574-.09922.13077.054.26587.09757.40372.14733.03684-.1934-.16214-.37219-.037-.52909a2.19776,2.19776,0,0,1,.444-.32907,3.073,3.073,0,0,0-.55012-.07722.4516.4516,0,0,1-.35925-.43976c.05517-.454.11336-.9077.179-1.36027.0412-.28391.04826-.28289.323-.22376.04023-.17822-.16264-.35857-.03738-.51267a2.23861,2.23861,0,0,1,.44828-.33069.69677.69677,0,0,0-.0901-.02771c-.40112-.043-.40166-.043-.28366-.4216a1.43456,1.43456,0,0,1,.14791-.346l.01668.20389a1.02648,1.02648,0,0,1,1.23189.00749c.0471-.21211-.14833-.3942-.03714-.54757a2.11693,2.11693,0,0,1,.46392-.34888c-.24662-.02986-.44376-.03751-.63271-.08083-.22321-.05118-.23782-.31249-.41684-.4508l-.32978.45246a5.16445,5.16445,0,0,1,.42478-1.01734,13.087,13.087,0,0,1,1.2916-2.05594c.149-.19219.26418-.47065.57418-.22039l.02384-.04076c-.16451-.35462.052-.55192.29243-.75742a6.45567,6.45567,0,0,0,.52649-.53863c.16889-.18264.33531-.354.58719-.151.05925-.06026.02569-.10142.01168-.138a.26814.26814,0,0,1,.11794-.34475,14.40082,14.40082,0,0,1,2.40361-1.56593c.17254-.08806.24618.02342.35934.08324.1178.06228.0811.15232.05939.24405-.02456.10375-.04715.208-.085.37566a1.03663,1.03663,0,0,1,1.258-.02471,6.54527,6.54527,0,0,1,.40507-.89763c-.18095-.02072-.35076-.04036-.52063-.05947a.44949.44949,0,0,1-.129-.01414.27746.27746,0,0,1-.15122-.19985c-.01328-.06227.07285-.061.11371-.0759a12.63853,12.63853,0,0,1,4.09151-.80882c.05788-.00115.1159.0049.17386.0076l.01173,2.005,0,2.04728,0,2.01791.00007,2.0209Zm-2.888-3.24971a2.45074,2.45074,0,0,1,.49183.36723c.11707.152-.09154.33329-.02869.54548a1.02633,1.02633,0,0,1,1.23065-.00328c.02627-.21386-.15217-.38934-.04674-.53681a1.74627,1.74627,0,0,1,.41256-.31313c.00694-.0051.00442-.02306.01038-.061-.41477-.0022-.83039-.01888-.99459-.55079C268.72347,22.74077,268.31006,22.77515,267.82442,22.77144Zm-3.87608,6.72086.02241-.05807a2.169,2.169,0,0,0-.06947-.29207.20841.20841,0,0,1,.1168-.29628,4.0912,4.0912,0,0,0,.36451-.25652,2.88215,2.88215,0,0,0-.33937-.03618.556.556,0,0,1-.58972-.33876c-.081-.18557-.17313-.15482-.24611.00463a.55229.55229,0,0,1-.57108.33337.716.716,0,0,0-.35735.07267c.4132.17089.651.39508.39485.853A1.08857,1.08857,0,0,1,263.94834,29.4923Zm-4.0928-5.8111a2.52647,2.52647,0,0,1,.69368-.22184,2.3062,2.3062,0,0,1,.6492.20612,3.09976,3.09976,0,0,0-.07648-.3114.23228.23228,0,0,1,.12366-.31856,1.04263,1.04263,0,0,0,.30874-.23416.59384.59384,0,0,0-.28742-.05068.5624.5624,0,0,1-.59312-.33387c-.07524-.16913-.16687-.17943-.24748-.00319a.54865.54865,0,0,1-.56837.33638.74257.74257,0,0,0-.35468.06641C259.87345,22.99763,260.16718,23.19522,259.85554,23.6812Zm6.9127.03461a2.47659,2.47659,0,0,0-.07492-.33552.2392.2392,0,0,1,.12794-.35183,3.41741,3.41741,0,0,0,.36181-.2551c-.48483-.00109-.90178-.02879-1.04261-.53088-.18983.14864-.21519.39681-.42388.46613-.19392.0644-.41111.01636-.62691.097a1.93975,1.93975,0,0,1,.44656.33726c.10926.15027-.08283.3338-.04226.546A1.02965,1.02965,0,0,1,266.76824,23.71581Zm-6.20212,4.3138c-.18964.50545-.59446.55423-1.04835.57045a.61031.61031,0,0,1,.38542.90575,1.13425,1.13425,0,0,1,1.30589-.03468c-.28438-.4749.02661-.66873.42087-.87984C261.16578,28.5371,260.71593,28.6,260.56612,28.02961Zm5.514.016c-.13818.50187-.55379.52989-1.036.52946a2.22674,2.22674,0,0,1,.49131.36811c.10848.15085-.07992.33508-.04723.52045a2.06619,2.06619,0,0,1,.61766-.20456,2.12393,2.12393,0,0,1,.62566.1972c.03875-.19122-.15226-.36492-.04351-.512a1.8169,1.8169,0,0,1,.41355-.31168c.00626-.00458.00215-.02335.00368-.04924a3.995,3.995,0,0,1-.59956-.07605C266.29659,28.44971,266.27733,28.18767,266.08009,28.04564Zm-.65168-2.947a2.02959,2.02959,0,0,0-.06533-.28851.28358.28358,0,0,1,.151-.41847,2.36029,2.36029,0,0,0,.30328-.22562c-.15182-.01219-.23843-.02544-.325-.02491a.561.561,0,0,1-.59229-.33156c-.0865-.20035-.18507-.16168-.26033.00843a.52756.52756,0,0,1-.5319.32068.58236.58236,0,0,0-.34859.06239,1.66667,1.66667,0,0,1,.43814.33094c.0974.14749-.07117.33421-.05217.54942A1.0443,1.0443,0,0,1,265.42841,25.09865Zm-2.74823-1.4259a1.12652,1.12652,0,0,1,1.3066.0296,2.439,2.439,0,0,0-.08409-.35239c-.06515-.15373-.00625-.23814.12416-.31283.11065-.06337.21075-.14517.34052-.23638a.81816.81816,0,0,0-.16153-.03654.74132.74132,0,0,1-.81-.43241c-.05194-.12255-.11725-.04259-.14623.02454a.65654.65654,0,0,1-.71326.40051.27461.27461,0,0,0-.22332.06872C262.65465,22.99852,262.95039,23.19808,262.68018,23.67275Zm-.065,1.41148c.03008-.21518-.1517-.40024-.049-.55085a1.97273,1.97273,0,0,1,.469-.35624,5.79814,5.79814,0,0,1-.64183-.07946c-.21976-.05261-.23188-.32841-.44111-.46383-.13423.5138-.55337.52062-.97069.54553a3.093,3.093,0,0,1,.43109.34508c.11539.15279-.08051.3323-.03876.54333A1.02416,1.02416,0,0,1,262.61516,25.08423Zm3.87323-.92134a2.21581,2.21581,0,0,1,.48682.36437c.11047.15257-.07711.33629-.04232.55417a1.03186,1.03186,0,0,1,1.23185-.02171.48526.48526,0,0,0-.03853-.32018c-.06176-.15672-.00381-.24048.12587-.31584.10848-.063.2074-.14253.35781-.24782a5.44175,5.44175,0,0,1-.65915-.07915c-.2179-.05422-.22542-.33466-.43868-.46245C267.38764,24.15813,266.95664,24.14636,266.48839,24.16289Zm-2.54923,2.38125.02639-.06441a1.659,1.659,0,0,0-.0525-.22815.25818.25818,0,0,1,.13291-.36912.81108.81108,0,0,0,.3065-.24218c-.10732-.0097-.19371-.02243-.28035-.02443-.26233-.00607-.49672-.04992-.6136-.33321-.07746-.18776-.17046-.178-.25812.00334a.48823.48823,0,0,1-.50878.31792,2.25579,2.25579,0,0,0-.40586.049,1.98457,1.98457,0,0,1,.4682.34669c.10733.15-.07608.33535-.04208.54625A1.022,1.022,0,0,1,263.93916,26.54414Zm1.44282-4.33022.02507-.06035a2.37641,2.37641,0,0,0-.0665-.29235.20192.20192,0,0,1,.11015-.28045c.12131-.0685.23045-.15856.402-.27938-.4969.00614-.907-.02721-1.08872-.549-.15407.50465-.53569.54122-.93051.55552-.023.00083-.05991-.01419-.07.04065a1.89368,1.89368,0,0,1,.42549.31886c.11518.15034-.07211.33345-.02946.54459A1.01877,1.01877,0,0,1,265.382,22.21392Zm-.0032,5.71824.02824-.06035a1.52924,1.52924,0,0,0-.05749-.24829.24712.24712,0,0,1,.13768-.34992,4.07632,4.07632,0,0,0,.33407-.23367c-.38095-.06733-.78078.02923-.94947-.40814-.06632-.17195-.14643-.11267-.20706.00934a.55364.55364,0,0,1-.5817.35467,1.83436,1.83436,0,0,0-.3531.04494,2.33292,2.33292,0,0,1,.4544.33813c.12475.15351-.0674.33349-.02878.55055A1.019,1.019,0,0,1,265.37878,27.93216Zm4.1609,1.53751a1.54681,1.54681,0,0,0-.05778-.26433.26416.26416,0,0,1,.13967-.38831,3.24713,3.24713,0,0,0,.32583-.22786,4.5571,4.5571,0,0,1-.66128-.08229c-.20755-.05813-.22847-.3184-.42478-.46338-.13141.51416-.55939.52095-1.02857.53723a2.27278,2.27278,0,0,1,.48618.36273c.111.14916-.08832.33237-.04258.51564a2.09692,2.09692,0,0,1,.62247-.20029A2.212,2.212,0,0,1,269.53968,29.46967Zm-1.34331-7.22128c-.0154-.1256-.01732-.16823-.0262-.20937-.07683-.35584-.07606-.35417.21628-.56441.06067-.04363.145-.06546.17939-.17371-.4366.01427-.83706-.03862-1.021-.55051-.15368.52063-.55034.54237-.95056.55838a.41735.41735,0,0,0-.07442.022,2.23657,2.23657,0,0,1,.44745.3319c.12564.15487-.06977.3352-.03175.55181A1.01944,1.01944,0,0,1,268.19637,22.24839Zm-7.63763,2.832c-.17971.51281-.58727.56491-1.07679.54975a1.64135,1.64135,0,0,0,.17933.135c.26448.132.429.29883.276.62267-.0561.11875.02574.14367.11834.089a.96809.96809,0,0,1,1.02229.0133.45351.45351,0,0,0,.11438.0232,1.58071,1.58071,0,0,0-.05528-.24794.2664.2664,0,0,1,.13814-.38877,3.378,3.378,0,0,0,.3456-.242C261.14334,25.6185,260.721,25.621,260.55874,25.08038Zm2.14962-4.24285a1.06162,1.06162,0,0,1,1.2733-.00174,2.46228,2.46228,0,0,0-.07372-.31971.24533.24533,0,0,1,.13626-.34859.85631.85631,0,0,0,.31727-.25978c-.4577.0206-.85609-.03142-1.0409-.544-.1587.54476-.58813.54343-1.05787.55635a2.6108,2.6108,0,0,1,.47759.349C262.87278,20.4283,262.67813,20.60378,262.70836,20.83753Zm.98966-2.38922c.38679.20132.69367.40179.42374.88381a1.16128,1.16128,0,0,1,1.30219.01418,2.61211,2.61211,0,0,0-.07551-.31938c-.06607-.16629-.00547-.26385.14035-.349a.911.911,0,0,0,.30622-.2423c-.39152-.03487-.78891-.00031-.96318-.45063-.05226-.135-.11472-.0276-.14.02875a.65069.65069,0,0,1-.69248.401A2.30516,2.30516,0,0,0,263.698,18.44831Zm3.23559,9.48292a1.05012,1.05012,0,0,1,1.16186-.051c.10905.06491.09994-.05364.075-.103-.16223-.32083.00813-.48861.27028-.6236.04642-.02391.10724-.04624.11759-.13448-.42641.00715-.833-.03267-1.01091-.55248-.16237.54168-.58817.54765-1.05954.55853a2.42961,2.42961,0,0,1,.48117.35582C267.0907,27.53446,266.89916,27.71576,266.93361,27.93123Zm2.96916-10.84442c-.42493-.04217-.84081-.0743-.98-.58179-.1912.15736-.21368.41619-.42434.4738a4.407,4.407,0,0,1-.6583.07611,2.67987,2.67987,0,0,1,.46494.33833c.13583.15621-.07542.33342-.01652.55069a1.04121,1.04121,0,0,1,1.23552.01261c.01109-.22536-.15671-.40579-.05189-.54976A1.76026,1.76026,0,0,1,269.90277,17.08681ZM263.00839,21.309c-.41932-.01823-.85362-.00627-.98048-.53756a.6407.6407,0,0,0-.21535.2597.421.421,0,0,1-.42072.23993,3.04934,3.04934,0,0,0-.4363.05258.74374.74374,0,0,0,.09574.0767c.30762.1525.49491.35588.31495.72171-.00621.01262.01063.03657.02819.09034a1.0105,1.0105,0,0,1,1.21907.00178c.02133-.21308-.14464-.39288-.04946-.53572a1.57351,1.57351,0,0,1,.41209-.31144C262.98588,21.35992,262.98931,21.34412,263.00839,21.309Zm2.45373,5.2245a1.09973,1.09973,0,0,1,1.26422.00846c.039-.219-.14479-.3958-.03873-.54022a1.77369,1.77369,0,0,1,.41509-.31019c.00911-.0066.00983-.02478.02449-.06536-.441.02725-.83686-.03941-1.0253-.54482-.15353.549-.58907.53807-1.01075.57719C265.41906,25.864,265.74415,26.04825,265.46212,26.53349Zm4.44531-.85642c-.42716-.05247-.85132-.05981-1.01906-.6124-.13984.57878-.59146.5384-1.01281.57309a6.22463,6.22463,0,0,1,.41114.91577,1.02588,1.02588,0,0,1,1.25492.00469,1.79867,1.79867,0,0,0-.06685-.3269c-.075-.1715-.00957-.2677.13835-.34942A3.27342,3.27342,0,0,0,269.90743,25.67707Zm-11.71021,1.38687a2.03623,2.03623,0,0,1,.42958.31751c.12242.15192-.0768.3333-.03047.55183a1.054,1.054,0,0,1,1.266.01629,2.006,2.006,0,0,0-.06194-.27833.28661.28661,0,0,1,.15447-.4219,2.7426,2.7426,0,0,0,.313-.2147,4.38914,4.38914,0,0,1-.65823-.07251c-.21516-.058-.23537-.32822-.43379-.47612C259.0358,26.99894,258.627,27.022,258.19722,27.06394Zm3.15322.853a1.11647,1.11647,0,0,1,1.29067.03086,1.99414,1.99414,0,0,0-.06559-.30783.25385.25385,0,0,1,.13635-.37079,3.15343,3.15343,0,0,0,.33282-.2346,4.89118,4.89118,0,0,1-.64362-.06969c-.22225-.05463-.24194-.32448-.41135-.45322-.15635.12885-.18584.38568-.39.44609a4.28558,4.28558,0,0,1-.6856.08261C261.29555,27.24733,261.61948,27.43,261.35044,27.917Zm8.19856-7.06446a1.922,1.922,0,0,0-.06832-.31333c-.082-.18306-.02036-.29211.14612-.38549a.60951.60951,0,0,0,.28844-.24809c-.45312.02575-.84628-.027-1.018-.54606-.1667.52521-.57872.55657-.99752.55379.00175.08974.0588.10829.09853.12781.28731.14114.43678.33442.273.66121-.0109.02177-.00142.05375-.00142.133A1.05262,1.05262,0,0,1,269.549,20.85252Zm-3.43413-1.48892c-.16225.54091-.59231.54045-1.07279.55384a2.3743,2.3743,0,0,1,.48914.35956c.11816.1528-.076.33558-.03522.54988a1.02527,1.02527,0,0,1,1.21925-.00606.43243.43243,0,0,0-.03056-.32914.21467.21467,0,0,1,.11054-.3024c.11562-.06555.22024-.1505.32972-.22689C266.70829,19.89789,266.28217,19.90776,266.11487,19.3636Zm1.46219-1.50031a1.73936,1.73936,0,0,0-.13882.19708.53347.53347,0,0,1-.5636.34284,1.9655,1.9655,0,0,0-.36254.04823,2.33421,2.33421,0,0,1,.45458.33287c.12816.15637-.07252.335-.02659.55207a1.06223,1.06223,0,0,1,1.26423.025,1.82563,1.82563,0,0,0-.07036-.32525c-.08352-.18086-.00257-.27631.14616-.36429a.93028.93028,0,0,0,.312-.25622C268.12478,18.44539,267.73093,18.39311,267.57706,17.86329Z" style="fill:#096493"/><path d="M271.05823,32.122q6.293,0,12.586,0c.26008,0,.26166.00052.19764.252-.13428.52739-.31377,1.03983-.49692,1.552-.07044.197-.172.23727-.36435.23709q-8.038-.00773-16.076-.00414-3.90448,0-7.809.00452a.27775.27775,0,0,1-.31114-.21649c-.19692-.523-.36731-1.05314-.51717-1.59147-.05508-.19787-.0227-.23856.18316-.23805q4.10078.01017,8.2016.00453Z" style="fill:#ce0303"/><path d="M259.98384,36.19178h22.18175a7.82587,7.82587,0,0,1-.61156.89027c-.26728.35356-.55551.68977-.85686,1.015a.3542.3542,0,0,1-.28461.12221q-9.35521-.0042-18.71042-.00126a.31.31,0,0,1-.25292-.09237,12.9672,12.9672,0,0,1-1.45115-1.84721A.07485.07485,0,0,1,259.98384,36.19178Z" style="fill:#ce0303"/><path d="M270.70943,30.08053l.003-2.03109q6.63018-.00006,13.26034-.00527c.21273-.00033.26334.0597.2685.2641.013.51579.00966,1.03064-.00008,1.5463-.0037.196-.06615.23207-.24965.2318q-5.845-.00846-11.69-.00434Q271.50548,30.082,270.70943,30.08053Z" style="fill:#ce0303"/><path d="M270.71241,26.02115l0-2.02953q6.15152,0,12.303-.00386a.27775.27775,0,0,1,.31618.20906,14.68136,14.68136,0,0,1,.56989,1.82433Z" style="fill:#ce0303"/><path d="M270.71238,21.97072l0-2.01791q4.8414,0,9.6828.00109c.09,0,.183-.02466.2629.05988a13.37941,13.37941,0,0,1,1.52766,1.95694Z" style="fill:#ce0303"/><path d="M264.04894,40.24917h13.99488A13.152,13.152,0,0,1,264.04894,40.24917Z" style="fill:#ce0303"/><path d="M270.71241,17.90553l-.01173-2.005a12.72918,12.72918,0,0,1,6.09212,1.28326,10.58868,10.58868,0,0,1,1.29319.72174Z" style="fill:#ce0303"/><path d="M267.82442,22.77144c.48564.00371.89905-.03067,1.0754-.55232.1642.53191.57982.54859.99459.55079-.006.038-.00344.05592-.01038.061a1.74627,1.74627,0,0,0-.41256.31313c-.10543.14747.073.32295.04674.53681a1.02633,1.02633,0,0,0-1.23065.00328c-.06285-.21219.14576-.39349.02869-.54548A2.45074,2.45074,0,0,0,267.82442,22.77144Z" style="fill:#fdfdfd"/><path d="M263.94834,29.4923a1.08857,1.08857,0,0,0-1.27453-.01418c.25619-.458.01835-.68214-.39485-.853a.716.716,0,0,1,.35735-.07267.55229.55229,0,0,0,.57108-.33337c.073-.15945.1651-.1902.24611-.00463a.556.556,0,0,0,.58972.33876,2.88215,2.88215,0,0,1,.33937.03618,4.0912,4.0912,0,0,1-.36451.25652.20841.20841,0,0,0-.1168.29628,2.169,2.169,0,0,1,.06947.29207Z" style="fill:#fdfdfd"/><path d="M259.85554,23.6812c.31164-.486.01791-.68357-.35227-.86479A.74257.74257,0,0,1,259.858,22.75a.54865.54865,0,0,0,.56837-.33638c.08061-.17624.17224-.16594.24748.00319a.5624.5624,0,0,0,.59312.33387.59384.59384,0,0,1,.28742.05068,1.04263,1.04263,0,0,1-.30874.23416.23228.23228,0,0,0-.12366.31856,3.09976,3.09976,0,0,1,.07648.3114,2.3062,2.3062,0,0,0-.6492-.20612A2.52647,2.52647,0,0,0,259.85554,23.6812Z" style="fill:#fdfdfd"/><path d="M266.76824,23.71581a1.02965,1.02965,0,0,0-1.27427-.027c-.04057-.21217.15152-.3957.04226-.546a1.93975,1.93975,0,0,0-.44656-.33726c.2158-.08066.433-.03262.62691-.097.20869-.06932.234-.31749.42388-.46613.14083.50209.55778.52979,1.04261.53088a3.41741,3.41741,0,0,1-.36181.2551.2392.2392,0,0,0-.12794.35183A2.47659,2.47659,0,0,1,266.76824,23.71581Z" style="fill:#fdfdfd"/><path d="M260.56612,28.02961c.14981.57036.59966.50749,1.06383.56168-.39426.21111-.70525.40494-.42087.87984a1.13425,1.13425,0,0,0-1.30589.03468.61031.61031,0,0,0-.38542-.90575C259.97166,28.58384,260.37648,28.53506,260.56612,28.02961Z" style="fill:#fdfdfd"/><path d="M266.08009,28.04564c.19724.142.2165.40407.4256.46171a3.995,3.995,0,0,0,.59956.07605c-.00153.02589.00258.04466-.00368.04924a1.8169,1.8169,0,0,0-.41355.31168c-.10875.14706.08226.32076.04351.512a2.12393,2.12393,0,0,0-.62566-.1972,2.06619,2.06619,0,0,0-.61766.20456c-.03269-.18537.15571-.3696.04723-.52045a2.22674,2.22674,0,0,0-.49131-.36811C265.5263,28.57553,265.94191,28.54751,266.08009,28.04564Z" style="fill:#fdfdfd"/><path d="M265.42841,25.09865a1.0443,1.0443,0,0,0-1.28311-.01721c-.019-.21521.14957-.40193.05217-.54942a1.66667,1.66667,0,0,0-.43814-.33094.58236.58236,0,0,1,.34859-.06239.52756.52756,0,0,0,.5319-.32068c.07526-.17011.17383-.20878.26033-.00843a.561.561,0,0,0,.59229.33156c.08652-.00053.17313.01272.325.02491a2.36029,2.36029,0,0,1-.30328.22562.28358.28358,0,0,0-.151.41847A2.02959,2.02959,0,0,1,265.42841,25.09865Z" style="fill:#fdfdfd"/><path d="M262.68018,23.67275c.27021-.47467-.02553-.67423-.36719-.84718a.27461.27461,0,0,1,.22332-.06872.65654.65654,0,0,0,.71326-.40051c.029-.06713.09429-.14709.14623-.02454a.74132.74132,0,0,0,.81.43241.81816.81816,0,0,1,.16153.03654c-.12977.09121-.22987.173-.34052.23638-.13041.07469-.18931.1591-.12416.31283a2.439,2.439,0,0,1,.08409.35239A1.12652,1.12652,0,0,0,262.68018,23.67275Z" style="fill:#fdfdfd"/><path d="M262.61516,25.08423a1.02416,1.02416,0,0,0-1.24125-.01644c-.04175-.211.15415-.39054.03876-.54333a3.093,3.093,0,0,0-.43109-.34508c.41732-.02491.83646-.03173.97069-.54553.20923.13542.22135.41122.44111.46383a5.79814,5.79814,0,0,0,.64183.07946,1.97273,1.97273,0,0,0-.469.35624C262.46346,24.684,262.64524,24.86905,262.61516,25.08423Z" style="fill:#fdfdfd"/><path d="M266.48839,24.16289c.46825-.01653.89925-.00476,1.02367-.52861.21326.12779.22078.40823.43868.46245a5.44175,5.44175,0,0,0,.65915.07915c-.15041.10529-.24933.18479-.35781.24782-.12968.07536-.18763.15912-.12587.31584a.48526.48526,0,0,1,.03853.32018,1.03186,1.03186,0,0,0-1.23185.02171c-.03479-.21788.15279-.4016.04232-.55417A2.21581,2.21581,0,0,0,266.48839,24.16289Z" style="fill:#fdfdfd"/><path d="M263.93916,26.54414a1.022,1.022,0,0,0-1.22729.0017c-.034-.2109.14941-.39627.04208-.54625a1.98457,1.98457,0,0,0-.4682-.34669,2.25579,2.25579,0,0,1,.40586-.049.48823.48823,0,0,0,.50878-.31792c.08766-.1813.18066-.1911.25812-.00334.11688.28329.35127.32714.6136.33321.08664.002.173.01473.28035.02443a.81108.81108,0,0,1-.3065.24218.25818.25818,0,0,0-.13291.36912,1.659,1.659,0,0,1,.0525.22815Z" style="fill:#fdfdfd"/><path d="M265.382,22.21392a1.01877,1.01877,0,0,0-1.22241-.00187c-.04265-.21114.14464-.39425.02946-.54459a1.89368,1.89368,0,0,0-.42549-.31886c.01005-.05484.047-.03982.07-.04065.39482-.0143.77644-.05087.93051-.55552.18174.52175.59182.5551,1.08872.549-.17158.12082-.28072.21088-.402.27938a.20192.20192,0,0,0-.11015.28045,2.37641,2.37641,0,0,1,.0665.29235Z" style="fill:#fdfdfd"/><path d="M265.37878,27.93216a1.019,1.019,0,0,0-1.22321-.00274c-.03862-.21706.15353-.397.02878-.55055a2.33292,2.33292,0,0,0-.4544-.33813,1.83436,1.83436,0,0,1,.3531-.04494.55364.55364,0,0,0,.5817-.35467c.06063-.122.14074-.18129.20706-.00934.16869.43737.56852.34081.94947.40814a4.07632,4.07632,0,0,1-.33407.23367.24712.24712,0,0,0-.13768.34992,1.52924,1.52924,0,0,1,.05749.24829Z" style="fill:#fdfdfd"/><path d="M269.53968,29.46967a2.212,2.212,0,0,0-.64084-.21086,2.09692,2.09692,0,0,0-.62247.20029c-.04574-.18327.15355-.36648.04258-.51564a2.27278,2.27278,0,0,0-.48618-.36273c.46918-.01628.89716-.02307,1.02857-.53723.19631.145.21723.40525.42478.46338a4.5571,4.5571,0,0,0,.66128.08229,3.24713,3.24713,0,0,1-.32583.22786.26416.26416,0,0,0-.13967.38831A1.54681,1.54681,0,0,1,269.53968,29.46967Z" style="fill:#fdfdfd"/><path d="M268.19637,22.24839a1.01944,1.01944,0,0,0-1.26078-.03391c-.038-.21661.15739-.39694.03175-.55181a2.23657,2.23657,0,0,0-.44745-.3319.41735.41735,0,0,1,.07442-.022c.40022-.016.79688-.03775.95056-.55838.18391.51189.58437.56478,1.021.55051-.03441.10825-.11872.13008-.17939.17371-.29234.21024-.29311.20857-.21628.56441C268.17905,22.08016,268.181,22.12279,268.19637,22.24839Z" style="fill:#fdfdfd"/><path d="M260.55874,25.08038c.16222.54061.5846.53812,1.06206.5542a3.378,3.378,0,0,1-.3456.242.2664.2664,0,0,0-.13814.38877,1.58071,1.58071,0,0,1,.05528.24794.45351.45351,0,0,1-.11438-.0232.96809.96809,0,0,0-1.02229-.0133c-.0926.05467-.17444.02975-.11834-.089.153-.32384-.01157-.49067-.276-.62267a1.64135,1.64135,0,0,1-.17933-.135C259.97147,25.64529,260.379,25.59319,260.55874,25.08038Z" style="fill:#fdfdfd"/><path d="M262.70836,20.83753c-.03023-.23375.16442-.40923.03193-.56845a2.6108,2.6108,0,0,0-.47759-.349c.46974-.01292.89917-.01159,1.05787-.55635.18481.51254.5832.56456,1.0409.544a.85631.85631,0,0,1-.31727.25978.24533.24533,0,0,0-.13626.34859,2.46228,2.46228,0,0,1,.07372.31971A1.06162,1.06162,0,0,0,262.70836,20.83753Z" style="fill:#fdfdfd"/><path d="M263.698,18.44831a2.30516,2.30516,0,0,1,.30134-.03348.65069.65069,0,0,0,.69248-.401c.02527-.05635.08773-.16377.14-.02875.17427.45032.57166.41576.96318.45063a.911.911,0,0,1-.30622.2423c-.14582.0851-.20642.18266-.14035.349a2.61211,2.61211,0,0,1,.07551.31938,1.16128,1.16128,0,0,0-1.30219-.01418C264.39169,18.8501,264.08481,18.64963,263.698,18.44831Z" style="fill:#fdfdfd"/><path d="M266.93361,27.93123c-.03445-.21547.15709-.39677.03541-.55025a2.42961,2.42961,0,0,0-.48117-.35582c.47137-.01088.89717-.01685,1.05954-.55853.17788.51981.5845.55963,1.01091.55248-.01035.08824-.07117.11057-.11759.13448-.26215.135-.43251.30277-.27028.6236.025.04941.03409.168-.075.103A1.05012,1.05012,0,0,0,266.93361,27.93123Z" style="fill:#fdfdfd"/><path d="M269.90277,17.08681a1.76026,1.76026,0,0,0-.43056.32c-.10482.144.063.3244.05189.54976a1.04121,1.04121,0,0,0-1.23552-.01261c-.0589-.21727.15235-.39448.01652-.55069a2.67987,2.67987,0,0,0-.46494-.33833,4.407,4.407,0,0,0,.6583-.07611c.21066-.05761.23314-.31644.42434-.4738C269.062,17.01251,269.47784,17.04464,269.90277,17.08681Z" style="fill:#fdfdfd"/><path d="M263.00839,21.309c-.01908.03513-.02251.05093-.03227.058a1.57351,1.57351,0,0,0-.41209.31144c-.09518.14284.07079.32264.04946.53572a1.0105,1.0105,0,0,0-1.21907-.00178c-.01756-.05377-.0344-.07772-.02819-.09034.18-.36583-.00733-.56921-.31495-.72171a.74374.74374,0,0,1-.09574-.0767,3.04934,3.04934,0,0,1,.4363-.05258.421.421,0,0,0,.42072-.23993.6407.6407,0,0,1,.21535-.2597C262.15477,21.30272,262.58907,21.29076,263.00839,21.309Z" style="fill:#fdfdfd"/><path d="M265.46212,26.53349c.282-.48524-.04306-.66947-.371-.87494.42168-.03912.85722-.02817,1.01075-.57719.18844.50541.58429.57207,1.0253.54482-.01466.04058-.01538.05876-.02449.06536a1.77369,1.77369,0,0,0-.41509.31019c-.10606.14442.07776.32124.03873.54022A1.09973,1.09973,0,0,0,265.46212,26.53349Z" style="fill:#fdfdfd"/><path d="M269.90743,25.67707a3.27342,3.27342,0,0,1-.29431.20483c-.14792.08172-.21333.17792-.13835.34942a1.79867,1.79867,0,0,1,.06685.3269,1.02588,1.02588,0,0,0-1.25492-.00469,6.22463,6.22463,0,0,0-.41114-.91577c.42135-.03469.873.00569,1.01281-.57309C269.05611,25.61726,269.48027,25.6246,269.90743,25.67707Z" style="fill:#fdfdfd"/><path d="M258.19722,27.06394c.42974-.042.83858-.065.97865-.57793.19842.1479.21863.41815.43379.47612a4.38914,4.38914,0,0,0,.65823.07251,2.7426,2.7426,0,0,1-.313.2147.28661.28661,0,0,0-.15447.4219,2.006,2.006,0,0,1,.06194.27833,1.054,1.054,0,0,0-1.266-.01629c-.04633-.21853.15289-.39991.03047-.55183A2.03623,2.03623,0,0,0,258.19722,27.06394Z" style="fill:#fdfdfd"/><path d="M261.35044,27.917c.269-.487-.05489-.66965-.43633-.87657a4.28558,4.28558,0,0,0,.6856-.08261c.20417-.06041.23366-.31724.39-.44609.16941.12874.1891.39859.41135.45322a4.89118,4.89118,0,0,0,.64362.06969,3.15343,3.15343,0,0,1-.33282.2346.25385.25385,0,0,0-.13635.37079,1.99414,1.99414,0,0,1,.06559.30783A1.11647,1.11647,0,0,0,261.35044,27.917Z" style="fill:#fdfdfd"/><path d="M269.549,20.85252a1.05262,1.05262,0,0,0-1.27911-.01714c0-.07927-.00948-.11125.00142-.133.16375-.32679.01428-.52007-.273-.66121-.03973-.01952-.09678-.03807-.09853-.12781.4188.00278.83082-.02858.99752-.55379.17169.519.56485.57181,1.018.54606a.60951.60951,0,0,1-.28844.24809c-.16648.09338-.22817.20243-.14612.38549A1.922,1.922,0,0,1,269.549,20.85252Z" style="fill:#fdfdfd"/><path d="M266.11487,19.3636c.1673.54416.59342.53429,1.01008.59879-.10948.07639-.2141.16134-.32972.22689a.21467.21467,0,0,0-.11054.3024.43243.43243,0,0,1,.03056.32914,1.02527,1.02527,0,0,0-1.21925.00606c-.04079-.2143.15338-.39708.03522-.54988a2.3743,2.3743,0,0,0-.48914-.35956C265.52256,19.90405,265.95262,19.90451,266.11487,19.3636Z" style="fill:#fdfdfd"/><path d="M267.57706,17.86329c.15387.52982.54772.5821,1.015.55231a.93028.93028,0,0,1-.312.25622c-.14873.088-.22968.18343-.14616.36429a1.82563,1.82563,0,0,1,.07036.32525,1.06223,1.06223,0,0,0-1.26423-.025c-.04593-.217.15475-.3957.02659-.55207a2.33421,2.33421,0,0,0-.45458-.33287,1.9655,1.9655,0,0,1,.36254-.04823.53347.53347,0,0,0,.5636-.34284A1.73936,1.73936,0,0,1,267.57706,17.86329Z" style="fill:#fdfdfd"/></svg>