<svg id="Layer_1" data-name="Layer 1" xmlns="http://www.w3.org/2000/svg" viewBox="0 0 300 150"><rect y="0.28685" width="300" height="150" style="fill:#282828"/><path d="M24.97234,69.57413v-34.79H37.02605a17.39167,17.39167,0,0,1,9.335,2.32813,14.57231,14.57231,0,0,1,5.61035,6.27148,20.2378,20.2378,0,0,1,1.86231,8.74707,19.55214,19.55214,0,0,1-2.05859,9.21191A14.72882,14.72882,0,0,1,45.944,67.41886a17.67159,17.67159,0,0,1-8.918,2.15527ZM49.37469,52.13077a16.00716,16.00716,0,0,0-1.44629-6.958,11.08924,11.08924,0,0,0-4.18946-4.75293A12.42237,12.42237,0,0,0,37.02605,38.704H29.3825v26.9502h7.64355a12.13007,12.13007,0,0,0,6.7627-1.78809,11.383,11.383,0,0,0,4.165-4.85156A16.17755,16.17755,0,0,0,49.37469,52.13077Z" style="fill:#d6d7d8"/><path d="M59.36883,39.19425V33.8046h4.3125v5.38965Zm0,30.37988V43.996h4.3125V69.57413Z" style="fill:#d6d7d8"/><path d="M79.40984,70.06436a16.79417,16.79417,0,0,1-5.97754-1.05371,12.75381,12.75381,0,0,1-4.80273-3.16015l1.666-3.03809a14.4522,14.4522,0,0,0,4.41016,2.94043,12.0394,12.0394,0,0,0,4.50781.88184,8.34825,8.34825,0,0,0,4.3125-.99121,3.19739,3.19739,0,0,0,1.666-2.92383,2.508,2.508,0,0,0-.85742-2.09082,7.1846,7.1846,0,0,0-2.42579-1.14356q-1.56884-.46141-3.72363-1.04492a29.54863,29.54863,0,0,1-4.459-1.65332,6.98631,6.98631,0,0,1-2.74414-2.18945,5.57376,5.57376,0,0,1-.93164-3.30664,6.59972,6.59972,0,0,1,1.27441-4.11036,7.899,7.899,0,0,1,3.50391-2.55371,13.79645,13.79645,0,0,1,5.07129-.876,14.29106,14.29106,0,0,1,5.14453.88281,10.87878,10.87878,0,0,1,3.96875,2.59668l-1.96,2.98926a10.04692,10.04692,0,0,0-3.332-2.32813,10.43853,10.43853,0,0,0-4.0664-.75879,10.77612,10.77612,0,0,0-2.59668.31543,4.54512,4.54512,0,0,0-2.10742,1.11719,2.98969,2.98969,0,0,0-.833,2.25977,2.69346,2.69346,0,0,0,.66113,1.91894,5.11081,5.11081,0,0,0,1.96,1.19043q1.29786.48633,3.16114,1.06836,2.89012.82764,5.02246,1.65234a8.45574,8.45574,0,0,1,3.30761,2.1377,5.268,5.268,0,0,1,1.17579,3.64355,6.57165,6.57165,0,0,1-2.74415,5.61231A11.97058,11.97058,0,0,1,79.40984,70.06436Z" style="fill:#d6d7d8"/><path d="M107.78,68.44718q-.53907.24609-1.46973.63672a13.91185,13.91185,0,0,1-2.15625.68652,11.08841,11.08841,0,0,1-2.59668.29394,7.31345,7.31345,0,0,1-2.8916-.56347,4.615,4.615,0,0,1-2.10644-1.76367,5.39838,5.39838,0,0,1-.78418-3.01368V47.52432h-3.4795V44.14347h3.4795V35.6171h4.31152v8.52637H105.82v3.38085h-5.7334v15.876a2.69839,2.69839,0,0,0,.93164,2.0332,3.05341,3.05341,0,0,0,1.96.66211,6.15487,6.15487,0,0,0,2.35156-.4414,14.69957,14.69957,0,0,0,1.4209-.63672Z" style="fill:#d6d7d8"/><path d="M125.321,47.76944a10.62374,10.62374,0,0,0-5.708,1.6416,8.61382,8.61382,0,0,0-3.50391,4.38575V69.57413h-4.3125V44.14347h4.01855v5.78222a11.94669,11.94669,0,0,1,3.50391-4.28808,8.72869,8.72869,0,0,1,4.58106-1.83692h.833a3.08517,3.08517,0,0,1,.58789.04883Z" style="fill:#d6d7d8"/><path d="M127.5739,62.22452a6.61964,6.61964,0,0,1,1.39649-4.21289,8.97125,8.97125,0,0,1,3.84668-2.751,15.31482,15.31482,0,0,1,5.68457-.97461,26.16965,26.16965,0,0,1,3.626.26953,16.71269,16.71269,0,0,1,3.38086.8086V53.51261a5.97824,5.97824,0,0,0-1.76464-4.56543,6.99077,6.99077,0,0,0-4.99805-1.668,10.97633,10.97633,0,0,0-4.042.75976,22.40279,22.40279,0,0,0-4.0918,2.18067l-1.56738-3.03809a20.76917,20.76917,0,0,1,4.998-2.57226,15.89343,15.89343,0,0,1,5.19336-.8584,10.78817,10.78817,0,0,1,7.74219,2.69726A9.84894,9.84894,0,0,1,149.82,53.953V64.68839a1.70293,1.70293,0,0,0,.31836,1.1416,1.46929,1.46929,0,0,0,1.05371.41211v3.332q-.63722.09815-1.10254.14746-.46583.04834-.75977.04883a2.92919,2.92919,0,0,1-2.27832-.833,3.08439,3.08439,0,0,1-.85742-1.76367l-.09766-1.61719a10.91313,10.91313,0,0,1-4.36132,3.332,13.272,13.272,0,0,1-5.34082,1.17578,9.70577,9.70577,0,0,1-4.55664-1.04687,7.992,7.992,0,0,1-3.13672-2.82422A7.25357,7.25357,0,0,1,127.5739,62.22452Zm16.66016,1.792a6.366,6.366,0,0,0,.93066-1.38281,2.84037,2.84037,0,0,0,.34375-1.1875V58.2919a18.71857,18.71857,0,0,0-3.18554-.89746,17.73043,17.73043,0,0,0-3.28321-.31543,9.81755,9.81755,0,0,0-5.3164,1.28614,3.97173,3.97173,0,0,0-2.03321,3.5166,4.63594,4.63594,0,0,0,.66114,2.35351,5.06362,5.06362,0,0,0,1.96,1.86817,6.48334,6.48334,0,0,0,3.21.72656,9.35414,9.35414,0,0,0,3.82227-.79981A8.2548,8.2548,0,0,0,144.23406,64.01651Z" style="fill:#d6d7d8"/><path d="M168.04754,70.06436A12.9346,12.9346,0,0,1,162.78,69.01847a12.47456,12.47456,0,0,1-4.11621-2.89356,13.83523,13.83523,0,0,1-2.03321-15.85547,12.3674,12.3674,0,0,1,4.55762-4.74219,12.914,12.914,0,0,1,6.81055-1.77636,12.56851,12.56851,0,0,1,6.59082,1.6914,10.56826,10.56826,0,0,1,4.18945,4.53223l-4.21387,1.32324A7.02032,7.02032,0,0,0,171.821,48.4794a7.79214,7.79214,0,0,0-3.91992-1.0039,7.91246,7.91246,0,0,0-4.28808,1.21289,8.62622,8.62622,0,0,0-3.0625,3.32226,10.7888,10.7888,0,0,0,.02441,9.65039,9.10762,9.10762,0,0,0,3.08691,3.418,7.68948,7.68948,0,0,0,4.28809,1.26172,8.02654,8.02654,0,0,0,2.915-.53906,8.30191,8.30191,0,0,0,2.45019-1.44531,4.81,4.81,0,0,0,1.44532-1.98536l4.21386,1.27442a9.325,9.325,0,0,1-2.376,3.30762,11.8275,11.8275,0,0,1-3.77344,2.27832A13.29679,13.29679,0,0,1,168.04754,70.06436Z" style="fill:#d6d7d8"/><path d="M197.10418,68.44718q-.53907.24609-1.46973.63672a13.91185,13.91185,0,0,1-2.15625.68652,11.08841,11.08841,0,0,1-2.59668.29394,7.31345,7.31345,0,0,1-2.8916-.56347,4.615,4.615,0,0,1-2.10645-1.76367,5.39846,5.39846,0,0,1-.78418-3.01368V47.52432H181.6198V44.14347h3.47949V35.6171h4.31153v8.52637h5.7334v3.38085h-5.7334v15.876a2.69835,2.69835,0,0,0,.93164,2.0332,3.05341,3.05341,0,0,0,1.96.66211,6.15487,6.15487,0,0,0,2.35156-.4414,14.70077,14.70077,0,0,0,1.4209-.63672Z" style="fill:#d6d7d8"/><path d="M201.12078,39.19425V33.8046h4.3125v5.38965Zm0,30.37988V43.996h4.3125V69.57413Z" style="fill:#d6d7d8"/><path d="M223.56316,70.06436A12.76215,12.76215,0,0,1,218.32,69.01847a12.462,12.462,0,0,1-4.06739-2.86915,12.94933,12.94933,0,0,1-2.6455-4.207,14.06679,14.06679,0,0,1,0-10.06836,12.94943,12.94943,0,0,1,2.6455-4.207,12.42165,12.42165,0,0,1,4.0918-2.87011A12.84961,12.84961,0,0,1,235.568,51.87393a14.08048,14.08048,0,0,1,0,10.06836,12.96834,12.96834,0,0,1-2.64648,4.207,12.39632,12.39632,0,0,1-4.09082,2.86915A12.94122,12.94122,0,0,1,223.56316,70.06436Zm-8.47754-13.084a9.84456,9.84456,0,0,0,1.15137,4.75293,9.03223,9.03223,0,0,0,3.0625,3.37012,7.93939,7.93939,0,0,0,8.55078-.02442,9.10757,9.10757,0,0,0,3.08692-3.418,9.98742,9.98742,0,0,0,1.15136-4.77734,9.84737,9.84737,0,0,0-1.15136-4.75293,9.1703,9.1703,0,0,0-3.08692-3.39453,7.69,7.69,0,0,0-4.28711-1.26074,7.47483,7.47483,0,0,0-4.26367,1.28515,9.45289,9.45289,0,0,0-3.0625,3.419A9.94591,9.94591,0,0,0,215.08562,56.98038Z" style="fill:#d6d7d8"/><path d="M263.93816,69.57413h-4.31152V55.39249q0-4.03125-1.25-5.90039a4.25612,4.25612,0,0,0-3.79688-1.87012,7.7517,7.7517,0,0,0-3.5039.87207,10.54954,10.54954,0,0,0-3.08692,2.34863,8.77758,8.77758,0,0,0-1.93554,3.41309V69.57413h-4.3125V44.14347h3.92089v5.49218a11.04706,11.04706,0,0,1,2.64551-3.1123,12.29809,12.29809,0,0,1,3.67481-2.042,12.81287,12.81287,0,0,1,4.3125-.73047,7.75669,7.75669,0,0,1,3.69922.80273,5.99609,5.99609,0,0,1,2.35253,2.23731,10.27929,10.27929,0,0,1,1.22461,3.37988,22.805,22.805,0,0,1,.36719,4.23047Z" style="fill:#d6d7d8"/><path d="M51.67742,105.60733a8.14275,8.14275,0,0,1-1.37207,4.7041,9.27124,9.27124,0,0,1-3.69922,3.13575,11.58912,11.58912,0,0,1-5.12109,1.12695H24.97234v-34.79H42.26922a7.02332,7.02332,0,0,1,4.23828,1.29883,8.52525,8.52525,0,0,1,2.74414,3.332,9.85756,9.85756,0,0,1,.956,4.23828,9.33857,9.33857,0,0,1-1.29883,4.77734,7.9243,7.9243,0,0,1-3.69921,3.30762A8.74658,8.74658,0,0,1,49.93816,99.997,9.24389,9.24389,0,0,1,51.67742,105.60733ZM29.3825,83.60636v11.6123H40.45672a4.95429,4.95429,0,0,0,2.76855-.7832A5.67266,5.67266,0,0,0,45.13543,92.328a6.01083,6.01083,0,0,0,.71093-2.89063,6.4509,6.4509,0,0,0-.66113-2.96484,5.48181,5.48181,0,0,0-1.81347-2.082,4.54954,4.54954,0,0,0-2.6211-.78418Zm17.83594,21.21679a6.4054,6.4054,0,0,0-.71094-2.98925,5.986,5.986,0,0,0-1.91114-2.20508,4.74021,4.74021,0,0,0-2.76757-.833H29.3825v11.956H41.485a5.28447,5.28447,0,0,0,2.916-.833,6.119,6.119,0,0,0,2.05762-2.18067A5.83917,5.83917,0,0,0,47.21844,104.82315Z" style="fill:#d6d7d8"/><path d="M57.26336,78.8046h4.31152v29.28808q0,2.11671.58789,2.6084a2.14182,2.14182,0,0,0,1.42188.49219,8.46032,8.46032,0,0,0,1.96-.2207,12.22365,12.22365,0,0,0,1.56738-.46582l.68652,3.52832a14.08563,14.08563,0,0,1-2.54785.73535,13.50062,13.50062,0,0,1-2.59765.29394,4.97224,4.97224,0,0,1-5.38965-5.41211Z" style="fill:#d6d7d8"/><path d="M82.35125,115.06436a12.7781,12.7781,0,0,1-5.24317-1.04589,12.47937,12.47937,0,0,1-4.06738-2.87012,12.93929,12.93929,0,0,1-2.64551-4.207,13.6289,13.6289,0,0,1-.93164-5.00879,13.77091,13.77091,0,0,1,.93164-5.0586,12.94963,12.94963,0,0,1,2.64551-4.207,12.40727,12.40727,0,0,1,4.0918-2.87011,12.84963,12.84963,0,0,1,17.22363,7.07714,13.79027,13.79027,0,0,1,.93066,5.0586,13.6481,13.6481,0,0,1-.93066,5.00879,12.95808,12.95808,0,0,1-2.64648,4.207,12.4135,12.4135,0,0,1-4.09082,2.87012A12.95747,12.95747,0,0,1,82.35125,115.06436Zm-8.47754-13.084a9.84726,9.84726,0,0,0,1.15137,4.75293,9.03215,9.03215,0,0,0,3.0625,3.37012,7.94465,7.94465,0,0,0,8.55078-.02442,9.11491,9.11491,0,0,0,3.08691-3.418,9.99119,9.99119,0,0,0,1.15137-4.77832,9.84615,9.84615,0,0,0-1.15137-4.752,9.16272,9.16272,0,0,0-3.08691-3.39453,7.69,7.69,0,0,0-4.28711-1.26074,7.47483,7.47483,0,0,0-4.26367,1.28515,9.44491,9.44491,0,0,0-3.0625,3.41895A9.94591,9.94591,0,0,0,73.87371,101.98038Z" style="fill:#d6d7d8"/><path d="M111.84832,115.06436a12.9508,12.9508,0,0,1-5.26758-1.04589,12.47721,12.47721,0,0,1-4.11621-2.89454,13.83516,13.83516,0,0,1-2.0332-15.85546,12.374,12.374,0,0,1,4.55761-4.74219,12.91342,12.91342,0,0,1,6.81055-1.77539,12.568,12.568,0,0,1,6.59082,1.69043,10.57051,10.57051,0,0,1,4.18945,4.5332l-4.21386,1.32227a7.02408,7.02408,0,0,0-2.74414-2.81739,7.7922,7.7922,0,0,0-3.91993-1.0039,7.92,7.92,0,0,0-4.28808,1.21191,8.63309,8.63309,0,0,0-3.0625,3.32227,10.79085,10.79085,0,0,0,.02441,9.65136,9.11494,9.11494,0,0,0,3.08692,3.418,7.68854,7.68854,0,0,0,4.28808,1.26074,8.006,8.006,0,0,0,2.915-.53906,8.26019,8.26019,0,0,0,2.4502-1.44531,4.80738,4.80738,0,0,0,1.44531-1.98438l4.21387,1.27442a9.34229,9.34229,0,0,1-2.376,3.30762,11.84514,11.84514,0,0,1-3.77344,2.27832A13.29679,13.29679,0,0,1,111.84832,115.06436Z" style="fill:#d6d7d8"/><path d="M145.70672,114.57413l-8.86914-12.39844-4.85059,4.54v7.8584h-4.3125V78.8046h4.3125v23.41992l13.23047-13.08105h4.6543l-10.19141,10.543,10.68164,14.8877Z" style="fill:#d6d7d8"/><path d="M164.08172,115.06436a12.9508,12.9508,0,0,1-5.26758-1.04589,12.67326,12.67326,0,0,1-4.11621-2.87012,13.08521,13.08521,0,0,1-2.69434-4.207,13.4468,13.4468,0,0,1-.95605-5.0586,13.18161,13.18161,0,0,1,1.666-6.56543,12.79585,12.79585,0,0,1,11.417-6.5664,12.28612,12.28612,0,0,1,6.73829,1.82519,12.80391,12.80391,0,0,1,4.459,4.77051,13.15526,13.15526,0,0,1,1.5918,6.35156q0,.4878-.02442.94922a5.37647,5.37647,0,0,1-.07324.70606h-21.2168a9.5163,9.5163,0,0,0,1.39649,4.38379,8.74911,8.74911,0,0,0,3.11133,3.0039,8.1679,8.1679,0,0,0,4.11621,1.08887,8.88179,8.88179,0,0,0,4.43457-1.17578,6.29292,6.29292,0,0,0,2.86621-3.08692l3.72363,1.0293a9.855,9.855,0,0,1-2.47461,3.33106,12.06673,12.06673,0,0,1-3.87109,2.30371A13.69426,13.69426,0,0,1,164.08172,115.06436Zm-8.624-14.70019H172.902a9.22393,9.22393,0,0,0-1.4209-4.3584,8.817,8.817,0,0,0-3.13672-2.95508,8.50854,8.50854,0,0,0-4.21387-1.06543,8.41487,8.41487,0,0,0-4.165,1.06543,8.6114,8.6114,0,0,0-3.11133,2.95508A9.35628,9.35628,0,0,0,155.45769,100.36417Z" style="fill:#d6d7d8"/><path d="M195.2448,92.76944a10.61531,10.61531,0,0,0-5.708,1.6416,8.61548,8.61548,0,0,0-3.5039,4.38477v15.77832h-4.3125V89.14347h4.01855v5.78125a11.95154,11.95154,0,0,1,3.50391-4.28711,8.73017,8.73017,0,0,1,4.58105-1.83789h.833a3.07781,3.07781,0,0,1,.58789.0498Z" style="fill:#d6d7d8"/></svg>