<svg id="Layer_1" data-name="Layer 1" xmlns="http://www.w3.org/2000/svg" viewBox="0 0 300 150"><rect width="300" height="150" style="fill:#fdefd2"/><path d="M47.7575,36.8371q-.19629,1.96-.26953,3.82178-.07324,1.86327-.07325,2.84228,0,1.12721.04883,2.15576.04835,1.02906.09766,1.76416h-1.127a25.64462,25.64462,0,0,0-1.2002-5.61035,5.51529,5.51529,0,0,0-2.27832-2.94043,8.59928,8.59928,0,0,0-4.36133-.90625H35.99773a7.9712,7.9712,0,0,0-2.37695.26953,1.68929,1.68929,0,0,0-1.10254,1.07813,7.93742,7.93742,0,0,0-.29395,2.52344V66.237a7.18756,7.18756,0,0,0,.39161,2.71973,2.0944,2.0944,0,0,0,1.4707,1.20019,14.13734,14.13734,0,0,0,3.18457.34327V71.529q-1.32276-.09667-3.42969-.123-2.1079-.02344-4.36133-.02344-1.96,0-3.748.02344-1.79.02635-3.01367.123v-.98a9.68724,9.68724,0,0,0,2.499-.39209A1.69988,1.69988,0,0,0,26.32,68.98114a9.72943,9.72943,0,0,0,.26953-2.646V42.031A9.68944,9.68944,0,0,0,26.32,39.36054a1.76619,1.76619,0,0,0-1.127-1.17627,8.17583,8.17583,0,0,0-2.4746-.36719v-.98q2.499.04907,5.36523.09766,2.8667.0498,5.38965.04931h4.043q2.25293,0,5.12011-.02441Q45.50311,36.93548,47.7575,36.8371ZM40.26043,53.987v.98H30.75457v-.98Zm1.02929-6.46777q-.19629,2.79271-.17187,4.26269.02343,1.47.02441,2.69532,0,1.22534.04883,2.69482.04834,1.47.24512,4.2627h-1.127a23.46045,23.46045,0,0,0-.5879-3.11133,4.84133,4.84133,0,0,0-1.42089-2.4253,4.47539,4.47539,0,0,0-3.08692-.93115v-.98a3.864,3.864,0,0,0,3.03809-1.10254,5.99632,5.99632,0,0,0,1.34668-2.62158q.36768-1.51832.56445-2.74365Z" style="fill:#79808c"/><path d="M61.47722,45.55878a12.11715,12.11715,0,0,1,5.83106,1.37207,9.84805,9.84805,0,0,1,4.06641,4.312,16.78226,16.78226,0,0,1,1.51953,7.69336,16.62335,16.62335,0,0,1-1.51953,7.66846,9.715,9.715,0,0,1-4.06641,4.26269,12.29359,12.29359,0,0,1-5.83106,1.34717,12.472,12.472,0,0,1-5.83105-1.34717,9.49655,9.49655,0,0,1-4.0918-4.26269,16.8472,16.8472,0,0,1-1.49414-7.66846,17.00855,17.00855,0,0,1,1.49414-7.69336,9.62364,9.62364,0,0,1,4.0918-4.312A12.29267,12.29267,0,0,1,61.47722,45.55878Zm0,.98q-2.54882,0-4.165,2.91553Q55.695,52.37079,55.695,58.93622q0,6.56616,1.61719,9.43213,1.61718,2.8667,4.165,2.8667,2.499,0,4.14063-2.8667,1.64063-2.866,1.6416-9.43213,0-6.56616-1.6416-9.48193Q63.97576,46.54,61.47722,46.53876Z" style="fill:#79808c"/><path d="M93.42449,45.55878a8.52245,8.52245,0,0,1,3.21.51465,5.92011,5.92011,0,0,1,2.082,1.39648,5.26663,5.26663,0,0,1,1.249,2.40088,17.02308,17.02308,0,0,1,.36816,3.96924V66.97186a3.72545,3.72545,0,0,0,.80859,2.793,4.01174,4.01174,0,0,0,2.71875.73536V71.529q-.83349-.04833-2.59668-.123-1.76367-.07325-3.47851-.07227-1.667,0-3.30762.07227-1.64209.07323-2.47461.123v-1.0288a3.11762,3.11762,0,0,0,2.35156-.73536,4.18517,4.18517,0,0,0,.68653-2.793V52.468a12.41137,12.41137,0,0,0-.24512-2.57227,3.04367,3.04367,0,0,0-3.38086-2.57275,5.41544,5.41544,0,0,0-4.4834,2.25391,8.869,8.869,0,0,0-1.74023,5.58593V66.97186a4.077,4.077,0,0,0,.71094,2.793,3.1278,3.1278,0,0,0,2.32714.73536V71.529q-.78369-.04833-2.376-.123-1.59375-.07325-3.30762-.07227-1.667,0-3.47949.07227-1.81348.07323-2.69434.123v-1.0288a4.01465,4.01465,0,0,0,2.71973-.73536,3.72983,3.72983,0,0,0,.80762-2.793V51.58612a5.75754,5.75754,0,0,0-.73438-3.25879,3.19206,3.19206,0,0,0-2.793-1.05322v-1.0293q1.56738.14722,3.03809.147a26.39752,26.39752,0,0,0,3.11133-.17139,17.49966,17.49966,0,0,0,2.66992-.51465v5.34131a8.25516,8.25516,0,0,1,3.5039-4.26318A9.68224,9.68224,0,0,1,93.42449,45.55878Z" style="fill:#79808c"/><path d="M114.4948,38.15985v8.13428h6.76172v.98H114.4948V66.531a4.30047,4.30047,0,0,0,.73438,2.84228,2.6604,2.6604,0,0,0,2.10742.83252,3.10845,3.10845,0,0,0,2.27832-1.02881,8.56513,8.56513,0,0,0,1.73926-3.479l.93164.34326a10.24933,10.24933,0,0,1-2.083,4.38525,5.39057,5.39057,0,0,1-4.38574,1.78809,8.127,8.127,0,0,1-2.793-.416,5.7024,5.7024,0,0,1-1.96-1.20068,5.8821,5.8821,0,0,1-1.46973-2.69482,17.76788,17.76788,0,0,1-.3916-4.165V47.27411H104.694v-.98h4.50879v-7.1543a21.47444,21.47444,0,0,0,2.8418-.26953A10.40313,10.40313,0,0,0,114.4948,38.15985Z" style="fill:#79808c"/><path d="M22.71844,81.83661q1.12646.0498,2.915.09863,1.78859.04835,3.55274.04883,2.35254,0,4.4834-.04883,2.13135-.04833,3.01367-.04882,6.22266,0,9.30957,2.376a7.416,7.416,0,0,1,3.08789,6.14942,9.43443,9.43443,0,0,1-.61328,3.21,8.19969,8.19969,0,0,1-2.13086,3.13574,11.55035,11.55035,0,0,1-4.11621,2.377,19.89993,19.89993,0,0,1-6.61524.93067h-4.7041v-.98047h4.21387a9.42458,9.42458,0,0,0,5.02246-1.10254,5.46354,5.46354,0,0,0,2.35254-2.93945,12.89386,12.89386,0,0,0,.6123-4.0918,9.54448,9.54448,0,0,0-1.666-6.00195Q39.77069,82.8161,35.654,82.81708q-2.10643,0-2.76855.833a5.89716,5.89716,0,0,0-.66114,3.38086v24.30371a8.909,8.909,0,0,0,.29395,2.64648,1.766,1.766,0,0,0,1.127,1.17578,9.47683,9.47683,0,0,0,2.4502.3916v.98047q-1.17627-.09814-2.96485-.12207-1.78857-.0249-3.65039-.02539-2.0581,0-3.84668.02539-1.78857.0249-2.915.12207v-.98047a9.66966,9.66966,0,0,0,2.499-.3916A1.70081,1.70081,0,0,0,26.32,113.98114a9.72616,9.72616,0,0,0,.26953-2.64648V87.031a9.6959,9.6959,0,0,0-.26953-2.6709,1.76747,1.76747,0,0,0-1.127-1.17578,8.19138,8.19138,0,0,0-2.4746-.36719Zm8.28125,17.39551q2.499.09815,4.01757.2207,1.51758.123,2.54785.21973,1.0298.0996,1.91114.24512a10.21939,10.21939,0,0,1,5.36523,1.96,7.92714,7.92714,0,0,1,2.32813,4.50879l1.22461,4.998a10.76874,10.76874,0,0,0,.95605,2.98828,1.67469,1.67469,0,0,0,1.543.88184,2.23,2.23,0,0,0,1.29883-.46484,7.62134,7.62134,0,0,0,1.10254-1.15137l.68554.53906a8.78864,8.78864,0,0,1-2.35156,2.27832,6.18962,6.18962,0,0,1-3.2832.75879,5.89991,5.89991,0,0,1-3.60156-1.10156q-1.4956-1.103-2.13184-4.19043l-.97949-4.89942a29.52358,29.52358,0,0,0-.98047-3.65039,5.85287,5.85287,0,0,0-1.49414-2.42578,3.94212,3.94212,0,0,0-2.76856-.88183h-5.292Z" style="fill:#79808c"/><path d="M66.76824,90.55927a8.84847,8.84847,0,0,1,6.7627,2.59668q2.44921,2.59716,2.44921,8.23242H59.07586l-.09864-.93164H70.78679a19.11553,19.11553,0,0,0-.39257-4.43457,8.20854,8.20854,0,0,0-1.37207-3.25781,2.93137,2.93137,0,0,0-2.44922-1.22559,4.417,4.417,0,0,0-3.65039,2.22949q-1.54395,2.231-1.88672,7.12988l.14648.24512c-.03222.458-.06543.95508-.09765,1.49414q-.04982.80859-.04883,1.59278a13.91122,13.91122,0,0,0,1.02929,5.68359,8.04835,8.04835,0,0,0,2.69434,3.45508,5.89382,5.89382,0,0,0,3.38086,1.15136,7.37544,7.37544,0,0,0,6.958-4.60644l.98047.39258a12.16844,12.16844,0,0,1-1.81348,3.28222,9.27619,9.27619,0,0,1-3.13574,2.62207,9.46058,9.46058,0,0,1-4.459,1.00391,11.30327,11.30327,0,0,1-5.97754-1.543,10.09449,10.09449,0,0,1-3.92089-4.43457,15.87227,15.87227,0,0,1-1.3711-6.86035,17.70264,17.70264,0,0,1,1.4209-7.44727,10.4523,10.4523,0,0,1,9.94629-6.37011Z" style="fill:#79808c"/><path d="M85.92644,116.87177q-3.23291,0-4.67871-1.6416a6.09863,6.09863,0,0,1-1.44629-4.18946,5.61,5.61,0,0,1,.98047-3.42969,7.81088,7.81088,0,0,1,2.52344-2.18066,21.4485,21.4485,0,0,1,3.2832-1.46973q1.73877-.6123,3.28321-1.17578a10.30323,10.30323,0,0,0,2.54785-1.29883,2.22443,2.22443,0,0,0,1.0039-1.8623v-3.332A6.0028,6.0028,0,0,0,92.86,93.47431a3.27771,3.27771,0,0,0-1.51856-1.49414,5.40278,5.40278,0,0,0-2.27832-.44141,9.93256,9.93256,0,0,0-2.40137.31836,3.58138,3.58138,0,0,0-2.00878,1.25,3.45317,3.45317,0,0,1,1.78808,1.15137,3.231,3.231,0,0,1,.71094,2.13183,2.69708,2.69708,0,0,1-.90723,2.15528,3.356,3.356,0,0,1-2.27832.78417,2.66477,2.66477,0,0,1-2.2539-.95507,3.54985,3.54985,0,0,1-.73438-2.2295,3.36127,3.36127,0,0,1,.66113-2.15625,7.84944,7.84944,0,0,1,1.73926-1.56835,11.08992,11.08992,0,0,1,3.01367-1.32227,14.50892,14.50892,0,0,1,4.0918-.53906,12.74277,12.74277,0,0,1,3.65039.46484,6.02623,6.02623,0,0,1,2.57227,1.49512,5.39242,5.39242,0,0,1,1.61718,2.81738,18.41981,18.41981,0,0,1,.39161,4.0918v13.52344a3.76216,3.76216,0,0,0,.29394,1.71484,1.1165,1.1165,0,0,0,1.07813.53906,2.05351,2.05351,0,0,0,1.07812-.29394,8.99635,8.99635,0,0,0,.98047-.68555l.48926.833a10.03476,10.03476,0,0,1-2.082,1.32226,6.35434,6.35434,0,0,1-2.6709.49024q-2.69532,0-3.55176-1.27344a5.42971,5.42971,0,0,1-.90723-2.94043,7.93,7.93,0,0,1-3.35644,3.30762A9.63934,9.63934,0,0,1,85.92644,116.87177Zm2.69532-2.35157a4.92191,4.92191,0,0,0,2.499-.71093,7.0356,7.0356,0,0,0,2.30273-2.42481v-9.752a4.81491,4.81491,0,0,1-2.082,1.666q-1.39746.63869-2.84179,1.39649a7.84274,7.84274,0,0,0-2.47461,2.03418,5.46476,5.46476,0,0,0-1.0293,3.52734,4.4144,4.4144,0,0,0,1.0293,3.23438A3.51625,3.51625,0,0,0,88.62176,114.5202Z" style="fill:#79808c"/><path d="M116.01238,90.55927a8.42381,8.42381,0,0,1,3.94434.93066,5.20237,5.20237,0,0,1,2.52343,3.13574l-.58789.53907a5.00944,5.00944,0,0,0-2.00976-2.57227,5.61673,5.61673,0,0,0-2.98828-.80859q-2.79347,0-4.55762,2.96484-1.76367,2.96484-1.71484,9.13867a26.40925,26.40925,0,0,0,.68652,6.63867,7.67956,7.67956,0,0,0,2.0332,3.79786,4.7001,4.7001,0,0,0,6.71289-.39161,7.59578,7.59578,0,0,0,1.83789-4.65527l.44043,1.0293a8.58984,8.58984,0,0,1-2.35156,5.12011,6.91446,6.91446,0,0,1-4.998,1.78809,9.61688,9.61688,0,0,1-5.26757-1.44531,9.15178,9.15178,0,0,1-3.50391-4.41016,19.68712,19.68712,0,0,1-1.22461-7.47168,16.42076,16.42076,0,0,1,1.49414-7.42383,10.40168,10.40168,0,0,1,3.99414-4.43457A10.71148,10.71148,0,0,1,116.01238,90.55927ZM127.03679,78.113v33.07519a5.60622,5.60622,0,0,0,.75977,3.25879,3.199,3.199,0,0,0,2.76855,1.05274V116.529q-1.519-.14647-3.03808-.14746a30.91031,30.91031,0,0,0-3.11133.14746,13.049,13.049,0,0,0-2.6709.53907V83.99286a5.60841,5.60841,0,0,0-.75976-3.25879,3.20292,3.20292,0,0,0-2.76856-1.05273V78.652q1.56885.14649,3.03809.14648a26.66476,26.66476,0,0,0,3.08691-.17089A17.55338,17.55338,0,0,0,127.03679,78.113Z" style="fill:#79808c"/><path d="M139.43328,116.87177q-3.2329,0-4.67871-1.6416a6.09858,6.09858,0,0,1-1.44629-4.18946,5.61,5.61,0,0,1,.98047-3.42969,7.81088,7.81088,0,0,1,2.52344-2.18066,21.44763,21.44763,0,0,1,3.2832-1.46973q1.73877-.6123,3.2832-1.17578a10.30323,10.30323,0,0,0,2.54785-1.29883,2.22441,2.22441,0,0,0,1.00391-1.8623v-3.332a6.00279,6.00279,0,0,0-.56348-2.81738,3.27764,3.27764,0,0,0-1.51855-1.49414,5.40285,5.40285,0,0,0-2.27832-.44141,9.93243,9.93243,0,0,0-2.40137.31836,3.5814,3.5814,0,0,0-2.00879,1.25,3.45323,3.45323,0,0,1,1.78809,1.15137,3.231,3.231,0,0,1,.71093,2.13183,2.69708,2.69708,0,0,1-.90722,2.15528,3.356,3.356,0,0,1-2.27832.78417,2.66479,2.66479,0,0,1-2.25391-.95507,3.5499,3.5499,0,0,1-.73437-2.2295,3.36121,3.36121,0,0,1,.66113-2.15625,7.84944,7.84944,0,0,1,1.73926-1.56835,11.08992,11.08992,0,0,1,3.01367-1.32227,14.50892,14.50892,0,0,1,4.0918-.53906,12.74282,12.74282,0,0,1,3.65039.46484,6.0262,6.0262,0,0,1,2.57226,1.49512,5.39243,5.39243,0,0,1,1.61719,2.81738,18.42047,18.42047,0,0,1,.3916,4.0918v13.52344a3.762,3.762,0,0,0,.29395,1.71484,1.11649,1.11649,0,0,0,1.07812.53906,2.05352,2.05352,0,0,0,1.07813-.29394,8.99635,8.99635,0,0,0,.98047-.68555l.48925.833a10.03424,10.03424,0,0,1-2.082,1.32226,6.35428,6.35428,0,0,1-2.6709.49024q-2.69531,0-3.55175-1.27344a5.42971,5.42971,0,0,1-.90723-2.94043,7.9301,7.9301,0,0,1-3.35645,3.30762A9.6393,9.6393,0,0,1,139.43328,116.87177Zm2.69531-2.35157a4.92191,4.92191,0,0,0,2.499-.71093,7.03562,7.03562,0,0,0,2.30274-2.42481v-9.752a4.815,4.815,0,0,1-2.082,1.666q-1.39746.63869-2.8418,1.39649a7.84285,7.84285,0,0,0-2.47461,2.03418,5.46482,5.46482,0,0,0-1.0293,3.52734,4.41445,4.41445,0,0,0,1.0293,3.23438A3.51626,3.51626,0,0,0,142.12859,114.5202Z" style="fill:#79808c"/><path d="M165.35418,78.16181V114.5202a14.89028,14.89028,0,0,0-1.71582.73438,16.42782,16.42782,0,0,0-1.666.956,14.24154,14.24154,0,0,0-1.46973,1.10254l-.78417-.39257a8.09394,8.09394,0,0,0,.26953-1.37208,13.37248,13.37248,0,0,0,.07422-1.42089V84.04169a5.61026,5.61026,0,0,0-.75977-3.25781,3.20175,3.20175,0,0,0-2.76856-1.05371v-1.0293q1.56739.14647,3.03809.14746a26.4529,26.4529,0,0,0,3.08691-.17188A17.4806,17.4806,0,0,0,165.35418,78.16181Zm7.59472,12.39746a8.07391,8.07391,0,0,1,6.541,3.25781q2.6206,3.25928,2.62207,9.874a16.83837,16.83837,0,0,1-1.51953,7.64356,10.30659,10.30659,0,0,1-4.042,4.43457,10.80639,10.80639,0,0,1-5.46387,1.44531,9.06865,9.06865,0,0,1-4.41016-1.15137,7.59146,7.59146,0,0,1-3.2334-3.50293l.88184.24512a7.14922,7.14922,0,0,0,5.97754,3.332,4.95087,4.95087,0,0,0,4.63086-2.98926q1.544-2.98827,1.54394-9.21191a29.84527,29.84527,0,0,0-.61328-6.66406,7.85946,7.85946,0,0,0-1.8125-3.79785,4.09093,4.09093,0,0,0-3.01367-1.2002,5.322,5.322,0,0,0-3.87109,1.8125,8.4879,8.4879,0,0,0-2.10645,5.24316L164.57,98.30145a9.77747,9.77747,0,0,1,2.96386-5.709A7.86284,7.86284,0,0,1,172.9489,90.55927Z" style="fill:#79808c"/><path d="M194.40984,90.70575v21.2666a3.72618,3.72618,0,0,0,.8086,2.793,4.0202,4.0202,0,0,0,2.71972.73438V116.529q-.83349-.04833-2.57226-.12207-1.74024-.0747-3.55274-.07422-1.71533,0-3.52832.07422-1.81347.07325-2.69433.12207V115.4997a4.02022,4.02022,0,0,0,2.71972-.73438,3.73057,3.73057,0,0,0,.80762-2.793V96.58563a5.75283,5.75283,0,0,0-.73438-3.25781,3.19214,3.19214,0,0,0-2.793-1.05371v-1.0293q1.56738.148,3.03808.14746a26.29068,26.29068,0,0,0,3.11133-.17187A17.50063,17.50063,0,0,0,194.40984,90.70575Zm-2.93945-11.80859a3.60414,3.60414,0,0,1,2.54785.95508,3.25806,3.25806,0,0,1,0,4.75293,3.873,3.873,0,0,1-5.0957,0,3.25806,3.25806,0,0,1,0-4.75293A3.60247,3.60247,0,0,1,191.47039,78.89716Z" style="fill:#79808c"/><path d="M208.81511,78.113v33.85937a3.72622,3.72622,0,0,0,.8086,2.793,4.0185,4.0185,0,0,0,2.71973.73438V116.529q-.83351-.04833-2.59668-.12207-1.76514-.0747-3.52832-.07422-1.76368,0-3.55274.07422-1.78857.07325-2.66992.12207V115.4997a4.01556,4.01556,0,0,0,2.71875-.73438,3.72622,3.72622,0,0,0,.80859-2.793V83.99286a5.76669,5.76669,0,0,0-.73437-3.25879,3.19452,3.19452,0,0,0-2.793-1.05273V78.652q1.56738.14649,3.03808.14648a26.68952,26.68952,0,0,0,3.08692-.17089A17.56278,17.56278,0,0,0,208.81511,78.113Z" style="fill:#79808c"/><path d="M223.51433,90.70575v21.2666a3.72618,3.72618,0,0,0,.8086,2.793,4.02022,4.02022,0,0,0,2.71972.73438V116.529q-.83349-.04833-2.57226-.12207-1.74024-.0747-3.55274-.07422-1.71533,0-3.52832.07422-1.81347.07325-2.69433.12207V115.4997a4.0202,4.0202,0,0,0,2.71972-.73438,3.73057,3.73057,0,0,0,.80762-2.793V96.58563a5.75292,5.75292,0,0,0-.73437-3.25781,3.19217,3.19217,0,0,0-2.793-1.05371v-1.0293q1.56738.148,3.03808.14746a26.29068,26.29068,0,0,0,3.11133-.17187A17.50063,17.50063,0,0,0,223.51433,90.70575Zm-2.93945-11.80859a3.60412,3.60412,0,0,1,2.54785.95508,3.25806,3.25806,0,0,1,0,4.75293,3.873,3.873,0,0,1-5.0957,0,3.25806,3.25806,0,0,1,0-4.75293A3.6025,3.6025,0,0,1,220.57488,78.89716Z" style="fill:#79808c"/><path d="M237.96941,83.15985v8.13379h6.76172v.98047h-6.76172V111.531a4.298,4.298,0,0,0,.73438,2.84179,2.66068,2.66068,0,0,0,2.10742.833,3.10972,3.10972,0,0,0,2.27832-1.02832,8.571,8.571,0,0,0,1.73926-3.47949l.93164.34277a10.24861,10.24861,0,0,1-2.083,4.38574,5.39057,5.39057,0,0,1-4.38574,1.78809,8.127,8.127,0,0,1-2.793-.416,5.70875,5.70875,0,0,1-1.96-1.20019A5.88375,5.88375,0,0,1,233.069,112.903a17.77074,17.77074,0,0,1-.3916-4.165V92.27411h-4.50879v-.98047h4.50879V84.14032a21.55737,21.55737,0,0,0,2.8418-.26953A10.42682,10.42682,0,0,0,237.96941,83.15985Z" style="fill:#79808c"/><path d="M269.86785,91.24481v.98047a3.03634,3.03634,0,0,0-1.71484.95508,8.22976,8.22976,0,0,0-1.51954,2.76856l-7.64355,20.48242-1.17578,1.17578-9.55567-22.58887a4.95126,4.95126,0,0,0-1.78808-2.32812,3.48433,3.48433,0,0,0-1.44531-.416v-1.0293q1.2246.148,2.59668.22071,1.37109.07324,2.84179.07324,1.66553,0,3.35645-.09766,1.69043-.09815,3.16113-.19629v1.0293a11.39328,11.39328,0,0,0-2.083.1709,1.41933,1.41933,0,0,0-1.17578.93164,4.145,4.145,0,0,0,.46582,2.57227l6.07617,14.94531-.34375.14648,4.94922-13.13183q1.07667-2.93994.26953-4.21387-.80859-1.27294-3.30761-1.46973v-.98047q1.2246.04981,2.22949.09864,1.00341.04833,2.083.04882,1.07665,0,2.0332-.04882Q269.1325,91.29511,269.86785,91.24481Zm-10.87793,25.18653-1.76367,4.60547a8.26431,8.26431,0,0,1-2.10742,3.43066,4.25156,4.25156,0,0,1-1.8125.97949,8.16331,8.16331,0,0,1-2.15625.29395,5.09487,5.09487,0,0,1-1.93555-.36719,3.61474,3.61474,0,0,1-1.49512-1.10254,2.81406,2.81406,0,0,1-.58789-1.81348,2.69244,2.69244,0,0,1,.833-2.05761,3.083,3.083,0,0,1,2.20508-.78418,3.21334,3.21334,0,0,1,2.05859.66113,2.326,2.326,0,0,1,.833,1.93555,2.50948,2.50948,0,0,1-.46582,1.51953,3.07593,3.07593,0,0,1-1.2002.97949.93355.93355,0,0,0,.29395.04981h.24512a3.70148,3.70148,0,0,0,2.44921-.90723,6.78111,6.78111,0,0,0,1.81348-2.915l1.76367-4.7041Z" style="fill:#79808c"/></svg>