<svg id="Layer_1" data-name="Layer 1" xmlns="http://www.w3.org/2000/svg" viewBox="0 0 300 150"><g id="Layer_2" data-name="Layer 2"><rect width="300" height="150" style="fill:#282828"/><path d="M39.86687,62.75988V57.4796H44.0905v5.28028Zm0,29.75976V67.464H44.0905V92.51964Z" style="fill:#9b5efc"/><path d="M72.65007,92.51964H68.42644V78.62706q0-3.94774-1.22364-5.78027a4.17072,4.17072,0,0,0-3.72071-1.83105,7.59394,7.59394,0,0,0-3.43164.85449A10.31586,10.31586,0,0,0,57.027,74.17a8.59755,8.59755,0,0,0-1.89648,3.34375V92.51964H50.90691V67.60753h3.83984v5.38086a10.81217,10.81217,0,0,1,2.5918-3.04883,12.04351,12.04351,0,0,1,3.59961-2.001,12.54862,12.54862,0,0,1,4.22461-.71485,7.59807,7.59807,0,0,1,3.624.78614,5.87324,5.87324,0,0,1,2.30371,2.1914,10.05561,10.05561,0,0,1,1.20021,3.31153A22.31917,22.31917,0,0,1,72.65,77.65633Z" style="fill:#9b5efc"/><path d="M88.82585,93.00011a9.926,9.926,0,0,1-4.55957-1.04785,11.1541,11.1541,0,0,1-3.55273-2.835,13.156,13.156,0,0,1-2.30371-4.12207,14.75922,14.75922,0,0,1-.81543-4.90723,13.50785,13.50785,0,0,1,.91114-4.95508,13.078,13.078,0,0,1,2.5205-4.09668,12.02916,12.02916,0,0,1,3.76758-2.78808,10.73354,10.73354,0,0,1,4.65625-1.02442A10.09222,10.09222,0,0,1,94.778,68.67687a11.24,11.24,0,0,1,3.792,3.69239V67.60753h3.74414v35.13574H98.08952V87.61534Q94.634,93.00013,88.82585,93.00011Zm1.44043-3.64844a7.32533,7.32533,0,0,0,3.23926-.71093,9.05618,9.05618,0,0,0,2.61621-1.91993,13.02274,13.02274,0,0,0,1.96777-2.67871V76.89562a5.28726,5.28726,0,0,0-.96-2.29981,9.28159,9.28159,0,0,0-1.87207-1.9209,9.0291,9.0291,0,0,0-2.376-1.32812A7.147,7.147,0,0,0,90.362,70.8712a7.3879,7.3879,0,0,0-3.40821.78418,8.56477,8.56477,0,0,0-2.66406,2.11426,10.04609,10.04609,0,0,0-1.752,2.99219,9.6645,9.6645,0,0,0-.624,3.42089,9.78877,9.78877,0,0,0,1.08007,4.56054,8.8498,8.8498,0,0,0,2.9522,3.34962A7.55322,7.55322,0,0,0,90.26628,89.35167Z" style="fill:#9b5efc"/><path d="M108.88933,82.547V67.60753H113.113V81.72179a9.95143,9.95143,0,0,0,1.34473,5.72265,4.55655,4.55655,0,0,0,3.98339,1.90722,7.90762,7.90762,0,0,0,3.33593-.7373,9.27863,9.27863,0,0,0,2.9043-2.11621A9.77763,9.77763,0,0,0,126.697,83.215V67.60753h4.22462V87.73058a1.677,1.677,0,0,0,.31152,1.12012,1.44256,1.44256,0,0,0,1.03223.40527v3.26368q-.7207.09522-1.12793.12011-.4087.02345-.792.02344a3.06379,3.06379,0,0,1-2.06445-.73926,2.4747,2.4747,0,0,1-.91211-1.83692l-.09571-2.91015a11.47069,11.47069,0,0,1-4.3916,4.2959,12.23683,12.23683,0,0,1-6.02442,1.52734A7.01417,7.01417,0,0,1,110.905,90.3507Q108.88933,87.70227,108.88933,82.547Z" style="fill:#9b5efc"/><path d="M137.97722,62.75988V57.4796h4.22363v5.28028Zm0,29.75976V67.464h4.22363V92.51964Z" style="fill:#9b5efc"/><path d="M162.2653,71.15929a10.41929,10.41929,0,0,0-5.59277,1.60839,8.44113,8.44113,0,0,0-3.43164,4.2959v15.456h-4.22363V67.60753h3.93554v5.66406a11.711,11.711,0,0,1,3.43262-4.20019,8.546,8.546,0,0,1,4.48731-1.79981h.8164a3.05669,3.05669,0,0,1,.57619.04786Z" style="fill:#9b5efc"/><path d="M176.95378,93.00011a12.67768,12.67768,0,0,1-5.16016-1.02539,12.38558,12.38558,0,0,1-4.03222-2.81055,12.83242,12.83242,0,0,1-2.63965-4.12109,13.19068,13.19068,0,0,1-.93652-4.95508,12.90578,12.90578,0,0,1,1.63281-6.43262,12.53041,12.53041,0,0,1,11.18359-6.43164,12.02,12.02,0,0,1,6.59961,1.78809,12.52913,12.52913,0,0,1,4.36817,4.67187,12.89358,12.89358,0,0,1,1.55957,6.22364q0,.47607-.02344.92871a5.34073,5.34073,0,0,1-.07227.6914h-20.7832a9.32415,9.32415,0,0,0,1.36719,4.29493,8.58285,8.58285,0,0,0,3.04785,2.94238,8.014,8.014,0,0,0,4.03223,1.0664,8.70045,8.70045,0,0,0,4.34375-1.15136,6.16175,6.16175,0,0,0,2.80859-3.02442l3.64746,1.00782a9.65044,9.65044,0,0,1-2.42383,3.26464,11.81782,11.81782,0,0,1-3.792,2.25586A13.40409,13.40409,0,0,1,176.95378,93.00011Zm-8.44824-14.40039h17.08789a9.03578,9.03578,0,0,0-1.3916-4.26954,8.635,8.635,0,0,0-3.07227-2.89453,8.32807,8.32807,0,0,0-4.12793-1.04395,8.23288,8.23288,0,0,0-4.08006,1.04395,8.42444,8.42444,0,0,0-3.04787,2.89453A9.17981,9.17981,0,0,0,168.50554,78.59972Z" style="fill:#9b5efc"/><path d="M232.00847,92.51964h-4.22363V78.62706q0-3.89943-1.27247-5.75586a4.2728,4.2728,0,0,0-3.76757-1.85546,6.77481,6.77481,0,0,0-4.6084,1.83105,9.98027,9.98027,0,0,0-2.92774,4.73436V92.51964H210.985V78.62706q0-3.94774-1.248-5.78027a4.23173,4.23173,0,0,0-3.74416-1.83105,6.91154,6.91154,0,0,0-4.584,1.77929,9.56532,9.56532,0,0,0-2.95214,4.71875V92.51964h-4.22364V67.60753h3.83985v5.38086a11.31844,11.31844,0,0,1,3.98339-4.26367,10.3463,10.3463,0,0,1,5.52051-1.501,7.16224,7.16224,0,0,1,4.99219,1.6914,7.24191,7.24191,0,0,1,2.30371,4.3584,12.649,12.649,0,0,1,4.08008-4.501,9.87057,9.87057,0,0,1,5.47168-1.54883,7.59546,7.59546,0,0,1,3.624.78614,6.0457,6.0457,0,0,1,2.32813,2.1914,10.08943,10.08943,0,0,1,1.248,3.31153,20.99123,20.99123,0,0,1,.38379,4.14355Z" style="fill:#fff"/><path d="M249.67253,93.00011a12.67768,12.67768,0,0,1-5.16016-1.02539,12.38558,12.38558,0,0,1-4.03222-2.81055,12.83242,12.83242,0,0,1-2.63965-4.12109A13.19085,13.19085,0,0,1,236.904,80.088a12.90578,12.90578,0,0,1,1.63281-6.43262,12.53041,12.53041,0,0,1,11.18359-6.43164,12.02,12.02,0,0,1,6.5996,1.78809,12.52886,12.52886,0,0,1,4.36816,4.67187,12.89313,12.89313,0,0,1,1.55957,6.22364q0,.47607-.02344.92871a5.33546,5.33546,0,0,1-.07226.6914h-20.7832a9.32414,9.32414,0,0,0,1.36718,4.29493,8.58293,8.58293,0,0,0,3.04785,2.94238,8.014,8.014,0,0,0,4.03223,1.0664,8.7004,8.7004,0,0,0,4.34375-1.15136,6.16171,6.16171,0,0,0,2.80859-3.02442l3.64747,1.00782a9.65083,9.65083,0,0,1-2.42383,3.26464,11.81792,11.81792,0,0,1-3.792,2.25586A13.40428,13.40428,0,0,1,249.67253,93.00011Zm-8.44824-14.40039h17.0879a9.03556,9.03556,0,0,0-1.3916-4.26954,8.635,8.635,0,0,0-3.07226-2.89453,8.32807,8.32807,0,0,0-4.12793-1.04395,8.23282,8.23282,0,0,0-4.08006,1.04395,8.42428,8.42428,0,0,0-3.04787,2.89453A9.18,9.18,0,0,0,241.22429,78.59972Z" style="fill:#fff"/></g></svg>