<svg id="Layer_1" data-name="Layer 1" xmlns="http://www.w3.org/2000/svg" viewBox="0 0 300 150"><rect x="0.59337" y="-0.09604" width="300" height="150" style="fill:#e8e9ea"/><path d="M186,102.49555c-2.528-.6946-3.27425-2.64551-3.28143-4.94342q-.05526-17.6898.00608-35.37983a9.46206,9.46206,0,0,1,.535-2.925,3.68944,3.68944,0,0,1,3.96353-2.6297,3.81088,3.81088,0,0,1,3.62479,3.10531,13.52822,13.52822,0,0,1,.26245,2.731c.022,5.83661.01061,11.67335.01017,17.51005,0,.42867,0,.85734,0,1.61529.48426-.44435.76776-.67585,1.01834-.93875,3.08848-3.24053,6.15917-6.49812,9.26336-9.72347,1.25328-1.30218,2.64506-2.31952,4.64476-1.86793a3.228,3.228,0,0,1,2.26545,4.87638,10.21438,10.21438,0,0,1-1.67456,2.17067c-1.44059,1.44049-2.89147,2.885-4.46493,4.17307-.989.8096-.88455,1.40365-.26139,2.35932q4.252,6.52091,8.36506,13.13158a6.36044,6.36044,0,0,1,.95732,2.759c.15277,2.05792-1.02492,3.32112-2.914,3.97637H206.4a5.46487,5.46487,0,0,1-2.92915-2.659c-2.43462-3.93561-4.82734-7.89714-7.24044-11.84609-.2177-.35628-.46705-.69323-.75352-1.11555-1.37017,1.31131-2.6648,2.4971-3.88378,3.75614a2.0387,2.0387,0,0,0-.45149,1.27226c-.04864,1.87642-.00433,3.755-.02644,5.63242-.03261,2.76724-.89246,3.99-3.43518,4.95981Z" style="fill:#282828"/><path d="M51.84,102.49555c-1.43329-.29756-2.89755-.492-4.29426-.91133a13.59223,13.59223,0,0,1-9.48419-9.63405A20.53522,20.53522,0,0,1,38.5913,77.996c2.15351-5.35648,6.32184-8.14522,11.93877-8.91849a18.28841,18.28841,0,0,1,9.19315.92665A13.74342,13.74342,0,0,1,68.603,83.59352c-.131,2.48124-1.76013,3.9864-4.732,4.04456-5.47562.10719-10.95386.08026-16.431.10852-.51067.00263-1.02137.00034-1.50188.00034-.9486,5.23688,4.113,10.12608,9.27821,9.1771a12.66232,12.66232,0,0,0,6.00956-3.28765c.72375-.62928,1.39068-1.32633,2.13481-1.92916a3.10518,3.10518,0,0,1,3.69563-.08244,2.66515,2.66515,0,0,1,.91087,3.10247c-.9557,3.17043-3.30218,5.06122-6.20186,6.23563A46.71707,46.71707,0,0,1,56.16,102.49555ZM60.484,82.959c-.28882-3.054-.98918-5.79672-3.75318-7.34713a6.86924,6.86924,0,0,0-7.40958.18679c-2.5335,1.63091-3.26755,4.245-3.54079,7.16034Z" style="fill:#282828"/><path d="M126,102.49555a38.71145,38.71145,0,0,1-4.16016-.97372c-5.95971-2.07974-9.13691-6.509-10.0789-12.57193a19.03676,19.03676,0,0,1,1.66049-11.803c2.73768-5.3733,7.38207-7.78513,13.19419-8.12858,6.14448-.36308,11.49227,1.30433,15.11775,6.67371,4.46986,6.61988,3.72028,18.46136-3.25722,23.61385a15.21414,15.21414,0,0,1-7.69981,2.99057c-.39484.03831-.78436.13137-1.17634.19909Zm10.34755-16.65791-.18787-.07357c-.12683-1.18608-.22258-2.37666-.39363-3.55632a9.33081,9.33081,0,0,0-.47426-1.72787,7.54436,7.54436,0,0,0-6.93419-5.36851,7.14856,7.14856,0,0,0-7.11568,4.33043,15.12335,15.12335,0,0,0-.14775,12.2281,7.50774,7.50774,0,0,0,13.97318-.29725A44.42073,44.42073,0,0,0,136.34755,85.83764Z" style="fill:#282828"/><path d="M162,102.49555a37.97554,37.97554,0,0,1-4.63635-1.079c-5.94583-2.16385-9.02034-6.69252-9.8391-12.76523a19.07187,19.07187,0,0,1,1.66312-11.4647c2.79629-5.4697,7.51434-7.881,13.42077-8.18508,6.36578-.32778,11.79479,1.55729,15.27439,7.28377,3.84771,6.33229,3.46821,17.47956-3.54748,22.96876a15.04355,15.04355,0,0,1-7.446,3.019c-.43193.05828-.85968.14755-1.28938.22249ZM155.52177,85.441c.32969,1.86068.4873,3.54346.94023,5.1426a7.58606,7.58606,0,0,0,14.42212.89632,15.37968,15.37968,0,0,0,.02181-11.46973,7.32392,7.32392,0,0,0-7.13221-4.908,7.12769,7.12769,0,0,0-7.00795,5.02716A43.98905,43.98905,0,0,0,155.52177,85.441Z" style="fill:#282828"/><path d="M226.08,102.49555a48.73641,48.73641,0,0,1-5.843-1.53547c-3.04987-1.19873-5.24094-3.30632-5.80247-6.74115a3.41822,3.41822,0,0,1,1.73569-3.50812,3.15418,3.15418,0,0,1,3.96179.47331,20.19343,20.19343,0,0,1,1.64823,2.34364c2.3391,3.46465,7.53362,4.73965,10.954,2.69117a3.19626,3.19626,0,0,0,1.91452-2.94757A3.35216,3.35216,0,0,0,232.471,90.095c-1.70914-.65342-3.48211-1.13844-5.22078-1.71647-2.416-.80322-4.88206-1.49086-7.22413-2.47264-3.03372-1.27172-5.076-3.48921-5.22-6.96144a8.21173,8.21173,0,0,1,4.84524-8.1726c5.87-2.82632,11.85722-2.44551,17.65764.37779a7.06967,7.06967,0,0,1,3.63556,3.9877,3.39173,3.39173,0,0,1-.97355,4.01014,3.92808,3.92808,0,0,1-4.59477-.01441,18.08,18.08,0,0,1-2.21452-2.34553,7.23657,7.23657,0,0,0-8.70523-1.82391,2.97229,2.97229,0,0,0-1.93515,2.53471,2.569,2.569,0,0,0,1.8129,2.58226c2.401.84787,4.88236,1.46613,7.29214,2.29136a50.36592,50.36592,0,0,1,6.7844,2.62147c4.6985,2.418,5.32,6.72488,3.55415,11.04056-1.51568,3.70427-4.72068,5.22192-8.38957,5.98922-.969.20265-1.95636.3173-2.9353.47236Z" style="fill:#282828"/><path d="M263.04,65.05555c-.22157.26141-.46055.51014-.6617.78642a4.01916,4.01916,0,0,1-3.44273,1.82765c-2.5551-.0202-5.11049-.00558-7.82013-.00558-.02508.48395-.06428.9026-.06555,1.32137-.00658,2.15827.01229,4.31672-.00782,6.47482a4.06119,4.06119,0,1,1-8.12054.09687c-.05876-2.15671-.0137-4.31624-.0144-6.47453-.00015-.42874,0-.85747,0-1.419-2.628,0-5.13378.00368-7.63956-.001a4.082,4.082,0,0,1-4.36437-4.08379,4.12876,4.12876,0,0,1,4.3908-4.08051c2.47228-.01345,4.94468-.00292,7.53645-.00292.0289-.45827.07249-.83907.07371-1.22.00707-2.19823-.02691-4.39706.01286-6.59461a4.06878,4.06878,0,0,1,4.14773-4.17591,4.01225,4.01225,0,0,1,3.97825,4.20779c.01594,2.54591.00359,5.092.00359,7.78278,2.089,0,4.0436.1117,5.98017-.02767,2.54206-.183,4.663.34885,6.01327,2.70787Z" style="fill:#282828"/><path d="M36.96,56.41555c.54085-.65038.89651-1.49751,1.97509-1.49639a2.22942,2.22942,0,0,1,2.1192,1.04364c1.65764,2.59077,3.36808,5.14776,5.05922,7.71707.1757.26694.3022.64527.5515.7667a5.77731,5.77731,0,0,0,1.32817.31127c-.03375-.48591.11912-1.13268-.13556-1.42816-.82906-.96185-1.92072-1.70571-2.7029-2.69778a3.40869,3.40869,0,0,1,1.27745-5.24928,5.016,5.016,0,0,1,1.9676-.39079c2.83868-.041,5.67833-.02416,8.51757-.0135,1.28163.00481,1.90231.50161,1.906,1.47372.00373.9693-.64686,1.52234-1.86071,1.56526-.63874.02259-1.2783.02185-1.91725.03987-.06985.002-.13815.05855-.3218.14169,0,2.01881-.01221,4.0887.01828,6.158.00316.21463.26008.42553.39926.63815.26235-.1928.64843-.32872.76734-.58744.89973-1.9577,1.74452-3.94061,2.61212-5.91315.3054-.69437.63033-1.38014.93976-2.07277A2.29683,2.29683,0,0,1,61.732,54.973,2.26146,2.26146,0,0,1,63.98,56.4476c1.33373,3.03245,2.64953,6.07319,4.02545,9.08644a1.50555,1.50555,0,0,1-.62988,2.22736c-.81092.45139-1.5954.0919-2.02324-1.04881a1.36452,1.36452,0,0,0-1.61322-1.00322c-.79548.058-1.599.02445-2.39834.00543a1.42373,1.42373,0,0,1-1.59462-1.429c-.03232-1.02541.63638-1.50361,1.59981-1.56112.67133-.04007,1.347-.00772,2.24632-.00772L61.703,58.42258c-.96977,2.21191-1.8202,4.17114-2.6888,6.12228a10.0117,10.0117,0,0,1-1.00906,2.02251,3.20754,3.20754,0,0,1-3.83725,1.1378,3.54532,3.54532,0,0,1-2.532-3.40889c-.03654-2.06844-.0088-4.138-.0088-6.33711-1.15673,0-2.18806-.0226-3.21723.01459-.2866.01035-.7915.17308-.80626.30845a1.51744,1.51744,0,0,0,.25229,1.07843,13.05648,13.05648,0,0,0,1.62526,1.4062,3.96061,3.96061,0,0,1,1.66457,4.39993,3.55274,3.55274,0,0,1-3.04546,2.69683,4.01593,4.01593,0,0,1-4.20185-2.14273,53.78117,53.78117,0,0,0-3.81724-5.29575c0,1.73232-.01492,3.46482.00611,5.19688.011.90506.05339,1.81492-1.00219,2.19769-1.06767.38715-1.59413-.37293-2.12506-1.08414Z" style="fill:#282828"/><path d="M100.56974,78.28248c.68307.29765,1.14438.50247,1.60865.70038,5.16485,2.20175,7.42441,6.37118,6.6739,12.31733a12.02654,12.02654,0,0,1-9.47071,9.78748c-4.28548.81514-8.59014.66393-12.89959.68655-2.99945.01576-5.999.00542-8.99858.00242-3.72878-.00374-5.31361-1.54163-5.33041-5.35129-.03636-8.23855-.01437-16.47736-.01593-24.71606-.00052-2.71958-.00421-5.43916.003-8.15872a18.38464,18.38464,0,0,1,.071-1.91718c.28256-2.62307,1.54374-4.14719,4.37516-4.17,6.98718-.05636,14.02488-.25783,20.95257.46217a10.64482,10.64482,0,0,1,8.47541,15.10372,10.40982,10.40982,0,0,1-4.71392,4.78555C101.12829,77.90873,100.96888,78.02576,100.56974,78.28248ZM81.287,95.09138c4.558-.18748,9.07572-.1267,13.5277-.63837,3.26787-.37558,4.918-2.76207,4.96589-5.942.047-3.12388-1.46639-5.405-4.86879-5.80607-4.4157-.52052-8.913-.34924-13.37533-.46916-.06218-.00167-.12667.08253-.24947.168Zm.02788-19.39913c3.98727-.14061,7.8906-.14036,11.7677-.45908a5.07879,5.07879,0,0,0,4.914-5.33445c.01069-2.86968-.81611-4.47677-4.32111-5.14488a7.44273,7.44273,0,0,0-1.16966-.207q-5.31942-.1401-10.63985-.24121a2.82559,2.82559,0,0,0-.5511.09709Z" style="fill:#282828"/></svg>