<svg id="Layer_1" data-name="Layer 1" xmlns="http://www.w3.org/2000/svg" xmlns:xlink="http://www.w3.org/1999/xlink" viewBox="0 0 300 150"><defs><style>.cls-1{fill:none;}.cls-2{fill:#f7f7f7;}.cls-3{fill:#002f54;}.cls-4{fill:#00aeef;}.cls-5{clip-path:url(#clip-path);}.cls-6{fill:url(#radial-gradient);}</style><clipPath id="clip-path"><path class="cls-1" d="M57.71,90.05a28.74,28.74,0,0,0,8.67-1.37,18.86,18.86,0,0,0,1.88-.74,10.56,10.56,0,0,1-3.18,4.36,21.45,21.45,0,0,1-9.51,3.94,22.31,22.31,0,0,0,2.14-6.19M43.07,94.36a1.1,1.1,0,0,0-.21-.14c-1.22-.6-1.72-3.32-1.08-7.49A39.19,39.19,0,0,0,55.44,90c-1,4.24-2.23,6.46-3,6.46h-.16a21.35,21.35,0,0,1-9.16-2.11M31.71,80.88a12.49,12.49,0,0,1-.35-2.19,19.37,19.37,0,0,0,2.7,3.06,27,27,0,0,0,5.66,4,20.26,20.26,0,0,0-.29,6.42,21.59,21.59,0,0,1-7.72-11.25M59.09,75q0-1.29,0-2.58a17.05,17.05,0,0,0,7.35-2.09,25.8,25.8,0,0,1,3,11.61A18.21,18.21,0,0,1,69.09,85a16.53,16.53,0,0,1-3.41,1.57,26.05,26.05,0,0,1-7.55,1.25,81.21,81.21,0,0,0,1-12.88M49.84,87a35.17,35.17,0,0,1-7.64-2.55,56.27,56.27,0,0,1,4.46-12.26c.32-.67.66-1.33,1-2a25.91,25.91,0,0,0,5.11,1.66,24,24,0,0,0,4.09.5q0,1.23,0,2.55a74.24,74.24,0,0,1-1,12.86,36.62,36.62,0,0,1-6-.78M35.56,80.13a14.1,14.1,0,0,1-3.82-5.38,17.11,17.11,0,0,1,3-6,23.66,23.66,0,0,1,5.15-5,12.48,12.48,0,0,0,2.41,3,18.17,18.17,0,0,0,3.39,2.48q-.53,1-1,2a61.41,61.41,0,0,0-4.49,12.2,24.58,24.58,0,0,1-4.63-3.33m22-20.47a29.74,29.74,0,0,1,6.72,7.08c.36.54.71,1.08,1,1.63A15.07,15.07,0,0,1,59,70.16a62.87,62.87,0,0,0-1.37-10.5M53.23,69.75a23.44,23.44,0,0,1-4.5-1.44,47.09,47.09,0,0,1,6.52-9.05A58.56,58.56,0,0,1,56.77,70.2a21.57,21.57,0,0,1-3.54-.45m-9.41-4.59a10.12,10.12,0,0,1-2.07-2.63,29.39,29.39,0,0,1,6.78-3,32.12,32.12,0,0,1,4.38-1,51.66,51.66,0,0,0-6.15,8.76,16.06,16.06,0,0,1-2.94-2.16m-4.74-7c0,.11-.06.23-.08.34a6.89,6.89,0,0,0,.06,3.16A26.4,26.4,0,0,0,33,67.38a20.89,20.89,0,0,0-1.35,2,21.53,21.53,0,0,1,7.44-11.26m2.07.8a5.29,5.29,0,0,1,2-3,13.89,13.89,0,0,1,8.71.57,34.27,34.27,0,0,0-4,.93,32.28,32.28,0,0,0-6.82,2.94,4.57,4.57,0,0,1,.07-1.43M59,56a6.87,6.87,0,0,1,2-1,16.06,16.06,0,0,1,3.24,1.72A27,27,0,0,0,59,56m-3.71-2.36a26.6,26.6,0,0,1,2.83.48,14.59,14.59,0,0,0-1.9,1.24,12,12,0,0,0-.93-1.72m-2.39.87a20.19,20.19,0,0,0-3-.89,20.66,20.66,0,0,1,2.37-.14c.37,0,.83.46,1.32,1.33-.25-.1-.49-.21-.74-.3M28.69,75a23.55,23.55,0,0,0,.91,6.49c0,.14.07.28.11.42l0,.07A23.66,23.66,0,0,0,65.64,94.6l.12-.06c.22-.16.44-.32.65-.49a23.69,23.69,0,0,0,8.93-13.3c.08-.25.14-.5.2-.76,0-.06,0-.12,0-.18a23.81,23.81,0,0,0-1.37-14,1.1,1.1,0,0,0-2,.86,21.49,21.49,0,0,1,1.06,13.52A7.87,7.87,0,0,1,71.53,83c0-.38,0-.75,0-1.14A28.34,28.34,0,0,0,68.24,69a8.59,8.59,0,0,0,3-4.94,1.1,1.1,0,0,0-2.17-.4,6.27,6.27,0,0,1-1.89,3.37c-.32-.52-.64-1-1-1.55a32.24,32.24,0,0,0-6.74-7.24,21.14,21.14,0,0,1,8.85,2.4A1.1,1.1,0,0,0,69.66,59c-3.55-5-9.69-7.7-17.29-7.7A23.7,23.7,0,0,0,28.69,75"/></clipPath><radialGradient id="radial-gradient" cx="-153.92" cy="-33.87" r="0.65" gradientTransform="matrix(60.74, 0, 0, -60.74, 9423.59, -1997.29)" gradientUnits="userSpaceOnUse"><stop offset="0" stop-color="#fff"/><stop offset="0.06" stop-color="#ebf9fe"/><stop offset="0.18" stop-color="#b6e8fa"/><stop offset="0.36" stop-color="#60cdf5"/><stop offset="0.54" stop-color="#00aeef"/><stop offset="1" stop-color="#002f54"/></radialGradient></defs><rect class="cls-2" width="300" height="150"/><path class="cls-3" d="M137,94.1a.44.44,0,0,1-.43-.45V56.35a.43.43,0,1,1,.85,0v37.3a.44.44,0,0,1-.42.45"/><polygon class="cls-4" points="149.58 84.01 150.74 79.17 152.14 79.17 150.34 85.41 148.91 85.41 147.75 81.25 146.57 85.41 145.13 85.41 143.34 79.17 144.79 79.17 145.9 84.01 147.24 79.17 148.28 79.17 149.58 84.01"/><path class="cls-4" d="M152.24,83.25a2,2,0,1,1,2,2.21,2,2,0,0,1-2-2.21m2.85,0c0-.75-.27-1.19-.85-1.19s-.84.44-.84,1.19.25,1.19.84,1.19.85-.44.85-1.19"/><path class="cls-4" d="M157.28,85.41v-3c0-.24-.08-.39-.36-.39v-.87a1.43,1.43,0,0,1,.48-.06.8.8,0,0,1,.88.66v.1a1.18,1.18,0,0,1,1.27-.77,1.2,1.2,0,0,1,.68.17l-.47,1a1,1,0,0,0-.56-.13.79.79,0,0,0-.76.83v2.46Z"/><path class="cls-4" d="M162.33,85.39a1.64,1.64,0,0,1-.52.07c-.65,0-1-.36-1-1.14V78.93H162v5.21c0,.24.09.38.36.38Z"/><path class="cls-4" d="M167.41,85.39a1.64,1.64,0,0,1-.52.07.78.78,0,0,1-.87-.65v0a1.32,1.32,0,0,1-1.3.7c-.83,0-1.73-.67-1.73-2.19s.92-2.21,1.86-2.21a1.14,1.14,0,0,1,1,.44V78.94h1.16v5.18c0,.26.08.4.36.4Zm-1.52-2.58a.86.86,0,0,0-.85-.74c-.5,0-.89.39-.89,1.19s.45,1.19.9,1.19a.89.89,0,0,0,.84-.77Z"/><path class="cls-4" d="M170.36,85.41V79.17h2.36c1.27,0,2,.48,2,1.65s-.66,1.29-1,1.29v0a1.46,1.46,0,0,1,1.39,1.53c0,1.3-1,1.75-2.17,1.75Zm2.22-3.64c.66,0,.89-.33.89-.81s-.33-.79-1.06-.79h-.82v1.6Zm.13,2.64c.62,0,1.08-.2,1.08-.88s-.48-.89-1.11-.89h-1.09v1.77Z"/><path class="cls-4" d="M180.2,85.39a1.61,1.61,0,0,1-.51.07.78.78,0,0,1-.88-.66v-.06a1.34,1.34,0,0,1-1.31.72c-.84,0-1.71-.67-1.71-2.19s.85-2.21,1.78-2.21a1.74,1.74,0,0,1,1.24.52v-.47h1v3c0,.24.08.38.36.38Zm-1.53-2.58a.86.86,0,0,0-.86-.74c-.5,0-.87.39-.87,1.19s.45,1.19.88,1.19c.73,0,.84-.77.85-.73Z"/><path class="cls-4" d="M185.37,85.39a1.64,1.64,0,0,1-.52.07c-.66,0-1-.36-1-1.14V82.87a.69.69,0,0,0-.7-.79.82.82,0,0,0-.78.87v2.46H181.2v-3c0-.24-.08-.39-.35-.39v-.87a1.77,1.77,0,0,1,.51-.06.76.76,0,0,1,.85.62v.11a1.2,1.2,0,0,1,1.28-.74c1.08,0,1.52.77,1.52,1.7v1.38c0,.24.08.38.36.38Z"/><path class="cls-4" d="M190.39,85.37a1.26,1.26,0,0,1-.47.09c-1.5,0-1-1.92-2.28-1.92h-.34v1.87h-1.15V78.93h1.15v3.7h.44c.65,0,1.11-.56,1.11-1.52h1.09A1.84,1.84,0,0,1,188.85,83c.78.42.58,1.52,1.44,1.52h.1Z"/><path class="cls-4" d="M194.3,84a1.16,1.16,0,1,1,1.16-1.16A1.15,1.15,0,0,1,194.3,84"/><rect class="cls-4" x="198.7" y="79.17" width="1.23" height="6.24"/><polygon class="cls-4" points="201.25 85.41 201.25 79.17 205.19 79.17 205.19 80.17 202.48 80.17 202.48 81.89 204.61 81.89 204.61 82.87 202.48 82.87 202.48 85.41 201.25 85.41"/><path class="cls-4" d="M210.84,84.3a2.66,2.66,0,0,1-2.27,1.16c-1.72,0-2.91-1.06-2.91-3.16s1.07-3.19,2.76-3.19a2.2,2.2,0,0,1,2.4,2.18l-1.14.19s0-1.29-1.25-1.29c-.86,0-1.51.65-1.51,2.11s.83,2.08,1.72,2.08a2,2,0,0,0,1.48-.84Z"/><path class="cls-4" d="M214.84,84a1.16,1.16,0,0,1,0-2.32,1.16,1.16,0,0,1,0,2.32"/><polygon class="cls-4" points="220.47 81.65 220.47 85.41 219.24 85.41 219.24 79.17 220.49 79.17 222.35 83.06 224.27 79.17 225.45 79.17 225.45 85.41 224.22 85.41 224.25 81.54 222.74 84.63 221.89 84.63 220.47 81.65"/><rect class="cls-4" x="226.77" y="79.17" width="1.23" height="6.24"/><path class="cls-4" d="M234.19,83.21a2.17,2.17,0,0,1-2.37,2.25c-1.66,0-2.78-1.06-2.78-3.16s1.08-3.19,2.76-3.19a2.24,2.24,0,0,1,2.36,2.12l-1.14.18a1.21,1.21,0,0,0-1.2-1.22c-.86,0-1.51.65-1.51,2.11s.73,2.08,1.54,2.08A1.07,1.07,0,0,0,233,83.22v-.14h-1.4v-.92h2.55Z"/><path class="cls-4" d="M238.56,83.85h-2.21l-.53,1.56h-1.28l2.29-6.24h1.26l2.29,6.24H239.1Zm-1.88-.94h1.57l-.8-2.26Z"/><path class="cls-3" d="M267.65,64.61c2.36,0,3.66,1.15,3.66,3.22S270,71,267.88,71h-1.5v3h-2V64.61Zm-1.27,4.73h1.18c1.16,0,1.75-.51,1.75-1.51s-.64-1.57-1.81-1.57h-1.12Zm-5.66.88c0,1.37-.53,2-1.61,2s-1.65-.69-1.65-2V64.61h-2v5.48a4.12,4.12,0,0,0,1,3,3.58,3.58,0,0,0,2.65.93c1.64,0,3.6-.68,3.6-4V64.61h-2ZM250,64.53c2,0,4.18,1.26,4.18,4.77S252.05,74,250,74s-4.19-1.25-4.19-4.74S248,64.53,250,64.53m0,7.77c.79,0,2.12-.39,2.12-3s-1.33-3-2.12-3c-1.38,0-2.14,1.07-2.14,3s.76,3,2.14,3m-6.25-1.17c.33.67.61,1.25,1.27,1.25h.47v1.54h-.06a4.34,4.34,0,0,1-1,.1c-1.57,0-2.05-1.08-2.47-2-.36-.78-.65-1.45-1.47-1.45h-.88V74h-2V64.61H241c2.42,0,3.55,1,3.55,3A2.5,2.5,0,0,1,243,70a3.92,3.92,0,0,1,.76,1.18M239.67,69h1.1c1.12,0,1.8-.51,1.8-1.34s-.6-1.38-1.65-1.38h-1.25Zm-7.3,1.57h2.06v.1a1.48,1.48,0,0,1-1.65,1.62c-1.35,0-2.16-1.11-2.16-3s.77-3,2.12-3A1.65,1.65,0,0,1,234.4,68v.11l1.86-.29v-.08a3.37,3.37,0,0,0-3.55-3.2c-2.63,0-4.15,1.74-4.15,4.77S230.12,74,232.74,74a3.26,3.26,0,0,0,3.56-3.4V69h-3.93Zm-6-5.94H224L221,68.82V64.61h-2V74h2v-4.3l3.17,4.3h2.39l-3.61-4.71Zm-11.26,5.78-3.27-5.78h-2V74h2V68.39L215.1,74h2V64.61h-2Zm-9.24-5.71L209.32,74h-2.07l-.8-2.29h-3.11L202.56,74h-2.08l3.44-9.35h2Zm-1,2.48-1,3h2.05ZM198.63,69a2.27,2.27,0,0,1,1.66,2.28c0,1.68-1.2,2.65-3.29,2.65h-3.94V64.61h3.56c2,0,3,.85,3,2.52,0,1.29-.58,1.74-1,1.9m-2.22-.59c.83,0,1.22-.36,1.22-1.1s-.49-1.08-1.47-1.08h-1.11v2.18Zm-1.36,3.87h1.56c1,0,1.49-.38,1.49-1.2,0-1-.83-1.22-1.54-1.22h-1.51Zm-10.2-7.7c2.92,0,4.65,1.81,4.65,4.83S188,74,185.25,74h-3.18V64.61Zm-.78,7.7h1.16c1.43,0,2.29-1.08,2.29-2.89,0-2.09-.9-3.16-2.7-3.16h-.75Zm-7-7.7h-2V74h6V72.31H177.1Zm-4.68,6.52c.33.67.62,1.25,1.28,1.25h.47v1.54h-.07a4,4,0,0,1-1,.1c-1.58,0-2.06-1.08-2.49-2-.35-.78-.65-1.45-1.47-1.45h-.88V74h-2V64.61h3.31c2.43,0,3.56,1,3.56,3A2.51,2.51,0,0,1,171.67,70a3.71,3.71,0,0,1,.75,1.18M168.3,69h1.11c1.11,0,1.8-.51,1.8-1.34s-.6-1.38-1.65-1.38H168.3ZM161,64.53c2,0,4.18,1.26,4.18,4.77S163,74,161,74s-4.19-1.25-4.19-4.74S159,64.53,161,64.53m0,7.77c.79,0,2.12-.39,2.12-3s-1.33-3-2.12-3c-1.38,0-2.13,1.07-2.13,3s.75,3,2.13,3m-6.73-7.69h2.26L153.85,74h-2.26L150,68.1,148.3,74h-2.25l-2.68-9.35h2.31l1.58,6.83,1.88-6.83h1.67l1.83,6.83Z"/><rect class="cls-3" x="84.16" y="56.5" width="3.15" height="23.12"/><polygon class="cls-3" points="92.81 79.62 92.81 56.5 104.7 56.5 104.7 59.1 95.97 59.1 95.97 66.44 104.29 66.44 104.29 68.97 95.97 68.97 95.97 76.98 104.7 76.98 104.7 79.62 92.81 79.62"/><path class="cls-3" d="M119.42,79.93c-7.22,0-11.47-4.25-11.47-11.3,0-7.23,4.25-12.44,12.43-12.44a21.56,21.56,0,0,1,6.41,1L126.1,60a17,17,0,0,0-6-1.13c-6.23,0-8.77,4.38-8.77,9.25,0,5.75,3.19,9,8.57,9a13.43,13.43,0,0,0,4.07-.62V67.84h3.12V78.59a22.69,22.69,0,0,1-7.64,1.34"/><rect class="cls-3" x="84.18" y="83.16" width="0.62" height="4.58"/><path class="cls-3" d="M88.09,85.34c0,.5,0,1.26,0,1.7-.09-.17-.18-.34-.28-.51l-1.23-2v0H86v3.28h.5v-.93c0-.48,0-1.21,0-1.62.07.14.16.29.27.48l1.24,2v0h.64V84.49h-.5Z"/><path class="cls-3" d="M90.45,84.48h-1v3.27h.84a1.62,1.62,0,0,0,1.83-1.69,1.46,1.46,0,0,0-1.68-1.62m-.49.44h.45a1.06,1.06,0,0,1,1.19,1.22,1.12,1.12,0,0,1-1.25,1.23l-.39,0Z"/><polygon class="cls-3" points="92.82 87.77 94.54 87.77 94.54 87.33 93.33 87.33 93.33 86.29 94.48 86.29 94.48 85.87 93.33 85.87 93.33 84.92 94.54 84.92 94.54 84.49 92.82 84.49 92.82 87.77"/><path class="cls-3" d="M96.1,84.47l-.8,0h0v3.28h.51V86.55H96a1.15,1.15,0,0,0,1.28-1.1c0-.61-.44-1-1.18-1m-.32.44h.27c.47,0,.7.2.7.59s-.28.63-.74.63h-.23Z"/><polygon class="cls-3" points="97.87 87.77 99.59 87.77 99.59 87.33 98.38 87.33 98.38 86.29 99.54 86.29 99.54 85.87 98.38 85.87 98.38 84.92 99.59 84.92 99.59 84.49 97.87 84.49 97.87 87.77"/><path class="cls-3" d="M102.46,85.34c0,.5,0,1.26,0,1.7-.08-.17-.18-.34-.28-.51l-1.23-2v0h-.63v3.28h.49v-.93c0-.48,0-1.21,0-1.62.07.14.16.29.27.48l1.24,2v0H103V84.49h-.49Z"/><path class="cls-3" d="M104.82,84.48h-1v3.27h.85a1.61,1.61,0,0,0,1.82-1.69,1.46,1.46,0,0,0-1.67-1.62m-.49.44h.44A1.06,1.06,0,0,1,106,86.12a1.12,1.12,0,0,1-1.24,1.23l-.39,0Z"/><polygon class="cls-3" points="107.18 87.77 108.9 87.77 108.9 87.33 107.69 87.33 107.69 86.29 108.85 86.29 108.85 85.87 107.69 85.87 107.69 84.92 108.9 84.92 108.9 84.49 107.18 84.49 107.18 87.77"/><path class="cls-3" d="M111.76,85.34c0,.5,0,1.26,0,1.7-.08-.17-.18-.34-.28-.51l-1.23-2v0h-.64v3.28h.5v-.93c0-.48,0-1.21,0-1.62.07.14.16.29.27.48l1.24,2v0h.64V84.49h-.5Z"/><polygon class="cls-3" points="112.82 84.49 112.82 84.93 113.74 84.93 113.74 87.77 114.25 87.77 114.25 84.93 115.18 84.93 115.18 84.49 112.82 84.49"/><polygon class="cls-3" points="84.18 93.72 84.18 89.14 86.53 89.14 86.53 89.66 84.81 89.66 84.81 91.11 86.45 91.11 86.45 91.61 84.81 91.61 84.81 93.2 86.53 93.2 86.53 93.72 84.18 93.72"/><path class="cls-3" d="M90.05,90.48h-.53l-.74,2c-.08.21-.15.41-.2.59l-.15-.49-.74-2.13v0h-.56l1.17,3.25v0h.54L90,90.52Z"/><path class="cls-3" d="M91.72,90.48h-.54L90,93.76h.52l.26-.75h1.32l.27.75h.56L91.73,90.5Zm-.29.62a3.18,3.18,0,0,0,.11.33L92,92.59h-1l.41-1.17c0-.1.07-.2.11-.32"/><polygon class="cls-3" points="93.95 90.48 93.44 90.48 93.44 93.76 95.1 93.76 95.1 93.31 93.95 93.31 93.95 90.48"/><path class="cls-3" d="M97.62,92.53c0,.61-.22.84-.79.84s-.76-.41-.76-.76V90.48h-.5v2.16c0,.78.4,1.16,1.23,1.16a1.17,1.17,0,0,0,1.32-1.3v-2h-.5Z"/><path class="cls-3" d="M100.25,90.48h-.54l-1.19,3.28H99l.27-.75h1.31l.27.75h.56l-1.19-3.26Zm-.29.62.11.33.41,1.16h-1l.42-1.17c0-.1.07-.2.1-.32"/><polygon class="cls-3" points="101.38 90.91 102.31 90.91 102.31 93.76 102.81 93.76 102.81 90.91 103.74 90.91 103.74 90.48 101.38 90.48 101.38 90.91"/><rect class="cls-3" x="104.3" y="90.47" width="0.51" height="3.28"/><path class="cls-3" d="M107.05,90.43a1.58,1.58,0,0,0-1.56,1.73c0,1,.54,1.64,1.47,1.64a1.57,1.57,0,0,0,1.56-1.72c0-1-.54-1.65-1.47-1.65m0,2.91c-.62,0-1-.45-1-1.25s.39-1.21,1-1.21,1,.46,1,1.26-.39,1.2-1,1.2"/><path class="cls-3" d="M111.33,90.48v.85c0,.5,0,1.25,0,1.7-.08-.17-.18-.35-.28-.52l-1.23-2h-.65v3.28h.5v-.93c0-.48,0-1.22,0-1.63a5,5,0,0,0,.27.48l1.24,2.06v0h.64V90.48Z"/><path class="cls-3" d="M116.39,93.78a2.07,2.07,0,0,1-2.27-2.24,2.27,2.27,0,0,1,2.46-2.46,4.38,4.38,0,0,1,1.27.2l-.14.56a3.4,3.4,0,0,0-1.19-.22,1.65,1.65,0,0,0-1.74,1.83,1.59,1.59,0,0,0,1.7,1.79,2.8,2.8,0,0,0,.8-.12V91.39h.62v2.13a4.48,4.48,0,0,1-1.51.26"/><path class="cls-3" d="M120,92.23a.92.92,0,0,0,.94-.9c0-.62-.46-.84-1.09-.84l-.8,0v3.21h.44V92.29h0l1.05,1.43h.56l-.88-1.14-.27-.35m-.51-.28V90.86h.29c.46,0,.7.15.7.54s-.26.57-.72.57h-.27"/><path class="cls-3" d="M121.25,93.76h-.64l0,0-1-1.42v1.44H119V90.48h0c.22,0,.45,0,.81,0,.74,0,1.13.3,1.13.87a1,1,0,0,1-.91.93l.23.29Zm-.61-.07h.47l-.83-1.09-.28-.34,0-.06H120a.9.9,0,0,0,.9-.87c0-.53-.35-.8-1.05-.8h-.77v3.15h.37V92.25h.12ZM119.79,92h-.31V90.83h.33c.5,0,.74.19.74.58S120.25,92,119.79,92Zm-.24-.08h.24c.42,0,.69-.21.69-.54s-.21-.51-.67-.51h-.26Z"/><path class="cls-3" d="M123.11,90.46a1.53,1.53,0,0,0-1.52,1.7c0,1,.46,1.61,1.43,1.61a1.54,1.54,0,0,0,1.52-1.69c0-1-.47-1.62-1.43-1.62m0,2.92c-.68,0-1-.52-1-1.29s.46-1.24,1-1.24,1,.52,1,1.29-.45,1.24-1,1.24"/><path class="cls-3" d="M123,93.8c-.93,0-1.47-.6-1.47-1.64a1.58,1.58,0,0,1,1.56-1.73c.93,0,1.47.6,1.47,1.65A1.57,1.57,0,0,1,123,93.8Zm.09-3.3a1.49,1.49,0,0,0-1.49,1.66c0,1,.5,1.57,1.4,1.57a1.51,1.51,0,0,0,1.49-1.65C124.51,91.06,124,90.5,123.11,90.5Zm0,2.91c-.66,0-1-.48-1-1.32,0-.63.32-1.28,1-1.28s1,.49,1,1.33S123.58,93.41,123.06,93.41Zm0-2.53c-.59,0-1,.49-1,1.21s.35,1.25,1,1.25,1-.48,1-1.2S123.68,90.88,123.07,90.88Z"/><path class="cls-3" d="M127.35,92.53c0,.64-.27.88-.83.88s-.79-.36-.79-.8v-2.1h-.44v2.13c0,.57.2,1.13,1.2,1.13a1.14,1.14,0,0,0,1.28-1.27v-2h-.42Z"/><path class="cls-3" d="M126.49,93.8c-.83,0-1.23-.38-1.23-1.16V90.48h.5v2.13c0,.35.09.76.76.76s.79-.23.79-.84v-2h.5v2A1.17,1.17,0,0,1,126.49,93.8Zm-1.16-3.25v2.09c0,.47.12,1.09,1.16,1.09a1.1,1.1,0,0,0,1.25-1.23v-2h-.36v2c0,.64-.26.91-.86.91s-.83-.47-.83-.83V90.55Z"/><path class="cls-3" d="M129.5,90.49l-.79,0v3.21h.44V92.5h.25a1.11,1.11,0,0,0,1.24-1.07c0-.57-.4-.94-1.14-.94m-.09,1.65a1.1,1.1,0,0,1-.26,0V90.86h.3c.51,0,.74.23.74.63s-.31.66-.78.66"/><path class="cls-3" d="M129.18,93.76h-.51V90.48h0l.79,0c.74,0,1.18.36,1.18,1a1.15,1.15,0,0,1-1.28,1.11h-.22Zm-.44-.07h.37V92.46h.29a1.09,1.09,0,0,0,1.21-1c0-.56-.42-.9-1.11-.9h-.76Zm.67-1.51-.27,0h0V90.82h.34c.51,0,.77.23.77.66S129.9,92.17,129.41,92.18Zm-.23-.09.23,0c.46,0,.74-.25.74-.63s-.23-.59-.7-.59h-.27Z"/><g class="cls-5"><rect class="cls-6" x="28.69" y="51.32" width="47.36" height="47.36"/></g></svg>