<svg id="Layer_1" data-name="Layer 1" xmlns="http://www.w3.org/2000/svg" viewBox="0 0 300 150"><rect x="0.59337" y="-0.38289" width="300" height="150" style="fill:#e8e9ea"/><path d="M24.7268,80.43812a.72449.72449,0,0,0,.78742-.68127V76.23223l2.29151,3.4073a2.051,2.051,0,0,0,2.93661.31689,1.9498,1.9498,0,0,0,.0953-2.85436c-.6484-.649-1.528-1.05729-1.45659-1.52688a.34542.34542,0,0,1,.31107-.32947h1.95732v3.54774A1.94305,1.94305,0,0,0,32.9983,80.368a1.85985,1.85985,0,0,0,2.10059-.81117s1.194-2.73641,1.80288-4.12238l1.06233,2.3725H36.61539a.747.747,0,0,0-.71618.72829.70179.70179,0,0,0,.71556.752h1.98169l.34614.77484a.70445.70445,0,0,0,.95539.30588.73982.73982,0,0,0,.38168-.88131l-2.30409-5.16882a1.1293,1.1293,0,0,0-1.07381-.58692,1.20016,1.20016,0,0,0-1.09818.65768l-1.94647,4.3575a.381.381,0,0,1-.50246.24722.36264.36264,0,0,1-.18919-.36438V75.258h1.528a.73845.73845,0,0,0,.68017-.79874.69763.69763,0,0,0-.65658-.70487H29.68567A1.827,1.827,0,0,0,27.949,75.04693c-.38169,1.52672.76226,2.09319,1.85053,3.10032a.50508.50508,0,0,1-.08382.7404.52256.52256,0,0,1-.70439-.11732l-3.067-4.6519a.96794.96794,0,0,0-.89562-.434,1.01927,1.01927,0,0,0-1.02663.92786v5.15609a.73288.73288,0,0,0,.70471.66979" style="fill:#282828"/><path d="M36.92826,90.8978h-8.456a5.73378,5.73378,0,0,0,.59383,2.59628,3.97252,3.97252,0,0,0,3.65012,2.26462,5.17911,5.17911,0,0,0,1.417-.18164,4.62465,4.62465,0,0,0,1.24286-.57072,9.3718,9.3718,0,0,0,1.10841-.83114q.50694-.443,1.31426-1.20324a1.41838,1.41838,0,0,1,.95035-.285,1.56949,1.56949,0,0,1,1.07679.36391,1.30455,1.30455,0,0,1,.41172,1.02946,2.81678,2.81678,0,0,1-.45937,1.36993,5.45479,5.45479,0,0,1-1.38534,1.50424A7.90434,7.90434,0,0,1,36.065,98.14991a10.036,10.036,0,0,1-3.222.4751,8.6217,8.6217,0,0,1-6.47649-2.37549,8.84293,8.84293,0,0,1-2.31211-6.4444,10.74152,10.74152,0,0,1,.5704-3.55466,7.83554,7.83554,0,0,1,1.66261-2.81079,7.20768,7.20768,0,0,1,2.6919-1.79738,9.662,9.662,0,0,1,3.5468-.62529,8.41216,8.41216,0,0,1,4.34664,1.06862,7.03651,7.03651,0,0,1,2.71534,2.76314,7.26392,7.26392,0,0,1,.90254,3.45165q0,1.63194-.934,2.11443a5.824,5.824,0,0,1-2.62837.483m-8.456-2.45491h7.8384a5.25576,5.25576,0,0,0-1.196-3.31719,3.57988,3.57988,0,0,0-2.73106-1.10054,3.45812,3.45812,0,0,0-2.65212,1.1169,5.54626,5.54626,0,0,0-1.25922,3.30083" style="fill:#282828"/><path d="M52.33511,98.22911H45.24168a2.935,2.935,0,0,1-2.19322-.689,3.09379,3.09379,0,0,1-.65753-2.19321V77.89774a3.038,3.038,0,0,1,.67325-2.20894,2.98649,2.98649,0,0,1,2.1775-.67325H52.763a17.55884,17.55884,0,0,1,2.88156.20586,6.14793,6.14793,0,0,1,2.1852.79167A5.73962,5.73962,0,0,1,59.28653,77.256a5.48814,5.48814,0,0,1,.96608,1.66323,5.565,5.565,0,0,1,.33246,1.92335,5.33721,5.33721,0,0,1-3.48389,5.09884Q61.67735,87.399,61.67775,91.61a6.36947,6.36947,0,0,1-.99785,3.50748,5.982,5.982,0,0,1-2.69175,2.30361,9.5349,9.5349,0,0,1-2.43855.62545,24.75321,24.75321,0,0,1-3.21449.18258m-5.2407-19.68233V84.548h4.3067a8.65053,8.65053,0,0,0,2.7155-.33262,2.59254,2.59254,0,0,0,1.46445-1.26661,2.85318,2.85318,0,0,0,.39615-1.48867,2.31023,2.31023,0,0,0-1.251-2.3357,9.56136,9.56136,0,0,0-3.81587-.57763Zm4.89236,9.37409H47.09441V94.698h5.051q4.76537,0,4.76607-3.43655a2.8021,2.8021,0,0,0-1.235-2.54927,6.92447,6.92447,0,0,0-3.68975-.79135" style="fill:#282828"/><path d="M80.2669,89.83692a10.2264,10.2264,0,0,1-.60138,3.56237,7.87714,7.87714,0,0,1-1.74218,2.80309A7.6957,7.6957,0,0,1,75.2,97.99928a9.6183,9.6183,0,0,1-3.563.62576,9.36572,9.36572,0,0,1-3.53091-.6333,7.7949,7.7949,0,0,1-4.45721-4.60016,10.18616,10.18616,0,0,1-.594-3.55466,10.30992,10.30992,0,0,1,.60186-3.59429,7.82206,7.82206,0,0,1,1.726-2.78736,7.62219,7.62219,0,0,1,2.72336-1.7815,10.3082,10.3082,0,0,1,7.0939.00834,7.66105,7.66105,0,0,1,4.47325,4.59182,10.26143,10.26143,0,0,1,.59367,3.563m-4.33878,0a6.48687,6.48687,0,0,0-1.16345-4.11719A3.78049,3.78049,0,0,0,71.637,84.24741a3.87419,3.87419,0,0,0-2.23238.65674,4.1665,4.1665,0,0,0-1.4882,1.9397,8.80457,8.80457,0,0,0-.00849,5.95358,4.23934,4.23934,0,0,0,1.4731,1.93971,3.8214,3.8214,0,0,0,2.256.67325,3.77345,3.77345,0,0,0,3.12768-1.48018,6.46588,6.46588,0,0,0,1.16345-4.09329" style="fill:#282828"/><path d="M99.04354,89.83692a10.21191,10.21191,0,0,1-.602,3.56237,7.86518,7.86518,0,0,1-1.7417,2.80309,7.6934,7.6934,0,0,1-2.72383,1.7969,9.615,9.615,0,0,1-3.56237.62576,9.366,9.366,0,0,1-3.53107-.6333,7.79275,7.79275,0,0,1-4.45767-4.60016,10.20076,10.20076,0,0,1-.59352-3.55466,10.30646,10.30646,0,0,1,.60154-3.59429,7.8222,7.8222,0,0,1,1.726-2.78736,7.61672,7.61672,0,0,1,2.72367-1.7815,10.30691,10.30691,0,0,1,7.09344.00834,7.66373,7.66373,0,0,1,4.47355,4.59182,10.25373,10.25373,0,0,1,.594,3.563m-4.33862,0a6.48791,6.48791,0,0,0-1.16423-4.11719,3.7787,3.7787,0,0,0-3.12706-1.47232,3.87209,3.87209,0,0,0-2.23238.65674,4.162,4.162,0,0,0-1.48851,1.9397,8.80192,8.80192,0,0,0-.00818,5.95358A4.24253,4.24253,0,0,0,88.157,94.73714a3.82162,3.82162,0,0,0,2.25659.67325,3.77166,3.77166,0,0,0,3.12706-1.48018,6.46694,6.46694,0,0,0,1.16423-4.09329" style="fill:#282828"/><path d="M110.87988,96.64555l-3.816-6.27047-2.34341,2.21665v3.43608a2.641,2.641,0,0,1-.65689,1.924,2.05737,2.05737,0,0,1-1.51227.67325,1.9543,1.9543,0,0,1-1.56761-.66554,2.944,2.944,0,0,1-.56993-1.96314V77.56507a3.66112,3.66112,0,0,1,.55437-2.19306,1.84787,1.84787,0,0,1,1.58317-.75236,1.98338,1.98338,0,0,1,1.58351.681,3.00834,3.00834,0,0,1,.58565,2.01094V87.79421l4.86138-5.099a11.9457,11.9457,0,0,1,1.37779-1.29837,1.90115,1.90115,0,0,1,1.15559-.34835,1.873,1.873,0,0,1,1.34634.51473A1.71291,1.71291,0,0,1,114,82.85342q0,.9509-1.75791,2.53369l-2.29591,2.10641,4.4333,6.96667q.4902.77658.7047,1.18a1.64378,1.64378,0,0,1,.21372.76793,2.26554,2.26554,0,0,1-.56206,1.62266,1.9432,1.9432,0,0,1-1.48049.5943,1.64884,1.64884,0,0,1-1.21927-.42744,10.363,10.363,0,0,1-1.15621-1.552" style="fill:#282828"/><path d="M131.81069,92.97193a5.01572,5.01572,0,0,1-3.4441,4.99568,11.53579,11.53579,0,0,1-4.14079.65737,10.09186,10.09186,0,0,1-3.9906-.713,5.81,5.81,0,0,1-2.45459-1.78087,3.59452,3.59452,0,0,1-.7912-2.14556,1.6633,1.6633,0,0,1,.50639-1.21959,1.73908,1.73908,0,0,1,1.283-.50624,1.49724,1.49724,0,0,1,1.04471.332,3.66149,3.66149,0,0,1,.697.93446,4.7389,4.7389,0,0,0,1.59121,1.72614,4.804,4.804,0,0,0,2.52583.56977,3.64992,3.64992,0,0,0,2.12968-.57794,1.62628,1.62628,0,0,0,.83146-1.322,1.79937,1.79937,0,0,0-.86323-1.66245,10.69463,10.69463,0,0,0-2.84256-.99816,23.50709,23.50709,0,0,1-3.63392-1.16376,5.97363,5.97363,0,0,1-2.24056-1.60693,3.68128,3.68128,0,0,1-.839-2.45412,4.326,4.326,0,0,1,.77578-2.45459,5.3197,5.3197,0,0,1,2.28789-1.84488,8.76708,8.76708,0,0,1,3.64981-.68882,12.00088,12.00088,0,0,1,3.01682.34834,7.542,7.542,0,0,1,2.23268.93447,4.62072,4.62072,0,0,1,1.36176,1.29854,2.54153,2.54153,0,0,1,.46661,1.39336,1.60951,1.60951,0,0,1-.49869,1.21944,1.97484,1.97484,0,0,1-1.417.47462,1.73615,1.73615,0,0,1-1.13263-.37979,7.4819,7.4819,0,0,1-1.06845-1.14033,3.9126,3.9126,0,0,0-1.15574-1.0131,3.64069,3.64069,0,0,0-1.8054-.38027,3.537,3.537,0,0,0-1.94741.49869,1.45415,1.45415,0,0,0-.77564,1.243,1.34451,1.34451,0,0,0,.57009,1.11658,4.72823,4.72823,0,0,0,1.53569.72043q.96506.285,2.66.69669a14.22492,14.22492,0,0,1,3.28574,1.17146,5.46631,5.46631,0,0,1,1.93184,1.60757,3.56333,3.56333,0,0,1,.65753,2.11379" style="fill:#282828"/><path d="M140.34185,76.11518h-4.20291V71.91211a2.10122,2.10122,0,1,0-4.20243,0v4.20307h-4.20275a2.10153,2.10153,0,0,0,0,4.20306h4.20275v4.20259a2.10122,2.10122,0,1,0,4.20243,0V80.31824h4.20291a2.10153,2.10153,0,1,0,0-4.20306" style="fill:#282828"/><path d="M173.49647,54.23648a41.64378,41.64378,0,0,0,8.1776.57516c1.21391,0,2.49174.12782,2.49174.958,0,.89469-.95829,1.02251-1.59736,1.02251-.89438,0-1.91658-.12782-3.1305-.12782a10.99556,10.99556,0,0,0-8.3051,3.38582c-1.53345,1.53315-7.79446,8.62494-7.79446,9.58293,0,2.42784,9.77495,26.25826,22.80791,26.25826,3.76927,0,5.74976-2.49175,5.74976-5.75037a8.10865,8.10865,0,0,0-1.40533-4.59943c-1.40564-2.0444-2.55566-2.36394-2.55566-3.25863a.73127.73127,0,0,1,.76658-.76626c2.1083,0,5.94178,3.70535,5.94178,9.519,0,3.89708-2.0444,10.34981-11.18028,10.34981-8.75276,0-15.26939-6.45273-19.80523-12.96937a60.39828,60.39828,0,0,1-6.70835-12.96874l-3.44973,4.28051c.12781,6.26039.0639,13.79954.57485,18.78241.51125,5.11131,3.51394,6.51664,4.85568,7.0918,1.40533.63907,2.29971.958,2.29971,1.40533,0,.25562-.12781.38344-.70266.38344-2.61956,0-6.83586-2.61956-11.49982-2.61956-1.661,0-2.811.19172-4.02489.19172s-1.72486-.25563-1.72486-.70236c0-.83078,1.85267-.57516,3.32222-2.04439.95829-.95861.95829-2.68347.95829-4.53615,0-5.81366-1.98049-34.43524-2.23612-37.37433-.25562-2.61956-.63906-4.02489-1.98049-4.85568a7.5903,7.5903,0,0,0-3.45-.70235c-.51094,0-1.34173-.12782-1.34173-.76688,0-.57517.44735-.83017,1.08611-.89408,3.45-.38344,5.814,0,9.711-.57516,6.06929-.8947,7.60244-2.55565,9.00808-2.55565.44734,0,.63875.19172.63875.57516,0,.44735-.57485.76626-1.0222.958a20.93864,20.93864,0,0,0-2.29971,1.21423c-1.78908,1.1497-2.3,2.81066-2.42784,5.558a25.82468,25.82468,0,0,0-.06391,3.1941c0,4.02551.25563,8.88057.31954,14.3747v1.15032c2.1083-2.23612,10.73293-11.883,13.16077-15.07767,1.40564-1.85268,2.0444-3.1941,2.0444-4.34442a3.5937,3.5937,0,0,0-.83048-2.23612c-1.0861-1.27752-2.61956-2.29941-2.61956-3.00238a.63786.63786,0,0,1,.703-.703C167.36328,51.61692,168.5772,53.15069,173.49647,54.23648Z" style="fill:#282828"/><path d="M207.93574,64.20285a30.01271,30.01271,0,0,1-.38344,3.83317c-.95829,7.73024-2.1083,21.5304-2.1083,24.53278,0,2.55565.70266,3.19472,1.34173,3.70535a10.052,10.052,0,0,0,3.38613,1.02251c.89439.12781,1.46924.12781,1.46924.57516,0,.38282-.44735.63845-1.34174.63845-2.49143,0-4.91927-.958-8.11368-.958-3.00269,0-4.66365.44735-6.38851.44735-.703,0-1.40564-.12782-1.40564-.703,0-.63907.83047-.76688,1.46954-.89469,1.661-.31892,3.258-.70236,3.51364-3.06629.38344-4.6.31953-9.58293.31953-13.41671,0-2.29941.06391-4.21662-.06391-5.558-.12781-4.28052-1.46954-4.40833-4.6-4.664-.447-.0639-.76657-.255-.76657-.70235,0-.38344.31954-.63907.95829-.703a20.5582,20.5582,0,0,0,7.28321-1.597c3.64145-1.53314,4.53615-3.19472,5.111-3.19472C207.87183,63.49987,207.93574,63.7555,207.93574,64.20285Z" style="fill:#282828"/><path d="M241.54112,41.65056c0,6.45273-.19172,15.3333-.44735,23.89371-.25562,12.07529-.51094,23.51089-.51094,27.02453,0,4.02489,1.40533,4.91958,3.00269,5.49474,2.1083.76626,4.02489.31892,4.02489,1.21361,0,.63907-1.08611.703-2.10831.703-1.40564,0-3.961-.31954-7.2193-.31954-3.19441,0-6.00538.76626-11.372.76626-7.47493,0-13.54422-3.51363-13.54422-12.3942,0-7.85806,6.1971-12.45749,13.60813-12.45749a20.68086,20.68086,0,0,1,7.98587,1.40533c0-11.94685-.70267-26.25764-.70267-27.02452-.12781-1.27752-.19172-2.49175-1.15-2.49175-1.27783,0-3.25832,1.27814-4.53614,1.27814-.38314,0-.76658-.06391-.76658-.57517s.38344-.76688,1.15-1.1497a38.08161,38.08161,0,0,0,6.58054-3.06691c3.76926-2.23611,5.04709-3.961,5.62194-3.961C241.47721,39.9896,241.54112,40.62867,241.54112,41.65056Zm-6.51664,37.24652a12.57176,12.57176,0,0,0-5.49443-1.14971c-5.558,0-8.56073,3.961-8.56073,10.03027,0,6.45211,2.811,10.73263,8.43322,10.73263a5.5829,5.5829,0,0,0,4.79147-2.0444c.83047-1.1497,1.0222-2.74675,1.0222-4.85506C235.21621,87.96874,235.1523,82.85806,235.02448,78.89708Z" style="fill:#282828"/><path d="M269.52518,64.13894c.70266,0,1.0222-.83017,1.40564-1.91658.25532-.703.57485-1.0858.95829-1.0858.63876,0,.76657.51063.76657.89408,0,.9586-.51094,1.91658-1.0861,5.68584-.51095,3.06691-.447,4.28052-.70267,5.75038-.12781.76626-.44735,1.21361-.83048,1.21361-.51125,0-.63906-.63907-.63906-1.27752V70.97511c0-4.91959-2.36363-6.45273-5.49413-6.45273a5.04731,5.04731,0,0,0-5.23881,5.17459c0,8.561,17.31348,14.183,17.31348,27.02453,0,8.561-5.68616,13.2889-12.3942,13.2889a13.48008,13.48008,0,0,1-9.96637-4.21661c-1.72517-1.91659-2.74737-2.9391-4.1527-2.9391-1.53346,0-3.64176,2.55566-4.664,2.55566a.58839.58839,0,0,1-.63876-.57516,1.19791,1.19791,0,0,1,.447-.83017,39.92924,39.92924,0,0,0,6.0696-6.70836c2.811-3.89708,3.44973-7.0918,4.66365-7.0918.63875,0,.76657.44735.76657.8947,0,1.27752-2.17222,3.961-2.17222,8.68885,0,2.74675,2.0444,7.922,7.73056,7.922,4.47193,0,7.34711-3.51363,7.34711-8.62494,0-9.83855-15.65252-17.56879-15.65252-26.32155,0-6.51663,5.30272-9.45511,10.41372-9.45511C267.22515,63.30877,268.31126,64.13894,269.52518,64.13894Z" style="fill:#282828"/><path d="M206.40625,47.7563l-1.13758-.76527-1.65218,1.23428a6.925,6.925,0,0,0-.81578-.27781l-.548-1.99161-1.36672-.09466-.81613,1.9077-.00151.00225a6.21174,6.21174,0,0,0-.83459.167l-.00133-.00685-1.47675-1.45689-1.23037.6024.24683,2.05931.00408.00275a6.92989,6.92989,0,0,0-.6442.56307l-.00126-.007-2.00694-.525-.76549,1.1379,1.24274,1.661.00548.0007a6.86791,6.86791,0,0,0-.27742.80694l-.00409-.00274-2.00185.54955-.09435,1.36682,1.90737.81677.00573.0003a6.90274,6.90274,0,0,0,.15958.83645h0l-1.45946,1.475.60287,1.23012,2.05319-.24145a6.99848,6.99848,0,0,0,.56264.64969l-.52166,1.99717,1.13758.76527,1.64542-1.23219a7.48441,7.48441,0,0,0,.82692.28788l.54281,1.976,1.3664.09464.80542-1.8822a6.41658,6.41658,0,0,0,.87125-.16647l1.451,1.43672,1.23356-.60285-.24095-2.02287a6.695,6.695,0,0,0,.67162-.587l1.97126.5163.76548-1.1379-1.22122-1.63124a6.69813,6.69813,0,0,0,.29049-.8432l1.96433-.53895.09227-1.368-1.87824-.80619a6.44289,6.44289,0,0,0-.16957-.86664l1.43722-1.45691-.60256-1.23011-2.03822.24253a6.78857,6.78857,0,0,0-.5752-.65765Zm-2.539,8.79616a3.46979,3.46979,0,1,1-.94353-4.81324A3.46995,3.46995,0,0,1,203.86722,56.55246Z" style="fill:#ffb000"/></svg>