<svg xmlns="http://www.w3.org/2000/svg" viewBox="0 0 1033.05 340.84"><defs><style>.cls-1{fill:#ffb000;}</style></defs><g id="Layer_5" data-name="Layer 5"><g id="ohbnRt.tif"><path d="M526.68,187.9c4.51-5,8.55-9.4,12.55-13.85,4.83-5.38,9.77-10.68,14.43-16.21C562,148,570.21,138.1,578.18,128a18.93,18.93,0,0,0,4.54-12.4c-.15-5.44-3.86-8.5-7.1-11.94-1.25-1.32-2.64-2.51-3.84-3.87S569.32,96.45,571,95c1-.84,3.24-.86,4.61-.37,3.86,1.37,7.52,3.31,11.33,4.83A93.65,93.65,0,0,0,620,106c5,.1,10,.12,15,.25a6.84,6.84,0,0,1,3.33.6c1,.65,2.24,1.89,2.26,2.9a3.77,3.77,0,0,1-2.16,2.85,14.53,14.53,0,0,1-6.43.81,53,53,0,0,0-22.77,1.52c-8.47,2.35-15,7.79-20.67,14.29-6.84,7.85-13.58,15.79-20.3,23.74a35.31,35.31,0,0,0-4.15,5.81c-1.89,3.51-.36,7,1,10.2,2.81,6.88,5.47,13.87,9,20.4,5.36,10,11.1,19.79,17.23,29.31a118.63,118.63,0,0,0,13.09,16.64C614.47,246.18,626,255.25,641.2,258c8.79,1.61,17.44.89,23.51-6.83a21.42,21.42,0,0,0,4-9.3c2.07-12.18-3-21.75-11.85-29.73-.43-.39-1.08-.75-1.18-1.22-.32-1.5-1-3.34-.45-4.49.42-.85,2.73-1.42,4-1.12,5,1.23,8.55,4.67,11.56,8.54,8.43,10.82,10.85,23.34,7.86,36.36-3.8,16.57-15,26.62-33.43,28.43s-34.72-3.28-49.58-14.07c-11-8-20.06-18-28.13-28.74a155,155,0,0,1-18.23-30.37c-3-6.8-6.24-13.5-9.38-20.24-.24-.5-.57-1-1.15-1.91-4.11,5.25-8.13,10.2-11.88,15.34-.72,1-.5,2.77-.47,4.18.31,15.32.63,30.63,1,45.94q.24,8.91.88,17.8c1.05,14.35,7.5,24.82,21.63,29.74,2.17.75,4.73,1.21,5.09,4.22-2.35.16-4.85.91-7,.37-5.66-1.37-11.24-3.14-16.74-5.07a72.69,72.69,0,0,0-34-3.37,18.5,18.5,0,0,1-6.19-.71,2.76,2.76,0,0,1-1.78-1.86c-.07-.59.88-1.54,1.59-1.93,2.18-1.17,4.47-2.14,6.71-3.21,5-2.38,7.1-6.73,7.08-11.89-.05-10.52-.38-21-.82-31.55-.57-13.49-1.23-27-2.08-40.46-1.08-17.2-2.39-34.38-3.61-51.57-.65-9.17-1.05-18.37-2.08-27.49-.62-5.5-1.93-11.12-7.83-13.75a25,25,0,0,0-6.29-1.7c-2.36-.37-4.79-.27-7.17-.52-1.77-.19-3.46-1.14-3-3.06a5,5,0,0,1,2.95-3.13,35.71,35.71,0,0,1,7.69-.79c8.33-.34,16.72-.13,25-1a103.86,103.86,0,0,0,32.25-8.77,10.9,10.9,0,0,1,4.09-1.14,3.71,3.71,0,0,1,2.8,1.36c.32.49-.31,2.18-1,2.63a41,41,0,0,1-7,3.9c-7.5,3.17-12,8.84-12.52,16.77-.71,11.45-.75,23-.69,34.44.08,12.74.58,25.47.92,38.2C526.36,185.86,526.5,186.5,526.68,187.9Z"/><path d="M829.34,187.92c0-2.6,0-4.95,0-7.3q-1-44.38-2.08-88.76a82.88,82.88,0,0,0-1.39-10.21c-.32-2.11-1.76-3.09-3.7-2.61-3.59.9-7.11,2.1-10.65,3.18-1.47.45-2.92,1.23-4.39,1.28-1.22,0-3.13-.47-3.53-1.31s.32-2.91,1.2-3.53a28.42,28.42,0,0,1,6.84-3.53,123.24,123.24,0,0,0,38-22.38c.93-.8,2.34-1,3.52-1.52.44,1.29,1.27,2.59,1.26,3.88-.12,17.53-.25,35.06-.61,52.58-.57,27.76-1.32,55.52-2,83.28q-.65,27.57-1.23,55.13c-.11,5.32.24,10.74,3.72,15a18.19,18.19,0,0,0,7.4,5.38c3.9,1.45,8.2,1.77,12.28,2.77,1,.25,1.85,1.25,2.76,1.9-.84.76-1.6,2.05-2.53,2.19a35.72,35.72,0,0,1-9.09.57,185.61,185.61,0,0,0-43.56.51c-12.17,1.47-24.52,2.11-36.68-.17-9.83-1.84-18.86-5.83-25.54-13.61a40.74,40.74,0,0,1-9.63-22.92c-.86-8.7-.82-17.4,2.64-25.73,3.14-7.57,7.69-13.94,14.51-18.72,13.66-9.56,28.79-11.75,44.86-9.2,5.17.82,10.24,2.26,15.36,3.41C827.75,187.63,828.39,187.73,829.34,187.92Zm1.2,36.37h-.42c0-8.52,0-17,0-25.55,0-2.22-.83-3.73-2.91-4.38-8.86-2.76-17.75-4.32-27-1.8-10.72,2.91-17.17,10-20.3,20.21a51.77,51.77,0,0,0-2.09,21.57c.81,6.63,2,13.2,5.21,19.24,7.1,13.36,23.41,18.06,36.88,12.72a16.19,16.19,0,0,0,5.68-4.16c4-4.42,4.84-10,4.94-15.74C830.64,239,830.54,231.66,830.54,224.29Z"/><path d="M929.24,302.58c14.53-.15,24.77-10.05,26.74-25.52,1.54-12.05-1.85-22.6-8.52-32.46-8.17-12.08-18.4-22.39-28.17-33.12-6.88-7.55-13.44-15.44-17.78-24.81-6.58-14.2-3-30.88,8.57-40.41,5.6-4.58,12.23-6.8,19.35-8.11,9.25-1.7,18.11.18,27,2.14,2.51.55,4.12-.15,5.22-2.28,1-1.95,1.94-3.94,2.86-5.92.76-1.64,1.83-2.75,3.8-2.23s2.24,2.26,2,3.91c-.93,5.16-2.13,10.28-3,15.46-1,6.22-1.77,12.48-2.65,18.72q-.58,4.11-1.26,8.21a2.73,2.73,0,0,1-.6,1.58c-.87.75-1.89,1.77-2.86,1.78-.62,0-1.44-1.51-1.84-2.48a7,7,0,0,1-.13-2.56c0-4,.08-8-.11-12.06A25,25,0,0,0,953.49,149c-4.8-6.9-15.66-8.32-22.45-5.84-13.2,4.83-15.92,18.45-10.21,29.29,4.38,8.32,10.55,15,17.21,21.5,9.79,9.51,19.77,18.88,28.9,29,9.79,10.85,15.75,23.82,15.71,38.71,0,15.51-4.45,29.5-17,39.75-6.09,5-13.31,7.72-21,9.25-9.64,1.9-18.91.23-27.88-3.12a49.05,49.05,0,0,1-18.43-12.8,88.85,88.85,0,0,0-10.27-9c-2.88-2.23-6-1.43-8.81.47s-5.63,3.94-8.45,5.93c-.39.27-.75.76-1.16.8-1.77.17-4.29,1-5.16.13-1.67-1.6.35-3.27,1.53-4.56,6.77-7.38,14-14.37,20.28-22.15,4.51-5.61,7.75-12.23,11.54-18.41,1.84-3,3.5-6.12,5.54-9,.59-.83,2.63-1.54,3.32-1.14,1,.57,2,2.41,1.79,3.39a87.48,87.48,0,0,1-3.44,10c-3.55,9.24-6,18.71-3.55,28.56,2.78,11.11,9.28,19.17,20.92,22.05A51.53,51.53,0,0,0,929.24,302.58Z"/><path d="M169,221.6a17.82,17.82,0,0,0,2.51,1.36c11.2,3.77,16.22,15.79,12.62,27.11-3.14,9.86-10.56,15.72-20,16.35-13.83.93-27.75.88-41.63.89-6.29,0-9.2-3.27-9.22-9.62q-.1-33.45,0-66.92c0-6.36,3.42-9.85,9.79-9.87,12.35-.05,24.74-.25,37.06.47,8.93.52,16.47,5,19.55,13.69,3.53,9.94,1.46,18.89-8.17,24.93Zm-25.34,7.66v-.12c-3.64,0-7.28-.11-10.91.09a2.84,2.84,0,0,0-2,1.88q-.21,10.33,0,20.67c0,.74,1.23,2.09,1.89,2.08,8.13,0,16.28.07,24.38-.54a10.56,10.56,0,0,0,9.84-8.34c2.1-8.41-2.39-14.69-12.58-15.67C150.8,229,147.23,229.26,143.68,229.26Zm-1.5-35.61-.09.61c-3,0-5.94.07-8.9,0-1.83-.06-2.57.55-2.54,2.47.09,5.73.08,11.48,0,17.22,0,1.82.63,2.62,2.51,2.56,6.59-.21,13.19-.31,19.79-.54,5-.17,8.32-2.52,10.3-7.24,1.68-4,.1-12-5.84-12.85C152.34,195.09,147.26,194.38,142.18,193.65Z"/><path d="M729.12,143.77c-1.12,9.5-2.37,19-3.33,28.49q-1.9,18.86-3.44,37.74c-.94,11.53-1.77,23.08-2.4,34.64-.22,4.15-.41,8.46,2,12.24,3.28,5.05,8.77,5.65,14,6.83,1.49.34,3.08.23,4.55.61.8.21,1.44,1,2.15,1.57-.7.82-1.36,2.3-2.11,2.34a47,47,0,0,1-9.11-.23c-9.47-1.28-18.81-3.73-28.48-3-5.82.42-11.62,1.13-17.44,1.66a22.1,22.1,0,0,1-3.45-.05c-1.64-.1-3.11-.54-3.15-2.57s1.37-2.44,2.93-2.95A87.12,87.12,0,0,0,693,257c3-1.48,3.78-4.77,3.89-7.89.52-15.1,1-30.21,1.29-45.32.16-8.89-.07-17.8-.19-26.7a27.17,27.17,0,0,0-.61-4.81c-1.7-8.77-4.67-9.22-13.53-10.71-1-.16-2,.07-2.84-.31-1-.48-2.59-1.56-2.49-2.12a5.6,5.6,0,0,1,2.23-2.9c.59-.44,1.66-.27,2.52-.32a74.59,74.59,0,0,0,36.18-11.54c1.91-1.23,3.57-2.86,5.44-4.18a22,22,0,0,1,3.2-1.56c.3,1.13.64,2.24.86,3.39a7.6,7.6,0,0,1-.06,1.71Z"/><path d="M346.54,227c3.28-3.27,6.6-6.51,9.84-9.82,3.67-3.76,7.21-7.64,10.93-11.35,3.36-3.36,9-3,11.61.54,1.62,2.24,2,4.82.24,6.9a106.3,106.3,0,0,1-9.87,10.26c-4.14,3.72-4.42,3.63-1.5,8.29,4.72,7.52,9.65,14.9,14.4,22.39,1.64,2.57,3.27,5.19,2.53,8.54-.71,3.18-2.38,5.4-5.66,6.11a7.35,7.35,0,0,1-8.19-3.44c-4-6.16-7.79-12.46-11.63-18.72-1.25-2-2.43-4.09-3.59-6.17-.9-1.63-1.93-1.61-3.2-.44-1.95,1.8-4,3.49-5.86,5.42a4.7,4.7,0,0,0-.89,2.88c-.11,3.73,0,7.46-.07,11.19a9.25,9.25,0,0,1-3.61,7.77A7.54,7.54,0,0,1,329.85,263a21.4,21.4,0,0,1-.51-5.12c0-22.11-.07-44.23,0-66.34a20.56,20.56,0,0,1,1.46-7.47c1.48-3.64,4-4.8,7.68-4.42,3.37.35,5.8,2.52,6.61,6.17a23.71,23.71,0,0,1,.5,5.12c0,10.92,0,21.83,0,32.74,0,1,.08,2,.13,3Z"/><path d="M61.9,240.4c-1.2,12.07,10.28,20.11,19.77,17.09,5-1.61,8.86-4.67,12.67-8a9.6,9.6,0,0,1,3.78-2.38c2.25-.53,5.12-.56,6.17,1.76a9,9,0,0,1,.14,6.49c-2.28,5.48-6.86,8.91-12.25,11a40.05,40.05,0,0,1-29.47,0c-6.86-2.62-11.6-7.74-14.65-14.53-3.72-8.27-3.88-16.91-2-25.34,2.84-12.67,11.38-22.17,28.27-23.1,14-.77,25.25,4.81,30.21,18.21,1.48,4,1.12,8.83.93,13.25-.12,2.69-2.62,4.16-5.25,4.55a61.78,61.78,0,0,1-8.57.79c-8.82.1-17.65,0-26.47.05C64.09,240.22,63,240.34,61.9,240.4Zm28.62-9.53c-.45-9.12-5.75-16.61-15.42-16.12-8,.4-13.86,8.41-13,16.26H87.52C88.46,231,89.39,230.92,90.52,230.87Z"/><path d="M254.4,236.17c0,10.48-3.08,19.68-11.54,26.33-6.85,5.37-14.94,7-23.53,6.44-14-.87-25.94-10.7-28.44-25-1.49-8.55-.77-16.57,3-24.27a27,27,0,0,1,20-15.24c9.22-1.77,18.23-1.39,26.55,4s12.67,13,13.63,22.67C254.21,232.73,254.29,234.45,254.4,236.17Zm-16.37.18.76-.18c-1-4-1.71-8.18-3.19-12a14.35,14.35,0,0,0-14.16-8.73,15.12,15.12,0,0,0-13.5,11.1,34.41,34.41,0,0,0,.12,19.55c1.52,4.89,4.58,8.84,9.74,10.05,5.74,1.34,11.26.75,15.45-4.24C237,247.36,238.21,242.07,238,236.35Z"/><path d="M324.26,236c.36,8.89-2.22,16.87-8.25,23.4a26.07,26.07,0,0,1-8.67,6.34c-11.58,4.93-23.2,4.77-34-2.18A27,27,0,0,1,261.89,248c-3.44-11.95-2.68-23.28,5.18-33.4a26.5,26.5,0,0,1,16.39-10.21c8.05-1.51,16-1.48,23.56,2.09,10.93,5.15,16,14.18,17.22,25.8A35.69,35.69,0,0,1,324.26,236Zm-16.14-.88a52.35,52.35,0,0,0-.68-5.8,30,30,0,0,0-1.78-5.13,14.88,14.88,0,0,0-13.57-8.85c-5.95.1-11.67,4-13.63,9.33a30.75,30.75,0,0,0,0,22.66c1.81,4.55,5,8,10,8.9,5.63,1,10.8.3,14.76-4.56C307,247.14,308,241.84,308.12,235.16Z"/><path class="cls-1" d="M680.42,121.1a20.82,20.82,0,0,0-2.86.24c-1.7.36-2.83.1-3.68-1.7s-.84-3.19.7-4.52c.94-.81,1.84-1.68,2.72-2.56,1.71-1.72,1-3.09-.75-4.17a9.58,9.58,0,0,0-3.08-1.47c-2.7-.5-2.81-2.23-2.73-4.45s1.57-2.69,3.33-3.15c6.18-1.61,6.43-2.5,2.51-7.54-.84-1.08-2.64-2-1.2-3.86s2.69-3.8,5.5-2.29a9.57,9.57,0,0,0,2.4.91,3.13,3.13,0,0,0,4-3.44,13.56,13.56,0,0,0-.41-3.13c-.83-2.67,1-3.54,2.82-4.51,2-1.09,2.68.6,3.67,1.69A19.54,19.54,0,0,0,695.21,79c2.1,1.73,4.13,1.32,5.35-1.11.51-1,.85-2.13,1.29-3.2.7-1.72,1.91-2.29,3.83-2.12a3.06,3.06,0,0,1,3.08,2.77c.23,1.13.38,2.28.69,3.38.76,2.66,2.84,3.32,5,1.66a9.41,9.41,0,0,0,2-1.52c2.24-3,4.1-.92,5.92.42a2.46,2.46,0,0,1,.6,2,24.38,24.38,0,0,1-1,3.88c-.75,2.36.6,4.34,3.08,4.33a8.13,8.13,0,0,0,2.84-.36c2.07-.82,3.42-.29,4.49,1.65s.67,3.39-1,4.71a14.26,14.26,0,0,0-2.21,2.25c-1.4,1.67-1.06,3.39.87,4.48a14.2,14.2,0,0,0,2.82,1.39c2.14.64,3,1.75,2.83,4.15s-1.81,2.83-3.53,3.38c-1.34.44-3.18.5-3.91,1.43-1.26,1.62-.76,3.49.67,5.2,1,1.15,2,2.81,1.91,4.14-.25,2.8-2.61,3.83-5.31,2.84a16.58,16.58,0,0,0-2.16-.72c-3-.64-4.54,1-4.26,4.08.17,1.89,1.8,4.11-.66,5.73-3.1,2.05-3.5,2-6.39-1.1-3-3.24-4.69-3-6.63,1-1.09,2.24-1.7,4.89-5.45,3.87-2.43-.66-2.42-2.53-3-4.08-1.51-4.44-3.36-5.11-6.92-2-2,1.78-3.86,2.66-5.75.16a5.38,5.38,0,0,1-.87-3,12.73,12.73,0,0,1,.76-3.05C685.07,122.43,683.76,120.9,680.42,121.1Zm35.34-15.67c0-7.39-5.13-12.79-12.4-12.93a12.56,12.56,0,0,0-13,12.72A12.42,12.42,0,0,0,703.3,118,12.2,12.2,0,0,0,715.76,105.43Z"/><path d="M419.51,269.56c-7.56-.29-14.62-1.63-20.93-5.78-3.89-2.55-6.71-5.92-7.32-10.76-.43-3.38.93-6.12,3.7-7.36,3-1.34,5.86-.58,8.11,2.16a18.22,18.22,0,0,1,1.63,2.35,16.51,16.51,0,0,0,22.13,6.34c2.35-1.21,3.66-3,3.57-5.69s-1-5-3.75-5.87c-5.78-1.91-11.6-3.72-17.43-5.47-5.67-1.72-10.92-4.1-14.69-8.9-4-5.11-3.51-13.17.68-18.32,6-7.37,14.17-9,22.9-8.78,5.41.14,11,.49,15.86,3.33,3.45,2,7.08,3.93,8.61,8,1.39,3.69.65,7.21-1.67,8.59a9,9,0,0,1-10.39-1.23,26.16,26.16,0,0,1-2.39-2.87c-4-5.48-9.54-5.92-15.47-4.73-3.74.75-5.59,2.83-5.63,5.58s2,5.09,5.54,6.12c6.7,1.93,13.52,3.48,20.07,5.82,6.1,2.17,11.75,5.35,13.39,12.49a18.51,18.51,0,0,1-13.14,22.11C428.5,267.87,424,268.61,419.51,269.56Z"/><path d="M438,201.45c-3.37-.49-6.89-.51-10-1.58-3.89-1.32-5.09-4.55-4.25-8.91a7.33,7.33,0,0,1,7.25-5.8c4.41-.1,8.82-.11,13.22,0,2,0,2.71-.69,2.65-2.67q-.17-5.9,0-11.78c.1-3.35.85-6.34,4.31-8.1,5-2.56,10.81.31,11.2,6a132,132,0,0,1,.1,13.49c-.08,2.44.78,3.16,3.13,3.07,4.11-.16,8.24-.11,12.36,0,5.36.11,8.52,3.71,8,9-.39,3.93-3.75,6.78-8.22,6.86-3.93.07-7.87.2-11.79,0-2.87-.18-3.62.91-3.47,3.6.2,3.73.08,7.47,0,11.2-.08,5.5-2.67,8.31-7.66,8.38-4.82.06-7.79-2.9-8-8.2-.13-3.83-.2-7.67,0-11.49.16-2.85-.91-3.76-3.62-3.47a46.91,46.91,0,0,1-5.17,0Z"/><path d="M96.39,191.09c-1.22-2.9-2.2-5.25-3.38-8-2.1,4.47-4.22,8.5-5.89,12.69-1.17,2.91-2.81,5-6,5.48-3.5.52-5.81-1.34-7.46-4.23-.18-.31-.42-.59-.79-1.1a32.14,32.14,0,0,1-2.09,2.77c-3.6,3.79-8.78,3.61-12-.52-1.86-2.42-3.42-5.05-5.16-7.56A7.26,7.26,0,0,0,50.82,188c-.08,1-.22,2-.24,2.95a51.3,51.3,0,0,1-.17,7.45,4.36,4.36,0,0,1-2.61,2.72c-1.78.58-2.46-1-2.75-2.5a11,11,0,0,1-.11-2c0-5.08,0-10.15,0-15.23,0-2.33.25-4.48,3-5.24s4,1,5.15,2.76c3.2,4.75,6.24,9.62,9.35,14.44.26.4.42,1,.78,1.17a16.74,16.74,0,0,0,2.65.74c0-.86.38-2,0-2.53a46.33,46.33,0,0,0-4.46-4.4c-2.6-2.37-2.49-5.32-1.51-8.22.91-2.72,3.37-3.57,6-3.61,6-.09,12.08,0,18.12-.07,2.64,0,3.26,1.51,3.11,3.75.32-.1.55-.11.64-.22,4.23-5.3,7.57-5,10.37,1.06,2.36,5.11,4.61,10.28,7,15.39.81,1.78,1,3.55-.9,4.5s-3.32.06-4.28-2a4.62,4.62,0,0,0-3-1.88,39.26,39.26,0,0,0-4.87-.15c-1.55-.12-2.87-.73-2.85-2.58s1.16-2.75,2.92-2.91C93.34,191.26,94.65,191.2,96.39,191.09Zm-9.06-9.4c-2.6.16-4.48.15-6.32.44-.74.12-2,.87-2,1.38-.16,3.62-.11,7.26,0,10.88a1.87,1.87,0,0,0,.94,1.25,1.33,1.33,0,0,0,1.15-.52C83.16,190.76,85.17,186.37,87.33,181.69Zm-14.68,9.48c.06-.11.3-.34.32-.59.08-1,.12-2.09.13-3.14,0-5.82,0-5.85-5.85-5.33-.72.07-1.84.56-2,1.06a2.76,2.76,0,0,0,.88,2.16C68.25,187.34,70.46,189.22,72.65,191.17Z"/></g></g></svg>