<svg xmlns="http://www.w3.org/2000/svg" viewBox="0 0 555.29 872.81"><defs><style>.cls-1{fill:#ffb522;opacity:0.27;}.cls-2{fill:#424242;}.cls-3{fill:#959495;}.cls-3,.cls-4{stroke:#000;stroke-miterlimit:10;stroke-width:0.05px;}.cls-4{fill:#b7b7b7;}.cls-5{fill:none;stroke:#606060;stroke-linecap:round;stroke-linejoin:round;stroke-width:4px;}</style></defs><g id="Layer_2" data-name="Layer 2"><circle class="cls-1" cx="122.58" cy="122.58" r="122.58"/><path class="cls-2" d="M550.29,80.81v26.86h-387V80.81h-5v81h5V132.67h387v29.14h5v-81Zm-375.5,44a3.5,3.5,0,1,1,3.5-3.5A3.5,3.5,0,0,1,174.79,124.81Zm18.2,0a3.5,3.5,0,1,1,3.5-3.5A3.5,3.5,0,0,1,193,124.81Zm18.2,0a3.5,3.5,0,1,1,3.5-3.5A3.5,3.5,0,0,1,211.19,124.81Zm18.2,0a3.5,3.5,0,1,1,3.5-3.5A3.5,3.5,0,0,1,229.39,124.81Zm18.2,0a3.5,3.5,0,1,1,3.5-3.5A3.5,3.5,0,0,1,247.59,124.81Zm18.2,0a3.5,3.5,0,1,1,3.5-3.5A3.5,3.5,0,0,1,265.79,124.81Zm18.2,0a3.5,3.5,0,1,1,3.5-3.5A3.5,3.5,0,0,1,284,124.81Zm18.2,0a3.5,3.5,0,1,1,3.5-3.5A3.5,3.5,0,0,1,302.19,124.81Zm18.2,0a3.5,3.5,0,1,1,3.5-3.5A3.5,3.5,0,0,1,320.39,124.81Zm18.2,0a3.5,3.5,0,1,1,3.5-3.5A3.5,3.5,0,0,1,338.59,124.81Zm18.2,0a3.5,3.5,0,1,1,3.5-3.5A3.5,3.5,0,0,1,356.79,124.81Zm18.2,0a3.5,3.5,0,1,1,3.5-3.5A3.5,3.5,0,0,1,375,124.81Zm18.2,0a3.5,3.5,0,1,1,3.5-3.5A3.5,3.5,0,0,1,393.19,124.81Zm18.2,0a3.5,3.5,0,1,1,3.5-3.5A3.5,3.5,0,0,1,411.39,124.81Zm18.2,0a3.5,3.5,0,1,1,3.5-3.5A3.5,3.5,0,0,1,429.59,124.81Zm18.2,0a3.5,3.5,0,1,1,3.5-3.5A3.5,3.5,0,0,1,447.79,124.81Zm18.2,0a3.5,3.5,0,1,1,3.5-3.5A3.5,3.5,0,0,1,466,124.81Zm18.2,0a3.5,3.5,0,1,1,3.5-3.5A3.5,3.5,0,0,1,484.19,124.81Zm18.2,0a3.5,3.5,0,1,1,3.5-3.5A3.5,3.5,0,0,1,502.39,124.81Zm18.2,0a3.5,3.5,0,1,1,3.5-3.5A3.5,3.5,0,0,1,520.59,124.81Zm18.2,0a3.5,3.5,0,1,1,3.5-3.5A3.5,3.5,0,0,1,538.79,124.81Z"/><path class="cls-2" d="M110.08,80.81v792h25v-792Zm12.5,773a3.5,3.5,0,1,1,3.5-3.5A3.5,3.5,0,0,1,122.58,853.81Zm0-16.45a3.5,3.5,0,1,1,3.5-3.5A3.5,3.5,0,0,1,122.58,837.36Zm0-16.44a3.5,3.5,0,1,1,3.5-3.5A3.5,3.5,0,0,1,122.58,820.92Zm0-16.45a3.5,3.5,0,1,1,3.5-3.5A3.5,3.5,0,0,1,122.58,804.47Zm0-16.44a3.5,3.5,0,1,1,3.5-3.5A3.5,3.5,0,0,1,122.58,788Zm0-16.45a3.5,3.5,0,1,1,3.5-3.5A3.5,3.5,0,0,1,122.58,771.58Zm0-16.44a3.5,3.5,0,1,1,3.5-3.5A3.5,3.5,0,0,1,122.58,755.14Zm0-16.45a3.5,3.5,0,1,1,3.5-3.5A3.5,3.5,0,0,1,122.58,738.69Zm0-16.44a3.5,3.5,0,1,1,3.5-3.5A3.5,3.5,0,0,1,122.58,722.25Zm0-16.44a3.5,3.5,0,1,1,3.5-3.5A3.5,3.5,0,0,1,122.58,705.81Zm0-17a3.5,3.5,0,1,1,3.5-3.5A3.5,3.5,0,0,1,122.58,688.81Zm0-9a3.5,3.5,0,1,1,3.5-3.5A3.5,3.5,0,0,1,122.58,679.83Zm0-9a3.5,3.5,0,1,1,3.5-3.5A3.5,3.5,0,0,1,122.58,670.85Zm0-9a3.5,3.5,0,1,1,3.5-3.5A3.5,3.5,0,0,1,122.58,661.88Zm0-9a3.5,3.5,0,1,1,3.5-3.5A3.5,3.5,0,0,1,122.58,652.9Zm0-9a3.5,3.5,0,1,1,3.5-3.5A3.5,3.5,0,0,1,122.58,643.92Zm0-9a3.5,3.5,0,1,1,3.5-3.5A3.5,3.5,0,0,1,122.58,635Zm0-9a3.5,3.5,0,1,1,3.5-3.5A3.5,3.5,0,0,1,122.58,626Zm0-9a3.5,3.5,0,1,1,3.5-3.5A3.5,3.5,0,0,1,122.58,617Zm0-9a3.5,3.5,0,1,1,3.5-3.5A3.5,3.5,0,0,1,122.58,608Zm0-9a3.5,3.5,0,1,1,3.5-3.5A3.5,3.5,0,0,1,122.58,599Zm0-9a3.5,3.5,0,1,1,3.5-3.5A3.5,3.5,0,0,1,122.58,590.07Zm0-9a3.5,3.5,0,1,1,3.5-3.5A3.5,3.5,0,0,1,122.58,581.09Zm0-9a3.5,3.5,0,1,1,3.5-3.5A3.5,3.5,0,0,1,122.58,572.12Zm0-9a3.5,3.5,0,1,1,3.5-3.5A3.5,3.5,0,0,1,122.58,563.14Zm0-9a3.5,3.5,0,1,1,3.5-3.5A3.5,3.5,0,0,1,122.58,554.16Zm0-9a3.5,3.5,0,1,1,3.5-3.5A3.5,3.5,0,0,1,122.58,545.19Zm0-9a3.5,3.5,0,1,1,3.5-3.5A3.5,3.5,0,0,1,122.58,536.21Zm0-9a3.5,3.5,0,1,1,3.5-3.5A3.5,3.5,0,0,1,122.58,527.23Zm0-9a3.5,3.5,0,1,1,3.5-3.5A3.5,3.5,0,0,1,122.58,518.26Zm0-9a3.5,3.5,0,1,1,3.5-3.5A3.5,3.5,0,0,1,122.58,509.28Zm0-17.71a3.5,3.5,0,1,1,3.5-3.5A3.5,3.5,0,0,1,122.58,491.57Zm0-17.72a3.5,3.5,0,1,1,3.5-3.5A3.5,3.5,0,0,1,122.58,473.85Zm0-17.72a3.5,3.5,0,1,1,3.5-3.5A3.5,3.5,0,0,1,122.58,456.13Zm0-17.71a3.5,3.5,0,1,1,3.5-3.5A3.5,3.5,0,0,1,122.58,438.42Zm0-17.72a3.5,3.5,0,1,1,3.5-3.5A3.5,3.5,0,0,1,122.58,420.7Zm0-17.72a3.5,3.5,0,1,1,3.5-3.5A3.5,3.5,0,0,1,122.58,403Zm0-17.71a3.5,3.5,0,1,1,3.5-3.5A3.5,3.5,0,0,1,122.58,385.27Zm0-17.72a3.5,3.5,0,1,1,3.5-3.5A3.5,3.5,0,0,1,122.58,367.55Zm0-17.72a3.5,3.5,0,1,1,3.5-3.5A3.5,3.5,0,0,1,122.58,349.83Zm0-17.71a3.5,3.5,0,1,1,3.5-3.5A3.5,3.5,0,0,1,122.58,332.12Zm0-17.72a3.5,3.5,0,1,1,3.5-3.5A3.5,3.5,0,0,1,122.58,314.4Zm0-17.71a3.5,3.5,0,1,1,3.5-3.5A3.5,3.5,0,0,1,122.58,296.69Zm0-17.72a3.5,3.5,0,1,1,3.5-3.5A3.5,3.5,0,0,1,122.58,279Zm0-17.72a3.5,3.5,0,1,1,3.5-3.5A3.5,3.5,0,0,1,122.58,261.25Zm0-17.71a3.5,3.5,0,1,1,3.5-3.5A3.5,3.5,0,0,1,122.58,243.54Zm0-17.72a3.5,3.5,0,1,1,3.5-3.5A3.5,3.5,0,0,1,122.58,225.82Zm0-17.72a3.5,3.5,0,1,1,3.5-3.5A3.5,3.5,0,0,1,122.58,208.1Zm0-17.71a3.5,3.5,0,1,1,3.5-3.5A3.5,3.5,0,0,1,122.58,190.39Zm0-17.72a3.5,3.5,0,1,1,3.5-3.5A3.5,3.5,0,0,1,122.58,172.67Zm0-17.72a3.5,3.5,0,1,1,3.5-3.5A3.5,3.5,0,0,1,122.58,155Zm0-17.71a3.5,3.5,0,1,1,3.5-3.5A3.5,3.5,0,0,1,122.58,137.24Zm0-17.72a3.5,3.5,0,1,1,3.5-3.5A3.5,3.5,0,0,1,122.58,119.52Zm0-17.71a3.5,3.5,0,1,1,3.5-3.5A3.5,3.5,0,0,1,122.58,101.81Z"/><rect class="cls-3" x="51.37" y="99.81" width="4" height="3"/><rect class="cls-4" x="51.37" y="94.81" width="4" height="5"/><rect class="cls-3" x="51.37" y="92.81" width="4" height="2"/><rect class="cls-4" x="79.37" y="95.31" width="1" height="5"/><rect class="cls-4" x="83.37" y="95.31" width="1" height="5"/><rect class="cls-4" x="81.37" y="95.31" width="1" height="5"/><rect class="cls-4" x="82.37" y="95.31" width="1" height="5"/><rect class="cls-4" x="77.37" y="95.31" width="1" height="5"/><rect class="cls-4" x="80.37" y="95.31" width="1" height="5"/><rect class="cls-4" x="78.37" y="95.31" width="1" height="5"/><rect class="cls-4" x="55.37" y="95.31" width="18" height="5"/><rect class="cls-4" x="73.37" y="95.31" width="1" height="5"/><rect class="cls-4" x="75.37" y="95.31" width="1" height="5"/><rect class="cls-4" x="76.37" y="95.31" width="1" height="5"/><rect class="cls-4" x="74.37" y="95.31" width="1" height="5"/><rect class="cls-4" x="90.37" y="95.31" width="1" height="5"/><rect class="cls-4" x="93.37" y="95.31" width="1" height="5"/><rect class="cls-4" x="92.37" y="95.31" width="1" height="5"/><rect class="cls-4" x="94.37" y="95.31" width="1" height="5"/><rect class="cls-4" x="91.37" y="95.31" width="1" height="5"/><rect class="cls-4" x="95.37" y="95.31" width="1" height="5"/><rect class="cls-4" x="88.37" y="95.31" width="1" height="5"/><rect class="cls-4" x="86.37" y="95.31" width="1" height="5"/><rect class="cls-4" x="85.37" y="95.31" width="1" height="5"/><rect class="cls-4" x="84.37" y="95.31" width="1" height="5"/><rect class="cls-4" x="87.37" y="95.31" width="1" height="5"/><rect class="cls-4" x="89.37" y="95.31" width="1" height="5"/><rect class="cls-3" x="179.66" y="99.81" width="5" height="3"/><rect class="cls-4" x="179.66" y="94.81" width="5" height="5"/><rect class="cls-3" x="179.66" y="92.81" width="5" height="2"/><rect class="cls-3" x="51.37" y="153.45" width="4" height="3"/><rect class="cls-4" x="51.37" y="148.45" width="4" height="5"/><rect class="cls-3" x="51.37" y="146.45" width="4" height="2"/><rect class="cls-4" x="79.37" y="148.95" width="1" height="5"/><rect class="cls-4" x="83.37" y="148.95" width="1" height="5"/><rect class="cls-4" x="81.37" y="148.95" width="1" height="5"/><rect class="cls-4" x="82.37" y="148.95" width="1" height="5"/><rect class="cls-4" x="77.37" y="148.95" width="1" height="5"/><rect class="cls-4" x="80.37" y="148.95" width="1" height="5"/><rect class="cls-4" x="78.37" y="148.95" width="1" height="5"/><rect class="cls-4" x="55.37" y="148.95" width="18" height="5"/><rect class="cls-4" x="73.37" y="148.95" width="1" height="5"/><rect class="cls-4" x="75.37" y="148.95" width="1" height="5"/><rect class="cls-4" x="76.37" y="148.95" width="1" height="5"/><rect class="cls-4" x="74.37" y="148.95" width="1" height="5"/><rect class="cls-4" x="90.37" y="148.95" width="1" height="5"/><rect class="cls-4" x="93.37" y="148.95" width="1" height="5"/><rect class="cls-4" x="92.37" y="148.95" width="1" height="5"/><rect class="cls-4" x="94.37" y="148.95" width="1" height="5"/><rect class="cls-4" x="91.37" y="148.95" width="1" height="5"/><rect class="cls-4" x="95.37" y="148.95" width="1" height="5"/><rect class="cls-4" x="88.37" y="148.95" width="1" height="5"/><rect class="cls-4" x="86.37" y="148.95" width="1" height="5"/><rect class="cls-4" x="85.37" y="148.95" width="1" height="5"/><rect class="cls-4" x="84.37" y="148.95" width="1" height="5"/><rect class="cls-4" x="87.37" y="148.95" width="1" height="5"/><rect class="cls-4" x="89.37" y="148.95" width="1" height="5"/><rect class="cls-3" x="179.66" y="153.45" width="5" height="3"/><rect class="cls-4" x="179.66" y="148.45" width="5" height="5"/><rect class="cls-3" x="179.66" y="146.45" width="5" height="2"/><line class="cls-5" x1="102.62" y1="90.21" x2="102.62" y2="105.4"/><line class="cls-5" x1="102.62" y1="143.86" x2="102.62" y2="159.05"/></g></svg>