<svg xmlns="http://www.w3.org/2000/svg" viewBox="0 0 955.31 1096.01"><defs><style>.cls-1{fill:#ffb522;opacity:0.27;}.cls-2{fill:#7c7c7c;}.cls-3{fill:#303030;}.cls-4{fill:#424242;}.cls-5{fill:#606060;}.cls-6{fill:#898989;}.cls-7{fill:#515151;}.cls-8{fill:#fff;}.cls-9{fill:#7a7a7a;}.cls-10{fill:#999;}.cls-11,.cls-12{fill:#8e8e8e;}.cls-12,.cls-13,.cls-14,.cls-15,.cls-16,.cls-17,.cls-18,.cls-19,.cls-20,.cls-21{stroke:#fff;stroke-width:0.05px;}.cls-12,.cls-13,.cls-14,.cls-15,.cls-16,.cls-17,.cls-18,.cls-19,.cls-20,.cls-21,.cls-28,.cls-30,.cls-31{stroke-miterlimit:10;}.cls-13{fill:#919191;}.cls-14{fill:#949494;}.cls-15{fill:#979697;}.cls-16{fill:#9a999a;}.cls-17{fill:#9c9c9c;}.cls-18{fill:#9f9f9f;}.cls-19{fill:#a2a1a2;}.cls-20{fill:#a5a4a5;}.cls-21,.cls-27{fill:#a8a7a8;}.cls-22{fill:#9b9a9b;}.cls-23{fill:#7f7f7f;}.cls-24{fill:#545454;}.cls-25{fill:#6b6b6b;}.cls-26,.cls-28,.cls-32{fill:none;}.cls-28{stroke:#ff8b00;stroke-width:6px;}.cls-29{fill:#ff8b00;}.cls-30{fill:#959495;}.cls-30,.cls-31{stroke:#000;stroke-width:0.05px;}.cls-31{fill:#b7b7b7;}.cls-32{stroke:#606060;stroke-linecap:round;stroke-linejoin:round;stroke-width:4px;}</style></defs><g id="Layer_2" data-name="Layer 2"><circle class="cls-1" cx="729.89" cy="896.25" r="199.76"/><polygon class="cls-2" points="124.91 584.54 124.91 583.1 105.96 596.72 29.53 572.63 8.17 561.93 8.17 563.11 29.11 573.74 106.45 598.28 124.91 584.54"/><path class="cls-3" d="M106,596.72l19-13.62L80.49,537.79,56.88,526.37,8.17,561.93l21.36,10.69ZM71.4,567.51c-.21-1.46,1.71-2.43,4.29-2.17s4.82,1.66,5,3.12-1.71,2.43-4.29,2.17S71.61,569,71.4,567.51Zm33.51,16.41c-.21-1.46,1.71-2.43,4.29-2.17s4.82,1.66,5,3.12-1.71,2.43-4.29,2.17S105.11,585.38,104.91,583.92Z"/><polygon class="cls-2" points="326.02 436.3 326.02 434.86 307.07 448.48 230.64 424.39 209.28 413.7 209.28 414.87 230.22 425.5 307.57 450.05 326.02 436.3"/><path class="cls-3" d="M307.07,448.48,326,434.86l-44.42-45.3L258,378.14,209.28,413.7l21.36,10.69Zm-34.56-29.21c-.21-1.45,1.71-2.43,4.29-2.16s4.83,1.65,5,3.11-1.71,2.43-4.28,2.17S272.72,420.73,272.51,419.27ZM306,435.69c-.21-1.46,1.71-2.43,4.29-2.17s4.83,1.66,5,3.11-1.71,2.43-4.29,2.17S306.23,437.15,306,435.69Z"/><polygon class="cls-2" points="300.89 380.09 301.06 355.75 17.15 570.89 17.44 596.64 300.89 380.09"/><path class="cls-4" d="M301.06,355.75l-16.95-10.09L0,560.84l17.15,10Zm-18.85-2.53c1.38-1.05,4.27-.84,6.46.46s2.84,3.2,1.46,4.24-4.27.84-6.46-.46S280.83,354.26,282.21,353.22Zm-20,15.13c1.38-1.05,4.27-.84,6.46.46s2.84,3.19,1.47,4.24-4.28.84-6.46-.46S260.85,369.39,262.23,368.35Zm-35.68,27c1.38-1,4.27-.84,6.47.45s2.85,3.19,1.47,4.24-4.27.84-6.47-.45S225.17,396.42,226.55,395.37Zm-62.09,47c1.38-1,4.29-.85,6.49.44s2.87,3.17,1.49,4.21-4.28.85-6.49-.43S163.08,443.44,164.46,442.4Zm-35.32,26.75c1.38-1,4.29-.85,6.49.43s2.88,3.17,1.5,4.22-4.28.85-6.49-.44S127.76,470.2,129.14,469.15ZM66.7,516.44c1.37-1,4.29-.85,6.51.42s2.89,3.16,1.51,4.2-4.29.86-6.51-.41S65.32,517.49,66.7,516.44ZM31,543.47c1.38-1.05,4.3-.86,6.53.41s2.9,3.15,1.52,4.19-4.3.86-6.52-.41S29.63,544.51,31,543.47ZM11,558.6c1.38-1,4.3-.86,6.53.41s2.91,3.15,1.53,4.19-4.3.86-6.53-.41S9.65,559.65,11,558.6Z"/><polygon class="cls-5" points="0.25 586.12 0.16 560.56 17.42 570.67 17.42 596.16 0.25 586.12"/><path class="cls-4" d="M953.36,784.36,270.92,379.12l-17.85,14.41,681.21,404Zm-13.7,3.87a6.06,6.06,0,0,1-5.84,0c-1.67-1-1.75-2.6-.18-3.6a6.08,6.08,0,0,1,5.85,0C941.15,785.61,941.23,787.23,939.66,788.23Zm-17.07-10.12a6.08,6.08,0,0,1-5.84,0c-1.66-1-1.74-2.6-.18-3.6a6.06,6.06,0,0,1,5.84,0C924.08,775.49,924.16,777.1,922.59,778.11ZM905.52,768a6.06,6.06,0,0,1-5.84,0c-1.66-1-1.74-2.6-.18-3.61a6.08,6.08,0,0,1,5.84,0C907,765.36,907.09,767,905.52,768Zm-17.07-10.12a6,6,0,0,1-5.83,0c-1.67-1-1.75-2.6-.19-3.61a6.06,6.06,0,0,1,5.84,0C889.93,755.24,890,756.85,888.45,757.86Zm-17.06-10.12a6.08,6.08,0,0,1-5.84,0c-1.66-1-1.75-2.61-.19-3.61a6.06,6.06,0,0,1,5.84,0C872.86,745.11,872.94,746.73,871.39,747.74Zm-17.07-10.13a6.08,6.08,0,0,1-5.84,0c-1.66-1-1.75-2.61-.19-3.62a6,6,0,0,1,5.83,0C855.79,735,855.87,736.61,854.32,737.61Zm-17.07-10.12a6,6,0,0,1-5.83,0c-1.67-1-1.75-2.6-.2-3.61a6.06,6.06,0,0,1,5.83,0C838.71,724.86,838.8,726.48,837.25,727.49Zm-49.92-29.6a6,6,0,0,1-5.82,0c-1.66-1-1.76-2.6-.21-3.62a6,6,0,0,1,5.82,0C788.79,695.25,788.88,696.87,787.33,697.89ZM758.1,675.14l3.2-2.11,12.92,7.66-3.21,2.1ZM273,392.84a5.77,5.77,0,0,1,5.73-.11c1.67,1,1.8,2.64.3,3.68a5.77,5.77,0,0,1-5.73.1C271.59,395.52,271.46,393.88,273,392.84Zm26.68,15.82a5.79,5.79,0,0,1,5.74-.1c1.66,1,1.79,2.63.29,3.67a5.79,5.79,0,0,1-5.74.1C298.27,411.34,298.14,409.7,299.64,408.66Zm16.35,9.7a5.79,5.79,0,0,1,5.74-.1c1.67,1,1.79,2.63.29,3.67a5.81,5.81,0,0,1-5.74.1C314.62,421,314.49,419.4,316,418.36Zm20.35,12.07a5.79,5.79,0,0,1,5.74-.1c1.67,1,1.8,2.63.29,3.67a5.79,5.79,0,0,1-5.74.09C335,433.11,334.84,431.46,336.34,430.43Zm44.5,26.38a5.85,5.85,0,0,1,5.75-.09c1.66,1,1.79,2.63.27,3.67a5.84,5.84,0,0,1-5.74.09C379.45,459.49,379.33,457.85,380.84,456.81Zm44.5,26.39a5.83,5.83,0,0,1,5.75-.08c1.67,1,1.79,2.62.27,3.66a5.85,5.85,0,0,1-5.76.08C423.94,485.87,423.82,484.24,425.34,483.2Zm44.49,26.39a5.87,5.87,0,0,1,5.77-.08c1.66,1,1.78,2.62.26,3.65a5.87,5.87,0,0,1-5.77.09C468.43,512.26,468.31,510.62,469.83,509.59ZM514.33,536a5.89,5.89,0,0,1,5.77-.08c1.66,1,1.78,2.62.25,3.65a5.87,5.87,0,0,1-5.77.08C512.92,538.64,512.8,537,514.33,536Zm44.49,26.39a5.89,5.89,0,0,1,5.78-.07c1.67,1,1.78,2.62.25,3.64a5.89,5.89,0,0,1-5.78.07C557.4,565,557.3,563.4,558.82,562.37Zm44.5,26.39a5.91,5.91,0,0,1,5.79-.07c1.66,1,1.77,2.62.23,3.64a5.94,5.94,0,0,1-5.78.07C601.89,591.41,601.79,589.78,603.32,588.76Zm44.5,26.39a6,6,0,0,1,5.79-.07c1.67,1,1.77,2.62.23,3.64a6,6,0,0,1-5.8.06C646.38,617.8,646.28,616.17,647.82,615.15Zm44.49,26.39a6,6,0,0,1,5.81-.06c1.66,1,1.76,2.61.22,3.63a6,6,0,0,1-5.81.06C690.87,644.18,690.77,642.55,692.31,641.54Zm44.5,26.38a6,6,0,0,1,5.81,0c1.66,1,1.76,2.61.21,3.63a6,6,0,0,1-5.81,0C735.36,670.56,735.26,668.94,736.81,667.92Zm12.62,12.9,9,.52.26-.17.4-.26,3.33-2.19,2.47,1.47-5.2,3.41a3,3,0,0,0-.37.28c-.71.64-.79,1.39-.12,1.79a3.35,3.35,0,0,0,2.86-.16,3,3,0,0,0,.43-.24l5.21-3.42,2.47,1.47L765,686.73l-.4.26h0c-2.83,1.68-6.61,2.07-8.65.86-1.67-1-1.68-2.76-.23-4.38l-9.47-.54Z"/><path class="cls-5" d="M934.28,797.53l-681.21-404-.39,24.18L934.5,821.38Zm-664-381.61c-.13-2,1.12-2.76,2.78-1.77a7.48,7.48,0,0,1,3.24,5.34c.13,2-1.12,2.75-2.78,1.77A7.52,7.52,0,0,1,270.23,415.92Zm14.14,8.38c-.13-2,1.12-2.75,2.78-1.77a7.52,7.52,0,0,1,3.24,5.34c.13,2-1.12,2.76-2.78,1.77A7.48,7.48,0,0,1,284.37,424.3Zm14.14,8.39c-.12-2,1.12-2.75,2.78-1.77a7.46,7.46,0,0,1,3.24,5.34c.13,2-1.12,2.75-2.78,1.77A7.52,7.52,0,0,1,298.51,432.69Zm14.14,8.39c-.12-2,1.12-2.76,2.79-1.77a7.44,7.44,0,0,1,3.23,5.34c.13,2-1.12,2.75-2.78,1.76A7.48,7.48,0,0,1,312.65,441.08Zm14.14,8.38c-.12-2,1.12-2.75,2.79-1.76a7.44,7.44,0,0,1,3.23,5.33c.13,2-1.12,2.75-2.78,1.77A7.52,7.52,0,0,1,326.79,449.46Zm14.14,8.39c-.12-2,1.13-2.75,2.79-1.77a7.48,7.48,0,0,1,3.23,5.34c.13,2-1.12,2.75-2.78,1.76A7.48,7.48,0,0,1,340.93,457.85Zm14.14,8.38c-.12-2,1.13-2.75,2.79-1.76a7.44,7.44,0,0,1,3.23,5.33c.13,2-1.12,2.76-2.78,1.77A7.5,7.5,0,0,1,355.07,466.23Zm14.14,8.39c-.12-2,1.13-2.75,2.79-1.76a7.44,7.44,0,0,1,3.23,5.33c.13,2-1.12,2.75-2.78,1.77A7.52,7.52,0,0,1,369.21,474.62ZM383.36,483c-.13-2,1.12-2.75,2.78-1.77a7.44,7.44,0,0,1,3.23,5.34c.13,2-1.12,2.75-2.78,1.76A7.41,7.41,0,0,1,383.36,483Zm14.14,8.38c-.13-2,1.12-2.75,2.79-1.76a7.49,7.49,0,0,1,3.23,5.33c.12,2-1.13,2.75-2.79,1.77A7.44,7.44,0,0,1,397.5,491.39Zm14.61,8.67c-.12-2,1.13-2.75,2.79-1.76a7.42,7.42,0,0,1,3.23,5.33c.13,2-1.12,2.75-2.79,1.77A7.51,7.51,0,0,1,412.11,500.06Zm7.72,4.58c-.12-2,1.13-2.75,2.79-1.76a7.41,7.41,0,0,1,3.23,5.33c.12,2-1.13,2.75-2.79,1.76A7.44,7.44,0,0,1,419.83,504.64Zm7.72,4.58c-.12-2,1.13-2.75,2.79-1.76a7.41,7.41,0,0,1,3.23,5.33c.12,2-1.13,2.75-2.79,1.76A7.44,7.44,0,0,1,427.55,509.22Zm7.72,4.58c-.12-2,1.13-2.75,2.79-1.77a7.48,7.48,0,0,1,3.23,5.34c.12,2-1.13,2.74-2.79,1.76A7.46,7.46,0,0,1,435.27,513.8Zm7.72,4.57c-.12-2,1.13-2.74,2.79-1.76a7.46,7.46,0,0,1,3.23,5.33c.12,2-1.13,2.75-2.79,1.77A7.44,7.44,0,0,1,443,518.37Zm7.72,4.58c-.12-2,1.13-2.75,2.79-1.76a7.46,7.46,0,0,1,3.23,5.33c.12,2-1.13,2.75-2.8,1.76A7.43,7.43,0,0,1,450.71,523Zm7.72,4.58c-.12-2,1.13-2.75,2.79-1.76a7.44,7.44,0,0,1,3.23,5.33c.12,2-1.14,2.75-2.8,1.76A7.44,7.44,0,0,1,458.43,527.53Zm7.72,4.58c-.12-2,1.13-2.75,2.79-1.76a7.39,7.39,0,0,1,3.22,5.33c.12,2-1.13,2.74-2.79,1.76A7.41,7.41,0,0,1,466.15,532.11Zm7.71,4.57c-.12-1.95,1.14-2.74,2.8-1.76a7.46,7.46,0,0,1,3.22,5.33c.12,2-1.13,2.75-2.79,1.77A7.48,7.48,0,0,1,473.86,536.68Zm7.72,4.58c-.12-2,1.13-2.74,2.8-1.76a7.44,7.44,0,0,1,3.22,5.33c.12,2-1.13,2.75-2.79,1.76A7.41,7.41,0,0,1,481.58,541.26Zm7.72,4.58c-.12-2,1.13-2.75,2.8-1.76a7.43,7.43,0,0,1,3.22,5.33c.12,2-1.13,2.75-2.79,1.76A7.42,7.42,0,0,1,489.3,545.84Zm7.72,4.58c-.12-2,1.13-2.75,2.8-1.76A7.43,7.43,0,0,1,503,554c.12,2-1.13,2.74-2.8,1.76A7.44,7.44,0,0,1,497,550.42Zm7.72,4.57c-.12-2,1.13-2.74,2.79-1.76a7.44,7.44,0,0,1,3.23,5.33c.12,2-1.14,2.75-2.8,1.76A7.43,7.43,0,0,1,504.74,555Zm7.72,4.58c-.12-2,1.13-2.74,2.79-1.76a7.42,7.42,0,0,1,3.23,5.33c.11,2-1.14,2.75-2.8,1.76A7.39,7.39,0,0,1,512.46,559.57Zm7.72,4.58c-.12-2,1.13-2.75,2.79-1.76a7.38,7.38,0,0,1,3.22,5.33c.12,2-1.13,2.74-2.79,1.76A7.41,7.41,0,0,1,520.18,564.15Zm7.71,4.58c-.11-2,1.14-2.75,2.8-1.76a7.39,7.39,0,0,1,3.22,5.33c.12,2-1.13,2.74-2.79,1.76A7.42,7.42,0,0,1,527.89,568.73Zm7.72,4.58c-.11-2,1.14-2.75,2.8-1.76a7.39,7.39,0,0,1,3.22,5.33c.12,2-1.13,2.74-2.8,1.75A7.42,7.42,0,0,1,535.61,573.31Zm7.72,4.57c-.11-2,1.14-2.74,2.8-1.76a7.46,7.46,0,0,1,3.22,5.33c.12,2-1.14,2.75-2.8,1.76A7.43,7.43,0,0,1,543.33,577.88Zm7.72,4.58c-.12-2,1.14-2.74,2.8-1.76a7.44,7.44,0,0,1,3.22,5.33c.12,2-1.14,2.74-2.8,1.76A7.44,7.44,0,0,1,551.05,582.46Zm7.72,4.58c-.12-2,1.14-2.75,2.8-1.76a7.44,7.44,0,0,1,3.22,5.33c.11,1.95-1.14,2.74-2.8,1.76A7.43,7.43,0,0,1,558.77,587Zm7.72,4.58c-.12-2,1.14-2.75,2.8-1.76a7.43,7.43,0,0,1,3.22,5.33c.11,1.95-1.14,2.74-2.8,1.75A7.36,7.36,0,0,1,566.49,591.62Zm15.23,9c-.11-2,1.14-2.74,2.8-1.76a7.38,7.38,0,0,1,3.22,5.33c.12,2-1.14,2.74-2.8,1.76A7.44,7.44,0,0,1,581.72,600.65Zm15.24,9c-.12-2,1.14-2.75,2.8-1.76a7.44,7.44,0,0,1,3.22,5.33c.11,2-1.15,2.74-2.81,1.75A7.38,7.38,0,0,1,597,609.69Zm15.23,9c-.11-2,1.14-2.74,2.8-1.75a7.36,7.36,0,0,1,3.22,5.32c.11,2-1.14,2.74-2.8,1.76A7.38,7.38,0,0,1,612.19,618.72Zm15.23,9c-.11-2,1.15-2.75,2.81-1.76a7.4,7.4,0,0,1,3.21,5.33c.12,1.95-1.14,2.74-2.8,1.75A7.44,7.44,0,0,1,627.42,627.76Zm15.24,9c-.11-1.95,1.14-2.74,2.8-1.75a7.36,7.36,0,0,1,3.22,5.32c.11,1.95-1.15,2.74-2.81,1.75A7.36,7.36,0,0,1,642.66,636.79Zm15.23,9c-.11-2,1.15-2.74,2.81-1.76a7.4,7.4,0,0,1,3.21,5.33c.11,2-1.14,2.73-2.8,1.75A7.41,7.41,0,0,1,657.89,645.83Zm15.24,9c-.11-2,1.14-2.74,2.81-1.75a7.38,7.38,0,0,1,3.21,5.32c.11,2-1.15,2.74-2.81,1.75A7.38,7.38,0,0,1,673.13,654.86Zm15.23,9c-.11-2,1.15-2.74,2.81-1.76a7.4,7.4,0,0,1,3.21,5.33c.11,1.95-1.15,2.73-2.81,1.75A7.4,7.4,0,0,1,688.36,663.9Zm15.24,9c-.11-1.95,1.14-2.74,2.81-1.75a7.38,7.38,0,0,1,3.21,5.32c.11,2-1.15,2.74-2.81,1.75A7.35,7.35,0,0,1,703.6,672.93Zm15.23,9c-.11-2,1.15-2.74,2.81-1.76a7.4,7.4,0,0,1,3.21,5.32c.11,2-1.15,2.74-2.81,1.76A7.4,7.4,0,0,1,718.83,682Zm15.24,9c-.11-2,1.14-2.74,2.81-1.75a7.36,7.36,0,0,1,3.2,5.32c.11,1.95-1.15,2.74-2.81,1.75A7.36,7.36,0,0,1,734.07,691Zm15.23,9c-.11-1.95,1.15-2.73,2.81-1.75a7.4,7.4,0,0,1,3.21,5.32c.11,2-1.15,2.74-2.81,1.75A7.33,7.33,0,0,1,749.3,700Zm15.23,9c-.1-2,1.16-2.74,2.82-1.75a7.36,7.36,0,0,1,3.2,5.32c.11,2-1.15,2.73-2.81,1.75A7.4,7.4,0,0,1,764.53,709.07Zm15.24,9c-.11-2,1.15-2.73,2.81-1.74a7.33,7.33,0,0,1,3.21,5.31c.1,2-1.16,2.74-2.82,1.75A7.35,7.35,0,0,1,779.77,718.1Zm15.23,9c-.1-1.95,1.16-2.73,2.82-1.75a7.36,7.36,0,0,1,3.2,5.32c.11,1.95-1.15,2.73-2.81,1.75A7.37,7.37,0,0,1,795,727.14Zm15.24,9c-.11-1.95,1.15-2.73,2.81-1.74a7.33,7.33,0,0,1,3.21,5.31c.1,2-1.16,2.74-2.82,1.75A7.32,7.32,0,0,1,810.24,736.17Zm15.23,9c-.1-2,1.16-2.73,2.82-1.75a7.36,7.36,0,0,1,3.2,5.32c.11,2-1.16,2.73-2.82,1.75A7.39,7.39,0,0,1,825.47,745.21Zm15.24,9c-.11-2,1.15-2.73,2.81-1.74a7.29,7.29,0,0,1,3.2,5.31c.11,2-1.15,2.74-2.81,1.75A7.33,7.33,0,0,1,840.71,754.24Zm15.23,9c-.1-1.95,1.16-2.73,2.82-1.75a7.39,7.39,0,0,1,3.2,5.32c.1,1.95-1.16,2.73-2.82,1.74A7.32,7.32,0,0,1,855.94,763.28Zm15.23,9c-.1-1.95,1.16-2.73,2.83-1.74a7.31,7.31,0,0,1,3.19,5.31c.11,2-1.16,2.73-2.82,1.75A7.39,7.39,0,0,1,871.17,772.31Zm15.24,9c-.1-2,1.16-2.73,2.82-1.75a7.39,7.39,0,0,1,3.2,5.32c.1,2-1.16,2.73-2.82,1.74A7.29,7.29,0,0,1,886.41,781.35Zm15.23,9c-.1-1.94,1.16-2.73,2.83-1.74a7.35,7.35,0,0,1,3.19,5.31c.1,1.95-1.16,2.73-2.82,1.75A7.39,7.39,0,0,1,901.64,790.38Zm15.24,9c-.11-1.95,1.16-2.73,2.82-1.74a7.35,7.35,0,0,1,3.2,5.31c.1,2-1.17,2.73-2.83,1.74A7.31,7.31,0,0,1,916.88,799.42Z"/><polygon class="cls-6" points="934.28 797.53 953.36 784.36 953.71 807.89 934.5 821.38 934.28 797.53"/><path class="cls-4" d="M949.68,405,266.83,0,248.21,14l681.9,404.4Zm-14.19,4.09a6.08,6.08,0,0,1-5.84,0c-1.66-1-1.75-2.6-.18-3.61a6.1,6.1,0,0,1,5.85,0C937,406.45,937.06,408.06,935.49,409.06Zm-17.07-10.12a6.08,6.08,0,0,1-5.84,0c-1.66-1-1.74-2.61-.18-3.61a6.08,6.08,0,0,1,5.84,0C919.91,396.32,920,397.94,918.42,398.94Zm-17.07-10.12a6.06,6.06,0,0,1-5.83,0c-1.67-1-1.75-2.6-.19-3.61a6.08,6.08,0,0,1,5.84,0C902.83,386.2,902.92,387.81,901.35,388.82Zm-17.06-10.13a6.06,6.06,0,0,1-5.84,0c-1.66-1-1.75-2.6-.19-3.61a6.08,6.08,0,0,1,5.84,0C885.76,376.07,885.85,377.69,884.29,378.69Zm-17.07-10.12a6.06,6.06,0,0,1-5.84,0c-1.66-1-1.75-2.6-.19-3.61a6.06,6.06,0,0,1,5.84,0C868.69,366,868.77,367.56,867.22,368.57Zm-17.07-10.12a6,6,0,0,1-5.83,0c-1.67-1-1.76-2.61-.2-3.62a6.09,6.09,0,0,1,5.83,0C851.62,355.82,851.7,357.44,850.15,358.45Zm-17.07-10.13a6.06,6.06,0,0,1-5.83.05c-1.66-1-1.75-2.61-.2-3.62a6,6,0,0,1,5.83,0C834.54,345.69,834.63,347.31,833.08,348.32Zm-49.92-29.6a6,6,0,0,1-5.82,0c-1.66-1-1.76-2.61-.21-3.62a6,6,0,0,1,5.82,0C784.62,316.08,784.71,317.71,783.16,318.72ZM753.93,296l3.2-2.1,12.92,7.66-3.21,2.1ZM268.79,13.67a5.77,5.77,0,0,1,5.73-.1c1.67,1,1.8,2.63.3,3.67a5.77,5.77,0,0,1-5.73.1C267.42,16.36,267.29,14.71,268.79,13.67Zm26.68,15.82a5.81,5.81,0,0,1,5.74-.1c1.66,1,1.79,2.63.29,3.68a5.79,5.79,0,0,1-5.74.09C294.1,32.18,294,30.53,295.47,29.49Zm16.36,9.7a5.79,5.79,0,0,1,5.73-.1c1.67,1,1.8,2.63.29,3.67a5.79,5.79,0,0,1-5.74.1C310.45,41.87,310.32,40.23,311.83,39.19Zm20.34,12.07a5.81,5.81,0,0,1,5.74-.1c1.67,1,1.8,2.63.29,3.67a5.81,5.81,0,0,1-5.74.1C330.79,53.94,330.67,52.3,332.17,51.26Zm44.5,26.39a5.8,5.8,0,0,1,5.75-.09c1.66,1,1.79,2.62.27,3.66a5.79,5.79,0,0,1-5.74.09C375.28,80.32,375.16,78.68,376.67,77.65ZM421.17,104a5.8,5.8,0,0,1,5.75-.09c1.67,1,1.79,2.62.27,3.66a5.85,5.85,0,0,1-5.76.08C419.77,106.71,419.65,105.07,421.17,104Zm44.49,26.38a5.89,5.89,0,0,1,5.77-.08c1.66,1,1.78,2.63.26,3.66a5.89,5.89,0,0,1-5.77.08C464.26,133.09,464.14,131.46,465.66,130.42Zm44.5,26.39a5.87,5.87,0,0,1,5.77-.07c1.66,1,1.78,2.62.25,3.65a5.87,5.87,0,0,1-5.77.07C508.75,159.48,508.63,157.84,510.16,156.81Zm44.49,26.39a5.91,5.91,0,0,1,5.78-.07c1.67,1,1.78,2.62.25,3.65a5.94,5.94,0,0,1-5.78.07C553.24,185.86,553.13,184.23,554.65,183.2Zm44.5,26.39a6,6,0,0,1,5.79-.07c1.66,1,1.77,2.62.23,3.64a5.89,5.89,0,0,1-5.78.07C597.72,212.24,597.62,210.62,599.15,209.59ZM643.65,236a5.93,5.93,0,0,1,5.79-.06c1.67,1,1.77,2.61.23,3.63a6,6,0,0,1-5.8.07C642.21,238.63,642.11,237,643.65,236Zm44.49,26.39a6,6,0,0,1,5.81-.06c1.66,1,1.76,2.61.22,3.63a6,6,0,0,1-5.81.06C686.7,265,686.6,263.39,688.14,262.37Zm44.5,26.39a6,6,0,0,1,5.81-.06c1.66,1,1.76,2.62.21,3.63a6,6,0,0,1-5.81.05C731.19,291.4,731.09,289.77,732.64,288.76Zm12.62,12.9,9,.51.26-.16.4-.27,3.33-2.18,2.47,1.46-5.2,3.42a1.8,1.8,0,0,0-.37.28c-.71.64-.79,1.39-.12,1.79a3.35,3.35,0,0,0,2.86-.17,3,3,0,0,0,.43-.24l5.21-3.41,2.47,1.46-5.21,3.41-.4.27h0c-2.83,1.67-6.61,2.07-8.65.86-1.67-1-1.68-2.76-.23-4.39l-9.47-.53Z"/><path class="cls-5" d="M930.11,418.36,248.21,14l.29,24.22L930.58,443.05Zm-664-381.61c-.13-2,1.12-2.76,2.78-1.77a7.52,7.52,0,0,1,3.24,5.34c.13,2-1.12,2.76-2.78,1.77A7.52,7.52,0,0,1,266.06,36.75Zm14.14,8.39c-.12-2,1.12-2.76,2.78-1.77a7.48,7.48,0,0,1,3.24,5.34c.13,2-1.12,2.75-2.78,1.77A7.52,7.52,0,0,1,280.2,45.14Zm14.14,8.38c-.12-2,1.12-2.75,2.78-1.77a7.46,7.46,0,0,1,3.24,5.34c.13,2-1.12,2.76-2.78,1.77A7.5,7.5,0,0,1,294.34,53.52Zm14.14,8.39c-.12-2,1.12-2.75,2.79-1.77a7.48,7.48,0,0,1,3.23,5.34c.13,2-1.12,2.75-2.78,1.77A7.52,7.52,0,0,1,308.48,61.91Zm14.14,8.39c-.12-2,1.13-2.76,2.79-1.77a7.44,7.44,0,0,1,3.23,5.34c.13,2-1.12,2.75-2.78,1.76A7.48,7.48,0,0,1,322.62,70.3Zm14.14,8.38c-.12-2,1.13-2.75,2.79-1.77a7.48,7.48,0,0,1,3.23,5.34c.13,2-1.12,2.75-2.78,1.77A7.52,7.52,0,0,1,336.76,78.68Zm14.14,8.39c-.12-2,1.13-2.75,2.79-1.77a7.48,7.48,0,0,1,3.23,5.34c.13,2-1.12,2.75-2.78,1.76A7.48,7.48,0,0,1,350.9,87.07Zm14.15,8.38c-.13-2,1.12-2.75,2.78-1.76A7.44,7.44,0,0,1,371.06,99c.13,2-1.12,2.75-2.78,1.77A7.48,7.48,0,0,1,365.05,95.45Zm14.14,8.39c-.13-2,1.12-2.75,2.78-1.76a7.45,7.45,0,0,1,3.24,5.33c.12,2-1.13,2.75-2.79,1.76A7.44,7.44,0,0,1,379.19,103.84Zm14.14,8.39c-.13-2,1.12-2.75,2.79-1.77a7.51,7.51,0,0,1,3.23,5.34c.12,2-1.13,2.75-2.79,1.76A7.42,7.42,0,0,1,393.33,112.23Zm14.61,8.67c-.12-2,1.13-2.75,2.79-1.77a7.44,7.44,0,0,1,3.23,5.34c.13,2-1.12,2.75-2.79,1.76A7.49,7.49,0,0,1,407.94,120.9Zm7.72,4.57c-.12-2,1.13-2.75,2.79-1.76a7.42,7.42,0,0,1,3.23,5.33c.12,2-1.13,2.75-2.79,1.77A7.48,7.48,0,0,1,415.66,125.47Zm7.72,4.58c-.12-2,1.13-2.75,2.79-1.76a7.41,7.41,0,0,1,3.23,5.33c.12,2-1.13,2.75-2.79,1.76A7.44,7.44,0,0,1,423.38,130.05Zm7.72,4.58c-.12-2,1.13-2.75,2.79-1.76a7.44,7.44,0,0,1,3.23,5.33c.12,2-1.13,2.75-2.79,1.76A7.44,7.44,0,0,1,431.1,134.63Zm7.72,4.58c-.12-2,1.13-2.75,2.79-1.77a7.48,7.48,0,0,1,3.23,5.34c.12,2-1.13,2.74-2.79,1.76A7.42,7.42,0,0,1,438.82,139.21Zm7.72,4.57c-.12-1.95,1.13-2.74,2.79-1.76a7.48,7.48,0,0,1,3.23,5.33c.12,2-1.13,2.75-2.8,1.77A7.46,7.46,0,0,1,446.54,143.78Zm7.72,4.58c-.12-2,1.13-2.75,2.79-1.76a7.46,7.46,0,0,1,3.23,5.33c.12,2-1.13,2.75-2.8,1.76A7.43,7.43,0,0,1,454.26,148.36Zm7.72,4.58c-.12-2,1.13-2.75,2.79-1.76a7.39,7.39,0,0,1,3.22,5.33c.12,2-1.13,2.75-2.79,1.76A7.41,7.41,0,0,1,462,152.94Zm7.71,4.58c-.12-2,1.14-2.75,2.8-1.76a7.43,7.43,0,0,1,3.22,5.33c.12,2-1.13,2.74-2.79,1.76A7.46,7.46,0,0,1,469.69,157.52Zm7.72,4.58c-.12-2,1.13-2.75,2.8-1.77a7.46,7.46,0,0,1,3.22,5.33c.12,2-1.13,2.75-2.79,1.77A7.48,7.48,0,0,1,477.41,162.1Zm7.72,4.57c-.12-2,1.13-2.74,2.8-1.76a7.44,7.44,0,0,1,3.22,5.33c.12,2-1.13,2.75-2.79,1.76A7.41,7.41,0,0,1,485.13,166.67Zm7.72,4.58c-.12-2,1.13-2.75,2.8-1.76a7.44,7.44,0,0,1,3.22,5.33c.12,2-1.13,2.75-2.8,1.76A7.44,7.44,0,0,1,492.85,171.25Zm7.72,4.58c-.12-2,1.13-2.75,2.79-1.76a7.41,7.41,0,0,1,3.23,5.33c.12,2-1.14,2.74-2.8,1.76A7.44,7.44,0,0,1,500.57,175.83Zm7.72,4.58c-.12-2,1.13-2.75,2.79-1.76a7.41,7.41,0,0,1,3.23,5.33c.11,2-1.14,2.74-2.8,1.75A7.39,7.39,0,0,1,508.29,180.41ZM516,185c-.12-1.95,1.13-2.74,2.79-1.76a7.44,7.44,0,0,1,3.23,5.33c.11,2-1.14,2.75-2.8,1.76A7.39,7.39,0,0,1,516,185Zm7.71,4.58c-.11-2,1.14-2.74,2.8-1.76a7.41,7.41,0,0,1,3.22,5.33c.12,2-1.13,2.75-2.79,1.76A7.42,7.42,0,0,1,523.72,189.56Zm7.72,4.58c-.11-2,1.14-2.75,2.8-1.76a7.41,7.41,0,0,1,3.22,5.33c.12,2-1.13,2.74-2.8,1.76A7.44,7.44,0,0,1,531.44,194.14Zm7.72,4.58c-.11-2,1.14-2.75,2.8-1.76a7.43,7.43,0,0,1,3.22,5.33c.12,2-1.14,2.74-2.8,1.75A7.42,7.42,0,0,1,539.16,198.72Zm7.72,4.57c-.12-1.95,1.14-2.74,2.8-1.75a7.42,7.42,0,0,1,3.22,5.32c.12,2-1.14,2.75-2.8,1.76A7.43,7.43,0,0,1,546.88,203.29Zm7.72,4.58c-.12-2,1.14-2.74,2.8-1.76a7.44,7.44,0,0,1,3.22,5.33c.11,2-1.14,2.74-2.8,1.76A7.44,7.44,0,0,1,554.6,207.87Zm7.72,4.58c-.12-2,1.14-2.74,2.8-1.76a7.44,7.44,0,0,1,3.22,5.33c.11,2-1.14,2.74-2.8,1.76A7.38,7.38,0,0,1,562.32,212.45Zm15.23,9c-.11-1.95,1.14-2.74,2.8-1.75a7.36,7.36,0,0,1,3.22,5.32c.12,2-1.14,2.75-2.8,1.76A7.44,7.44,0,0,1,577.55,221.48Zm15.24,9c-.12-2,1.14-2.74,2.8-1.76a7.44,7.44,0,0,1,3.22,5.33c.11,1.95-1.14,2.74-2.81,1.75A7.38,7.38,0,0,1,592.79,230.52Zm15.23,9c-.11-2,1.14-2.74,2.8-1.75a7.36,7.36,0,0,1,3.22,5.32c.11,2-1.14,2.74-2.8,1.76A7.38,7.38,0,0,1,608,239.55Zm15.24,9c-.12-2,1.14-2.74,2.8-1.76a7.4,7.4,0,0,1,3.21,5.33c.12,2-1.14,2.74-2.8,1.75A7.38,7.38,0,0,1,623.26,248.59Zm15.23,9c-.11-2,1.14-2.74,2.81-1.75a7.4,7.4,0,0,1,3.21,5.32c.11,2-1.14,2.74-2.81,1.76A7.4,7.4,0,0,1,638.49,257.62Zm15.23,9c-.11-2,1.15-2.74,2.81-1.76a7.4,7.4,0,0,1,3.21,5.33c.11,1.95-1.14,2.74-2.8,1.75A7.39,7.39,0,0,1,653.72,266.66Zm15.24,9c-.11-1.95,1.14-2.74,2.81-1.75a7.4,7.4,0,0,1,3.21,5.32c.11,2-1.15,2.74-2.81,1.76A7.4,7.4,0,0,1,669,275.69Zm15.23,9c-.11-2,1.15-2.74,2.81-1.75a7.36,7.36,0,0,1,3.21,5.32c.11,1.95-1.15,2.74-2.81,1.75A7.4,7.4,0,0,1,684.19,284.73Zm15.24,9c-.11-1.95,1.14-2.73,2.81-1.75a7.4,7.4,0,0,1,3.21,5.32c.11,2-1.15,2.74-2.81,1.75A7.33,7.33,0,0,1,699.43,293.76Zm15.23,9c-.11-1.95,1.15-2.74,2.81-1.75a7.38,7.38,0,0,1,3.21,5.32c.11,1.95-1.15,2.73-2.81,1.75A7.4,7.4,0,0,1,714.66,302.8Zm15.24,9c-.11-1.95,1.15-2.73,2.81-1.75a7.36,7.36,0,0,1,3.2,5.32c.11,2-1.15,2.74-2.81,1.75A7.32,7.32,0,0,1,729.9,311.83Zm15.23,9c-.11-1.95,1.15-2.74,2.81-1.75a7.35,7.35,0,0,1,3.21,5.32c.11,1.95-1.15,2.73-2.81,1.75A7.37,7.37,0,0,1,745.13,320.87Zm15.23,9c-.1-1.95,1.16-2.73,2.82-1.75a7.36,7.36,0,0,1,3.2,5.32c.11,1.95-1.15,2.74-2.81,1.75A7.38,7.38,0,0,1,760.36,329.9Zm15.24,9c-.11-1.95,1.15-2.74,2.81-1.75a7.35,7.35,0,0,1,3.21,5.32c.11,1.95-1.16,2.73-2.82,1.75A7.39,7.39,0,0,1,775.6,338.94Zm15.23,9c-.1-2,1.16-2.73,2.82-1.75a7.36,7.36,0,0,1,3.2,5.32c.11,1.95-1.15,2.74-2.81,1.75A7.37,7.37,0,0,1,790.83,348Zm15.24,9c-.11-1.95,1.15-2.74,2.81-1.75a7.37,7.37,0,0,1,3.21,5.32c.1,1.95-1.16,2.73-2.82,1.74A7.32,7.32,0,0,1,806.07,357Zm15.23,9c-.1-2,1.16-2.73,2.82-1.74a7.32,7.32,0,0,1,3.2,5.31c.11,1.95-1.16,2.73-2.82,1.75A7.39,7.39,0,0,1,821.3,366Zm15.24,9c-.11-1.95,1.15-2.73,2.82-1.75a7.39,7.39,0,0,1,3.2,5.32c.1,2-1.16,2.73-2.82,1.74A7.29,7.29,0,0,1,836.54,375.08Zm15.23,9c-.1-1.95,1.16-2.73,2.82-1.74a7.32,7.32,0,0,1,3.2,5.31c.1,1.95-1.16,2.73-2.82,1.75A7.36,7.36,0,0,1,851.77,384.11Zm15.23,9c-.1-1.95,1.16-2.73,2.83-1.75a7.35,7.35,0,0,1,3.19,5.32c.11,1.95-1.16,2.73-2.82,1.74A7.35,7.35,0,0,1,867,393.15Zm15.24,9c-.1-1.95,1.16-2.73,2.82-1.74a7.35,7.35,0,0,1,3.2,5.31c.1,1.95-1.16,2.73-2.82,1.75A7.33,7.33,0,0,1,882.24,402.18Zm15.23,9c-.1-2,1.16-2.73,2.83-1.75a7.35,7.35,0,0,1,3.19,5.32c.11,1.95-1.16,2.73-2.82,1.74A7.37,7.37,0,0,1,897.47,411.22Zm15.24,9c-.1-1.95,1.16-2.73,2.82-1.74a7.35,7.35,0,0,1,3.2,5.31c.1,1.95-1.17,2.73-2.83,1.74A7.31,7.31,0,0,1,912.71,420.25Z"/><polygon class="cls-6" points="930.11 418.36 949.68 404.97 950.08 429.35 930.58 443.06 930.11 418.36"/><polygon class="cls-5" points="953.36 784.36 934.28 797.53 934.22 793.05 953.43 780.03 953.36 784.36"/><polygon class="cls-3" points="864.56 751.74 893.88 769.13 893.04 748.54 880.06 740.84 864.56 751.74"/><path class="cls-3" d="M953.43,780,930,766.12l-4.27-324.79-19.36-11,4.78,348.8v.2l23.1,13.7Zm-37.69-4.7Z"/><path class="cls-7" d="M934.23,793.06l-23.1-13.7-3.74-345.61,23.23,13.77,19.52-13.7-.06-4.48-19.5,13.71-69.8-41.39.05,4.47L885.89,421l3.74,345.62-25.07-14.87.05,4.47,69.67,41.32ZM892.77,435.27c0-1.72,1.31-2.33,3-1.34a6.56,6.56,0,0,1,3,4.91c0,1.73-1.32,2.32-3,1.34A6.53,6.53,0,0,1,892.77,435.27Zm.17,16.25c0-1.72,1.31-2.32,3-1.34a6.58,6.58,0,0,1,3,4.91c0,1.74-1.31,2.34-3,1.35A6.58,6.58,0,0,1,892.94,451.52Zm.18,16.25c0-1.72,1.32-2.32,3-1.33a6.57,6.57,0,0,1,3,4.91c0,1.73-1.32,2.33-3,1.34A6.53,6.53,0,0,1,893.12,467.77Zm.17,16.27c0-1.73,1.32-2.34,3-1.35a6.53,6.53,0,0,1,3,4.92c0,1.72-1.31,2.32-3,1.34A6.56,6.56,0,0,1,893.29,484Zm.18,16.25c0-1.73,1.32-2.33,3-1.35a6.58,6.58,0,0,1,3,4.92c0,1.72-1.32,2.33-3,1.34A6.56,6.56,0,0,1,893.47,500.29Zm.17,16.25c0-1.73,1.31-2.32,3-1.34a6.52,6.52,0,0,1,3,4.92c0,1.71-1.31,2.32-3,1.33A6.57,6.57,0,0,1,893.64,516.54Zm.18,16.26c0-1.73,1.31-2.33,3-1.34a6.54,6.54,0,0,1,3,4.91c0,1.72-1.31,2.32-3,1.34A6.58,6.58,0,0,1,893.82,532.8Zm.17,16.25c0-1.73,1.31-2.33,3-1.34a6.56,6.56,0,0,1,3,4.91c0,1.72-1.31,2.33-3,1.34A6.61,6.61,0,0,1,894,549.05Zm.18,16.25c0-1.73,1.32-2.32,3-1.34a6.55,6.55,0,0,1,3,4.91c0,1.73-1.31,2.33-3,1.35A6.56,6.56,0,0,1,894.17,565.3Zm.18,16.26c0-1.73,1.31-2.33,3-1.34a6.56,6.56,0,0,1,3,4.91c0,1.72-1.32,2.32-3,1.34A6.55,6.55,0,0,1,894.35,581.56Zm.17,16.25c0-1.73,1.31-2.33,3-1.34a6.55,6.55,0,0,1,3,4.91c0,1.73-1.32,2.32-3,1.34A6.53,6.53,0,0,1,894.52,597.81Zm.18,16.25c0-1.72,1.31-2.32,3-1.33a6.57,6.57,0,0,1,3,4.9c0,1.74-1.31,2.33-3,1.34A6.53,6.53,0,0,1,894.7,614.06Zm.17,16.26c0-1.73,1.31-2.33,3-1.34a6.54,6.54,0,0,1,3,4.91c0,1.73-1.31,2.32-3,1.33A6.53,6.53,0,0,1,894.87,630.32Zm.17,16.25c0-1.72,1.32-2.32,3-1.34a6.57,6.57,0,0,1,3.05,4.91c0,1.73-1.31,2.33-3,1.34A6.56,6.56,0,0,1,895,646.57Zm.18,16.25c0-1.72,1.32-2.32,3-1.34a6.58,6.58,0,0,1,3,4.91c0,1.73-1.31,2.33-3,1.34A6.56,6.56,0,0,1,895.22,662.82Zm.18,16.26c0-1.73,1.31-2.33,3-1.34a6.53,6.53,0,0,1,3,4.91c0,1.73-1.32,2.32-3,1.34A6.55,6.55,0,0,1,895.4,679.08Zm.18,16.25c0-1.72,1.31-2.33,3-1.34a6.62,6.62,0,0,1,3.05,4.91c0,1.73-1.32,2.34-3,1.35A6.54,6.54,0,0,1,895.58,695.33Zm.17,16.25c0-1.72,1.31-2.32,3-1.34a6.58,6.58,0,0,1,3,4.91c0,1.73-1.31,2.34-3,1.35A6.58,6.58,0,0,1,895.75,711.58Zm.17,16.26c0-1.72,1.32-2.33,3-1.34a6.53,6.53,0,0,1,3,4.91c0,1.73-1.31,2.33-3,1.35A6.56,6.56,0,0,1,895.92,727.84Zm.17,16.26c0-1.73,1.33-2.34,3-1.35a6.52,6.52,0,0,1,3,4.92c0,1.72-1.31,2.32-3,1.34A6.62,6.62,0,0,1,896.09,744.1Zm.19,16.25c0-1.73,1.31-2.32,3-1.34a6.57,6.57,0,0,1,3,4.91c0,1.72-1.32,2.33-3,1.34A6.53,6.53,0,0,1,896.28,760.35Z"/><ellipse class="cls-8" cx="935.99" cy="781.92" rx="2.67" ry="4.15" transform="translate(143.17 1708.69) rotate(-89.33)"/><ellipse class="cls-8" cx="883.82" cy="753.43" rx="2.67" ry="4.15" transform="translate(120.1 1628.37) rotate(-89.33)"/><polygon class="cls-9" points="888.08 756.84 889.48 752.72 889.45 750.82 888.06 755.12 888.06 755.12 888.08 756.84 888.08 756.84"/><polygon class="cls-10" points="877.75 754.1 879.14 749.82 884.99 748.19 889.45 750.84 888.06 755.12 882.21 756.75 877.75 754.1"/><polygon class="cls-11" points="882.24 758.35 888.08 756.84 888.06 755.12 882.21 756.75 882.19 756.73 882.21 758.34 882.24 758.35"/><polygon class="cls-9" points="882.19 756.73 877.76 754.11 877.79 755.71 882.21 758.34 882.19 756.73"/><ellipse class="cls-12" cx="883.65" cy="751.53" rx="2.2" ry="3.02" transform="translate(-213.5 1128.21) rotate(-59.33)"/><ellipse class="cls-13" cx="883.64" cy="751.26" rx="2.2" ry="3.02" transform="translate(-209.12 1139.94) rotate(-59.95)"/><ellipse class="cls-14" cx="883.64" cy="750.98" rx="2.19" ry="3.02" transform="translate(-204.6 1151.64) rotate(-60.57)"/><ellipse class="cls-15" cx="883.63" cy="750.71" rx="2.19" ry="3.02" transform="translate(-199.95 1163.28) rotate(-61.19)"/><ellipse class="cls-16" cx="883.63" cy="750.44" rx="2.19" ry="3.02" transform="translate(-195.17 1174.88) rotate(-61.82)"/><ellipse class="cls-17" cx="883.62" cy="750.17" rx="2.19" ry="3.02" transform="translate(-190.26 1186.42) rotate(-62.44)"/><ellipse class="cls-18" cx="883.62" cy="749.89" rx="2.19" ry="3.02" transform="translate(-185.22 1197.91) rotate(-63.06)"/><ellipse class="cls-19" cx="883.61" cy="749.62" rx="2.19" ry="3.02" transform="translate(-180.05 1209.33) rotate(-63.68)"/><ellipse class="cls-20" cx="883.61" cy="749.35" rx="2.2" ry="3.02" transform="translate(-174.75 1220.69) rotate(-64.31)"/><ellipse class="cls-21" cx="883.6" cy="749.08" rx="2.2" ry="3.02" transform="translate(-169.34 1231.97) rotate(-64.93)"/><polygon class="cls-9" points="940.25 785.78 941.64 781.67 941.62 779.76 940.23 784.06 940.22 784.06 940.25 785.78 940.25 785.78"/><polygon class="cls-10" points="929.91 783.05 931.3 778.77 937.15 777.13 941.61 779.78 940.23 784.06 934.38 785.7 929.91 783.05"/><polygon class="cls-11" points="934.4 787.3 940.25 785.78 940.22 784.06 934.38 785.69 934.35 785.68 934.37 787.28 934.4 787.3"/><polygon class="cls-9" points="934.35 785.68 929.92 783.05 929.95 784.66 934.37 787.28 934.35 785.68"/><ellipse class="cls-12" cx="935.81" cy="780.47" rx="2.2" ry="3.02" transform="matrix(0.51, -0.86, 0.86, 0.51, -212.84, 1187.26)"/><ellipse class="cls-13" cx="935.8" cy="780.2" rx="2.2" ry="3.02" transform="translate(-208.13 1199.55) rotate(-59.95)"/><ellipse class="cls-14" cx="935.8" cy="779.93" rx="2.19" ry="3.02" transform="translate(-203.28 1211.79) rotate(-60.57)"/><ellipse class="cls-15" cx="935.79" cy="779.66" rx="2.19" ry="3.02" transform="translate(-198.29 1223.99) rotate(-61.19)"/><ellipse class="cls-16" cx="935.79" cy="779.38" rx="2.19" ry="3.02" transform="translate(-193.16 1236.13) rotate(-61.82)"/><ellipse class="cls-17" cx="935.78" cy="779.11" rx="2.19" ry="3.02" transform="translate(-187.89 1248.22) rotate(-62.44)"/><ellipse class="cls-18" cx="935.78" cy="778.84" rx="2.19" ry="3.02" transform="translate(-182.49 1260.24) rotate(-63.06)"/><ellipse class="cls-19" cx="935.77" cy="778.57" rx="2.19" ry="3.02" transform="translate(-176.96 1272.2) rotate(-63.68)"/><ellipse class="cls-20" cx="935.77" cy="778.29" rx="2.2" ry="3.02" transform="translate(-171.29 1284.08) rotate(-64.31)"/><ellipse class="cls-21" cx="935.76" cy="778.02" rx="2.2" ry="3.02" transform="translate(-165.5 1295.9) rotate(-64.93)"/><path class="cls-9" d="M926.77,412.78c-5-1.74-8-6.08-6.43-10.46s6.8-6.51,11.76-4.77,7.75,6.69,6.22,11.06S931.74,414.52,926.77,412.78Z"/><ellipse class="cls-22" cx="929.5" cy="404.97" rx="7.87" ry="9.52" transform="translate(240.33 1148.63) rotate(-70.72)"/><polygon class="cls-9" points="933.65 408.15 935.05 404.03 935.02 402.13 933.63 406.42 933.63 406.43 933.65 408.15 933.65 408.15"/><polygon class="cls-23" points="923.32 405.41 924.71 401.13 930.56 399.5 935.02 402.14 933.63 406.42 927.78 408.06 923.32 405.41"/><polygon class="cls-11" points="927.8 409.66 933.65 408.15 933.63 406.43 927.78 408.06 927.75 408.04 927.77 409.64 927.8 409.66"/><polygon class="cls-9" points="927.75 408.04 923.33 405.42 923.35 407.02 927.77 409.64 927.75 408.04"/><path class="cls-9" d="M877.87,383.78c-5-1.74-8-6.09-6.43-10.46s6.79-6.51,11.76-4.77,7.74,6.68,6.21,11.06S882.83,385.51,877.87,383.78Z"/><ellipse class="cls-22" cx="880.6" cy="375.97" rx="7.87" ry="9.52" transform="translate(234.95 1083.04) rotate(-70.72)"/><polygon class="cls-24" points="884.75 379.14 886.14 375.03 886.12 373.12 884.72 377.42 884.72 377.42 884.75 379.14 884.75 379.14"/><polygon class="cls-23" points="874.41 376.41 875.8 372.13 881.65 370.49 886.11 373.14 884.72 377.42 878.87 379.05 874.41 376.41"/><polygon class="cls-25" points="878.9 380.66 884.75 379.14 884.72 377.42 878.87 379.05 878.85 379.04 878.87 380.64 878.9 380.66"/><polygon class="cls-24" points="878.85 379.04 874.42 376.42 874.45 378.02 878.87 380.64 878.85 379.04"/><polygon class="cls-9" points="871.8 772.01 867.56 772.96 865.95 773.98 870.34 772.92 870.35 772.93 871.8 772.01 871.8 772.01"/><polygon class="cls-10" points="874.85 782.25 870.48 783.3 866.03 779.16 865.97 773.97 870.34 772.92 874.79 777.07 874.85 782.25"/><polygon class="cls-11" points="876.14 776.21 871.8 772.01 870.35 772.93 874.79 777.07 874.79 777.1 876.14 776.24 876.14 776.21"/><polygon class="cls-9" points="874.79 777.1 874.85 782.24 876.21 781.38 876.14 776.24 874.79 777.1"/><ellipse class="cls-12" cx="869.58" cy="778.56" rx="2.2" ry="3.02" transform="translate(-10.02 11.34) rotate(-0.74)"/><ellipse class="cls-13" cx="869.35" cy="778.71" rx="2.2" ry="3.02" transform="translate(-18.29 20.92) rotate(-1.36)"/><ellipse class="cls-14" cx="869.12" cy="778.86" rx="2.19" ry="3.02" transform="translate(-26.47 30.59) rotate(-1.99)"/><ellipse class="cls-15" cx="868.89" cy="779" rx="2.19" ry="3.02" transform="translate(-34.55 40.35) rotate(-2.61)"/><ellipse class="cls-16" cx="868.66" cy="779.15" rx="2.19" ry="3.02" transform="translate(-42.53 50.19) rotate(-3.23)"/><ellipse class="cls-17" cx="868.43" cy="779.29" rx="2.19" ry="3.02" transform="translate(-50.4 60.12) rotate(-3.85)"/><ellipse class="cls-18" cx="868.2" cy="779.44" rx="2.19" ry="3.02" transform="translate(-58.17 70.12) rotate(-4.48)"/><ellipse class="cls-19" cx="867.97" cy="779.59" rx="2.19" ry="3.02" transform="translate(-65.83 80.2) rotate(-5.1)"/><ellipse class="cls-20" cx="867.74" cy="779.73" rx="2.2" ry="3.02" transform="translate(-73.38 90.35) rotate(-5.72)"/><ellipse class="cls-21" cx="867.51" cy="779.88" rx="2.2" ry="3.02" transform="translate(-80.82 100.57) rotate(-6.34)"/><polygon class="cls-9" points="921.03 800.01 916.79 800.97 915.18 801.98 919.57 800.93 919.57 800.93 921.03 800.01 921.03 800.01"/><polygon class="cls-10" points="924.08 810.26 919.7 811.3 915.26 807.16 915.19 801.98 919.57 800.93 924.01 805.07 924.08 810.26"/><polygon class="cls-11" points="925.37 804.22 921.03 800.01 919.57 800.93 924.01 805.07 924.01 805.1 925.37 804.25 925.37 804.22"/><polygon class="cls-9" points="924.01 805.1 924.08 810.24 925.43 809.39 925.37 804.25 924.01 805.1"/><ellipse class="cls-12" cx="918.81" cy="806.57" rx="2.2" ry="3.02" transform="translate(-10.38 11.98) rotate(-0.74)"/><ellipse class="cls-13" cx="918.58" cy="806.71" rx="2.2" ry="3.02" transform="translate(-18.95 22.1) rotate(-1.36)"/><ellipse class="cls-14" cx="918.35" cy="806.86" rx="2.19" ry="3.02" transform="translate(-27.41 32.31) rotate(-1.99)"/><ellipse class="cls-15" cx="918.12" cy="807.01" rx="2.19" ry="3.02" transform="translate(-35.77 42.62) rotate(-2.61)"/><ellipse class="cls-16" cx="917.89" cy="807.15" rx="2.19" ry="3.02" transform="translate(-44.03 53.01) rotate(-3.23)"/><ellipse class="cls-17" cx="917.66" cy="807.3" rx="2.19" ry="3.02" transform="matrix(1, -0.07, 0.07, 1, -52.17, 63.49)"/><ellipse class="cls-18" cx="917.43" cy="807.45" rx="2.19" ry="3.02" transform="translate(-60.21 74.05) rotate(-4.48)"/><ellipse class="cls-19" cx="917.2" cy="807.59" rx="2.19" ry="3.02" transform="translate(-68.13 84.69) rotate(-5.1)"/><ellipse class="cls-20" cx="916.97" cy="807.74" rx="2.2" ry="3.02" transform="translate(-75.93 95.4) rotate(-5.72)"/><ellipse class="cls-21" cx="916.74" cy="807.89" rx="2.2" ry="3.02" transform="translate(-83.61 106.18) rotate(-6.34)"/><polygon class="cls-9" points="866.89 393.08 862.65 394.03 861.04 395.05 865.43 394 865.43 394 866.89 393.08 866.89 393.08"/><polygon class="cls-10" points="869.94 403.32 865.56 404.37 861.12 400.23 861.05 395.04 865.43 394 869.87 398.14 869.94 403.32"/><polygon class="cls-11" points="871.23 397.28 866.89 393.08 865.43 394 869.87 398.14 869.87 398.17 871.23 397.31 871.23 397.28"/><polygon class="cls-9" points="869.87 398.17 869.94 403.31 871.29 402.46 871.23 397.31 869.87 398.17"/><ellipse class="cls-12" cx="864.67" cy="399.63" rx="2.2" ry="3.02" transform="translate(-5.11 11.25) rotate(-0.74)"/><ellipse class="cls-13" cx="864.44" cy="399.78" rx="2.2" ry="3.02" transform="translate(-9.27 20.7) rotate(-1.36)"/><ellipse class="cls-14" cx="864.21" cy="399.93" rx="2.19" ry="3.02" transform="translate(-13.34 30.19) rotate(-1.99)"/><ellipse class="cls-15" cx="863.98" cy="400.07" rx="2.19" ry="3.02" transform="translate(-17.31 39.73) rotate(-2.61)"/><ellipse class="cls-16" cx="863.75" cy="400.22" rx="2.19" ry="3.02" transform="translate(-21.18 49.31) rotate(-3.23)"/><ellipse class="cls-17" cx="863.52" cy="400.37" rx="2.19" ry="3.02" transform="translate(-24.95 58.93) rotate(-3.85)"/><ellipse class="cls-18" cx="863.29" cy="400.51" rx="2.19" ry="3.02" transform="translate(-28.62 68.58) rotate(-4.48)"/><ellipse class="cls-19" cx="863.06" cy="400.66" rx="2.19" ry="3.02" transform="translate(-32.18 78.27) rotate(-5.1)"/><ellipse class="cls-20" cx="862.83" cy="400.81" rx="2.2" ry="3.02" transform="translate(-35.65 87.98) rotate(-5.72)"/><ellipse class="cls-21" cx="862.6" cy="400.95" rx="2.2" ry="3.02" transform="translate(-39 97.71) rotate(-6.34)"/><polygon class="cls-9" points="916.11 421.08 911.87 422.04 910.26 423.05 914.65 422 914.66 422 916.11 421.08 916.11 421.08"/><polygon class="cls-10" points="919.16 431.33 914.79 432.38 910.34 428.23 910.28 423.05 914.65 422 919.1 426.14 919.16 431.33"/><polygon class="cls-11" points="920.45 425.29 916.11 421.08 914.66 422 919.1 426.14 919.1 426.17 920.45 425.32 920.45 425.29"/><polygon class="cls-9" points="919.1 426.17 919.16 431.32 920.52 430.46 920.45 425.32 919.1 426.17"/><ellipse class="cls-12" cx="913.89" cy="427.64" rx="2.2" ry="3.02" transform="translate(-5.47 11.89) rotate(-0.74)"/><ellipse class="cls-13" cx="913.66" cy="427.79" rx="2.2" ry="3.02" transform="translate(-9.93 21.88) rotate(-1.36)"/><ellipse class="cls-14" cx="913.43" cy="427.93" rx="2.19" ry="3.02" transform="translate(-14.28 31.91) rotate(-1.99)"/><ellipse class="cls-15" cx="913.2" cy="428.08" rx="2.19" ry="3.02" transform="translate(-18.53 42) rotate(-2.61)"/><ellipse class="cls-16" cx="912.97" cy="428.23" rx="2.19" ry="3.02" transform="translate(-22.68 52.13) rotate(-3.23)"/><ellipse class="cls-17" cx="912.74" cy="428.37" rx="2.19" ry="3.02" transform="translate(-26.72 62.3) rotate(-3.85)"/><ellipse class="cls-18" cx="912.51" cy="428.52" rx="2.19" ry="3.02" transform="translate(-30.65 72.51) rotate(-4.48)"/><ellipse class="cls-19" cx="912.28" cy="428.67" rx="2.19" ry="3.02" transform="translate(-34.48 82.75) rotate(-5.1)"/><ellipse class="cls-20" cx="912.05" cy="428.81" rx="2.2" ry="3.02" transform="translate(-38.19 93.02) rotate(-5.72)"/><ellipse class="cls-21" cx="911.83" cy="428.96" rx="2.2" ry="3.02" transform="translate(-41.79 103.32) rotate(-6.34)"/><path class="cls-26" d="M781.12,485.92c1.66,1,4,1,5.24.07s.89-2.5-.77-3.49-4-1-5.25-.08S779.45,484.93,781.12,485.92Z"/><path class="cls-26" d="M769.3,494.94a5.1,5.1,0,0,0,5.24.08c1.24-.94.89-2.51-.77-3.49a5.12,5.12,0,0,0-5.25-.08C767.29,492.39,767.63,494,769.3,494.94Z"/><path class="cls-26" d="M733.83,522c1.67,1,4,1,5.25.08s.89-2.51-.77-3.5-4-1-5.25-.07S732.17,521,733.83,522Z"/><path class="cls-26" d="M792.94,476.89a5.1,5.1,0,0,0,5.24.08c1.24-.94.89-2.51-.77-3.49a5.12,5.12,0,0,0-5.25-.08C790.93,474.34,791.27,475.9,792.94,476.89Z"/><path class="cls-26" d="M757.48,504c1.66,1,4,1,5.24.08s.89-2.51-.77-3.5-4-1-5.25-.07S755.81,503,757.48,504Z"/><path class="cls-26" d="M745.65,513c1.67,1,4,1,5.25.08s.89-2.51-.77-3.49a5.12,5.12,0,0,0-5.25-.08C743.65,510.44,744,512,745.65,513Z"/><path class="cls-26" d="M804.76,467.87c1.66,1,4,1,5.24.07s.89-2.5-.77-3.49a5.12,5.12,0,0,0-5.25-.08C802.75,465.32,803.09,466.88,804.76,467.87Z"/><path class="cls-26" d="M852,431.76a5.1,5.1,0,0,0,5.24.08c1.24-.94.89-2.51-.77-3.49a5.12,5.12,0,0,0-5.25-.08C850,429.21,850.37,430.78,852,431.76Z"/><path class="cls-26" d="M816.58,458.84a5.1,5.1,0,0,0,5.24.08c1.24-.95.89-2.51-.77-3.5s-4-1-5.25-.07S814.91,457.85,816.58,458.84Z"/><path class="cls-26" d="M863.86,422.74c1.66,1,4,1,5.24.07s.89-2.5-.77-3.49-4-1-5.25-.08S862.2,421.75,863.86,422.74Z"/><path class="cls-26" d="M840.22,440.79c1.66,1,4,1,5.24.08s.89-2.51-.77-3.5-4-1-5.25-.07S838.55,439.8,840.22,440.79Z"/><path class="cls-26" d="M828.4,449.81a5.1,5.1,0,0,0,5.24.08c1.24-.94.89-2.51-.77-3.49a5.12,5.12,0,0,0-5.25-.08C826.39,447.26,826.73,448.83,828.4,449.81Z"/><path class="cls-26" d="M875.68,413.71a5.1,5.1,0,0,0,5.24.08c1.24-.94.89-2.51-.77-3.49s-4-1-5.25-.08S874,412.72,875.68,413.71Z"/><path class="cls-25" d="M903,407.4,729.89,539.62l19,11.28L903.49,432l23.14,13.53-.49-24.46Zm15.4,23.65c-1.35.85-3.49-.13-4.79-2.19s-1.25-4.4.1-5.25,3.49.12,4.79,2.18S919.79,430.2,918.44,431.05Z"/><polygon class="cls-25" points="749.82 579.99 753.31 577.59 752.55 553.06 752.55 553.06 749.36 555.5 749.82 579.99"/><polygon class="cls-5" points="929.34 418.66 926.14 421.1 926.63 445.56 929.81 443.36 929.34 418.66"/><path class="cls-7" d="M856.33,379.71l.89,24.87,6.36,3.78,17.95-13.71Zm12.87,22.13c-1.35.85-3.5-.12-4.79-2.18s-1.25-4.41.1-5.26,3.49.13,4.78,2.18S870.54,401,869.2,401.84Z"/><polygon class="cls-4" points="752.55 553.06 752.55 553.06 748.91 550.9 747.34 552.1 752.55 553.06"/><path class="cls-4" d="M738.27,548.91l-8.38-9.29L902.83,406.77l23.31,14.33,3.2-2.44-69.67-41.32-3.2,2.44,25.07,14.87h0l.73.43-17.13,14.2-1.55-.92L708.39,526.86,683.32,512l-3.19,2.44.07,0v0ZM874.9,410.22c1.24-1,3.59-.91,5.25.08s2,2.55.77,3.49a5.1,5.1,0,0,1-5.24-.08C874,412.72,873.67,411.16,874.9,410.22Zm-11.82,9c1.24-.94,3.59-.9,5.25.08s2,2.55.77,3.49-3.58.91-5.24-.07S861.85,420.19,863.08,419.24Zm-11.82,9a5.12,5.12,0,0,1,5.25.08c1.66,1,2,2.55.77,3.49a5.1,5.1,0,0,1-5.24-.08C850.37,430.78,850,429.21,851.26,428.27Zm-11.82,9c1.24-.95,3.59-.91,5.25.07s2,2.55.77,3.5-3.58.9-5.24-.08S838.21,438.24,839.44,437.3Zm-11.82,9a5.12,5.12,0,0,1,5.25.08c1.66,1,2,2.55.77,3.49a5.1,5.1,0,0,1-5.24-.08C826.73,448.83,826.39,447.26,827.62,446.32Zm-11.82,9c1.24-1,3.59-.91,5.25.07s2,2.55.77,3.5a5.1,5.1,0,0,1-5.24-.08C814.91,457.85,814.57,456.29,815.8,455.35Zm-11.82,9a5.12,5.12,0,0,1,5.25.08c1.66,1,2,2.55.77,3.49s-3.58.91-5.24-.07S802.75,465.32,804,464.37Zm-11.82,9a5.12,5.12,0,0,1,5.25.08c1.66,1,2,2.55.77,3.49a5.1,5.1,0,0,1-5.24-.08C791.27,475.9,790.93,474.34,792.16,473.4Zm-11.82,9c1.24-.94,3.59-.9,5.25.08s2,2.55.77,3.49-3.58.91-5.24-.07S779.11,483.37,780.34,482.42Zm-11.82,9a5.12,5.12,0,0,1,5.25.08c1.66,1,2,2.55.77,3.49a5.1,5.1,0,0,1-5.24-.08C767.63,494,767.29,492.39,768.52,491.45Zm-11.82,9c1.24-1,3.59-.91,5.25.07s2,2.55.77,3.5-3.58.9-5.24-.08S755.47,501.42,756.7,500.48Zm-11.82,9a5.12,5.12,0,0,1,5.25.08c1.66,1,2,2.55.77,3.49s-3.58.91-5.25-.08S743.65,510.44,744.88,509.5Zm-11.82,9c1.24-.95,3.58-.91,5.25.07s2,2.55.77,3.5-3.58.91-5.25-.08S731.83,519.47,733.06,518.53Z"/><polygon class="cls-4" points="903.04 407.4 926.14 421.1 902.84 406.76 729.89 539.62 738.27 548.91 749.36 555.5 752.55 553.06 747.34 552.1 748.91 550.9 729.89 539.62 903.04 407.4"/><polygon class="cls-4" points="882.26 395.08 881.53 394.65 863.58 408.36 865.13 409.28 882.26 395.08"/><path class="cls-8" d="M913.75,423.61c-1.35.85-1.39,3.2-.1,5.25s3.44,3,4.79,2.19,1.39-3.21.1-5.26S915.1,422.76,913.75,423.61Z"/><path class="cls-8" d="M869.29,396.58c-1.29-2.05-3.43-3-4.78-2.18s-1.39,3.21-.1,5.26,3.44,3,4.79,2.18S870.59,398.64,869.29,396.58Z"/><path class="cls-25" d="M738.29,548.93,680.2,514.48l.32,24.66L749.82,580,741,551.92Zm-44.62-10.8c-1.94.87-4.7-1.07-6.16-4.34s-1.08-6.61.86-7.48,4.69,1.08,6.15,4.34S695.6,537.26,693.67,538.13Zm42.13,25.48c-1.93.87-4.69-1.07-6.15-4.33s-1.08-6.62.85-7.49,4.7,1.08,6.16,4.34S737.74,562.75,735.8,563.61Z"/><polygon class="cls-25" points="738.29 548.93 740.98 551.92 749.82 579.99 749.36 555.5 738.29 548.93"/><polygon class="cls-25" points="738.27 548.91 680.2 514.44 680.2 514.48 738.29 548.93 738.27 548.91"/><polygon class="cls-25" points="749.36 555.5 738.27 548.91 738.29 548.93 749.36 555.5"/><path class="cls-26" d="M809.67,846.74a5.12,5.12,0,0,0,5.25.08c1.23-.94.89-2.51-.78-3.49s-4-1-5.24-.08S808,845.75,809.67,846.74Z"/><path class="cls-26" d="M774.21,873.82c1.66,1,4,1,5.25.08s.88-2.51-.78-3.5-4-1-5.24-.07S772.55,872.83,774.21,873.82Z"/><path class="cls-26" d="M786,864.79a5.12,5.12,0,0,0,5.25.08c1.23-.94.88-2.51-.78-3.49a5.1,5.1,0,0,0-5.24-.08C784,862.24,784.37,863.81,786,864.79Z"/><path class="cls-26" d="M797.85,855.77c1.66,1,4,1,5.25.07s.89-2.5-.78-3.49-4-1-5.24-.08S796.19,854.78,797.85,855.77Z"/><path class="cls-26" d="M762.39,882.84a5.12,5.12,0,0,0,5.25.08c1.23-.94.88-2.51-.78-3.49a5.1,5.1,0,0,0-5.24-.08C760.38,880.29,760.73,881.86,762.39,882.84Z"/><path class="cls-26" d="M750.57,891.87a5.12,5.12,0,0,0,5.25.08c1.23-1,.88-2.51-.78-3.5s-4-1-5.25-.07S748.91,890.88,750.57,891.87Z"/><path class="cls-26" d="M833.31,828.69a5.12,5.12,0,0,0,5.25.08c1.23-.95.89-2.51-.78-3.5s-4-1-5.24-.07S831.65,827.7,833.31,828.69Z"/><path class="cls-26" d="M880.59,792.59c1.66,1,4,1,5.25.07s.89-2.5-.78-3.49a5.1,5.1,0,0,0-5.24-.08C878.58,790,878.93,791.6,880.59,792.59Z"/><path class="cls-26" d="M868.77,801.61a5.12,5.12,0,0,0,5.25.08c1.23-.94.89-2.51-.78-3.49a5.1,5.1,0,0,0-5.24-.08C866.76,799.06,867.11,800.63,868.77,801.61Z"/><path class="cls-26" d="M738.75,900.9c1.66,1,4,1,5.25.07s.88-2.5-.78-3.49a5.12,5.12,0,0,0-5.25-.08C736.74,898.35,737.09,899.91,738.75,900.9Z"/><path class="cls-26" d="M821.49,837.71c1.66,1,4,1,5.25.08s.89-2.5-.78-3.49a5.1,5.1,0,0,0-5.24-.08C819.48,835.17,819.83,836.73,821.49,837.71Z"/><path class="cls-26" d="M845.13,819.66a5.12,5.12,0,0,0,5.25.08c1.23-.94.89-2.51-.78-3.49a5.1,5.1,0,0,0-5.24-.08C843.12,817.11,843.47,818.68,845.13,819.66Z"/><path class="cls-26" d="M857,810.64c1.66,1,4,1,5.25.08s.89-2.51-.78-3.5-4-1-5.24-.08S855.29,809.65,857,810.64Z"/><path class="cls-25" d="M931.06,800,908,786.28,734.8,918.49l19,11.28L908.41,810.9l23.13,13.54L931.06,800Zm-7.71,9.94c-1.35.85-3.49-.13-4.78-2.18s-1.25-4.41.1-5.26,3.49.13,4.78,2.18S924.7,809.07,923.35,809.92Z"/><polygon class="cls-25" points="754.74 958.86 758.22 956.47 757.47 931.93 757.47 931.93 754.27 934.37 754.74 958.86"/><polygon class="cls-5" points="934.25 797.54 931.85 799.37 931.06 799.98 931.54 824.44 934.72 822.23 934.25 797.54"/><path class="cls-7" d="M861.24,758.58l.89,24.88,6.37,3.77,18-13.7Zm12.87,22.14c-1.35.85-3.49-.13-4.79-2.18s-1.25-4.41.1-5.26,3.49.12,4.79,2.18S875.46,779.87,874.11,780.72Z"/><polygon class="cls-4" points="757.47 931.93 757.47 931.93 753.82 929.77 752.25 930.98 757.47 931.93"/><path class="cls-4" d="M743.19,927.79l-8.39-9.3,173-132.85L931.06,800l.79-.61,2.4-1.83-69.67-41.32-3.19,2.44,25.06,14.86h0l.72.43-17.12,14.19-1.55-.92L713.3,905.74l-25.06-14.87-3.2,2.44.07.05v-.05Zm136.63-138.7a5.1,5.1,0,0,1,5.24.08c1.67,1,2,2.55.78,3.49s-3.59.91-5.25-.07S878.58,790,879.82,789.09Zm-11.82,9a5.1,5.1,0,0,1,5.24.08c1.67,1,2,2.55.78,3.49a5.12,5.12,0,0,1-5.25-.08C867.11,800.63,866.76,799.06,868,798.12Zm-11.82,9c1.23-.94,3.58-.9,5.24.08s2,2.55.78,3.5-3.59.9-5.25-.08S854.94,808.09,856.18,807.14Zm-11.82,9a5.1,5.1,0,0,1,5.24.08c1.67,1,2,2.55.78,3.49a5.12,5.12,0,0,1-5.25-.08C843.47,818.68,843.12,817.11,844.36,816.17Zm-11.82,9c1.23-1,3.58-.91,5.24.07s2,2.55.78,3.5a5.12,5.12,0,0,1-5.25-.08C831.65,827.7,831.3,826.14,832.54,825.2Zm-11.82,9a5.1,5.1,0,0,1,5.24.08c1.67,1,2,2.55.78,3.49s-3.59.91-5.25-.08S819.48,835.17,820.72,834.22Zm-11.82,9c1.23-1,3.58-.91,5.24.08s2,2.55.78,3.49a5.12,5.12,0,0,1-5.25-.08C808,845.75,807.66,844.19,808.9,843.25Zm-11.82,9c1.23-.94,3.58-.9,5.24.08s2,2.55.78,3.49-3.59.91-5.25-.07S795.84,853.22,797.08,852.27Zm-11.82,9a5.1,5.1,0,0,1,5.24.08c1.66,1,2,2.55.78,3.49a5.12,5.12,0,0,1-5.25-.08C784.37,863.81,784,862.24,785.26,861.3Zm-11.82,9c1.23-1,3.58-.91,5.24.07s2,2.55.78,3.5-3.59.9-5.25-.08S772.2,871.27,773.44,870.33Zm-11.82,9a5.1,5.1,0,0,1,5.24.08c1.66,1,2,2.55.78,3.49a5.12,5.12,0,0,1-5.25-.08C760.73,881.86,760.38,880.29,761.62,879.35Zm-11.83,9c1.24-1,3.59-.91,5.25.07s2,2.55.78,3.5a5.12,5.12,0,0,1-5.25-.08C748.91,890.88,748.56,889.32,749.79,888.38Zm-11.82,9a5.12,5.12,0,0,1,5.25.08c1.66,1,2,2.55.78,3.49s-3.59.91-5.25-.07S736.74,898.35,738,897.4Z"/><polygon class="cls-4" points="907.95 786.28 931.06 799.98 931.06 799.98 931.06 799.98 907.75 785.64 734.8 918.49 743.19 927.79 754.27 934.37 757.47 931.93 752.25 930.98 753.82 929.77 734.8 918.49 907.95 786.28"/><polygon class="cls-4" points="931.06 799.98 931.85 799.37 931.06 799.98 931.06 799.98"/><polygon class="cls-4" points="887.17 773.96 886.45 773.53 868.5 787.23 870.04 788.15 887.17 773.96"/><path class="cls-8" d="M918.67,802.48c-1.35.85-1.4,3.21-.1,5.26s3.43,3,4.78,2.18,1.4-3.2.1-5.26S920,801.63,918.67,802.48Z"/><path class="cls-8" d="M874.21,775.46c-1.3-2.06-3.44-3-4.79-2.18s-1.39,3.2-.1,5.26,3.44,3,4.79,2.18S875.5,777.51,874.21,775.46Z"/><path class="cls-25" d="M743.2,927.81l-58.09-34.45.32,24.65,69.31,40.85-8.85-28.07Zm-44.6-9.08c-1.94.87-4.69-1.08-6.15-4.34s-1.08-6.61.85-7.48,4.7,1.07,6.16,4.34S700.54,917.86,698.6,918.73Zm42.14,25.48c-1.94.87-4.69-1.07-6.16-4.34s-1.08-6.61.86-7.48,4.69,1.07,6.16,4.34S742.68,943.34,740.74,944.21Z"/><polygon class="cls-25" points="743.2 927.8 745.89 930.79 754.74 958.86 754.27 934.37 743.2 927.8"/><polygon class="cls-25" points="743.19 927.79 685.11 893.31 685.11 893.36 743.2 927.8 743.19 927.79"/><polygon class="cls-25" points="754.27 934.37 743.19 927.79 743.2 927.8 754.27 934.37"/><polygon class="cls-9" points="872.52 771.84 868.28 772.8 866.67 773.81 871.06 772.76 871.06 772.76 872.52 771.84 872.52 771.84"/><polygon class="cls-10" points="875.57 782.09 871.19 783.13 866.75 778.99 866.68 773.81 871.06 772.76 875.5 776.9 875.57 782.09"/><polygon class="cls-11" points="876.86 776.04 872.52 771.84 871.06 772.76 875.5 776.9 875.5 776.93 876.86 776.08 876.86 776.04"/><polygon class="cls-9" points="875.5 776.93 875.57 782.08 876.92 781.22 876.86 776.08 875.5 776.93"/><ellipse class="cls-12" cx="870.3" cy="778.4" rx="2.2" ry="3.02" transform="translate(-10.02 11.35) rotate(-0.74)"/><ellipse class="cls-13" cx="870.07" cy="778.55" rx="2.2" ry="3.02" transform="matrix(1, -0.02, 0.02, 1, -18.29, 20.94)"/><ellipse class="cls-14" cx="869.84" cy="778.69" rx="2.19" ry="3.02" transform="translate(-26.46 30.61) rotate(-1.99)"/><ellipse class="cls-15" cx="869.61" cy="778.84" rx="2.19" ry="3.02" transform="translate(-34.54 40.38) rotate(-2.61)"/><ellipse class="cls-16" cx="869.38" cy="778.98" rx="2.19" ry="3.02" transform="translate(-42.52 50.23) rotate(-3.23)"/><ellipse class="cls-17" cx="869.15" cy="779.13" rx="2.19" ry="3.02" transform="matrix(1, -0.07, 0.07, 1, -50.39, 60.16)"/><ellipse class="cls-18" cx="868.92" cy="779.28" rx="2.19" ry="3.02" transform="translate(-58.16 70.18) rotate(-4.48)"/><ellipse class="cls-19" cx="868.69" cy="779.42" rx="2.19" ry="3.02" transform="translate(-65.82 80.26) rotate(-5.1)"/><ellipse class="cls-20" cx="868.46" cy="779.57" rx="2.2" ry="3.02" transform="translate(-73.36 90.42) rotate(-5.72)"/><ellipse class="cls-21" cx="868.23" cy="779.72" rx="2.2" ry="3.02" transform="translate(-80.8 100.65) rotate(-6.34)"/><polygon class="cls-9" points="921.63 801.42 917.39 802.37 915.78 803.39 920.17 802.34 920.18 802.34 921.63 801.42 921.63 801.42"/><polygon class="cls-10" points="924.68 811.66 920.31 812.71 915.86 808.57 915.8 803.38 920.17 802.34 924.62 806.48 924.68 811.66"/><polygon class="cls-11" points="925.97 805.62 921.63 801.42 920.18 802.34 924.62 806.48 924.62 806.51 925.97 805.65 925.97 805.62"/><polygon class="cls-9" points="924.62 806.51 924.68 811.65 926.04 810.79 925.97 805.65 924.62 806.51"/><ellipse class="cls-12" cx="919.41" cy="807.97" rx="2.2" ry="3.02" transform="translate(-10.4 11.99) rotate(-0.74)"/><ellipse class="cls-13" cx="919.18" cy="808.12" rx="2.2" ry="3.02" transform="matrix(1, -0.02, 0.02, 1, -18.98, 22.11)"/><ellipse class="cls-14" cx="918.95" cy="808.27" rx="2.19" ry="3.02" transform="translate(-27.46 32.33) rotate(-1.99)"/><ellipse class="cls-15" cx="918.72" cy="808.41" rx="2.19" ry="3.02" transform="translate(-35.84 42.64) rotate(-2.61)"/><ellipse class="cls-16" cx="918.49" cy="808.56" rx="2.19" ry="3.02" transform="translate(-44.11 53.05) rotate(-3.23)"/><ellipse class="cls-17" cx="918.26" cy="808.71" rx="2.19" ry="3.02" transform="translate(-52.27 63.53) rotate(-3.85)"/><ellipse class="cls-18" cx="918.03" cy="808.85" rx="2.19" ry="3.02" transform="translate(-60.31 74.1) rotate(-4.48)"/><ellipse class="cls-19" cx="917.8" cy="809" rx="2.19" ry="3.02" transform="translate(-68.25 84.75) rotate(-5.1)"/><ellipse class="cls-20" cx="917.58" cy="809.15" rx="2.2" ry="3.02" transform="translate(-76.07 95.47) rotate(-5.72)"/><ellipse class="cls-21" cx="917.35" cy="809.29" rx="2.2" ry="3.02" transform="translate(-83.76 106.26) rotate(-6.34)"/><polygon class="cls-9" points="867.62 392.69 863.38 393.64 861.76 394.65 866.16 393.6 866.16 393.61 867.62 392.69 867.62 392.69"/><polygon class="cls-10" points="870.67 402.93 866.29 403.98 861.85 399.83 861.78 394.65 866.16 393.6 870.6 397.74 870.67 402.93"/><polygon class="cls-11" points="871.96 396.89 867.62 392.69 866.16 393.61 870.6 397.74 870.6 397.77 871.96 396.92 871.96 396.89"/><polygon class="cls-9" points="870.6 397.77 870.67 402.92 872.02 402.06 871.96 396.92 870.6 397.77"/><ellipse class="cls-12" cx="865.4" cy="399.24" rx="2.2" ry="3.02" transform="translate(-5.1 11.26) rotate(-0.74)"/><ellipse class="cls-13" cx="865.17" cy="399.39" rx="2.2" ry="3.02" transform="translate(-9.26 20.71) rotate(-1.36)"/><ellipse class="cls-14" cx="864.94" cy="399.53" rx="2.19" ry="3.02" transform="translate(-13.33 30.22) rotate(-1.99)"/><ellipse class="cls-15" cx="864.71" cy="399.68" rx="2.19" ry="3.02" transform="translate(-17.29 39.76) rotate(-2.61)"/><ellipse class="cls-16" cx="864.48" cy="399.83" rx="2.19" ry="3.02" transform="translate(-21.16 49.35) rotate(-3.23)"/><ellipse class="cls-17" cx="864.25" cy="399.97" rx="2.19" ry="3.02" transform="translate(-24.92 58.98) rotate(-3.85)"/><ellipse class="cls-18" cx="864.02" cy="400.12" rx="2.19" ry="3.02" transform="translate(-28.59 68.64) rotate(-4.48)"/><ellipse class="cls-19" cx="863.79" cy="400.27" rx="2.19" ry="3.02" transform="translate(-32.15 78.33) rotate(-5.1)"/><ellipse class="cls-20" cx="863.56" cy="400.41" rx="2.2" ry="3.02" transform="translate(-35.6 88.05) rotate(-5.72)"/><ellipse class="cls-21" cx="863.33" cy="400.56" rx="2.2" ry="3.02" transform="translate(-38.96 97.79) rotate(-6.34)"/><polygon class="cls-9" points="916.73 422.26 912.49 423.21 910.88 424.23 915.27 423.18 915.27 423.18 916.73 422.26 916.73 422.26"/><polygon class="cls-10" points="919.78 432.5 915.4 433.55 910.96 429.41 910.89 424.22 915.27 423.18 919.71 427.32 919.78 432.5"/><polygon class="cls-11" points="921.07 426.46 916.73 422.26 915.27 423.18 919.71 427.32 919.72 427.35 921.07 426.5 921.07 426.46"/><polygon class="cls-9" points="919.72 427.35 919.78 432.49 921.14 431.64 921.07 426.5 919.72 427.35"/><ellipse class="cls-12" cx="914.51" cy="428.82" rx="2.2" ry="3.02" transform="translate(-5.48 11.9) rotate(-0.74)"/><ellipse class="cls-13" cx="914.28" cy="428.96" rx="2.2" ry="3.02" transform="translate(-9.95 21.89) rotate(-1.36)"/><ellipse class="cls-14" cx="914.05" cy="429.11" rx="2.19" ry="3.02" transform="translate(-14.32 31.94) rotate(-1.99)"/><ellipse class="cls-15" cx="913.82" cy="429.26" rx="2.19" ry="3.02" transform="translate(-18.59 42.03) rotate(-2.61)"/><ellipse class="cls-16" cx="913.59" cy="429.4" rx="2.19" ry="3.02" transform="translate(-22.75 52.17) rotate(-3.23)"/><ellipse class="cls-17" cx="913.36" cy="429.55" rx="2.19" ry="3.02" transform="translate(-26.8 62.34) rotate(-3.85)"/><ellipse class="cls-18" cx="913.13" cy="429.69" rx="2.19" ry="3.02" transform="matrix(1, -0.08, 0.08, 1, -30.74, 72.56)"/><ellipse class="cls-19" cx="912.9" cy="429.84" rx="2.19" ry="3.02" transform="translate(-34.58 82.81) rotate(-5.1)"/><ellipse class="cls-20" cx="912.67" cy="429.99" rx="2.2" ry="3.02" transform="translate(-38.31 93.09) rotate(-5.72)"/><ellipse class="cls-21" cx="912.44" cy="430.13" rx="2.2" ry="3.02" transform="translate(-41.92 103.4) rotate(-6.34)"/><path class="cls-4" d="M753.88,934.65,71.43,529.41,53.59,543.82l681.21,404Zm-13.7,3.88a6.08,6.08,0,0,1-5.84,0c-1.67-1-1.75-2.6-.18-3.61a6.08,6.08,0,0,1,5.84,0C741.67,935.91,741.75,937.52,740.18,938.53ZM723.11,928.4a6.08,6.08,0,0,1-5.84,0c-1.66-1-1.75-2.6-.18-3.61a6.06,6.06,0,0,1,5.84,0C724.59,925.78,724.68,927.4,723.11,928.4ZM706,918.28a6.08,6.08,0,0,1-5.84,0c-1.66-1-1.74-2.61-.18-3.61a6.06,6.06,0,0,1,5.84,0C707.52,915.66,707.6,917.27,706,918.28ZM689,908.16a6.06,6.06,0,0,1-5.83,0c-1.67-1-1.75-2.6-.19-3.61a6.08,6.08,0,0,1,5.84,0C690.45,905.53,690.53,907.15,689,908.16ZM671.9,898a6,6,0,0,1-5.83,0c-1.66-1-1.75-2.6-.19-3.61a6,6,0,0,1,5.83,0C673.38,895.41,673.46,897,671.9,898Zm-17.07-10.12a6,6,0,0,1-5.83,0c-1.66-1-1.75-2.6-.19-3.61a6,6,0,0,1,5.83,0C656.3,885.28,656.39,886.9,654.83,887.91Zm-17.07-10.12a6,6,0,0,1-5.82,0c-1.67-1-1.76-2.61-.2-3.62a6,6,0,0,1,5.83,0C639.23,875.16,639.32,876.78,637.76,877.79Zm-49.91-29.61a6,6,0,0,1-5.82.05c-1.67-1-1.76-2.61-.21-3.62a6,6,0,0,1,5.82-.05C589.3,845.55,589.4,847.17,587.85,848.18Zm-29.23-22.75,3.2-2.1L574.74,831l-3.21,2.1ZM73.48,543.13a5.77,5.77,0,0,1,5.73-.1c1.66,1,1.8,2.63.29,3.67a5.75,5.75,0,0,1-5.72.11C72.11,545.82,72,544.17,73.48,543.13ZM100.16,559a5.77,5.77,0,0,1,5.73-.09c1.67,1,1.8,2.63.29,3.67a5.79,5.79,0,0,1-5.73.1C98.79,561.64,98.66,560,100.16,559Zm16.35,9.7a5.79,5.79,0,0,1,5.74-.09c1.66,1,1.79,2.63.29,3.67a5.79,5.79,0,0,1-5.74.09C115.14,571.34,115,569.69,116.51,568.65Zm20.35,12.07a5.79,5.79,0,0,1,5.74-.09c1.67,1,1.79,2.62.29,3.66a5.81,5.81,0,0,1-5.74.1C135.48,583.4,135.35,581.76,136.86,580.72Zm44.5,26.39a5.8,5.8,0,0,1,5.75-.09c1.66,1,1.78,2.63.27,3.66a5.8,5.8,0,0,1-5.75.09C180,609.79,179.85,608.15,181.36,607.11Zm44.49,26.39a5.85,5.85,0,0,1,5.76-.09c1.66,1,1.78,2.63.27,3.66a5.87,5.87,0,0,1-5.76.09C224.46,636.17,224.34,634.53,225.85,633.5Zm44.5,26.39a5.85,5.85,0,0,1,5.76-.08c1.67,1,1.78,2.62.26,3.65a5.85,5.85,0,0,1-5.76.08C269,662.55,268.83,660.92,270.35,659.89Zm44.49,26.39a5.89,5.89,0,0,1,5.78-.08c1.66,1,1.77,2.62.25,3.65a5.87,5.87,0,0,1-5.77.07C313.43,688.94,313.32,687.3,314.84,686.28Zm44.5,26.38a5.94,5.94,0,0,1,5.78-.07c1.67,1,1.77,2.62.25,3.65a5.91,5.91,0,0,1-5.78.07C357.92,715.32,357.81,713.69,359.34,712.66Zm44.5,26.39a5.93,5.93,0,0,1,5.79-.06c1.66,1,1.76,2.61.23,3.64a5.93,5.93,0,0,1-5.79.06C402.41,741.71,402.3,740.08,403.84,739.05Zm44.49,26.39a6,6,0,0,1,5.8-.06c1.66,1,1.77,2.61.23,3.64a6,6,0,0,1-5.8.06C446.9,768.09,446.8,766.46,448.33,765.44Zm44.5,26.39a6,6,0,0,1,5.8-.06c1.67,1,1.77,2.62.22,3.63a6,6,0,0,1-5.8.06C491.39,794.48,491.29,792.85,492.83,791.83Zm44.49,26.39a6,6,0,0,1,5.82-.05c1.66,1,1.76,2.61.21,3.62a6,6,0,0,1-5.81.06C535.88,820.86,535.78,819.24,537.32,818.22ZM550,831.12l9,.51.25-.16.4-.26L563,829l2.47,1.47-5.21,3.41a2.64,2.64,0,0,0-.36.28c-.71.64-.79,1.39-.12,1.79a3.3,3.3,0,0,0,2.85-.17,3.09,3.09,0,0,0,.44-.24l5.21-3.41,2.47,1.46L565.52,837l-.4.26h0c-2.83,1.67-6.62,2.07-8.66.86-1.66-1-1.67-2.76-.23-4.38l-9.46-.54Z"/><path class="cls-5" d="M734.8,947.82l-681.21-404L53.19,568,735,971.68Zm-664-381.61c-.13-2,1.12-2.75,2.78-1.77a7.52,7.52,0,0,1,3.24,5.34c.12,2-1.12,2.76-2.78,1.77A7.48,7.48,0,0,1,70.75,566.21Zm14.14,8.39c-.13-2,1.12-2.76,2.78-1.77a7.52,7.52,0,0,1,3.24,5.34c.12,2-1.12,2.75-2.78,1.77A7.52,7.52,0,0,1,84.89,574.6ZM99,583c-.13-2,1.12-2.76,2.78-1.77a7.48,7.48,0,0,1,3.24,5.34c.12,2-1.12,2.75-2.78,1.76A7.45,7.45,0,0,1,99,583Zm14.14,8.38c-.12-2,1.12-2.75,2.78-1.77a7.49,7.49,0,0,1,3.24,5.34c.12,2-1.12,2.75-2.78,1.77A7.49,7.49,0,0,1,113.17,591.37Zm14.14,8.39c-.12-2,1.12-2.76,2.78-1.77a7.46,7.46,0,0,1,3.24,5.34c.12,2-1.12,2.75-2.78,1.76A7.45,7.45,0,0,1,127.31,599.76Zm14.14,8.38c-.12-2,1.12-2.75,2.79-1.76a7.44,7.44,0,0,1,3.23,5.33c.12,2-1.12,2.76-2.78,1.77A7.47,7.47,0,0,1,141.45,608.14Zm14.14,8.39c-.12-2,1.13-2.75,2.79-1.77a7.48,7.48,0,0,1,3.23,5.34c.12,2-1.12,2.75-2.78,1.77A7.49,7.49,0,0,1,155.59,616.53Zm14.14,8.39c-.12-2,1.13-2.75,2.79-1.77a7.48,7.48,0,0,1,3.23,5.34c.13,2-1.12,2.75-2.78,1.76A7.45,7.45,0,0,1,169.73,624.92Zm14.14,8.38c-.12-2,1.13-2.75,2.79-1.76a7.44,7.44,0,0,1,3.23,5.33c.13,2-1.12,2.75-2.79,1.77A7.51,7.51,0,0,1,183.87,633.3ZM198,641.69c-.12-2,1.13-2.75,2.79-1.77a7.44,7.44,0,0,1,3.23,5.34c.13,2-1.12,2.75-2.79,1.76A7.47,7.47,0,0,1,198,641.69Zm14.62,8.67c-.12-2,1.13-2.75,2.79-1.77a7.48,7.48,0,0,1,3.23,5.34c.12,2-1.13,2.75-2.79,1.76A7.44,7.44,0,0,1,212.63,650.36Zm7.72,4.58c-.12-2,1.13-2.75,2.79-1.77a7.48,7.48,0,0,1,3.23,5.34c.12,2-1.13,2.74-2.79,1.76A7.46,7.46,0,0,1,220.35,654.94Zm7.72,4.57c-.12-2,1.13-2.75,2.79-1.76a7.46,7.46,0,0,1,3.23,5.33c.12,2-1.13,2.75-2.79,1.77A7.48,7.48,0,0,1,228.07,659.51Zm7.72,4.58c-.12-2,1.13-2.75,2.79-1.76a7.44,7.44,0,0,1,3.23,5.33c.12,2-1.13,2.75-2.79,1.76A7.41,7.41,0,0,1,235.79,664.09Zm7.72,4.58c-.12-2,1.13-2.75,2.79-1.76a7.44,7.44,0,0,1,3.23,5.33c.12,2-1.13,2.75-2.8,1.76A7.43,7.43,0,0,1,243.51,668.67Zm7.72,4.58c-.12-2,1.13-2.75,2.79-1.77a7.43,7.43,0,0,1,3.22,5.34c.12,2-1.13,2.74-2.79,1.76A7.44,7.44,0,0,1,251.23,673.25Zm7.71,4.57c-.12-2,1.13-2.74,2.8-1.76a7.46,7.46,0,0,1,3.22,5.33c.12,2-1.13,2.75-2.79,1.77A7.48,7.48,0,0,1,258.94,677.82Zm7.72,4.58c-.12-2,1.13-2.75,2.8-1.76a7.44,7.44,0,0,1,3.22,5.33c.12,2-1.13,2.75-2.79,1.76A7.44,7.44,0,0,1,266.66,682.4Zm7.72,4.58c-.12-2,1.13-2.75,2.8-1.76a7.43,7.43,0,0,1,3.22,5.33c.12,2-1.13,2.75-2.79,1.76A7.42,7.42,0,0,1,274.38,687Zm7.72,4.58c-.12-2,1.13-2.75,2.79-1.76a7.41,7.41,0,0,1,3.23,5.33c.12,2-1.13,2.74-2.8,1.76A7.44,7.44,0,0,1,282.1,691.56Zm7.72,4.58c-.12-2,1.13-2.75,2.79-1.77a7.44,7.44,0,0,1,3.23,5.33c.12,2-1.13,2.75-2.8,1.77A7.46,7.46,0,0,1,289.82,696.14Zm7.72,4.57c-.12-2,1.13-2.74,2.79-1.76a7.42,7.42,0,0,1,3.23,5.33c.11,2-1.14,2.75-2.8,1.76A7.43,7.43,0,0,1,297.54,700.71Zm7.72,4.58c-.12-2,1.13-2.75,2.79-1.76a7.46,7.46,0,0,1,3.23,5.33c.11,2-1.14,2.75-2.8,1.76A7.41,7.41,0,0,1,305.26,705.29Zm7.71,4.58c-.11-2,1.14-2.75,2.8-1.76a7.39,7.39,0,0,1,3.22,5.33c.12,2-1.13,2.74-2.79,1.76A7.46,7.46,0,0,1,313,709.87Zm7.72,4.58c-.11-2,1.14-2.75,2.8-1.76a7.39,7.39,0,0,1,3.22,5.33c.12,2-1.13,2.74-2.79,1.75A7.4,7.4,0,0,1,320.69,714.45Zm7.72,4.57c-.12-1.95,1.14-2.74,2.8-1.76a7.46,7.46,0,0,1,3.22,5.33c.12,2-1.13,2.75-2.8,1.76A7.43,7.43,0,0,1,328.41,719Zm7.72,4.58c-.12-2,1.14-2.74,2.8-1.76a7.44,7.44,0,0,1,3.22,5.33c.12,2-1.14,2.74-2.8,1.76A7.44,7.44,0,0,1,336.13,723.6Zm7.72,4.58c-.12-2,1.14-2.75,2.8-1.76a7.44,7.44,0,0,1,3.22,5.33c.11,2-1.14,2.74-2.8,1.76A7.44,7.44,0,0,1,343.85,728.18Zm7.72,4.58c-.12-2,1.14-2.75,2.8-1.76a7.43,7.43,0,0,1,3.22,5.33c.11,1.95-1.14,2.74-2.8,1.75A7.39,7.39,0,0,1,351.57,732.76Zm7.72,4.57c-.12-2,1.13-2.74,2.8-1.75a7.42,7.42,0,0,1,3.22,5.32c.11,2-1.14,2.75-2.8,1.76A7.36,7.36,0,0,1,359.29,737.33Zm7.72,4.58c-.12-1.95,1.13-2.74,2.8-1.76a7.4,7.4,0,0,1,3.21,5.33c.12,2-1.13,2.74-2.8,1.76A7.4,7.4,0,0,1,367,741.91Zm15.23,9c-.12-2,1.14-2.75,2.8-1.76a7.44,7.44,0,0,1,3.22,5.33c.11,2-1.14,2.74-2.8,1.75A7.39,7.39,0,0,1,382.24,751Zm15.23,9c-.11-2,1.14-2.74,2.81-1.76a7.42,7.42,0,0,1,3.21,5.33c.12,2-1.14,2.74-2.8,1.76A7.44,7.44,0,0,1,397.47,760Zm15.24,9c-.12-2,1.14-2.75,2.8-1.76a7.44,7.44,0,0,1,3.22,5.33c.11,1.95-1.14,2.74-2.81,1.75A7.38,7.38,0,0,1,412.71,769Zm15.23,9c-.11-1.95,1.15-2.74,2.81-1.75a7.38,7.38,0,0,1,3.21,5.32c.12,2-1.14,2.74-2.8,1.76A7.44,7.44,0,0,1,427.94,778.05Zm15.24,9c-.12-2,1.14-2.74,2.8-1.76a7.41,7.41,0,0,1,3.22,5.33c.11,2-1.15,2.74-2.81,1.75A7.4,7.4,0,0,1,443.18,787.09Zm15.23,9c-.11-2,1.15-2.74,2.81-1.75a7.38,7.38,0,0,1,3.21,5.32c.11,1.95-1.14,2.74-2.81,1.75A7.36,7.36,0,0,1,458.41,796.12Zm15.24,9c-.12-2,1.14-2.74,2.8-1.76a7.37,7.37,0,0,1,3.21,5.33c.12,1.95-1.14,2.73-2.8,1.75A7.4,7.4,0,0,1,473.65,805.16Zm15.23,9c-.11-2,1.15-2.74,2.81-1.75a7.38,7.38,0,0,1,3.21,5.32c.11,2-1.15,2.74-2.81,1.75A7.38,7.38,0,0,1,488.88,814.19Zm15.23,9c-.11-2,1.15-2.74,2.81-1.76a7.37,7.37,0,0,1,3.21,5.33c.11,2-1.14,2.73-2.81,1.75A7.4,7.4,0,0,1,504.11,823.23Zm15.24,9c-.11-2,1.15-2.74,2.81-1.75a7.4,7.4,0,0,1,3.21,5.32c.11,1.95-1.15,2.74-2.81,1.75A7.35,7.35,0,0,1,519.35,832.26Zm15.23,9c-.11-2,1.15-2.74,2.82-1.76a7.39,7.39,0,0,1,3.2,5.33c.11,2-1.15,2.73-2.81,1.75A7.4,7.4,0,0,1,534.58,841.3Zm15.24,9c-.11-2,1.15-2.74,2.81-1.75a7.4,7.4,0,0,1,3.21,5.32c.11,2-1.15,2.74-2.82,1.75A7.39,7.39,0,0,1,549.82,850.33Zm15.23,9c-.11-2,1.15-2.74,2.82-1.75a7.35,7.35,0,0,1,3.2,5.32c.11,1.95-1.15,2.73-2.81,1.74A7.33,7.33,0,0,1,565.05,859.37Zm15.24,9c-.11-1.95,1.15-2.73,2.81-1.75a7.4,7.4,0,0,1,3.21,5.32c.1,1.95-1.16,2.73-2.82,1.75A7.36,7.36,0,0,1,580.29,868.4Zm15.23,9c-.11-2,1.15-2.74,2.82-1.75a7.35,7.35,0,0,1,3.2,5.31c.11,2-1.15,2.74-2.82,1.75A7.35,7.35,0,0,1,595.52,877.44Zm15.23,9c-.1-2,1.16-2.73,2.82-1.75a7.36,7.36,0,0,1,3.2,5.32c.11,2-1.15,2.73-2.81,1.75A7.37,7.37,0,0,1,610.75,886.47Zm15.24,9c-.11-2,1.16-2.73,2.82-1.74a7.35,7.35,0,0,1,3.2,5.31c.1,1.95-1.16,2.74-2.82,1.75A7.32,7.32,0,0,1,626,895.5Zm15.23,9c-.1-1.95,1.16-2.73,2.82-1.75a7.33,7.33,0,0,1,3.2,5.32c.11,1.95-1.15,2.73-2.82,1.75A7.39,7.39,0,0,1,641.22,904.54Zm15.24,9c-.11-2,1.16-2.73,2.82-1.74a7.35,7.35,0,0,1,3.2,5.31c.1,2-1.16,2.74-2.82,1.75A7.33,7.33,0,0,1,656.46,913.57Zm15.23,9c-.1-2,1.16-2.73,2.82-1.75a7.33,7.33,0,0,1,3.2,5.32c.11,2-1.16,2.73-2.82,1.74A7.35,7.35,0,0,1,671.69,922.61Zm15.24,9c-.11-1.94,1.16-2.73,2.82-1.74a7.39,7.39,0,0,1,3.2,5.31c.1,1.95-1.16,2.73-2.83,1.75A7.35,7.35,0,0,1,686.93,931.64Zm15.23,9c-.1-1.95,1.16-2.73,2.82-1.74a7.29,7.29,0,0,1,3.2,5.31c.1,2-1.16,2.73-2.82,1.74A7.29,7.29,0,0,1,702.16,940.68Zm15.24,9c-.11-1.94,1.16-2.72,2.82-1.74a7.35,7.35,0,0,1,3.19,5.31c.11,2-1.16,2.73-2.82,1.75A7.35,7.35,0,0,1,717.4,949.71Z"/><polygon class="cls-6" points="734.8 947.82 753.88 934.65 754.23 958.19 735.02 971.68 734.8 947.82"/><polygon class="cls-2" points="134.96 567.15 134.94 565.71 116.17 579.58 39.43 556.48 17.93 546.06 17.95 547.24 39.02 557.59 116.68 581.13 134.96 567.15"/><path class="cls-3" d="M116.16,579.58l18.78-13.87L89.93,521,66.18,509.87,17.93,546.06l21.5,10.42ZM81.23,550.82c-.23-1.46,1.68-2.45,4.26-2.22s4.85,1.59,5.07,3-1.68,2.45-4.26,2.22S81.45,552.28,81.23,550.82Zm33.72,16c-.23-1.45,1.68-2.45,4.26-2.22s4.85,1.6,5.07,3-1.68,2.45-4.26,2.23S115.17,568.25,115,566.79Z"/><polygon class="cls-2" points="334.13 416.32 334.11 414.88 315.34 428.75 238.6 405.65 217.1 395.23 217.12 396.41 238.19 406.76 315.85 430.3 334.13 416.32"/><path class="cls-3" d="M315.34,428.75l18.77-13.87-45-44.73L265.35,359,217.1,395.23l21.5,10.42ZM280.4,400c-.22-1.46,1.68-2.45,4.26-2.22s4.85,1.59,5.07,3.05-1.68,2.45-4.25,2.22S280.63,401.45,280.4,400Zm33.72,16c-.23-1.45,1.68-2.45,4.26-2.22s4.85,1.59,5.07,3.05-1.68,2.45-4.26,2.22S314.34,417.42,314.12,416Z"/><polygon class="cls-27" points="28.42 542.03 32.86 543.11 34.47 545.44 31.64 546.69 27.2 545.61 25.59 543.29 28.42 542.03"/><polygon class="cls-11" points="32.15 547.58 32.18 547.56 31.66 546.68 31.64 546.69 27.21 545.62 27.74 546.51 32.15 547.58"/><polygon class="cls-9" points="35.01 546.37 34.47 545.44 31.66 546.68 32.18 547.56 35.01 546.37"/><polygon class="cls-9" points="25.59 543.29 26.25 544.4 27.71 546.5 27.74 546.51 27.21 545.62 27.2 545.61 25.59 543.29"/><ellipse class="cls-12" cx="30.4" cy="544.28" rx="2.24" ry="1.2" transform="translate(-60.09 6.72) rotate(-6.36)"/><ellipse class="cls-13" cx="30.38" cy="544.14" rx="2.25" ry="1.2" transform="translate(-58.25 6.41) rotate(-6.16)"/><ellipse class="cls-14" cx="30.36" cy="544" rx="2.25" ry="1.19" transform="translate(-56.4 6.11) rotate(-5.97)"/><ellipse class="cls-15" cx="30.34" cy="543.86" rx="2.26" ry="1.19" transform="translate(-54.53 5.81) rotate(-5.77)"/><ellipse class="cls-16" cx="30.32" cy="543.73" rx="2.26" ry="1.19" transform="translate(-52.65 5.51) rotate(-5.57)"/><ellipse class="cls-17" cx="30.3" cy="543.59" rx="2.27" ry="1.19" transform="translate(-50.76 5.22) rotate(-5.37)"/><ellipse class="cls-18" cx="30.29" cy="543.45" rx="2.27" ry="1.18" transform="translate(-48.86 4.94) rotate(-5.17)"/><ellipse class="cls-19" cx="30.27" cy="543.31" rx="2.28" ry="1.18" transform="translate(-46.94 4.66) rotate(-4.97)"/><ellipse class="cls-20" cx="30.25" cy="543.17" rx="2.29" ry="1.18" transform="translate(-45.02 4.39) rotate(-4.77)"/><ellipse class="cls-21" cx="30.23" cy="543.04" rx="2.29" ry="1.17" transform="translate(-43.09 4.12) rotate(-4.56)"/><polygon class="cls-27" points="64.73 514.33 69.16 515.41 70.77 517.74 67.95 518.99 63.51 517.91 61.9 515.58 64.73 514.33"/><polygon class="cls-11" points="68.45 519.87 68.49 519.86 67.97 518.98 67.95 518.99 63.52 517.91 64.05 518.8 68.45 519.87"/><polygon class="cls-9" points="71.31 518.67 70.77 517.74 67.97 518.98 68.49 519.86 71.31 518.67"/><polygon class="cls-9" points="61.9 515.58 62.56 516.69 64.02 518.79 64.05 518.8 63.52 517.91 63.51 517.91 61.9 515.58"/><ellipse class="cls-12" cx="66.71" cy="516.57" rx="2.24" ry="1.2" transform="translate(-56.8 10.57) rotate(-6.36)"/><ellipse class="cls-13" cx="66.69" cy="516.43" rx="2.25" ry="1.2" transform="translate(-55.07 10.15) rotate(-6.16)"/><ellipse class="cls-14" cx="66.67" cy="516.3" rx="2.25" ry="1.19" transform="translate(-53.32 9.73) rotate(-5.97)"/><ellipse class="cls-15" cx="66.65" cy="516.16" rx="2.26" ry="1.19" transform="translate(-51.56 9.32) rotate(-5.77)"/><ellipse class="cls-16" cx="66.63" cy="516.02" rx="2.26" ry="1.19" transform="translate(-49.79 8.91) rotate(-5.57)"/><ellipse class="cls-17" cx="66.61" cy="515.88" rx="2.27" ry="1.19" transform="translate(-48.01 8.5) rotate(-5.37)"/><ellipse class="cls-18" cx="66.59" cy="515.74" rx="2.27" ry="1.18" transform="translate(-46.21 8.1) rotate(-5.17)"/><ellipse class="cls-19" cx="66.57" cy="515.61" rx="2.28" ry="1.18" transform="translate(-44.41 7.7) rotate(-4.97)"/><ellipse class="cls-20" cx="66.55" cy="515.47" rx="2.29" ry="1.18" transform="translate(-42.59 7.31) rotate(-4.77)"/><ellipse class="cls-21" cx="66.53" cy="515.33" rx="2.29" ry="1.17" transform="translate(-40.77 6.92) rotate(-4.56)"/><polygon class="cls-27" points="117.61 564.52 122.04 565.6 123.65 567.92 120.82 569.17 116.39 568.1 114.78 565.77 117.61 564.52"/><polygon class="cls-11" points="121.33 570.06 121.37 570.04 120.85 569.16 120.82 569.17 116.4 568.1 116.92 568.99 121.33 570.06"/><polygon class="cls-9" points="124.19 568.86 123.65 567.92 120.85 569.16 121.37 570.04 124.19 568.86"/><polygon class="cls-9" points="114.78 565.77 115.44 566.88 116.89 568.98 116.92 568.99 116.4 568.1 116.39 568.1 114.78 565.77"/><ellipse class="cls-12" cx="119.59" cy="566.76" rx="2.24" ry="1.2" transform="translate(-62.03 16.73) rotate(-6.36)"/><ellipse class="cls-13" cx="119.57" cy="566.62" rx="2.25" ry="1.2" transform="translate(-60.15 16.11) rotate(-6.16)"/><ellipse class="cls-14" cx="119.55" cy="566.48" rx="2.25" ry="1.19" transform="translate(-58.25 15.5) rotate(-5.97)"/><ellipse class="cls-15" cx="119.53" cy="566.35" rx="2.26" ry="1.19" transform="translate(-56.34 14.89) rotate(-5.77)"/><ellipse class="cls-16" cx="119.51" cy="566.21" rx="2.26" ry="1.19" transform="translate(-54.41 14.28) rotate(-5.57)"/><ellipse class="cls-17" cx="119.49" cy="566.07" rx="2.27" ry="1.19" transform="translate(-52.47 13.67) rotate(-5.37)"/><ellipse class="cls-18" cx="119.47" cy="565.93" rx="2.27" ry="1.18" transform="translate(-50.52 13.07) rotate(-5.17)"/><ellipse class="cls-19" cx="119.45" cy="565.8" rx="2.28" ry="1.18" transform="translate(-48.55 12.47) rotate(-4.97)"/><ellipse class="cls-20" cx="119.43" cy="565.66" rx="2.29" ry="1.18" transform="matrix(1, -0.08, 0.08, 1, -46.58, 11.88)"/><ellipse class="cls-21" cx="119.41" cy="565.52" rx="2.29" ry="1.17" transform="translate(-44.59 11.29) rotate(-4.56)"/><polygon class="cls-27" points="84 547.08 88.43 548.16 90.04 550.49 87.22 551.74 82.78 550.66 81.17 548.33 84 547.08"/><polygon class="cls-11" points="87.72 552.62 87.76 552.61 87.24 551.73 87.22 551.74 82.79 550.66 83.32 551.55 87.72 552.62"/><polygon class="cls-9" points="90.58 551.42 90.04 550.49 87.24 551.73 87.76 552.61 90.58 551.42"/><polygon class="cls-9" points="81.17 548.33 81.83 549.44 83.29 551.54 83.32 551.55 82.79 550.66 82.78 550.66 81.17 548.33"/><ellipse class="cls-12" cx="85.98" cy="549.32" rx="2.24" ry="1.2" transform="translate(-60.31 12.9) rotate(-6.36)"/><ellipse class="cls-13" cx="85.96" cy="549.18" rx="2.25" ry="1.2" transform="translate(-58.47 12.41) rotate(-6.16)"/><ellipse class="cls-14" cx="85.94" cy="549.05" rx="2.25" ry="1.19" transform="translate(-56.62 11.91) rotate(-5.97)"/><ellipse class="cls-15" cx="85.92" cy="548.91" rx="2.26" ry="1.19" transform="translate(-54.76 11.42) rotate(-5.77)"/><ellipse class="cls-16" cx="85.9" cy="548.77" rx="2.26" ry="1.19" transform="translate(-52.88 10.93) rotate(-5.57)"/><ellipse class="cls-17" cx="85.88" cy="548.63" rx="2.27" ry="1.19" transform="translate(-50.99 10.45) rotate(-5.37)"/><ellipse class="cls-18" cx="85.86" cy="548.49" rx="2.27" ry="1.18" transform="translate(-49.08 9.97) rotate(-5.17)"/><ellipse class="cls-19" cx="85.84" cy="548.36" rx="2.28" ry="1.18" transform="translate(-47.17 9.5) rotate(-4.97)"/><ellipse class="cls-20" cx="85.82" cy="548.22" rx="2.29" ry="1.18" transform="translate(-45.25 9.02) rotate(-4.77)"/><ellipse class="cls-21" cx="85.8" cy="548.08" rx="2.29" ry="1.17" transform="translate(-43.31 8.56) rotate(-4.56)"/><polygon class="cls-27" points="229.14 391.71 233.58 392.79 235.19 395.12 232.36 396.37 227.93 395.29 226.32 392.96 229.14 391.71"/><polygon class="cls-11" points="232.87 397.25 232.91 397.24 232.38 396.36 232.36 396.37 227.94 395.29 228.46 396.18 232.87 397.25"/><polygon class="cls-9" points="235.73 396.05 235.19 395.12 232.38 396.36 232.91 397.24 235.73 396.05"/><polygon class="cls-9" points="226.32 392.96 226.97 394.07 228.43 396.18 228.46 396.18 227.94 395.29 227.93 395.29 226.32 392.96"/><ellipse class="cls-12" cx="231.12" cy="393.95" rx="2.24" ry="1.2" transform="translate(-42.21 28.02) rotate(-6.36)"/><ellipse class="cls-13" cx="231.1" cy="393.81" rx="2.25" ry="1.2" transform="translate(-40.95 27.09) rotate(-6.16)"/><ellipse class="cls-14" cx="231.08" cy="393.68" rx="2.25" ry="1.19" transform="translate(-39.68 26.16) rotate(-5.97)"/><ellipse class="cls-15" cx="231.07" cy="393.54" rx="2.26" ry="1.19" transform="translate(-38.4 25.23) rotate(-5.77)"/><ellipse class="cls-16" cx="231.05" cy="393.4" rx="2.26" ry="1.19" transform="translate(-37.11 24.29) rotate(-5.57)"/><ellipse class="cls-17" cx="231.03" cy="393.26" rx="2.27" ry="1.19" transform="translate(-35.8 23.36) rotate(-5.37)"/><ellipse class="cls-18" cx="231.01" cy="393.12" rx="2.27" ry="1.18" transform="translate(-34.49 22.42) rotate(-5.17)"/><ellipse class="cls-19" cx="230.99" cy="392.99" rx="2.28" ry="1.18" transform="translate(-33.17 21.48) rotate(-4.97)"/><ellipse class="cls-20" cx="230.97" cy="392.85" rx="2.29" ry="1.18" transform="translate(-31.84 20.55) rotate(-4.77)"/><ellipse class="cls-21" cx="230.95" cy="392.71" rx="2.29" ry="1.17" transform="translate(-30.5 19.61) rotate(-4.56)"/><polygon class="cls-27" points="265.45 364 269.88 365.08 271.49 367.41 268.67 368.66 264.23 367.58 262.62 365.25 265.45 364"/><polygon class="cls-11" points="269.17 369.55 269.21 369.53 268.69 368.65 268.67 368.66 264.24 367.58 264.77 368.48 269.17 369.55"/><polygon class="cls-9" points="272.04 368.34 271.49 367.41 268.69 368.65 269.21 369.53 272.04 368.34"/><polygon class="cls-9" points="262.62 365.25 263.28 366.37 264.74 368.47 264.77 368.48 264.24 367.58 264.23 367.58 262.62 365.25"/><ellipse class="cls-12" cx="267.43" cy="366.25" rx="2.24" ry="1.2" transform="translate(-38.92 31.87) rotate(-6.36)"/><ellipse class="cls-13" cx="267.41" cy="366.11" rx="2.25" ry="1.2" transform="translate(-37.77 30.83) rotate(-6.16)"/><ellipse class="cls-14" cx="267.39" cy="365.97" rx="2.25" ry="1.19" transform="translate(-36.6 29.79) rotate(-5.97)"/><ellipse class="cls-15" cx="267.37" cy="365.83" rx="2.26" ry="1.19" transform="translate(-35.43 28.74) rotate(-5.77)"/><ellipse class="cls-16" cx="267.35" cy="365.69" rx="2.26" ry="1.19" transform="translate(-34.25 27.69) rotate(-5.57)"/><ellipse class="cls-17" cx="267.33" cy="365.56" rx="2.27" ry="1.19" transform="translate(-33.05 26.63) rotate(-5.37)"/><ellipse class="cls-18" cx="267.31" cy="365.42" rx="2.27" ry="1.18" transform="translate(-31.85 25.58) rotate(-5.17)"/><ellipse class="cls-19" cx="267.29" cy="365.28" rx="2.28" ry="1.18" transform="translate(-30.63 24.52) rotate(-4.97)"/><ellipse class="cls-20" cx="267.27" cy="365.14" rx="2.29" ry="1.18" transform="translate(-29.41 23.47) rotate(-4.77)"/><ellipse class="cls-21" cx="267.25" cy="365.01" rx="2.29" ry="1.17" transform="translate(-28.18 22.41) rotate(-4.56)"/><polygon class="cls-27" points="318.33 414.19 322.76 415.27 324.37 417.6 321.55 418.85 317.11 417.77 315.5 415.44 318.33 414.19"/><polygon class="cls-11" points="322.05 419.74 322.09 419.72 321.57 418.84 321.55 418.85 317.12 417.77 317.65 418.67 322.05 419.74"/><polygon class="cls-9" points="324.91 418.53 324.37 417.6 321.57 418.84 322.09 419.72 324.91 418.53"/><polygon class="cls-9" points="315.5 415.44 316.16 416.56 317.62 418.66 317.65 418.67 317.12 417.77 317.11 417.77 315.5 415.44"/><ellipse class="cls-12" cx="320.31" cy="416.43" rx="2.24" ry="1.2" transform="translate(-44.15 38.04) rotate(-6.36)"/><ellipse class="cls-13" cx="320.29" cy="416.3" rx="2.25" ry="1.2" transform="translate(-42.85 36.8) rotate(-6.16)"/><ellipse class="cls-14" cx="320.27" cy="416.16" rx="2.25" ry="1.19" transform="translate(-41.54 35.56) rotate(-5.97)"/><ellipse class="cls-15" cx="320.25" cy="416.02" rx="2.26" ry="1.19" transform="translate(-40.21 34.31) rotate(-5.77)"/><ellipse class="cls-16" cx="320.23" cy="415.88" rx="2.26" ry="1.19" transform="translate(-38.87 33.06) rotate(-5.57)"/><ellipse class="cls-17" cx="320.21" cy="415.74" rx="2.27" ry="1.19" transform="translate(-37.52 31.81) rotate(-5.37)"/><ellipse class="cls-18" cx="320.19" cy="415.61" rx="2.27" ry="1.18" transform="translate(-36.15 30.55) rotate(-5.17)"/><ellipse class="cls-19" cx="320.17" cy="415.47" rx="2.28" ry="1.18" transform="translate(-34.78 29.29) rotate(-4.97)"/><ellipse class="cls-20" cx="320.15" cy="415.33" rx="2.29" ry="1.18" transform="translate(-33.4 28.03) rotate(-4.77)"/><ellipse class="cls-21" cx="320.13" cy="415.19" rx="2.29" ry="1.17" transform="translate(-32 26.77) rotate(-4.56)"/><polygon class="cls-27" points="284.72 396.75 289.15 397.83 290.76 400.16 287.94 401.41 283.5 400.33 281.89 398 284.72 396.75"/><polygon class="cls-11" points="288.44 402.3 288.48 402.28 287.96 401.4 287.94 401.41 283.51 400.33 284.04 401.23 288.44 402.3"/><polygon class="cls-9" points="291.31 401.09 290.76 400.16 287.96 401.4 288.48 402.28 291.31 401.09"/><polygon class="cls-9" points="281.89 398 282.55 399.12 284.01 401.22 284.04 401.23 283.51 400.33 283.5 400.33 281.89 398"/><ellipse class="cls-12" cx="286.7" cy="399" rx="2.24" ry="1.2" transform="translate(-42.42 34.21) rotate(-6.36)"/><ellipse class="cls-13" cx="286.68" cy="398.86" rx="2.25" ry="1.2" transform="translate(-41.17 33.09) rotate(-6.16)"/><ellipse class="cls-14" cx="286.66" cy="398.72" rx="2.25" ry="1.19" transform="translate(-39.9 31.97) rotate(-5.97)"/><ellipse class="cls-15" cx="286.64" cy="398.58" rx="2.26" ry="1.19" transform="translate(-38.63 30.84) rotate(-5.77)"/><ellipse class="cls-16" cx="286.62" cy="398.44" rx="2.26" ry="1.19" transform="translate(-37.33 29.71) rotate(-5.57)"/><ellipse class="cls-17" cx="286.6" cy="398.31" rx="2.27" ry="1.19" transform="translate(-36.03 28.58) rotate(-5.37)"/><ellipse class="cls-18" cx="286.58" cy="398.17" rx="2.27" ry="1.18" transform="translate(-34.72 27.45) rotate(-5.17)"/><ellipse class="cls-19" cx="286.56" cy="398.03" rx="2.28" ry="1.18" transform="translate(-33.4 26.31) rotate(-4.97)"/><ellipse class="cls-20" cx="286.54" cy="397.89" rx="2.29" ry="1.18" transform="translate(-32.06 25.18) rotate(-4.77)"/><ellipse class="cls-21" cx="286.52" cy="397.76" rx="2.29" ry="1.17" transform="translate(-30.72 24.04) rotate(-4.56)"/><polyline class="cls-4" points="735.19 946.68 751.05 931.11 684.33 891.24 668.18 902.21"/><polygon class="cls-5" points="729.61 943.35 668.23 906.67 668.18 902.21 731.56 940.09 729.61 943.35"/><polygon class="cls-5" points="735.18 946.68 729.61 943.35 731.56 940.09 735.13 942.22 737.3 940.7 751.05 931.11 751.08 936.04 736.56 945.75 735.18 946.68"/><path class="cls-5" d="M715.88,919.39a10.6,10.6,0,0,0,3.66-3.61,3.58,3.58,0,0,0,.51-1.69l-4.79-346.28-11.92-7.23,4.95,358.6a.19.19,0,0,0,0,.07,1.74,1.74,0,0,0,.26.93,2.64,2.64,0,0,0,2.51.93A10.41,10.41,0,0,0,715.88,919.39Z"/><polyline class="cls-4" points="734.65 594.87 750.52 579.29 680.46 538.21 664.31 549.18"/><polygon class="cls-5" points="725.74 590.33 664.35 553.64 664.3 549.18 727.69 587.07 725.74 590.33"/><polygon class="cls-5" points="734.15 595.2 725.74 590.33 727.69 587.07 734.16 590.71 736.77 588.88 750.52 579.29 750.54 584.22 736.02 593.93 734.15 595.2"/><ellipse class="cls-8" cx="685.9" cy="901.81" rx="2.48" ry="3.87" transform="translate(-363.14 1329.86) rotate(-74.94)"/><ellipse class="cls-8" cx="736.47" cy="931.1" rx="2.48" ry="3.87" transform="translate(-354 1400.37) rotate(-74.94)"/><path class="cls-28" d="M801.68,854.59V854a50.84,50.84,0,0,0-30.56-46.39"/><polygon class="cls-29" points="751.21 803.45 781.8 798.68 772.47 808.5 776.38 821.46 751.21 803.45"/><rect class="cls-30" x="738.33" y="1037.14" width="2.9" height="4"/><rect class="cls-31" x="733.49" y="1037.14" width="4.84" height="4"/><rect class="cls-30" x="731.56" y="1037.14" width="1.93" height="4"/><rect class="cls-31" x="733.98" y="1012.14" width="4.84" height="1"/><rect class="cls-31" x="733.98" y="1008.14" width="4.84" height="1"/><rect class="cls-31" x="733.98" y="1010.14" width="4.84" height="1"/><rect class="cls-31" x="733.98" y="1009.14" width="4.84" height="1"/><rect class="cls-31" x="733.98" y="1014.14" width="4.84" height="1"/><rect class="cls-31" x="733.98" y="1011.14" width="4.84" height="1"/><rect class="cls-31" x="733.98" y="1013.14" width="4.84" height="1"/><rect class="cls-31" x="733.98" y="1019.14" width="4.84" height="18"/><rect class="cls-31" x="733.98" y="1018.14" width="4.84" height="1"/><rect class="cls-31" x="733.98" y="1016.14" width="4.84" height="1"/><rect class="cls-31" x="733.98" y="1015.14" width="4.84" height="1"/><rect class="cls-31" x="733.98" y="1017.14" width="4.84" height="1"/><rect class="cls-31" x="733.98" y="1001.14" width="4.84" height="1"/><rect class="cls-31" x="733.98" y="998.14" width="4.84" height="1"/><rect class="cls-31" x="733.98" y="999.14" width="4.84" height="1"/><rect class="cls-31" x="733.98" y="997.14" width="4.84" height="1"/><rect class="cls-31" x="733.98" y="1000.14" width="4.84" height="1"/><rect class="cls-31" x="733.98" y="996.14" width="4.84" height="1"/><rect class="cls-31" x="733.98" y="1003.14" width="4.84" height="1"/><rect class="cls-31" x="733.98" y="1005.14" width="4.84" height="1"/><rect class="cls-31" x="733.98" y="1006.14" width="4.84" height="1"/><rect class="cls-31" x="733.98" y="1007.14" width="4.84" height="1"/><rect class="cls-31" x="733.98" y="1004.14" width="4.84" height="1"/><rect class="cls-31" x="733.98" y="1002.14" width="4.84" height="1"/><line class="cls-32" x1="729.05" y1="989.89" x2="743.74" y2="989.89"/><rect class="cls-30" x="687.89" y="1003.35" width="2.9" height="4"/><rect class="cls-31" x="683.06" y="1003.35" width="4.84" height="4"/><rect class="cls-30" x="681.13" y="1003.35" width="1.93" height="4"/><rect class="cls-31" x="683.54" y="978.35" width="4.84" height="1"/><rect class="cls-31" x="683.54" y="974.35" width="4.84" height="1"/><rect class="cls-31" x="683.54" y="976.35" width="4.84" height="1"/><rect class="cls-31" x="683.54" y="975.35" width="4.84" height="1"/><rect class="cls-31" x="683.54" y="980.35" width="4.84" height="1"/><rect class="cls-31" x="683.54" y="977.35" width="4.84" height="1"/><rect class="cls-31" x="683.54" y="979.35" width="4.84" height="1"/><rect class="cls-31" x="683.54" y="985.35" width="4.84" height="18"/><rect class="cls-31" x="683.54" y="984.35" width="4.84" height="1"/><rect class="cls-31" x="683.54" y="982.35" width="4.84" height="1"/><rect class="cls-31" x="683.54" y="981.35" width="4.84" height="1"/><rect class="cls-31" x="683.54" y="983.35" width="4.84" height="1"/><rect class="cls-31" x="683.54" y="967.35" width="4.84" height="1"/><rect class="cls-31" x="683.54" y="964.35" width="4.84" height="1"/><rect class="cls-31" x="683.54" y="965.35" width="4.84" height="1"/><rect class="cls-31" x="683.54" y="963.35" width="4.84" height="1"/><rect class="cls-31" x="683.54" y="966.35" width="4.84" height="1"/><rect class="cls-31" x="683.54" y="962.35" width="4.84" height="1"/><rect class="cls-31" x="683.54" y="969.35" width="4.84" height="1"/><rect class="cls-31" x="683.54" y="971.35" width="4.84" height="1"/><rect class="cls-31" x="683.54" y="972.35" width="4.84" height="1"/><rect class="cls-31" x="683.54" y="973.35" width="4.84" height="1"/><rect class="cls-31" x="683.54" y="970.35" width="4.84" height="1"/><rect class="cls-31" x="683.54" y="968.35" width="4.84" height="1"/><line class="cls-32" x1="678.62" y1="956.1" x2="693.3" y2="956.1"/><path class="cls-9" d="M680.81,920.64c1,5.16-1.17,10-5.71,10.87S666,929,665,923.83s1.8-10.08,6.34-11S679.77,915.49,680.81,920.64Z"/><ellipse class="cls-22" cx="672.7" cy="922.28" rx="7.87" ry="9.52" transform="translate(-168.89 151.02) rotate(-11.39)"/><polygon class="cls-24" points="673.32 917.09 669.06 917.99 667.44 918.98 671.85 917.99 671.85 917.99 673.32 917.09 673.32 917.09"/><polygon class="cls-23" points="676.24 927.37 671.85 928.36 667.46 924.16 667.46 918.98 671.85 917.99 676.24 922.19 676.24 927.37"/><polygon class="cls-25" points="677.6 921.35 673.32 917.09 671.85 917.99 676.24 922.19 676.24 922.22 677.6 921.38 677.6 921.35"/><polygon class="cls-24" points="676.24 922.22 676.24 927.36 677.6 926.52 677.6 921.38 676.24 922.22"/><path class="cls-9" d="M727.17,949.69c1,5.15-1.18,9.95-5.72,10.86s-9.06-2.52-10.1-7.68,1.8-10.07,6.34-11S726.13,944.53,727.17,949.69Z"/><ellipse class="cls-22" cx="719.06" cy="951.32" rx="7.87" ry="9.52" transform="translate(-173.72 160.75) rotate(-11.39)"/><polygon class="cls-24" points="719.67 946.13 715.42 947.03 713.8 948.03 718.2 947.03 718.21 947.03 719.67 946.13 719.67 946.13"/><polygon class="cls-23" points="722.59 956.42 718.2 957.41 713.81 953.21 713.81 948.02 718.2 947.03 722.59 951.23 722.59 956.42"/><polygon class="cls-25" points="723.96 950.39 719.67 946.13 718.21 947.03 722.59 951.23 722.59 951.26 723.96 950.42 723.96 950.39"/><polygon class="cls-24" points="722.59 951.26 722.59 956.4 723.96 955.57 723.96 950.42 722.59 951.26"/><ellipse class="cls-8" cx="682.87" cy="549.95" rx="3.55" ry="4.63" transform="translate(-134.83 866.36) rotate(-60)"/><ellipse class="cls-8" cx="725.74" cy="575.09" rx="3.55" ry="4.63" transform="translate(-135.17 916.05) rotate(-60)"/></g></svg>