<svg xmlns="http://www.w3.org/2000/svg" viewBox="0 0 888.2 1267.31"><defs><style>.cls-1{fill:#7c7c7c;}.cls-2{fill:#303030;}.cls-3{fill:#424242;}.cls-4{fill:#606060;}.cls-5{fill:#898989;}.cls-6{fill:#515151;}.cls-7{fill:#fff;}.cls-8{fill:none;}.cls-9{fill:#6d6d6d;}.cls-10{fill:#6b6b6b;}.cls-11,.cls-23{fill:#a8a7a8;}.cls-12,.cls-14{fill:#8e8e8e;}.cls-13{fill:#7a7a7a;}.cls-14,.cls-15,.cls-16,.cls-17,.cls-18,.cls-19,.cls-20,.cls-21,.cls-22,.cls-23{stroke:#fff;stroke-miterlimit:10;stroke-width:0.05px;}.cls-15{fill:#919191;}.cls-16{fill:#949494;}.cls-17{fill:#979697;}.cls-18{fill:#9a999a;}.cls-19{fill:#9c9c9c;}.cls-20{fill:#9f9f9f;}.cls-21{fill:#a2a1a2;}.cls-22{fill:#a5a4a5;}.cls-24{fill:#999;}.cls-25{fill:#9b9a9b;}.cls-26{fill:#7f7f7f;}.cls-27{fill:#545454;}.cls-28{fill:#bababa;}.cls-29{fill:#f90;}</style></defs><g id="Layer_2" data-name="Layer 2"><polygon class="cls-1" points="705.85 957.34 704.57 958.12 725.47 966.34 742.87 1027.23 742.87 1047.3 743.82 1046.53 743.82 1026.58 726.79 965.4 705.85 957.34"/><path class="cls-2" d="M725.47,966.33l-20.9-8.21-21.74,44v20.06l60,25.13v-20.06ZM693.15,1018c-1.37.68-3.29-.39-4.29-2.39s-.71-4.18.65-4.87,3.29.39,4.29,2.4S694.51,1017.32,693.15,1018Zm21.05-15c-1.36.68-3.28-.39-4.29-2.39s-.71-4.18.66-4.86,3.28.38,4.28,2.39S715.56,1002.29,714.2,1003Zm0-30.8c-1.36.69-3.28-.38-4.29-2.39s-.71-4.18.66-4.86,3.28.39,4.28,2.39S715.56,971.49,714.2,972.17Zm19.12,63.4c-1.37.69-3.29-.38-4.29-2.39s-.71-4.18.65-4.86,3.29.39,4.29,2.39S734.68,1034.89,733.32,1035.57Z"/><polygon class="cls-1" points="475.84 861.84 474.56 862.62 495.46 870.83 512.86 931.73 512.86 951.8 513.81 951.02 513.81 931.08 496.79 869.9 475.84 861.84"/><path class="cls-2" d="M495.46,870.83l-20.9-8.21-21.74,44v20.07l60,25.13V931.73ZM463.14,922.5c-1.37.68-3.28-.39-4.29-2.39s-.71-4.19.66-4.87,3.28.39,4.28,2.39S464.5,921.81,463.14,922.5Zm21.05-15c-1.36.68-3.28-.39-4.28-2.39s-.71-4.18.65-4.87,3.28.39,4.29,2.4S485.56,906.79,484.19,907.47Zm0-30.8c-1.36.68-3.28-.39-4.28-2.39s-.71-4.18.65-4.86,3.28.38,4.29,2.39S485.56,876,484.19,876.67Zm19.12,63.4c-1.36.68-3.28-.39-4.29-2.39s-.71-4.18.66-4.86,3.28.38,4.28,2.39S504.67,939.39,503.31,940.07Z"/><polygon class="cls-1" points="434.66 901.1 413.57 913.25 742.73 1049.43 764.8 1036.17 434.66 901.1"/><path class="cls-3" d="M413.57,913.25,413.44,933l329.29,136.33v-19.88Zm7.35,17.55c-1.6-.66-2.88-3.26-2.87-5.8s1.33-4.07,2.93-3.41,2.88,3.26,2.86,5.8S422.52,931.46,420.92,930.8Zm23.16,9.59c-1.6-.66-2.89-3.26-2.87-5.81s1.32-4.07,2.91-3.41S447,934.43,447,937,445.68,941.05,444.08,940.39Zm41.36,17.12c-1.6-.66-2.89-3.26-2.89-5.81s1.31-4.08,2.91-3.41,2.89,3.26,2.88,5.8S487,958.17,485.44,957.51Zm71.95,29.79c-1.59-.66-2.89-3.27-2.9-5.82s1.29-4.08,2.89-3.42,2.9,3.27,2.9,5.82S559,988,557.39,987.3Zm41,17c-1.6-.66-2.91-3.27-2.91-5.82s1.27-4.09,2.87-3.43,2.9,3.27,2.91,5.82S599.94,1004.91,598.34,1004.25Zm72.37,30c-1.6-.66-2.91-3.27-2.93-5.83s1.26-4.09,2.86-3.43,2.91,3.27,2.93,5.83S672.31,1034.88,670.71,1034.21Zm41.36,17.12c-1.6-.66-2.92-3.27-2.94-5.83s1.24-4.1,2.84-3.44,2.92,3.28,2.94,5.84S713.67,1052,712.07,1051.33Zm23.16,9.59c-1.6-.66-2.92-3.27-3-5.83s1.24-4.11,2.84-3.44,2.92,3.27,3,5.83S736.83,1061.58,735.23,1060.92Z"/><polygon class="cls-4" points="764.41 1056.31 742.41 1069.31 742.41 1049.31 764.4 1036.42 764.41 1056.31"/><polygon class="cls-1" points="382.2 1152.65 380.93 1153.42 401.83 1161.64 419.23 1222.54 419.23 1242.61 420.18 1241.83 420.18 1221.88 403.15 1160.7 382.2 1152.65"/><path class="cls-2" d="M401.83,1161.64l-20.9-8.22-21.75,44v20.07l60.05,25.13v-20.07ZM369.5,1213.3c-1.36.69-3.28-.38-4.28-2.39s-.71-4.18.65-4.86,3.28.39,4.29,2.39S370.87,1212.62,369.5,1213.3Zm21.06-15c-1.37.68-3.28-.39-4.29-2.4s-.71-4.18.66-4.86,3.28.39,4.28,2.39S391.92,1197.59,390.56,1198.28Zm0-30.8c-1.37.68-3.28-.39-4.29-2.39s-.71-4.18.66-4.87,3.28.39,4.28,2.39S391.92,1166.8,390.56,1167.48Zm19.12,63.4c-1.37.68-3.29-.39-4.29-2.39s-.71-4.18.65-4.87,3.29.39,4.29,2.39S411,1230.2,409.68,1230.88Z"/><polygon class="cls-1" points="150.19 1066.76 148.92 1067.53 169.82 1075.75 187.22 1136.65 187.22 1156.72 188.17 1155.94 188.17 1136 171.14 1074.82 150.19 1066.76"/><path class="cls-2" d="M169.82,1075.75l-20.9-8.22-21.75,44v20.07l60.05,25.13v-20.07Zm-32.33,51.67c-1.36.68-3.28-.39-4.28-2.4s-.71-4.18.65-4.86,3.28.39,4.29,2.39S138.86,1126.73,137.49,1127.42Zm21.06-15c-1.37.68-3.28-.39-4.29-2.39s-.71-4.18.66-4.87,3.28.39,4.28,2.39S159.91,1111.71,158.55,1112.39Zm0-30.8c-1.37.68-3.28-.39-4.29-2.39s-.71-4.18.66-4.87,3.28.39,4.28,2.4S159.91,1080.91,158.55,1081.59Zm19.12,63.4c-1.37.68-3.29-.39-4.29-2.39s-.71-4.18.65-4.87,3.29.39,4.29,2.4S179,1144.31,177.67,1145Z"/><path class="cls-3" d="M453.35,137.76l-.43,793.7,21.5,8v-792Zm10.32,9.81a6.1,6.1,0,0,1,3,5c0,1.93-1.35,2.83-3,2a6.1,6.1,0,0,1-3-5C460.66,147.63,462,146.73,463.67,147.57Zm0,19.84a6.11,6.11,0,0,1,3,5c0,1.94-1.35,2.83-3,2a6.1,6.1,0,0,1-3-5C460.66,167.47,462,166.58,463.67,167.41Zm0,19.85a6.08,6.08,0,0,1,3,5c0,1.94-1.35,2.83-3,2a6.08,6.08,0,0,1-3-5C460.66,187.32,462,186.43,463.67,187.26Zm0,19.84a6.08,6.08,0,0,1,3,5c0,1.93-1.35,2.83-3,2a6.08,6.08,0,0,1-3-5C460.66,207.17,462,206.28,463.67,207.1Zm0,19.85a6.07,6.07,0,0,1,3,5c0,1.93-1.35,2.83-3,2a6.08,6.08,0,0,1-3-5C460.66,227,462,226.12,463.67,227Zm0,19.85a6,6,0,0,1,3,5c0,1.93-1.35,2.83-3,2a6,6,0,0,1-3-5C460.66,246.87,462,246,463.67,246.8Zm0,19.84a6,6,0,0,1,3,5c0,1.94-1.35,2.84-3,2a6,6,0,0,1-3-5C460.66,266.72,462,265.82,463.67,266.64Zm0,58a6,6,0,0,1,3,5c0,1.93-1.35,2.84-3,2a6,6,0,0,1-3-5C460.66,324.77,462,323.86,463.67,324.68ZM459,361.43l-3.44-1.69v-15l3.44,1.68Zm4.66,561.27a5.77,5.77,0,0,1-3-4.88c0-1.93,1.35-2.88,3-2.13a5.78,5.78,0,0,1,3,4.88C466.68,922.5,465.33,923.46,463.67,922.7Zm0-31a5.78,5.78,0,0,1-3-4.88c0-1.94,1.35-2.89,3-2.13a5.8,5.8,0,0,1,3,4.89C466.68,891.49,465.33,892.44,463.67,891.68Zm0-19a5.8,5.8,0,0,1-3-4.89c0-1.93,1.35-2.88,3-2.12a5.8,5.8,0,0,1,3,4.89C466.68,872.48,465.33,873.43,463.67,872.67Zm0-23.66a5.81,5.81,0,0,1-3-4.89c0-1.93,1.35-2.88,3-2.11a5.78,5.78,0,0,1,3,4.88C466.68,848.83,465.33,849.78,463.67,849Zm0-51.73a5.83,5.83,0,0,1-3-4.9c0-1.94,1.35-2.88,3-2.11a5.83,5.83,0,0,1,3,4.9C466.68,797.1,465.33,798.05,463.67,797.28Zm0-51.74a5.83,5.83,0,0,1-3-4.9c0-1.94,1.35-2.88,3-2.1a5.85,5.85,0,0,1,3,4.91C466.68,745.38,465.33,746.32,463.67,745.54Zm0-51.73a5.86,5.86,0,0,1-3-4.92c0-1.93,1.35-2.86,3-2.08a5.86,5.86,0,0,1,3,4.91C466.68,693.66,465.33,694.59,463.67,693.81Zm0-51.73a5.89,5.89,0,0,1-3-4.93c0-1.93,1.35-2.86,3-2.08a5.91,5.91,0,0,1,3,4.93C466.68,641.93,465.33,642.86,463.67,642.08Zm0-51.73a5.91,5.91,0,0,1-3-4.94c0-1.93,1.35-2.86,3-2.07a5.91,5.91,0,0,1,3,4.94C466.68,590.21,465.33,591.14,463.67,590.35Zm0-51.74a5.92,5.92,0,0,1-3-4.94c0-1.93,1.35-2.86,3-2.06a5.94,5.94,0,0,1,3,4.94C466.68,538.49,465.33,539.41,463.67,538.61Zm0-51.73a6,6,0,0,1-3-4.95c0-1.94,1.35-2.85,3-2.05a6,6,0,0,1,3,4.95C466.68,486.76,465.33,487.68,463.67,486.88Zm0-51.73a6,6,0,0,1-3-5c0-1.94,1.35-2.85,3-2.05a6,6,0,0,1,3,5C466.68,435,465.33,436,463.67,435.15Zm0-51.73a6,6,0,0,1-3-5c0-1.93,1.35-2.84,3-2a6,6,0,0,1,3,5C466.68,383.32,465.33,384.23,463.67,383.42ZM468.33,366l-4.17-8-.27-.13-.43-.22-3.59-1.75V353l5.59,2.74a3.46,3.46,0,0,0,.43.17c.92.28,1.6,0,1.6-.81a3.33,3.33,0,0,0-1.6-2.38,4.41,4.41,0,0,0-.43-.25l-5.59-2.73v-2.88l5.59,2.74.43.21v0c2.89,1.59,5.16,4.64,5.16,7,0,1.94-1.52,2.85-3.65,2.43l4.37,8.42Z"/><path class="cls-4" d="M474.42,147.46v792l21-12-.6-792.36Zm10.5,765.81c-1.63,1.12-2.94.45-2.94-1.48a7.45,7.45,0,0,1,2.94-5.51c1.62-1.11,2.94-.45,2.94,1.48A7.48,7.48,0,0,1,484.92,913.27Zm0-16.44c-1.63,1.11-2.94.45-2.94-1.49a7.45,7.45,0,0,1,2.94-5.5c1.62-1.11,2.94-.45,2.94,1.49A7.48,7.48,0,0,1,484.92,896.83Zm0-16.44c-1.63,1.11-2.94.45-2.94-1.49a7.43,7.43,0,0,1,2.94-5.5c1.62-1.11,2.94-.45,2.94,1.49A7.48,7.48,0,0,1,484.92,880.39Zm0-16.44c-1.63,1.11-2.94.44-2.94-1.49a7.47,7.47,0,0,1,2.94-5.51c1.62-1.1,2.94-.44,2.94,1.5A7.48,7.48,0,0,1,484.92,864Zm0-16.44c-1.63,1.11-2.94.44-2.94-1.49a7.47,7.47,0,0,1,2.94-5.51c1.62-1.1,2.94-.43,2.94,1.5A7.48,7.48,0,0,1,484.92,847.51Zm0-16.44c-1.63,1.11-2.94.44-2.94-1.49a7.47,7.47,0,0,1,2.94-5.51c1.62-1.1,2.94-.43,2.94,1.5A7.46,7.46,0,0,1,484.92,831.07Zm0-16.44c-1.63,1.11-2.94.44-2.94-1.49a7.45,7.45,0,0,1,2.94-5.51c1.62-1.1,2.94-.43,2.94,1.5A7.46,7.46,0,0,1,484.92,814.63Zm0-16.44c-1.63,1.11-2.94.44-2.94-1.49a7.45,7.45,0,0,1,2.94-5.51c1.62-1.1,2.94-.43,2.94,1.5A7.46,7.46,0,0,1,484.92,798.19Zm0-16.44c-1.63,1.11-2.94.44-2.94-1.5a7.45,7.45,0,0,1,2.94-5.5c1.62-1.1,2.94-.43,2.94,1.5A7.46,7.46,0,0,1,484.92,781.75Zm0-16.44c-1.63,1.11-2.94.43-2.94-1.5a7.45,7.45,0,0,1,2.94-5.5c1.62-1.1,2.94-.43,2.94,1.5A7.46,7.46,0,0,1,484.92,765.31Zm0-17c-1.63,1.1-2.94.43-2.94-1.5a7.41,7.41,0,0,1,2.94-5.5c1.62-1.11,2.94-.44,2.94,1.5A7.48,7.48,0,0,1,484.92,748.32Zm0-9c-1.63,1.11-2.94.43-2.94-1.5a7.45,7.45,0,0,1,2.94-5.5c1.62-1.1,2.94-.43,2.94,1.5A7.45,7.45,0,0,1,484.92,739.34Zm0-9c-1.63,1.1-2.94.43-2.94-1.5a7.41,7.41,0,0,1,2.94-5.5c1.62-1.1,2.94-.43,2.94,1.5A7.48,7.48,0,0,1,484.92,730.37Zm0-9c-1.63,1.11-2.94.43-2.94-1.5a7.45,7.45,0,0,1,2.94-5.5c1.62-1.1,2.94-.43,2.94,1.51A7.44,7.44,0,0,1,484.92,721.39Zm0-9c-1.63,1.1-2.94.43-2.94-1.5a7.41,7.41,0,0,1,2.94-5.5c1.62-1.1,2.94-.43,2.94,1.5A7.45,7.45,0,0,1,484.92,712.42Zm0-9c-1.63,1.1-2.94.42-2.94-1.51a7.41,7.41,0,0,1,2.94-5.49c1.62-1.11,2.94-.43,2.94,1.5A7.48,7.48,0,0,1,484.92,703.45Zm0-9c-1.63,1.1-2.94.43-2.94-1.5a7.43,7.43,0,0,1,2.94-5.5c1.62-1.1,2.94-.43,2.94,1.51A7.44,7.44,0,0,1,484.92,694.47Zm0-9c-1.63,1.1-2.94.43-2.94-1.51a7.41,7.41,0,0,1,2.94-5.49c1.62-1.1,2.94-.43,2.94,1.5A7.45,7.45,0,0,1,484.92,685.5Zm0-9c-1.63,1.1-2.94.43-2.94-1.5a7.41,7.41,0,0,1,2.94-5.49c1.62-1.11,2.94-.43,2.94,1.5A7.44,7.44,0,0,1,484.92,676.52Zm0-9c-1.63,1.1-2.94.43-2.94-1.51a7.41,7.41,0,0,1,2.94-5.49c1.62-1.1,2.94-.43,2.94,1.51A7.44,7.44,0,0,1,484.92,667.55Zm0-9c-1.63,1.1-2.94.42-2.94-1.51a7.41,7.41,0,0,1,2.94-5.49c1.62-1.1,2.94-.43,2.94,1.5A7.46,7.46,0,0,1,484.92,658.58Zm0-9c-1.63,1.1-2.94.43-2.94-1.51a7.41,7.41,0,0,1,2.94-5.49c1.62-1.1,2.94-.42,2.94,1.51A7.44,7.44,0,0,1,484.92,649.6Zm0-9c-1.63,1.1-2.94.42-2.94-1.51a7.41,7.41,0,0,1,2.94-5.49c1.62-1.1,2.94-.43,2.94,1.51A7.44,7.44,0,0,1,484.92,640.63Zm0-9c-1.63,1.1-2.94.43-2.94-1.5a7.38,7.38,0,0,1,2.94-5.49c1.62-1.1,2.94-.43,2.94,1.5A7.43,7.43,0,0,1,484.92,631.65Zm0-9c-1.63,1.1-2.94.42-2.94-1.51a7.41,7.41,0,0,1,2.94-5.49c1.62-1.1,2.94-.42,2.94,1.51A7.44,7.44,0,0,1,484.92,622.68Zm0-9c-1.63,1.09-2.94.42-2.94-1.51a7.39,7.39,0,0,1,2.94-5.49c1.62-1.1,2.94-.43,2.94,1.51A7.44,7.44,0,0,1,484.92,613.71Zm0-9c-1.63,1.1-2.94.42-2.94-1.51a7.41,7.41,0,0,1,2.94-5.49c1.62-1.1,2.94-.42,2.94,1.51A7.43,7.43,0,0,1,484.92,604.73Zm0-9c-1.63,1.1-2.94.42-2.94-1.51a7.39,7.39,0,0,1,2.94-5.49c1.62-1.1,2.94-.42,2.94,1.51A7.44,7.44,0,0,1,484.92,595.76Zm0-9c-1.63,1.1-2.94.43-2.94-1.51a7.37,7.37,0,0,1,2.94-5.48c1.62-1.1,2.94-.43,2.94,1.51A7.41,7.41,0,0,1,484.92,586.78Zm0-9c-1.63,1.1-2.94.42-2.94-1.51a7.41,7.41,0,0,1,2.94-5.49c1.62-1.1,2.94-.42,2.94,1.51A7.43,7.43,0,0,1,484.92,577.81Zm0-9c-1.63,1.09-2.94.42-2.94-1.52a7.37,7.37,0,0,1,2.94-5.48c1.62-1.1,2.94-.42,2.94,1.51A7.44,7.44,0,0,1,484.92,568.84Zm0-17.72c-1.63,1.1-2.94.42-2.94-1.51a7.37,7.37,0,0,1,2.94-5.48c1.62-1.1,2.94-.42,2.94,1.51A7.41,7.41,0,0,1,484.92,551.12Zm0-17.71c-1.63,1.1-2.94.42-2.94-1.51a7.39,7.39,0,0,1,2.94-5.49c1.62-1.09,2.94-.41,2.94,1.52A7.41,7.41,0,0,1,484.92,533.41Zm0-17.71c-1.63,1.09-2.94.42-2.94-1.52a7.39,7.39,0,0,1,2.94-5.48c1.62-1.09,2.94-.41,2.94,1.52A7.42,7.42,0,0,1,484.92,515.7Zm0-17.71c-1.63,1.09-2.94.41-2.94-1.52a7.37,7.37,0,0,1,2.94-5.48c1.62-1.1,2.94-.42,2.94,1.52A7.42,7.42,0,0,1,484.92,498Zm0-17.71c-1.63,1.09-2.94.41-2.94-1.52a7.36,7.36,0,0,1,2.94-5.48c1.62-1.1,2.94-.42,2.94,1.52A7.42,7.42,0,0,1,484.92,480.28Zm0-17.72c-1.63,1.1-2.94.42-2.94-1.52a7.36,7.36,0,0,1,2.94-5.47c1.62-1.1,2.94-.42,2.94,1.52A7.39,7.39,0,0,1,484.92,462.56Zm0-17.71c-1.63,1.09-2.94.41-2.94-1.52a7.39,7.39,0,0,1,2.94-5.48c1.62-1.09,2.94-.41,2.94,1.52A7.39,7.39,0,0,1,484.92,444.85Zm0-17.71c-1.63,1.09-2.94.41-2.94-1.52a7.36,7.36,0,0,1,2.94-5.48c1.62-1.09,2.94-.41,2.94,1.52A7.39,7.39,0,0,1,484.92,427.14Zm0-17.71c-1.63,1.09-2.94.41-2.94-1.53a7.36,7.36,0,0,1,2.94-5.47c1.62-1.09,2.94-.41,2.94,1.52A7.39,7.39,0,0,1,484.92,409.43Zm0-17.71c-1.63,1.09-2.94.4-2.94-1.53a7.36,7.36,0,0,1,2.94-5.47c1.62-1.09,2.94-.41,2.94,1.52A7.41,7.41,0,0,1,484.92,391.72Zm0-17.72c-1.63,1.09-2.94.41-2.94-1.52a7.36,7.36,0,0,1,2.94-5.47c1.62-1.09,2.94-.41,2.94,1.52A7.39,7.39,0,0,1,484.92,374Zm0-17.71c-1.63,1.09-2.94.41-2.94-1.53a7.36,7.36,0,0,1,2.94-5.47c1.62-1.09,2.94-.4,2.94,1.53A7.39,7.39,0,0,1,484.92,356.29Zm0-17.71c-1.63,1.09-2.94.4-2.94-1.53a7.36,7.36,0,0,1,2.94-5.47c1.62-1.09,2.94-.4,2.94,1.53A7.39,7.39,0,0,1,484.92,338.58Zm0-17.71c-1.63,1.09-2.94.4-2.94-1.53a7.36,7.36,0,0,1,2.94-5.47c1.62-1.09,2.94-.4,2.94,1.53A7.39,7.39,0,0,1,484.92,320.87Zm0-17.71c-1.63,1.08-2.94.4-2.94-1.53a7.32,7.32,0,0,1,2.94-5.47c1.62-1.09,2.94-.4,2.94,1.53A7.39,7.39,0,0,1,484.92,303.16Zm0-17.72c-1.63,1.09-2.94.4-2.94-1.53a7.32,7.32,0,0,1,2.94-5.46c1.62-1.09,2.94-.4,2.94,1.53A7.35,7.35,0,0,1,484.92,285.44Zm0-17.71c-1.63,1.09-2.94.4-2.94-1.53a7.36,7.36,0,0,1,2.94-5.47c1.62-1.08,2.94-.4,2.94,1.54A7.35,7.35,0,0,1,484.92,267.73Zm0-17.71c-1.63,1.09-2.94.4-2.94-1.53a7.34,7.34,0,0,1,2.94-5.47c1.62-1.08,2.94-.4,2.94,1.54A7.37,7.37,0,0,1,484.92,250Zm0-17.71c-1.63,1.08-2.94.39-2.94-1.54a7.32,7.32,0,0,1,2.94-5.46c1.62-1.08,2.94-.4,2.94,1.54A7.37,7.37,0,0,1,484.92,232.31Zm0-17.71c-1.63,1.08-2.94.39-2.94-1.54a7.32,7.32,0,0,1,2.94-5.46c1.62-1.09,2.94-.4,2.94,1.53A7.37,7.37,0,0,1,484.92,214.6Zm0-17.72c-1.63,1.09-2.94.4-2.94-1.53a7.3,7.3,0,0,1,2.94-5.46c1.62-1.09,2.94-.4,2.94,1.53A7.33,7.33,0,0,1,484.92,196.88Zm0-17.71c-1.63,1.08-2.94.4-2.94-1.54a7.34,7.34,0,0,1,2.94-5.46c1.62-1.08,2.94-.39,2.94,1.54A7.33,7.33,0,0,1,484.92,179.17Zm0-17.71c-1.63,1.08-2.94.39-2.94-1.54a7.32,7.32,0,0,1,2.94-5.46c1.62-1.08,2.94-.39,2.94,1.54A7.35,7.35,0,0,1,484.92,161.46Z"/><polygon class="cls-5" points="474.42 147.46 453.36 137.76 473.42 125.46 494.82 135.1 474.42 147.46"/><polygon class="cls-1" points="108.66 1099.1 87.57 1111.25 416.73 1247.43 438.8 1234.17 108.66 1099.1"/><path class="cls-3" d="M87.57,1111.25,87.44,1131l329.29,136.33v-19.88Zm7.35,17.55c-1.6-.66-2.88-3.26-2.87-5.8s1.33-4.07,2.93-3.41,2.88,3.26,2.86,5.8S96.52,1129.46,94.92,1128.8Zm23.16,9.59c-1.6-.66-2.89-3.26-2.87-5.81s1.32-4.07,2.91-3.41,2.89,3.26,2.88,5.81S119.68,1139.05,118.08,1138.39Zm41.36,17.12c-1.6-.66-2.89-3.26-2.89-5.81s1.31-4.08,2.91-3.41,2.89,3.26,2.88,5.8S161,1156.17,159.44,1155.51Zm71.95,29.79c-1.59-.66-2.89-3.27-2.9-5.82s1.29-4.08,2.89-3.42,2.9,3.27,2.9,5.82S233,1186,231.39,1185.3Zm40.95,17c-1.6-.66-2.91-3.27-2.91-5.82s1.27-4.09,2.87-3.43,2.9,3.27,2.91,5.82S273.94,1202.91,272.34,1202.25Zm72.37,30c-1.6-.66-2.91-3.27-2.93-5.83s1.26-4.09,2.86-3.43,2.91,3.27,2.93,5.83S346.31,1232.88,344.71,1232.21Zm41.36,17.12c-1.6-.66-2.92-3.27-2.94-5.83s1.24-4.1,2.84-3.44,2.92,3.28,2.94,5.84S387.67,1250,386.07,1249.33Zm23.16,9.59c-1.6-.66-2.92-3.27-3-5.83s1.24-4.11,2.84-3.44,2.92,3.27,2.95,5.83S410.83,1259.58,409.23,1258.92Z"/><polygon class="cls-4" points="438.42 1254.31 416.42 1267.31 416.42 1247.31 438.4 1234.42 438.42 1254.31"/><path class="cls-3" d="M128.92,334.46v793.9l21.5,8.89V344.46Zm10.75,10.11a6.1,6.1,0,0,1,3,5c0,1.93-1.35,2.83-3,2a6.1,6.1,0,0,1-3-5C136.66,344.63,138,343.73,139.67,344.57Zm0,19.84a6.11,6.11,0,0,1,3,5c0,1.94-1.35,2.83-3,2a6.1,6.1,0,0,1-3-5C136.66,364.47,138,363.58,139.67,364.41Zm0,19.85a6.08,6.08,0,0,1,3,5c0,1.94-1.35,2.83-3,2a6.08,6.08,0,0,1-3-5C136.66,384.32,138,383.43,139.67,384.26Zm0,19.84a6.08,6.08,0,0,1,3,5c0,1.93-1.35,2.83-3,2a6.08,6.08,0,0,1-3-5C136.66,404.17,138,403.28,139.67,404.1Zm0,19.85a6.07,6.07,0,0,1,3,5c0,1.93-1.35,2.83-3,2a6.08,6.08,0,0,1-3-5C136.66,424,138,423.12,139.67,424Zm0,19.85a6,6,0,0,1,3,5c0,1.93-1.35,2.83-3,2a6,6,0,0,1-3-5C136.66,443.87,138,443,139.67,443.8Zm0,19.84a6,6,0,0,1,3,5c0,1.94-1.35,2.84-3,2a6,6,0,0,1-3-5C136.66,463.72,138,462.82,139.67,463.64Zm0,58a6,6,0,0,1,3,5c0,1.93-1.35,2.84-3,2a6,6,0,0,1-3-5C136.66,521.77,138,520.86,139.67,521.68ZM135,558.43l-3.44-1.69v-15l3.44,1.68Zm4.66,561.27a5.77,5.77,0,0,1-3-4.88c0-1.93,1.35-2.88,3-2.13a5.78,5.78,0,0,1,3,4.88C142.68,1119.5,141.33,1120.46,139.67,1119.7Zm0-31a5.78,5.78,0,0,1-3-4.88c0-1.94,1.35-2.89,3-2.13a5.8,5.8,0,0,1,3,4.89C142.68,1088.49,141.33,1089.44,139.67,1088.68Zm0-19a5.8,5.8,0,0,1-3-4.89c0-1.93,1.35-2.88,3-2.12a5.8,5.8,0,0,1,3,4.89C142.68,1069.48,141.33,1070.43,139.67,1069.67Zm0-23.66a5.81,5.81,0,0,1-3-4.89c0-1.93,1.35-2.88,3-2.11a5.78,5.78,0,0,1,3,4.88C142.68,1045.83,141.33,1046.78,139.67,1046Zm0-51.73a5.83,5.83,0,0,1-3-4.9c0-1.94,1.35-2.88,3-2.11a5.83,5.83,0,0,1,3,4.9C142.68,994.1,141.33,995.05,139.67,994.28Zm0-51.74a5.83,5.83,0,0,1-3-4.9c0-1.94,1.35-2.88,3-2.1a5.85,5.85,0,0,1,3,4.91C142.68,942.38,141.33,943.32,139.67,942.54Zm0-51.73a5.86,5.86,0,0,1-3-4.92c0-1.93,1.35-2.86,3-2.08a5.86,5.86,0,0,1,3,4.91C142.68,890.66,141.33,891.59,139.67,890.81Zm0-51.73a5.89,5.89,0,0,1-3-4.93c0-1.93,1.35-2.86,3-2.08a5.91,5.91,0,0,1,3,4.93C142.68,838.93,141.33,839.86,139.67,839.08Zm0-51.73a5.91,5.91,0,0,1-3-4.94c0-1.93,1.35-2.86,3-2.07a5.91,5.91,0,0,1,3,4.94C142.68,787.21,141.33,788.14,139.67,787.35Zm0-51.74a5.92,5.92,0,0,1-3-4.94c0-1.93,1.35-2.86,3-2.06a5.94,5.94,0,0,1,3,4.94C142.68,735.49,141.33,736.41,139.67,735.61Zm0-51.73a6,6,0,0,1-3-5c0-1.94,1.35-2.85,3-2a6,6,0,0,1,3,5C142.68,683.76,141.33,684.68,139.67,683.88Zm0-51.73a6,6,0,0,1-3-5c0-1.94,1.35-2.85,3-2.05a6,6,0,0,1,3,5C142.68,632,141.33,633,139.67,632.15Zm0-51.73a6,6,0,0,1-3-5c0-1.93,1.35-2.84,3-2a6,6,0,0,1,3,5C142.68,580.32,141.33,581.23,139.67,580.42ZM144.33,563l-4.17-8-.27-.13-.43-.22-3.59-1.75V550l5.59,2.74a3.46,3.46,0,0,0,.43.17c.92.28,1.6,0,1.6-.81a3.33,3.33,0,0,0-1.6-2.38,4.41,4.41,0,0,0-.43-.25l-5.59-2.73v-2.88l5.59,2.74.43.21v0c2.89,1.59,5.16,4.64,5.16,7,0,1.94-1.52,2.85-3.65,2.43l4.37,8.42Z"/><path class="cls-4" d="M150.42,344.46v792.79l20.68-12.6.32-793.19Zm10.5,765.81c-1.63,1.12-2.94.45-2.94-1.48a7.45,7.45,0,0,1,2.94-5.51c1.62-1.11,2.94-.45,2.94,1.48A7.48,7.48,0,0,1,160.92,1110.27Zm0-16.44c-1.63,1.11-2.94.45-2.94-1.49a7.45,7.45,0,0,1,2.94-5.5c1.62-1.11,2.94-.45,2.94,1.49A7.48,7.48,0,0,1,160.92,1093.83Zm0-16.44c-1.63,1.11-2.94.45-2.94-1.49a7.43,7.43,0,0,1,2.94-5.5c1.62-1.11,2.94-.45,2.94,1.49A7.48,7.48,0,0,1,160.92,1077.39Zm0-16.44c-1.63,1.11-2.94.44-2.94-1.49a7.47,7.47,0,0,1,2.94-5.51c1.62-1.1,2.94-.44,2.94,1.5A7.48,7.48,0,0,1,160.92,1061Zm0-16.44c-1.63,1.11-2.94.44-2.94-1.49a7.47,7.47,0,0,1,2.94-5.51c1.62-1.1,2.94-.43,2.94,1.5A7.48,7.48,0,0,1,160.92,1044.51Zm0-16.44c-1.63,1.11-2.94.44-2.94-1.49a7.47,7.47,0,0,1,2.94-5.51c1.62-1.1,2.94-.43,2.94,1.5A7.46,7.46,0,0,1,160.92,1028.07Zm0-16.44c-1.63,1.11-2.94.44-2.94-1.49a7.45,7.45,0,0,1,2.94-5.51c1.62-1.1,2.94-.43,2.94,1.5A7.46,7.46,0,0,1,160.92,1011.63Zm0-16.44c-1.63,1.11-2.94.44-2.94-1.49a7.45,7.45,0,0,1,2.94-5.51c1.62-1.1,2.94-.43,2.94,1.5A7.46,7.46,0,0,1,160.92,995.19Zm0-16.44c-1.63,1.11-2.94.44-2.94-1.5a7.45,7.45,0,0,1,2.94-5.5c1.62-1.1,2.94-.43,2.94,1.5A7.46,7.46,0,0,1,160.92,978.75Zm0-16.44c-1.63,1.11-2.94.43-2.94-1.5a7.45,7.45,0,0,1,2.94-5.5c1.62-1.1,2.94-.43,2.94,1.5A7.46,7.46,0,0,1,160.92,962.31Zm0-17c-1.63,1.1-2.94.43-2.94-1.5a7.41,7.41,0,0,1,2.94-5.5c1.62-1.11,2.94-.44,2.94,1.5A7.48,7.48,0,0,1,160.92,945.32Zm0-9c-1.63,1.11-2.94.43-2.94-1.5a7.45,7.45,0,0,1,2.94-5.5c1.62-1.1,2.94-.43,2.94,1.5A7.45,7.45,0,0,1,160.92,936.34Zm0-9c-1.63,1.1-2.94.43-2.94-1.5a7.41,7.41,0,0,1,2.94-5.5c1.62-1.1,2.94-.43,2.94,1.5A7.48,7.48,0,0,1,160.92,927.37Zm0-9c-1.63,1.11-2.94.43-2.94-1.5a7.45,7.45,0,0,1,2.94-5.5c1.62-1.1,2.94-.43,2.94,1.51A7.44,7.44,0,0,1,160.92,918.39Zm0-9c-1.63,1.1-2.94.43-2.94-1.5a7.41,7.41,0,0,1,2.94-5.5c1.62-1.1,2.94-.43,2.94,1.5A7.45,7.45,0,0,1,160.92,909.42Zm0-9c-1.63,1.1-2.94.42-2.94-1.51a7.41,7.41,0,0,1,2.94-5.49c1.62-1.11,2.94-.43,2.94,1.5A7.48,7.48,0,0,1,160.92,900.45Zm0-9c-1.63,1.1-2.94.43-2.94-1.5a7.43,7.43,0,0,1,2.94-5.5c1.62-1.1,2.94-.43,2.94,1.51A7.44,7.44,0,0,1,160.92,891.47Zm0-9c-1.63,1.1-2.94.43-2.94-1.51a7.41,7.41,0,0,1,2.94-5.49c1.62-1.1,2.94-.43,2.94,1.5A7.45,7.45,0,0,1,160.92,882.5Zm0-9c-1.63,1.1-2.94.43-2.94-1.5a7.41,7.41,0,0,1,2.94-5.49c1.62-1.11,2.94-.43,2.94,1.5A7.44,7.44,0,0,1,160.92,873.52Zm0-9c-1.63,1.1-2.94.43-2.94-1.51a7.41,7.41,0,0,1,2.94-5.49c1.62-1.1,2.94-.43,2.94,1.51A7.44,7.44,0,0,1,160.92,864.55Zm0-9c-1.63,1.1-2.94.42-2.94-1.51a7.41,7.41,0,0,1,2.94-5.49c1.62-1.1,2.94-.43,2.94,1.5A7.46,7.46,0,0,1,160.92,855.58Zm0-9c-1.63,1.1-2.94.43-2.94-1.51a7.41,7.41,0,0,1,2.94-5.49c1.62-1.1,2.94-.42,2.94,1.51A7.44,7.44,0,0,1,160.92,846.6Zm0-9c-1.63,1.1-2.94.42-2.94-1.51a7.41,7.41,0,0,1,2.94-5.49c1.62-1.1,2.94-.43,2.94,1.51A7.44,7.44,0,0,1,160.92,837.63Zm0-9c-1.63,1.1-2.94.43-2.94-1.5a7.38,7.38,0,0,1,2.94-5.49c1.62-1.1,2.94-.43,2.94,1.5A7.43,7.43,0,0,1,160.92,828.65Zm0-9c-1.63,1.1-2.94.42-2.94-1.51a7.41,7.41,0,0,1,2.94-5.49c1.62-1.1,2.94-.42,2.94,1.51A7.44,7.44,0,0,1,160.92,819.68Zm0-9c-1.63,1.09-2.94.42-2.94-1.51a7.39,7.39,0,0,1,2.94-5.49c1.62-1.1,2.94-.43,2.94,1.51A7.44,7.44,0,0,1,160.92,810.71Zm0-9c-1.63,1.1-2.94.42-2.94-1.51a7.41,7.41,0,0,1,2.94-5.49c1.62-1.1,2.94-.42,2.94,1.51A7.43,7.43,0,0,1,160.92,801.73Zm0-9c-1.63,1.1-2.94.42-2.94-1.51a7.39,7.39,0,0,1,2.94-5.49c1.62-1.1,2.94-.42,2.94,1.51A7.44,7.44,0,0,1,160.92,792.76Zm0-9c-1.63,1.1-2.94.43-2.94-1.51a7.37,7.37,0,0,1,2.94-5.48c1.62-1.1,2.94-.43,2.94,1.51A7.41,7.41,0,0,1,160.92,783.78Zm0-9c-1.63,1.1-2.94.42-2.94-1.51a7.41,7.41,0,0,1,2.94-5.49c1.62-1.1,2.94-.42,2.94,1.51A7.43,7.43,0,0,1,160.92,774.81Zm0-9c-1.63,1.09-2.94.42-2.94-1.52a7.37,7.37,0,0,1,2.94-5.48c1.62-1.1,2.94-.42,2.94,1.51A7.44,7.44,0,0,1,160.92,765.84Zm0-17.72c-1.63,1.1-2.94.42-2.94-1.51a7.37,7.37,0,0,1,2.94-5.48c1.62-1.1,2.94-.42,2.94,1.51A7.41,7.41,0,0,1,160.92,748.12Zm0-17.71c-1.63,1.1-2.94.42-2.94-1.51a7.39,7.39,0,0,1,2.94-5.49c1.62-1.09,2.94-.41,2.94,1.52A7.41,7.41,0,0,1,160.92,730.41Zm0-17.71c-1.63,1.09-2.94.42-2.94-1.52a7.39,7.39,0,0,1,2.94-5.48c1.62-1.09,2.94-.41,2.94,1.52A7.42,7.42,0,0,1,160.92,712.7Zm0-17.71c-1.63,1.09-2.94.41-2.94-1.52a7.37,7.37,0,0,1,2.94-5.48c1.62-1.1,2.94-.42,2.94,1.52A7.42,7.42,0,0,1,160.92,695Zm0-17.71c-1.63,1.09-2.94.41-2.94-1.52a7.36,7.36,0,0,1,2.94-5.48c1.62-1.1,2.94-.42,2.94,1.52A7.42,7.42,0,0,1,160.92,677.28Zm0-17.72c-1.63,1.1-2.94.42-2.94-1.52a7.36,7.36,0,0,1,2.94-5.47c1.62-1.1,2.94-.42,2.94,1.52A7.39,7.39,0,0,1,160.92,659.56Zm0-17.71c-1.63,1.09-2.94.41-2.94-1.52a7.39,7.39,0,0,1,2.94-5.48c1.62-1.09,2.94-.41,2.94,1.52A7.39,7.39,0,0,1,160.92,641.85Zm0-17.71c-1.63,1.09-2.94.41-2.94-1.52a7.36,7.36,0,0,1,2.94-5.48c1.62-1.09,2.94-.41,2.94,1.52A7.39,7.39,0,0,1,160.92,624.14Zm0-17.71c-1.63,1.09-2.94.41-2.94-1.53a7.36,7.36,0,0,1,2.94-5.47c1.62-1.09,2.94-.41,2.94,1.52A7.39,7.39,0,0,1,160.92,606.43Zm0-17.71c-1.63,1.09-2.94.4-2.94-1.53a7.36,7.36,0,0,1,2.94-5.47c1.62-1.09,2.94-.41,2.94,1.52A7.41,7.41,0,0,1,160.92,588.72Zm0-17.72c-1.63,1.09-2.94.41-2.94-1.52a7.36,7.36,0,0,1,2.94-5.47c1.62-1.09,2.94-.41,2.94,1.52A7.39,7.39,0,0,1,160.92,571Zm0-17.71c-1.63,1.09-2.94.41-2.94-1.53a7.36,7.36,0,0,1,2.94-5.47c1.62-1.09,2.94-.4,2.94,1.53A7.39,7.39,0,0,1,160.92,553.29Zm0-17.71c-1.63,1.09-2.94.4-2.94-1.53a7.36,7.36,0,0,1,2.94-5.47c1.62-1.09,2.94-.4,2.94,1.53A7.39,7.39,0,0,1,160.92,535.58Zm0-17.71c-1.63,1.09-2.94.4-2.94-1.53a7.36,7.36,0,0,1,2.94-5.47c1.62-1.09,2.94-.4,2.94,1.53A7.39,7.39,0,0,1,160.92,517.87Zm0-17.71c-1.63,1.08-2.94.4-2.94-1.53a7.32,7.32,0,0,1,2.94-5.47c1.62-1.09,2.94-.4,2.94,1.53A7.39,7.39,0,0,1,160.92,500.16Zm0-17.72c-1.63,1.09-2.94.4-2.94-1.53a7.32,7.32,0,0,1,2.94-5.46c1.62-1.09,2.94-.4,2.94,1.53A7.35,7.35,0,0,1,160.92,482.44Zm0-17.71c-1.63,1.09-2.94.4-2.94-1.53a7.36,7.36,0,0,1,2.94-5.47c1.62-1.08,2.94-.4,2.94,1.54A7.35,7.35,0,0,1,160.92,464.73Zm0-17.71c-1.63,1.09-2.94.4-2.94-1.53a7.34,7.34,0,0,1,2.94-5.47c1.62-1.08,2.94-.4,2.94,1.54A7.37,7.37,0,0,1,160.92,447Zm0-17.71c-1.63,1.08-2.94.39-2.94-1.54a7.32,7.32,0,0,1,2.94-5.46c1.62-1.08,2.94-.4,2.94,1.54A7.37,7.37,0,0,1,160.92,429.31Zm0-17.71c-1.63,1.08-2.94.39-2.94-1.54a7.32,7.32,0,0,1,2.94-5.46c1.62-1.09,2.94-.4,2.94,1.53A7.37,7.37,0,0,1,160.92,411.6Zm0-17.72c-1.63,1.09-2.94.4-2.94-1.53a7.3,7.3,0,0,1,2.94-5.46c1.62-1.09,2.94-.4,2.94,1.53A7.33,7.33,0,0,1,160.92,393.88Zm0-17.71c-1.63,1.08-2.94.4-2.94-1.54a7.34,7.34,0,0,1,2.94-5.46c1.62-1.08,2.94-.39,2.94,1.54A7.33,7.33,0,0,1,160.92,376.17Zm0-17.71c-1.63,1.08-2.94.39-2.94-1.54a7.32,7.32,0,0,1,2.94-5.46c1.62-1.08,2.94-.39,2.94,1.54A7.35,7.35,0,0,1,160.92,358.46Z"/><polygon class="cls-5" points="150.41 344.46 128.91 334.46 149.68 321.68 171.41 331.46 150.41 344.46"/><polygon class="cls-4" points="453.36 137.76 474.42 147.46 470.6 149.79 449.59 139.91 453.36 137.76"/><polygon class="cls-2" points="470.6 230.78 470.6 196.7 453.32 207.91 453.32 223.01 470.6 230.78"/><path class="cls-2" d="M449.59,139.91v27.27L172.41,336.53l.44,22.25,297.57-182,.18-.1V149.79Zm15.19,34.81Z"/><path class="cls-6" d="M470.6,149.78v26.86L175.24,356.15v-27l-21.74-9.8-3.83,2.34,21.75,9.78v81.15l3.82-2.32V381.15L470.6,201.64v29.14l3.82-2.32v-81ZM184,368c-1.47.9-2.67.06-2.67-1.87A6.58,6.58,0,0,1,184,361c1.48-.89,2.66-.05,2.66,1.88A6.52,6.52,0,0,1,184,368Zm13.89-8.44c-1.48.9-2.67.06-2.67-1.88a6.54,6.54,0,0,1,2.67-5.12c1.48-.9,2.68-.06,2.68,1.88A6.55,6.55,0,0,1,197.9,359.51Zm13.89-8.44c-1.47.9-2.67.05-2.67-1.88a6.57,6.57,0,0,1,2.67-5.12c1.48-.9,2.68-.06,2.68,1.88A6.55,6.55,0,0,1,211.79,351.07Zm13.9-8.44c-1.48.89-2.68.05-2.68-1.88a6.54,6.54,0,0,1,2.68-5.12c1.47-.9,2.67-.06,2.67,1.87A6.58,6.58,0,0,1,225.69,342.63Zm13.89-8.45c-1.48.9-2.68.06-2.68-1.87a6.57,6.57,0,0,1,2.68-5.13c1.47-.89,2.67-.05,2.67,1.88A6.56,6.56,0,0,1,239.58,334.18Zm13.89-8.44c-1.48.9-2.67.06-2.67-1.87a6.55,6.55,0,0,1,2.67-5.13c1.47-.89,2.67-.05,2.67,1.88A6.56,6.56,0,0,1,253.47,325.74Zm13.89-8.44c-1.48.9-2.67.06-2.67-1.88a6.54,6.54,0,0,1,2.67-5.12c1.47-.9,2.67-.06,2.67,1.88A6.57,6.57,0,0,1,267.36,317.3Zm13.89-8.44c-1.48.9-2.67.06-2.67-1.88a6.54,6.54,0,0,1,2.67-5.12c1.47-.9,2.67-.06,2.67,1.88A6.57,6.57,0,0,1,281.25,308.86Zm13.89-8.44c-1.48.89-2.67.05-2.67-1.88a6.53,6.53,0,0,1,2.67-5.12c1.47-.9,2.67-.06,2.67,1.87A6.58,6.58,0,0,1,295.14,300.42ZM309,292c-1.48.9-2.67.06-2.67-1.87A6.56,6.56,0,0,1,309,285c1.47-.89,2.67-.05,2.67,1.88A6.56,6.56,0,0,1,309,292Zm13.89-8.44c-1.48.9-2.67.06-2.67-1.87a6.55,6.55,0,0,1,2.67-5.13c1.48-.89,2.67,0,2.67,1.88A6.53,6.53,0,0,1,322.92,283.53Zm13.89-8.44c-1.47.9-2.67.06-2.67-1.88a6.57,6.57,0,0,1,2.67-5.12c1.48-.9,2.67-.06,2.67,1.88A6.54,6.54,0,0,1,336.81,275.09Zm13.89-8.44c-1.47.9-2.67.06-2.67-1.88a6.57,6.57,0,0,1,2.67-5.12c1.47-.9,2.67-.06,2.67,1.88A6.57,6.57,0,0,1,350.7,266.65Zm13.89-8.44c-1.47.89-2.67.05-2.67-1.88a6.56,6.56,0,0,1,2.67-5.12c1.48-.9,2.67-.06,2.67,1.87A6.55,6.55,0,0,1,364.59,258.21Zm13.89-8.44c-1.47.89-2.67,0-2.67-1.88a6.56,6.56,0,0,1,2.67-5.12c1.48-.9,2.67-.06,2.67,1.87A6.56,6.56,0,0,1,378.48,249.77Zm13.89-8.45c-1.47.9-2.67.06-2.67-1.87a6.58,6.58,0,0,1,2.67-5.13c1.48-.89,2.67,0,2.67,1.88A6.53,6.53,0,0,1,392.37,241.32Zm13.89-8.44c-1.47.9-2.67.06-2.67-1.88a6.57,6.57,0,0,1,2.67-5.12c1.48-.9,2.68-.06,2.68,1.88A6.55,6.55,0,0,1,406.26,232.88Zm13.89-8.44c-1.48.9-2.67.06-2.67-1.88a6.54,6.54,0,0,1,2.67-5.12c1.48-.9,2.68-.06,2.68,1.88A6.55,6.55,0,0,1,420.15,224.44Zm13.9-8.44c-1.48.89-2.68.05-2.68-1.88a6.54,6.54,0,0,1,2.68-5.12c1.47-.9,2.67-.06,2.67,1.87A6.58,6.58,0,0,1,434.05,216Zm13.89-8.44c-1.48.89-2.68.05-2.68-1.88a6.54,6.54,0,0,1,2.68-5.12c1.47-.9,2.67-.06,2.67,1.87A6.59,6.59,0,0,1,447.94,207.56Zm13.89-8.45c-1.48.9-2.67.06-2.67-1.87a6.55,6.55,0,0,1,2.67-5.13c1.47-.89,2.67-.05,2.67,1.88A6.56,6.56,0,0,1,461.83,199.11Z"/><ellipse class="cls-7" cx="460.11" cy="153.95" rx="2.67" ry="4.15" transform="translate(-15.33 250.68) rotate(-30)"/><path class="cls-8" d="M239.88,416.4c-1.44-.58-2.61.51-2.61,2.44s1.17,4,2.61,4.56,2.61-.52,2.61-2.45S241.32,417,239.88,416.4Z"/><path class="cls-8" d="M226.09,410.83c-1.44-.58-2.61.52-2.61,2.45a5.11,5.11,0,0,0,2.61,4.55c1.44.59,2.61-.51,2.61-2.44A5.13,5.13,0,0,0,226.09,410.83Z"/><path class="cls-8" d="M267.47,427.52c-1.44-.58-2.61.52-2.61,2.45s1.17,4,2.61,4.55,2.61-.51,2.61-2.44S268.91,428.1,267.47,427.52Z"/><path class="cls-8" d="M253.67,422c-1.44-.58-2.61.51-2.61,2.45s1.17,4,2.61,4.55,2.61-.51,2.61-2.45S255.12,422.54,253.67,422Z"/><path class="cls-8" d="M212.3,405.27c-1.45-.58-2.61.52-2.61,2.45s1.16,4,2.61,4.55,2.61-.51,2.61-2.45S213.74,405.85,212.3,405.27Z"/><path class="cls-8" d="M198.5,399.71c-1.44-.58-2.61.51-2.61,2.45s1.17,4,2.61,4.55,2.61-.52,2.61-2.45S199.94,400.29,198.5,399.71Z"/><path class="cls-8" d="M170.92,388.58c-1.44-.58-2.61.52-2.61,2.45s1.17,4,2.61,4.55,2.61-.51,2.61-2.44S172.36,389.16,170.92,388.58Z"/><path class="cls-8" d="M184.71,394.15c-1.44-.58-2.61.51-2.61,2.44s1.17,4,2.61,4.56,2.61-.52,2.61-2.45S186.15,394.73,184.71,394.15Z"/><path class="cls-8" d="M295.05,438.65c-1.44-.58-2.61.51-2.61,2.45s1.17,4,2.61,4.55,2.61-.52,2.61-2.45S296.49,439.23,295.05,438.65Z"/><path class="cls-8" d="M281.26,433.09c-1.44-.59-2.61.51-2.61,2.44a5.13,5.13,0,0,0,2.61,4.56c1.44.58,2.61-.52,2.61-2.45A5.11,5.11,0,0,0,281.26,433.09Z"/><path class="cls-8" d="M322.64,449.77c-1.44-.58-2.61.52-2.61,2.45s1.17,4,2.61,4.55,2.61-.51,2.61-2.44S324.08,450.35,322.64,449.77Z"/><path class="cls-8" d="M336.43,455.34c-1.44-.58-2.61.51-2.61,2.44s1.17,4,2.61,4.56,2.61-.52,2.61-2.45S337.87,455.92,336.43,455.34Z"/><path class="cls-8" d="M308.84,444.21c-1.44-.58-2.6.52-2.6,2.45s1.16,4,2.6,4.55,2.61-.51,2.61-2.45S310.29,444.79,308.84,444.21Z"/><path class="cls-6" d="M154.15,427.12l20.94-13.45v-7.4l-20.94-8.45Zm12.48-22.36c1.41.73,1.67,3.07.56,5.23s-3.15,3.33-4.57,2.6-1.67-3.07-.57-5.23S165.21,404,166.63,404.76Z"/><polygon class="cls-9" points="154.14 345.96 174.93 333.07 171.41 331.46 150.41 344.46 154.14 345.96 154.14 345.96"/><path class="cls-4" d="M154.14,372.82l202.05,81.49V432.19l-181.1-72.32-.16-26.8h0L154.14,346Zm12.49-25.31c1.41.73,1.67,3.07.56,5.23s-3.15,3.33-4.57,2.6-1.67-3.07-.57-5.23S165.21,346.79,166.63,347.51Z"/><polygon class="cls-4" points="380.74 416.57 376.91 414.79 356.19 427.95 359.92 429.46 359.92 442.33 361.11 438.49 380.74 416.57"/><polygon class="cls-3" points="154.14 345.96 150.41 344.46 150.41 348.27 154.14 345.96 154.14 345.96"/><polygon class="cls-3" points="356.19 427.95 356.19 432.19 358.03 432.93 356.19 427.95"/><path class="cls-3" d="M153.7,373.32l.44-27.36-3.72,2.31v77.19l3.72,1.5V397.82h0V397l20.94,7.49v1.8l181.1,73v29.14l3.73,1.5V442.33l-3.73,12Zm17.22,22.26c-1.44-.58-2.61-2.62-2.61-4.55s1.17-3,2.61-2.45,2.61,2.62,2.61,4.56S172.36,396.16,170.92,395.58Zm13.79,5.57c-1.44-.58-2.61-2.62-2.61-4.56s1.17-3,2.61-2.44,2.61,2.62,2.61,4.55S186.15,401.73,184.71,401.15Zm13.79,5.56c-1.44-.58-2.61-2.62-2.61-4.55s1.17-3,2.61-2.45,2.61,2.62,2.61,4.55S199.94,407.29,198.5,406.71Zm13.8,5.56c-1.45-.58-2.61-2.62-2.61-4.55s1.16-3,2.61-2.45,2.61,2.62,2.61,4.55S213.74,412.85,212.3,412.27Zm13.79,5.56a5.11,5.11,0,0,1-2.61-4.55c0-1.93,1.17-3,2.61-2.45a5.13,5.13,0,0,1,2.61,4.56C228.7,417.32,227.53,418.42,226.09,417.83Zm13.79,5.57c-1.44-.58-2.61-2.62-2.61-4.56s1.17-3,2.61-2.44,2.61,2.62,2.61,4.55S241.32,424,239.88,423.4ZM253.67,429c-1.44-.58-2.61-2.62-2.61-4.55s1.17-3,2.61-2.45,2.61,2.62,2.61,4.55S255.12,429.54,253.67,429Zm13.8,5.56c-1.44-.58-2.61-2.62-2.61-4.55s1.17-3,2.61-2.45,2.61,2.62,2.61,4.56S268.91,435.1,267.47,434.52Zm13.79,5.57a5.13,5.13,0,0,1-2.61-4.56c0-1.93,1.17-3,2.61-2.44a5.11,5.11,0,0,1,2.61,4.55C283.87,439.57,282.7,440.67,281.26,440.09Zm13.79,5.56c-1.44-.58-2.61-2.62-2.61-4.55s1.17-3,2.61-2.45,2.61,2.62,2.61,4.55S296.49,446.23,295.05,445.65Zm13.79,5.56c-1.44-.58-2.6-2.62-2.6-4.55s1.16-3,2.6-2.45,2.61,2.62,2.61,4.55S310.29,451.79,308.84,451.21Zm13.8,5.56c-1.44-.58-2.61-2.62-2.61-4.55s1.17-3,2.61-2.45,2.61,2.62,2.61,4.56S324.08,457.35,322.64,456.77Zm13.79,5.57c-1.44-.58-2.61-2.62-2.61-4.56s1.17-3,2.61-2.44S339,458,339,459.89,337.87,462.92,336.43,462.34Z"/><polygon class="cls-3" points="154.15 396.98 154.15 397.82 175.09 406.27 175.09 404.47 154.15 396.98"/><polygon class="cls-3" points="356.19 427.95 358.03 432.93 356.19 432.19 356.19 454.31 359.92 442.33 359.92 429.46 356.19 427.95"/><polygon class="cls-3" points="154.14 345.96 154.14 345.96 153.7 373.32 356.19 454.31 154.14 372.82 154.14 345.96"/><ellipse class="cls-7" cx="462.22" cy="213.35" rx="2.67" ry="4.15" transform="matrix(0.87, -0.5, 0.5, 0.87, -44.75, 259.69)"/><polygon class="cls-10" points="700.93 217.81 680.21 230.97 682.05 235.95 499.12 162.89 498.95 136.09 478.17 148.98 478.17 148.98 477.72 176.34 680.21 257.33 685.13 241.51 704.77 219.59 700.93 217.81"/><polygon class="cls-4" points="498.95 136.09 495.44 134.48 474.44 147.48 478.17 148.98 498.95 136.09 498.95 136.09"/><polygon class="cls-6" points="478.17 200 499.12 207.49 499.12 216.69 478.17 230.14 478.17 200"/><path class="cls-3" d="M680.21,231v26.36l-202-81.49V149l-3.73-1.5v81l3.73,1.5V200.84l202,81.49v29.14l3.73,1.5V232.48ZM494.94,198.6c-1.44-.58-2.61-2.62-2.61-4.55s1.17-3,2.61-2.45,2.61,2.62,2.61,4.55S496.38,199.18,494.94,198.6Zm13.79,5.57a5.13,5.13,0,0,1-2.61-4.56c0-1.93,1.17-3,2.61-2.44a5.11,5.11,0,0,1,2.61,4.55C511.34,203.65,510.17,204.75,508.73,204.17Zm13.8,5.56c-1.45-.58-2.61-2.62-2.61-4.55s1.16-3,2.61-2.45,2.61,2.62,2.61,4.55S524,210.31,522.53,209.73Zm13.79,5.56c-1.44-.58-2.61-2.62-2.61-4.55s1.17-3,2.61-2.45,2.61,2.62,2.61,4.55S537.76,215.87,536.32,215.29Zm13.79,5.56c-1.44-.58-2.61-2.62-2.61-4.55s1.17-3,2.61-2.45,2.61,2.62,2.61,4.56S551.55,221.43,550.11,220.85Zm13.79,5.57a5.13,5.13,0,0,1-2.61-4.56c0-1.93,1.17-3,2.61-2.44s2.61,2.62,2.61,4.55S565.35,227,563.9,226.42ZM577.7,232c-1.44-.58-2.61-2.62-2.61-4.55s1.17-3,2.61-2.45,2.61,2.62,2.61,4.55S579.14,232.56,577.7,232Zm13.79,5.56c-1.44-.58-2.61-2.62-2.61-4.55s1.17-3,2.61-2.45,2.61,2.62,2.61,4.55S592.93,238.12,591.49,237.54Zm13.79,5.56c-1.44-.58-2.61-2.62-2.61-4.55s1.17-3,2.61-2.45a5.13,5.13,0,0,1,2.61,4.56C607.89,242.59,606.72,243.69,605.28,243.1Zm13.8,5.57c-1.45-.58-2.61-2.62-2.61-4.56s1.16-3,2.61-2.44,2.6,2.62,2.6,4.55S620.52,249.25,619.08,248.67Zm13.79,5.56c-1.44-.58-2.61-2.62-2.61-4.55s1.17-3,2.61-2.45,2.61,2.62,2.61,4.55S634.31,254.81,632.87,254.23Zm13.79,5.56c-1.44-.58-2.61-2.62-2.61-4.55s1.17-3,2.61-2.45,2.61,2.62,2.61,4.55S648.1,260.37,646.66,259.79Zm13.79,5.57a5.13,5.13,0,0,1-2.61-4.56c0-1.93,1.17-3,2.61-2.44a5.11,5.11,0,0,1,2.61,4.55C663.06,264.84,661.89,265.94,660.45,265.36Z"/><ellipse class="cls-7" cx="488.64" cy="154.45" rx="4.4" ry="2.89" transform="translate(128.42 518.95) rotate(-62.88)"/><ellipse class="cls-7" cx="488.64" cy="211.7" rx="4.4" ry="2.89" transform="translate(77.46 550.1) rotate(-62.88)"/><path class="cls-4" d="M705.45,242.46v792l21-12v-793ZM716,1008.28c-1.62,1.11-2.94.45-2.94-1.49a7.5,7.5,0,0,1,2.94-5.51c1.62-1.11,2.94-.44,2.94,1.49A7.5,7.5,0,0,1,716,1008.28Zm0-16.44c-1.62,1.11-2.94.44-2.94-1.49a7.5,7.5,0,0,1,2.94-5.51c1.62-1.11,2.94-.44,2.94,1.49A7.48,7.48,0,0,1,716,991.84Zm0-16.44c-1.62,1.11-2.94.44-2.94-1.49A7.5,7.5,0,0,1,716,968.4c1.62-1.11,2.94-.44,2.94,1.49A7.48,7.48,0,0,1,716,975.4ZM716,959c-1.62,1.11-2.94.44-2.94-1.49A7.5,7.5,0,0,1,716,952c1.62-1.11,2.94-.44,2.94,1.49A7.48,7.48,0,0,1,716,959Zm0-16.44c-1.62,1.11-2.94.44-2.94-1.49a7.48,7.48,0,0,1,2.94-5.51c1.62-1.11,2.94-.44,2.94,1.5A7.48,7.48,0,0,1,716,942.52Zm0-16.44c-1.62,1.11-2.94.44-2.94-1.49a7.48,7.48,0,0,1,2.94-5.51c1.62-1.11,2.94-.44,2.94,1.5A7.48,7.48,0,0,1,716,926.08Zm0-16.44c-1.62,1.11-2.94.44-2.94-1.5a7.48,7.48,0,0,1,2.94-5.5c1.62-1.11,2.94-.44,2.94,1.5A7.48,7.48,0,0,1,716,909.64Zm0-16.44c-1.62,1.11-2.94.44-2.94-1.5a7.48,7.48,0,0,1,2.94-5.5c1.62-1.11,2.94-.44,2.94,1.5A7.48,7.48,0,0,1,716,893.2Zm0-16.44c-1.62,1.1-2.94.43-2.94-1.5a7.48,7.48,0,0,1,2.94-5.5c1.62-1.1,2.94-.43,2.94,1.5A7.48,7.48,0,0,1,716,876.76Zm0-16.44c-1.62,1.1-2.94.43-2.94-1.5a7.46,7.46,0,0,1,2.94-5.5c1.62-1.1,2.94-.43,2.94,1.5A7.48,7.48,0,0,1,716,860.32Zm0-17c-1.62,1.11-2.94.44-2.94-1.5a7.48,7.48,0,0,1,2.94-5.5c1.62-1.1,2.94-.43,2.94,1.5A7.45,7.45,0,0,1,716,843.32Zm0-9c-1.62,1.1-2.94.43-2.94-1.5a7.46,7.46,0,0,1,2.94-5.5c1.62-1.1,2.94-.43,2.94,1.5A7.48,7.48,0,0,1,716,834.35Zm0-9c-1.62,1.11-2.94.44-2.94-1.5a7.44,7.44,0,0,1,2.94-5.49c1.62-1.11,2.94-.43,2.94,1.5A7.44,7.44,0,0,1,716,825.37Zm0-9c-1.62,1.1-2.94.43-2.94-1.5a7.48,7.48,0,0,1,2.94-5.5c1.62-1.1,2.94-.43,2.94,1.5A7.45,7.45,0,0,1,716,816.4Zm0-9c-1.62,1.1-2.94.43-2.94-1.51a7.44,7.44,0,0,1,2.94-5.49c1.62-1.1,2.94-.43,2.94,1.5A7.48,7.48,0,0,1,716,807.43Zm0-9c-1.62,1.1-2.94.43-2.94-1.5a7.48,7.48,0,0,1,2.94-5.5c1.62-1.1,2.94-.43,2.94,1.51A7.44,7.44,0,0,1,716,798.45Zm0-9c-1.62,1.1-2.94.43-2.94-1.51a7.44,7.44,0,0,1,2.94-5.49c1.62-1.1,2.94-.43,2.94,1.5A7.45,7.45,0,0,1,716,789.48Zm0-9c-1.62,1.11-2.94.43-2.94-1.5a7.44,7.44,0,0,1,2.94-5.49c1.62-1.11,2.94-.43,2.94,1.5A7.44,7.44,0,0,1,716,780.5Zm0-9c-1.62,1.1-2.94.43-2.94-1.5a7.45,7.45,0,0,1,2.94-5.5c1.62-1.1,2.94-.43,2.94,1.51A7.44,7.44,0,0,1,716,771.53Zm0-9c-1.62,1.1-2.94.42-2.94-1.51a7.44,7.44,0,0,1,2.94-5.49c1.62-1.1,2.94-.43,2.94,1.5A7.45,7.45,0,0,1,716,762.56Zm0-9c-1.62,1.1-2.94.43-2.94-1.5a7.45,7.45,0,0,1,2.94-5.5c1.62-1.1,2.94-.42,2.94,1.51A7.44,7.44,0,0,1,716,753.58Zm0-9c-1.62,1.1-2.94.42-2.94-1.51a7.44,7.44,0,0,1,2.94-5.49c1.62-1.1,2.94-.43,2.94,1.51A7.44,7.44,0,0,1,716,744.61Zm0-9c-1.62,1.1-2.94.43-2.94-1.5a7.43,7.43,0,0,1,2.94-5.49c1.62-1.1,2.94-.43,2.94,1.5A7.43,7.43,0,0,1,716,735.63Zm0-9c-1.62,1.1-2.94.43-2.94-1.51a7.44,7.44,0,0,1,2.94-5.49c1.62-1.1,2.94-.42,2.94,1.51A7.44,7.44,0,0,1,716,726.66Zm0-9c-1.62,1.1-2.94.42-2.94-1.51a7.44,7.44,0,0,1,2.94-5.49c1.62-1.1,2.94-.43,2.94,1.51A7.44,7.44,0,0,1,716,717.69Zm0-9c-1.62,1.1-2.94.43-2.94-1.51a7.44,7.44,0,0,1,2.94-5.49c1.62-1.09,2.94-.42,2.94,1.51A7.43,7.43,0,0,1,716,708.71Zm0-9c-1.62,1.1-2.94.42-2.94-1.51a7.44,7.44,0,0,1,2.94-5.49c1.62-1.1,2.94-.42,2.94,1.51A7.44,7.44,0,0,1,716,699.74Zm0-9c-1.62,1.1-2.94.43-2.94-1.51a7.41,7.41,0,0,1,2.94-5.48c1.62-1.1,2.94-.43,2.94,1.51A7.41,7.41,0,0,1,716,690.76Zm0-9c-1.62,1.1-2.94.42-2.94-1.51a7.44,7.44,0,0,1,2.94-5.49c1.62-1.1,2.94-.42,2.94,1.51A7.43,7.43,0,0,1,716,681.79Zm0-9c-1.62,1.09-2.94.42-2.94-1.51a7.43,7.43,0,0,1,2.94-5.49c1.62-1.1,2.94-.42,2.94,1.51A7.44,7.44,0,0,1,716,672.82Zm0-9c-1.62,1.1-2.94.42-2.94-1.51a7.44,7.44,0,0,1,2.94-5.49c1.62-1.09,2.94-.42,2.94,1.52A7.41,7.41,0,0,1,716,663.84Zm0-17.71c-1.62,1.1-2.94.42-2.94-1.51a7.43,7.43,0,0,1,2.94-5.49c1.62-1.09,2.94-.42,2.94,1.52A7.42,7.42,0,0,1,716,646.13Zm0-17.71c-1.62,1.09-2.94.42-2.94-1.52a7.42,7.42,0,0,1,2.94-5.48c1.62-1.1,2.94-.42,2.94,1.52A7.42,7.42,0,0,1,716,628.42Zm0-17.71c-1.62,1.09-2.94.41-2.94-1.52a7.41,7.41,0,0,1,2.94-5.48c1.62-1.1,2.94-.42,2.94,1.51A7.43,7.43,0,0,1,716,610.71ZM716,593c-1.62,1.1-2.94.42-2.94-1.51A7.41,7.41,0,0,1,716,586c1.62-1.1,2.94-.42,2.94,1.51A7.39,7.39,0,0,1,716,593Zm0-17.71c-1.62,1.1-2.94.42-2.94-1.52a7.42,7.42,0,0,1,2.94-5.48c1.62-1.09,2.94-.41,2.94,1.52A7.39,7.39,0,0,1,716,575.28Zm0-17.71c-1.62,1.09-2.94.41-2.94-1.52a7.42,7.42,0,0,1,2.94-5.48c1.62-1.09,2.94-.41,2.94,1.52A7.41,7.41,0,0,1,716,557.57Zm0-17.71c-1.62,1.09-2.94.41-2.94-1.52a7.41,7.41,0,0,1,2.94-5.48c1.62-1.09,2.94-.41,2.94,1.52A7.41,7.41,0,0,1,716,539.86Zm0-17.71c-1.62,1.09-2.94.41-2.94-1.53a7.39,7.39,0,0,1,2.94-5.47c1.62-1.09,2.94-.41,2.94,1.52A7.42,7.42,0,0,1,716,522.15Zm0-17.72c-1.62,1.1-2.94.41-2.94-1.52a7.39,7.39,0,0,1,2.94-5.47c1.62-1.09,2.94-.41,2.94,1.52A7.39,7.39,0,0,1,716,504.43Zm0-17.71c-1.62,1.09-2.94.41-2.94-1.52a7.42,7.42,0,0,1,2.94-5.48c1.62-1.09,2.94-.4,2.94,1.53A7.39,7.39,0,0,1,716,486.72ZM716,469c-1.62,1.09-2.94.41-2.94-1.52A7.39,7.39,0,0,1,716,462c1.62-1.09,2.94-.4,2.94,1.53A7.39,7.39,0,0,1,716,469Zm0-17.71c-1.62,1.09-2.94.4-2.94-1.53A7.39,7.39,0,0,1,716,444.3c1.62-1.09,2.94-.4,2.94,1.53A7.39,7.39,0,0,1,716,451.3Zm0-17.71c-1.62,1.09-2.94.4-2.94-1.53a7.39,7.39,0,0,1,2.94-5.47c1.62-1.09,2.94-.41,2.94,1.53A7.39,7.39,0,0,1,716,433.59Zm0-17.72c-1.62,1.09-2.94.41-2.94-1.52a7.35,7.35,0,0,1,2.94-5.47c1.62-1.09,2.94-.41,2.94,1.53A7.35,7.35,0,0,1,716,415.87Zm0-17.71c-1.62,1.09-2.94.4-2.94-1.53a7.39,7.39,0,0,1,2.94-5.47c1.62-1.08,2.94-.4,2.94,1.54A7.35,7.35,0,0,1,716,398.16Zm0-17.71c-1.62,1.09-2.94.4-2.94-1.53a7.39,7.39,0,0,1,2.94-5.47c1.62-1.08,2.94-.4,2.94,1.53A7.37,7.37,0,0,1,716,380.45Zm0-17.71c-1.62,1.08-2.94.4-2.94-1.53a7.37,7.37,0,0,1,2.94-5.47c1.62-1.08,2.94-.4,2.94,1.53A7.37,7.37,0,0,1,716,362.74ZM716,345c-1.62,1.08-2.94.4-2.94-1.54A7.35,7.35,0,0,1,716,338c1.62-1.09,2.94-.4,2.94,1.53A7.37,7.37,0,0,1,716,345Zm0-17.72c-1.62,1.09-2.94.4-2.94-1.53a7.35,7.35,0,0,1,2.94-5.46c1.62-1.09,2.94-.4,2.94,1.53A7.35,7.35,0,0,1,716,327.31Zm0-17.71c-1.62,1.09-2.94.4-2.94-1.53A7.37,7.37,0,0,1,716,302.6c1.62-1.08,2.94-.39,2.94,1.54A7.35,7.35,0,0,1,716,309.6Zm0-17.71c-1.62,1.08-2.94.4-2.94-1.54a7.37,7.37,0,0,1,2.94-5.46c1.62-1.08,2.94-.39,2.94,1.54A7.35,7.35,0,0,1,716,291.89Zm0-17.71c-1.62,1.08-2.94.39-2.94-1.54a7.35,7.35,0,0,1,2.94-5.46c1.62-1.08,2.94-.39,2.94,1.54A7.35,7.35,0,0,1,716,274.18Zm0-17.71c-1.62,1.08-2.94.39-2.94-1.54a7.33,7.33,0,0,1,2.94-5.46c1.62-1.08,2.94-.39,2.94,1.54A7.35,7.35,0,0,1,716,256.47Z"/><path class="cls-3" d="M684,232.46v794.47l21.5,8.9V242.46Zm10.75,10.11a6.09,6.09,0,0,1,3,5c0,1.93-1.34,2.82-3,2a6.1,6.1,0,0,1-3-5C691.69,242.63,693,241.74,694.7,242.57Zm0,19.85a6.06,6.06,0,0,1,3,5c0,1.93-1.34,2.83-3,2a6.08,6.08,0,0,1-3-5C691.69,262.48,693,261.59,694.7,262.42Zm0,19.85a6.06,6.06,0,0,1,3,5c0,1.93-1.34,2.83-3,2a6.08,6.08,0,0,1-3-5C691.69,282.33,693,281.44,694.7,282.27Zm0,19.84a6.06,6.06,0,0,1,3,5c0,1.94-1.34,2.83-3,2a6.08,6.08,0,0,1-3-5C691.69,302.18,693,301.28,694.7,302.11Zm0,19.85a6,6,0,0,1,3,5c0,1.93-1.34,2.83-3,2a6.05,6.05,0,0,1-3-5C691.69,322,693,321.13,694.7,322Zm0,19.84a6,6,0,0,1,3,5c0,1.93-1.34,2.83-3,2a6.07,6.07,0,0,1-3-5C691.69,341.88,693,341,694.7,341.8Zm0,19.85a6,6,0,0,1,3,5c0,1.93-1.34,2.84-3,2a6,6,0,0,1-3-5C691.69,361.73,693,360.83,694.7,361.65Zm0,58a6,6,0,0,1,3,5c0,1.93-1.34,2.84-3,2a6,6,0,0,1-3-5C691.69,419.78,693,418.87,694.7,419.69Zm-4.65,36.74-3.45-1.68v-15l3.45,1.69Zm4.65,561.28a5.78,5.78,0,0,1-3-4.88c0-1.93,1.35-2.89,3-2.13a5.75,5.75,0,0,1,3,4.88C697.71,1017.51,696.37,1018.46,694.7,1017.71Zm0-31a5.8,5.8,0,0,1-3-4.89c0-1.93,1.35-2.88,3-2.12a5.76,5.76,0,0,1,3,4.88C697.71,986.5,696.37,987.45,694.7,986.69Zm0-19a5.78,5.78,0,0,1-3-4.88c0-1.94,1.35-2.88,3-2.12a5.76,5.76,0,0,1,3,4.88C697.71,967.49,696.37,968.44,694.7,967.67Zm0-23.65a5.81,5.81,0,0,1-3-4.89c0-1.94,1.35-2.88,3-2.12a5.79,5.79,0,0,1,3,4.89C697.71,943.84,696.37,944.78,694.7,944Zm0-51.74a5.81,5.81,0,0,1-3-4.89c0-1.94,1.35-2.88,3-2.11a5.8,5.8,0,0,1,3,4.9C697.71,892.11,696.37,893.05,694.7,892.28Zm0-51.73a5.83,5.83,0,0,1-3-4.91c0-1.93,1.35-2.87,3-2.09a5.81,5.81,0,0,1,3,4.9C697.71,840.39,696.37,841.33,694.7,840.55Zm0-51.73a5.86,5.86,0,0,1-3-4.92c0-1.93,1.35-2.87,3-2.09a5.87,5.87,0,0,1,3,4.92C697.71,788.66,696.37,789.6,694.7,788.82Zm0-51.73a5.91,5.91,0,0,1-3-4.93c0-1.93,1.35-2.86,3-2.08a5.87,5.87,0,0,1,3,4.93C697.71,736.94,696.37,737.87,694.7,737.09Zm0-51.74a5.91,5.91,0,0,1-3-4.93c0-1.94,1.35-2.86,3-2.07a5.89,5.89,0,0,1,3,4.93C697.71,685.22,696.37,686.14,694.7,685.35Zm0-51.73a5.92,5.92,0,0,1-3-4.94c0-1.94,1.35-2.86,3-2.06a5.9,5.9,0,0,1,3,4.94C697.71,633.49,696.37,634.42,694.7,633.62Zm0-51.73a6,6,0,0,1-3-4.95c0-1.94,1.35-2.86,3-2.06a6,6,0,0,1,3,5C697.71,581.77,696.37,582.69,694.7,581.89Zm0-51.73a6,6,0,0,1-3-5c0-1.93,1.35-2.85,3-2a6,6,0,0,1,3,5C697.71,530.05,696.37,531,694.7,530.16Zm0-51.74a6,6,0,0,1-3-5c0-1.93,1.35-2.84,3-2a6,6,0,0,1,3,5C697.71,478.32,696.37,479.23,694.7,478.42ZM699.36,461l-4.17-8.05-.27-.13-.43-.21-3.58-1.75V448l5.59,2.73a1.92,1.92,0,0,0,.43.17c.91.29,1.6,0,1.6-.8a3.36,3.36,0,0,0-1.6-2.38,3.18,3.18,0,0,0-.43-.25l-5.59-2.74v-2.87l5.59,2.74.43.21v0c2.89,1.59,5.15,4.64,5.15,7,0,1.94-1.52,2.84-3.65,2.43l4.37,8.42Z"/><polyline class="cls-3" points="705.45 242.47 683.95 232.47 683.94 314.56 701.64 322.8"/><polygon class="cls-4" points="705.45 248.96 705.45 320.47 701.64 322.8 701.64 248.96 705.45 248.96"/><path class="cls-4" d="M693.26,281.31a9.91,9.91,0,0,1-1,4.7,3.38,3.38,0,0,1-1.08,1.25L396.8,467.42v-13l292.52-179,0,0a1.63,1.63,0,0,1,.87-.26,2.48,2.48,0,0,1,2,1.53A9.91,9.91,0,0,1,693.26,281.31Z"/><polygon class="cls-4" points="406.23 424.15 406.23 502.15 402.42 504.48 402.42 426.48 380.75 416.57 384.56 414.24 406.23 424.15"/><polygon class="cls-4" points="705.45 242.47 705.45 248.96 701.64 248.96 701.64 244.8 699.23 243.72 679.73 235.02 683.95 232.47 703.95 241.77 705.45 242.47"/><ellipse class="cls-7" cx="690.98" cy="250.73" rx="2.67" ry="4.15" transform="translate(-32.79 379.08) rotate(-30)"/><ellipse class="cls-7" cx="690.98" cy="306.1" rx="2.67" ry="4.15" transform="translate(-60.48 386.5) rotate(-30)"/><polygon class="cls-1" points="129.18 1074.59 127.91 1075.37 148.81 1083.59 166.21 1144.49 166.21 1164.55 167.16 1163.78 167.16 1143.83 150.13 1082.65 129.18 1074.59"/><path class="cls-2" d="M148.81,1083.58l-20.9-8.21-21.75,44v20.06l60.05,25.13v-20.06Zm-32.33,51.67c-1.36.68-3.28-.39-4.28-2.39s-.71-4.18.65-4.87,3.28.39,4.29,2.4S117.85,1134.57,116.48,1135.25Zm21.06-15c-1.37.69-3.28-.39-4.29-2.39s-.71-4.18.66-4.86,3.28.38,4.28,2.39S138.9,1119.54,137.54,1120.22Zm0-30.8c-1.37.69-3.28-.38-4.29-2.39s-.71-4.18.66-4.86,3.28.39,4.28,2.39S138.9,1088.74,137.54,1089.42Zm19.12,63.4c-1.37.69-3.29-.38-4.29-2.39s-.71-4.18.65-4.86,3.29.39,4.29,2.39S158,1152.14,156.66,1152.82Z"/><polygon class="cls-1" points="684.44 971.64 683.16 972.41 704.06 980.63 721.47 1041.53 721.47 1061.6 722.41 1060.82 722.41 1040.88 705.39 979.7 684.44 971.64"/><path class="cls-2" d="M704.06,980.63l-20.9-8.22-21.74,44v20.07l60.05,25.13v-20.07Zm-32.32,51.66c-1.36.69-3.28-.38-4.29-2.39s-.71-4.18.66-4.86,3.28.39,4.28,2.39S673.1,1031.61,671.74,1032.29Zm21.06-15c-1.37.68-3.29-.39-4.29-2.39s-.71-4.19.65-4.87,3.29.39,4.29,2.39S694.16,1016.58,692.8,1017.27Zm0-30.8c-1.37.68-3.29-.39-4.29-2.39s-.71-4.18.65-4.87,3.29.39,4.29,2.39S694.16,985.79,692.8,986.47Zm19.11,63.4c-1.36.68-3.28-.39-4.28-2.39s-.71-4.18.65-4.87,3.28.39,4.29,2.39S713.28,1049.19,711.91,1049.87Z"/><polygon class="cls-1" points="454.43 876.13 453.16 876.91 474.06 885.13 491.46 946.03 491.46 966.1 492.41 965.32 492.41 945.37 475.38 884.19 454.43 876.13"/><path class="cls-2" d="M474.06,885.13l-20.9-8.22-21.74,44V941l60,25.13V946Zm-32.33,51.66c-1.36.68-3.28-.39-4.28-2.39s-.71-4.18.65-4.86,3.28.38,4.29,2.39S443.1,936.11,441.73,936.79Zm21.06-15c-1.37.69-3.28-.38-4.29-2.39s-.71-4.18.66-4.86,3.28.39,4.28,2.39S464.15,921.08,462.79,921.76Zm0-30.79c-1.37.68-3.28-.39-4.29-2.4s-.71-4.18.66-4.86,3.28.39,4.28,2.39S464.15,890.28,462.79,891Zm19.12,63.4c-1.37.68-3.29-.39-4.29-2.4s-.71-4.18.65-4.86,3.29.39,4.29,2.39S483.27,953.68,481.91,954.37Z"/><path class="cls-4" d="M381.42,439.46v793.36l21-13.36v-793Zm10.5,765.81c-1.63,1.12-2.94.45-2.94-1.48a7.45,7.45,0,0,1,2.94-5.51c1.62-1.11,2.94-.45,2.94,1.48A7.48,7.48,0,0,1,391.92,1205.27Zm0-16.44c-1.63,1.11-2.94.45-2.94-1.49a7.45,7.45,0,0,1,2.94-5.5c1.62-1.11,2.94-.45,2.94,1.49A7.48,7.48,0,0,1,391.92,1188.83Zm0-16.44c-1.63,1.11-2.94.45-2.94-1.49a7.43,7.43,0,0,1,2.94-5.5c1.62-1.11,2.94-.45,2.94,1.49A7.48,7.48,0,0,1,391.92,1172.39Zm0-16.44c-1.63,1.11-2.94.44-2.94-1.49a7.47,7.47,0,0,1,2.94-5.51c1.62-1.1,2.94-.44,2.94,1.5A7.48,7.48,0,0,1,391.92,1156Zm0-16.44c-1.63,1.11-2.94.44-2.94-1.49a7.47,7.47,0,0,1,2.94-5.51c1.62-1.1,2.94-.43,2.94,1.5A7.48,7.48,0,0,1,391.92,1139.51Zm0-16.44c-1.63,1.11-2.94.44-2.94-1.49a7.47,7.47,0,0,1,2.94-5.51c1.62-1.1,2.94-.43,2.94,1.5A7.46,7.46,0,0,1,391.92,1123.07Zm0-16.44c-1.63,1.11-2.94.44-2.94-1.49a7.45,7.45,0,0,1,2.94-5.51c1.62-1.1,2.94-.43,2.94,1.5A7.46,7.46,0,0,1,391.92,1106.63Zm0-16.44c-1.63,1.11-2.94.44-2.94-1.49a7.45,7.45,0,0,1,2.94-5.51c1.62-1.1,2.94-.43,2.94,1.5A7.46,7.46,0,0,1,391.92,1090.19Zm0-16.44c-1.63,1.11-2.94.44-2.94-1.5a7.45,7.45,0,0,1,2.94-5.5c1.62-1.1,2.94-.43,2.94,1.5A7.46,7.46,0,0,1,391.92,1073.75Zm0-16.44c-1.63,1.11-2.94.43-2.94-1.5a7.45,7.45,0,0,1,2.94-5.5c1.62-1.1,2.94-.43,2.94,1.5A7.46,7.46,0,0,1,391.92,1057.31Zm0-17c-1.63,1.1-2.94.43-2.94-1.5a7.41,7.41,0,0,1,2.94-5.5c1.62-1.11,2.94-.44,2.94,1.5A7.48,7.48,0,0,1,391.92,1040.32Zm0-9c-1.63,1.11-2.94.43-2.94-1.5a7.45,7.45,0,0,1,2.94-5.5c1.62-1.1,2.94-.43,2.94,1.5A7.45,7.45,0,0,1,391.92,1031.34Zm0-9c-1.63,1.1-2.94.43-2.94-1.5a7.41,7.41,0,0,1,2.94-5.5c1.62-1.1,2.94-.43,2.94,1.5A7.48,7.48,0,0,1,391.92,1022.37Zm0-9c-1.63,1.11-2.94.43-2.94-1.5a7.45,7.45,0,0,1,2.94-5.5c1.62-1.1,2.94-.43,2.94,1.51A7.44,7.44,0,0,1,391.92,1013.39Zm0-9c-1.63,1.1-2.94.43-2.94-1.5a7.41,7.41,0,0,1,2.94-5.5c1.62-1.1,2.94-.43,2.94,1.5A7.45,7.45,0,0,1,391.92,1004.42Zm0-9c-1.63,1.1-2.94.42-2.94-1.51a7.41,7.41,0,0,1,2.94-5.49c1.62-1.11,2.94-.43,2.94,1.5A7.48,7.48,0,0,1,391.92,995.45Zm0-9c-1.63,1.1-2.94.43-2.94-1.5a7.43,7.43,0,0,1,2.94-5.5c1.62-1.1,2.94-.43,2.94,1.51A7.44,7.44,0,0,1,391.92,986.47Zm0-9c-1.63,1.1-2.94.43-2.94-1.51a7.41,7.41,0,0,1,2.94-5.49c1.62-1.1,2.94-.43,2.94,1.5A7.45,7.45,0,0,1,391.92,977.5Zm0-9c-1.63,1.1-2.94.43-2.94-1.5a7.41,7.41,0,0,1,2.94-5.49c1.62-1.11,2.94-.43,2.94,1.5A7.44,7.44,0,0,1,391.92,968.52Zm0-9c-1.63,1.1-2.94.43-2.94-1.51a7.41,7.41,0,0,1,2.94-5.49c1.62-1.1,2.94-.43,2.94,1.51A7.44,7.44,0,0,1,391.92,959.55Zm0-9c-1.63,1.1-2.94.42-2.94-1.51a7.41,7.41,0,0,1,2.94-5.49c1.62-1.1,2.94-.43,2.94,1.5A7.46,7.46,0,0,1,391.92,950.58Zm0-9c-1.63,1.1-2.94.43-2.94-1.51a7.41,7.41,0,0,1,2.94-5.49c1.62-1.1,2.94-.42,2.94,1.51A7.44,7.44,0,0,1,391.92,941.6Zm0-9c-1.63,1.1-2.94.42-2.94-1.51a7.41,7.41,0,0,1,2.94-5.49c1.62-1.1,2.94-.43,2.94,1.51A7.44,7.44,0,0,1,391.92,932.63Zm0-9c-1.63,1.1-2.94.43-2.94-1.5a7.38,7.38,0,0,1,2.94-5.49c1.62-1.1,2.94-.43,2.94,1.5A7.43,7.43,0,0,1,391.92,923.65Zm0-9c-1.63,1.1-2.94.42-2.94-1.51a7.41,7.41,0,0,1,2.94-5.49c1.62-1.1,2.94-.42,2.94,1.51A7.44,7.44,0,0,1,391.92,914.68Zm0-9c-1.63,1.09-2.94.42-2.94-1.51a7.39,7.39,0,0,1,2.94-5.49c1.62-1.1,2.94-.43,2.94,1.51A7.44,7.44,0,0,1,391.92,905.71Zm0-9c-1.63,1.1-2.94.42-2.94-1.51a7.41,7.41,0,0,1,2.94-5.49c1.62-1.1,2.94-.42,2.94,1.51A7.43,7.43,0,0,1,391.92,896.73Zm0-9c-1.63,1.1-2.94.42-2.94-1.51a7.39,7.39,0,0,1,2.94-5.49c1.62-1.1,2.94-.42,2.94,1.51A7.44,7.44,0,0,1,391.92,887.76Zm0-9c-1.63,1.1-2.94.43-2.94-1.51a7.37,7.37,0,0,1,2.94-5.48c1.62-1.1,2.94-.43,2.94,1.51A7.41,7.41,0,0,1,391.92,878.78Zm0-9c-1.63,1.1-2.94.42-2.94-1.51a7.41,7.41,0,0,1,2.94-5.49c1.62-1.1,2.94-.42,2.94,1.51A7.43,7.43,0,0,1,391.92,869.81Zm0-9c-1.63,1.09-2.94.42-2.94-1.52a7.37,7.37,0,0,1,2.94-5.48c1.62-1.1,2.94-.42,2.94,1.51A7.44,7.44,0,0,1,391.92,860.84Zm0-17.72c-1.63,1.1-2.94.42-2.94-1.51a7.37,7.37,0,0,1,2.94-5.48c1.62-1.1,2.94-.42,2.94,1.51A7.41,7.41,0,0,1,391.92,843.12Zm0-17.71c-1.63,1.1-2.94.42-2.94-1.51a7.39,7.39,0,0,1,2.94-5.49c1.62-1.09,2.94-.41,2.94,1.52A7.41,7.41,0,0,1,391.92,825.41Zm0-17.71c-1.63,1.09-2.94.42-2.94-1.52a7.39,7.39,0,0,1,2.94-5.48c1.62-1.09,2.94-.41,2.94,1.52A7.42,7.42,0,0,1,391.92,807.7Zm0-17.71c-1.63,1.09-2.94.41-2.94-1.52a7.37,7.37,0,0,1,2.94-5.48c1.62-1.1,2.94-.42,2.94,1.52A7.42,7.42,0,0,1,391.92,790Zm0-17.71c-1.63,1.09-2.94.41-2.94-1.52a7.36,7.36,0,0,1,2.94-5.48c1.62-1.1,2.94-.42,2.94,1.52A7.42,7.42,0,0,1,391.92,772.28Zm0-17.72c-1.63,1.1-2.94.42-2.94-1.52a7.36,7.36,0,0,1,2.94-5.47c1.62-1.1,2.94-.42,2.94,1.52A7.39,7.39,0,0,1,391.92,754.56Zm0-17.71c-1.63,1.09-2.94.41-2.94-1.52a7.39,7.39,0,0,1,2.94-5.48c1.62-1.09,2.94-.41,2.94,1.52A7.39,7.39,0,0,1,391.92,736.85Zm0-17.71c-1.63,1.09-2.94.41-2.94-1.52a7.36,7.36,0,0,1,2.94-5.48c1.62-1.09,2.94-.41,2.94,1.52A7.39,7.39,0,0,1,391.92,719.14Zm0-17.71c-1.63,1.09-2.94.41-2.94-1.53a7.36,7.36,0,0,1,2.94-5.47c1.62-1.09,2.94-.41,2.94,1.52A7.39,7.39,0,0,1,391.92,701.43Zm0-17.71c-1.63,1.09-2.94.4-2.94-1.53a7.36,7.36,0,0,1,2.94-5.47c1.62-1.09,2.94-.41,2.94,1.52A7.41,7.41,0,0,1,391.92,683.72Zm0-17.72c-1.63,1.09-2.94.41-2.94-1.52a7.36,7.36,0,0,1,2.94-5.47c1.62-1.09,2.94-.41,2.94,1.52A7.39,7.39,0,0,1,391.92,666Zm0-17.71c-1.63,1.09-2.94.41-2.94-1.53a7.36,7.36,0,0,1,2.94-5.47c1.62-1.09,2.94-.4,2.94,1.53A7.39,7.39,0,0,1,391.92,648.29Zm0-17.71c-1.63,1.09-2.94.4-2.94-1.53a7.36,7.36,0,0,1,2.94-5.47c1.62-1.09,2.94-.4,2.94,1.53A7.39,7.39,0,0,1,391.92,630.58Zm0-17.71c-1.63,1.09-2.94.4-2.94-1.53a7.36,7.36,0,0,1,2.94-5.47c1.62-1.09,2.94-.4,2.94,1.53A7.39,7.39,0,0,1,391.92,612.87Zm0-17.71c-1.63,1.08-2.94.4-2.94-1.53a7.32,7.32,0,0,1,2.94-5.47c1.62-1.09,2.94-.4,2.94,1.53A7.39,7.39,0,0,1,391.92,595.16Zm0-17.72c-1.63,1.09-2.94.4-2.94-1.53a7.32,7.32,0,0,1,2.94-5.46c1.62-1.09,2.94-.4,2.94,1.53A7.35,7.35,0,0,1,391.92,577.44Zm0-17.71c-1.63,1.09-2.94.4-2.94-1.53a7.36,7.36,0,0,1,2.94-5.47c1.62-1.08,2.94-.4,2.94,1.54A7.35,7.35,0,0,1,391.92,559.73Zm0-17.71c-1.63,1.09-2.94.4-2.94-1.53a7.34,7.34,0,0,1,2.94-5.47c1.62-1.08,2.94-.4,2.94,1.54A7.37,7.37,0,0,1,391.92,542Zm0-17.71c-1.63,1.08-2.94.39-2.94-1.54a7.32,7.32,0,0,1,2.94-5.46c1.62-1.08,2.94-.4,2.94,1.54A7.37,7.37,0,0,1,391.92,524.31Zm0-17.71c-1.63,1.08-2.94.39-2.94-1.54a7.32,7.32,0,0,1,2.94-5.46c1.62-1.09,2.94-.4,2.94,1.53A7.37,7.37,0,0,1,391.92,506.6Zm0-17.72c-1.63,1.09-2.94.4-2.94-1.53a7.3,7.3,0,0,1,2.94-5.46c1.62-1.09,2.94-.4,2.94,1.53A7.33,7.33,0,0,1,391.92,488.88Zm0-17.71c-1.63,1.08-2.94.4-2.94-1.54a7.34,7.34,0,0,1,2.94-5.46c1.62-1.08,2.94-.39,2.94,1.54A7.33,7.33,0,0,1,391.92,471.17Zm0-17.71c-1.63,1.08-2.94.39-2.94-1.54a7.32,7.32,0,0,1,2.94-5.46c1.62-1.08,2.94-.39,2.94,1.54A7.35,7.35,0,0,1,391.92,453.46Z"/><path class="cls-3" d="M359.92,429.46v794.46l21.5,8.9V439.46Zm10.75,10.11a6.1,6.1,0,0,1,3,5c0,1.93-1.35,2.83-3,2a6.1,6.1,0,0,1-3-5C367.66,439.63,369,438.73,370.67,439.57Zm0,19.84a6.11,6.11,0,0,1,3,5c0,1.94-1.35,2.83-3,2a6.1,6.1,0,0,1-3-5C367.66,459.47,369,458.58,370.67,459.41Zm0,19.85a6.08,6.08,0,0,1,3,5c0,1.94-1.35,2.83-3,2a6.08,6.08,0,0,1-3-5C367.66,479.32,369,478.43,370.67,479.26Zm0,19.84a6.08,6.08,0,0,1,3,5c0,1.93-1.35,2.83-3,2a6.08,6.08,0,0,1-3-5C367.66,499.17,369,498.28,370.67,499.1Zm0,19.85a6.07,6.07,0,0,1,3,5c0,1.93-1.35,2.83-3,2a6.08,6.08,0,0,1-3-5C367.66,519,369,518.12,370.67,519Zm0,19.85a6,6,0,0,1,3,5c0,1.93-1.35,2.83-3,2a6,6,0,0,1-3-5C367.66,538.87,369,538,370.67,538.8Zm0,19.84a6,6,0,0,1,3,5c0,1.94-1.35,2.84-3,2a6,6,0,0,1-3-5C367.66,558.72,369,557.82,370.67,558.64Zm0,58a6,6,0,0,1,3,5c0,1.93-1.35,2.84-3,2a6,6,0,0,1-3-5C367.66,616.77,369,615.86,370.67,616.68ZM366,653.43l-3.44-1.69v-15l3.44,1.68Zm4.66,561.27a5.77,5.77,0,0,1-3-4.88c0-1.93,1.35-2.88,3-2.13a5.78,5.78,0,0,1,3,4.88C373.68,1214.5,372.33,1215.46,370.67,1214.7Zm0-31a5.78,5.78,0,0,1-3-4.88c0-1.94,1.35-2.89,3-2.13a5.8,5.8,0,0,1,3,4.89C373.68,1183.49,372.33,1184.44,370.67,1183.68Zm0-19a5.8,5.8,0,0,1-3-4.89c0-1.93,1.35-2.88,3-2.12a5.8,5.8,0,0,1,3,4.89C373.68,1164.48,372.33,1165.43,370.67,1164.67Zm0-23.66a5.81,5.81,0,0,1-3-4.89c0-1.93,1.35-2.88,3-2.11a5.78,5.78,0,0,1,3,4.88C373.68,1140.83,372.33,1141.78,370.67,1141Zm0-51.73a5.83,5.83,0,0,1-3-4.9c0-1.94,1.35-2.88,3-2.11a5.83,5.83,0,0,1,3,4.9C373.68,1089.1,372.33,1090.05,370.67,1089.28Zm0-51.74a5.83,5.83,0,0,1-3-4.9c0-1.94,1.35-2.88,3-2.1a5.85,5.85,0,0,1,3,4.91C373.68,1037.38,372.33,1038.32,370.67,1037.54Zm0-51.73a5.86,5.86,0,0,1-3-4.92c0-1.93,1.35-2.86,3-2.08a5.86,5.86,0,0,1,3,4.91C373.68,985.66,372.33,986.59,370.67,985.81Zm0-51.73a5.89,5.89,0,0,1-3-4.93c0-1.93,1.35-2.86,3-2.08a5.91,5.91,0,0,1,3,4.93C373.68,933.93,372.33,934.86,370.67,934.08Zm0-51.73a5.91,5.91,0,0,1-3-4.94c0-1.93,1.35-2.86,3-2.07a5.91,5.91,0,0,1,3,4.94C373.68,882.21,372.33,883.14,370.67,882.35Zm0-51.74a5.92,5.92,0,0,1-3-4.94c0-1.93,1.35-2.86,3-2.06a5.94,5.94,0,0,1,3,4.94C373.68,830.49,372.33,831.41,370.67,830.61Zm0-51.73a6,6,0,0,1-3-5c0-1.94,1.35-2.85,3-2a6,6,0,0,1,3,5C373.68,778.76,372.33,779.68,370.67,778.88Zm0-51.73a6,6,0,0,1-3-5c0-1.94,1.35-2.85,3-2.05a6,6,0,0,1,3,5C373.68,727,372.33,728,370.67,727.15Zm0-51.73a6,6,0,0,1-3-5c0-1.93,1.35-2.84,3-2a6,6,0,0,1,3,5C373.68,675.32,372.33,676.23,370.67,675.42ZM375.33,658l-4.17-8-.27-.13-.43-.22-3.59-1.75V645l5.59,2.74a3.46,3.46,0,0,0,.43.17c.92.28,1.6,0,1.6-.81a3.33,3.33,0,0,0-1.6-2.38,4.41,4.41,0,0,0-.43-.25l-5.59-2.73v-2.88l5.59,2.74.43.21v0c2.89,1.59,5.16,4.64,5.16,7,0,1.94-1.52,2.85-3.65,2.43l4.37,8.42Z"/><polygon class="cls-5" points="381.42 439.46 359.92 429.46 380.74 416.57 402.42 426.46 381.42 439.46"/><polygon class="cls-1" points="359.19 1170.1 357.91 1170.87 378.81 1179.09 396.22 1239.99 396.22 1260.06 397.17 1259.28 397.17 1239.33 380.14 1178.15 359.19 1170.1"/><path class="cls-2" d="M378.81,1179.09l-20.9-8.22-21.74,44v20.07l60.05,25.13V1240Zm-32.32,51.66c-1.36.69-3.28-.39-4.29-2.39s-.71-4.18.66-4.86,3.28.39,4.28,2.39S347.85,1230.07,346.49,1230.75Zm21.06-15c-1.37.69-3.29-.38-4.29-2.39s-.71-4.18.65-4.86,3.29.39,4.29,2.39S368.91,1215,367.55,1215.72Zm0-30.79c-1.37.68-3.29-.39-4.29-2.39s-.71-4.19.65-4.87,3.29.39,4.29,2.39S368.91,1184.24,367.55,1184.93Zm19.11,63.4c-1.36.68-3.28-.39-4.28-2.39s-.71-4.19.65-4.87,3.28.39,4.29,2.39S388,1247.64,386.66,1248.33Z"/><polygon class="cls-11" points="493.63 155.64 489.47 159.46 485.32 158.1 485.32 152.91 489.47 149.09 493.63 150.45 493.63 155.64"/><polygon class="cls-12" points="483.8 152.26 483.8 152.33 485.32 152.95 485.32 152.91 489.46 149.09 487.93 148.47 483.8 152.26"/><polygon class="cls-13" points="483.71 157.42 485.32 158.1 485.32 152.95 483.8 152.33 483.71 157.42"/><polygon class="cls-13" points="493.63 150.45 491.71 149.67 487.95 148.44 487.93 148.47 489.46 149.09 489.47 149.09 493.63 150.45"/><ellipse class="cls-14" cx="489.71" cy="154.77" rx="3.09" ry="2.19" transform="translate(234.12 600.23) rotate(-77.69)"/><ellipse class="cls-15" cx="489.95" cy="154.86" rx="3.09" ry="2.18" transform="translate(230.54 598.41) rotate(-77.22)"/><ellipse class="cls-16" cx="490.18" cy="154.96" rx="3.1" ry="2.18" transform="translate(227 596.57) rotate(-76.75)"/><ellipse class="cls-17" cx="490.42" cy="155.06" rx="3.1" ry="2.17" transform="translate(223.5 594.72) rotate(-76.28)"/><ellipse class="cls-18" cx="490.65" cy="155.15" rx="3.11" ry="2.17" transform="translate(220.04 592.85) rotate(-75.82)"/><ellipse class="cls-19" cx="490.89" cy="155.25" rx="3.11" ry="2.17" transform="translate(216.62 590.97) rotate(-75.36)"/><ellipse class="cls-20" cx="491.13" cy="155.35" rx="3.12" ry="2.16" transform="translate(213.24 589.07) rotate(-74.91)"/><ellipse class="cls-21" cx="491.36" cy="155.44" rx="3.13" ry="2.16" transform="translate(209.9 587.16) rotate(-74.45)"/><ellipse class="cls-22" cx="491.6" cy="155.54" rx="3.13" ry="2.16" transform="translate(206.6 585.24) rotate(-74)"/><ellipse class="cls-23" cx="491.84" cy="155.64" rx="3.14" ry="2.15" transform="translate(203.34 583.3) rotate(-73.56)"/><polygon class="cls-11" points="492.89 213.14 488.74 216.96 484.58 215.6 484.58 210.41 488.74 206.59 492.89 207.96 492.89 213.14"/><polygon class="cls-12" points="483.06 209.76 483.06 209.83 484.58 210.45 484.58 210.41 488.73 206.6 487.19 205.97 483.06 209.76"/><polygon class="cls-13" points="482.98 214.93 484.58 215.6 484.58 210.45 483.06 209.83 482.98 214.93"/><polygon class="cls-13" points="492.89 207.96 490.98 207.17 487.22 205.94 487.19 205.97 488.73 206.6 488.74 206.59 492.89 207.96"/><ellipse class="cls-14" cx="488.98" cy="212.27" rx="3.09" ry="2.19" transform="translate(177.36 644.76) rotate(-77.69)"/><ellipse class="cls-15" cx="489.21" cy="212.36" rx="3.09" ry="2.18" transform="translate(173.89 642.48) rotate(-77.22)"/><ellipse class="cls-16" cx="489.45" cy="212.46" rx="3.1" ry="2.18" transform="translate(170.46 640.18) rotate(-76.75)"/><ellipse class="cls-17" cx="489.68" cy="212.56" rx="3.1" ry="2.17" transform="translate(167.08 637.88) rotate(-76.28)"/><ellipse class="cls-18" cx="489.92" cy="212.66" rx="3.11" ry="2.17" transform="translate(163.73 635.56) rotate(-75.82)"/><ellipse class="cls-19" cx="490.16" cy="212.75" rx="3.11" ry="2.17" transform="translate(160.44 633.23) rotate(-75.36)"/><ellipse class="cls-20" cx="490.39" cy="212.85" rx="3.12" ry="2.16" transform="translate(157.18 630.89) rotate(-74.91)"/><ellipse class="cls-21" cx="490.63" cy="212.95" rx="3.13" ry="2.16" transform="translate(153.97 628.54) rotate(-74.45)"/><ellipse class="cls-22" cx="490.87" cy="213.04" rx="3.13" ry="2.16" transform="matrix(0.28, -0.96, 0.96, 0.28, 150.8, 626.19)"/><ellipse class="cls-23" cx="491.1" cy="213.14" rx="3.14" ry="2.15" transform="translate(147.66 623.82) rotate(-73.56)"/><polygon class="cls-5" points="705.45 242.47 683.95 232.47 704.81 219.67 726.45 229.47 705.45 242.47"/><polygon class="cls-13" points="462.98 207.94 458.73 208.84 457.11 209.84 461.51 208.84 461.51 208.84 462.98 207.94 462.98 207.94"/><polygon class="cls-24" points="465.9 218.23 461.51 219.22 457.12 215.02 457.12 209.83 461.51 208.84 465.9 213.04 465.9 218.23"/><polygon class="cls-12" points="467.26 212.2 462.98 207.94 461.51 208.84 465.9 213.04 465.9 213.07 467.26 212.24 467.26 212.2"/><polygon class="cls-13" points="465.9 213.07 465.9 218.22 467.26 217.38 467.26 212.24 465.9 213.07"/><ellipse class="cls-14" cx="460.68" cy="214.47" rx="2.2" ry="3.02"/><ellipse class="cls-15" cx="460.45" cy="214.61" rx="2.2" ry="3.02" transform="translate(-2.3 5) rotate(-0.62)"/><ellipse class="cls-16" cx="460.21" cy="214.76" rx="2.19" ry="3.02" transform="translate(-4.55 10.03) rotate(-1.24)"/><ellipse class="cls-17" cx="459.98" cy="214.9" rx="2.19" ry="3.02" transform="translate(-6.75 15.08) rotate(-1.87)"/><ellipse class="cls-18" cx="459.75" cy="215.04" rx="2.19" ry="3.02" transform="translate(-8.9 20.16) rotate(-2.49)"/><ellipse class="cls-19" cx="459.52" cy="215.19" rx="2.19" ry="3.02" transform="translate(-11 25.25) rotate(-3.11)"/><ellipse class="cls-20" cx="459.29" cy="215.33" rx="2.19" ry="3.02" transform="translate(-13.04 30.35) rotate(-3.73)"/><ellipse class="cls-21" cx="459.06" cy="215.47" rx="2.19" ry="3.02" transform="translate(-15.03 35.48) rotate(-4.35)"/><ellipse class="cls-22" cx="458.82" cy="215.62" rx="2.2" ry="3.02" transform="translate(-16.97 40.61) rotate(-4.98)"/><ellipse class="cls-23" cx="458.59" cy="215.76" rx="2.2" ry="3.02" transform="translate(-18.86 45.76) rotate(-5.6)"/><polygon class="cls-13" points="461.27 148.31 457.02 149.21 455.39 150.21 459.8 149.21 459.8 149.22 461.27 148.31 461.27 148.31"/><polygon class="cls-24" points="464.19 158.6 459.8 159.59 455.41 155.39 455.41 150.2 459.8 149.21 464.19 153.41 464.19 158.6"/><polygon class="cls-12" points="465.55 152.57 461.27 148.31 459.8 149.22 464.19 153.41 464.19 153.44 465.55 152.6 465.55 152.57"/><polygon class="cls-13" points="464.19 153.44 464.19 158.59 465.55 157.75 465.55 152.6 464.19 153.44"/><ellipse class="cls-14" cx="458.97" cy="154.84" rx="2.2" ry="3.02"/><ellipse class="cls-15" cx="458.73" cy="154.98" rx="2.2" ry="3.02" transform="translate(-1.65 4.98) rotate(-0.62)"/><ellipse class="cls-16" cx="458.5" cy="155.13" rx="2.19" ry="3.02" transform="matrix(1, -0.02, 0.02, 1, -3.26, 9.98)"/><ellipse class="cls-17" cx="458.27" cy="155.27" rx="2.19" ry="3.02" transform="translate(-4.81 15) rotate(-1.87)"/><ellipse class="cls-18" cx="458.04" cy="155.41" rx="2.19" ry="3.02" transform="translate(-6.31 20.03) rotate(-2.49)"/><ellipse class="cls-19" cx="457.81" cy="155.56" rx="2.19" ry="3.02" transform="translate(-7.76 25.07) rotate(-3.11)"/><ellipse class="cls-20" cx="457.58" cy="155.7" rx="2.19" ry="3.02" transform="translate(-9.16 30.12) rotate(-3.73)"/><ellipse class="cls-21" cx="457.34" cy="155.84" rx="2.19" ry="3.02" transform="translate(-10.51 35.17) rotate(-4.35)"/><ellipse class="cls-22" cx="457.11" cy="155.99" rx="2.2" ry="3.02" transform="translate(-11.81 40.24) rotate(-4.98)"/><ellipse class="cls-23" cx="456.88" cy="156.13" rx="2.2" ry="3.02" transform="translate(-13.05 45.31) rotate(-5.6)"/><polygon class="cls-13" points="691.09 299.58 686.84 300.48 685.22 301.47 689.62 300.48 689.62 300.48 691.09 299.58 691.09 299.58"/><polygon class="cls-24" points="694.01 309.86 689.62 310.85 685.23 306.65 685.23 301.46 689.62 300.48 694.01 304.67 694.01 309.86"/><polygon class="cls-12" points="695.38 303.84 691.09 299.58 689.62 300.48 694.01 304.67 694.01 304.7 695.38 303.87 695.38 303.84"/><polygon class="cls-13" points="694.01 304.7 694.01 309.85 695.38 309.01 695.38 303.87 694.01 304.7"/><ellipse class="cls-14" cx="688.79" cy="306.1" rx="2.2" ry="3.02"/><ellipse class="cls-15" cx="688.56" cy="306.25" rx="2.2" ry="3.02" transform="translate(-3.28 7.48) rotate(-0.62)"/><ellipse class="cls-16" cx="688.32" cy="306.39" rx="2.19" ry="3.02" transform="translate(-6.48 15) rotate(-1.24)"/><ellipse class="cls-17" cx="688.09" cy="306.53" rx="2.19" ry="3.02" transform="translate(-9.61 22.56) rotate(-1.87)"/><ellipse class="cls-18" cx="687.86" cy="306.68" rx="2.19" ry="3.02" transform="translate(-12.66 30.14) rotate(-2.49)"/><ellipse class="cls-19" cx="687.63" cy="306.82" rx="2.19" ry="3.02" transform="translate(-15.63 37.76) rotate(-3.11)"/><ellipse class="cls-20" cx="687.4" cy="306.96" rx="2.19" ry="3.02" transform="translate(-18.52 45.4) rotate(-3.73)"/><ellipse class="cls-21" cx="687.17" cy="307.11" rx="2.19" ry="3.02" transform="translate(-21.33 53.06) rotate(-4.35)"/><ellipse class="cls-22" cx="686.93" cy="307.25" rx="2.2" ry="3.02" transform="translate(-24.06 60.74) rotate(-4.98)"/><ellipse class="cls-23" cx="686.7" cy="307.39" rx="2.2" ry="3.02" transform="translate(-26.71 68.44) rotate(-5.6)"/><polygon class="cls-13" points="690.88 244.46 686.63 245.36 685 246.35 689.41 245.36 689.41 245.36 690.88 244.46 690.88 244.46"/><polygon class="cls-24" points="693.8 254.74 689.41 255.73 685.02 251.53 685.02 246.35 689.41 245.36 693.8 249.56 693.8 254.74"/><polygon class="cls-12" points="695.16 248.72 690.88 244.46 689.41 245.36 693.8 249.56 693.8 249.59 695.16 248.75 695.16 248.72"/><polygon class="cls-13" points="693.8 249.59 693.8 254.73 695.16 253.89 695.16 248.75 693.8 249.59"/><ellipse class="cls-14" cx="688.57" cy="250.99" rx="2.2" ry="3.02"/><ellipse class="cls-15" cx="688.34" cy="251.13" rx="2.2" ry="3.02" transform="translate(-2.68 7.48) rotate(-0.62)"/><ellipse class="cls-16" cx="688.11" cy="251.27" rx="2.19" ry="3.02" transform="translate(-5.29 14.99) rotate(-1.24)"/><ellipse class="cls-17" cx="687.88" cy="251.42" rx="2.19" ry="3.02" transform="translate(-7.82 22.52) rotate(-1.87)"/><ellipse class="cls-18" cx="687.65" cy="251.56" rx="2.19" ry="3.02" transform="translate(-10.27 30.08) rotate(-2.49)"/><ellipse class="cls-19" cx="687.42" cy="251.7" rx="2.19" ry="3.02" transform="translate(-12.64 37.66) rotate(-3.11)"/><ellipse class="cls-20" cx="687.18" cy="251.85" rx="2.19" ry="3.02" transform="translate(-14.94 45.27) rotate(-3.73)"/><ellipse class="cls-21" cx="686.95" cy="251.99" rx="2.19" ry="3.02" transform="translate(-17.15 52.88) rotate(-4.35)"/><ellipse class="cls-22" cx="686.72" cy="252.13" rx="2.2" ry="3.02" transform="translate(-19.28 60.52) rotate(-4.98)"/><ellipse class="cls-23" cx="686.49" cy="252.28" rx="2.2" ry="3.02" transform="translate(-21.33 68.16) rotate(-5.6)"/><polygon class="cls-11" points="170.01 353.44 165.86 357.26 161.7 355.89 161.7 350.7 165.86 346.88 170.01 348.25 170.01 353.44"/><polygon class="cls-12" points="160.19 350.06 160.18 350.13 161.7 350.75 161.7 350.7 165.85 346.89 164.31 346.26 160.19 350.06"/><polygon class="cls-13" points="160.1 355.22 161.7 355.89 161.7 350.75 160.18 350.13 160.1 355.22"/><polygon class="cls-13" points="170.01 348.25 168.09 347.46 164.34 346.24 164.31 346.26 165.85 346.89 165.86 346.88 170.01 348.25"/><ellipse class="cls-14" cx="166.1" cy="352.56" rx="3.09" ry="2.19" transform="translate(-213.77 439.69) rotate(-77.69)"/><ellipse class="cls-15" cx="166.33" cy="352.66" rx="3.09" ry="2.18" transform="translate(-214.39 436.86) rotate(-77.22)"/><ellipse class="cls-16" cx="166.57" cy="352.76" rx="3.1" ry="2.18" transform="translate(-214.98 434.04) rotate(-76.75)"/><ellipse class="cls-17" cx="166.8" cy="352.85" rx="3.1" ry="2.17" transform="translate(-215.54 431.23) rotate(-76.28)"/><ellipse class="cls-18" cx="167.04" cy="352.95" rx="3.11" ry="2.17" transform="translate(-216.07 428.44) rotate(-75.82)"/><ellipse class="cls-19" cx="167.28" cy="353.05" rx="3.11" ry="2.17" transform="translate(-216.58 425.67) rotate(-75.36)"/><ellipse class="cls-20" cx="167.51" cy="353.14" rx="3.12" ry="2.16" transform="translate(-217.07 422.91) rotate(-74.91)"/><ellipse class="cls-21" cx="167.75" cy="353.24" rx="3.13" ry="2.16" transform="translate(-217.53 420.17) rotate(-74.45)"/><ellipse class="cls-22" cx="167.98" cy="353.34" rx="3.13" ry="2.16" transform="translate(-217.96 417.44) rotate(-74)"/><ellipse class="cls-23" cx="168.22" cy="353.43" rx="3.14" ry="2.15" transform="translate(-218.38 414.73) rotate(-73.56)"/><polygon class="cls-11" points="169.53 410.46 165.38 414.28 161.22 412.92 161.22 407.73 165.38 403.91 169.53 405.27 169.53 410.46"/><polygon class="cls-12" points="159.7 407.08 159.7 407.15 161.22 407.77 161.22 407.73 165.37 403.92 163.83 403.29 159.7 407.08"/><polygon class="cls-13" points="159.62 412.25 161.22 412.92 161.22 407.77 159.7 407.15 159.62 412.25"/><polygon class="cls-13" points="169.53 405.27 167.61 404.49 163.86 403.26 163.83 403.29 165.37 403.92 165.38 403.91 169.53 405.27"/><ellipse class="cls-14" cx="165.61" cy="409.59" rx="3.09" ry="2.19" transform="translate(-269.86 484.09) rotate(-77.69)"/><ellipse class="cls-15" cx="165.85" cy="409.68" rx="3.09" ry="2.18" transform="matrix(0.22, -0.98, 0.98, 0.22, -270.37, 480.8)"/><ellipse class="cls-16" cx="166.09" cy="409.78" rx="3.1" ry="2.18" transform="translate(-270.85 477.52) rotate(-76.75)"/><ellipse class="cls-17" cx="166.32" cy="409.88" rx="3.1" ry="2.17" transform="translate(-271.3 474.27) rotate(-76.28)"/><ellipse class="cls-18" cx="166.56" cy="409.98" rx="3.11" ry="2.17" transform="translate(-271.73 471.03) rotate(-75.82)"/><ellipse class="cls-19" cx="166.8" cy="410.07" rx="3.11" ry="2.17" transform="translate(-272.12 467.82) rotate(-75.36)"/><ellipse class="cls-20" cx="167.03" cy="410.17" rx="3.12" ry="2.16" transform="translate(-272.48 464.62) rotate(-74.91)"/><ellipse class="cls-21" cx="167.27" cy="410.27" rx="3.13" ry="2.16" transform="matrix(0.27, -0.96, 0.96, 0.27, -272.82, 461.45)"/><ellipse class="cls-22" cx="167.5" cy="410.36" rx="3.13" ry="2.16" transform="translate(-273.13 458.29) rotate(-74)"/><ellipse class="cls-23" cx="167.74" cy="410.46" rx="3.14" ry="2.15" transform="translate(-273.41 455.15) rotate(-73.56)"/><polygon class="cls-13" points="461.44 881.7 457.18 882.6 455.56 883.6 459.96 882.6 459.97 882.6 461.44 881.7 461.44 881.7"/><polygon class="cls-24" points="464.36 891.99 459.96 892.97 455.57 888.78 455.57 883.59 459.96 882.6 464.36 886.8 464.36 891.99"/><polygon class="cls-12" points="465.72 885.96 461.44 881.7 459.97 882.6 464.36 886.8 464.36 886.83 465.72 885.99 465.72 885.96"/><polygon class="cls-13" points="464.36 886.83 464.36 891.97 465.72 891.14 465.72 885.99 464.36 886.83"/><ellipse class="cls-14" cx="459.13" cy="888.23" rx="2.2" ry="3.02"/><ellipse class="cls-15" cx="458.9" cy="888.37" rx="2.2" ry="3.02" transform="translate(-9.61 5.03) rotate(-0.62)"/><ellipse class="cls-16" cx="458.67" cy="888.52" rx="2.19" ry="3.02" transform="translate(-19.17 10.16) rotate(-1.24)"/><ellipse class="cls-17" cx="458.44" cy="888.66" rx="2.19" ry="3.02" transform="translate(-28.68 15.39) rotate(-1.87)"/><ellipse class="cls-18" cx="458.21" cy="888.8" rx="2.19" ry="3.02" transform="translate(-38.14 20.72) rotate(-2.49)"/><ellipse class="cls-19" cx="457.97" cy="888.95" rx="2.19" ry="3.02" transform="translate(-47.55 26.15) rotate(-3.11)"/><ellipse class="cls-20" cx="457.74" cy="889.09" rx="2.19" ry="3.02" transform="translate(-56.9 31.68) rotate(-3.73)"/><ellipse class="cls-21" cx="457.51" cy="889.23" rx="2.19" ry="3.02" transform="translate(-66.19 37.3) rotate(-4.35)"/><ellipse class="cls-22" cx="457.28" cy="889.38" rx="2.2" ry="3.02" transform="translate(-75.42 43.02) rotate(-4.98)"/><ellipse class="cls-23" cx="457.05" cy="889.52" rx="2.2" ry="3.02" transform="matrix(1, -0.1, 0.1, 1, -84.58, 48.82)"/><polygon class="cls-13" points="441.32 928.05 437.06 928.95 435.44 929.95 439.84 928.95 439.85 928.96 441.32 928.05 441.32 928.05"/><polygon class="cls-24" points="444.23 938.34 439.84 939.33 435.45 935.13 435.45 929.94 439.84 928.95 444.23 933.15 444.23 938.34"/><polygon class="cls-12" points="445.6 932.31 441.32 928.05 439.85 928.96 444.23 933.15 444.23 933.18 445.6 932.35 445.6 932.31"/><polygon class="cls-13" points="444.23 933.18 444.23 938.33 445.6 937.49 445.6 932.35 444.23 933.18"/><ellipse class="cls-14" cx="439.01" cy="934.58" rx="2.2" ry="3.02"/><ellipse class="cls-15" cx="438.78" cy="934.72" rx="2.2" ry="3.02" transform="translate(-10.11 4.81) rotate(-0.62)"/><ellipse class="cls-16" cx="438.55" cy="934.87" rx="2.19" ry="3.02" transform="translate(-20.18 9.73) rotate(-1.24)"/><ellipse class="cls-17" cx="438.32" cy="935.01" rx="2.19" ry="3.02" transform="translate(-30.2 14.76) rotate(-1.87)"/><ellipse class="cls-18" cx="438.08" cy="935.15" rx="2.19" ry="3.02" transform="translate(-40.17 19.89) rotate(-2.49)"/><ellipse class="cls-19" cx="437.85" cy="935.3" rx="2.19" ry="3.02" transform="matrix(1, -0.05, 0.05, 1, -50.1, 25.13)"/><ellipse class="cls-20" cx="437.62" cy="935.44" rx="2.19" ry="3.02" transform="matrix(1, -0.07, 0.07, 1, -59.96, 30.47)"/><ellipse class="cls-21" cx="437.39" cy="935.59" rx="2.19" ry="3.02" transform="translate(-69.77 35.91) rotate(-4.35)"/><ellipse class="cls-22" cx="437.16" cy="935.73" rx="2.2" ry="3.02" transform="translate(-79.52 41.45) rotate(-4.98)"/><ellipse class="cls-23" cx="436.92" cy="935.87" rx="2.2" ry="3.02" transform="translate(-89.2 47.08) rotate(-5.6)"/><polygon class="cls-13" points="482.66 945.17 478.41 946.07 476.78 947.07 481.19 946.07 481.19 946.07 482.66 945.17 482.66 945.17"/><polygon class="cls-24" points="485.58 955.46 481.19 956.44 476.8 952.25 476.8 947.06 481.19 946.07 485.58 950.27 485.58 955.46"/><polygon class="cls-12" points="486.94 949.43 482.66 945.17 481.19 946.07 485.58 950.27 485.58 950.3 486.94 949.46 486.94 949.43"/><polygon class="cls-13" points="485.58 950.3 485.58 955.44 486.94 954.61 486.94 949.46 485.58 950.3"/><ellipse class="cls-14" cx="480.36" cy="951.7" rx="2.2" ry="3.02"/><ellipse class="cls-15" cx="480.12" cy="951.84" rx="2.2" ry="3.02" transform="translate(-10.29 5.26) rotate(-0.62)"/><ellipse class="cls-16" cx="479.89" cy="951.99" rx="2.19" ry="3.02" transform="matrix(1, -0.02, 0.02, 1, -20.54, 10.63)"/><ellipse class="cls-17" cx="479.66" cy="952.13" rx="2.19" ry="3.02" transform="translate(-30.73 16.12) rotate(-1.87)"/><ellipse class="cls-18" cx="479.43" cy="952.27" rx="2.19" ry="3.02" transform="translate(-40.88 21.7) rotate(-2.49)"/><ellipse class="cls-19" cx="479.2" cy="952.42" rx="2.19" ry="3.02" transform="translate(-50.96 27.4) rotate(-3.11)"/><ellipse class="cls-20" cx="478.97" cy="952.56" rx="2.19" ry="3.02" transform="translate(-60.99 33.2) rotate(-3.73)"/><ellipse class="cls-21" cx="478.73" cy="952.7" rx="2.19" ry="3.02" transform="translate(-70.95 39.1) rotate(-4.35)"/><ellipse class="cls-22" cx="478.5" cy="952.85" rx="2.2" ry="3.02" transform="matrix(1, -0.09, 0.09, 1, -80.85, 45.1)"/><ellipse class="cls-23" cx="478.27" cy="952.99" rx="2.2" ry="3.02" transform="translate(-90.67 51.19) rotate(-5.6)"/><polygon class="cls-13" points="461.44 912.5 457.18 913.4 455.56 914.4 459.96 913.4 459.97 913.4 461.44 912.5 461.44 912.5"/><polygon class="cls-24" points="464.36 922.79 459.96 923.77 455.57 919.58 455.57 914.39 459.96 913.4 464.36 917.6 464.36 922.79"/><polygon class="cls-12" points="465.72 916.76 461.44 912.5 459.97 913.4 464.36 917.6 464.36 917.63 465.72 916.79 465.72 916.76"/><polygon class="cls-13" points="464.36 917.63 464.36 922.77 465.72 921.94 465.72 916.79 464.36 917.63"/><ellipse class="cls-14" cx="459.13" cy="919.03" rx="2.2" ry="3.02"/><ellipse class="cls-15" cx="458.9" cy="919.17" rx="2.2" ry="3.02" transform="translate(-9.94 5.03) rotate(-0.62)"/><ellipse class="cls-16" cx="458.67" cy="919.32" rx="2.19" ry="3.02" transform="translate(-19.83 10.17) rotate(-1.24)"/><ellipse class="cls-17" cx="458.44" cy="919.46" rx="2.19" ry="3.02" transform="translate(-29.68 15.41) rotate(-1.87)"/><ellipse class="cls-18" cx="458.21" cy="919.6" rx="2.19" ry="3.02" transform="translate(-39.48 20.75) rotate(-2.49)"/><ellipse class="cls-19" cx="457.97" cy="919.75" rx="2.19" ry="3.02" transform="translate(-49.22 26.2) rotate(-3.11)"/><ellipse class="cls-20" cx="457.74" cy="919.89" rx="2.19" ry="3.02" transform="translate(-58.91 31.75) rotate(-3.73)"/><ellipse class="cls-21" cx="457.51" cy="920.03" rx="2.19" ry="3.02" transform="translate(-68.53 37.39) rotate(-4.35)"/><ellipse class="cls-22" cx="457.28" cy="920.18" rx="2.2" ry="3.02" transform="translate(-78.09 43.13) rotate(-4.98)"/><ellipse class="cls-23" cx="457.05" cy="920.32" rx="2.2" ry="3.02" transform="translate(-87.59 48.97) rotate(-5.6)"/><polygon class="cls-13" points="690.87 978 686.62 978.9 684.99 979.89 689.4 978.9 689.4 978.9 690.87 978 690.87 978"/><polygon class="cls-24" points="693.79 988.28 689.4 989.27 685.01 985.08 685.01 979.89 689.4 978.9 693.79 983.1 693.79 988.28"/><polygon class="cls-12" points="695.15 982.26 690.87 978 689.4 978.9 693.79 983.1 693.79 983.13 695.15 982.29 695.15 982.26"/><polygon class="cls-13" points="693.79 983.13 693.79 988.27 695.15 987.43 695.15 982.29 693.79 983.13"/><ellipse class="cls-14" cx="688.56" cy="984.53" rx="2.2" ry="3.02"/><ellipse class="cls-15" cx="688.33" cy="984.67" rx="2.2" ry="3.02" transform="translate(-10.64 7.52) rotate(-0.62)"/><ellipse class="cls-16" cx="688.1" cy="984.81" rx="2.19" ry="3.02" transform="translate(-21.2 15.16) rotate(-1.24)"/><ellipse class="cls-17" cx="687.87" cy="984.96" rx="2.19" ry="3.02" transform="translate(-31.69 22.91) rotate(-1.87)"/><ellipse class="cls-18" cx="687.64" cy="985.1" rx="2.19" ry="3.02" transform="translate(-42.11 30.77) rotate(-2.49)"/><ellipse class="cls-19" cx="687.41" cy="985.25" rx="2.19" ry="3.02" transform="translate(-52.44 38.74) rotate(-3.11)"/><ellipse class="cls-20" cx="687.17" cy="985.39" rx="2.19" ry="3.02" transform="matrix(1, -0.07, 0.07, 1, -62.68, 46.82)"/><ellipse class="cls-21" cx="686.94" cy="985.53" rx="2.19" ry="3.02" transform="translate(-72.84 55) rotate(-4.35)"/><ellipse class="cls-22" cx="686.71" cy="985.68" rx="2.2" ry="3.02" transform="translate(-82.91 63.28) rotate(-4.98)"/><ellipse class="cls-23" cx="686.48" cy="985.82" rx="2.2" ry="3.02" transform="translate(-92.88 71.66) rotate(-5.6)"/><polygon class="cls-13" points="670.75 1024.35 666.49 1025.25 664.87 1026.25 669.27 1025.25 669.28 1025.25 670.75 1024.35 670.75 1024.35"/><polygon class="cls-24" points="673.66 1034.64 669.27 1035.63 664.88 1031.43 664.88 1026.24 669.27 1025.25 673.66 1029.45 673.66 1034.64"/><polygon class="cls-12" points="675.03 1028.61 670.75 1024.35 669.28 1025.25 673.66 1029.45 673.66 1029.48 675.03 1028.64 675.03 1028.61"/><polygon class="cls-13" points="673.66 1029.48 673.66 1034.62 675.03 1033.79 675.03 1028.64 673.66 1029.48"/><ellipse class="cls-14" cx="668.44" cy="1030.88" rx="2.2" ry="3.02"/><ellipse class="cls-15" cx="668.21" cy="1031.02" rx="2.2" ry="3.02" transform="translate(-11.14 7.31) rotate(-0.62)"/><ellipse class="cls-16" cx="667.98" cy="1031.17" rx="2.19" ry="3.02" transform="translate(-22.21 14.73) rotate(-1.24)"/><ellipse class="cls-17" cx="667.75" cy="1031.31" rx="2.19" ry="3.02" transform="translate(-33.21 22.28) rotate(-1.87)"/><ellipse class="cls-18" cx="667.52" cy="1031.45" rx="2.19" ry="3.02" transform="translate(-44.14 29.94) rotate(-2.49)"/><ellipse class="cls-19" cx="667.28" cy="1031.6" rx="2.19" ry="3.02" transform="translate(-54.98 37.72) rotate(-3.11)"/><ellipse class="cls-20" cx="667.05" cy="1031.74" rx="2.19" ry="3.02" transform="translate(-65.74 45.61) rotate(-3.73)"/><ellipse class="cls-21" cx="666.82" cy="1031.88" rx="2.19" ry="3.02" transform="translate(-76.42 53.61) rotate(-4.35)"/><ellipse class="cls-22" cx="666.59" cy="1032.03" rx="2.2" ry="3.02" transform="translate(-87.01 61.71) rotate(-4.98)"/><ellipse class="cls-23" cx="666.36" cy="1032.17" rx="2.2" ry="3.02" transform="translate(-97.5 69.92) rotate(-5.6)"/><polygon class="cls-13" points="712.09 1041.47 707.84 1042.37 706.22 1043.36 710.62 1042.37 710.62 1042.37 712.09 1041.47 712.09 1041.47"/><polygon class="cls-24" points="715.01 1051.75 710.62 1052.74 706.23 1048.55 706.23 1043.36 710.62 1042.37 715.01 1046.57 715.01 1051.75"/><polygon class="cls-12" points="716.38 1045.73 712.09 1041.47 710.62 1042.37 715.01 1046.57 715.01 1046.6 716.38 1045.76 716.38 1045.73"/><polygon class="cls-13" points="715.01 1046.6 715.01 1051.74 716.38 1050.9 716.38 1045.76 715.01 1046.6"/><ellipse class="cls-14" cx="709.79" cy="1048" rx="2.2" ry="3.02"/><ellipse class="cls-15" cx="709.56" cy="1048.14" rx="2.2" ry="3.02" transform="translate(-11.32 7.75) rotate(-0.62)"/><ellipse class="cls-16" cx="709.32" cy="1048.28" rx="2.19" ry="3.02" transform="translate(-22.57 15.63) rotate(-1.24)"/><ellipse class="cls-17" cx="709.09" cy="1048.43" rx="2.19" ry="3.02" transform="translate(-33.75 23.63) rotate(-1.87)"/><ellipse class="cls-18" cx="708.86" cy="1048.57" rx="2.19" ry="3.02" transform="translate(-44.84 31.75) rotate(-2.49)"/><ellipse class="cls-19" cx="708.63" cy="1048.71" rx="2.19" ry="3.02" transform="translate(-55.85 39.99) rotate(-3.11)"/><ellipse class="cls-20" cx="708.4" cy="1048.86" rx="2.19" ry="3.02" transform="translate(-66.77 48.34) rotate(-3.73)"/><ellipse class="cls-21" cx="708.17" cy="1049" rx="2.19" ry="3.02" transform="translate(-77.6 56.79) rotate(-4.35)"/><ellipse class="cls-22" cx="707.93" cy="1049.14" rx="2.2" ry="3.02" transform="translate(-88.33 65.36) rotate(-4.98)"/><ellipse class="cls-23" cx="707.7" cy="1049.29" rx="2.2" ry="3.02" transform="translate(-98.97 74.03) rotate(-5.6)"/><polygon class="cls-13" points="690.87 1008.8 686.62 1009.7 684.99 1010.7 689.4 1009.7 689.4 1009.7 690.87 1008.8 690.87 1008.8"/><polygon class="cls-24" points="693.79 1019.09 689.4 1020.07 685.01 1015.88 685.01 1010.69 689.4 1009.7 693.79 1013.9 693.79 1019.09"/><polygon class="cls-12" points="695.15 1013.06 690.87 1008.8 689.4 1009.7 693.79 1013.9 693.79 1013.93 695.15 1013.09 695.15 1013.06"/><polygon class="cls-13" points="693.79 1013.93 693.79 1019.07 695.15 1018.24 695.15 1013.09 693.79 1013.93"/><ellipse class="cls-14" cx="688.56" cy="1015.33" rx="2.2" ry="3.02"/><ellipse class="cls-15" cx="688.33" cy="1015.47" rx="2.2" ry="3.02" transform="matrix(1, -0.01, 0.01, 1, -10.97, 7.52)"/><ellipse class="cls-16" cx="688.1" cy="1015.62" rx="2.19" ry="3.02" transform="translate(-21.87 15.17) rotate(-1.24)"/><ellipse class="cls-17" cx="687.87" cy="1015.76" rx="2.19" ry="3.02" transform="translate(-32.7 22.93) rotate(-1.87)"/><ellipse class="cls-18" cx="687.64" cy="1015.9" rx="2.19" ry="3.02" transform="translate(-43.44 30.8) rotate(-2.49)"/><ellipse class="cls-19" cx="687.41" cy="1016.05" rx="2.19" ry="3.02" transform="translate(-54.11 38.79) rotate(-3.11)"/><ellipse class="cls-20" cx="687.17" cy="1016.19" rx="2.19" ry="3.02" transform="translate(-64.69 46.89) rotate(-3.73)"/><ellipse class="cls-21" cx="686.94" cy="1016.33" rx="2.19" ry="3.02" transform="matrix(1, -0.08, 0.08, 1, -75.18, 55.09)"/><ellipse class="cls-22" cx="686.71" cy="1016.48" rx="2.2" ry="3.02" transform="translate(-85.58 63.4) rotate(-4.98)"/><ellipse class="cls-23" cx="686.48" cy="1016.62" rx="2.2" ry="3.02" transform="translate(-95.88 71.8) rotate(-5.6)"/><path class="cls-13" d="M147.32,350.17c1,5.16-1.18,9.95-5.72,10.87s-9.06-2.53-10.1-7.68,1.8-10.08,6.34-11S146.28,345,147.32,350.17Z"/><ellipse class="cls-25" cx="139.21" cy="351.81" rx="7.87" ry="9.52" transform="translate(-66.74 34.42) rotate(-11.39)"/><polygon class="cls-13" points="139.82 346.62 135.57 347.52 133.95 348.51 138.35 347.52 138.35 347.52 139.82 346.62 139.82 346.62"/><polygon class="cls-26" points="142.74 356.9 138.35 357.89 133.96 353.69 133.96 348.51 138.35 347.52 142.74 351.72 142.74 356.9"/><polygon class="cls-12" points="144.11 350.88 139.82 346.62 138.35 347.52 142.74 351.72 142.74 351.75 144.11 350.91 144.11 350.88"/><polygon class="cls-13" points="142.74 351.75 142.74 356.89 144.11 356.05 144.11 350.91 142.74 351.75"/><path class="cls-13" d="M147.32,407c1,5.16-1.18,10-5.72,10.87s-9.06-2.53-10.1-7.68,1.8-10.08,6.34-11S146.28,401.88,147.32,407Z"/><ellipse class="cls-25" cx="139.21" cy="408.67" rx="7.87" ry="9.52" transform="translate(-77.97 35.54) rotate(-11.39)"/><polygon class="cls-27" points="139.82 403.48 135.57 404.38 133.95 405.37 138.35 404.38 138.35 404.38 139.82 403.48 139.82 403.48"/><polygon class="cls-26" points="142.74 413.76 138.35 414.75 133.96 410.55 133.96 405.37 138.35 404.38 142.74 408.57 142.74 413.76"/><polygon class="cls-10" points="144.11 407.74 139.82 403.48 138.35 404.38 142.74 408.57 142.74 408.61 144.11 407.77 144.11 407.74"/><polygon class="cls-27" points="142.74 408.61 142.74 413.75 144.11 412.91 144.11 407.77 142.74 408.61"/><path class="cls-13" d="M386.08,445.79c-1.21,5.12.85,10,5.36,11s9.14-2.22,10.35-7.34-1.47-10.13-6-11.19S387.29,440.67,386.08,445.79Z"/><ellipse class="cls-28" cx="394.13" cy="447.69" rx="9.52" ry="7.87" transform="matrix(0.23, -0.97, 0.97, 0.23, -132.06, 728.56)"/><polygon class="cls-11" points="399.81 449.72 395.66 453.54 391.5 452.17 391.5 446.99 395.66 443.17 399.81 444.53 399.81 449.72"/><polygon class="cls-12" points="389.98 446.34 389.98 446.41 391.5 447.03 391.5 446.99 395.65 443.17 394.11 442.54 389.98 446.34"/><polygon class="cls-13" points="389.9 451.5 391.5 452.17 391.5 447.03 389.98 446.41 389.9 451.5"/><polygon class="cls-13" points="399.81 444.53 397.89 443.74 394.14 442.52 394.11 442.54 395.65 443.17 395.66 443.17 399.81 444.53"/><path class="cls-13" d="M384.93,500.23c-1.21,5.12.85,10,5.35,11s9.15-2.23,10.36-7.35-1.48-10.12-6-11.19S386.14,495.11,384.93,500.23Z"/><ellipse class="cls-28" cx="392.98" cy="502.13" rx="9.52" ry="7.87" transform="translate(-185.93 769.39) rotate(-76.73)"/><polygon class="cls-11" points="398.66 504.16 394.5 507.98 390.35 506.62 390.35 501.43 394.5 497.61 398.66 498.97 398.66 504.16"/><polygon class="cls-12" points="388.83 500.78 388.83 500.85 390.35 501.47 390.35 501.43 394.5 497.62 392.96 496.99 388.83 500.78"/><polygon class="cls-13" points="388.75 505.94 390.35 506.62 390.35 501.47 388.83 500.85 388.75 505.94"/><polygon class="cls-13" points="398.66 498.97 396.74 498.19 392.99 496.96 392.96 496.99 394.5 497.62 394.5 497.61 398.66 498.97"/><path class="cls-13" d="M708.12,249.44c-1.21,5.12.84,10,5.35,11.05s9.14-2.23,10.35-7.34-1.47-10.13-6-11.2S709.32,244.32,708.12,249.44Z"/><ellipse class="cls-28" cx="716.17" cy="251.34" rx="9.52" ry="7.87" transform="translate(307.18 890.71) rotate(-76.73)"/><polygon class="cls-11" points="721.85 253.37 717.69 257.19 713.53 255.83 713.53 250.64 717.69 246.82 721.85 248.19 721.85 253.37"/><polygon class="cls-12" points="712.02 249.99 712.02 250.06 713.53 250.68 713.53 250.64 717.68 246.83 716.14 246.2 712.02 249.99"/><polygon class="cls-13" points="711.93 255.15 713.53 255.83 713.53 250.68 712.02 250.06 711.93 255.15"/><polygon class="cls-13" points="721.85 248.19 719.93 247.4 716.17 246.17 716.14 246.2 717.68 246.83 717.69 246.82 721.85 248.19"/><path class="cls-13" d="M708.11,305c-1.21,5.12.84,10,5.35,11s9.14-2.22,10.35-7.34-1.47-10.13-6-11.19S709.31,299.91,708.11,305Z"/><ellipse class="cls-28" cx="716.16" cy="306.93" rx="9.52" ry="7.87" transform="translate(253.07 933.53) rotate(-76.73)"/><polygon class="cls-11" points="721.84 308.96 717.68 312.78 713.52 311.41 713.52 306.23 717.68 302.4 721.84 303.77 721.84 308.96"/><polygon class="cls-12" points="712.01 305.58 712.01 305.65 713.52 306.27 713.52 306.23 717.67 302.41 716.13 301.78 712.01 305.58"/><polygon class="cls-13" points="711.92 310.74 713.52 311.41 713.52 306.27 712.01 305.65 711.92 310.74"/><polygon class="cls-13" points="721.84 303.77 719.92 302.98 716.16 301.76 716.13 301.78 717.67 302.41 717.68 302.4 721.84 303.77"/><path class="cls-13" d="M377.19,444.83c1,5.16-1.17,9.95-5.71,10.87s-9.07-2.53-10.1-7.68,1.8-10.08,6.34-11S376.15,439.68,377.19,444.83Z"/><ellipse class="cls-25" cx="369.09" cy="446.46" rx="7.87" ry="9.52" transform="translate(-80.9 81.69) rotate(-11.39)"/><polygon class="cls-27" points="369.7 441.28 365.45 442.18 363.82 443.17 368.23 442.18 368.23 442.18 369.7 441.28 369.7 441.28"/><polygon class="cls-26" points="372.62 451.56 368.23 452.55 363.84 448.35 363.84 443.17 368.23 442.18 372.62 446.37 372.62 451.56"/><polygon class="cls-10" points="373.98 445.54 369.7 441.28 368.23 442.18 372.62 446.37 372.62 446.41 373.98 445.57 373.98 445.54"/><polygon class="cls-27" points="372.62 446.41 372.62 451.55 373.98 450.71 373.98 445.57 372.62 446.41"/><path class="cls-13" d="M379,499.27c1,5.16-1.17,10-5.71,10.87s-9.06-2.52-10.1-7.68,1.8-10.08,6.34-11S378,494.12,379,499.27Z"/><ellipse class="cls-25" cx="370.9" cy="500.91" rx="7.87" ry="9.52" transform="translate(-91.62 83.12) rotate(-11.39)"/><polygon class="cls-27" points="371.51 495.72 367.26 496.62 365.63 497.61 370.04 496.62 370.04 496.62 371.51 495.72 371.51 495.72"/><polygon class="cls-26" points="374.43 506 370.04 506.99 365.65 502.8 365.65 497.61 370.04 496.62 374.43 500.82 374.43 506"/><polygon class="cls-10" points="375.8 499.98 371.51 495.72 370.04 496.62 374.43 500.82 374.43 500.85 375.8 500.01 375.8 499.98"/><polygon class="cls-27" points="374.43 500.85 374.43 505.99 375.8 505.15 375.8 500.01 374.43 500.85"/><path class="cls-13" d="M144.11,1089.85c1,5.15-1.17,10-5.71,10.86s-9.07-2.52-10.11-7.67,1.81-10.08,6.35-11S143.07,1084.69,144.11,1089.85Z"/><ellipse class="cls-25" cx="136.01" cy="1091.48" rx="7.87" ry="9.52" transform="matrix(0.98, -0.2, 0.2, 0.98, -212.88, 48.36)"/><polygon class="cls-27" points="136.62 1086.3 132.37 1087.19 130.74 1088.19 135.15 1087.19 135.15 1087.2 136.62 1086.3 136.62 1086.3"/><polygon class="cls-26" points="139.54 1096.58 135.15 1097.57 130.76 1093.37 130.76 1088.18 135.15 1087.19 139.54 1091.39 139.54 1096.58"/><polygon class="cls-10" points="140.9 1090.55 136.62 1086.3 135.15 1087.2 139.54 1091.39 139.54 1091.42 140.9 1090.59 140.9 1090.55"/><polygon class="cls-27" points="139.54 1091.42 139.54 1096.57 140.9 1095.73 140.9 1090.59 139.54 1091.42"/><path class="cls-13" d="M142.55,1116.62c1,5.16-1.17,10-5.71,10.87s-9.07-2.53-10.1-7.68,1.8-10.08,6.34-11S141.51,1111.47,142.55,1116.62Z"/><ellipse class="cls-25" cx="134.45" cy="1118.25" rx="7.87" ry="9.52" transform="translate(-218.2 48.58) rotate(-11.39)"/><polygon class="cls-27" points="135.06 1113.07 130.81 1113.97 129.18 1114.96 133.59 1113.97 133.59 1113.97 135.06 1113.07 135.06 1113.07"/><polygon class="cls-26" points="137.98 1123.35 133.59 1124.34 129.2 1120.14 129.2 1114.96 133.59 1113.97 137.98 1118.16 137.98 1123.35"/><polygon class="cls-10" points="139.34 1117.33 135.06 1113.07 133.59 1113.97 137.98 1118.16 137.98 1118.2 139.34 1117.36 139.34 1117.33"/><polygon class="cls-27" points="137.98 1118.2 137.98 1123.34 139.34 1122.5 139.34 1117.36 137.98 1118.2"/><path class="cls-13" d="M124.27,1130.41c1,5.15-1.17,9.94-5.72,10.86s-9.06-2.52-10.1-7.68,1.8-10.07,6.34-11S123.23,1125.25,124.27,1130.41Z"/><ellipse class="cls-25" cx="116.16" cy="1132.04" rx="7.87" ry="9.52" transform="translate(-221.28 45.24) rotate(-11.39)"/><polygon class="cls-27" points="116.78 1126.85 112.52 1127.75 110.9 1128.74 115.3 1127.75 115.31 1127.75 116.78 1126.85 116.78 1126.85"/><polygon class="cls-26" points="119.69 1137.13 115.3 1138.12 110.91 1133.93 110.91 1128.74 115.3 1127.75 119.69 1131.95 119.69 1137.13"/><polygon class="cls-10" points="121.06 1131.11 116.78 1126.85 115.31 1127.75 119.69 1131.95 119.69 1131.98 121.06 1131.14 121.06 1131.11"/><polygon class="cls-27" points="119.69 1131.98 119.69 1137.12 121.06 1136.29 121.06 1131.14 119.69 1131.98"/><path class="cls-13" d="M161.88,1146.39c1,5.15-1.17,9.94-5.71,10.86s-9.07-2.52-10.1-7.68,1.8-10.07,6.34-11S160.84,1141.23,161.88,1146.39Z"/><ellipse class="cls-25" cx="153.78" cy="1148.02" rx="7.87" ry="9.52" transform="translate(-223.7 52.98) rotate(-11.39)"/><polygon class="cls-27" points="154.39 1142.83 150.14 1143.73 148.51 1144.73 152.92 1143.73 152.92 1143.73 154.39 1142.83 154.39 1142.83"/><polygon class="cls-26" points="157.31 1153.12 152.92 1154.1 148.53 1149.91 148.53 1144.72 152.92 1143.73 157.31 1147.93 157.31 1153.12"/><polygon class="cls-10" points="158.68 1147.09 154.39 1142.83 152.92 1143.73 157.31 1147.93 157.31 1147.96 158.68 1147.12 158.68 1147.09"/><polygon class="cls-27" points="157.31 1147.96 157.31 1153.1 158.68 1152.27 158.68 1147.12 157.31 1147.96"/><path class="cls-13" d="M374.66,1185.62c1,5.16-1.17,10-5.71,10.87s-9.07-2.53-10.11-7.68,1.81-10.08,6.35-11S373.62,1180.47,374.66,1185.62Z"/><ellipse class="cls-25" cx="366.56" cy="1187.25" rx="7.87" ry="9.52" transform="translate(-227.25 95.78) rotate(-11.39)"/><polygon class="cls-27" points="367.17 1182.07 362.92 1182.97 361.29 1183.96 365.7 1182.97 365.7 1182.97 367.17 1182.07 367.17 1182.07"/><polygon class="cls-26" points="370.09 1192.35 365.7 1193.34 361.31 1189.14 361.31 1183.95 365.7 1182.97 370.09 1187.16 370.09 1192.35"/><polygon class="cls-10" points="371.45 1186.33 367.17 1182.07 365.7 1182.97 370.09 1187.16 370.09 1187.2 371.45 1186.36 371.45 1186.33"/><polygon class="cls-27" points="370.09 1187.2 370.09 1192.34 371.45 1191.5 371.45 1186.36 370.09 1187.2"/><path class="cls-13" d="M373.1,1212.39c1,5.16-1.17,9.95-5.71,10.87s-9.07-2.52-10.1-7.68,1.8-10.08,6.34-11S372.06,1207.24,373.1,1212.39Z"/><ellipse class="cls-25" cx="365" cy="1214.03" rx="7.87" ry="9.52" transform="matrix(0.98, -0.2, 0.2, 0.98, -232.57, 96)"/><polygon class="cls-27" points="365.61 1208.84 361.36 1209.74 359.73 1210.73 364.14 1209.74 364.14 1209.74 365.61 1208.84 365.61 1208.84"/><polygon class="cls-26" points="368.53 1219.12 364.14 1220.11 359.75 1215.91 359.75 1210.73 364.14 1209.74 368.53 1213.94 368.53 1219.12"/><polygon class="cls-10" points="369.89 1213.1 365.61 1208.84 364.14 1209.74 368.53 1213.94 368.53 1213.97 369.89 1213.13 369.89 1213.1"/><polygon class="cls-27" points="368.53 1213.97 368.53 1219.11 369.89 1218.27 369.89 1213.13 368.53 1213.97"/><path class="cls-13" d="M354.82,1226.18c1,5.15-1.17,10-5.72,10.86s-9.06-2.52-10.1-7.68,1.8-10.07,6.34-11S353.78,1221,354.82,1226.18Z"/><ellipse class="cls-25" cx="346.71" cy="1227.81" rx="7.87" ry="9.52" transform="translate(-235.65 92.66) rotate(-11.39)"/><polygon class="cls-27" points="347.33 1222.62 343.07 1223.52 341.45 1224.52 345.85 1223.52 345.86 1223.53 347.33 1222.62 347.33 1222.62"/><polygon class="cls-26" points="350.24 1232.91 345.85 1233.89 341.46 1229.7 341.46 1224.51 345.85 1223.52 350.24 1227.72 350.24 1232.91"/><polygon class="cls-10" points="351.61 1226.88 347.33 1222.62 345.86 1223.53 350.24 1227.72 350.24 1227.75 351.61 1226.91 351.61 1226.88"/><polygon class="cls-27" points="350.24 1227.75 350.24 1232.89 351.61 1232.06 351.61 1226.91 350.24 1227.75"/><path class="cls-13" d="M392.43,1242.16c1,5.15-1.17,9.95-5.71,10.86s-9.07-2.52-10.1-7.68,1.8-10.07,6.34-11S391.39,1237,392.43,1242.16Z"/><ellipse class="cls-25" cx="384.33" cy="1243.79" rx="7.87" ry="9.52" transform="translate(-238.07 100.4) rotate(-11.39)"/><polygon class="cls-27" points="384.94 1238.6 380.69 1239.5 379.06 1240.5 383.47 1239.5 383.47 1239.51 384.94 1238.6 384.94 1238.6"/><polygon class="cls-26" points="387.86 1248.89 383.47 1249.88 379.08 1245.68 379.08 1240.49 383.47 1239.5 387.86 1243.7 387.86 1248.89"/><polygon class="cls-10" points="389.22 1242.86 384.94 1238.6 383.47 1239.51 387.86 1243.7 387.86 1243.73 389.22 1242.89 389.22 1242.86"/><polygon class="cls-27" points="387.86 1243.73 387.86 1248.87 389.22 1248.04 389.22 1242.89 387.86 1243.73"/><g id="Layer_2-2" data-name="Layer 2"><g id="Layer_1-2" data-name="Layer 1-2"><path class="cls-29" d="M37,101.09l4.48,13.79H56L44.3,123.4l4.48,13.78-11.69-8.52-11.68,8.52L29.9,123.4l-11.69-8.52H32.54Z"/><path class="cls-29" d="M95.54,0,100,14.7h14.51l-11.69,9.09,4.48,14.71L95.63,29.42,84,38.5l4.48-14.71L76.75,14.7H91.06Z"/><path class="cls-29" d="M120.81,50.55l3,9.18h9.66l-7.81,5.72,3,9.19L120.81,69,113,74.63l3-9.18-7.82-5.68h9.67Z"/><path class="cls-29" d="M123.47,141l10.75,33.1H169l-28.16,20.44,10.75,33.1-28.14-20.46L95.33,227.63l10.74-33.1-28.14-20.4h34.79Z"/><path class="cls-29" d="M30.39,236.76l7.16,22.07H60.77L42,272.46l7.12,22.05L30.39,280.88l-18.8,13.63,7.18-22.05L0,258.83H23.2Z"/><path class="cls-29" d="M853.71,42.56l-4.47,12.86H834.75l11.68,8L842,76.23l11.68-8,11.69,8-4.47-12.85,11.68-8H858.05Z"/><path class="cls-29" d="M773.92,79.81l-9.87,30.33H732.17L758,128.84l-9.85,30.32,25.81-18.7,25.79,18.7-9.85-30.32,25.8-18.7H783.77Z"/><path class="cls-29" d="M860.38,167.6l-6.58,20.22H832.54l17.2,12.49-6.57,20.22L860.38,208l17.19,12.5L871,200.31l17.2-12.49H866.94Z"/></g></g></g></svg>