<svg xmlns="http://www.w3.org/2000/svg" viewBox="0 0 845.29 965.63"><defs><style>.cls-1{fill:#ffb522;opacity:0.27;}.cls-2{fill:#424242;}.cls-3{fill:#606060;}.cls-4{fill:#898989;}.cls-5{fill:none;}.cls-6{fill:#545454;}.cls-26,.cls-7{fill:#7f7f7f;}.cls-8{fill:#6b6b6b;}.cls-9{fill:#9b9a9b;}.cls-10{fill:#303030;}.cls-11{fill:#515151;}.cls-12{fill:#fff;}.cls-13{fill:#7a7a7a;}.cls-14{fill:#999;}.cls-15,.cls-16{fill:#8e8e8e;}.cls-16,.cls-17,.cls-18,.cls-19,.cls-20,.cls-21,.cls-22,.cls-23,.cls-24,.cls-25,.cls-26{stroke:#fff;stroke-miterlimit:10;}.cls-16,.cls-17,.cls-18,.cls-19,.cls-20,.cls-21,.cls-22,.cls-23,.cls-24,.cls-25{stroke-width:0.05px;}.cls-17{fill:#919191;}.cls-18{fill:#949494;}.cls-19{fill:#979697;}.cls-20{fill:#9a999a;}.cls-21{fill:#9c9c9c;}.cls-22{fill:#9f9f9f;}.cls-23{fill:#a2a1a2;}.cls-24{fill:#a5a4a5;}.cls-25{fill:#a8a7a8;}.cls-26{stroke-width:0.05px;}.cls-27{fill:#c92d2d;}</style></defs><g id="Layer_2" data-name="Layer 2"><circle class="cls-1" cx="655.25" cy="775.59" r="190.04"/><path class="cls-2" d="M695.87,793.2,18.74,379.14.7,393.32l675.92,412.8Zm-13.75,3.69a6.06,6.06,0,0,1-5.84,0c-1.65-1-1.71-2.63-.13-3.61a6.11,6.11,0,0,1,5.84,0C683.64,794.29,683.7,795.91,682.12,796.89Zm-16.93-10.34a6.13,6.13,0,0,1-5.85,0c-1.65-1-1.71-2.63-.13-3.61a6.06,6.06,0,0,1,5.84,0C666.7,784,666.76,785.56,665.19,786.55ZM648.25,776.2a6.06,6.06,0,0,1-5.84,0c-1.65-1-1.71-2.62-.14-3.61a6.09,6.09,0,0,1,5.84,0C649.76,773.6,649.83,775.22,648.25,776.2Zm-16.94-10.34a6,6,0,0,1-5.83,0c-1.65-1-1.72-2.62-.14-3.61a6,6,0,0,1,5.83,0C632.82,763.25,632.89,764.87,631.31,765.86Zm-16.93-10.34a6.09,6.09,0,0,1-5.84,0c-1.65-1-1.71-2.63-.14-3.62a6.07,6.07,0,0,1,5.83,0C615.88,752.91,616,754.53,614.38,755.52Zm-16.94-10.35a6.07,6.07,0,0,1-5.83,0c-1.65-1-1.72-2.63-.15-3.62a6.07,6.07,0,0,1,5.83,0C598.94,742.56,599,744.18,597.44,745.17ZM580.5,734.83a6,6,0,0,1-5.83,0c-1.65-1-1.71-2.62-.15-3.61a6,6,0,0,1,5.83,0C582,732.22,582.07,733.84,580.5,734.83ZM531,704.58a6,6,0,0,1-5.82,0c-1.65-1-1.72-2.63-.16-3.62a6,6,0,0,1,5.82,0C532.47,702,532.54,703.59,531,704.58ZM502,681.45l3.23-2.06,12.82,7.83-3.24,2.06ZM20.61,392.88a5.79,5.79,0,0,1,5.73,0c1.65,1,1.76,2.66.24,3.68a5.74,5.74,0,0,1-5.73,0C19.2,395.55,19.09,393.91,20.61,392.88Zm26.47,16.17a5.77,5.77,0,0,1,5.73,0c1.66,1,1.76,2.65.25,3.67a5.81,5.81,0,0,1-5.74,0C45.67,411.72,45.56,410.07,47.08,409.05ZM63.3,419a5.79,5.79,0,0,1,5.74,0c1.65,1,1.76,2.65.24,3.67a5.79,5.79,0,0,1-5.74,0C61.89,421.62,61.79,420,63.3,419Zm20.19,12.33a5.81,5.81,0,0,1,5.75,0c1.65,1,1.75,2.65.23,3.67a5.79,5.79,0,0,1-5.74,0C82.08,434,82,432.31,83.49,431.29Zm44.15,27a5.83,5.83,0,0,1,5.75,0c1.66,1,1.76,2.65.23,3.66a5.81,5.81,0,0,1-5.75,0C126.22,460.91,126.12,459.27,127.64,458.25Zm44.15,27a5.83,5.83,0,0,1,5.76,0c1.65,1,1.75,2.64.22,3.66a5.83,5.83,0,0,1-5.75,0C170.37,487.87,170.27,486.23,171.79,485.22Zm44.15,27a5.9,5.9,0,0,1,5.77,0c1.65,1,1.75,2.65.21,3.66a5.85,5.85,0,0,1-5.76,0C214.51,514.83,214.41,513.19,215.94,512.18Zm44.15,27a5.92,5.92,0,0,1,5.78,0c1.65,1,1.74,2.65.2,3.66a5.9,5.9,0,0,1-5.77,0C258.65,541.79,258.56,540.15,260.09,539.15Zm44.15,27a5.91,5.91,0,0,1,5.79,0c1.65,1,1.73,2.64.19,3.65a5.92,5.92,0,0,1-5.78,0C302.79,568.75,302.7,567.12,304.24,566.11Zm44.15,27a5.94,5.94,0,0,1,5.79,0c1.65,1,1.74,2.64.19,3.64a5.94,5.94,0,0,1-5.79,0C346.93,595.71,346.85,594.08,348.39,593.07Zm44.15,27a5.93,5.93,0,0,1,5.8,0c1.65,1,1.73,2.64.18,3.64a5.94,5.94,0,0,1-5.79,0C391.08,622.67,391,621,392.54,620Zm44.15,27a6,6,0,0,1,5.81,0c1.65,1,1.73,2.63.17,3.63a6,6,0,0,1-5.8,0C435.22,649.62,435.14,648,436.69,647Zm44.15,27a6,6,0,0,1,5.82,0c1.65,1,1.72,2.63.16,3.62a6,6,0,0,1-5.81,0C479.36,676.58,479.29,675,480.84,674ZM493.3,687l9,.64.25-.16.4-.26,3.37-2.15,2.45,1.5-5.25,3.35a2.21,2.21,0,0,0-.37.27c-.72.63-.81,1.38-.14,1.79a3.31,3.31,0,0,0,2.85-.13,2.6,2.6,0,0,0,.44-.23l5.25-3.35,2.45,1.5-5.25,3.34-.4.26h0c-2.86,1.64-6.64,2-8.67.75-1.65-1-1.63-2.78-.17-4.39l-9.46-.66Z"/><path class="cls-3" d="M676.62,806.12.7,393.32,0,417.49,676.53,830Zm-659-390.19c-.11-2,1.15-2.74,2.8-1.74a7.49,7.49,0,0,1,3.17,5.38c.1,2-1.16,2.74-2.8,1.74A7.49,7.49,0,0,1,17.58,415.93Zm14,8.57c-.1-2,1.15-2.74,2.8-1.74a7.49,7.49,0,0,1,3.17,5.38c.1,2-1.16,2.74-2.8,1.74A7.49,7.49,0,0,1,31.61,424.5Zm14,8.56c-.1-2,1.15-2.74,2.8-1.73a7.49,7.49,0,0,1,3.17,5.38c.1,2-1.16,2.74-2.81,1.73A7.47,7.47,0,0,1,45.64,433.06Zm14,8.57c-.1-2,1.15-2.74,2.8-1.73a7.49,7.49,0,0,1,3.17,5.38c.1,2-1.16,2.74-2.81,1.73A7.49,7.49,0,0,1,59.67,441.63Zm14,8.57c-.1-2,1.16-2.74,2.8-1.73a7.49,7.49,0,0,1,3.17,5.38c.1,2-1.16,2.74-2.81,1.73A7.46,7.46,0,0,1,73.7,450.2Zm14,8.57c-.1-2,1.16-2.74,2.81-1.73a7.48,7.48,0,0,1,3.16,5.38c.1,2-1.16,2.74-2.81,1.73A7.48,7.48,0,0,1,87.73,458.77Zm14,8.57c-.1-2,1.16-2.74,2.81-1.73a7.48,7.48,0,0,1,3.16,5.38c.1,2-1.16,2.73-2.81,1.73A7.48,7.48,0,0,1,101.76,467.34Zm14,8.57c-.1-2,1.16-2.74,2.81-1.73a7.43,7.43,0,0,1,3.16,5.38c.1,2-1.16,2.73-2.81,1.73A7.48,7.48,0,0,1,115.79,475.91Zm14,8.57c-.1-2,1.16-2.74,2.81-1.73a7.43,7.43,0,0,1,3.16,5.38c.1,2-1.16,2.73-2.81,1.72A7.44,7.44,0,0,1,129.82,484.48Zm14,8.57c-.09-2,1.16-2.74,2.81-1.73a7.43,7.43,0,0,1,3.16,5.37c.1,2-1.16,2.74-2.81,1.73A7.46,7.46,0,0,1,143.85,493.05Zm14.51,8.86c-.1-2,1.16-2.74,2.81-1.73a7.46,7.46,0,0,1,3.16,5.37c.09,2-1.16,2.74-2.81,1.73A7.43,7.43,0,0,1,158.36,501.91Zm7.65,4.67c-.09-2,1.17-2.73,2.82-1.72a7.44,7.44,0,0,1,3.16,5.37c.09,2-1.17,2.73-2.82,1.73A7.51,7.51,0,0,1,166,506.58Zm7.66,4.68c-.09-2,1.17-2.73,2.82-1.73a7.48,7.48,0,0,1,3.16,5.38c.09,2-1.17,2.73-2.82,1.72A7.44,7.44,0,0,1,173.67,511.26Zm7.66,4.68c-.09-2,1.17-2.74,2.82-1.73a7.42,7.42,0,0,1,3.15,5.38c.1,2-1.16,2.73-2.81,1.72A7.46,7.46,0,0,1,181.33,515.94Zm7.66,4.67c-.09-2,1.17-2.73,2.82-1.72a7.45,7.45,0,0,1,3.15,5.37c.1,2-1.16,2.74-2.81,1.73A7.46,7.46,0,0,1,189,520.61Zm7.66,4.68c-.1-2,1.17-2.73,2.81-1.72a7.41,7.41,0,0,1,3.16,5.37c.1,2-1.16,2.73-2.81,1.73A7.45,7.45,0,0,1,196.65,525.29Zm7.66,4.68c-.1-2,1.16-2.73,2.81-1.73a7.45,7.45,0,0,1,3.16,5.38c.09,2-1.17,2.73-2.82,1.72A7.45,7.45,0,0,1,204.31,530Zm7.66,4.68c-.1-2,1.16-2.74,2.81-1.73a7.43,7.43,0,0,1,3.16,5.37c.09,2-1.17,2.74-2.82,1.73A7.42,7.42,0,0,1,212,534.65Zm7.66,4.67c-.1-2,1.16-2.73,2.81-1.72A7.46,7.46,0,0,1,225.6,543c.09,2-1.17,2.73-2.82,1.73A7.44,7.44,0,0,1,219.63,539.32Zm7.65,4.68c-.09-2,1.17-2.73,2.82-1.72a7.44,7.44,0,0,1,3.16,5.37c.09,2-1.17,2.73-2.82,1.72A7.44,7.44,0,0,1,227.28,544Zm7.66,4.68c-.09-2,1.17-2.73,2.82-1.73a7.48,7.48,0,0,1,3.16,5.38c.09,2-1.17,2.73-2.82,1.72A7.46,7.46,0,0,1,234.94,548.68Zm7.66,4.68c-.09-2,1.17-2.74,2.82-1.73a7.42,7.42,0,0,1,3.15,5.37c.1,2-1.17,2.73-2.81,1.73A7.43,7.43,0,0,1,242.6,553.36Zm7.66,4.67c-.09-2,1.17-2.73,2.82-1.72a7.42,7.42,0,0,1,3.15,5.37c.09,2-1.17,2.73-2.82,1.72A7.4,7.4,0,0,1,250.26,558Zm7.66,4.68c-.09-2,1.17-2.73,2.82-1.72a7.4,7.4,0,0,1,3.15,5.37c.09,2-1.17,2.73-2.82,1.72A7.42,7.42,0,0,1,257.92,562.71Zm7.66,4.68c-.09-2,1.17-2.73,2.82-1.72a7.4,7.4,0,0,1,3.15,5.37c.09,2-1.17,2.73-2.82,1.72A7.42,7.42,0,0,1,265.58,567.39Zm7.66,4.68c-.1-2,1.17-2.73,2.82-1.73a7.42,7.42,0,0,1,3.15,5.37c.09,2-1.17,2.73-2.82,1.73A7.44,7.44,0,0,1,273.24,572.07Zm7.65,4.67c-.09-2,1.18-2.73,2.83-1.72a7.45,7.45,0,0,1,3.15,5.37c.09,2-1.17,2.73-2.82,1.72A7.44,7.44,0,0,1,280.89,576.74Zm7.66,4.68c-.09-2,1.18-2.73,2.82-1.72a7.46,7.46,0,0,1,3.16,5.37c.09,2-1.18,2.73-2.83,1.72A7.42,7.42,0,0,1,288.55,581.42Zm7.66,4.68c-.09-2,1.17-2.73,2.82-1.72a7.4,7.4,0,0,1,3.15,5.37c.09,2-1.17,2.72-2.82,1.72A7.42,7.42,0,0,1,296.21,586.1Zm7.66,4.68c-.09-2,1.17-2.73,2.82-1.73a7.42,7.42,0,0,1,3.15,5.37c.09,2-1.17,2.73-2.82,1.72A7.4,7.4,0,0,1,303.87,590.78Zm7.66,4.67c-.09-2,1.17-2.73,2.82-1.72a7.42,7.42,0,0,1,3.15,5.37c.09,2-1.17,2.73-2.82,1.72A7.42,7.42,0,0,1,311.53,595.45Zm15.11,9.23c-.08-1.95,1.18-2.72,2.83-1.72a7.42,7.42,0,0,1,3.15,5.37c.09,2-1.18,2.73-2.83,1.72A7.42,7.42,0,0,1,326.64,604.68Zm15.12,9.24c-.09-2,1.18-2.73,2.83-1.72a7.39,7.39,0,0,1,3.14,5.36c.09,2-1.17,2.73-2.82,1.72A7.4,7.4,0,0,1,341.76,613.92Zm15.12,9.23c-.09-2,1.17-2.73,2.82-1.72a7.42,7.42,0,0,1,3.15,5.37c.09,2-1.18,2.72-2.83,1.71A7.39,7.39,0,0,1,356.88,623.15ZM372,632.38c-.09-2,1.18-2.73,2.83-1.72A7.42,7.42,0,0,1,378,636c.08,2-1.18,2.72-2.83,1.71A7.38,7.38,0,0,1,372,632.38Zm15.12,9.23c-.09-2,1.18-2.72,2.83-1.72a7.41,7.41,0,0,1,3.14,5.37c.09,2-1.18,2.72-2.83,1.72A7.41,7.41,0,0,1,387.11,641.61Zm15.11,9.23c-.08-2,1.18-2.72,2.83-1.71a7.38,7.38,0,0,1,3.15,5.36c.08,2-1.18,2.72-2.83,1.72A7.42,7.42,0,0,1,402.22,650.84Zm15.12,9.23c-.09-2,1.18-2.72,2.83-1.71a7.37,7.37,0,0,1,3.14,5.36c.09,2-1.18,2.73-2.83,1.72A7.41,7.41,0,0,1,417.34,660.07Zm15.12,9.24c-.09-2,1.18-2.73,2.83-1.72a7.4,7.4,0,0,1,3.14,5.36c.08,2-1.18,2.73-2.83,1.72A7.37,7.37,0,0,1,432.46,669.31Zm15.11,9.23c-.08-2,1.18-2.72,2.83-1.72a7.37,7.37,0,0,1,3.14,5.37c.09,1.95-1.18,2.72-2.83,1.71A7.4,7.4,0,0,1,447.57,678.54Zm15.12,9.23c-.09-1.95,1.18-2.72,2.83-1.72a7.37,7.37,0,0,1,3.14,5.37c.08,2-1.18,2.72-2.83,1.71A7.37,7.37,0,0,1,462.69,687.77ZM477.8,697c-.08-2,1.19-2.72,2.84-1.71a7.39,7.39,0,0,1,3.14,5.36c.08,2-1.19,2.72-2.84,1.71A7.37,7.37,0,0,1,477.8,697Zm15.12,9.23c-.08-2,1.19-2.72,2.84-1.71a7.39,7.39,0,0,1,3.13,5.36c.09,2-1.18,2.72-2.83,1.71A7.34,7.34,0,0,1,492.92,706.23ZM508,715.46c-.09-2,1.18-2.72,2.83-1.71a7.37,7.37,0,0,1,3.14,5.36c.08,2-1.19,2.72-2.84,1.71A7.32,7.32,0,0,1,508,715.46Zm15.11,9.24c-.08-2,1.19-2.72,2.84-1.72a7.36,7.36,0,0,1,3.13,5.36c.09,2-1.18,2.72-2.83,1.72A7.37,7.37,0,0,1,523.15,724.7Zm15.12,9.23c-.08-1.95,1.19-2.72,2.84-1.71a7.32,7.32,0,0,1,3.13,5.36c.08,1.95-1.19,2.71-2.84,1.71A7.36,7.36,0,0,1,538.27,733.93Zm15.11,9.23c-.08-1.95,1.19-2.72,2.84-1.71a7.4,7.4,0,0,1,3.14,5.36c.08,2-1.19,2.72-2.84,1.71A7.37,7.37,0,0,1,553.38,743.16Zm15.12,9.23c-.08-1.95,1.19-2.72,2.84-1.71a7.36,7.36,0,0,1,3.13,5.36c.08,2-1.19,2.72-2.84,1.71A7.36,7.36,0,0,1,568.5,752.39Zm15.11,9.23c-.07-2,1.2-2.71,2.85-1.71a7.36,7.36,0,0,1,3.13,5.36c.08,2-1.2,2.72-2.84,1.71A7.37,7.37,0,0,1,583.61,761.62Zm15.12,9.24c-.08-2,1.19-2.72,2.84-1.71a7.32,7.32,0,0,1,3.13,5.35c.08,2-1.19,2.72-2.84,1.71A7.34,7.34,0,0,1,598.73,770.86Zm15.12,9.23c-.08-2,1.19-2.72,2.84-1.71a7.34,7.34,0,0,1,3.13,5.35c.08,1.95-1.2,2.72-2.84,1.71A7.34,7.34,0,0,1,613.85,780.09ZM629,789.32c-.08-2,1.2-2.72,2.85-1.71a7.36,7.36,0,0,1,3.13,5.36c.07,1.95-1.2,2.71-2.85,1.7A7.32,7.32,0,0,1,629,789.32Zm15.12,9.23c-.08-1.95,1.2-2.71,2.84-1.71a7.36,7.36,0,0,1,3.13,5.36c.08,1.95-1.2,2.71-2.85,1.7A7.34,7.34,0,0,1,644.08,798.55Zm15.11,9.23c-.07-1.95,1.2-2.71,2.85-1.7a7.32,7.32,0,0,1,3.13,5.35c.07,2-1.2,2.71-2.85,1.71A7.36,7.36,0,0,1,659.19,807.78Z"/><polygon class="cls-4" points="676.62 806.12 695.87 793.2 695.91 816.73 676.53 829.97 676.62 806.12"/><path class="cls-2" d="M697.11,413.79,19.57,0,.77,13.71l676.6,413.22Zm-14.24,3.91a6.06,6.06,0,0,1-5.84,0c-1.65-1-1.71-2.62-.14-3.61a6.13,6.13,0,0,1,5.85,0C684.39,415.1,684.45,416.72,682.87,417.7Zm-16.93-10.34a6.13,6.13,0,0,1-5.85,0c-1.65-1-1.71-2.63-.13-3.61a6.06,6.06,0,0,1,5.84,0C667.45,404.76,667.51,406.37,665.94,407.36ZM649,397a6.06,6.06,0,0,1-5.84,0c-1.65-1-1.71-2.62-.14-3.61a6.09,6.09,0,0,1,5.84,0C650.51,394.41,650.57,396,649,397Zm-16.94-10.34a6.06,6.06,0,0,1-5.84,0c-1.65-1-1.71-2.62-.14-3.61a6.06,6.06,0,0,1,5.84,0C633.57,384.07,633.63,385.68,632.06,386.67Zm-16.94-10.34a6.07,6.07,0,0,1-5.83,0c-1.65-1-1.71-2.63-.14-3.61a6,6,0,0,1,5.83,0C616.63,373.72,616.7,375.34,615.12,376.33ZM598.19,366a6,6,0,0,1-5.83,0c-1.65-1-1.72-2.63-.15-3.62a6,6,0,0,1,5.83,0C599.69,363.37,599.76,365,598.19,366Zm-16.94-10.34a6.07,6.07,0,0,1-5.83,0c-1.65-1-1.72-2.63-.15-3.62a6,6,0,0,1,5.83,0C582.75,353,582.82,354.65,581.25,355.64Zm-49.53-30.25a6,6,0,0,1-5.82,0c-1.65-1-1.72-2.63-.16-3.62a6,6,0,0,1,5.82,0C533.21,322.77,533.28,324.4,531.72,325.39Zm-28.93-23.13L506,300.2,518.83,308l-3.23,2.06ZM21.35,13.69a5.77,5.77,0,0,1,5.73,0c1.66,1,1.77,2.65.25,3.67a5.74,5.74,0,0,1-5.73,0C20,16.36,19.84,14.72,21.35,13.69ZM47.83,29.86a5.77,5.77,0,0,1,5.73,0c1.65,1,1.76,2.65.24,3.67a5.79,5.79,0,0,1-5.73,0C46.42,32.53,46.31,30.88,47.83,29.86Zm16.22,9.91a5.79,5.79,0,0,1,5.74,0c1.65,1,1.76,2.65.24,3.67a5.79,5.79,0,0,1-5.74,0C62.64,42.44,62.53,40.79,64.05,39.77ZM84.24,52.1a5.79,5.79,0,0,1,5.74,0c1.66,1,1.76,2.65.24,3.67a5.79,5.79,0,0,1-5.74,0C82.83,54.76,82.72,53.12,84.24,52.1Zm44.15,27a5.83,5.83,0,0,1,5.75,0c1.65,1,1.76,2.65.23,3.67a5.83,5.83,0,0,1-5.75,0C127,81.72,126.87,80.08,128.39,79.06Zm44.15,27a5.83,5.83,0,0,1,5.76,0c1.65,1,1.75,2.65.22,3.66a5.85,5.85,0,0,1-5.76,0C171.11,108.68,171,107,172.54,106Zm44.15,27a5.87,5.87,0,0,1,5.77,0c1.65,1,1.74,2.64.21,3.65a5.85,5.85,0,0,1-5.76,0C215.26,135.64,215.16,134,216.69,133Zm44.15,27a5.92,5.92,0,0,1,5.78,0c1.65,1,1.74,2.65.2,3.66a5.87,5.87,0,0,1-5.77,0C259.4,162.6,259.31,161,260.84,160Zm44.15,27a5.89,5.89,0,0,1,5.78,0c1.65,1,1.74,2.64.2,3.65a5.92,5.92,0,0,1-5.78,0C303.54,189.56,303.45,187.93,305,186.92Zm44.15,27a5.94,5.94,0,0,1,5.79,0c1.65,1,1.74,2.64.19,3.64a5.94,5.94,0,0,1-5.79,0C347.68,216.52,347.6,214.89,349.14,213.88Zm44.15,27a6,6,0,0,1,5.8,0c1.65,1,1.73,2.64.18,3.64a6,6,0,0,1-5.8,0C391.82,243.48,391.74,241.85,393.29,240.85Zm44.15,27a6,6,0,0,1,5.81,0c1.65,1,1.73,2.63.17,3.63a6,6,0,0,1-5.8,0C436,270.44,435.89,268.81,437.44,267.81Zm44.15,27a6,6,0,0,1,5.81,0c1.66,1,1.73,2.63.17,3.63a6,6,0,0,1-5.81,0C480.11,297.39,480,295.77,481.59,294.77Zm12.46,13.07,9,.63.26-.16.4-.26,3.36-2.14,2.46,1.49-5.25,3.35a2.24,2.24,0,0,0-.37.28c-.72.62-.81,1.37-.15,1.78a3.3,3.3,0,0,0,2.86-.13,2.3,2.3,0,0,0,.44-.23l5.25-3.35,2.45,1.5-5.25,3.34-.4.26h0c-2.86,1.64-6.65,2-8.67.75-1.65-1-1.63-2.78-.17-4.39l-9.46-.66Z"/><path class="cls-3" d="M677.37,426.93.77,13.71l0,24.23L677.52,451.63ZM18.32,36.74c-.1-2,1.16-2.74,2.81-1.74a7.52,7.52,0,0,1,3.17,5.38c.1,2-1.16,2.74-2.81,1.74A7.49,7.49,0,0,1,18.32,36.74Zm14,8.57c-.1-2,1.16-2.74,2.81-1.74A7.49,7.49,0,0,1,38.33,49c.1,2-1.16,2.74-2.81,1.74A7.52,7.52,0,0,1,32.35,45.31Zm14,8.57c-.1-2,1.16-2.74,2.81-1.74a7.49,7.49,0,0,1,3.17,5.38c.1,2-1.16,2.74-2.81,1.73A7.48,7.48,0,0,1,46.38,53.88Zm14,8.56c-.1-2,1.15-2.73,2.8-1.73a7.49,7.49,0,0,1,3.17,5.38c.1,2-1.16,2.74-2.81,1.73A7.44,7.44,0,0,1,60.42,62.44Zm14,8.57c-.1-2,1.15-2.74,2.8-1.73a7.49,7.49,0,0,1,3.17,5.38c.1,2-1.16,2.74-2.81,1.73A7.46,7.46,0,0,1,74.45,71Zm14,8.57c-.1-2,1.16-2.74,2.8-1.73a7.49,7.49,0,0,1,3.17,5.38c.1,2-1.16,2.74-2.81,1.73A7.48,7.48,0,0,1,88.48,79.58Zm14,8.57c-.1-2,1.16-2.74,2.81-1.73a7.48,7.48,0,0,1,3.16,5.38c.1,2-1.16,2.74-2.81,1.73A7.48,7.48,0,0,1,102.51,88.15Zm14,8.57c-.1-2,1.16-2.74,2.81-1.73a7.48,7.48,0,0,1,3.16,5.38c.1,2-1.16,2.73-2.81,1.73A7.48,7.48,0,0,1,116.54,96.72Zm14,8.57c-.1-2,1.16-2.74,2.81-1.73a7.46,7.46,0,0,1,3.16,5.38c.1,2-1.16,2.73-2.81,1.72A7.44,7.44,0,0,1,130.57,105.29Zm14,8.57c-.1-2,1.16-2.74,2.81-1.73a7.43,7.43,0,0,1,3.16,5.38c.1,2-1.16,2.73-2.81,1.72A7.44,7.44,0,0,1,144.6,113.86Zm14.5,8.86c-.09-2,1.17-2.74,2.82-1.73a7.46,7.46,0,0,1,3.16,5.37c.09,2-1.17,2.74-2.82,1.73A7.49,7.49,0,0,1,159.1,122.72Zm7.66,4.67c-.09-2,1.17-2.73,2.82-1.72a7.44,7.44,0,0,1,3.16,5.37c.09,2-1.17,2.73-2.82,1.73A7.48,7.48,0,0,1,166.76,127.39Zm7.66,4.68c-.09-2,1.17-2.73,2.82-1.73a7.47,7.47,0,0,1,3.15,5.38c.1,2-1.16,2.73-2.81,1.72A7.44,7.44,0,0,1,174.42,132.07Zm7.66,4.68c-.1-2,1.16-2.74,2.81-1.73a7.45,7.45,0,0,1,3.16,5.38c.1,2-1.16,2.73-2.81,1.72A7.46,7.46,0,0,1,182.08,136.75Zm7.66,4.68c-.1-2,1.16-2.74,2.81-1.73a7.43,7.43,0,0,1,3.16,5.37c.1,2-1.16,2.74-2.81,1.73A7.43,7.43,0,0,1,189.74,141.43Zm7.66,4.67c-.1-2,1.16-2.73,2.81-1.72a7.41,7.41,0,0,1,3.16,5.37c.09,2-1.17,2.73-2.82,1.73A7.47,7.47,0,0,1,197.4,146.1Zm7.66,4.68c-.1-2,1.16-2.73,2.81-1.73a7.48,7.48,0,0,1,3.16,5.38c.09,2-1.17,2.73-2.82,1.72A7.4,7.4,0,0,1,205.06,150.78Zm7.65,4.68c-.09-2,1.17-2.73,2.82-1.73a7.48,7.48,0,0,1,3.16,5.38c.09,2-1.17,2.73-2.82,1.72A7.46,7.46,0,0,1,212.71,155.46Zm7.66,4.67c-.09-1.95,1.17-2.73,2.82-1.72a7.46,7.46,0,0,1,3.16,5.37c.09,2-1.17,2.73-2.82,1.73A7.48,7.48,0,0,1,220.37,160.13Zm7.66,4.68c-.09-2,1.17-2.73,2.82-1.72a7.42,7.42,0,0,1,3.15,5.37c.1,2-1.16,2.73-2.81,1.72A7.44,7.44,0,0,1,228,164.81Zm7.66,4.68c-.09-2,1.17-2.73,2.82-1.72a7.4,7.4,0,0,1,3.15,5.37c.1,2-1.17,2.73-2.81,1.72A7.43,7.43,0,0,1,235.69,169.49Zm7.66,4.68c-.09-2,1.17-2.73,2.82-1.73a7.44,7.44,0,0,1,3.15,5.37c.09,2-1.17,2.74-2.82,1.73A7.42,7.42,0,0,1,243.35,174.17Zm7.66,4.67c-.09-2,1.17-2.73,2.82-1.72a7.42,7.42,0,0,1,3.15,5.37c.09,2-1.17,2.73-2.82,1.73A7.44,7.44,0,0,1,251,178.84Zm7.66,4.68c-.1-2,1.17-2.73,2.82-1.72a7.42,7.42,0,0,1,3.15,5.37c.09,2-1.17,2.73-2.82,1.72A7.4,7.4,0,0,1,258.67,183.52Zm7.66,4.68c-.1-2,1.17-2.73,2.81-1.72a7.41,7.41,0,0,1,3.16,5.37c.09,2-1.17,2.73-2.82,1.72A7.42,7.42,0,0,1,266.33,188.2Zm7.65,4.68c-.09-2,1.17-2.73,2.82-1.73a7.48,7.48,0,0,1,3.16,5.37c.09,2-1.18,2.73-2.82,1.73A7.48,7.48,0,0,1,274,192.88Zm7.66,4.67c-.09-2,1.17-2.73,2.82-1.72a7.42,7.42,0,0,1,3.15,5.37c.1,2-1.17,2.73-2.82,1.72A7.4,7.4,0,0,1,281.64,197.55Zm7.66,4.68c-.09-2,1.17-2.73,2.82-1.72a7.42,7.42,0,0,1,3.15,5.37c.09,2-1.17,2.73-2.82,1.72A7.42,7.42,0,0,1,289.3,202.23Zm7.66,4.68c-.09-2,1.17-2.73,2.82-1.72a7.4,7.4,0,0,1,3.15,5.37c.09,1.95-1.17,2.72-2.82,1.72A7.42,7.42,0,0,1,297,206.91Zm7.66,4.68c-.09-2,1.17-2.73,2.82-1.73a7.44,7.44,0,0,1,3.15,5.37c.09,2-1.17,2.73-2.82,1.72A7.4,7.4,0,0,1,304.62,211.59Zm7.66,4.67c-.09-1.95,1.17-2.73,2.82-1.72a7.42,7.42,0,0,1,3.15,5.37c.09,2-1.17,2.73-2.82,1.72A7.42,7.42,0,0,1,312.28,216.26Zm15.11,9.23c-.09-2,1.18-2.72,2.83-1.72a7.44,7.44,0,0,1,3.15,5.37c.08,2-1.18,2.73-2.83,1.72A7.4,7.4,0,0,1,327.39,225.49Zm15.12,9.24c-.09-2,1.17-2.73,2.82-1.72a7.4,7.4,0,0,1,3.15,5.36c.09,2-1.17,2.73-2.82,1.72A7.4,7.4,0,0,1,342.51,234.73ZM357.62,244c-.08-2,1.18-2.73,2.83-1.72a7.42,7.42,0,0,1,3.15,5.37c.09,1.95-1.18,2.72-2.83,1.71A7.4,7.4,0,0,1,357.62,244Zm15.12,9.23c-.09-2,1.18-2.73,2.83-1.72a7.37,7.37,0,0,1,3.14,5.37c.09,2-1.18,2.72-2.82,1.72A7.42,7.42,0,0,1,372.74,253.19Zm15.12,9.23c-.09-1.95,1.18-2.72,2.82-1.72a7.42,7.42,0,0,1,3.15,5.37c.09,2-1.18,2.72-2.83,1.72A7.37,7.37,0,0,1,387.86,262.42ZM403,271.65c-.08-1.95,1.18-2.72,2.83-1.71a7.35,7.35,0,0,1,3.14,5.36c.09,2-1.18,2.73-2.82,1.72A7.42,7.42,0,0,1,403,271.65Zm15.12,9.24c-.09-2,1.18-2.73,2.83-1.72a7.4,7.4,0,0,1,3.14,5.36c.09,2-1.18,2.73-2.83,1.72A7.37,7.37,0,0,1,418.09,280.89Zm15.11,9.23c-.08-2,1.19-2.73,2.84-1.72a7.44,7.44,0,0,1,3.14,5.36c.08,2-1.19,2.73-2.83,1.72A7.42,7.42,0,0,1,433.2,290.12Zm15.12,9.23c-.09-2,1.18-2.72,2.83-1.72a7.37,7.37,0,0,1,3.14,5.37c.09,1.95-1.18,2.72-2.83,1.71A7.37,7.37,0,0,1,448.32,299.35Zm15.12,9.23c-.09-1.95,1.18-2.72,2.83-1.71a7.37,7.37,0,0,1,3.14,5.36c.08,1.95-1.19,2.72-2.84,1.71A7.37,7.37,0,0,1,463.44,308.58Zm15.11,9.23c-.08-1.95,1.19-2.72,2.84-1.71a7.36,7.36,0,0,1,3.13,5.36c.09,2-1.18,2.72-2.83,1.71A7.37,7.37,0,0,1,478.55,317.81ZM493.67,327c-.09-2,1.18-2.72,2.83-1.71a7.37,7.37,0,0,1,3.14,5.36c.08,1.95-1.19,2.72-2.84,1.71A7.36,7.36,0,0,1,493.67,327Zm15.11,9.24c-.08-2,1.19-2.72,2.84-1.72a7.4,7.4,0,0,1,3.14,5.36c.08,2-1.19,2.72-2.84,1.72A7.4,7.4,0,0,1,508.78,336.28Zm15.12,9.23c-.08-2,1.19-2.72,2.84-1.71a7.32,7.32,0,0,1,3.13,5.35c.08,2-1.19,2.72-2.84,1.72A7.36,7.36,0,0,1,523.9,345.51ZM539,354.74c-.09-1.95,1.18-2.72,2.83-1.71a7.34,7.34,0,0,1,3.14,5.36c.08,1.95-1.19,2.71-2.84,1.71A7.36,7.36,0,0,1,539,354.74ZM554.13,364c-.08-2,1.19-2.72,2.84-1.71a7.36,7.36,0,0,1,3.13,5.36c.08,1.95-1.19,2.72-2.84,1.71A7.36,7.36,0,0,1,554.13,364Zm15.12,9.23c-.08-1.95,1.19-2.72,2.84-1.71a7.36,7.36,0,0,1,3.13,5.36c.08,1.95-1.19,2.72-2.84,1.71A7.36,7.36,0,0,1,569.25,373.2Zm15.11,9.23c-.08-1.95,1.2-2.71,2.84-1.71a7.37,7.37,0,0,1,3.14,5.36c.07,1.95-1.2,2.72-2.85,1.71A7.34,7.34,0,0,1,584.36,382.43Zm15.12,9.24c-.08-2,1.19-2.72,2.84-1.71a7.32,7.32,0,0,1,3.13,5.35c.08,1.95-1.19,2.72-2.84,1.71A7.34,7.34,0,0,1,599.48,391.67Zm15.11,9.23c-.07-1.95,1.2-2.72,2.85-1.71a7.34,7.34,0,0,1,3.13,5.36c.08,1.95-1.2,2.71-2.85,1.7A7.32,7.32,0,0,1,614.59,400.9Zm15.12,9.23c-.08-1.95,1.2-2.72,2.85-1.71a7.35,7.35,0,0,1,3.12,5.36c.08,2-1.19,2.71-2.84,1.7A7.32,7.32,0,0,1,629.71,410.13Zm15.12,9.23c-.08-1.95,1.19-2.71,2.84-1.71A7.36,7.36,0,0,1,650.8,423c.08,1.95-1.2,2.71-2.85,1.71A7.32,7.32,0,0,1,644.83,419.36Zm15.11,9.23c-.07-1.95,1.2-2.71,2.85-1.7a7.28,7.28,0,0,1,3.12,5.35c.08,1.95-1.19,2.71-2.84,1.71A7.36,7.36,0,0,1,659.94,428.59Z"/><polygon class="cls-4" points="677.37 426.93 697.11 413.79 697.19 438.17 677.51 451.63 677.37 426.93"/><polygon class="cls-3" points="695.87 793.2 676.62 806.12 676.62 801.64 696 788.87 695.87 793.2"/><polygon class="cls-5" points="586.47 793.28 590.48 802.4 586.48 793.29 586.47 793.28 586.47 793.28"/><polygon class="cls-6" points="586.47 793.28 586.47 793.28 586.47 793.28 586.48 793.29 590.54 792.65 580.35 790.73 575.86 791.44 575.9 791.45 575.9 791.44 586.47 793.28"/><path class="cls-7" d="M592.27,806.61l0-.07-1.82-4.14-4-9.12-10.57-1.84-4.75,11.42L577,816.12,587.55,818v0h0ZM584,813.43c-.11,0-.22,0-.33,0l-.37.1c-3,.55-6.19-3-7.08-7.86s.83-9.3,3.85-9.86c.12,0,.25,0,.37,0a1.92,1.92,0,0,1,.32-.09c2.64-.49,5.51,3.09,6.4,8S586.68,813,584,813.43Z"/><polygon class="cls-7" points="586.47 793.28 575.9 791.44 575.9 791.45 586.47 793.28 586.47 793.28"/><polygon class="cls-8" points="590.54 792.65 586.48 793.29 590.48 802.4 592.3 806.54 592.27 806.61 596.04 806.02 596.07 805.95 590.54 792.65"/><polygon class="cls-8" points="592.27 806.61 592.27 806.61 592.3 806.54 590.48 802.4 592.3 806.54 592.27 806.61"/><polygon class="cls-6" points="587.56 817.93 591.33 817.34 596.04 806.02 592.27 806.61 587.56 817.93"/><rect class="cls-6" x="583.78" y="812.27" width="12.26" transform="translate(-386.57 1045.23) rotate(-67.43)"/><path class="cls-9" d="M577.65,805.45c-.86-4.69.41-8.88,2.83-9.64-.12,0-.25,0-.37,0-3,.56-4.75,5-3.85,9.86s4.06,8.41,7.08,7.86l.37-.1C581.17,813.6,578.5,810.13,577.65,805.45Z"/><polygon class="cls-10" points="607.5 759.43 636.59 777.19 636.02 756.6 623.14 748.73 607.5 759.43"/><path class="cls-10" d="M696,788.87l-23.27-14.22-.06-324.81-19.22-11.23.26,348.83v.2l22.92,14Zm-37.63-5.19Z"/><path class="cls-11" d="M676.63,801.65l-22.92-14L654.45,442l23,14.07,19.7-13.44v-4.48l-19.67,13.46-69.26-42.3v4.47L633.12,429l-.75,345.63L607.5,759.43v4.47l69.13,42.22Zm-36.82-358.3c0-1.72,1.34-2.31,3-1.3a6.62,6.62,0,0,1,3,4.95c0,1.73-1.35,2.3-3,1.3A6.54,6.54,0,0,1,639.81,443.35Zm0,16.25c0-1.72,1.35-2.31,3-1.29a6.55,6.55,0,0,1,3,4.94c0,1.73-1.35,2.32-3,1.31A6.56,6.56,0,0,1,639.77,459.6Zm0,16.26c0-1.73,1.35-2.31,3-1.3a6.55,6.55,0,0,1,3,4.95c0,1.73-1.34,2.31-3,1.3A6.51,6.51,0,0,1,639.74,475.86Zm0,16.26c0-1.73,1.35-2.31,3-1.31a6.57,6.57,0,0,1,3,5c0,1.72-1.34,2.31-3,1.3A6.58,6.58,0,0,1,639.7,492.12Zm0,16.26c0-1.73,1.34-2.32,3-1.32a6.55,6.55,0,0,1,3,5c0,1.71-1.35,2.3-3,1.29A6.52,6.52,0,0,1,639.67,508.38Zm0,16.25c0-1.73,1.34-2.31,3-1.3a6.58,6.58,0,0,1,3,4.95c0,1.72-1.35,2.3-3,1.3A6.55,6.55,0,0,1,639.63,524.63Zm0,16.25c0-1.73,1.35-2.31,3-1.3a6.56,6.56,0,0,1,3,4.95c0,1.73-1.34,2.31-3,1.3A6.62,6.62,0,0,1,639.59,540.88Zm0,16.26c0-1.74,1.34-2.31,3-1.3a6.5,6.5,0,0,1,3,4.95c0,1.72-1.34,2.31-3,1.29A6.55,6.55,0,0,1,639.56,557.14Zm0,16.25c0-1.73,1.35-2.31,3-1.3a6.56,6.56,0,0,1,3,4.95c0,1.72-1.35,2.31-3,1.3A6.56,6.56,0,0,1,639.52,573.39Zm0,16.26c0-1.73,1.34-2.31,3-1.31a6.58,6.58,0,0,1,3,5c0,1.72-1.35,2.3-3,1.3A6.58,6.58,0,0,1,639.49,589.65Zm0,16.25c0-1.73,1.34-2.31,3-1.3a6.55,6.55,0,0,1,3,4.95c0,1.73-1.35,2.3-3,1.3A6.52,6.52,0,0,1,639.46,605.9Zm0,16.25c0-1.72,1.34-2.31,3-1.29a6.56,6.56,0,0,1,3,4.94c0,1.74-1.34,2.31-3,1.3A6.53,6.53,0,0,1,639.42,622.15Zm0,16.26c0-1.73,1.34-2.31,3-1.3a6.58,6.58,0,0,1,3,4.95c0,1.73-1.34,2.31-3,1.29A6.53,6.53,0,0,1,639.38,638.41Zm0,16.25c0-1.72,1.35-2.3,3-1.3a6.55,6.55,0,0,1,3,4.95c0,1.73-1.34,2.31-3,1.3A6.54,6.54,0,0,1,639.35,654.66Zm0,16.25c0-1.71,1.35-2.3,3-1.29a6.53,6.53,0,0,1,3,4.94c0,1.73-1.34,2.31-3,1.31A6.58,6.58,0,0,1,639.31,670.91Zm0,16.26c0-1.72,1.34-2.31,3-1.3a6.62,6.62,0,0,1,3,5c0,1.73-1.35,2.31-3,1.3A6.54,6.54,0,0,1,639.28,687.17Zm0,16.26c0-1.73,1.34-2.31,3-1.3a6.55,6.55,0,0,1,3,4.94c0,1.74-1.35,2.32-3,1.31A6.55,6.55,0,0,1,639.24,703.43Zm0,16.25c0-1.73,1.34-2.31,3-1.3a6.56,6.56,0,0,1,3,5c0,1.73-1.34,2.32-3,1.3A6.51,6.51,0,0,1,639.21,719.68Zm0,16.26c0-1.73,1.35-2.31,3-1.31a6.57,6.57,0,0,1,3,5c0,1.72-1.34,2.31-3,1.3A6.58,6.58,0,0,1,639.17,735.94Zm0,16.25c0-1.72,1.35-2.31,3-1.3a6.51,6.51,0,0,1,3,5c0,1.73-1.34,2.31-3,1.31A6.59,6.59,0,0,1,639.13,752.19Zm0,16.26c0-1.73,1.34-2.31,3-1.3a6.54,6.54,0,0,1,3,5c0,1.72-1.34,2.3-3,1.3A6.55,6.55,0,0,1,639.1,768.45Z"/><ellipse class="cls-12" cx="678.53" cy="790.53" rx="2.67" ry="4.15" transform="translate(-128.49 1449.35) rotate(-88.59)"/><ellipse class="cls-12" cx="626.74" cy="761.36" rx="2.67" ry="4.15" transform="translate(-149.86 1369.13) rotate(-88.59)"/><polygon class="cls-8" points="498.52 962.76 498.08 938.22 492.88 937.2 650.58 819.16 673.53 832.99 673.36 808.52 673.36 808.52 650.25 793.89 475.59 924.48 486.52 936.93 495 965.11 498.52 962.76"/><polygon class="cls-3" points="673.53 832.99 676.74 830.82 676.59 806.13 673.36 808.52 673.53 832.99 673.53 832.99"/><polygon class="cls-11" points="629.82 781.94 612.51 795.91 604.66 791.11 604.1 766.23 629.82 781.94"/><path class="cls-2" d="M498.08,938.22l-22.49-13.74,174.85-130,22.92,14,3.23-2.39-69.13-42.22-3.22,2.4,24.87,15.18-174.86,130-24.86-15.19-3.23,2.4,68.7,42ZM622.27,797a5.11,5.11,0,0,1,5.25.14c1.65,1,2,2.58.73,3.51a5.14,5.14,0,0,1-5.25-.15C621.35,799.47,621,797.9,622.27,797Zm-11.93,8.87c1.24-.93,3.59-.86,5.24.14s2,2.58.73,3.51a5.14,5.14,0,0,1-5.25-.15C609.41,808.34,609.09,806.78,610.34,805.85Zm-11.94,8.87c1.25-.93,3.59-.86,5.24.15s2,2.57.73,3.5-3.59.86-5.24-.15S597.15,815.65,598.4,814.72Zm-11.94,8.87c1.25-.93,3.6-.86,5.25.15s2,2.57.73,3.5-3.6.86-5.25-.15S585.22,824.52,586.46,823.59Zm-11.93,8.87c1.24-.92,3.59-.86,5.24.15s2,2.57.73,3.5-3.6.86-5.24-.14S573.28,833.39,574.53,832.46Zm-11.94,8.87a5.14,5.14,0,0,1,5.25.15c1.65,1,2,2.58.72,3.5s-3.59.87-5.24-.14S561.34,842.26,562.59,841.33Zm-11.94,8.88a5.11,5.11,0,0,1,5.25.14c1.65,1,2,2.58.73,3.51a5.14,5.14,0,0,1-5.25-.15C549.73,852.7,549.41,851.13,550.65,850.21Zm-11.93,8.87c1.24-.93,3.59-.86,5.24.14s2,2.58.73,3.51a5.12,5.12,0,0,1-5.24-.15C537.8,861.57,537.47,860,538.72,859.08ZM526.78,868c1.25-.93,3.6-.86,5.25.15s2,2.57.73,3.5-3.6.86-5.25-.15S525.53,868.88,526.78,868Zm-11.94,8.87c1.25-.93,3.6-.86,5.25.15s2,2.57.73,3.5-3.6.86-5.25-.15S513.6,877.75,514.84,876.82Zm-11.93,8.87a5.12,5.12,0,0,1,5.24.15c1.65,1,2,2.57.73,3.5s-3.59.86-5.24-.14S501.66,886.62,502.91,885.69ZM491,894.57a5.11,5.11,0,0,1,5.25.14c1.65,1,2,2.58.73,3.5a5.11,5.11,0,0,1-5.25-.14C490.05,897.06,489.73,895.49,491,894.57ZM479,903.44c1.24-.93,3.59-.86,5.24.14s2,2.58.73,3.51a5.14,5.14,0,0,1-5.25-.15C478.12,905.93,477.79,904.36,479,903.44Z"/><ellipse class="cls-12" cx="663.24" cy="814.62" rx="2.89" ry="4.4" transform="translate(-327.69 465.98) rotate(-31.46)"/><ellipse class="cls-12" cx="614.38" cy="784.78" rx="2.89" ry="4.4" transform="translate(-319.3 436.08) rotate(-31.46)"/><polygon class="cls-13" points="630.96 764.83 632.41 760.74 632.4 758.83 630.96 763.11 630.95 763.11 630.96 764.83 630.96 764.83"/><polygon class="cls-14" points="620.66 761.96 622.1 757.7 627.98 756.14 632.4 758.85 630.96 763.11 625.09 764.67 620.66 761.96"/><polygon class="cls-15" points="625.09 766.27 630.96 764.83 630.95 763.11 625.09 764.67 625.06 764.65 625.06 766.25 625.09 766.27"/><polygon class="cls-13" points="625.06 764.65 620.67 761.97 620.67 763.57 625.06 766.25 625.06 764.65"/><ellipse class="cls-16" cx="626.59" cy="759.46" rx="2.2" ry="3.02" transform="translate(-348.15 898.37) rotate(-58.59)"/><ellipse class="cls-17" cx="626.59" cy="759.19" rx="2.2" ry="3.02" transform="translate(-346.35 908.79) rotate(-59.21)"/><ellipse class="cls-18" cx="626.58" cy="758.92" rx="2.19" ry="3.02" transform="translate(-344.43 919.21) rotate(-59.83)"/><ellipse class="cls-19" cx="626.58" cy="758.65" rx="2.19" ry="3.02" transform="translate(-342.4 929.6) rotate(-60.45)"/><ellipse class="cls-20" cx="626.58" cy="758.37" rx="2.19" ry="3.02" transform="translate(-340.25 939.97) rotate(-61.07)"/><ellipse class="cls-21" cx="626.58" cy="758.1" rx="2.19" ry="3.02" transform="translate(-337.98 950.32) rotate(-61.7)"/><ellipse class="cls-22" cx="626.58" cy="757.83" rx="2.19" ry="3.02" transform="translate(-335.59 960.64) rotate(-62.32)"/><ellipse class="cls-23" cx="626.58" cy="757.56" rx="2.19" ry="3.02" transform="translate(-333.09 970.92) rotate(-62.94)"/><ellipse class="cls-24" cx="626.57" cy="757.28" rx="2.2" ry="3.02" transform="translate(-330.48 981.17) rotate(-63.56)"/><ellipse class="cls-25" cx="626.57" cy="757.01" rx="2.2" ry="3.02" transform="translate(-327.75 991.38) rotate(-64.18)"/><polygon class="cls-13" points="682.74 794.45 684.19 790.35 684.19 788.45 682.74 792.73 682.74 792.73 682.74 794.45 682.74 794.45"/><polygon class="cls-14" points="672.44 791.58 673.89 787.32 679.76 785.76 684.18 788.47 682.74 792.73 676.87 794.29 672.44 791.58"/><polygon class="cls-15" points="676.87 795.89 682.74 794.45 682.74 792.73 676.87 794.29 676.84 794.27 676.84 795.87 676.87 795.89"/><polygon class="cls-13" points="676.84 794.27 672.45 791.59 672.46 793.19 676.84 795.87 676.84 794.27"/><ellipse class="cls-16" cx="678.37" cy="789.08" rx="2.2" ry="3.02" transform="translate(-348.63 956.74) rotate(-58.59)"/><ellipse class="cls-17" cx="678.37" cy="788.81" rx="2.2" ry="3.02" transform="translate(-346.52 967.73) rotate(-59.21)"/><ellipse class="cls-18" cx="678.37" cy="788.54" rx="2.19" ry="3.02" transform="translate(-344.28 978.71) rotate(-59.83)"/><ellipse class="cls-19" cx="678.37" cy="788.27" rx="2.19" ry="3.02" transform="translate(-341.92 989.66) rotate(-60.45)"/><ellipse class="cls-20" cx="678.36" cy="787.99" rx="2.19" ry="3.02" transform="translate(-339.44 1000.59) rotate(-61.07)"/><ellipse class="cls-21" cx="678.36" cy="787.72" rx="2.19" ry="3.02" transform="translate(-336.83 1011.49) rotate(-61.7)"/><ellipse class="cls-22" cx="678.36" cy="787.45" rx="2.19" ry="3.02" transform="translate(-334.1 1022.35) rotate(-62.32)"/><ellipse class="cls-23" cx="678.36" cy="787.18" rx="2.19" ry="3.02" transform="translate(-331.24 1033.18) rotate(-62.94)"/><ellipse class="cls-24" cx="678.36" cy="786.9" rx="2.2" ry="3.02" transform="translate(-328.27 1043.97) rotate(-63.56)"/><ellipse class="cls-25" cx="678.36" cy="786.63" rx="2.2" ry="3.02" transform="translate(-325.18 1054.71) rotate(-64.18)"/><path class="cls-13" d="M674.1,421.3c-4.94-1.8-7.88-6.18-6.29-10.53s6.88-6.43,11.82-4.63,7.66,6.79,6.07,11.15S679,423.1,674.1,421.3Z"/><ellipse class="cls-9" cx="676.94" cy="413.53" rx="7.87" ry="9.52" transform="translate(56.61 907.96) rotate(-69.98)"/><polygon class="cls-13" points="681.04 416.76 682.49 412.66 682.49 410.76 681.04 415.04 681.04 415.04 681.04 416.76 681.04 416.76"/><polygon class="cls-7" points="670.75 413.89 672.19 409.63 678.06 408.07 682.49 410.78 681.04 415.04 675.17 416.6 670.75 413.89"/><polygon class="cls-15" points="675.17 418.2 681.04 416.76 681.04 415.04 675.17 416.6 675.14 416.58 675.15 418.18 675.17 418.2"/><polygon class="cls-13" points="675.14 416.58 670.75 413.9 670.76 415.5 675.15 418.18 675.14 416.58"/><path class="cls-13" d="M625.58,391.67c-4.94-1.8-7.88-6.19-6.29-10.54s6.87-6.42,11.81-4.62,7.66,6.79,6.08,11.14S630.52,393.47,625.58,391.67Z"/><ellipse class="cls-9" cx="628.41" cy="383.9" rx="7.87" ry="9.52" transform="translate(52.55 842.88) rotate(-69.98)"/><polygon class="cls-6" points="632.51 387.13 633.97 383.03 633.96 381.12 632.52 385.4 632.51 385.4 632.51 387.13 632.51 387.13"/><polygon class="cls-7" points="622.22 384.26 623.66 380 629.53 378.44 633.96 381.14 632.52 385.4 626.65 386.96 622.22 384.26"/><polygon class="cls-8" points="626.65 388.56 632.51 387.13 632.51 385.4 626.65 386.96 626.62 386.94 626.62 388.55 626.65 388.56"/><polygon class="cls-6" points="626.62 386.94 622.23 384.26 622.23 385.86 626.62 388.55 626.62 386.94"/><path class="cls-13" d="M696.82,729c-3.63-7.63-9.81-11.79-14.63-8.78l-.27.2c4.51-2.51,10.92,1.36,14.47,8.84S699.31,745,695,748l.3-.15C700.14,744.81,700.44,736.6,696.82,729Z"/><path class="cls-9" d="M680,739.46c3.63,7.63,10.23,11.52,14.75,8.7L695,748C690.22,750.66,683.58,746.94,680,739.46Z"/><path class="cls-9" d="M681.92,720.39c-.09.05-.18.08-.27.14-4.53,2.82-5.25,11.3-1.63,18.93C676.47,732,677.34,723.55,681.92,720.39Z"/><path class="cls-9" d="M696.39,729.23c-3.55-7.48-10-11.35-14.47-8.84-4.58,3.16-5.45,11.59-1.9,19.07s10.2,11.2,15,8.51C699.31,745,700,736.71,696.39,729.23ZM691.8,741.9c-2.48,1.54-6.09-.59-8.07-4.76s-1.58-8.81.89-10.35,6.08.59,8.06,4.76S694.27,740.35,691.8,741.9Z"/><polygon class="cls-5" points="746.34 678.8 754.52 682.87 746.35 678.8 746.34 678.8 746.34 678.8"/><polygon class="cls-6" points="746.34 678.8 746.34 678.8 746.34 678.8 746.35 678.8 748.65 675.81 740.74 680.78 738.19 684.09 738.22 684.07 738.21 684.07 746.34 678.8"/><path class="cls-7" d="M758.26,684.79l0-.07-3.72-1.85-8.18-4.07-8.13,5.27L742,695.25l11.9,5.91L762,695.9v0h0Z"/><polygon class="cls-7" points="746.34 678.8 738.21 684.07 738.22 684.07 746.34 678.8 746.34 678.8"/><polygon class="cls-7" points="748.65 675.81 746.35 678.8 754.52 682.87 758.24 684.72 758.26 684.79 760.4 682.01 760.38 681.94 748.65 675.81"/><polygon class="cls-8" points="758.26 684.79 758.26 684.79 758.24 684.72 754.52 682.87 758.24 684.72 758.26 684.79"/><polygon class="cls-6" points="762 695.87 764.14 693.1 760.4 682.01 758.26 684.79 762 695.87"/><polygon class="cls-6" points="758.26 684.79 762 695.87 762 695.87 758.26 684.79 758.26 684.79"/><rect class="cls-26" x="724.23" y="699.02" width="1.44" height="16.84" transform="translate(-276.75 557.05) rotate(-35.76)"/><rect class="cls-26" x="719.57" y="702.38" width="1.44" height="16.84" transform="translate(-279.59 554.94) rotate(-35.76)"/><rect class="cls-26" x="721.9" y="700.7" width="1.44" height="16.84" transform="translate(-278.17 556) rotate(-35.76)"/><rect class="cls-26" x="720.74" y="701.54" width="1.44" height="16.84" transform="translate(-278.88 555.47) rotate(-35.76)"/><rect class="cls-26" x="726.56" y="697.34" width="1.44" height="16.84" transform="translate(-275.33 558.08) rotate(-35.76)"/><rect class="cls-26" x="723.07" y="699.86" width="1.44" height="16.84" transform="translate(-277.46 556.51) rotate(-35.76)"/><rect class="cls-26" x="725.4" y="698.18" width="1.44" height="16.84" transform="translate(-276.04 557.56) rotate(-35.76)"/><path class="cls-26" d="M753.79,697l-1.86,1.34-14.49,10.43-9.84-13.65,14.68-10.58,1.48-1.06c3-1.5,7.2-.11,9.74,3.4S756,694.6,753.79,697Z"/><rect class="cls-26" x="731.22" y="693.99" width="1.44" height="16.84" transform="translate(-272.49 560.18) rotate(-35.76)"/><rect class="cls-26" x="728.89" y="695.67" width="1.44" height="16.84" transform="translate(-273.91 559.13) rotate(-35.76)"/><rect class="cls-26" x="727.73" y="696.5" width="1.44" height="16.84" transform="translate(-274.62 558.61) rotate(-35.76)"/><rect class="cls-26" x="730.06" y="694.83" width="1.44" height="16.84" transform="matrix(0.81, -0.58, 0.58, 0.81, -273.2, 559.64)"/><path class="cls-26" d="M716.72,723.74l.92-.66-.2-.27A5.49,5.49,0,0,1,716.72,723.74Z"/><path class="cls-26" d="M708,709.69l-.19-.27-.92.66A5.63,5.63,0,0,1,708,709.69Z"/><path class="cls-26" d="M718.11,721.28l.69,1,1.17-.84-1.57-2.17A7.2,7.2,0,0,1,718.11,721.28Z"/><path class="cls-26" d="M711.69,709.91l-1.56-2.17-1.17.84.69,1A7.38,7.38,0,0,1,711.69,709.91Z"/><path class="cls-26" d="M711.29,706.9l3.34,4.63a10.52,10.52,0,0,1,1.87,2,10.19,10.19,0,0,1,1.29,2.4l3.34,4.63,1.17-.83-9.84-13.67Z"/><rect class="cls-26" x="717.24" y="704.06" width="1.44" height="16.84" transform="translate(-281.01 553.9) rotate(-35.76)"/><rect class="cls-26" x="718.41" y="703.22" width="1.44" height="16.84" transform="translate(-280.3 554.43) rotate(-35.76)"/><path class="cls-26" d="M714.63,711.53l-3.34-4.63-1.16.84,1.56,2.17A9.29,9.29,0,0,1,714.63,711.53Z"/><path class="cls-26" d="M718.4,719.23,720,721.4l1.16-.84-3.34-4.63A9.07,9.07,0,0,1,718.4,719.23Z"/><path class="cls-26" d="M717.44,722.81l.2.27,1.16-.84-.69-1A6.18,6.18,0,0,1,717.44,722.81Z"/><path class="cls-26" d="M709.65,709.54l-.69-1-1.16.84.19.27A6.12,6.12,0,0,1,709.65,709.54Z"/><path class="cls-27" d="M715.31,724.76l-.26.18a5.76,5.76,0,0,0,.9-.51,5.59,5.59,0,0,0,.77-.69l-.25.18Z"/><path class="cls-27" d="M706.63,710.26l.25-.18a5,5,0,0,0-.89.51,5.06,5.06,0,0,0-.77.69l.25-.18Z"/><path class="cls-15" d="M718.4,719.24a7,7,0,0,1-.29,2,6.28,6.28,0,0,1-.67,1.52,7.11,7.11,0,0,1-.72.94l-.25.17-1.17.84-.25.19a6.8,6.8,0,0,1-1.1.38,6.16,6.16,0,0,1-1.66.16,7.72,7.72,0,0,1-2-.38,10.1,10.1,0,0,1-6.72-9.33,7.69,7.69,0,0,1,.29-2,7.16,7.16,0,0,1,.67-1.52,6.76,6.76,0,0,1,.72-.93l.26-.19,1.16-.83.26-.18a5.33,5.33,0,0,1,1.1-.39,6.15,6.15,0,0,1,1.67-.15,7.38,7.38,0,0,1,2,.37,9.29,9.29,0,0,1,2.94,1.62,10.9,10.9,0,0,1,1.88,2,11.42,11.42,0,0,1,1.29,2.4A9.32,9.32,0,0,1,718.4,719.24Z"/><polygon class="cls-5" points="633.61 823.04 637.62 832.17 633.62 823.05 633.61 823.04 633.61 823.04"/><polygon class="cls-6" points="633.61 823.04 633.61 823.04 633.61 823.04 633.62 823.05 637.68 822.42 627.49 820.5 623 821.21 623.04 821.21 623.04 821.21 633.61 823.04"/><path class="cls-7" d="M639.41,836.38l0-.07-1.82-4.14-4-9.12L623,821.21l-4.75,11.42,5.83,13.26,10.57,1.84v0h0Zm-8.23,6.82-.33,0c-.12,0-.24.07-.37.09-3,.56-6.19-3-7.08-7.85s.83-9.31,3.85-9.86l.38,0a3,3,0,0,1,.32-.09c2.63-.48,5.5,3.1,6.39,8S633.82,842.71,631.18,843.2Z"/><polygon class="cls-7" points="633.61 823.04 623.04 821.21 623.04 821.21 633.61 823.04 633.61 823.04"/><polygon class="cls-8" points="637.68 822.42 633.62 823.05 637.62 832.17 639.44 836.31 639.41 836.38 643.18 835.78 643.21 835.71 637.68 822.42"/><polygon class="cls-8" points="639.41 836.38 639.41 836.38 639.44 836.31 637.62 832.17 639.44 836.31 639.41 836.38"/><polygon class="cls-6" points="634.7 847.7 638.47 847.11 643.18 835.78 639.41 836.38 634.7 847.7"/><rect class="cls-6" x="630.92" y="842.04" width="12.26" transform="translate(-385.01 1107.1) rotate(-67.43)"/><path class="cls-9" d="M624.79,835.21c-.86-4.69.41-8.87,2.84-9.64l-.38,0c-3,.55-4.75,5-3.85,9.86s4.06,8.41,7.08,7.85c.13,0,.25-.06.37-.09C628.31,843.37,625.64,839.9,624.79,835.21Z"/><path class="cls-13" d="M738.87,756.19c-3.62-7.63-9.8-11.79-14.62-8.78-.1.06-.18.14-.28.2,4.52-2.51,10.93,1.37,14.48,8.84s2.91,15.76-1.37,18.74l.29-.15C742.19,772,742.49,763.82,738.87,756.19Z"/><path class="cls-9" d="M722.08,766.68c3.62,7.63,10.22,11.52,14.75,8.7.08,0,.16-.13.25-.19C732.27,777.89,725.63,774.16,722.08,766.68Z"/><path class="cls-9" d="M724,747.61l-.27.14c-4.52,2.83-5.25,11.3-1.62,18.93C718.52,759.2,719.4,750.78,724,747.61Z"/><path class="cls-9" d="M738.45,756.45c-3.55-7.47-10-11.35-14.48-8.84-4.57,3.17-5.45,11.59-1.89,19.07s10.19,11.21,15,8.51C741.36,772.21,742,763.93,738.45,756.45Zm-4.6,12.67c-2.47,1.54-6.08-.59-8.06-4.76s-1.59-8.8.88-10.35,6.09.59,8.07,4.76S736.32,767.58,733.85,769.12Z"/><polygon class="cls-5" points="785.76 703.28 793.95 707.35 785.77 703.28 785.76 703.28 785.76 703.28"/><polygon class="cls-6" points="785.76 703.28 785.76 703.28 785.76 703.28 785.77 703.28 788.08 700.29 780.16 705.26 777.61 708.57 777.64 708.55 777.63 708.54 785.76 703.28"/><path class="cls-7" d="M797.68,709.27l0-.07L794,707.35l-8.19-4.07-8.12,5.27,3.76,11.17,11.9,5.92,8.13-5.26v0h0Z"/><polygon class="cls-7" points="785.76 703.28 777.63 708.54 777.64 708.55 785.76 703.28 785.76 703.28"/><polygon class="cls-7" points="788.08 700.29 785.77 703.28 793.95 707.35 797.66 709.2 797.68 709.26 799.82 706.49 799.8 706.42 788.08 700.29"/><polygon class="cls-8" points="797.68 709.26 797.68 709.26 797.66 709.2 793.95 707.35 797.66 709.2 797.68 709.26"/><polygon class="cls-6" points="801.42 720.35 803.56 717.57 799.82 706.49 797.68 709.26 801.42 720.35"/><polygon class="cls-6" points="797.68 709.26 801.42 720.35 801.42 720.35 797.68 709.26 797.68 709.26"/><rect class="cls-26" x="763.65" y="723.5" width="1.44" height="16.84" transform="translate(-283.62 584.7) rotate(-35.76)"/><rect class="cls-26" x="758.99" y="726.86" width="1.44" height="16.84" transform="translate(-286.46 582.6) rotate(-35.76)"/><rect class="cls-26" x="761.32" y="725.18" width="1.44" height="16.84" transform="translate(-285.04 583.65) rotate(-35.76)"/><rect class="cls-26" x="760.16" y="726.02" width="1.44" height="16.84" transform="translate(-285.75 583.13) rotate(-35.76)"/><rect class="cls-26" x="765.98" y="721.82" width="1.44" height="16.84" transform="translate(-282.2 585.73) rotate(-35.76)"/><rect class="cls-26" x="762.49" y="724.34" width="1.44" height="16.84" transform="matrix(0.81, -0.58, 0.58, 0.81, -284.33, 584.16)"/><rect class="cls-26" x="764.82" y="722.66" width="1.44" height="16.84" transform="translate(-282.91 585.21) rotate(-35.76)"/><path class="cls-26" d="M793.21,721.52l-1.86,1.34-14.49,10.43L767,719.64l14.68-10.59,1.47-1c3-1.5,7.21-.11,9.74,3.4S795.42,719.08,793.21,721.52Z"/><rect class="cls-26" x="770.64" y="718.47" width="1.44" height="16.84" transform="translate(-279.36 587.84) rotate(-35.76)"/><rect class="cls-26" x="768.31" y="720.14" width="1.44" height="16.84" transform="translate(-280.78 586.78) rotate(-35.76)"/><rect class="cls-26" x="767.15" y="720.98" width="1.44" height="16.84" transform="translate(-281.49 586.26) rotate(-35.76)"/><rect class="cls-26" x="769.48" y="719.3" width="1.44" height="16.84" transform="translate(-280.07 587.29) rotate(-35.76)"/><path class="cls-26" d="M756.14,748.22l.92-.66-.2-.27A6.42,6.42,0,0,1,756.14,748.22Z"/><path class="cls-26" d="M747.41,734.17l-.19-.27-.92.65A6.32,6.32,0,0,1,747.41,734.17Z"/><path class="cls-26" d="M757.53,745.76l.69,1,1.17-.84-1.57-2.17A7.25,7.25,0,0,1,757.53,745.76Z"/><path class="cls-26" d="M751.11,734.38l-1.56-2.16-1.17.84.69,1A7.77,7.77,0,0,1,751.11,734.38Z"/><path class="cls-26" d="M750.71,731.38l3.34,4.63a10.59,10.59,0,0,1,1.88,2,10.32,10.32,0,0,1,1.28,2.4l3.34,4.63,1.17-.84-9.84-13.66Z"/><rect class="cls-26" x="756.66" y="728.53" width="1.44" height="16.84" transform="translate(-287.88 581.56) rotate(-35.76)"/><rect class="cls-26" x="757.83" y="727.7" width="1.44" height="16.84" transform="translate(-287.17 582.09) rotate(-35.76)"/><path class="cls-26" d="M754.05,736l-3.34-4.63-1.16.84,1.56,2.16A9.32,9.32,0,0,1,754.05,736Z"/><path class="cls-26" d="M757.82,743.71l1.57,2.17,1.16-.84-3.34-4.63A9.07,9.07,0,0,1,757.82,743.71Z"/><path class="cls-26" d="M756.86,747.29l.2.27,1.16-.84-.69-1A6.18,6.18,0,0,1,756.86,747.29Z"/><path class="cls-26" d="M749.07,734l-.69-1-1.16.84.19.27A6.16,6.16,0,0,1,749.07,734Z"/><path class="cls-27" d="M754.73,749.24l-.26.18a5.76,5.76,0,0,0,.9-.51,6.32,6.32,0,0,0,.77-.69l-.25.18Z"/><path class="cls-27" d="M746.05,734.74l.25-.19a6.24,6.24,0,0,0-.89.52,5.59,5.59,0,0,0-.77.68l.25-.17Z"/><path class="cls-15" d="M757.82,743.71a6.91,6.91,0,0,1-.29,2,6.18,6.18,0,0,1-.67,1.53,6.42,6.42,0,0,1-.72.93l-.25.18-1.17.84-.24.18a7.31,7.31,0,0,1-1.11.39,6.58,6.58,0,0,1-1.66.15,7.77,7.77,0,0,1-2-.37,10.1,10.1,0,0,1-6.72-9.33,8.05,8.05,0,0,1,.29-2,5.66,5.66,0,0,1,1.39-2.45l.26-.19,1.16-.83.26-.18a5.33,5.33,0,0,1,1.1-.39,6.19,6.19,0,0,1,1.67-.15,7,7,0,0,1,2,.37,9.29,9.29,0,0,1,2.94,1.62,10.57,10.57,0,0,1,1.88,2,11.42,11.42,0,0,1,1.29,2.4A9.31,9.31,0,0,1,757.82,743.71Z"/><path class="cls-8" d="M494.86,940.62l-68.63-42v24.7L495,965.11Zm-55.76-17c-1.94.84-4.68-1.14-6.1-4.42s-1-6.63,1-7.47,4.68,1.14,6.1,4.42S441.05,922.83,439.1,923.67Zm41.81,26c-2,.85-4.68-1.13-6.1-4.41s-1-6.63.95-7.47,4.68,1.13,6.1,4.41S482.85,948.85,480.91,949.69Z"/></g></svg>