<svg xmlns="http://www.w3.org/2000/svg" viewBox="0 0 1009.27 977.67"><defs><style>.cls-1{fill:#ffb522;opacity:0.27;}.cls-2{fill:#7c7c7c;}.cls-3{fill:#303030;}.cls-4{fill:#424242;}.cls-5{fill:#606060;}.cls-6{fill:#898989;}.cls-7{fill:#515151;}.cls-8{fill:#fff;}.cls-9{fill:#7a7a7a;}.cls-10{fill:#999;}.cls-11,.cls-12{fill:#8e8e8e;}.cls-12,.cls-13,.cls-14,.cls-15,.cls-16,.cls-17,.cls-18,.cls-19,.cls-20,.cls-21{stroke:#fff;stroke-width:0.05px;}.cls-12,.cls-13,.cls-14,.cls-15,.cls-16,.cls-17,.cls-18,.cls-19,.cls-20,.cls-21,.cls-27,.cls-28{stroke-miterlimit:10;}.cls-13{fill:#919191;}.cls-14{fill:#949494;}.cls-15{fill:#979697;}.cls-16{fill:#9a999a;}.cls-17{fill:#9c9c9c;}.cls-18{fill:#9f9f9f;}.cls-19{fill:#a2a1a2;}.cls-20{fill:#a5a4a5;}.cls-21{fill:#a8a7a8;}.cls-22{fill:#9b9a9b;}.cls-23{fill:#7f7f7f;}.cls-24{fill:#545454;}.cls-25{fill:#6b6b6b;}.cls-26{fill:none;}.cls-27{fill:#959495;}.cls-27,.cls-28{stroke:#000;stroke-width:0.05px;}.cls-28{fill:#b7b7b7;}</style></defs><g id="Layer_2" data-name="Layer 2"><circle class="cls-1" cx="320.94" cy="352.58" r="122.58"/><circle class="cls-1" cx="122.58" cy="494.87" r="122.58"/><polygon class="cls-2" points="180.64 574.12 180.63 572.61 162.59 584.6 89.83 559.77 71.6 548.53 71.61 549.78 89.84 561.08 162.61 586.25 180.64 574.12"/><path class="cls-3" d="M162.59,584.59l18-12-39.8-51.14L121.73,511,71.6,548.53l18.23,11.24ZM130.27,553c-.07-1.53,1.92-2.44,4.43-2s4.6,2,4.67,3.51-1.92,2.44-4.43,2S130.34,554.5,130.27,553ZM88.1,548.56c-.07-1.53,1.91-2.44,4.43-2s4.6,2,4.66,3.52-1.91,2.43-4.43,2S88.16,550.09,88.1,548.56Z"/><polygon class="cls-2" points="381.28 426.41 381.26 424.89 363.23 436.88 290.46 412.05 272.23 400.81 272.24 402.06 290.47 413.36 363.24 438.54 381.28 426.41"/><path class="cls-3" d="M363.23,436.88l18-12-39.8-51.14-19.1-10.49-50.13,37.55,18.23,11.24ZM330.9,405.25c-.06-1.53,1.92-2.44,4.43-2s4.6,2,4.67,3.52-1.92,2.43-4.43,2S331,406.78,330.9,405.25Zm31.47,18.87c-.06-1.53,1.92-2.43,4.43-2s4.6,2,4.67,3.51-1.92,2.44-4.43,2S362.44,425.65,362.37,424.12Zm-73.64-23.28c-.07-1.53,1.92-2.44,4.43-2s4.6,2,4.67,3.51-1.92,2.44-4.43,2S288.79,402.37,288.73,400.84Z"/><polygon class="cls-2" points="360.76 380.5 361.25 356.16 74.58 567.6 74.53 593.35 360.76 380.5"/><path class="cls-4" d="M361.25,356.16l-16.82-10.31L57.55,557.33l17,10.27Zm-18.82-2.77c1.4-1,4.28-.79,6.45.54s2.8,3.24,1.41,4.26-4.28.78-6.45-.54S341,354.41,342.43,353.39ZM223.54,441c1.39-1,4.29-.79,6.48.52s2.83,3.22,1.44,4.24-4.3.8-6.48-.52S222.15,442.06,223.54,441Zm-35.67,26.3c1.39-1,4.3-.8,6.49.51s2.84,3.21,1.45,4.23-4.3.8-6.49-.51S186.48,468.35,187.87,467.33ZM68.62,555.24c1.39-1,4.31-.81,6.52.49s2.86,3.18,1.47,4.21-4.31.81-6.52-.49S67.22,556.26,68.62,555.24Z"/><polygon class="cls-5" points="57.48 582.61 57.72 557.06 74.84 567.39 74.51 592.88 57.48 582.61"/><path class="cls-4" d="M1007.93,793.2,330.8,379.14l-18,14.18,675.91,412.8Zm-13.74,3.69a6.08,6.08,0,0,1-5.85,0c-1.65-1-1.7-2.63-.13-3.61a6.13,6.13,0,0,1,5.85,0C995.71,794.29,995.77,795.91,994.19,796.89Zm-16.94-10.34a6.11,6.11,0,0,1-5.84,0c-1.65-1-1.71-2.63-.13-3.61a6.06,6.06,0,0,1,5.84,0C978.77,784,978.83,785.56,977.25,786.55ZM960.32,776.2a6.06,6.06,0,0,1-5.84,0c-1.65-1-1.72-2.62-.14-3.61a6.09,6.09,0,0,1,5.84,0C961.83,773.6,961.89,775.22,960.32,776.2Zm-16.94-10.34a6.06,6.06,0,0,1-5.84,0c-1.65-1-1.71-2.62-.14-3.61a6.06,6.06,0,0,1,5.84,0C944.89,763.25,945,764.87,943.38,765.86Zm-16.94-10.34a6.07,6.07,0,0,1-5.83,0c-1.65-1-1.72-2.63-.15-3.62a6.09,6.09,0,0,1,5.84,0C928,752.91,928,754.53,926.44,755.52Zm-16.93-10.35a6.09,6.09,0,0,1-5.84,0c-1.65-1-1.71-2.63-.14-3.62a6.07,6.07,0,0,1,5.83,0C911,742.56,911.08,744.18,909.51,745.17Zm-16.94-10.34a6,6,0,0,1-5.83,0c-1.65-1-1.72-2.62-.15-3.61a6,6,0,0,1,5.83,0C894.07,732.22,894.14,733.84,892.57,734.83ZM843,704.58a6,6,0,0,1-5.82,0c-1.65-1-1.72-2.63-.16-3.62a6,6,0,0,1,5.82,0C844.53,702,844.6,703.59,843,704.58Zm-28.93-23.13,3.23-2.06,12.81,7.83-3.23,2.06ZM375.37,419a5.79,5.79,0,0,1,5.74,0c1.65,1,1.76,2.65.24,3.67a5.79,5.79,0,0,1-5.74,0C374,421.62,373.85,420,375.37,419Zm20.19,12.33a5.79,5.79,0,0,1,5.74,0c1.65,1,1.76,2.65.24,3.67a5.79,5.79,0,0,1-5.74,0C394.15,434,394,432.31,395.56,431.29Zm44.15,27a5.83,5.83,0,0,1,5.75,0c1.65,1,1.75,2.65.23,3.66a5.81,5.81,0,0,1-5.75,0C438.29,460.91,438.19,459.27,439.71,458.25Zm44.15,27a5.83,5.83,0,0,1,5.76,0c1.65,1,1.75,2.64.22,3.66a5.85,5.85,0,0,1-5.76,0C482.43,487.87,482.33,486.23,483.86,485.22Zm44.15,27a5.9,5.9,0,0,1,5.77,0c1.65,1,1.74,2.65.21,3.66a5.87,5.87,0,0,1-5.77,0C526.57,514.83,526.48,513.19,528,512.18Zm44.15,27a5.9,5.9,0,0,1,5.77,0c1.65,1,1.75,2.65.21,3.66a5.9,5.9,0,0,1-5.77,0C570.72,541.79,570.62,540.15,572.16,539.15Zm44.15,27a5.89,5.89,0,0,1,5.78,0c1.65,1,1.74,2.64.2,3.65a5.92,5.92,0,0,1-5.78,0C614.86,568.75,614.77,567.12,616.31,566.11Zm44.15,27a5.94,5.94,0,0,1,5.79,0c1.65,1,1.74,2.64.19,3.64a5.94,5.94,0,0,1-5.79,0C659,595.71,658.92,594.08,660.46,593.07Zm44.15,27a5.93,5.93,0,0,1,5.8,0c1.65,1,1.73,2.64.18,3.64a6,6,0,0,1-5.8,0C703.14,622.67,703.06,621,704.61,620Zm44.15,27a6,6,0,0,1,5.81,0c1.65,1,1.72,2.63.17,3.63a6,6,0,0,1-5.8,0C747.28,649.62,747.21,648,748.76,647Zm44.15,27a6,6,0,0,1,5.81,0c1.65,1,1.73,2.63.17,3.62a6,6,0,0,1-5.81,0C791.43,676.58,791.35,675,792.91,674ZM805.36,687l9,.64.26-.16.4-.26,3.36-2.15,2.45,1.5-5.24,3.35a2.21,2.21,0,0,0-.37.27c-.72.63-.81,1.38-.15,1.79a3.33,3.33,0,0,0,2.86-.13,3,3,0,0,0,.44-.23l5.25-3.35,2.45,1.5-5.25,3.34-.4.26h0c-2.86,1.64-6.65,2-8.67.75-1.66-1-1.64-2.78-.17-4.39l-9.46-.66Z"/><path class="cls-5" d="M988.68,806.12,312.77,393.32l-.7,24.17L988.6,830Zm-659-390.19c-.1-2,1.16-2.74,2.8-1.74a7.49,7.49,0,0,1,3.17,5.38c.11,2-1.15,2.74-2.8,1.74A7.49,7.49,0,0,1,329.64,415.93Zm14,8.57c-.1-2,1.16-2.74,2.81-1.74a7.52,7.52,0,0,1,3.17,5.38c.1,2-1.16,2.74-2.81,1.74A7.49,7.49,0,0,1,343.67,424.5Zm14,8.56c-.1-2,1.16-2.74,2.81-1.73a7.49,7.49,0,0,1,3.17,5.38c.1,2-1.16,2.74-2.81,1.73A7.45,7.45,0,0,1,357.7,433.06Zm14,8.57c-.1-2,1.16-2.74,2.81-1.73a7.49,7.49,0,0,1,3.17,5.38c.1,2-1.16,2.74-2.81,1.73A7.47,7.47,0,0,1,371.73,441.63Zm14,8.57c-.09-2,1.16-2.74,2.81-1.73a7.49,7.49,0,0,1,3.17,5.38c.1,2-1.16,2.74-2.81,1.73A7.47,7.47,0,0,1,385.76,450.2Zm14,8.57c-.1-2,1.15-2.74,2.8-1.73a7.49,7.49,0,0,1,3.17,5.38c.1,2-1.16,2.74-2.81,1.73A7.45,7.45,0,0,1,399.8,458.77Zm14,8.57c-.1-2,1.16-2.74,2.8-1.73A7.49,7.49,0,0,1,419.8,471c.1,2-1.16,2.73-2.81,1.73A7.45,7.45,0,0,1,413.83,467.34Zm14,8.57c-.1-2,1.16-2.74,2.81-1.73a7.46,7.46,0,0,1,3.16,5.38c.1,2-1.16,2.73-2.81,1.73A7.45,7.45,0,0,1,427.86,475.91Zm14,8.57c-.1-2,1.16-2.74,2.81-1.73a7.46,7.46,0,0,1,3.16,5.38c.1,2-1.16,2.73-2.81,1.72A7.41,7.41,0,0,1,441.89,484.48Zm14,8.57c-.1-2,1.16-2.74,2.81-1.73a7.46,7.46,0,0,1,3.16,5.37c.1,2-1.16,2.74-2.81,1.73A7.43,7.43,0,0,1,455.92,493.05Zm14.5,8.86c-.09-2,1.17-2.74,2.82-1.73a7.49,7.49,0,0,1,3.16,5.37c.09,2-1.17,2.74-2.82,1.73A7.46,7.46,0,0,1,470.42,501.91Zm7.66,4.67c-.09-2,1.16-2.73,2.81-1.72a7.41,7.41,0,0,1,3.16,5.37c.1,2-1.16,2.73-2.81,1.73A7.48,7.48,0,0,1,478.08,506.58Zm7.66,4.68c-.1-2,1.16-2.73,2.81-1.73a7.45,7.45,0,0,1,3.16,5.38c.1,2-1.16,2.73-2.81,1.72A7.44,7.44,0,0,1,485.74,511.26Zm7.66,4.68c-.1-2,1.16-2.74,2.81-1.73a7.43,7.43,0,0,1,3.16,5.38c.1,2-1.16,2.73-2.81,1.72A7.43,7.43,0,0,1,493.4,515.94Zm7.66,4.67c-.1-2,1.16-2.73,2.81-1.72a7.43,7.43,0,0,1,3.16,5.37c.09,2-1.17,2.74-2.81,1.73A7.43,7.43,0,0,1,501.06,520.61Zm7.66,4.68c-.1-2,1.16-2.73,2.81-1.72a7.44,7.44,0,0,1,3.16,5.37c.09,2-1.17,2.73-2.82,1.73A7.44,7.44,0,0,1,508.72,525.29Zm7.65,4.68c-.09-2,1.17-2.73,2.82-1.73a7.48,7.48,0,0,1,3.16,5.38c.09,2-1.17,2.73-2.82,1.72A7.46,7.46,0,0,1,516.37,530Zm7.66,4.68c-.09-2,1.17-2.74,2.82-1.73a7.46,7.46,0,0,1,3.16,5.37c.09,2-1.17,2.74-2.82,1.73A7.46,7.46,0,0,1,524,534.65Zm7.66,4.67c-.09-2,1.17-2.73,2.82-1.72a7.42,7.42,0,0,1,3.15,5.37c.1,2-1.16,2.73-2.81,1.73A7.48,7.48,0,0,1,531.69,539.32Zm7.66,4.68c-.09-2,1.17-2.73,2.82-1.72a7.4,7.4,0,0,1,3.15,5.37c.1,2-1.17,2.73-2.81,1.72A7.41,7.41,0,0,1,539.35,544Zm7.66,4.68c-.09-2,1.17-2.73,2.82-1.73a7.44,7.44,0,0,1,3.15,5.38c.09,2-1.17,2.73-2.82,1.72A7.42,7.42,0,0,1,547,548.68Zm7.66,4.68c-.1-2,1.17-2.74,2.82-1.73a7.42,7.42,0,0,1,3.15,5.37c.09,2-1.17,2.73-2.82,1.73A7.42,7.42,0,0,1,554.67,553.36Zm7.66,4.67c-.1-2,1.17-2.73,2.82-1.72a7.45,7.45,0,0,1,3.15,5.37c.09,2-1.17,2.73-2.82,1.72A7.4,7.4,0,0,1,562.33,558Zm7.65,4.68c-.09-2,1.17-2.73,2.82-1.72a7.41,7.41,0,0,1,3.16,5.37c.09,2-1.17,2.73-2.82,1.72A7.46,7.46,0,0,1,570,562.71Zm7.66,4.68c-.09-2,1.17-2.73,2.82-1.72a7.44,7.44,0,0,1,3.16,5.37c.09,2-1.17,2.73-2.82,1.72A7.46,7.46,0,0,1,577.64,567.39Zm7.66,4.68c-.09-2,1.17-2.73,2.82-1.73a7.42,7.42,0,0,1,3.15,5.37c.1,2-1.17,2.73-2.82,1.73A7.47,7.47,0,0,1,585.3,572.07Zm7.66,4.67c-.09-2,1.17-2.73,2.82-1.72a7.42,7.42,0,0,1,3.15,5.37c.09,2-1.17,2.73-2.82,1.72A7.4,7.4,0,0,1,593,576.74Zm7.66,4.68c-.09-2,1.17-2.73,2.82-1.72a7.42,7.42,0,0,1,3.15,5.37c.09,2-1.17,2.73-2.82,1.72A7.42,7.42,0,0,1,600.62,581.42Zm7.66,4.68c-.09-2,1.17-2.73,2.82-1.72a7.4,7.4,0,0,1,3.15,5.37c.09,2-1.17,2.72-2.82,1.72A7.42,7.42,0,0,1,608.28,586.1Zm7.66,4.68c-.09-2,1.17-2.73,2.82-1.73a7.42,7.42,0,0,1,3.15,5.37c.09,2-1.17,2.73-2.82,1.72A7.4,7.4,0,0,1,615.94,590.78Zm7.66,4.67c-.09-2,1.17-2.73,2.82-1.72a7.42,7.42,0,0,1,3.15,5.37c.09,2-1.18,2.73-2.83,1.72A7.44,7.44,0,0,1,623.6,595.45Zm15.11,9.23c-.09-1.95,1.18-2.72,2.83-1.72a7.44,7.44,0,0,1,3.14,5.37c.09,2-1.17,2.73-2.82,1.72A7.42,7.42,0,0,1,638.71,604.68Zm15.12,9.24c-.09-2,1.17-2.73,2.82-1.72a7.4,7.4,0,0,1,3.15,5.36c.09,2-1.18,2.73-2.83,1.72A7.42,7.42,0,0,1,653.83,613.92Zm15.11,9.23c-.09-2,1.18-2.73,2.83-1.72a7.42,7.42,0,0,1,3.15,5.37c.08,2-1.18,2.72-2.83,1.71A7.4,7.4,0,0,1,668.94,623.15Zm15.12,9.23c-.09-2,1.18-2.73,2.83-1.72A7.41,7.41,0,0,1,690,636c.09,2-1.18,2.72-2.83,1.71A7.37,7.37,0,0,1,684.06,632.38Zm15.11,9.23c-.08-2,1.18-2.72,2.83-1.72a7.42,7.42,0,0,1,3.15,5.37c.08,2-1.18,2.72-2.83,1.72A7.42,7.42,0,0,1,699.17,641.61Zm15.12,9.23c-.09-2,1.18-2.72,2.83-1.71a7.34,7.34,0,0,1,3.14,5.36c.09,2-1.18,2.72-2.83,1.72A7.41,7.41,0,0,1,714.29,650.84Zm15.12,9.23c-.09-2,1.18-2.72,2.83-1.71a7.4,7.4,0,0,1,3.14,5.36c.09,2-1.18,2.73-2.83,1.72A7.37,7.37,0,0,1,729.41,660.07Zm15.11,9.24c-.08-2,1.18-2.73,2.83-1.72a7.37,7.37,0,0,1,3.14,5.36c.09,2-1.18,2.73-2.83,1.72A7.4,7.4,0,0,1,744.52,669.31Zm15.12,9.23c-.09-2,1.18-2.72,2.83-1.72a7.37,7.37,0,0,1,3.14,5.37c.09,1.95-1.18,2.72-2.83,1.71A7.37,7.37,0,0,1,759.64,678.54Zm15.11,9.23c-.08-1.95,1.19-2.72,2.84-1.72a7.41,7.41,0,0,1,3.14,5.37c.08,2-1.19,2.72-2.84,1.71A7.4,7.4,0,0,1,774.75,687.77ZM789.87,697c-.08-2,1.19-2.72,2.83-1.71a7.35,7.35,0,0,1,3.14,5.36c.09,2-1.18,2.72-2.83,1.71A7.34,7.34,0,0,1,789.87,697ZM805,706.23c-.09-2,1.18-2.72,2.83-1.71a7.37,7.37,0,0,1,3.14,5.36c.08,2-1.19,2.72-2.84,1.71A7.32,7.32,0,0,1,805,706.23Zm15.11,9.23c-.08-2,1.19-2.72,2.84-1.71a7.36,7.36,0,0,1,3.13,5.36c.09,2-1.18,2.72-2.83,1.71A7.34,7.34,0,0,1,820.1,715.46Zm15.12,9.24c-.08-2,1.19-2.72,2.84-1.72a7.39,7.39,0,0,1,3.13,5.36c.08,2-1.19,2.72-2.84,1.72A7.36,7.36,0,0,1,835.22,724.7Zm15.11,9.23c-.08-1.95,1.19-2.72,2.84-1.71a7.37,7.37,0,0,1,3.14,5.36c.08,1.95-1.19,2.71-2.84,1.71A7.4,7.4,0,0,1,850.33,733.93Zm15.12,9.23c-.08-1.95,1.19-2.72,2.84-1.71a7.36,7.36,0,0,1,3.13,5.36c.08,2-1.19,2.72-2.84,1.71A7.36,7.36,0,0,1,865.45,743.16Zm15.12,9.23c-.09-1.95,1.19-2.72,2.84-1.71a7.36,7.36,0,0,1,3.13,5.36c.08,2-1.19,2.72-2.84,1.71A7.36,7.36,0,0,1,880.57,752.39Zm15.11,9.23c-.08-2,1.19-2.71,2.84-1.71a7.36,7.36,0,0,1,3.13,5.36c.08,2-1.19,2.72-2.84,1.71A7.36,7.36,0,0,1,895.68,761.62Zm15.12,9.24c-.08-2,1.19-2.72,2.84-1.71a7.32,7.32,0,0,1,3.13,5.35c.08,2-1.19,2.72-2.84,1.71A7.34,7.34,0,0,1,910.8,770.86Zm15.11,9.23c-.08-2,1.2-2.72,2.85-1.71a7.34,7.34,0,0,1,3.13,5.35c.07,1.95-1.2,2.72-2.85,1.71A7.34,7.34,0,0,1,925.91,780.09ZM941,789.32c-.08-2,1.19-2.72,2.84-1.71A7.36,7.36,0,0,1,947,793c.08,1.95-1.19,2.71-2.84,1.7A7.32,7.32,0,0,1,941,789.32Zm15.11,9.23c-.07-1.95,1.2-2.71,2.85-1.71a7.36,7.36,0,0,1,3.13,5.36c.07,1.95-1.2,2.71-2.85,1.7A7.32,7.32,0,0,1,956.14,798.55Zm15.12,9.23c-.08-1.95,1.2-2.71,2.85-1.7a7.28,7.28,0,0,1,3.12,5.35c.08,2-1.19,2.71-2.84,1.71A7.36,7.36,0,0,1,971.26,807.78Z"/><polygon class="cls-6" points="988.68 806.12 1007.93 793.2 1007.98 816.73 988.6 829.97 988.68 806.12"/><path class="cls-4" d="M1009.17,413.79,331.64,0l-18.8,13.71L989.43,426.93Zm-14.23,3.91a6.08,6.08,0,0,1-5.85,0c-1.65-1-1.71-2.62-.13-3.61a6.13,6.13,0,0,1,5.85,0C996.46,415.1,996.52,416.72,994.94,417.7ZM978,407.36a6.11,6.11,0,0,1-5.84,0c-1.65-1-1.71-2.63-.14-3.61a6.08,6.08,0,0,1,5.85,0C979.52,404.76,979.58,406.37,978,407.36ZM961.06,397a6.06,6.06,0,0,1-5.84,0c-1.65-1-1.71-2.62-.13-3.61a6.09,6.09,0,0,1,5.84,0C962.58,394.41,962.64,396,961.06,397Zm-16.93-10.34a6.06,6.06,0,0,1-5.84,0c-1.65-1-1.71-2.62-.14-3.61a6.06,6.06,0,0,1,5.84,0C945.64,384.07,945.7,385.68,944.13,386.67Zm-16.94-10.34a6.07,6.07,0,0,1-5.83,0c-1.65-1-1.72-2.63-.15-3.61a6.06,6.06,0,0,1,5.84,0C928.7,373.72,928.76,375.34,927.19,376.33ZM910.25,366a6,6,0,0,1-5.83,0c-1.65-1-1.71-2.63-.14-3.62a6,6,0,0,1,5.83,0C911.76,363.37,911.82,365,910.25,366Zm-16.93-10.34a6.07,6.07,0,0,1-5.83,0c-1.65-1-1.72-2.63-.15-3.62a6,6,0,0,1,5.83,0C894.82,353,894.88,354.65,893.32,355.64Zm-49.53-30.25a6,6,0,0,1-5.82,0c-1.65-1-1.72-2.63-.16-3.62a6,6,0,0,1,5.82,0C845.28,322.77,845.35,324.4,843.79,325.39Zm-28.94-23.13,3.24-2.06L830.9,308l-3.23,2.06ZM333.42,13.69a5.77,5.77,0,0,1,5.73,0c1.65,1,1.76,2.65.25,3.67a5.74,5.74,0,0,1-5.73,0C332,16.36,331.91,14.72,333.42,13.69Zm26.47,16.17a5.79,5.79,0,0,1,5.74,0c1.65,1,1.76,2.65.24,3.67a5.79,5.79,0,0,1-5.73,0C358.49,32.53,358.38,30.88,359.89,29.86Zm16.23,9.91a5.79,5.79,0,0,1,5.74,0c1.65,1,1.76,2.65.24,3.67a5.79,5.79,0,0,1-5.74,0C374.71,42.44,374.6,40.79,376.12,39.77ZM396.31,52.1a5.79,5.79,0,0,1,5.74,0c1.65,1,1.76,2.65.24,3.67a5.79,5.79,0,0,1-5.74,0C394.9,54.76,394.79,53.12,396.31,52.1Zm44.15,27a5.83,5.83,0,0,1,5.75,0c1.65,1,1.75,2.65.23,3.67a5.83,5.83,0,0,1-5.75,0C439,81.72,438.93,80.08,440.46,79.06Zm44.15,27a5.83,5.83,0,0,1,5.76,0c1.65,1,1.75,2.65.22,3.66a5.85,5.85,0,0,1-5.76,0C483.18,108.68,483.08,107,484.61,106Zm44.15,27a5.85,5.85,0,0,1,5.76,0c1.66,1,1.75,2.64.22,3.65a5.87,5.87,0,0,1-5.77,0C527.32,135.64,527.23,134,528.76,133Zm44.15,27a5.9,5.9,0,0,1,5.77,0c1.65,1,1.74,2.65.21,3.66a5.89,5.89,0,0,1-5.78,0C571.46,162.6,571.37,161,572.91,160Zm44.15,27a5.89,5.89,0,0,1,5.78,0c1.65,1,1.74,2.64.2,3.65a5.92,5.92,0,0,1-5.78,0C615.61,189.56,615.52,187.93,617.06,186.92Zm44.15,27a5.94,5.94,0,0,1,5.79,0c1.65,1,1.73,2.64.19,3.64a5.94,5.94,0,0,1-5.79,0C659.75,216.52,659.66,214.89,661.21,213.88Zm44.15,27a6,6,0,0,1,5.8,0c1.65,1,1.73,2.64.18,3.64a6,6,0,0,1-5.8,0C703.89,243.48,703.81,241.85,705.36,240.85Zm44.15,27a6,6,0,0,1,5.8,0c1.65,1,1.73,2.63.18,3.63a6,6,0,0,1-5.81,0C748,270.44,748,268.81,749.51,267.81Zm44.15,27a6,6,0,0,1,5.81,0c1.65,1,1.73,2.63.17,3.63a6,6,0,0,1-5.81,0C792.18,297.39,792.1,295.77,793.66,294.77Zm12.45,13.07,9,.63.25-.16.41-.26,3.36-2.14,2.45,1.49-5.25,3.35a3.58,3.58,0,0,0-.37.28c-.72.62-.81,1.37-.14,1.78a3.3,3.3,0,0,0,2.86-.13,2.64,2.64,0,0,0,.44-.23l5.25-3.35,2.45,1.5-5.25,3.34-.41.26h0c-2.86,1.64-6.65,2-8.67.75-1.66-1-1.64-2.78-.17-4.39l-9.46-.66Z"/><path class="cls-5" d="M989.43,426.93,312.84,13.71l0,24.23L989.58,451.63Zm-659-390.19c-.1-2,1.15-2.74,2.8-1.74a7.49,7.49,0,0,1,3.17,5.38c.1,2-1.15,2.74-2.8,1.74A7.49,7.49,0,0,1,330.39,36.74Zm14,8.57c-.1-2,1.15-2.74,2.8-1.74A7.49,7.49,0,0,1,350.39,49c.1,2-1.15,2.74-2.8,1.74A7.49,7.49,0,0,1,344.42,45.31Zm14,8.57c-.1-2,1.16-2.74,2.81-1.74a7.48,7.48,0,0,1,3.16,5.38c.1,2-1.15,2.74-2.8,1.73A7.45,7.45,0,0,1,358.45,53.88Zm14,8.56c-.1-2,1.16-2.73,2.81-1.73a7.48,7.48,0,0,1,3.16,5.38c.1,2-1.15,2.74-2.8,1.73A7.45,7.45,0,0,1,372.48,62.44Zm14,8.57c-.1-2,1.16-2.74,2.81-1.73a7.49,7.49,0,0,1,3.17,5.38c.09,2-1.16,2.74-2.81,1.73A7.47,7.47,0,0,1,386.51,71Zm14,8.57c-.1-2,1.16-2.74,2.81-1.73a7.49,7.49,0,0,1,3.17,5.38c.09,2-1.16,2.74-2.81,1.73A7.49,7.49,0,0,1,400.54,79.58Zm14,8.57c-.09-2,1.16-2.74,2.81-1.73a7.49,7.49,0,0,1,3.17,5.38c.09,2-1.16,2.74-2.81,1.73A7.49,7.49,0,0,1,414.57,88.15Zm14,8.57c-.09-2,1.16-2.74,2.81-1.73a7.49,7.49,0,0,1,3.17,5.38c.09,2-1.16,2.73-2.81,1.73A7.49,7.49,0,0,1,428.6,96.72Zm14,8.57c-.1-2,1.16-2.74,2.81-1.73a7.46,7.46,0,0,1,3.16,5.38c.09,2-1.16,2.73-2.81,1.72A7.41,7.41,0,0,1,442.64,105.29Zm14,8.57c-.1-2,1.16-2.74,2.81-1.73a7.46,7.46,0,0,1,3.16,5.38c.09,2-1.16,2.73-2.81,1.72A7.41,7.41,0,0,1,456.67,113.86Zm14.5,8.86c-.1-2,1.16-2.74,2.81-1.73a7.43,7.43,0,0,1,3.16,5.37c.1,2-1.16,2.74-2.81,1.73A7.46,7.46,0,0,1,471.17,122.72Zm7.66,4.67c-.1-2,1.16-2.73,2.81-1.72A7.41,7.41,0,0,1,484.8,131c.1,2-1.16,2.73-2.81,1.73A7.45,7.45,0,0,1,478.83,127.39Zm7.66,4.68c-.1-2,1.16-2.73,2.81-1.73a7.45,7.45,0,0,1,3.16,5.38c.1,2-1.16,2.73-2.81,1.72A7.41,7.41,0,0,1,486.49,132.07Zm7.66,4.68c-.1-2,1.16-2.74,2.81-1.73a7.48,7.48,0,0,1,3.16,5.38c.09,2-1.17,2.73-2.82,1.72A7.45,7.45,0,0,1,494.15,136.75Zm7.66,4.68c-.1-2,1.16-2.74,2.81-1.73a7.46,7.46,0,0,1,3.16,5.37c.09,2-1.17,2.74-2.82,1.73A7.42,7.42,0,0,1,501.81,141.43Zm7.65,4.67c-.09-2,1.17-2.73,2.82-1.72a7.44,7.44,0,0,1,3.16,5.37c.09,2-1.17,2.73-2.82,1.73A7.48,7.48,0,0,1,509.46,146.1Zm7.66,4.68c-.09-2,1.17-2.73,2.82-1.73a7.44,7.44,0,0,1,3.15,5.38c.1,2-1.16,2.73-2.81,1.72A7.44,7.44,0,0,1,517.12,150.78Zm7.66,4.68c-.09-2,1.17-2.73,2.82-1.73a7.44,7.44,0,0,1,3.15,5.38c.1,2-1.16,2.73-2.81,1.72A7.46,7.46,0,0,1,524.78,155.46Zm7.66,4.67c-.09-1.95,1.17-2.73,2.82-1.72a7.42,7.42,0,0,1,3.15,5.37c.1,2-1.17,2.73-2.81,1.73A7.45,7.45,0,0,1,532.44,160.13Zm7.66,4.68c-.1-2,1.17-2.73,2.82-1.72a7.45,7.45,0,0,1,3.15,5.37c.09,2-1.17,2.73-2.82,1.72A7.4,7.4,0,0,1,540.1,164.81Zm7.66,4.68c-.1-2,1.17-2.73,2.81-1.72a7.41,7.41,0,0,1,3.16,5.37c.09,2-1.17,2.73-2.82,1.72A7.42,7.42,0,0,1,547.76,169.49Zm7.66,4.68c-.1-2,1.16-2.73,2.81-1.73a7.45,7.45,0,0,1,3.16,5.37c.09,2-1.17,2.74-2.82,1.73A7.42,7.42,0,0,1,555.42,174.17Zm7.65,4.67c-.09-2,1.17-2.73,2.82-1.72a7.46,7.46,0,0,1,3.16,5.37c.09,2-1.17,2.73-2.82,1.73A7.48,7.48,0,0,1,563.07,178.84Zm7.66,4.68c-.09-2,1.17-2.73,2.82-1.72a7.46,7.46,0,0,1,3.16,5.37c.09,2-1.17,2.73-2.82,1.72A7.44,7.44,0,0,1,570.73,183.52Zm7.66,4.68c-.09-2,1.17-2.73,2.82-1.72a7.4,7.4,0,0,1,3.15,5.37c.1,2-1.17,2.73-2.82,1.72A7.42,7.42,0,0,1,578.39,188.2Zm7.66,4.68c-.09-2,1.17-2.73,2.82-1.73a7.44,7.44,0,0,1,3.15,5.37c.09,2-1.17,2.73-2.82,1.73A7.44,7.44,0,0,1,586.05,192.88Zm7.66,4.67c-.09-2,1.17-2.73,2.82-1.72a7.42,7.42,0,0,1,3.15,5.37c.09,2-1.17,2.73-2.82,1.72A7.4,7.4,0,0,1,593.71,197.55Zm7.66,4.68c-.09-2,1.17-2.73,2.82-1.72a7.42,7.42,0,0,1,3.15,5.37c.09,2-1.17,2.73-2.82,1.72A7.42,7.42,0,0,1,601.37,202.23Zm7.66,4.68c-.09-2,1.17-2.73,2.82-1.72a7.4,7.4,0,0,1,3.15,5.37c.09,1.95-1.17,2.72-2.82,1.72A7.42,7.42,0,0,1,609,206.91Zm7.65,4.68c-.09-2,1.18-2.73,2.83-1.73a7.44,7.44,0,0,1,3.15,5.37c.09,2-1.18,2.73-2.83,1.72A7.46,7.46,0,0,1,616.68,211.59Zm7.66,4.67c-.09-1.95,1.18-2.73,2.83-1.72a7.42,7.42,0,0,1,3.15,5.37c.09,2-1.18,2.73-2.83,1.72A7.42,7.42,0,0,1,624.34,216.26Zm15.12,9.23c-.09-2,1.17-2.72,2.82-1.72a7.44,7.44,0,0,1,3.15,5.37c.09,2-1.17,2.73-2.82,1.72A7.4,7.4,0,0,1,639.46,225.49Zm15.12,9.24c-.09-2,1.17-2.73,2.82-1.72a7.4,7.4,0,0,1,3.15,5.36c.09,2-1.18,2.73-2.83,1.72A7.35,7.35,0,0,1,654.58,234.73ZM669.69,244c-.09-2,1.18-2.73,2.83-1.72a7.37,7.37,0,0,1,3.14,5.37c.09,1.95-1.17,2.72-2.82,1.71A7.4,7.4,0,0,1,669.69,244Zm15.12,9.23c-.09-2,1.17-2.73,2.82-1.72a7.42,7.42,0,0,1,3.15,5.37c.09,2-1.18,2.72-2.83,1.72A7.37,7.37,0,0,1,684.81,253.19Zm15.11,9.23c-.08-1.95,1.18-2.72,2.83-1.72a7.42,7.42,0,0,1,3.15,5.37c.08,2-1.18,2.72-2.83,1.72A7.42,7.42,0,0,1,699.92,262.42ZM715,271.65c-.09-1.95,1.18-2.72,2.83-1.71A7.39,7.39,0,0,1,721,275.3c.09,2-1.18,2.73-2.83,1.72A7.41,7.41,0,0,1,715,271.65Zm15.11,9.24c-.08-2,1.19-2.73,2.83-1.72a7.42,7.42,0,0,1,3.15,5.36c.08,2-1.18,2.73-2.83,1.72A7.42,7.42,0,0,1,730.15,280.89Zm15.12,9.23c-.09-2,1.18-2.73,2.83-1.72a7.37,7.37,0,0,1,3.14,5.36c.09,2-1.18,2.73-2.83,1.72A7.4,7.4,0,0,1,745.27,290.12Zm15.12,9.23c-.09-2,1.18-2.72,2.83-1.72a7.41,7.41,0,0,1,3.14,5.37c.08,1.95-1.18,2.72-2.83,1.71A7.37,7.37,0,0,1,760.39,299.35Zm15.11,9.23c-.08-1.95,1.19-2.72,2.84-1.71a7.36,7.36,0,0,1,3.13,5.36c.09,1.95-1.18,2.72-2.83,1.71A7.39,7.39,0,0,1,775.5,308.58Zm15.12,9.23c-.09-1.95,1.18-2.72,2.83-1.71a7.37,7.37,0,0,1,3.14,5.36c.08,2-1.18,2.72-2.83,1.71A7.34,7.34,0,0,1,790.62,317.81ZM805.73,327c-.08-2,1.19-2.72,2.84-1.71a7.4,7.4,0,0,1,3.14,5.36c.08,1.95-1.19,2.72-2.84,1.71A7.37,7.37,0,0,1,805.73,327Zm15.12,9.24c-.08-2,1.19-2.72,2.84-1.72a7.36,7.36,0,0,1,3.13,5.36c.08,2-1.19,2.72-2.83,1.72A7.37,7.37,0,0,1,820.85,336.28ZM836,345.51c-.09-2,1.18-2.72,2.83-1.71a7.33,7.33,0,0,1,3.14,5.35c.08,2-1.19,2.72-2.84,1.72A7.36,7.36,0,0,1,836,345.51Zm15.11,9.23c-.08-1.95,1.19-2.72,2.84-1.71a7.32,7.32,0,0,1,3.13,5.36c.09,1.95-1.19,2.71-2.83,1.71A7.37,7.37,0,0,1,851.08,354.74ZM866.2,364c-.08-2,1.19-2.72,2.84-1.71a7.36,7.36,0,0,1,3.13,5.36c.08,1.95-1.19,2.72-2.84,1.71A7.36,7.36,0,0,1,866.2,364Zm15.11,9.23c-.08-1.95,1.19-2.72,2.84-1.71a7.37,7.37,0,0,1,3.14,5.36c.08,1.95-1.2,2.72-2.85,1.71A7.39,7.39,0,0,1,881.31,373.2Zm15.12,9.23c-.08-1.95,1.19-2.71,2.84-1.71a7.36,7.36,0,0,1,3.13,5.36c.08,1.95-1.19,2.72-2.84,1.71A7.34,7.34,0,0,1,896.43,382.43Zm15.12,9.24c-.08-2,1.19-2.72,2.84-1.71a7.32,7.32,0,0,1,3.13,5.35c.08,1.95-1.2,2.72-2.85,1.71A7.33,7.33,0,0,1,911.55,391.67Zm15.11,9.23c-.08-1.95,1.2-2.72,2.84-1.71a7.34,7.34,0,0,1,3.13,5.36c.08,1.95-1.19,2.71-2.84,1.7A7.32,7.32,0,0,1,926.66,400.9Zm15.12,9.23c-.08-1.95,1.19-2.72,2.84-1.71a7.36,7.36,0,0,1,3.13,5.36c.08,2-1.2,2.71-2.85,1.7A7.31,7.31,0,0,1,941.78,410.13Zm15.11,9.23c-.07-1.95,1.2-2.71,2.85-1.71a7.36,7.36,0,0,1,3.13,5.36c.07,1.95-1.2,2.71-2.85,1.71A7.36,7.36,0,0,1,956.89,419.36ZM972,428.59c-.08-1.95,1.2-2.71,2.85-1.7a7.34,7.34,0,0,1,3.12,5.35c.08,1.95-1.2,2.71-2.85,1.71A7.35,7.35,0,0,1,972,428.59Z"/><polygon class="cls-6" points="989.43 426.93 1009.17 413.79 1009.26 438.17 989.58 451.63 989.43 426.93"/><polygon class="cls-5" points="1007.93 793.2 988.68 806.12 988.69 801.64 1008.07 788.87 1007.93 793.2"/><polygon class="cls-3" points="919.57 759.43 948.65 777.19 948.09 756.6 935.2 748.73 919.57 759.43"/><path class="cls-3" d="M1008.06,788.87l-23.27-14.22-.06-324.81-19.21-11.23.25,348.83v.2l22.93,14Zm-37.62-5.19Z"/><path class="cls-7" d="M988.7,801.65l-22.93-14L966.52,442l23.05,14.07,19.7-13.44v-4.48l-19.68,13.46-69.25-42.3v4.47L945.18,429l-.74,345.63-24.87-15.19v4.47l69.12,42.22Zm-36.82-358.3c0-1.72,1.34-2.31,3-1.3a6.58,6.58,0,0,1,3,4.95c0,1.73-1.35,2.3-3,1.3A6.54,6.54,0,0,1,951.88,443.35Zm0,16.25c0-1.72,1.34-2.31,3-1.29a6.6,6.6,0,0,1,3,4.94c0,1.73-1.35,2.32-3,1.31A6.58,6.58,0,0,1,951.84,459.6Zm0,16.26c0-1.73,1.35-2.31,3-1.3a6.55,6.55,0,0,1,3,4.95c0,1.73-1.35,2.31-3,1.3A6.55,6.55,0,0,1,951.8,475.86Zm0,16.26c0-1.73,1.36-2.31,3-1.31a6.55,6.55,0,0,1,3,5c0,1.72-1.34,2.31-3,1.3A6.56,6.56,0,0,1,951.76,492.12Zm0,16.26c0-1.73,1.35-2.32,3-1.32a6.61,6.61,0,0,1,3,5c0,1.71-1.35,2.3-3,1.29A6.57,6.57,0,0,1,951.73,508.38Zm0,16.25c0-1.73,1.34-2.31,3-1.3a6.54,6.54,0,0,1,3,4.95c0,1.72-1.35,2.3-3,1.3A6.55,6.55,0,0,1,951.7,524.63Zm0,16.25c0-1.73,1.34-2.31,3-1.3a6.59,6.59,0,0,1,3,4.95c0,1.73-1.35,2.31-3,1.3A6.56,6.56,0,0,1,951.66,540.88Zm0,16.26c0-1.74,1.34-2.31,3-1.3a6.53,6.53,0,0,1,3,4.95c0,1.72-1.34,2.31-3,1.29A6.6,6.6,0,0,1,951.62,557.14Zm0,16.25c0-1.73,1.35-2.31,3-1.3a6.54,6.54,0,0,1,3,4.95c0,1.72-1.34,2.31-3,1.3A6.58,6.58,0,0,1,951.59,573.39Zm0,16.26c0-1.73,1.34-2.31,3-1.31a6.56,6.56,0,0,1,3,5c0,1.72-1.35,2.3-3,1.3A6.55,6.55,0,0,1,951.56,589.65Zm0,16.25c0-1.73,1.34-2.31,3-1.3a6.55,6.55,0,0,1,3,4.95c0,1.73-1.35,2.3-3,1.3A6.54,6.54,0,0,1,951.52,605.9Zm0,16.25c0-1.72,1.34-2.31,3-1.29a6.55,6.55,0,0,1,3,4.94c0,1.74-1.34,2.31-3,1.3A6.52,6.52,0,0,1,951.49,622.15Zm0,16.26c0-1.73,1.34-2.31,3-1.3a6.56,6.56,0,0,1,3,4.95c0,1.73-1.34,2.31-3,1.29A6.53,6.53,0,0,1,951.45,638.41Zm0,16.25c0-1.72,1.35-2.3,3-1.3a6.58,6.58,0,0,1,3,4.95c0,1.73-1.34,2.31-3,1.3A6.55,6.55,0,0,1,951.41,654.66Zm0,16.25c0-1.71,1.34-2.3,3-1.29a6.52,6.52,0,0,1,3,4.94c0,1.73-1.34,2.31-3,1.31A6.56,6.56,0,0,1,951.38,670.91Zm0,16.26c0-1.72,1.34-2.31,3-1.3a6.56,6.56,0,0,1,3,5c0,1.73-1.35,2.31-3,1.3A6.54,6.54,0,0,1,951.35,687.17Zm0,16.26c0-1.73,1.34-2.31,3-1.3a6.56,6.56,0,0,1,3,4.94c0,1.74-1.34,2.32-3,1.31A6.56,6.56,0,0,1,951.31,703.43Zm0,16.25c0-1.73,1.34-2.31,3-1.3a6.56,6.56,0,0,1,3,5c0,1.73-1.35,2.32-3,1.3A6.55,6.55,0,0,1,951.27,719.68Zm0,16.26c0-1.73,1.36-2.31,3-1.31a6.55,6.55,0,0,1,3,5c0,1.72-1.34,2.31-3,1.3A6.56,6.56,0,0,1,951.23,735.94Zm0,16.25c0-1.72,1.35-2.31,3-1.3a6.53,6.53,0,0,1,3,5c0,1.73-1.34,2.31-3,1.31A6.58,6.58,0,0,1,951.2,752.19Zm0,16.26c0-1.73,1.34-2.31,3-1.3a6.55,6.55,0,0,1,3,5c0,1.72-1.35,2.3-3,1.3A6.55,6.55,0,0,1,951.17,768.45Z"/><ellipse class="cls-8" cx="990.6" cy="790.53" rx="2.67" ry="4.15" transform="translate(175.87 1761.32) rotate(-88.59)"/><ellipse class="cls-8" cx="938.8" cy="761.36" rx="2.67" ry="4.15" transform="translate(154.51 1681.1) rotate(-88.59)"/><polygon class="cls-9" points="943.02 764.83 944.47 760.74 944.47 758.83 943.02 763.11 943.02 763.11 943.02 764.83 943.02 764.83"/><polygon class="cls-10" points="932.73 761.96 934.17 757.7 940.04 756.14 944.47 758.85 943.02 763.11 937.15 764.67 932.73 761.96"/><polygon class="cls-11" points="937.16 766.27 943.02 764.83 943.02 763.11 937.15 764.67 937.13 764.65 937.13 766.25 937.16 766.27"/><polygon class="cls-9" points="937.13 764.65 932.74 761.97 932.74 763.57 937.13 766.25 937.13 764.65"/><ellipse class="cls-12" cx="938.65" cy="759.46" rx="2.2" ry="3.02" transform="matrix(0.52, -0.85, 0.85, 0.52, -198.73, 1164.69)"/><ellipse class="cls-13" cx="938.65" cy="759.19" rx="2.2" ry="3.02" transform="translate(-194.04 1176.87) rotate(-59.21)"/><ellipse class="cls-14" cx="938.65" cy="758.92" rx="2.19" ry="3.02" transform="translate(-189.2 1189) rotate(-59.83)"/><ellipse class="cls-15" cx="938.65" cy="758.65" rx="2.19" ry="3.02" transform="translate(-184.23 1201.08) rotate(-60.45)"/><ellipse class="cls-16" cx="938.65" cy="758.37" rx="2.19" ry="3.02" transform="translate(-179.12 1213.11) rotate(-61.07)"/><ellipse class="cls-17" cx="938.65" cy="758.1" rx="2.19" ry="3.02" transform="translate(-173.88 1225.08) rotate(-61.7)"/><ellipse class="cls-18" cx="938.64" cy="757.83" rx="2.19" ry="3.02" transform="translate(-168.5 1236.99) rotate(-62.32)"/><ellipse class="cls-19" cx="938.64" cy="757.56" rx="2.19" ry="3.02" transform="translate(-162.99 1248.83) rotate(-62.94)"/><ellipse class="cls-20" cx="938.64" cy="757.28" rx="2.2" ry="3.02" transform="translate(-157.35 1260.6) rotate(-63.56)"/><ellipse class="cls-21" cx="938.64" cy="757.01" rx="2.2" ry="3.02" transform="translate(-151.58 1272.3) rotate(-64.18)"/><polygon class="cls-9" points="994.8 794.45 996.25 790.35 996.25 788.45 994.81 792.73 994.8 792.73 994.8 794.45 994.8 794.45"/><polygon class="cls-10" points="984.51 791.58 985.95 787.32 991.82 785.76 996.25 788.47 994.81 792.73 988.93 794.29 984.51 791.58"/><polygon class="cls-11" points="988.94 795.89 994.8 794.45 994.8 792.73 988.93 794.29 988.91 794.27 988.91 795.87 988.94 795.89"/><polygon class="cls-9" points="988.91 794.27 984.52 791.59 984.52 793.19 988.91 795.87 988.91 794.27"/><ellipse class="cls-12" cx="990.44" cy="789.08" rx="2.2" ry="3.02" transform="translate(-199.22 1223.07) rotate(-58.59)"/><ellipse class="cls-13" cx="990.43" cy="788.81" rx="2.2" ry="3.02" transform="translate(-194.21 1235.81) rotate(-59.21)"/><ellipse class="cls-14" cx="990.43" cy="788.54" rx="2.19" ry="3.02" transform="translate(-189.05 1248.5) rotate(-59.83)"/><ellipse class="cls-15" cx="990.43" cy="788.27" rx="2.19" ry="3.02" transform="translate(-183.75 1261.14) rotate(-60.45)"/><ellipse class="cls-16" cx="990.43" cy="787.99" rx="2.19" ry="3.02" transform="translate(-178.31 1273.72) rotate(-61.07)"/><ellipse class="cls-17" cx="990.43" cy="787.72" rx="2.19" ry="3.02" transform="translate(-172.73 1286.24) rotate(-61.7)"/><ellipse class="cls-18" cx="990.43" cy="787.45" rx="2.19" ry="3.02" transform="translate(-167 1298.7) rotate(-62.32)"/><ellipse class="cls-19" cx="990.43" cy="787.18" rx="2.19" ry="3.02" transform="translate(-161.14 1311.09) rotate(-62.94)"/><ellipse class="cls-20" cx="990.42" cy="786.9" rx="2.2" ry="3.02" transform="translate(-155.14 1323.4) rotate(-63.56)"/><ellipse class="cls-21" cx="990.42" cy="786.63" rx="2.2" ry="3.02" transform="translate(-149.02 1335.64) rotate(-64.18)"/><path class="cls-9" d="M986.17,421.3c-4.94-1.8-7.88-6.18-6.29-10.53s6.87-6.43,11.82-4.63,7.66,6.79,6.07,11.15S991.11,423.1,986.17,421.3Z"/><ellipse class="cls-22" cx="989" cy="413.53" rx="7.87" ry="9.52" transform="matrix(0.34, -0.94, 0.94, 0.34, 261.83, 1201.16)"/><polygon class="cls-9" points="993.11 416.76 994.56 412.66 994.55 410.76 993.11 415.04 993.11 415.04 993.11 416.76 993.11 416.76"/><polygon class="cls-23" points="982.81 413.89 984.25 409.63 990.13 408.07 994.55 410.78 993.11 415.04 987.24 416.6 982.81 413.89"/><polygon class="cls-11" points="987.24 418.2 993.11 416.76 993.11 415.04 987.24 416.6 987.21 416.58 987.21 418.18 987.24 418.2"/><polygon class="cls-9" points="987.21 416.58 982.82 413.9 982.82 415.5 987.21 418.18 987.21 416.58"/><path class="cls-9" d="M937.65,391.67c-4.95-1.8-7.89-6.19-6.3-10.54s6.88-6.42,11.82-4.62,7.66,6.79,6.07,11.14S942.59,393.47,937.65,391.67Z"/><ellipse class="cls-22" cx="940.48" cy="383.9" rx="7.87" ry="9.52" transform="translate(257.76 1136.08) rotate(-69.98)"/><polygon class="cls-24" points="944.58 387.13 946.03 383.03 946.03 381.12 944.58 385.4 944.58 385.4 944.58 387.13 944.58 387.13"/><polygon class="cls-23" points="934.29 384.26 935.73 380 941.6 378.44 946.03 381.14 944.58 385.4 938.71 386.96 934.29 384.26"/><polygon class="cls-25" points="938.72 388.56 944.58 387.13 944.58 385.4 938.71 386.96 938.69 386.94 938.69 388.55 938.72 388.56"/><polygon class="cls-24" points="938.69 386.94 934.3 384.26 934.3 385.86 938.69 388.55 938.69 386.94"/><polygon class="cls-9" points="926.55 779.79 922.29 780.69 920.67 781.68 925.07 780.69 925.08 780.69 926.55 779.79 926.55 779.79"/><polygon class="cls-10" points="929.46 790.07 925.07 791.06 920.68 786.86 920.68 781.67 925.07 780.69 929.46 784.88 929.46 790.07"/><polygon class="cls-11" points="930.83 784.04 926.55 779.79 925.08 780.69 929.46 784.88 929.46 784.91 930.83 784.08 930.83 784.04"/><polygon class="cls-9" points="929.46 784.91 929.46 790.06 930.83 789.22 930.83 784.08 929.46 784.91"/><ellipse class="cls-12" cx="924.24" cy="786.31" rx="2.2" ry="3.02"/><ellipse class="cls-13" cx="924.01" cy="786.46" rx="2.2" ry="3.02" transform="translate(-8.47 10.06) rotate(-0.62)"/><ellipse class="cls-14" cx="923.78" cy="786.6" rx="2.19" ry="3.02" transform="translate(-16.85 20.22) rotate(-1.24)"/><ellipse class="cls-15" cx="923.55" cy="786.74" rx="2.19" ry="3.02" transform="translate(-25.12 30.48) rotate(-1.87)"/><ellipse class="cls-16" cx="923.31" cy="786.89" rx="2.19" ry="3.02" transform="translate(-33.28 40.81) rotate(-2.49)"/><ellipse class="cls-17" cx="923.08" cy="787.03" rx="2.19" ry="3.02" transform="translate(-41.34 51.24) rotate(-3.11)"/><ellipse class="cls-18" cx="922.85" cy="787.17" rx="2.19" ry="3.02" transform="translate(-49.28 61.74) rotate(-3.73)"/><ellipse class="cls-19" cx="922.62" cy="787.32" rx="2.19" ry="3.02" transform="translate(-57.11 72.32) rotate(-4.35)"/><ellipse class="cls-20" cx="922.39" cy="787.46" rx="2.2" ry="3.02" transform="translate(-64.83 82.98) rotate(-4.98)"/><ellipse class="cls-21" cx="922.16" cy="787.6" rx="2.2" ry="3.02" transform="translate(-72.42 93.7) rotate(-5.6)"/><polygon class="cls-9" points="975.4 808.43 971.15 809.33 969.53 810.32 973.93 809.33 973.93 809.33 975.4 808.43 975.4 808.43"/><polygon class="cls-10" points="978.32 818.71 973.93 819.7 969.54 815.5 969.54 810.32 973.93 809.33 978.32 813.52 978.32 818.71"/><polygon class="cls-11" points="979.69 812.69 975.4 808.43 973.93 809.33 978.32 813.52 978.32 813.56 979.69 812.72 979.69 812.69"/><polygon class="cls-9" points="978.32 813.56 978.32 818.7 979.69 817.86 979.69 812.72 978.32 813.56"/><ellipse class="cls-12" cx="973.1" cy="814.96" rx="2.2" ry="3.02"/><ellipse class="cls-13" cx="972.87" cy="815.1" rx="2.2" ry="3.02" transform="translate(-8.78 10.6) rotate(-0.62)"/><ellipse class="cls-14" cx="972.64" cy="815.24" rx="2.19" ry="3.02" transform="translate(-17.46 21.29) rotate(-1.24)"/><ellipse class="cls-15" cx="972.4" cy="815.39" rx="2.19" ry="3.02" transform="translate(-26.02 32.08) rotate(-1.87)"/><ellipse class="cls-16" cx="972.17" cy="815.53" rx="2.19" ry="3.02" transform="translate(-34.48 42.96) rotate(-2.49)"/><ellipse class="cls-17" cx="971.94" cy="815.67" rx="2.19" ry="3.02" transform="translate(-42.82 53.93) rotate(-3.11)"/><ellipse class="cls-18" cx="971.71" cy="815.82" rx="2.19" ry="3.02" transform="translate(-51.04 64.98) rotate(-3.73)"/><ellipse class="cls-19" cx="971.48" cy="815.96" rx="2.19" ry="3.02" transform="translate(-59.15 76.11) rotate(-4.35)"/><ellipse class="cls-20" cx="971.24" cy="816.1" rx="2.2" ry="3.02" transform="translate(-67.13 87.32) rotate(-4.98)"/><ellipse class="cls-21" cx="971.01" cy="816.25" rx="2.2" ry="3.02" transform="translate(-74.98 98.6) rotate(-5.6)"/><polygon class="cls-9" points="926.55 400.83 922.29 401.73 920.67 402.72 925.07 401.73 925.08 401.73 926.55 400.83 926.55 400.83"/><polygon class="cls-10" points="929.46 411.11 925.07 412.1 920.68 407.9 920.68 402.71 925.07 401.73 929.46 405.92 929.46 411.11"/><polygon class="cls-11" points="930.83 405.09 926.55 400.83 925.08 401.73 929.46 405.92 929.46 405.96 930.83 405.12 930.83 405.09"/><polygon class="cls-9" points="929.46 405.96 929.46 411.1 930.83 410.26 930.83 405.12 929.46 405.96"/><ellipse class="cls-12" cx="924.24" cy="407.35" rx="2.2" ry="3.02"/><ellipse class="cls-13" cx="924.01" cy="407.5" rx="2.2" ry="3.02" transform="translate(-4.36 10.04) rotate(-0.62)"/><ellipse class="cls-14" cx="923.78" cy="407.64" rx="2.19" ry="3.02" transform="translate(-8.63 20.14) rotate(-1.24)"/><ellipse class="cls-15" cx="923.55" cy="407.78" rx="2.19" ry="3.02" transform="translate(-12.78 30.27) rotate(-1.87)"/><ellipse class="cls-16" cx="923.31" cy="407.93" rx="2.19" ry="3.02" transform="translate(-16.83 40.46) rotate(-2.49)"/><ellipse class="cls-17" cx="923.08" cy="408.07" rx="2.19" ry="3.02" transform="translate(-20.78 50.68) rotate(-3.11)"/><ellipse class="cls-18" cx="922.85" cy="408.21" rx="2.19" ry="3.02" transform="translate(-24.61 60.94) rotate(-3.73)"/><ellipse class="cls-19" cx="922.62" cy="408.36" rx="2.19" ry="3.02" transform="translate(-28.34 71.23) rotate(-4.35)"/><ellipse class="cls-20" cx="922.39" cy="408.5" rx="2.2" ry="3.02" transform="translate(-31.96 81.55) rotate(-4.98)"/><ellipse class="cls-21" cx="922.16" cy="408.65" rx="2.2" ry="3.02" transform="translate(-35.46 91.89) rotate(-5.6)"/><polygon class="cls-9" points="975.4 429.47 971.15 430.37 969.53 431.36 973.93 430.37 973.93 430.37 975.4 429.47 975.4 429.47"/><polygon class="cls-10" points="978.32 439.75 973.93 440.74 969.54 436.54 969.54 431.36 973.93 430.37 978.32 434.57 978.32 439.75"/><polygon class="cls-11" points="979.69 433.73 975.4 429.47 973.93 430.37 978.32 434.57 978.32 434.6 979.69 433.76 979.69 433.73"/><polygon class="cls-9" points="978.32 434.6 978.32 439.74 979.69 438.9 979.69 433.76 978.32 434.6"/><ellipse class="cls-12" cx="973.1" cy="436" rx="2.2" ry="3.02"/><ellipse class="cls-13" cx="972.87" cy="436.14" rx="2.2" ry="3.02" transform="translate(-4.67 10.57) rotate(-0.62)"/><ellipse class="cls-14" cx="972.64" cy="436.28" rx="2.19" ry="3.02" transform="translate(-9.24 21.2) rotate(-1.24)"/><ellipse class="cls-15" cx="972.4" cy="436.43" rx="2.19" ry="3.02" transform="translate(-13.69 31.88) rotate(-1.87)"/><ellipse class="cls-16" cx="972.17" cy="436.57" rx="2.19" ry="3.02" transform="translate(-18.03 42.6) rotate(-2.49)"/><ellipse class="cls-17" cx="971.94" cy="436.71" rx="2.19" ry="3.02" transform="translate(-22.26 53.37) rotate(-3.11)"/><ellipse class="cls-18" cx="971.71" cy="436.86" rx="2.19" ry="3.02" transform="translate(-26.38 64.18) rotate(-3.73)"/><ellipse class="cls-19" cx="971.48" cy="437" rx="2.19" ry="3.02" transform="translate(-30.37 75.02) rotate(-4.35)"/><ellipse class="cls-20" cx="971.24" cy="437.14" rx="2.2" ry="3.02" transform="translate(-34.26 85.89) rotate(-4.98)"/><ellipse class="cls-21" cx="971.01" cy="437.29" rx="2.2" ry="3.02" transform="translate(-38.02 96.79) rotate(-5.6)"/><path class="cls-26" d="M839.58,492.55c1.65,1,4,1.07,5.24.14s.92-2.49-.73-3.5-4-1.07-5.24-.15S837.93,491.54,839.58,492.55Z"/><path class="cls-26" d="M827.64,501.42c1.65,1,4,1.07,5.25.14s.92-2.49-.73-3.5a5.14,5.14,0,0,0-5.25-.15C825.66,498.84,826,500.41,827.64,501.42Z"/><path class="cls-26" d="M791.83,528a5.14,5.14,0,0,0,5.25.15c1.24-.93.92-2.5-.73-3.5s-4-1.08-5.25-.15S790.18,527,791.83,528Z"/><path class="cls-26" d="M851.51,483.67c1.65,1,4,1.08,5.25.15s.92-2.5-.73-3.5-4-1.08-5.25-.15S849.86,482.67,851.51,483.67Z"/><path class="cls-26" d="M815.7,510.29a5.11,5.11,0,0,0,5.25.14c1.25-.92.92-2.49-.73-3.5s-4-1.07-5.24-.14S814.05,509.28,815.7,510.29Z"/><path class="cls-26" d="M803.77,519.16c1.65,1,4,1.07,5.24.15s.92-2.5-.73-3.51-4-1.07-5.24-.14S802.12,518.15,803.77,519.16Z"/><path class="cls-26" d="M863.45,474.8c1.65,1,4,1.08,5.24.15s.93-2.5-.72-3.5-4-1.08-5.25-.15S861.8,473.79,863.45,474.8Z"/><path class="cls-26" d="M911.19,439.32c1.65,1,4,1.07,5.25.14s.92-2.49-.73-3.5-4-1.07-5.24-.15S909.54,438.31,911.19,439.32Z"/><path class="cls-26" d="M875.39,465.93a5.12,5.12,0,0,0,5.24.15c1.25-.93.92-2.5-.73-3.51s-4-1.07-5.24-.14S873.74,464.92,875.39,465.93Z"/><path class="cls-26" d="M923.13,430.44c1.65,1,4,1.08,5.25.15s.92-2.5-.73-3.5-4-1.08-5.25-.15S921.48,429.44,923.13,430.44Z"/><path class="cls-26" d="M899.26,448.19c1.65,1,4,1.07,5.24.14s.92-2.49-.73-3.5a5.12,5.12,0,0,0-5.24-.15C897.28,445.61,897.61,447.18,899.26,448.19Z"/><path class="cls-26" d="M887.32,457.06a5.11,5.11,0,0,0,5.25.14c1.24-.92.92-2.49-.73-3.5a5.11,5.11,0,0,0-5.25-.14C885.35,454.48,885.67,456.05,887.32,457.06Z"/><path class="cls-26" d="M935.07,421.57a5.12,5.12,0,0,0,5.24.15c1.25-.93.92-2.5-.73-3.5s-4-1.08-5.24-.15S933.42,420.56,935.07,421.57Z"/><path class="cls-25" d="M962.51,415.62l-174.85,130,18.87,11.52L962.64,440.25l23,13.83-.17-24.46Zm15.09,23.84c-1.36.83-3.49-.17-4.76-2.24s-1.19-4.43.17-5.26,3.49.17,4.76,2.24S979,438.63,977.6,439.46Z"/><polygon class="cls-25" points="807.07 586.2 810.58 583.85 810.15 559.31 810.15 559.31 806.92 561.71 807.07 586.2"/><polygon class="cls-5" points="988.66 427.22 985.43 429.62 985.6 454.08 988.81 451.92 988.66 427.22"/><path class="cls-7" d="M916.16,387.32l.56,24.89,6.32,3.85,18.13-13.47Zm12.58,22.3c-1.36.83-3.49-.17-4.76-2.24s-1.19-4.43.17-5.26,3.49.17,4.76,2.24S930.1,408.79,928.74,409.62Z"/><polygon class="cls-4" points="810.15 559.31 810.15 559.31 806.53 557.1 804.94 558.29 810.15 559.31"/><path class="cls-4" d="M795.92,555l-8.26-9.4L962.31,415l23.12,14.64,3.23-2.4L919.53,385l-3.23,2.4,24.87,15.19h0l.72.44-17.31,14-1.54-.94L766.32,532.55l-24.87-15.19-3.22,2.39.07,0v0ZM934.34,418.07c1.25-.93,3.59-.86,5.24.15s2,2.57.73,3.5a5.12,5.12,0,0,1-5.24-.15C933.42,420.56,933.09,419,934.34,418.07Zm-11.94,8.87c1.25-.93,3.6-.86,5.25.15s2,2.57.73,3.5-3.6.86-5.25-.15S921.15,427.87,922.4,426.94Zm-11.93,8.87c1.24-.92,3.59-.86,5.24.15s2,2.57.73,3.5-3.6.86-5.25-.14S909.22,436.74,910.47,435.81Zm-11.94,8.87a5.12,5.12,0,0,1,5.24.15c1.65,1,2,2.58.73,3.5s-3.59.86-5.24-.14S897.28,445.61,898.53,444.68Zm-11.94,8.88a5.11,5.11,0,0,1,5.25.14c1.65,1,2,2.58.73,3.5a5.11,5.11,0,0,1-5.25-.14C885.67,456.05,885.35,454.48,886.59,453.56Zm-11.93,8.87c1.24-.93,3.59-.86,5.24.14s2,2.58.73,3.51a5.12,5.12,0,0,1-5.24-.15C873.74,464.92,873.41,463.35,874.66,462.43Zm-11.94,8.87c1.25-.93,3.6-.86,5.25.15s2,2.57.72,3.5-3.59.86-5.24-.15S861.47,472.23,862.72,471.3Zm-11.94,8.87c1.25-.93,3.6-.86,5.25.15s2,2.57.73,3.5-3.6.86-5.25-.15S849.54,481.1,850.78,480.17ZM838.85,489c1.24-.92,3.59-.86,5.24.15s2,2.57.73,3.5-3.59.86-5.24-.14S837.6,490,838.85,489Zm-11.94,8.87a5.14,5.14,0,0,1,5.25.15c1.65,1,2,2.58.73,3.5s-3.6.86-5.25-.14S825.66,498.84,826.91,497.91ZM815,506.79c1.24-.93,3.59-.87,5.24.14s2,2.58.73,3.5a5.11,5.11,0,0,1-5.25-.14C814.05,509.28,813.73,507.71,815,506.79ZM803,515.66c1.25-.93,3.59-.86,5.24.14s2,2.58.73,3.51-3.59.86-5.24-.15S801.79,516.58,803,515.66Zm-11.94,8.87c1.25-.93,3.6-.86,5.25.15s2,2.57.73,3.5a5.14,5.14,0,0,1-5.25-.15C790.18,527,789.86,525.46,791.1,524.53Z"/><polygon class="cls-4" points="962.51 415.62 985.43 429.62 962.31 414.98 787.66 545.58 795.92 554.98 806.92 561.71 810.15 559.31 804.94 558.29 806.53 557.1 787.66 545.58 962.51 415.62"/><polygon class="cls-4" points="941.89 403.03 941.17 402.59 923.04 416.06 924.58 417 941.89 403.03"/><path class="cls-8" d="M973,432c-1.36.83-1.43,3.19-.17,5.26s3.4,3.07,4.76,2.24,1.43-3.18.17-5.26S974.37,431.13,973,432Z"/><path class="cls-8" d="M928.91,404.36c-1.27-2.07-3.4-3.07-4.76-2.24s-1.44,3.19-.17,5.26,3.4,3.07,4.76,2.24S930.17,406.44,928.91,404.36Z"/><path class="cls-25" d="M795.93,555,738.3,519.8v24.65l68.77,41.75L798.59,558Zm-44.47-11.38c-2,.85-4.68-1.13-6.1-4.42s-1-6.62.95-7.47,4.68,1.14,6.1,4.42S753.4,542.78,751.46,543.62Zm41.8,26c-2,.84-4.68-1.14-6.1-4.42s-1-6.63,1-7.47,4.67,1.14,6.09,4.42S795.21,568.81,793.26,569.65Z"/><polygon class="cls-25" points="795.93 555 798.59 558.02 807.07 586.2 806.92 561.71 795.93 555"/><polygon class="cls-25" points="795.92 554.98 738.3 519.75 738.3 519.8 795.93 555 795.92 554.98"/><polygon class="cls-25" points="806.92 561.71 795.92 554.98 795.93 555 806.92 561.71"/><path class="cls-26" d="M863.45,853.71c1.65,1,4,1.07,5.24.15s.93-2.5-.72-3.51a5.11,5.11,0,0,0-5.25-.14C861.47,851.13,861.8,852.7,863.45,853.71Z"/><path class="cls-26" d="M827.64,880.32c1.65,1,4,1.08,5.25.15s.92-2.49-.73-3.5-4-1.08-5.25-.15S826,879.32,827.64,880.32Z"/><path class="cls-26" d="M839.58,871.45c1.65,1,4,1.08,5.24.15s.92-2.5-.73-3.5-4-1.08-5.24-.15S837.93,870.45,839.58,871.45Z"/><path class="cls-26" d="M851.51,862.58a5.14,5.14,0,0,0,5.25.15c1.25-.93.92-2.5-.73-3.51s-4-1.07-5.25-.14S849.86,861.57,851.51,862.58Z"/><path class="cls-26" d="M815.7,889.2c1.65,1,4,1.07,5.25.14s.92-2.49-.73-3.5-4-1.07-5.24-.15S814.05,888.19,815.7,889.2Z"/><path class="cls-26" d="M803.77,898.07c1.65,1,4,1.07,5.24.14s.92-2.49-.73-3.5a5.09,5.09,0,0,0-5.24-.14C801.79,895.49,802.12,897.06,803.77,898.07Z"/><path class="cls-26" d="M887.32,836c1.65,1,4,1.07,5.25.14s.92-2.49-.73-3.5a5.14,5.14,0,0,0-5.25-.15C885.35,833.39,885.67,835,887.32,836Z"/><path class="cls-26" d="M935.07,800.48a5.12,5.12,0,0,0,5.24.15c1.25-.93.92-2.5-.73-3.51a5.09,5.09,0,0,0-5.24-.14C933.09,797.9,933.42,799.47,935.07,800.48Z"/><path class="cls-26" d="M923.13,809.35a5.14,5.14,0,0,0,5.25.15c1.24-.93.92-2.5-.73-3.51s-4-1.07-5.25-.14S921.48,808.34,923.13,809.35Z"/><path class="cls-26" d="M791.83,906.94a5.14,5.14,0,0,0,5.25.15c1.24-.93.92-2.5-.73-3.51s-4-1.07-5.25-.14S790.18,905.93,791.83,906.94Z"/><path class="cls-26" d="M875.39,844.84a5.09,5.09,0,0,0,5.24.14c1.25-.92.92-2.49-.73-3.5s-4-1.07-5.24-.15S873.74,843.83,875.39,844.84Z"/><path class="cls-26" d="M899.26,827.09c1.65,1,4,1.08,5.24.15s.92-2.5-.73-3.5-4-1.08-5.24-.15S897.61,826.09,899.26,827.09Z"/><path class="cls-26" d="M911.19,818.22c1.65,1,4,1.08,5.25.15s.92-2.5-.73-3.5-4-1.08-5.24-.15S909.54,817.22,911.19,818.22Z"/><path class="cls-25" d="M985.43,808.52l-22.92-14-174.85,130L806.53,936,962.64,819.16l23,13.83-.17-24.47Zm-7.83,9.85c-1.36.83-3.49-.17-4.76-2.25s-1.19-4.42.17-5.25,3.49.17,4.76,2.24S979,817.54,977.6,818.37Z"/><polygon class="cls-25" points="807.07 965.11 810.58 962.76 810.15 938.22 810.15 938.22 806.92 940.62 807.07 965.11"/><polygon class="cls-5" points="988.66 806.13 986.24 807.92 985.43 808.52 985.6 832.99 988.81 830.82 988.66 806.13"/><path class="cls-7" d="M916.16,766.23l.56,24.88L923,795l18.13-13.47Zm12.58,22.3c-1.36.83-3.49-.17-4.76-2.25s-1.19-4.42.17-5.25,3.49.17,4.76,2.24S930.1,787.7,928.74,788.53Z"/><polygon class="cls-4" points="810.15 938.22 810.15 938.22 806.53 936.01 804.94 937.2 810.15 938.22"/><path class="cls-4" d="M795.92,933.89l-8.26-9.41L962.31,793.89l23.12,14.63.81-.6,2.42-1.79-69.13-42.22-3.23,2.4,24.87,15.18h0l.72.44-17.31,14L923,795,766.32,911.45l-24.87-15.19-3.22,2.4.07.05v-.05ZM934.34,797a5.09,5.09,0,0,1,5.24.14c1.65,1,2,2.58.73,3.51a5.12,5.12,0,0,1-5.24-.15C933.42,799.47,933.09,797.9,934.34,797Zm-11.94,8.87c1.25-.93,3.6-.86,5.25.14s2,2.58.73,3.51a5.14,5.14,0,0,1-5.25-.15C921.48,808.34,921.15,806.78,922.4,805.85Zm-11.93,8.87c1.24-.93,3.59-.86,5.24.15s2,2.57.73,3.5-3.6.86-5.25-.15S909.22,815.65,910.47,814.72Zm-11.94,8.87c1.25-.93,3.59-.86,5.24.15s2,2.57.73,3.5-3.59.86-5.24-.15S897.28,824.52,898.53,823.59Zm-11.94,8.87a5.14,5.14,0,0,1,5.25.15c1.65,1,2,2.57.73,3.5s-3.6.86-5.25-.14S885.35,833.39,886.59,832.46Zm-11.93,8.87c1.24-.92,3.59-.86,5.24.15s2,2.58.73,3.5a5.09,5.09,0,0,1-5.24-.14C873.74,843.83,873.41,842.26,874.66,841.33Zm-11.94,8.88a5.11,5.11,0,0,1,5.25.14c1.65,1,2,2.58.72,3.51s-3.59.86-5.24-.15S861.47,851.13,862.72,850.21Zm-11.94,8.87c1.25-.93,3.6-.86,5.25.14s2,2.58.73,3.51a5.14,5.14,0,0,1-5.25-.15C849.86,861.57,849.54,860,850.78,859.08ZM838.85,868c1.24-.93,3.59-.86,5.24.15s2,2.57.73,3.5-3.59.86-5.24-.15S837.6,868.88,838.85,868Zm-11.94,8.87c1.25-.93,3.6-.86,5.25.15s2,2.57.73,3.5-3.6.86-5.25-.15S825.66,877.75,826.91,876.82ZM815,885.69c1.24-.92,3.59-.86,5.24.15s2,2.58.73,3.5-3.6.86-5.25-.14S813.73,886.62,815,885.69ZM803,894.57a5.09,5.09,0,0,1,5.24.14c1.65,1,2,2.58.73,3.5s-3.59.87-5.24-.14S801.79,895.49,803,894.57Zm-11.94,8.87c1.25-.93,3.6-.86,5.25.14s2,2.58.73,3.51a5.14,5.14,0,0,1-5.25-.15C790.18,905.93,789.86,904.36,791.1,903.44Z"/><polygon class="cls-4" points="962.51 794.52 985.43 808.52 985.43 808.52 985.43 808.52 962.31 793.89 787.66 924.48 795.92 933.89 806.92 940.62 810.15 938.22 804.94 937.2 806.53 936.01 787.66 924.48 962.51 794.52"/><polygon class="cls-4" points="985.43 808.52 986.24 807.92 985.43 808.52 985.43 808.52"/><polygon class="cls-4" points="941.89 781.94 941.17 781.5 923.04 794.97 924.58 795.91 941.89 781.94"/><path class="cls-8" d="M973,810.87c-1.36.83-1.43,3.18-.17,5.25s3.4,3.08,4.76,2.25,1.43-3.19.17-5.26S974.37,810,973,810.87Z"/><path class="cls-8" d="M928.91,783.27c-1.27-2.07-3.4-3.08-4.76-2.24s-1.44,3.18-.17,5.25,3.4,3.08,4.76,2.25S930.17,785.34,928.91,783.27Z"/><path class="cls-25" d="M795.93,933.91l-57.63-35.2v24.65l68.77,41.75-8.48-28.18Zm-44.47-9.66c-2,.84-4.68-1.14-6.1-4.42s-1-6.63.95-7.47,4.68,1.14,6.1,4.42S753.4,923.41,751.46,924.25Zm41.8,26c-2,.84-4.68-1.14-6.1-4.42s-1-6.63,1-7.47,4.67,1.13,6.09,4.42S795.21,949.43,793.26,950.28Z"/><polygon class="cls-25" points="795.93 933.9 798.59 936.93 807.07 965.11 806.92 940.62 795.93 933.9"/><polygon class="cls-25" points="795.92 933.89 738.3 898.66 738.3 898.71 795.93 933.9 795.92 933.89"/><polygon class="cls-25" points="806.92 940.62 795.92 933.89 795.93 933.9 806.92 940.62"/><polygon class="cls-9" points="927.26 779.63 923.01 780.53 921.39 781.53 925.79 780.53 925.79 780.53 927.26 779.63 927.26 779.63"/><polygon class="cls-10" points="930.18 789.92 925.79 790.9 921.4 786.71 921.4 781.52 925.79 780.53 930.18 784.73 930.18 789.92"/><polygon class="cls-11" points="931.55 783.89 927.26 779.63 925.79 780.53 930.18 784.73 930.18 784.76 931.55 783.92 931.55 783.89"/><polygon class="cls-9" points="930.18 784.76 930.18 789.9 931.55 789.07 931.55 783.92 930.18 784.76"/><ellipse class="cls-12" cx="924.96" cy="786.16" rx="2.2" ry="3.02"/><ellipse class="cls-13" cx="924.73" cy="786.3" rx="2.2" ry="3.02" transform="translate(-8.47 10.07) rotate(-0.62)"/><ellipse class="cls-14" cx="924.5" cy="786.45" rx="2.19" ry="3.02" transform="translate(-16.84 20.24) rotate(-1.24)"/><ellipse class="cls-15" cx="924.26" cy="786.59" rx="2.19" ry="3.02" transform="translate(-25.11 30.5) rotate(-1.87)"/><ellipse class="cls-16" cx="924.03" cy="786.73" rx="2.19" ry="3.02" transform="translate(-33.27 40.84) rotate(-2.49)"/><ellipse class="cls-17" cx="923.8" cy="786.88" rx="2.19" ry="3.02" transform="translate(-41.33 51.28) rotate(-3.11)"/><ellipse class="cls-18" cx="923.57" cy="787.02" rx="2.19" ry="3.02" transform="translate(-49.27 61.79) rotate(-3.73)"/><ellipse class="cls-19" cx="923.34" cy="787.16" rx="2.19" ry="3.02" transform="translate(-57.1 72.38) rotate(-4.35)"/><ellipse class="cls-20" cx="923.11" cy="787.31" rx="2.2" ry="3.02" transform="translate(-64.81 83.04) rotate(-4.98)"/><ellipse class="cls-21" cx="922.87" cy="787.45" rx="2.2" ry="3.02" transform="translate(-72.4 93.77) rotate(-5.6)"/><polygon class="cls-9" points="975.99 809.84 971.74 810.74 970.11 811.74 974.52 810.74 974.52 810.74 975.99 809.84 975.99 809.84"/><polygon class="cls-10" points="978.91 820.13 974.52 821.11 970.13 816.92 970.13 811.73 974.52 810.74 978.91 814.94 978.91 820.13"/><polygon class="cls-11" points="980.27 814.1 975.99 809.84 974.52 810.74 978.91 814.94 978.91 814.97 980.27 814.13 980.27 814.1"/><polygon class="cls-9" points="978.91 814.97 978.91 820.11 980.27 819.28 980.27 814.13 978.91 814.97"/><ellipse class="cls-12" cx="973.69" cy="816.37" rx="2.2" ry="3.02"/><ellipse class="cls-13" cx="973.45" cy="816.51" rx="2.2" ry="3.02" transform="translate(-8.8 10.6) rotate(-0.62)"/><ellipse class="cls-14" cx="973.22" cy="816.66" rx="2.19" ry="3.02" transform="translate(-17.49 21.3) rotate(-1.24)"/><ellipse class="cls-15" cx="972.99" cy="816.8" rx="2.19" ry="3.02" transform="translate(-26.07 32.1) rotate(-1.87)"/><ellipse class="cls-16" cx="972.76" cy="816.94" rx="2.19" ry="3.02" transform="translate(-34.54 42.99) rotate(-2.49)"/><ellipse class="cls-17" cx="972.53" cy="817.09" rx="2.19" ry="3.02" transform="translate(-42.9 53.96) rotate(-3.11)"/><ellipse class="cls-18" cx="972.3" cy="817.23" rx="2.19" ry="3.02" transform="translate(-51.13 65.02) rotate(-3.73)"/><ellipse class="cls-19" cx="972.06" cy="817.37" rx="2.19" ry="3.02" transform="translate(-59.25 76.16) rotate(-4.35)"/><ellipse class="cls-20" cx="971.83" cy="817.52" rx="2.2" ry="3.02" transform="matrix(1, -0.09, 0.09, 1, -67.25, 87.38)"/><ellipse class="cls-21" cx="971.6" cy="817.66" rx="2.2" ry="3.02" transform="matrix(1, -0.1, 0.1, 1, -75.12, 98.67)"/><polygon class="cls-9" points="927.28 400.44 923.03 401.34 921.4 402.34 925.81 401.34 925.81 401.35 927.28 400.44 927.28 400.44"/><polygon class="cls-10" points="930.2 410.73 925.81 411.72 921.42 407.52 921.42 402.33 925.81 401.34 930.2 405.54 930.2 410.73"/><polygon class="cls-11" points="931.56 404.7 927.28 400.44 925.81 401.35 930.2 405.54 930.2 405.57 931.56 404.74 931.56 404.7"/><polygon class="cls-9" points="930.2 405.57 930.2 410.71 931.56 409.88 931.56 404.74 930.2 405.57"/><ellipse class="cls-12" cx="924.97" cy="406.97" rx="2.2" ry="3.02"/><ellipse class="cls-13" cx="924.74" cy="407.11" rx="2.2" ry="3.02" transform="translate(-4.36 10.05) rotate(-0.62)"/><ellipse class="cls-14" cx="924.51" cy="407.26" rx="2.19" ry="3.02" transform="translate(-8.62 20.15) rotate(-1.24)"/><ellipse class="cls-15" cx="924.28" cy="407.4" rx="2.19" ry="3.02" transform="translate(-12.77 30.3) rotate(-1.87)"/><ellipse class="cls-16" cx="924.05" cy="407.54" rx="2.19" ry="3.02" transform="matrix(1, -0.04, 0.04, 1, -16.82, 40.49)"/><ellipse class="cls-17" cx="923.82" cy="407.69" rx="2.19" ry="3.02" transform="translate(-20.76 50.72) rotate(-3.11)"/><ellipse class="cls-18" cx="923.58" cy="407.83" rx="2.19" ry="3.02" transform="translate(-24.59 60.98) rotate(-3.73)"/><ellipse class="cls-19" cx="923.35" cy="407.97" rx="2.19" ry="3.02" transform="translate(-28.31 71.28) rotate(-4.35)"/><ellipse class="cls-20" cx="923.12" cy="408.12" rx="2.2" ry="3.02" transform="translate(-31.92 81.61) rotate(-4.98)"/><ellipse class="cls-21" cx="922.89" cy="408.26" rx="2.2" ry="3.02" transform="translate(-35.42 91.96) rotate(-5.6)"/><polygon class="cls-9" points="976.01 430.65 971.75 431.55 970.13 432.55 974.53 431.55 974.54 431.55 976.01 430.65 976.01 430.65"/><polygon class="cls-10" points="978.92 440.94 974.53 441.93 970.14 437.73 970.14 432.54 974.53 431.55 978.92 435.75 978.92 440.94"/><polygon class="cls-11" points="980.29 434.91 976.01 430.65 974.54 431.55 978.92 435.75 978.92 435.78 980.29 434.94 980.29 434.91"/><polygon class="cls-9" points="978.92 435.78 978.92 440.92 980.29 440.09 980.29 434.94 978.92 435.78"/><ellipse class="cls-12" cx="973.7" cy="437.18" rx="2.2" ry="3.02"/><ellipse class="cls-13" cx="973.47" cy="437.32" rx="2.2" ry="3.02" transform="translate(-4.68 10.58) rotate(-0.62)"/><ellipse class="cls-14" cx="973.24" cy="437.47" rx="2.19" ry="3.02" transform="translate(-9.26 21.22) rotate(-1.24)"/><ellipse class="cls-15" cx="973.01" cy="437.61" rx="2.19" ry="3.02" transform="translate(-13.73 31.9) rotate(-1.87)"/><ellipse class="cls-16" cx="972.77" cy="437.75" rx="2.19" ry="3.02" transform="translate(-18.08 42.63) rotate(-2.49)"/><ellipse class="cls-17" cx="972.54" cy="437.9" rx="2.19" ry="3.02" transform="translate(-22.32 53.41) rotate(-3.11)"/><ellipse class="cls-18" cx="972.31" cy="438.04" rx="2.19" ry="3.02" transform="translate(-26.45 64.22) rotate(-3.73)"/><ellipse class="cls-19" cx="972.08" cy="438.18" rx="2.19" ry="3.02" transform="translate(-30.46 75.07) rotate(-4.35)"/><ellipse class="cls-20" cx="971.85" cy="438.33" rx="2.2" ry="3.02" transform="matrix(1, -0.09, 0.09, 1, -34.36, 85.95)"/><ellipse class="cls-21" cx="971.62" cy="438.47" rx="2.2" ry="3.02" transform="translate(-38.13 96.86) rotate(-5.6)"/><path class="cls-4" d="M806.52,940.89,129.39,526.83l-18,14.18,675.91,412.8Zm-13.74,3.7a6.11,6.11,0,0,1-5.85-.05c-1.65-1-1.71-2.62-.13-3.6a6.06,6.06,0,0,1,5.84,0C794.3,942,794.35,943.6,792.78,944.59Zm-16.94-10.35a6.06,6.06,0,0,1-5.84,0c-1.65-1-1.71-2.62-.14-3.61a6.11,6.11,0,0,1,5.84,0C777.36,931.64,777.42,933.26,775.84,934.24ZM758.9,923.9a6.09,6.09,0,0,1-5.84,0c-1.65-1-1.71-2.63-.14-3.61a6.06,6.06,0,0,1,5.84,0C760.42,921.3,760.48,922.91,758.9,923.9ZM742,913.56a6.09,6.09,0,0,1-5.83,0c-1.65-1-1.72-2.63-.14-3.62a6.07,6.07,0,0,1,5.83,0C743.48,911,743.54,912.57,742,913.56ZM725,903.21a6.06,6.06,0,0,1-5.84,0c-1.65-1-1.71-2.62-.14-3.61a6,6,0,0,1,5.83,0C726.54,900.6,726.6,902.22,725,903.21Zm-16.94-10.34a6,6,0,0,1-5.83,0c-1.65-1-1.72-2.62-.15-3.61a6,6,0,0,1,5.83,0C709.6,890.26,709.66,891.88,708.09,892.87Zm-16.94-10.35a6,6,0,0,1-5.82,0c-1.65-1-1.72-2.63-.15-3.62a6,6,0,0,1,5.82,0C692.66,879.91,692.72,881.53,691.15,882.52Zm-49.53-30.25a6,6,0,0,1-5.81,0c-1.66-1-1.73-2.63-.16-3.63a6,6,0,0,1,5.82,0C643.12,849.66,643.19,851.28,641.62,852.27Zm-28.93-23.12,3.23-2.06,12.82,7.82L625.5,837ZM174,566.66a5.74,5.74,0,0,1,5.73,0c1.66,1,1.76,2.66.24,3.68a5.77,5.77,0,0,1-5.73,0C172.55,569.32,172.44,567.68,174,566.66ZM194.15,579a5.79,5.79,0,0,1,5.74,0c1.65,1,1.75,2.65.23,3.67a5.79,5.79,0,0,1-5.74,0C192.73,581.65,192.63,580,194.15,579Zm44.15,27a5.83,5.83,0,0,1,5.75,0c1.65,1,1.75,2.65.22,3.67a5.81,5.81,0,0,1-5.74,0C236.88,608.61,236.77,607,238.3,606Zm44.15,27a5.83,5.83,0,0,1,5.75,0c1.65,1,1.75,2.65.22,3.66a5.83,5.83,0,0,1-5.75,0C281,635.57,280.92,633.93,282.45,632.91Zm44.15,27a5.85,5.85,0,0,1,5.76,0c1.65,1,1.75,2.65.21,3.66a5.85,5.85,0,0,1-5.76,0C325.16,662.53,325.06,660.89,326.6,659.88Zm44.15,27a5.87,5.87,0,0,1,5.77,0c1.65,1,1.74,2.64.2,3.65a5.87,5.87,0,0,1-5.77,0C369.3,689.48,369.21,687.85,370.75,686.84Zm44.15,27a5.92,5.92,0,0,1,5.78,0c1.65,1,1.74,2.64.19,3.65a5.92,5.92,0,0,1-5.78,0C413.44,716.44,413.36,714.81,414.9,713.8Zm44.15,27a5.89,5.89,0,0,1,5.78,0c1.66,1,1.74,2.64.19,3.64a5.92,5.92,0,0,1-5.78,0C457.59,743.4,457.5,741.77,459.05,740.77Zm44.15,27a6,6,0,0,1,5.79,0c1.65,1,1.73,2.64.18,3.64a5.94,5.94,0,0,1-5.79,0C501.73,770.36,501.65,768.73,503.2,767.73Zm44.15,27a6,6,0,0,1,5.8,0c1.65,1,1.73,2.64.17,3.64a6,6,0,0,1-5.8,0C545.87,797.32,545.79,795.69,547.35,794.7Zm44.15,27a6,6,0,0,1,5.81,0c1.65,1,1.72,2.63.16,3.63a6,6,0,0,1-5.81,0C590,824.28,589.94,822.66,591.5,821.66ZM604,834.72l9,.63.25-.16.41-.26,3.36-2.14,2.45,1.5-5.25,3.34a2.24,2.24,0,0,0-.37.28c-.72.63-.81,1.38-.14,1.79a3.37,3.37,0,0,0,2.86-.13,3,3,0,0,0,.43-.24l5.25-3.34,2.46,1.5-5.26,3.34-.4.26h0c-2.85,1.63-6.64,2-8.66.74-1.66-1-1.64-2.78-.18-4.38l-9.46-.66Z"/><path class="cls-5" d="M787.27,953.81,111.36,541l-.71,24.18L787.18,977.67Zm-659-390.19c-.1-2,1.15-2.74,2.8-1.73a7.49,7.49,0,0,1,3.17,5.38c.1,2-1.15,2.74-2.8,1.73A7.45,7.45,0,0,1,128.23,563.62Zm14,8.57c-.1-2,1.15-2.74,2.8-1.73a7.47,7.47,0,0,1,3.17,5.38c.1,2-1.15,2.74-2.8,1.73A7.47,7.47,0,0,1,142.26,572.19Zm14,8.57c-.1-2,1.15-2.74,2.8-1.73a7.47,7.47,0,0,1,3.17,5.38c.1,2-1.15,2.74-2.8,1.73A7.49,7.49,0,0,1,156.29,580.76Zm14,8.57c-.1-2,1.16-2.74,2.81-1.73a7.47,7.47,0,0,1,3.16,5.38c.1,2-1.15,2.73-2.8,1.73A7.49,7.49,0,0,1,170.32,589.33Zm14,8.57c-.1-2,1.16-2.74,2.81-1.73a7.44,7.44,0,0,1,3.16,5.38c.1,2-1.15,2.73-2.8,1.73A7.49,7.49,0,0,1,184.35,597.9Zm14,8.57c-.1-2,1.16-2.74,2.81-1.73a7.44,7.44,0,0,1,3.16,5.37c.1,2-1.16,2.74-2.8,1.73A7.45,7.45,0,0,1,198.38,606.47Zm14,8.57c-.1-2,1.16-2.74,2.81-1.73a7.41,7.41,0,0,1,3.16,5.37c.1,2-1.16,2.74-2.8,1.73A7.45,7.45,0,0,1,212.41,615Zm14,8.56c-.1-2,1.16-2.73,2.81-1.72a7.41,7.41,0,0,1,3.16,5.37c.1,2-1.16,2.74-2.8,1.73A7.47,7.47,0,0,1,226.44,623.6Zm14,8.57c-.09-2,1.16-2.73,2.81-1.72a7.45,7.45,0,0,1,3.17,5.37c.09,2-1.17,2.74-2.82,1.73A7.49,7.49,0,0,1,240.47,632.17Zm14,8.57c-.09-2,1.17-2.73,2.81-1.73a7.49,7.49,0,0,1,3.17,5.38c.09,2-1.17,2.74-2.82,1.73A7.51,7.51,0,0,1,254.5,640.74ZM269,649.6c-.1-2,1.16-2.73,2.81-1.73a7.48,7.48,0,0,1,3.16,5.38c.1,2-1.16,2.73-2.81,1.73A7.45,7.45,0,0,1,269,649.6Zm7.66,4.68c-.1-2,1.16-2.74,2.81-1.73a7.48,7.48,0,0,1,3.16,5.38c.09,2-1.16,2.73-2.81,1.72A7.41,7.41,0,0,1,276.67,654.28Zm7.66,4.68c-.1-2,1.16-2.74,2.81-1.73a7.46,7.46,0,0,1,3.16,5.37c.09,2-1.17,2.74-2.82,1.73A7.45,7.45,0,0,1,284.33,659Zm7.65,4.67c-.09-2,1.17-2.73,2.82-1.72a7.44,7.44,0,0,1,3.16,5.37c.09,2-1.17,2.73-2.82,1.73A7.48,7.48,0,0,1,292,663.63Zm7.66,4.68c-.09-2,1.17-2.73,2.82-1.73a7.48,7.48,0,0,1,3.16,5.38c.09,2-1.17,2.73-2.82,1.72A7.44,7.44,0,0,1,299.64,668.31ZM307.3,673c-.09-2,1.17-2.74,2.82-1.73a7.44,7.44,0,0,1,3.15,5.38c.1,2-1.16,2.73-2.81,1.72A7.46,7.46,0,0,1,307.3,673Zm7.66,4.68c-.09-2,1.17-2.74,2.82-1.73a7.45,7.45,0,0,1,3.15,5.37c.1,2-1.16,2.74-2.81,1.73A7.43,7.43,0,0,1,315,677.67Zm7.66,4.67c-.1-2,1.17-2.73,2.81-1.72a7.41,7.41,0,0,1,3.16,5.37c.09,2-1.17,2.73-2.82,1.72A7.43,7.43,0,0,1,322.62,682.34Zm7.66,4.68c-.1-2,1.16-2.73,2.81-1.73a7.45,7.45,0,0,1,3.16,5.38c.09,2-1.17,2.73-2.82,1.72A7.42,7.42,0,0,1,330.28,687Zm7.66,4.68c-.1-2,1.16-2.73,2.81-1.73a7.45,7.45,0,0,1,3.16,5.37c.09,2-1.17,2.74-2.82,1.73A7.42,7.42,0,0,1,337.94,691.7Zm7.65,4.67c-.09-2,1.17-2.73,2.82-1.72a7.46,7.46,0,0,1,3.16,5.37c.09,2-1.17,2.73-2.82,1.73A7.48,7.48,0,0,1,345.59,696.37Zm7.66,4.68c-.09-2,1.17-2.73,2.82-1.72a7.46,7.46,0,0,1,3.16,5.37c.09,2-1.17,2.73-2.82,1.72A7.44,7.44,0,0,1,353.25,701.05Zm7.66,4.68c-.09-2,1.17-2.73,2.82-1.72a7.4,7.4,0,0,1,3.15,5.37c.1,2-1.17,2.73-2.81,1.72A7.43,7.43,0,0,1,360.91,705.73Zm7.66,4.68c-.09-2,1.17-2.73,2.82-1.73a7.44,7.44,0,0,1,3.15,5.37c.09,2-1.17,2.73-2.82,1.73A7.42,7.42,0,0,1,368.57,710.41Zm7.66,4.67c-.09-2,1.17-2.73,2.82-1.72a7.42,7.42,0,0,1,3.15,5.37c.09,2-1.17,2.73-2.82,1.72A7.4,7.4,0,0,1,376.23,715.08Zm7.66,4.68c-.09-2,1.17-2.73,2.82-1.72a7.42,7.42,0,0,1,3.15,5.37c.09,2-1.17,2.73-2.82,1.72A7.42,7.42,0,0,1,383.89,719.76Zm7.66,4.68c-.1-2,1.17-2.73,2.82-1.72a7.4,7.4,0,0,1,3.15,5.37c.09,1.95-1.17,2.73-2.82,1.72A7.42,7.42,0,0,1,391.55,724.44Zm7.65,4.68c-.09-2,1.18-2.73,2.83-1.73a7.44,7.44,0,0,1,3.15,5.37c.09,2-1.17,2.73-2.82,1.73A7.48,7.48,0,0,1,399.2,729.12Zm7.66,4.67c-.09-1.95,1.18-2.73,2.83-1.72a7.45,7.45,0,0,1,3.15,5.37c.09,2-1.18,2.73-2.83,1.72A7.4,7.4,0,0,1,406.86,733.79Zm7.66,4.68c-.09-2,1.18-2.73,2.82-1.72a7.42,7.42,0,0,1,3.15,5.37c.09,2-1.17,2.73-2.82,1.72A7.42,7.42,0,0,1,414.52,738.47Zm7.66,4.68c-.09-2,1.17-2.73,2.82-1.72a7.4,7.4,0,0,1,3.15,5.37c.09,2-1.17,2.72-2.82,1.72A7.42,7.42,0,0,1,422.18,743.15Zm15.12,9.23c-.09-2,1.17-2.73,2.82-1.72a7.42,7.42,0,0,1,3.15,5.37c.09,2-1.18,2.72-2.82,1.72A7.42,7.42,0,0,1,437.3,752.38Zm15.11,9.23c-.09-2,1.18-2.73,2.83-1.72a7.42,7.42,0,0,1,3.15,5.37c.08,2-1.18,2.73-2.83,1.72A7.42,7.42,0,0,1,452.41,761.61Zm15.12,9.23c-.09-2,1.18-2.72,2.82-1.72a7.42,7.42,0,0,1,3.15,5.37c.09,2-1.18,2.73-2.83,1.72A7.44,7.44,0,0,1,467.53,770.84Zm15.11,9.24c-.08-2,1.18-2.73,2.83-1.72a7.4,7.4,0,0,1,3.15,5.36c.08,2-1.18,2.73-2.83,1.72A7.42,7.42,0,0,1,482.64,780.08Zm15.12,9.23c-.09-2,1.18-2.73,2.83-1.72a7.37,7.37,0,0,1,3.14,5.36c.09,2-1.18,2.73-2.83,1.72A7.44,7.44,0,0,1,497.76,789.31Zm15.12,9.23c-.09-2,1.18-2.73,2.83-1.72a7.44,7.44,0,0,1,3.14,5.37c.09,1.95-1.18,2.72-2.83,1.71A7.35,7.35,0,0,1,512.88,798.54ZM528,807.77c-.08-2,1.18-2.72,2.83-1.72a7.37,7.37,0,0,1,3.14,5.37c.09,2-1.18,2.72-2.83,1.71A7.37,7.37,0,0,1,528,807.77ZM543.11,817c-.09-2,1.18-2.72,2.83-1.71a7.37,7.37,0,0,1,3.14,5.36c.09,2-1.18,2.72-2.83,1.71A7.34,7.34,0,0,1,543.11,817Zm15.11,9.23c-.08-2,1.19-2.72,2.84-1.71a7.4,7.4,0,0,1,3.14,5.36c.08,2-1.19,2.72-2.84,1.72A7.41,7.41,0,0,1,558.22,826.23Zm15.12,9.24c-.08-2,1.18-2.73,2.83-1.72a7.37,7.37,0,0,1,3.14,5.36c.09,2-1.18,2.72-2.83,1.72A7.37,7.37,0,0,1,573.34,835.47Zm15.12,9.23c-.09-2,1.18-2.72,2.83-1.72a7.4,7.4,0,0,1,3.14,5.36c.08,2-1.19,2.73-2.84,1.72A7.36,7.36,0,0,1,588.46,844.7Zm15.11,9.23c-.08-1.95,1.19-2.72,2.84-1.71a7.32,7.32,0,0,1,3.13,5.36c.09,1.95-1.18,2.72-2.83,1.71A7.37,7.37,0,0,1,603.57,853.93Zm15.12,9.23c-.09-1.95,1.18-2.72,2.83-1.71a7.37,7.37,0,0,1,3.14,5.36c.08,2-1.19,2.72-2.84,1.71A7.36,7.36,0,0,1,618.69,863.16Zm15.11,9.23c-.08-1.95,1.19-2.72,2.84-1.71a7.4,7.4,0,0,1,3.14,5.36c.08,2-1.19,2.72-2.84,1.71A7.4,7.4,0,0,1,633.8,872.39Zm15.12,9.23c-.08-2,1.19-2.71,2.84-1.71a7.36,7.36,0,0,1,3.13,5.36c.08,2-1.19,2.72-2.84,1.71A7.32,7.32,0,0,1,648.92,881.62ZM664,890.86c-.08-2,1.2-2.72,2.84-1.72A7.37,7.37,0,0,1,670,894.5c.08,2-1.19,2.72-2.84,1.71A7.37,7.37,0,0,1,664,890.86Zm15.12,9.23c-.08-2,1.19-2.72,2.84-1.71a7.32,7.32,0,0,1,3.13,5.35c.08,2-1.19,2.72-2.84,1.71A7.32,7.32,0,0,1,679.15,900.09Zm15.12,9.23c-.08-2,1.19-2.72,2.84-1.71a7.36,7.36,0,0,1,3.13,5.36c.08,1.95-1.19,2.71-2.84,1.71A7.36,7.36,0,0,1,694.27,909.32Zm15.11,9.23c-.08-1.95,1.2-2.72,2.85-1.71a7.39,7.39,0,0,1,3.13,5.36c.07,1.95-1.2,2.71-2.85,1.71A7.36,7.36,0,0,1,709.38,918.55Zm15.12,9.23c-.08-1.95,1.19-2.71,2.84-1.71a7.36,7.36,0,0,1,3.13,5.36c.08,2-1.19,2.72-2.84,1.71A7.36,7.36,0,0,1,724.5,927.78ZM739.61,937c-.07-2,1.2-2.71,2.85-1.7a7.32,7.32,0,0,1,3.13,5.35c.07,2-1.2,2.72-2.85,1.71A7.36,7.36,0,0,1,739.61,937Zm15.12,9.24c-.08-2,1.2-2.72,2.85-1.71a7.3,7.3,0,0,1,3.12,5.35c.08,2-1.19,2.72-2.84,1.71A7.34,7.34,0,0,1,754.73,946.25Zm15.12,9.23c-.08-2,1.19-2.72,2.84-1.71a7.36,7.36,0,0,1,3.13,5.36c.08,1.94-1.2,2.71-2.85,1.7A7.3,7.3,0,0,1,769.85,955.48Z"/><polygon class="cls-6" points="787.27 953.81 806.52 940.89 806.57 964.43 787.18 977.67 787.27 953.81"/><rect class="cls-27" x="85.78" y="428.55" width="4.2" height="7"/><rect class="cls-28" x="89.98" y="428.55" width="7" height="7"/><rect class="cls-27" x="96.98" y="428.55" width="2.8" height="7"/><rect class="cls-27" x="111.38" y="415.7" width="4.2" height="7"/><rect class="cls-28" x="115.58" y="415.7" width="7" height="7"/><rect class="cls-27" x="122.58" y="415.7" width="2.8" height="7"/><path class="cls-26" d="M133.38,480.67c2.2.2,3.84-.63,3.65-1.83s-2.13-2.35-4.34-2.54-3.84.62-3.65,1.83S131.17,480.48,133.38,480.67Z"/><path class="cls-26" d="M162.22,494c2.2.19,3.84-.63,3.65-1.84s-2.13-2.35-4.34-2.54-3.84.63-3.65,1.84S160,493.79,162.22,494Z"/><polygon class="cls-2" points="158.89 502.06 93.23 482.76 74.84 474.08 74.85 475.06 92.88 483.69 159.33 503.35 175.01 491.77 175 490.58 158.89 502.06"/><path class="cls-3" d="M158.89,502.06,175,490.58l-38.44-37.19-20.32-9.26-41.4,29.95,18.39,8.68Zm2.64-12.45c2.21.19,4.15,1.33,4.34,2.54s-1.45,2-3.65,1.84-4.15-1.34-4.34-2.54S159.32,489.41,161.53,489.61ZM132.69,476.3c2.21.19,4.15,1.33,4.34,2.54s-1.45,2-3.65,1.83-4.15-1.33-4.34-2.54S130.48,476.1,132.69,476.3Zm-18.06-21.51c.44-1.51,2.48-2.29,4.55-1.72s3.39,2.24,2.95,3.76-2.47,2.28-4.54,1.72S114.19,456.31,114.63,454.79ZM89.55,471c.44-1.51,2.48-2.29,4.55-1.72s3.39,2.24,3,3.76-2.47,2.28-4.54,1.72S89.11,472.53,89.55,471Z"/><polygon class="cls-3" points="74.84 474.08 74.84 474.08 93.23 482.76 74.84 474.08"/><rect class="cls-27" x="155.83" y="458.79" width="4.2" height="7"/><rect class="cls-28" x="160.03" y="458.79" width="7" height="7"/><rect class="cls-27" x="167.03" y="458.79" width="2.8" height="7"/><rect class="cls-27" x="126.03" y="443.95" width="4.2" height="7"/><rect class="cls-28" x="130.23" y="443.95" width="7" height="7"/><rect class="cls-27" x="137.23" y="443.95" width="2.8" height="7"/><polygon class="cls-28" points="95.35 537.66 90.21 537.67 90.21 538.73 95.36 538.71 95.35 537.66"/><polygon class="cls-28" points="95.35 538.71 95.35 539.77 90.21 539.78 90.21 538.73 95.35 538.71"/><polygon class="cls-28" points="95.35 536.6 90.21 536.61 90.21 537.67 95.35 537.66 95.35 536.6"/><polygon class="cls-28" points="95.35 535.54 90.21 535.55 90.21 536.61 95.35 536.6 95.35 535.54"/><polygon class="cls-28" points="90.21 541.89 95.36 541.88 95.36 540.83 90.21 540.84 90.21 541.89"/><polygon class="cls-28" points="95.35 539.77 95.35 540.83 90.21 540.84 90.21 539.78 95.35 539.77"/><polygon class="cls-28" points="90.22 544.01 95.36 544 95.36 542.94 90.21 542.95 90.22 544.01"/><path class="cls-28" d="M90.61,545.06a9.34,9.34,0,0,0,1.4.59,8.38,8.38,0,0,0,3.35.37v-1Z"/><path class="cls-28" d="M95.36,545.05v-1H90.21v.85l.39.2Z"/><polygon class="cls-28" points="90.21 542.95 95.36 542.94 95.36 541.88 90.21 541.89 90.21 542.95"/><polygon class="cls-28" points="162.83 552.64 157.68 552.65 157.68 553.71 162.83 553.69 162.83 552.64"/><polygon class="cls-28" points="162.82 553.69 162.82 554.75 157.69 554.76 157.69 553.71 162.82 553.69"/><polygon class="cls-28" points="162.83 551.58 157.68 551.59 157.68 552.65 162.83 552.64 162.83 551.58"/><polygon class="cls-28" points="162.82 550.52 157.68 550.54 157.68 551.59 162.83 551.58 162.82 550.52"/><polygon class="cls-28" points="157.69 556.88 162.83 556.86 162.83 555.81 157.69 555.82 157.69 556.88"/><polygon class="cls-28" points="162.82 554.75 162.82 555.81 157.69 555.82 157.69 554.76 162.82 554.75"/><polygon class="cls-28" points="157.69 558.99 162.83 558.98 162.83 557.92 157.69 557.93 157.69 558.99"/><path class="cls-28" d="M158.08,560a9.8,9.8,0,0,0,1.4.59,8.22,8.22,0,0,0,3.35.37v-1Z"/><path class="cls-28" d="M162.83,560v-1h-5.14v.85l.39.2Z"/><polygon class="cls-28" points="157.69 557.93 162.83 557.92 162.83 556.86 157.69 556.88 157.69 557.93"/><polygon class="cls-28" points="136.78 536.1 131.63 536.11 131.63 537.17 136.78 537.16 136.78 536.1"/><polygon class="cls-28" points="136.77 537.16 136.77 538.22 131.63 538.23 131.63 537.17 136.77 537.16"/><polygon class="cls-28" points="136.78 535.05 131.63 535.06 131.63 536.11 136.78 536.1 136.78 535.05"/><polygon class="cls-28" points="136.77 533.99 131.63 534 131.63 535.06 136.78 535.05 136.77 533.99"/><polygon class="cls-28" points="131.63 540.34 136.78 540.33 136.78 539.27 131.63 539.28 131.63 540.34"/><polygon class="cls-28" points="136.77 538.22 136.77 539.27 131.63 539.28 131.63 538.23 136.77 538.22"/><polygon class="cls-28" points="131.64 542.45 136.78 542.44 136.78 541.39 131.63 541.4 131.64 542.45"/><path class="cls-28" d="M132,543.51a9.32,9.32,0,0,0,1.4.58,8.2,8.2,0,0,0,3.35.37v-1Z"/><path class="cls-28" d="M136.78,543.5v-1.06h-5.14v.85c.12.08.26.14.39.21Z"/><polygon class="cls-28" points="131.63 541.4 136.78 541.39 136.78 540.33 131.63 540.34 131.63 541.4"/><polygon class="cls-28" points="338.19 388.91 333.05 388.92 333.05 389.98 338.19 389.97 338.19 388.91"/><polygon class="cls-28" points="338.19 389.97 338.19 391.02 333.05 391.03 333.05 389.98 338.19 389.97"/><polygon class="cls-28" points="338.19 387.85 333.05 387.86 333.05 388.92 338.19 388.91 338.19 387.85"/><polygon class="cls-28" points="338.19 386.8 333.05 386.81 333.05 387.86 338.19 387.85 338.19 386.8"/><polygon class="cls-28" points="333.05 393.15 338.19 393.14 338.19 392.08 333.05 392.09 333.05 393.15"/><polygon class="cls-28" points="338.19 391.02 338.19 392.08 333.05 392.09 333.05 391.03 338.19 391.02"/><polygon class="cls-28" points="333.05 395.26 338.19 395.25 338.19 394.19 333.05 394.2 333.05 395.26"/><path class="cls-28" d="M333.45,396.32a9.2,9.2,0,0,0,1.39.58,8.25,8.25,0,0,0,3.36.37v-1Z"/><path class="cls-28" d="M338.19,396.31v-1.06h-5.14v.85l.4.21Z"/><polygon class="cls-28" points="333.05 394.2 338.19 394.19 338.19 393.14 333.05 393.15 333.05 394.2"/><polygon class="cls-28" points="131.37 510.77 126.23 510.78 126.23 511.84 131.37 511.83 131.37 510.77"/><polygon class="cls-28" points="131.37 511.82 131.37 512.88 126.23 512.89 126.23 511.84 131.37 511.82"/><polygon class="cls-28" points="131.37 509.71 126.23 509.72 126.23 510.78 131.37 510.77 131.37 509.71"/><polygon class="cls-28" points="131.37 508.66 126.23 508.67 126.23 509.72 131.37 509.71 131.37 508.66"/><polygon class="cls-28" points="126.23 515.01 131.38 515 131.38 513.94 126.23 513.95 126.23 515.01"/><polygon class="cls-28" points="131.37 512.88 131.37 513.94 126.23 513.95 126.23 512.89 131.37 512.88"/><polygon class="cls-28" points="126.23 517.12 131.38 517.11 131.38 516.05 126.23 516.06 126.23 517.12"/><path class="cls-28" d="M126.63,518.18a8.91,8.91,0,0,0,1.4.58,8.2,8.2,0,0,0,3.35.37v-1Z"/><path class="cls-28" d="M131.38,518.17v-1.06h-5.15V518l.4.21Z"/><polygon class="cls-28" points="126.23 516.06 131.38 516.05 131.38 515 126.23 515.01 126.23 516.06"/><rect class="cls-27" x="286.36" y="280.84" width="4.2" height="7"/><rect class="cls-28" x="290.56" y="280.84" width="7" height="7"/><rect class="cls-27" x="297.56" y="280.84" width="2.8" height="7"/><rect class="cls-27" x="311.96" y="267.98" width="4.2" height="7"/><rect class="cls-28" x="316.16" y="267.98" width="7" height="7"/><rect class="cls-27" x="323.16" y="267.98" width="2.8" height="7"/><path class="cls-26" d="M334,333c2.2.19,3.84-.63,3.65-1.84s-2.13-2.35-4.34-2.54-3.84.63-3.65,1.84S331.75,332.76,334,333Z"/><path class="cls-26" d="M362.8,346.27c2.2.19,3.84-.63,3.65-1.84s-2.13-2.34-4.34-2.54-3.84.63-3.65,1.84S360.59,346.08,362.8,346.27Z"/><polygon class="cls-2" points="359.47 354.34 293.81 335.05 275.42 326.37 275.43 327.34 293.46 335.97 359.91 355.63 375.59 344.06 375.58 342.86 359.47 354.34"/><path class="cls-3" d="M359.47,354.34l16.11-11.48-38.44-37.19-20.32-9.26-41.4,30,18.39,8.68Zm2.64-12.45c2.21.2,4.15,1.33,4.34,2.54s-1.45,2-3.65,1.84-4.15-1.33-4.34-2.54S359.9,341.7,362.11,341.89Zm-28.84-13.31c2.21.19,4.15,1.33,4.34,2.54s-1.45,2-3.65,1.84-4.15-1.33-4.34-2.54S331.06,328.39,333.27,328.58Zm-18.06-21.5c.44-1.52,2.48-2.29,4.55-1.73s3.39,2.25,2.95,3.76-2.47,2.29-4.54,1.73S314.77,308.59,315.21,307.08ZM290.13,323.3c.44-1.51,2.48-2.28,4.55-1.72s3.39,2.25,2.95,3.76-2.47,2.29-4.54,1.72S289.69,324.82,290.13,323.3Z"/><polygon class="cls-3" points="275.42 326.37 275.42 326.37 293.81 335.05 275.42 326.37"/><rect class="cls-27" x="356.41" y="311.07" width="4.2" height="7"/><rect class="cls-28" x="360.61" y="311.07" width="7" height="7"/><rect class="cls-27" x="367.61" y="311.07" width="2.8" height="7"/><rect class="cls-27" x="326.61" y="294.55" width="4.2" height="7"/><rect class="cls-28" x="330.81" y="294.55" width="7" height="7"/><rect class="cls-27" x="337.81" y="294.55" width="2.8" height="7"/><polygon class="cls-28" points="295.93 389.94 290.79 389.95 290.79 391.01 295.94 391 295.93 389.94"/><polygon class="cls-28" points="295.93 391 295.93 392.06 290.79 392.07 290.79 391.01 295.93 391"/><polygon class="cls-28" points="295.93 388.88 290.79 388.9 290.79 389.95 295.93 389.94 295.93 388.88"/><polygon class="cls-28" points="295.93 387.83 290.79 387.84 290.79 388.9 295.93 388.88 295.93 387.83"/><polygon class="cls-28" points="290.79 394.18 295.94 394.17 295.94 393.11 290.79 393.12 290.79 394.18"/><polygon class="cls-28" points="295.93 392.06 295.93 393.11 290.79 393.12 290.79 392.07 295.93 392.06"/><polygon class="cls-28" points="290.8 396.29 295.94 396.28 295.94 395.23 290.79 395.24 290.8 396.29"/><path class="cls-28" d="M291.19,397.35a9.32,9.32,0,0,0,1.4.58,8.2,8.2,0,0,0,3.35.37v-1Z"/><path class="cls-28" d="M295.94,397.34v-1.06h-5.15v.85c.12.08.26.14.39.21Z"/><polygon class="cls-28" points="290.79 395.24 295.94 395.23 295.94 394.17 290.79 394.18 290.79 395.24"/><polygon class="cls-28" points="363.41 404.92 358.26 404.93 358.26 405.99 363.41 405.98 363.41 404.92"/><polygon class="cls-28" points="363.4 405.98 363.4 407.04 358.27 407.05 358.26 405.99 363.4 405.98"/><polygon class="cls-28" points="363.41 403.87 358.26 403.88 358.26 404.93 363.41 404.92 363.41 403.87"/><polygon class="cls-28" points="363.4 402.81 358.26 402.82 358.26 403.88 363.41 403.87 363.4 402.81"/><polygon class="cls-28" points="358.27 409.16 363.41 409.15 363.41 408.09 358.27 408.1 358.27 409.16"/><polygon class="cls-28" points="363.4 407.04 363.4 408.09 358.27 408.1 358.27 407.05 363.4 407.04"/><polygon class="cls-28" points="358.27 411.27 363.41 411.26 363.41 410.2 358.27 410.22 358.27 411.27"/><path class="cls-28" d="M358.66,412.33a9.78,9.78,0,0,0,1.4.58,8.22,8.22,0,0,0,3.35.37v-1Z"/><path class="cls-28" d="M363.41,412.32v-1.06h-5.14v.85c.12.08.26.14.39.21Z"/><polygon class="cls-28" points="358.27 410.22 363.41 410.2 363.41 409.15 358.27 409.16 358.27 410.22"/><polygon class="cls-28" points="331.95 363.05 326.81 363.06 326.81 364.12 331.95 364.11 331.95 363.05"/><polygon class="cls-28" points="331.95 364.11 331.95 365.17 326.81 365.18 326.81 364.12 331.95 364.11"/><polygon class="cls-28" points="331.95 362 326.81 362.01 326.81 363.06 331.95 363.05 331.95 362"/><polygon class="cls-28" points="331.95 360.94 326.81 360.95 326.81 362.01 331.95 362 331.95 360.94"/><polygon class="cls-28" points="326.81 367.29 331.96 367.28 331.95 366.22 326.81 366.24 326.81 367.29"/><polygon class="cls-28" points="331.95 365.17 331.95 366.22 326.81 366.23 326.81 365.18 331.95 365.17"/><polygon class="cls-28" points="326.81 369.4 331.96 369.39 331.96 368.34 326.81 368.35 326.81 369.4"/><path class="cls-28" d="M327.21,370.46a8.91,8.91,0,0,0,1.4.58,8.22,8.22,0,0,0,3.35.38v-1Z"/><path class="cls-28" d="M332,370.45v-1.06h-5.15v.86l.4.2Z"/><polygon class="cls-28" points="326.81 368.35 331.96 368.34 331.96 367.28 326.81 367.29 326.81 368.35"/><path class="cls-9" d="M733.6,926.66c1,5.16-1.17,10-5.71,10.87s-9.07-2.52-10.11-7.68,1.81-10.07,6.35-11S732.56,921.51,733.6,926.66Z"/><ellipse class="cls-22" cx="725.49" cy="928.3" rx="7.87" ry="9.52" transform="matrix(0.98, -0.2, 0.2, 0.98, -169.04, 161.56)"/><polygon class="cls-24" points="726.11 923.11 721.86 924.01 720.23 925 724.64 924.01 724.64 924.01 726.11 923.11 726.11 923.11"/><polygon class="cls-23" points="729.03 933.39 724.64 934.38 720.25 930.19 720.25 925 724.64 924.01 729.03 928.21 729.03 933.39"/><polygon class="cls-25" points="730.39 927.37 726.11 923.11 724.64 924.01 729.03 928.21 729.03 928.24 730.39 927.4 730.39 927.37"/><polygon class="cls-24" points="729.03 928.24 729.03 933.38 730.39 932.55 730.39 927.4 729.03 928.24"/><path class="cls-9" d="M780,955.71c1,5.15-1.17,9.95-5.71,10.86s-9.07-2.52-10.11-7.68,1.8-10.07,6.34-11S778.92,950.55,780,955.71Z"/><ellipse class="cls-22" cx="771.85" cy="957.34" rx="7.87" ry="9.52" transform="translate(-173.87 171.29) rotate(-11.39)"/><polygon class="cls-24" points="772.47 952.15 768.21 953.05 766.59 954.05 771 953.05 771 953.06 772.47 952.15 772.47 952.15"/><polygon class="cls-23" points="775.38 962.44 771 963.43 766.61 959.23 766.61 954.04 771 953.05 775.38 957.25 775.38 962.44"/><polygon class="cls-25" points="776.75 956.41 772.47 952.15 771 953.06 775.38 957.25 775.38 957.28 776.75 956.45 776.75 956.41"/><polygon class="cls-24" points="775.38 957.28 775.38 962.42 776.75 961.59 776.75 956.45 775.38 957.28"/></g></svg>