<svg xmlns="http://www.w3.org/2000/svg" viewBox="0 0 979.86 1023.83"><defs><style>.cls-1{fill:#ffb522;opacity:0.27;}.cls-2{fill:#7c7c7c;}.cls-3{fill:#303030;}.cls-4{fill:#424242;}.cls-5{fill:#606060;}.cls-6{fill:#b7b7b7;stroke:#000;stroke-width:0.05px;}.cls-15,.cls-16,.cls-17,.cls-18,.cls-19,.cls-20,.cls-21,.cls-22,.cls-23,.cls-24,.cls-6,.cls-8{stroke-miterlimit:10;}.cls-7{fill:#fff;}.cls-29,.cls-8{fill:none;}.cls-8{stroke:#ff8b00;stroke-linecap:round;stroke-width:6px;}.cls-9{fill:#ff8b00;}.cls-10{fill:#898989;}.cls-11{fill:#515151;}.cls-12{fill:#7a7a7a;}.cls-13{fill:#999;}.cls-14,.cls-15{fill:#8e8e8e;}.cls-15,.cls-16,.cls-17,.cls-18,.cls-19,.cls-20,.cls-21,.cls-22,.cls-23,.cls-24{stroke:#fff;stroke-width:0.05px;}.cls-16{fill:#919191;}.cls-17{fill:#949494;}.cls-18{fill:#979697;}.cls-19{fill:#9a999a;}.cls-20{fill:#9c9c9c;}.cls-21{fill:#9f9f9f;}.cls-22{fill:#a2a1a2;}.cls-23{fill:#a5a4a5;}.cls-24{fill:#a8a7a8;}.cls-25{fill:#9b9a9b;}.cls-26{fill:#7f7f7f;}.cls-27{fill:#545454;}.cls-28{fill:#6b6b6b;}</style></defs><g id="Layer_2" data-name="Layer 2"><circle class="cls-1" cx="296.99" cy="378.55" r="87.48"/><circle class="cls-1" cx="87.48" cy="509.03" r="87.48"/><polygon class="cls-2" points="147.52 570.63 147.69 569.13 128.34 578.85 59.1 545.4 42.37 532.04 42.23 533.28 58.96 546.7 128.15 580.49 147.52 570.63"/><path class="cls-3" d="M128.34,578.85l19.35-9.72-33.32-55.58-17.7-12.72L42.37,532,59.1,545.4Zm-28.27-35.31c.12-1.53,2.2-2.19,4.65-1.48s4.32,2.53,4.2,4.06-2.19,2.18-4.64,1.47S100,545.07,100.07,543.54Zm-41.33-9.47c.12-1.53,2.2-2.19,4.64-1.48s4.33,2.53,4.21,4-2.2,2.19-4.64,1.48S58.62,535.59,58.74,534.07Z"/><polygon class="cls-2" points="364.54 448.26 364.71 446.75 345.36 456.47 276.13 423.02 259.39 409.67 259.25 410.91 275.98 424.33 345.17 458.12 364.54 448.26"/><path class="cls-3" d="M345.36,456.47l19.35-9.72-33.32-55.58-17.7-12.72-54.3,31.21L276.13,423Zm-28.26-35.3c.12-1.53,2.19-2.19,4.64-1.48s4.33,2.53,4.21,4.05-2.2,2.19-4.65,1.48S317,422.69,317.1,421.17Zm28.95,22.54c.12-1.53,2.2-2.19,4.65-1.48s4.32,2.53,4.2,4-2.19,2.19-4.64,1.48S345.93,445.23,346.05,443.71Zm-70.29-32c.12-1.53,2.2-2.19,4.65-1.47s4.32,2.52,4.2,4-2.19,2.18-4.64,1.47S275.64,413.22,275.76,411.69Z"/><polygon class="cls-2" points="362.15 372.08 365.56 346.59 37.39 534.74 34.27 561.77 362.15 372.08"/><path class="cls-4" d="M365.56,346.59,349,333.78,20.62,522l16.77,12.79ZM346,341.45c1.59-.91,4.62-.31,6.75,1.34s2.58,3.72,1,4.64-4.61.31-6.75-1.33S344.41,342.37,346,341.45Zm-136.1,78c1.59-.91,4.63-.33,6.79,1.31s2.61,3.71,1,4.62-4.63.33-6.78-1.31S208.3,420.35,209.9,419.44Zm-40.83,23.39c1.59-.91,4.64-.32,6.8,1.31s2.62,3.7,1,4.62-4.63.32-6.79-1.31S167.47,443.75,169.07,442.83ZM56.71,512.42"/><polygon class="cls-5" points="17.53 548.48 20.82 521.68 37.69 534.55 34.27 561.77 17.53 548.48"/><polygon class="cls-6" points="103.27 480.46 98.15 479.89 98.03 480.94 103.15 481.51 103.27 480.46"/><polygon class="cls-6" points="103.14 481.51 103.02 482.56 97.92 481.99 98.04 480.94 103.14 481.51"/><polygon class="cls-6" points="103.39 479.42 98.27 478.84 98.15 479.89 103.27 480.46 103.39 479.42"/><polygon class="cls-6" points="103.5 478.37 98.39 477.79 98.27 478.84 103.39 479.42 103.5 478.37"/><polygon class="cls-6" points="97.68 484.09 102.79 484.67 102.91 483.62 97.8 483.04 97.68 484.09"/><polygon class="cls-6" points="103.02 482.56 102.91 483.61 97.8 483.04 97.92 481.99 103.02 482.56"/><polygon class="cls-6" points="97.44 486.19 102.55 486.76 102.67 485.71 97.56 485.14 97.44 486.19"/><path class="cls-6" d="M97.72,487.29A7.91,7.91,0,0,0,99,488a8,8,0,0,0,3.29.75l.1-1Z"/><path class="cls-6" d="M102.43,487.81l.12-1.05-5.11-.57-.09.85a3.41,3.41,0,0,0,.37.25Z"/><polygon class="cls-6" points="97.56 485.14 102.67 485.71 102.79 484.67 97.68 484.09 97.56 485.14"/><polygon class="cls-6" points="68.47 499.81 63.35 499.24 63.23 500.29 68.35 500.86 68.47 499.81"/><polygon class="cls-6" points="68.34 500.86 68.22 501.91 63.12 501.34 63.24 500.29 68.34 500.86"/><polygon class="cls-6" points="68.58 498.76 63.47 498.19 63.35 499.24 68.47 499.81 68.58 498.76"/><polygon class="cls-6" points="68.7 497.71 63.59 497.14 63.47 498.19 68.58 498.76 68.7 497.71"/><polygon class="cls-6" points="62.88 503.44 67.99 504.01 68.11 502.96 63 502.39 62.88 503.44"/><polygon class="cls-6" points="68.22 501.91 68.1 502.96 63 502.39 63.12 501.34 68.22 501.91"/><polygon class="cls-6" points="62.64 505.54 67.75 506.11 67.87 505.06 62.76 504.49 62.64 505.54"/><path class="cls-6" d="M62.91,506.64a9.78,9.78,0,0,0,1.32.73,8.24,8.24,0,0,0,3.29.75l.11-1Z"/><path class="cls-6" d="M67.63,507.16l.12-1.05-5.11-.57-.1.85.37.25Z"/><polygon class="cls-6" points="62.76 504.49 67.87 505.06 67.99 504.01 62.88 503.44 62.76 504.49"/><polygon class="cls-6" points="318.84 358.67 313.72 358.1 313.61 359.15 318.72 359.72 318.84 358.67"/><polygon class="cls-6" points="318.71 359.72 318.59 360.77 313.49 360.2 313.61 359.15 318.71 359.72"/><polygon class="cls-6" points="318.95 357.62 313.84 357.05 313.72 358.1 318.84 358.67 318.95 357.62"/><polygon class="cls-6" points="319.07 356.57 313.96 356 313.84 357.05 318.95 357.62 319.07 356.57"/><polygon class="cls-6" points="313.25 362.3 318.36 362.87 318.48 361.82 313.37 361.25 313.25 362.3"/><polygon class="cls-6" points="318.59 360.77 318.48 361.82 313.37 361.25 313.49 360.2 318.59 360.77"/><polygon class="cls-6" points="313.01 364.4 318.12 364.97 318.24 363.92 313.13 363.35 313.01 364.4"/><path class="cls-6" d="M313.29,365.5a8.7,8.7,0,0,0,1.32.73,8.21,8.21,0,0,0,3.29.75l.1-1Z"/><path class="cls-6" d="M318,366l.12-1L313,364.4l-.09.85.37.25Z"/><polygon class="cls-6" points="313.13 363.35 318.24 363.92 318.36 362.87 313.25 362.3 313.13 363.35"/><polygon class="cls-6" points="284.11 379.12 279 378.55 278.88 379.6 283.99 380.17 284.11 379.12"/><polygon class="cls-6" points="283.99 380.17 283.87 381.22 278.76 380.65 278.88 379.6 283.99 380.17"/><polygon class="cls-6" points="284.23 378.07 279.12 377.5 279 378.55 284.11 379.12 284.23 378.07"/><polygon class="cls-6" points="284.35 377.02 279.24 376.45 279.12 377.5 284.23 378.07 284.35 377.02"/><polygon class="cls-6" points="278.52 382.75 283.63 383.32 283.75 382.27 278.64 381.7 278.52 382.75"/><polygon class="cls-6" points="283.87 381.22 283.75 382.27 278.64 381.7 278.76 380.65 283.87 381.22"/><polygon class="cls-6" points="278.29 384.85 283.4 385.42 283.51 384.37 278.4 383.8 278.29 384.85"/><path class="cls-6" d="M278.56,385.94a9.82,9.82,0,0,0,1.32.74,8.42,8.42,0,0,0,3.29.75l.11-1Z"/><path class="cls-6" d="M283.28,386.47l.12-1.05-5.11-.57-.1.84.37.25Z"/><polygon class="cls-6" points="278.4 383.8 283.51 384.37 283.63 383.32 278.52 382.75 278.4 383.8"/><ellipse class="cls-7" cx="41.14" cy="520.97" rx="3.06" ry="5.34" transform="translate(-439.68 316.27) rotate(-62.42)"/><path class="cls-8" d="M200,430.37l.6,0c20.27-1.38,38.7,9.07,47.82,25.15"/><polygon class="cls-9" points="254.35 474.95 234.17 451.48 247.43 454.22 256.38 444.06 254.35 474.95"/><path class="cls-4" d="M934.71,866.15,310.06,376.49l-19.55,12L914.1,876.75Zm-14.08,2.08a6.11,6.11,0,0,1-5.8-.72c-1.52-1.2-1.39-2.81.29-3.6a6.08,6.08,0,0,1,5.8.72C922.44,865.82,922.31,867.43,920.63,868.23ZM905,856a6.06,6.06,0,0,1-5.8-.72c-1.52-1.19-1.4-2.8.28-3.6a6.11,6.11,0,0,1,5.8.72C906.81,853.58,906.69,855.2,905,856Zm-15.63-12.23a6.11,6.11,0,0,1-5.8-.72c-1.52-1.19-1.39-2.8.29-3.6a6.06,6.06,0,0,1,5.79.71C891.19,841.35,891.06,843,889.38,843.76Zm-15.63-12.24a6.06,6.06,0,0,1-5.79-.71c-1.52-1.19-1.4-2.81.28-3.61a6.06,6.06,0,0,1,5.79.72C875.56,829.11,875.43,830.72,873.75,831.52Zm-15.62-12.23a6.06,6.06,0,0,1-5.79-.71c-1.52-1.2-1.4-2.81.27-3.61a6.08,6.08,0,0,1,5.8.71C859.93,816.87,859.8,818.49,858.13,819.29ZM842.5,807.05a6,6,0,0,1-5.78-.71c-1.53-1.19-1.4-2.8.27-3.61a6.07,6.07,0,0,1,5.79.71C844.3,804.64,844.18,806.25,842.5,807.05Zm-15.62-12.23a6.07,6.07,0,0,1-5.79-.71c-1.52-1.19-1.4-2.81.27-3.61a6,6,0,0,1,5.79.71C828.67,792.4,828.55,794,826.88,794.82ZM781.18,759a6,6,0,0,1-5.77-.7c-1.53-1.19-1.41-2.81.26-3.62a6,6,0,0,1,5.77.7C783,756.61,782.85,758.23,781.18,759Zm-26.06-26.32,3.45-1.68,11.82,9.26L766.94,742ZM368.35,435.79a5.79,5.79,0,0,1,5.7.64c1.52,1.2,1.44,2.84-.19,3.68a5.76,5.76,0,0,1-5.7-.65C366.63,438.27,366.72,436.63,368.35,435.79Zm40.73,31.89a5.83,5.83,0,0,1,5.71.65c1.52,1.2,1.44,2.84-.2,3.67a5.8,5.8,0,0,1-5.71-.65C407.36,470.16,407.45,468.52,409.08,467.68Zm40.73,31.9a5.84,5.84,0,0,1,5.72.65c1.52,1.19,1.43,2.83-.2,3.66a5.84,5.84,0,0,1-5.72-.65C448.08,502.05,448.17,500.41,449.81,499.58Zm40.73,31.89a5.87,5.87,0,0,1,5.73.66c1.52,1.19,1.43,2.83-.21,3.66a5.89,5.89,0,0,1-5.73-.66C488.81,533.93,488.9,532.3,490.54,531.47Zm40.73,31.89A5.91,5.91,0,0,1,537,564c1.52,1.19,1.42,2.83-.22,3.65a5.87,5.87,0,0,1-5.73-.67C529.53,565.82,529.63,564.19,531.27,563.36ZM572,595.26a5.86,5.86,0,0,1,5.74.67c1.52,1.19,1.42,2.82-.23,3.64a5.91,5.91,0,0,1-5.74-.67C570.26,597.71,570.36,596.08,572,595.26Zm40.73,31.89a5.91,5.91,0,0,1,5.75.68c1.52,1.19,1.42,2.82-.24,3.64a5.94,5.94,0,0,1-5.74-.68C611,629.6,611.09,628,612.74,627.15ZM653.47,659a6,6,0,0,1,5.76.68c1.52,1.2,1.41,2.82-.24,3.64a6,6,0,0,1-5.76-.68C651.71,661.48,651.82,659.86,653.47,659Zm40.73,31.89a6,6,0,0,1,5.77.69c1.52,1.2,1.41,2.82-.25,3.63a6,6,0,0,1-5.76-.69C692.43,693.37,692.54,691.75,694.2,690.93Zm40.73,31.9a6,6,0,0,1,5.78.69c1.52,1.19,1.4,2.82-.26,3.63a6,6,0,0,1-5.77-.7C733.16,725.26,733.27,723.64,734.93,722.83Zm10.86,14.41,8.91,1.68.27-.13.43-.21,3.59-1.74,2.26,1.77-5.6,2.71a1.93,1.93,0,0,0-.4.24c-.79.54-1,1.27-.35,1.75a3.34,3.34,0,0,0,2.85.21,3.85,3.85,0,0,0,.47-.19l5.6-2.71,2.26,1.77-5.6,2.71-.43.21h0c-3,1.3-6.83,1.2-8.7-.26-1.52-1.2-1.3-2.95.34-4.38l-9.32-1.75Z"/><path class="cls-5" d="M914.1,876.75,290.51,388.49,287,412.42l624.24,488ZM304.65,412.9c.13-2,1.46-2.59,3-1.4a7.48,7.48,0,0,1,2.53,5.71c-.13,2-1.46,2.59-3,1.4A7.47,7.47,0,0,1,304.65,412.9ZM317.59,423c.13-2,1.47-2.59,3-1.4a7.47,7.47,0,0,1,2.52,5.71c-.12,2-1.46,2.59-3,1.4A7.53,7.53,0,0,1,317.59,423Zm13,10.13c.13-2,1.46-2.59,3-1.4a7.46,7.46,0,0,1,2.53,5.71c-.13,2-1.47,2.59-3,1.4A7.47,7.47,0,0,1,330.54,433.17Zm12.94,10.14c.13-2,1.47-2.59,3-1.4a7.47,7.47,0,0,1,2.52,5.71c-.13,2-1.46,2.59-3,1.4A7.46,7.46,0,0,1,343.48,443.31Zm12.95,10.13c.13-2,1.46-2.58,3-1.39a7.43,7.43,0,0,1,2.53,5.71c-.13,2-1.47,2.58-3,1.39A7.47,7.47,0,0,1,356.43,453.44Zm12.94,10.14c.13-2,1.47-2.59,3-1.4a7.47,7.47,0,0,1,2.52,5.71c-.13,2-1.47,2.59-3,1.39A7.45,7.45,0,0,1,369.37,463.58Zm12.95,10.13c.13-2,1.46-2.58,3-1.39a7.47,7.47,0,0,1,2.52,5.71c-.13,2-1.47,2.58-3,1.39A7.44,7.44,0,0,1,382.32,473.71Zm12.94,10.14c.13-2,1.47-2.59,3-1.39a7.45,7.45,0,0,1,2.52,5.7c-.13,2-1.47,2.59-3,1.39A7.45,7.45,0,0,1,395.26,483.85ZM408.2,494c.14-2,1.47-2.58,3-1.39a7.43,7.43,0,0,1,2.51,5.71c-.13,2-1.47,2.58-3,1.39A7.47,7.47,0,0,1,408.2,494Zm12.95,10.14c.13-2,1.47-2.58,3-1.39a7.45,7.45,0,0,1,2.52,5.7c-.13,2-1.47,2.58-3,1.39A7.45,7.45,0,0,1,421.15,504.12Zm13.38,10.48c.13-2,1.47-2.59,3-1.39a7.42,7.42,0,0,1,2.52,5.7c-.13,2-1.47,2.58-3,1.39A7.45,7.45,0,0,1,434.53,514.6Zm7.07,5.53c.13-2,1.47-2.58,3-1.39a7.45,7.45,0,0,1,2.52,5.7c-.14,2-1.48,2.58-3,1.39A7.41,7.41,0,0,1,441.6,520.13Zm7.06,5.53c.13-2,1.48-2.58,3-1.39a7.47,7.47,0,0,1,2.51,5.71c-.13,1.95-1.47,2.58-3,1.38A7.45,7.45,0,0,1,448.66,525.66Zm7.07,5.53c.13-2,1.47-2.58,3-1.39a7.49,7.49,0,0,1,2.52,5.71c-.13,2-1.48,2.58-3,1.39A7.47,7.47,0,0,1,455.73,531.19Zm7.06,5.54c.14-2,1.48-2.58,3-1.39a7.41,7.41,0,0,1,2.51,5.7c-.13,2-1.47,2.58-3,1.39A7.47,7.47,0,0,1,462.79,536.73Zm7.07,5.53c.13-2,1.47-2.58,3-1.39a7.44,7.44,0,0,1,2.51,5.7c-.13,2-1.47,2.58-3,1.39A7.44,7.44,0,0,1,469.86,542.26Zm7.07,5.53c.13-2,1.47-2.58,3-1.39a7.47,7.47,0,0,1,2.52,5.71c-.14,1.95-1.48,2.57-3,1.38A7.41,7.41,0,0,1,476.93,547.79Zm7.06,5.53c.13-2,1.48-2.58,3-1.38a7.44,7.44,0,0,1,2.51,5.7c-.13,2-1.47,2.58-3,1.39A7.48,7.48,0,0,1,484,553.32Zm7.07,5.54c.13-2,1.47-2.58,3-1.39a7.42,7.42,0,0,1,2.52,5.7c-.14,2-1.48,2.58-3,1.39A7.43,7.43,0,0,1,491.06,558.86Zm7.06,5.53c.14-2,1.48-2.58,3-1.39a7.43,7.43,0,0,1,2.51,5.7c-.13,2-1.47,2.58-3,1.39A7.44,7.44,0,0,1,498.12,564.39Zm7.07,5.53c.13-2,1.47-2.58,3-1.39a7.48,7.48,0,0,1,2.51,5.71c-.14,2-1.48,2.57-3,1.38A7.41,7.41,0,0,1,505.19,569.92Zm7.06,5.53c.14-2,1.48-2.57,3-1.38a7.41,7.41,0,0,1,2.51,5.7c-.13,2-1.47,2.57-3,1.38A7.42,7.42,0,0,1,512.25,575.45Zm7.07,5.54c.13-2,1.48-2.58,3-1.39a7.44,7.44,0,0,1,2.51,5.7c-.14,2-1.48,2.58-3,1.39A7.44,7.44,0,0,1,519.32,581Zm7.07,5.53c.13-2,1.47-2.58,3-1.39a7.46,7.46,0,0,1,2.51,5.7c-.14,2-1.48,2.58-3,1.39A7.39,7.39,0,0,1,526.39,586.52Zm7.06,5.53c.14-2,1.48-2.58,3-1.38a7.4,7.4,0,0,1,2.51,5.69c-.13,2-1.48,2.58-3,1.39A7.44,7.44,0,0,1,533.45,592.05Zm7.07,5.53c.13-2,1.48-2.57,3-1.38a7.44,7.44,0,0,1,2.51,5.7c-.14,2-1.48,2.57-3,1.38A7.38,7.38,0,0,1,540.52,597.58Zm7.06,5.54c.14-2,1.48-2.58,3-1.39a7.38,7.38,0,0,1,2.51,5.7c-.13,2-1.48,2.57-3,1.38A7.44,7.44,0,0,1,547.58,603.12Zm7.07,5.53c.13-2,1.48-2.58,3-1.39a7.47,7.47,0,0,1,2.51,5.7c-.14,2-1.48,2.58-3,1.39A7.44,7.44,0,0,1,554.65,608.65Zm7.06,5.53c.14-2,1.48-2.57,3-1.38a7.4,7.4,0,0,1,2.5,5.69c-.13,2-1.48,2.58-3,1.39A7.44,7.44,0,0,1,561.71,614.18Zm7.07,5.53c.14-2,1.48-2.57,3-1.38a7.41,7.41,0,0,1,2.51,5.7c-.14,2-1.48,2.57-3,1.38A7.41,7.41,0,0,1,568.78,619.71Zm7.07,5.53c.13-2,1.48-2.57,3-1.38a7.44,7.44,0,0,1,2.51,5.7c-.14,2-1.49,2.57-3,1.38A7.4,7.4,0,0,1,575.85,625.24Zm13.94,10.92c.14-1.95,1.48-2.57,3-1.38a7.4,7.4,0,0,1,2.5,5.7c-.14,1.95-1.48,2.57-3,1.38A7.41,7.41,0,0,1,589.79,636.16Zm14,10.92c.13-2,1.48-2.57,3-1.38a7.41,7.41,0,0,1,2.51,5.7c-.14,2-1.49,2.57-3,1.38A7.4,7.4,0,0,1,603.74,647.08ZM617.68,658c.14-2,1.49-2.57,3-1.38a7.4,7.4,0,0,1,2.5,5.7c-.14,1.95-1.48,2.57-3,1.38A7.38,7.38,0,0,1,617.68,658Zm14,10.92c.14-1.95,1.48-2.57,3-1.38a7.4,7.4,0,0,1,2.5,5.7c-.14,2-1.49,2.57-3,1.38A7.42,7.42,0,0,1,631.63,668.92Zm13.94,10.92c.14-2,1.49-2.57,3-1.38a7.4,7.4,0,0,1,2.5,5.7c-.14,2-1.48,2.57-3,1.37A7.37,7.37,0,0,1,645.57,679.84Zm13.95,10.92c.14-2,1.49-2.57,3-1.38a7.4,7.4,0,0,1,2.5,5.7c-.14,1.95-1.49,2.56-3,1.37A7.4,7.4,0,0,1,659.52,690.76Zm14,10.92c.14-1.95,1.48-2.57,3-1.38A7.4,7.4,0,0,1,679,706c-.15,2-1.49,2.57-3,1.38A7.33,7.33,0,0,1,673.47,701.68Zm13.94,10.92c.14-2,1.49-2.57,3-1.38a7.4,7.4,0,0,1,2.5,5.69c-.14,2-1.49,2.57-3,1.38A7.4,7.4,0,0,1,687.41,712.6Zm14,10.92c.14-1.95,1.49-2.57,3-1.38a7.4,7.4,0,0,1,2.5,5.69c-.15,1.95-1.49,2.57-3,1.38A7.35,7.35,0,0,1,701.36,723.52Zm13.94,10.92c.14-2,1.49-2.57,3-1.38a7.39,7.39,0,0,1,2.49,5.69c-.14,2-1.49,2.57-3,1.38A7.4,7.4,0,0,1,715.3,734.44Zm14,10.92c.14-2,1.49-2.57,3-1.38a7.41,7.41,0,0,1,2.5,5.69c-.15,2-1.49,2.57-3,1.38A7.39,7.39,0,0,1,729.25,745.36Zm13.94,10.92c.15-1.95,1.5-2.57,3-1.38a7.37,7.37,0,0,1,2.49,5.69c-.14,1.95-1.49,2.57-3,1.37A7.37,7.37,0,0,1,743.19,756.28Zm13.95,10.92c.14-2,1.49-2.57,3-1.38a7.38,7.38,0,0,1,2.5,5.69c-.14,2-1.49,2.56-3,1.37A7.37,7.37,0,0,1,757.14,767.2Zm13.94,10.92c.15-2,1.5-2.57,3-1.38a7.41,7.41,0,0,1,2.5,5.69c-.15,2-1.5,2.56-3,1.37A7.37,7.37,0,0,1,771.08,778.12ZM785,789c.15-1.95,1.5-2.57,3-1.38a7.37,7.37,0,0,1,2.49,5.69c-.14,1.95-1.5,2.56-3,1.37A7.38,7.38,0,0,1,785,789ZM799,800c.14-1.94,1.49-2.56,3-1.37a7.38,7.38,0,0,1,2.5,5.69c-.15,2-1.5,2.56-3,1.37A7.35,7.35,0,0,1,799,800Zm13.94,10.92c.15-1.94,1.5-2.56,3-1.37a7.37,7.37,0,0,1,2.49,5.69c-.14,1.95-1.5,2.56-3,1.37A7.39,7.39,0,0,1,812.92,810.87Zm14,10.92c.14-1.94,1.5-2.56,3-1.37a7.4,7.4,0,0,1,2.49,5.69c-.15,1.95-1.5,2.56-3,1.37A7.35,7.35,0,0,1,826.87,821.79Zm13.94,10.92c.15-1.94,1.5-2.56,3-1.37a7.33,7.33,0,0,1,2.49,5.69c-.14,1.94-1.5,2.56-3,1.37A7.4,7.4,0,0,1,840.81,832.71Zm14,10.92c.15-1.94,1.5-2.56,3-1.37a7.37,7.37,0,0,1,2.49,5.69c-.15,1.94-1.5,2.56-3,1.36A7.33,7.33,0,0,1,854.76,843.63Zm13.94,10.92c.15-1.94,1.51-2.56,3-1.37a7.36,7.36,0,0,1,2.48,5.69c-.14,1.94-1.5,2.55-3,1.36A7.37,7.37,0,0,1,868.7,854.55Zm13.95,10.92c.15-1.94,1.5-2.56,3-1.37a7.33,7.33,0,0,1,2.49,5.69c-.15,1.94-1.5,2.55-3,1.36A7.3,7.3,0,0,1,882.65,865.47Zm14,10.92c.15-1.94,1.5-2.56,3-1.36a7.33,7.33,0,0,1,2.49,5.67c-.15,1.95-1.51,2.56-3,1.37A7.32,7.32,0,0,1,896.6,876.39Z"/><polygon class="cls-10" points="914.1 876.75 934.71 866.15 932.03 889.53 911.25 900.44 914.1 876.75"/><path class="cls-4" d="M979.86,489.44,354.78,0,334.52,11.44,958.73,500.2Zm-14.59,2.23a6.06,6.06,0,0,1-5.8-.72c-1.53-1.19-1.4-2.8.28-3.59a6.08,6.08,0,0,1,5.8.71C967.08,489.27,967,490.88,965.27,491.67Zm-15.63-12.23a6.11,6.11,0,0,1-5.8-.72c-1.52-1.19-1.39-2.8.29-3.6a6.09,6.09,0,0,1,5.8.72C951.45,477,951.32,478.64,949.64,479.44ZM934,467.2a6.08,6.08,0,0,1-5.8-.71c-1.52-1.19-1.4-2.81.28-3.6a6.08,6.08,0,0,1,5.8.71C935.82,464.79,935.69,466.41,934,467.2ZM918.39,455a6.06,6.06,0,0,1-5.79-.71c-1.53-1.2-1.4-2.81.28-3.61a6.06,6.06,0,0,1,5.79.71C920.19,452.56,920.07,454.17,918.39,455Zm-15.63-12.24A6.07,6.07,0,0,1,897,442c-1.52-1.19-1.4-2.8.28-3.6a6,6,0,0,1,5.79.71C904.56,440.32,904.44,441.93,902.76,442.73ZM887.14,430.5a6.06,6.06,0,0,1-5.79-.71c-1.52-1.19-1.4-2.81.27-3.61a6.06,6.06,0,0,1,5.79.71C888.94,428.08,888.81,429.7,887.14,430.5Zm-15.63-12.24a6,6,0,0,1-5.78-.7c-1.52-1.2-1.4-2.81.27-3.61a6,6,0,0,1,5.78.7C873.31,415.85,873.19,417.46,871.51,418.26Zm-45.69-35.78a6,6,0,0,1-5.78-.7c-1.52-1.19-1.41-2.81.26-3.61a6,6,0,0,1,5.78.7C827.6,380.06,827.49,381.68,825.82,382.48Zm-26.06-26.32,3.44-1.67L815,363.75l-3.45,1.67ZM355,13.81a5.79,5.79,0,0,1,5.7.63c1.52,1.2,1.44,2.85-.18,3.69a5.78,5.78,0,0,1-5.7-.64C353.26,16.3,353.34,14.65,355,13.81Zm24.43,19.12a5.77,5.77,0,0,1,5.69.64c1.53,1.19,1.45,2.84-.18,3.68a5.79,5.79,0,0,1-5.7-.64C377.68,35.42,377.76,33.77,379.39,32.93Zm15,11.72a5.8,5.8,0,0,1,5.71.64c1.52,1.2,1.44,2.84-.19,3.68a5.78,5.78,0,0,1-5.7-.64C392.65,47.14,392.73,45.49,394.35,44.65ZM413,59.24a5.8,5.8,0,0,1,5.71.64c1.52,1.19,1.43,2.84-.19,3.68a5.83,5.83,0,0,1-5.71-.65C411.27,61.72,411.35,60.07,413,59.24Zm40.73,31.89a5.85,5.85,0,0,1,5.72.65c1.52,1.19,1.43,2.83-.2,3.67a5.83,5.83,0,0,1-5.71-.65C452,93.61,452.08,92,453.71,91.13ZM494.45,123a5.85,5.85,0,0,1,5.72.66c1.52,1.19,1.43,2.83-.21,3.66a5.84,5.84,0,0,1-5.72-.65C492.72,125.49,492.81,123.85,494.45,123Zm40.73,31.9a5.82,5.82,0,0,1,5.72.66c1.53,1.19,1.43,2.83-.21,3.65a5.85,5.85,0,0,1-5.72-.66C533.44,157.38,533.54,155.74,535.18,154.92Zm40.73,31.89a5.84,5.84,0,0,1,5.73.67c1.53,1.19,1.43,2.82-.22,3.65a5.89,5.89,0,0,1-5.73-.67C574.17,189.27,574.27,187.63,575.91,186.81Zm40.73,31.89a5.91,5.91,0,0,1,5.74.67c1.53,1.2,1.43,2.83-.22,3.65a5.91,5.91,0,0,1-5.74-.67C614.89,221.16,615,219.52,616.64,218.7Zm40.73,31.89a6,6,0,0,1,5.75.68c1.53,1.2,1.42,2.83-.23,3.64a5.91,5.91,0,0,1-5.75-.68C655.62,253,655.72,251.41,657.37,250.59Zm40.74,31.9a5.93,5.93,0,0,1,5.75.68c1.53,1.19,1.42,2.82-.24,3.64a6,6,0,0,1-5.75-.69C696.34,284.93,696.45,283.3,698.11,282.49Zm40.73,31.89a6,6,0,0,1,5.76.69c1.52,1.19,1.41,2.82-.25,3.63a6,6,0,0,1-5.76-.69C737.07,316.82,737.18,315.19,738.84,314.38Zm40.73,31.89a6,6,0,0,1,5.77.7c1.52,1.19,1.41,2.81-.25,3.62a6,6,0,0,1-5.77-.69C777.79,348.7,777.91,347.08,779.57,346.27Zm10.86,14.42,8.9,1.67.27-.13L800,362l3.59-1.74,2.26,1.77-5.6,2.72a3.81,3.81,0,0,0-.4.23c-.78.54-1,1.28-.35,1.76a3.33,3.33,0,0,0,2.86.2,2.58,2.58,0,0,0,.46-.18l5.6-2.71,2.27,1.77-5.61,2.71-.43.21h0c-3,1.29-6.84,1.2-8.7-.26-1.53-1.2-1.3-3,.33-4.38L787,362.36Z"/><path class="cls-5" d="M958.73,500.2,334.52,11.44l-2.83,24.07L956,524.75ZM349.28,36.35c.13-2,1.47-2.59,3-1.4a7.47,7.47,0,0,1,2.52,5.71c-.12,2-1.46,2.59-3,1.4A7.52,7.52,0,0,1,349.28,36.35Zm13,10.13c.13-2,1.46-2.59,3-1.4a7.47,7.47,0,0,1,2.53,5.72c-.13,2-1.47,2.58-3,1.39A7.47,7.47,0,0,1,362.23,46.48Zm12.94,10.14c.13-2,1.47-2.59,3-1.4a7.47,7.47,0,0,1,2.52,5.71c-.12,2-1.46,2.59-3,1.4A7.52,7.52,0,0,1,375.17,56.62Zm12.95,10.13c.13-2,1.46-2.58,3-1.39a7.43,7.43,0,0,1,2.53,5.71c-.13,2-1.47,2.58-3,1.39A7.47,7.47,0,0,1,388.12,66.75Zm12.94,10.14c.13-2,1.47-2.59,3-1.4a7.47,7.47,0,0,1,2.52,5.71c-.13,2-1.46,2.59-3,1.4A7.49,7.49,0,0,1,401.06,76.89ZM414,87c.13-2,1.46-2.58,3-1.39a7.47,7.47,0,0,1,2.52,5.71c-.13,2-1.47,2.58-3,1.39A7.47,7.47,0,0,1,414,87ZM427,97.16c.13-2,1.47-2.59,3-1.39a7.45,7.45,0,0,1,2.52,5.7c-.13,2-1.47,2.59-3,1.4A7.49,7.49,0,0,1,427,97.16Zm12.95,10.13c.13-2,1.46-2.58,3-1.39a7.47,7.47,0,0,1,2.52,5.71c-.13,2-1.47,2.58-3,1.39A7.47,7.47,0,0,1,439.9,107.29Zm12.94,10.14c.13-2,1.47-2.58,3-1.39a7.45,7.45,0,0,1,2.52,5.7c-.13,2-1.47,2.59-3,1.4A7.49,7.49,0,0,1,452.84,117.43Zm12.94,10.13c.14-2,1.48-2.58,3-1.39a7.45,7.45,0,0,1,2.51,5.71c-.13,2-1.47,2.58-3,1.39A7.47,7.47,0,0,1,465.78,127.56ZM479.17,138c.13-2,1.47-2.58,3-1.39a7.47,7.47,0,0,1,2.52,5.71c-.14,2-1.48,2.58-3,1.39A7.43,7.43,0,0,1,479.17,138Zm7.06,5.54c.13-2,1.47-2.59,3-1.39a7.44,7.44,0,0,1,2.51,5.7c-.13,2-1.47,2.58-3,1.39A7.47,7.47,0,0,1,486.23,143.58Zm7.07,5.53c.13-2,1.47-2.58,3-1.39a7.45,7.45,0,0,1,2.52,5.7c-.13,2-1.48,2.58-3,1.39A7.44,7.44,0,0,1,493.3,149.11Zm7.06,5.53c.14-2,1.48-2.58,3-1.39a7.43,7.43,0,0,1,2.51,5.7c-.13,2-1.47,2.58-3,1.39A7.45,7.45,0,0,1,500.36,154.64Zm7.07,5.53c.13-2,1.47-2.58,3-1.39a7.46,7.46,0,0,1,2.52,5.71c-.13,1.95-1.47,2.58-3,1.39A7.48,7.48,0,0,1,507.43,160.17Zm7.06,5.53c.14-1.95,1.48-2.58,3-1.38A7.41,7.41,0,0,1,520,170c-.13,2-1.47,2.58-3,1.39A7.47,7.47,0,0,1,514.49,165.7Zm7.07,5.54c.13-2,1.48-2.58,3-1.39a7.44,7.44,0,0,1,2.51,5.7c-.13,2-1.47,2.58-3,1.39A7.44,7.44,0,0,1,521.56,171.24Zm7.07,5.53c.13-2,1.47-2.58,3-1.39a7.47,7.47,0,0,1,2.52,5.7c-.14,2-1.48,2.58-3,1.39A7.41,7.41,0,0,1,528.63,176.77Zm7.06,5.53c.14-2,1.48-2.58,3-1.39a7.45,7.45,0,0,1,2.51,5.71c-.13,1.95-1.47,2.57-3,1.38A7.44,7.44,0,0,1,535.69,182.3Zm7.07,5.53c.13-2,1.47-2.57,3-1.38a7.44,7.44,0,0,1,2.51,5.7c-.14,2-1.48,2.58-3,1.39A7.45,7.45,0,0,1,542.76,187.83Zm7.06,5.54c.14-2,1.48-2.58,3-1.39a7.41,7.41,0,0,1,2.51,5.7c-.13,2-1.47,2.58-3,1.39A7.43,7.43,0,0,1,549.82,193.37Zm7.07,5.53c.13-2,1.48-2.58,3-1.39a7.46,7.46,0,0,1,2.51,5.7c-.14,2-1.48,2.58-3,1.39A7.41,7.41,0,0,1,556.89,198.9Zm7.06,5.53c.14-2,1.48-2.58,3-1.38a7.38,7.38,0,0,1,2.51,5.7c-.13,1.95-1.47,2.57-3,1.38A7.42,7.42,0,0,1,564,204.43ZM571,210c.14-2,1.48-2.57,3-1.38a7.41,7.41,0,0,1,2.51,5.7c-.13,1.95-1.48,2.57-3,1.38A7.44,7.44,0,0,1,571,210Zm7.07,5.54c.13-2,1.47-2.58,3-1.39a7.44,7.44,0,0,1,2.51,5.7c-.14,2-1.48,2.58-3,1.39A7.41,7.41,0,0,1,578.09,215.5Zm7.06,5.53c.14-2,1.48-2.58,3-1.39a7.44,7.44,0,0,1,2.51,5.7c-.13,2-1.48,2.58-3,1.39A7.44,7.44,0,0,1,585.15,221Zm7.07,5.53c.13-1.95,1.48-2.57,3-1.38a7.44,7.44,0,0,1,2.51,5.7c-.14,2-1.48,2.57-3,1.38A7.41,7.41,0,0,1,592.22,226.56Zm7.06,5.53c.14-2,1.48-2.57,3-1.38a7.4,7.4,0,0,1,2.5,5.7c-.13,2-1.48,2.57-3,1.38A7.44,7.44,0,0,1,599.28,232.09Zm7.07,5.54c.14-2,1.48-2.58,3-1.39a7.43,7.43,0,0,1,2.51,5.7c-.14,2-1.48,2.58-3,1.38A7.4,7.4,0,0,1,606.35,237.63Zm7.06,5.53c.14-2,1.49-2.58,3-1.38a7.44,7.44,0,0,1,2.51,5.69c-.14,2-1.49,2.58-3,1.39A7.47,7.47,0,0,1,613.41,243.16Zm7.07,5.53c.14-1.95,1.48-2.57,3-1.38A7.38,7.38,0,0,1,626,253c-.14,2-1.48,2.57-3,1.38A7.41,7.41,0,0,1,620.48,248.69Zm13.95,10.92c.13-1.95,1.48-2.57,3-1.38a7.44,7.44,0,0,1,2.51,5.69c-.14,2-1.49,2.58-3,1.39A7.4,7.4,0,0,1,634.43,259.61Zm13.94,10.92c.14-1.95,1.49-2.57,3-1.38a7.4,7.4,0,0,1,2.5,5.69c-.14,2-1.48,2.58-3,1.39A7.44,7.44,0,0,1,648.37,270.53Zm14,10.92c.14-1.95,1.48-2.57,3-1.38a7.37,7.37,0,0,1,2.51,5.69c-.14,2-1.49,2.57-3,1.38A7.4,7.4,0,0,1,662.32,281.45Zm13.94,10.92c.14-1.95,1.49-2.57,3-1.38a7.4,7.4,0,0,1,2.5,5.69c-.14,2-1.48,2.57-3,1.38A7.37,7.37,0,0,1,676.26,292.37Zm14,10.92c.14-2,1.49-2.57,3-1.38a7.4,7.4,0,0,1,2.5,5.69c-.14,2-1.49,2.57-3,1.38A7.4,7.4,0,0,1,690.21,303.29Zm13.94,10.92c.14-2,1.49-2.57,3-1.38a7.33,7.33,0,0,1,2.5,5.69c-.14,2-1.48,2.57-3,1.38A7.37,7.37,0,0,1,704.15,314.21Zm14,10.92c.14-2,1.49-2.57,3-1.38a7.4,7.4,0,0,1,2.5,5.69c-.14,1.95-1.49,2.57-3,1.38A7.4,7.4,0,0,1,718.1,325.13Zm13.95,10.92c.14-2,1.49-2.57,3-1.38a7.4,7.4,0,0,1,2.5,5.69c-.15,1.95-1.49,2.57-3,1.38A7.33,7.33,0,0,1,732.05,336.05ZM746,347c.14-2,1.49-2.57,3-1.38a7.36,7.36,0,0,1,2.5,5.69c-.14,2-1.49,2.57-3,1.38A7.41,7.41,0,0,1,746,347Zm14,10.91c.14-1.95,1.49-2.56,3-1.37a7.4,7.4,0,0,1,2.5,5.69c-.14,1.95-1.49,2.57-3,1.37A7.37,7.37,0,0,1,759.94,357.88Zm13.94,10.92c.15-1.95,1.5-2.56,3-1.37a7.35,7.35,0,0,1,2.49,5.69c-.14,1.95-1.49,2.56-3,1.37A7.4,7.4,0,0,1,773.88,368.8Zm14,10.92c.14-2,1.49-2.56,3-1.37a7.36,7.36,0,0,1,2.5,5.69c-.14,1.95-1.49,2.56-3,1.37A7.39,7.39,0,0,1,787.83,379.72Zm13.94,10.92c.15-1.95,1.5-2.56,3-1.37a7.35,7.35,0,0,1,2.49,5.69c-.14,2-1.49,2.56-3,1.37A7.4,7.4,0,0,1,801.77,390.64Zm14,10.92c.14-1.95,1.5-2.56,3-1.37a7.39,7.39,0,0,1,2.49,5.69c-.14,1.95-1.5,2.56-3,1.37A7.39,7.39,0,0,1,815.72,401.56Zm13.95,10.92c.14-2,1.49-2.56,3-1.37a7.36,7.36,0,0,1,2.5,5.69c-.15,1.94-1.5,2.56-3,1.37A7.35,7.35,0,0,1,829.67,412.48Zm13.94,10.92c.15-1.95,1.5-2.56,3-1.37a7.35,7.35,0,0,1,2.49,5.69c-.14,1.94-1.5,2.56-3,1.37A7.4,7.4,0,0,1,843.61,423.4Zm13.95,10.92c.14-1.95,1.5-2.56,3-1.37a7.38,7.38,0,0,1,2.49,5.68c-.15,1.95-1.5,2.57-3,1.37A7.33,7.33,0,0,1,857.56,434.32Zm13.94,10.92c.15-1.95,1.5-2.56,3-1.37a7.31,7.31,0,0,1,2.49,5.68c-.14,1.95-1.5,2.56-3,1.37A7.37,7.37,0,0,1,871.5,445.24Zm14,10.92c.15-2,1.5-2.56,3-1.37a7.35,7.35,0,0,1,2.49,5.68c-.15,1.95-1.5,2.56-3,1.37A7.33,7.33,0,0,1,885.45,456.16Zm13.94,10.92c.15-1.95,1.5-2.56,3-1.37a7.34,7.34,0,0,1,2.48,5.68c-.14,1.95-1.5,2.56-3,1.37A7.37,7.37,0,0,1,899.39,467.08Zm14,10.92c.15-1.95,1.5-2.56,3-1.37a7.31,7.31,0,0,1,2.49,5.68c-.15,1.95-1.5,2.56-3,1.37A7.35,7.35,0,0,1,913.34,478Zm13.95,10.92c.14-1.95,1.5-2.56,3-1.37a7.38,7.38,0,0,1,2.49,5.68c-.15,1.95-1.51,2.56-3,1.37A7.34,7.34,0,0,1,927.29,488.92Zm13.94,10.92c.15-1.95,1.5-2.56,3-1.37a7.34,7.34,0,0,1,2.48,5.68c-.15,2-1.5,2.56-3,1.37A7.33,7.33,0,0,1,941.23,499.84Z"/><polygon class="cls-10" points="958.73 500.2 979.86 489.44 977.12 513.66 956.02 524.75 958.73 500.2"/><polygon class="cls-5" points="934.71 866.15 914.1 876.75 914.62 872.31 935.34 861.86 934.71 866.15"/><polygon class="cls-3" points="850.85 822.38 877.68 843.39 879.5 822.87 867.62 813.56 850.85 822.38"/><path class="cls-3" d="M935.34,861.86l-21.47-16.81,37.54-322.64L933.63,509,893.5,855.55l0,.2,21.15,16.56Zm-36.77-9.5Z"/><path class="cls-11" d="M914.62,872.32l-21.14-16.56,40.75-343.22,21.26,16.65,21.12-11.08.51-4.45L956,524.75l-63.89-50-.53,4.44,22.94,18L873.79,840.34l-22.94-18-.53,4.44,63.78,49.93Zm4.91-360.15c.2-1.72,1.6-2.14,3.12-.95a6.58,6.58,0,0,1,2.39,5.26c-.21,1.71-1.61,2.13-3.13.94A6.52,6.52,0,0,1,919.53,512.17Zm-1.92,16.14c.2-1.72,1.6-2.14,3.13-.95a6.57,6.57,0,0,1,2.38,5.26c-.2,1.72-1.6,2.15-3.13,1A6.55,6.55,0,0,1,917.61,528.31Zm-1.92,16.14c.2-1.72,1.61-2.14,3.13-1a6.57,6.57,0,0,1,2.38,5.26c-.2,1.72-1.6,2.15-3.13,1A6.55,6.55,0,0,1,915.69,544.45Zm-1.92,16.14c.21-1.71,1.61-2.14,3.13-1a6.54,6.54,0,0,1,2.38,5.27c-.2,1.71-1.6,2.14-3.12,1A6.58,6.58,0,0,1,913.77,560.59Zm-1.91,16.15c.2-1.72,1.6-2.15,3.12-1a6.58,6.58,0,0,1,2.39,5.27c-.21,1.71-1.61,2.14-3.13,1A6.55,6.55,0,0,1,911.86,576.74Zm-1.92,16.14c.2-1.72,1.6-2.14,3.12-1a6.5,6.5,0,0,1,2.39,5.26c-.2,1.71-1.61,2.14-3.12.95A6.56,6.56,0,0,1,909.94,592.88ZM908,609c.21-1.72,1.6-2.14,3.13-.95a6.52,6.52,0,0,1,2.38,5.26c-.19,1.72-1.59,2.14-3.12.95A6.58,6.58,0,0,1,908,609Zm-1.92,16.14c.21-1.72,1.6-2.14,3.13-.95a6.56,6.56,0,0,1,2.39,5.26c-.2,1.71-1.6,2.14-3.13.95A6.61,6.61,0,0,1,906.1,625.16Zm-1.91,16.14c.21-1.72,1.6-2.14,3.12-.95a6.55,6.55,0,0,1,2.39,5.26c-.2,1.71-1.6,2.14-3.12.95A6.55,6.55,0,0,1,904.19,641.3Zm-1.91,16.14c.2-1.72,1.6-2.14,3.12-1a6.61,6.61,0,0,1,2.39,5.27c-.21,1.7-1.61,2.13-3.13.94A6.54,6.54,0,0,1,902.28,657.44Zm-1.92,16.14c.2-1.72,1.6-2.14,3.12-1a6.6,6.6,0,0,1,2.39,5.27c-.21,1.71-1.61,2.13-3.13.94A6.52,6.52,0,0,1,900.36,673.58Zm-1.92,16.14c.2-1.71,1.6-2.14,3.13-.94A6.55,6.55,0,0,1,904,694c-.2,1.72-1.6,2.14-3.12.94A6.56,6.56,0,0,1,898.44,689.72Zm-1.92,16.14c.2-1.71,1.6-2.14,3.13-.94a6.55,6.55,0,0,1,2.38,5.26c-.2,1.72-1.59,2.14-3.12.94A6.56,6.56,0,0,1,896.52,705.86ZM894.61,722c.2-1.7,1.6-2.13,3.12-.94a6.58,6.58,0,0,1,2.39,5.26c-.21,1.72-1.6,2.14-3.12.95A6.53,6.53,0,0,1,894.61,722Zm-1.92,16.14c.2-1.71,1.6-2.13,3.12-.94a6.58,6.58,0,0,1,2.39,5.26c-.2,1.72-1.6,2.14-3.12.95A6.55,6.55,0,0,1,892.69,738.14Zm-1.91,16.15c.2-1.72,1.6-2.14,3.12-.95a6.58,6.58,0,0,1,2.39,5.26c-.21,1.72-1.61,2.14-3.13.95A6.54,6.54,0,0,1,890.78,754.29Zm-1.92,16.14c.2-1.72,1.6-2.14,3.13-.95a6.57,6.57,0,0,1,2.38,5.26c-.2,1.72-1.6,2.15-3.13,1A6.55,6.55,0,0,1,888.86,770.43Zm-1.92,16.14c.2-1.72,1.6-2.14,3.13-1a6.57,6.57,0,0,1,2.38,5.26c-.2,1.72-1.6,2.15-3.13,1A6.55,6.55,0,0,1,886.94,786.57ZM885,802.71c.21-1.71,1.61-2.14,3.13-1a6.54,6.54,0,0,1,2.38,5.27c-.2,1.71-1.6,2.14-3.12,1A6.56,6.56,0,0,1,885,802.71Zm-1.92,16.14c.21-1.71,1.61-2.14,3.13-1a6.54,6.54,0,0,1,2.38,5.27c-.2,1.71-1.6,2.14-3.12,1A6.58,6.58,0,0,1,883.1,818.85ZM881.19,835c.2-1.72,1.6-2.14,3.12-1a6.52,6.52,0,0,1,2.39,5.26c-.2,1.71-1.61,2.14-3.12,1A6.56,6.56,0,0,1,881.19,835Z"/><ellipse class="cls-7" cx="917.8" cy="861.49" rx="2.67" ry="4.15" transform="matrix(0.14, -0.99, 0.99, 0.14, -63.87, 1649.42)"/><ellipse class="cls-7" cx="869.73" cy="826.53" rx="2.67" ry="4.15" transform="translate(-70.59 1571.77) rotate(-81.94)"/><polygon class="cls-12" points="873.52 830.46 875.43 826.56 875.65 824.67 873.72 828.75 873.72 828.75 873.52 830.46 873.52 830.46"/><polygon class="cls-13" points="863.62 826.42 865.55 822.35 871.56 821.49 875.65 824.68 873.72 828.75 867.71 829.62 863.62 826.42"/><polygon class="cls-14" points="867.53 831.21 873.52 830.46 873.72 828.75 867.71 829.62 867.68 829.6 867.5 831.19 867.53 831.21"/><polygon class="cls-12" points="867.68 829.6 863.63 826.43 863.45 828.02 867.5 831.19 867.68 829.6"/><ellipse class="cls-15" cx="869.8" cy="824.62" rx="2.2" ry="3.02" transform="translate(-315.7 1001.09) rotate(-51.94)"/><ellipse class="cls-16" cx="869.83" cy="824.35" rx="2.2" ry="3.02" transform="translate(-313.49 1013.85) rotate(-52.56)"/><ellipse class="cls-17" cx="869.86" cy="824.08" rx="2.19" ry="3.02" transform="matrix(0.6, -0.8, 0.8, 0.6, -311.14, 1026.6)"/><ellipse class="cls-18" cx="869.89" cy="823.81" rx="2.19" ry="3.02" transform="translate(-308.64 1039.32) rotate(-53.8)"/><ellipse class="cls-19" cx="869.92" cy="823.54" rx="2.19" ry="3.02" transform="translate(-305.99 1052.02) rotate(-54.43)"/><ellipse class="cls-20" cx="869.95" cy="823.27" rx="2.19" ry="3.02" transform="translate(-303.21 1064.69) rotate(-55.05)"/><ellipse class="cls-21" cx="869.98" cy="823" rx="2.19" ry="3.02" transform="matrix(0.56, -0.83, 0.83, 0.56, -300.28, 1077.32)"/><ellipse class="cls-22" cx="870.01" cy="822.73" rx="2.19" ry="3.02" transform="translate(-297.21 1089.92) rotate(-56.29)"/><ellipse class="cls-23" cx="870.04" cy="822.46" rx="2.2" ry="3.02" transform="translate(-294 1102.47) rotate(-56.92)"/><ellipse class="cls-24" cx="870.07" cy="822.19" rx="2.2" ry="3.02" transform="translate(-290.66 1114.98) rotate(-57.54)"/><polygon class="cls-12" points="921.52 865.88 923.44 861.97 923.66 860.08 921.73 864.16 921.72 864.16 921.52 865.88 921.52 865.88"/><polygon class="cls-13" points="911.63 861.83 913.56 857.77 919.57 856.9 923.65 860.1 921.73 864.16 915.71 865.03 911.63 861.83"/><polygon class="cls-14" points="915.53 866.62 921.52 865.88 921.72 864.16 915.71 865.03 915.69 865.01 915.51 866.6 915.53 866.62"/><polygon class="cls-12" points="915.69 865.01 911.64 861.84 911.46 863.43 915.51 866.6 915.69 865.01"/><ellipse class="cls-15" cx="917.81" cy="860.04" rx="2.2" ry="3.02" transform="translate(-325.17 1052.47) rotate(-51.94)"/><ellipse class="cls-16" cx="917.84" cy="859.77" rx="2.2" ry="3.02" transform="translate(-322.79 1065.85) rotate(-52.56)"/><ellipse class="cls-17" cx="917.87" cy="859.5" rx="2.19" ry="3.02" transform="translate(-320.25 1079.22) rotate(-53.18)"/><ellipse class="cls-18" cx="917.9" cy="859.22" rx="2.19" ry="3.02" transform="translate(-317.56 1092.56) rotate(-53.8)"/><ellipse class="cls-19" cx="917.93" cy="858.95" rx="2.19" ry="3.02" transform="translate(-314.72 1105.88) rotate(-54.43)"/><ellipse class="cls-20" cx="917.96" cy="858.68" rx="2.19" ry="3.02" transform="translate(-311.73 1119.16) rotate(-55.05)"/><ellipse class="cls-21" cx="917.99" cy="858.41" rx="2.19" ry="3.02" transform="translate(-308.59 1132.41) rotate(-55.67)"/><ellipse class="cls-22" cx="918.02" cy="858.14" rx="2.19" ry="3.02" transform="translate(-305.31 1145.62) rotate(-56.29)"/><ellipse class="cls-23" cx="918.05" cy="857.87" rx="2.2" ry="3.02" transform="translate(-301.87 1158.78) rotate(-56.92)"/><ellipse class="cls-24" cx="918.08" cy="857.6" rx="2.2" ry="3.02" transform="translate(-298.3 1171.89) rotate(-57.54)"/><path class="cls-12" d="M956.14,494.24c-4.7-2.36-7.11-7.06-5-11.2s7.57-5.58,12.27-3.22,6.83,7.63,4.75,11.77S960.84,496.6,956.14,494.24Z"/><ellipse class="cls-25" cx="959.85" cy="486.85" rx="7.87" ry="9.52" transform="translate(93.97 1126.05) rotate(-63.33)"/><polygon class="cls-12" points="963.56 490.53 965.47 486.63 965.69 484.73 963.76 488.81 963.75 488.81 963.56 490.53 963.56 490.53"/><polygon class="cls-26" points="953.66 486.49 955.59 482.42 961.6 481.55 965.69 484.75 963.76 488.81 957.75 489.68 953.66 486.49"/><polygon class="cls-14" points="957.57 491.27 963.56 490.53 963.75 488.81 957.75 489.68 957.72 489.66 957.54 491.25 957.57 491.27"/><polygon class="cls-12" points="957.72 489.66 953.67 486.49 953.49 488.08 957.54 491.25 957.72 489.66"/><path class="cls-12" d="M911.37,459.18c-4.7-2.36-7.11-7.05-5-11.19s7.58-5.59,12.28-3.23,6.82,7.63,4.74,11.77S916.07,461.54,911.37,459.18Z"/><ellipse class="cls-25" cx="915.08" cy="451.79" rx="7.87" ry="9.52" transform="translate(100.62 1066.73) rotate(-63.33)"/><polygon class="cls-27" points="918.79 455.48 920.7 451.57 920.92 449.68 918.99 453.76 918.99 453.76 918.79 455.48 918.79 455.48"/><polygon class="cls-26" points="908.89 451.43 910.82 447.37 916.83 446.5 920.92 449.69 918.99 453.76 912.98 454.63 908.89 451.43"/><polygon class="cls-28" points="912.8 456.22 918.79 455.48 918.99 453.76 912.98 454.63 912.95 454.61 912.77 456.2 912.8 456.22"/><polygon class="cls-27" points="912.95 454.61 908.9 451.44 908.72 453.03 912.77 456.2 912.95 454.61"/><polygon class="cls-12" points="855.42 843.41 851.09 843.81 849.37 844.61 853.86 844.13 853.86 844.13 855.42 843.41 855.42 843.41"/><polygon class="cls-13" points="857.13 853.96 852.65 854.43 848.78 849.76 849.38 844.6 853.86 844.13 857.73 848.81 857.13 853.96"/><polygon class="cls-14" points="859.18 848.13 855.42 843.41 853.86 844.13 857.73 848.81 857.73 848.84 859.18 848.17 859.18 848.13"/><polygon class="cls-12" points="857.73 848.84 857.13 853.95 858.58 853.27 859.18 848.17 857.73 848.84"/><ellipse class="cls-15" cx="852.38" cy="849.62" rx="3.02" ry="2.2" transform="translate(-90.2 1597.93) rotate(-83.35)"/><ellipse class="cls-16" cx="852.13" cy="849.74" rx="3.02" ry="2.2" transform="translate(-82.37 1607.96) rotate(-83.97)"/><ellipse class="cls-17" cx="851.88" cy="849.86" rx="3.02" ry="2.19" transform="matrix(0.09, -1, 1, 0.09, -74.42, 1617.91)"/><ellipse class="cls-18" cx="851.64" cy="849.97" rx="3.02" ry="2.19" transform="translate(-66.37 1627.79) rotate(-85.22)"/><ellipse class="cls-19" cx="851.39" cy="850.09" rx="3.02" ry="2.19" transform="translate(-58.21 1637.57) rotate(-85.84)"/><ellipse class="cls-20" cx="851.14" cy="850.2" rx="3.02" ry="2.19" transform="translate(-49.95 1647.27) rotate(-86.46)"/><ellipse class="cls-21" cx="850.9" cy="850.32" rx="3.02" ry="2.19" transform="translate(-41.59 1656.87) rotate(-87.09)"/><ellipse class="cls-22" cx="850.65" cy="850.43" rx="3.02" ry="2.19" transform="translate(-33.13 1666.38) rotate(-87.71)"/><ellipse class="cls-23" cx="850.4" cy="850.55" rx="3.02" ry="2.2" transform="translate(-24.58 1675.79) rotate(-88.33)"/><ellipse class="cls-24" cx="850.16" cy="850.66" rx="3.02" ry="2.2" transform="translate(-15.94 1685.09) rotate(-88.95)"/><polygon class="cls-12" points="900.64 877.51 896.31 877.91 894.58 878.71 899.07 878.24 899.07 878.24 900.64 877.51 900.64 877.51"/><polygon class="cls-13" points="902.34 888.07 897.87 888.54 893.99 883.86 894.6 878.71 899.07 878.24 902.94 882.91 902.34 888.07"/><polygon class="cls-14" points="904.4 882.24 900.64 877.51 899.07 878.24 902.94 882.91 902.94 882.94 904.39 882.27 904.4 882.24"/><polygon class="cls-12" points="902.94 882.94 902.35 888.05 903.8 887.38 904.39 882.27 902.94 882.94"/><ellipse class="cls-15" cx="897.59" cy="883.73" rx="3.02" ry="2.2" transform="translate(-84.1 1672.99) rotate(-83.35)"/><ellipse class="cls-16" cx="897.34" cy="883.84" rx="3.02" ry="2.2" transform="translate(-75.82 1683.45) rotate(-83.97)"/><ellipse class="cls-17" cx="897.1" cy="883.96" rx="3.02" ry="2.19" transform="translate(-67.42 1693.82) rotate(-84.6)"/><ellipse class="cls-18" cx="896.85" cy="884.08" rx="3.02" ry="2.19" transform="translate(-58.91 1704.11) rotate(-85.22)"/><ellipse class="cls-19" cx="896.6" cy="884.19" rx="3.02" ry="2.19" transform="translate(-50.29 1714.3) rotate(-85.84)"/><ellipse class="cls-20" cx="896.36" cy="884.31" rx="3.02" ry="2.19" transform="translate(-41.57 1724.4) rotate(-86.46)"/><ellipse class="cls-21" cx="896.11" cy="884.42" rx="3.02" ry="2.19" transform="translate(-32.74 1734.4) rotate(-87.09)"/><ellipse class="cls-22" cx="895.86" cy="884.54" rx="3.02" ry="2.19" transform="translate(-23.81 1744.3) rotate(-87.71)"/><ellipse class="cls-23" cx="895.62" cy="884.65" rx="3.02" ry="2.2" transform="translate(-14.78 1754.09) rotate(-88.33)"/><ellipse class="cls-24" cx="895.37" cy="884.77" rx="3.02" ry="2.2" transform="translate(-5.65 1763.78) rotate(-88.95)"/><polygon class="cls-12" points="899.29 467 894.96 467.4 893.23 468.2 897.72 467.72 897.72 467.72 899.29 467 899.29 467"/><polygon class="cls-13" points="901 477.55 896.52 478.02 892.65 473.34 893.25 468.19 897.72 467.72 901.6 472.4 901 477.55"/><polygon class="cls-14" points="903.05 471.72 899.29 467 897.72 467.72 901.6 472.4 901.59 472.43 903.04 471.75 903.05 471.72"/><polygon class="cls-12" points="901.59 472.43 901 477.54 902.45 476.86 903.04 471.75 901.59 472.43"/><ellipse class="cls-15" cx="896.24" cy="473.21" rx="3.02" ry="2.2" transform="translate(322.47 1308.65) rotate(-83.35)"/><ellipse class="cls-16" cx="896" cy="473.33" rx="3.02" ry="2.2" transform="translate(331.23 1314.68) rotate(-83.97)"/><ellipse class="cls-17" cx="895.75" cy="473.44" rx="3.02" ry="2.19" transform="translate(340.05 1320.62) rotate(-84.6)"/><ellipse class="cls-18" cx="895.5" cy="473.56" rx="3.02" ry="2.19" transform="translate(348.94 1326.47) rotate(-85.22)"/><ellipse class="cls-19" cx="895.26" cy="473.67" rx="3.02" ry="2.19" transform="translate(357.89 1332.21) rotate(-85.84)"/><ellipse class="cls-20" cx="895.01" cy="473.79" rx="3.02" ry="2.19" transform="translate(366.9 1337.86) rotate(-86.46)"/><ellipse class="cls-21" cx="894.76" cy="473.91" rx="3.02" ry="2.19" transform="translate(375.97 1343.41) rotate(-87.09)"/><ellipse class="cls-22" cx="894.52" cy="474.02" rx="3.02" ry="2.19" transform="translate(385.09 1348.86) rotate(-87.71)"/><ellipse class="cls-23" cx="894.27" cy="474.14" rx="3.02" ry="2.2" transform="translate(394.26 1354.2) rotate(-88.33)"/><ellipse class="cls-24" cx="894.02" cy="474.25" rx="3.02" ry="2.2" transform="translate(403.47 1359.44) rotate(-88.95)"/><polygon class="cls-12" points="944.5 501.1 940.17 501.5 938.45 502.3 942.93 501.82 942.94 501.82 944.5 501.1 944.5 501.1"/><polygon class="cls-13" points="946.21 511.65 941.73 512.13 937.86 507.45 938.46 502.3 942.93 501.82 946.81 506.5 946.21 511.65"/><polygon class="cls-14" points="948.26 505.83 944.5 501.1 942.94 501.82 946.81 506.5 946.81 506.53 948.26 505.86 948.26 505.83"/><polygon class="cls-12" points="946.81 506.53 946.21 511.64 947.66 510.97 948.26 505.86 946.81 506.53"/><ellipse class="cls-15" cx="941.46" cy="507.32" rx="3.02" ry="2.2" transform="translate(328.57 1383.72) rotate(-83.35)"/><ellipse class="cls-16" cx="941.21" cy="507.43" rx="3.02" ry="2.2" transform="translate(337.78 1390.17) rotate(-83.97)"/><ellipse class="cls-17" cx="940.96" cy="507.55" rx="3.02" ry="2.19" transform="translate(347.05 1396.53) rotate(-84.6)"/><ellipse class="cls-18" cx="940.72" cy="507.66" rx="3.02" ry="2.19" transform="translate(356.4 1402.79) rotate(-85.22)"/><ellipse class="cls-19" cx="940.47" cy="507.78" rx="3.02" ry="2.19" transform="matrix(0.07, -1, 1, 0.07, 365.81, 1408.94)"/><ellipse class="cls-20" cx="940.22" cy="507.89" rx="3.02" ry="2.19" transform="translate(375.29 1414.99) rotate(-86.46)"/><ellipse class="cls-21" cx="939.98" cy="508.01" rx="3.02" ry="2.19" transform="translate(384.82 1420.94) rotate(-87.09)"/><ellipse class="cls-22" cx="939.73" cy="508.13" rx="3.02" ry="2.19" transform="translate(394.42 1426.78) rotate(-87.71)"/><ellipse class="cls-23" cx="939.48" cy="508.24" rx="3.02" ry="2.2" transform="translate(404.06 1432.5) rotate(-88.33)"/><ellipse class="cls-24" cx="939.24" cy="508.36" rx="3.02" ry="2.2" transform="translate(413.76 1438.12) rotate(-88.95)"/><path class="cls-29" d="M802.29,548c1.52,1.19,3.84,1.53,5.19.75s1.2-2.37-.32-3.56-3.85-1.53-5.19-.75S800.76,546.84,802.29,548Z"/><path class="cls-29" d="M789.4,555.46c1.53,1.19,3.85,1.53,5.2.75s1.2-2.37-.32-3.56-3.85-1.53-5.2-.75S787.88,554.27,789.4,555.46Z"/><path class="cls-29" d="M750.75,577.75c1.53,1.19,3.85,1.53,5.2.75s1.2-2.37-.32-3.56-3.85-1.53-5.19-.75S749.23,576.56,750.75,577.75Z"/><path class="cls-29" d="M815.17,540.6c1.52,1.19,3.85,1.53,5.19.75s1.21-2.37-.32-3.56-3.84-1.53-5.19-.75S813.65,539.41,815.17,540.6Z"/><path class="cls-29" d="M776.52,562.89c1.52,1.19,3.85,1.53,5.19.75s1.21-2.37-.31-3.56-3.85-1.53-5.2-.75S775,561.7,776.52,562.89Z"/><path class="cls-29" d="M763.64,570.32c1.52,1.19,3.84,1.53,5.19.75s1.2-2.37-.32-3.56-3.84-1.53-5.19-.75S762.12,569.13,763.64,570.32Z"/><path class="cls-29" d="M828.05,533.17c1.52,1.19,3.85,1.53,5.2.75s1.2-2.37-.32-3.56-3.85-1.53-5.2-.75S826.53,532,828.05,533.17Z"/><path class="cls-29" d="M879.58,503.45c1.53,1.19,3.85,1.53,5.2.75s1.2-2.37-.32-3.56a5.11,5.11,0,0,0-5.19-.76C877.92,500.66,878.06,502.26,879.58,503.45Z"/><path class="cls-29" d="M840.94,525.74c1.52,1.19,3.84,1.53,5.19.75s1.2-2.37-.32-3.56-3.85-1.53-5.19-.75S839.41,524.55,840.94,525.74Z"/><path class="cls-29" d="M892.47,496c1.52,1.19,3.84,1.53,5.19.75s1.2-2.37-.32-3.56a5.11,5.11,0,0,0-5.19-.76C890.8,493.23,891,494.83,892.47,496Z"/><path class="cls-29" d="M866.7,510.88c1.52,1.19,3.85,1.53,5.19.75s1.21-2.37-.31-3.56-3.85-1.53-5.2-.76S865.18,509.69,866.7,510.88Z"/><path class="cls-29" d="M853.82,518.31c1.52,1.19,3.85,1.53,5.19.75s1.21-2.37-.32-3.56-3.84-1.53-5.19-.75S852.3,517.12,853.82,518.31Z"/><path class="cls-29" d="M905.35,488.59c1.52,1.19,3.85,1.53,5.19.75s1.21-2.37-.31-3.56A5.13,5.13,0,0,0,905,485C903.69,485.8,903.83,487.4,905.35,488.59Z"/><path class="cls-28" d="M933.3,485.85,744.58,594.69,762,608.33l168.59-98,21.2,16.4,2.66-24.32Zm12.23,25.43c-1.45.67-3.45-.58-4.47-2.78s-.67-4.53.78-5.2,3.44.57,4.46,2.78S947,510.61,945.53,511.28Z"/><polygon class="cls-28" points="759.15 637.29 762.92 635.37 765.33 610.94 765.33 610.94 761.85 612.95 759.15 637.29"/><polygon class="cls-5" points="957.93 500.4 954.44 502.41 951.78 526.73 955.22 524.95 957.93 500.4"/><path class="cls-11" d="M890.54,452.38l-2.32,24.78,5.82,4.56,19.57-11.28Zm9.91,23.6c-1.45.67-3.45-.57-4.47-2.78s-.67-4.53.78-5.2,3.44.58,4.46,2.78S901.9,475.32,900.45,476Z"/><polygon class="cls-4" points="765.33 610.94 765.33 610.94 761.99 608.33 760.27 609.32 765.33 610.94"/><path class="cls-4" d="M751.7,605l-7.12-10.3,188.6-109.5,21.26,17.22,3.49-2-63.78-49.94-3.48,2,22.94,18h0l.66.52-18.81,11.87L894,481.72,724.89,579.28l-22.94-18-3.48,2,.06,0v0ZM905,485a5.13,5.13,0,0,1,5.2.76c1.52,1.19,1.66,2.78.31,3.56s-3.67.44-5.19-.75S903.69,485.8,905,485Zm-12.88,7.43a5.11,5.11,0,0,1,5.19.76c1.52,1.19,1.67,2.78.32,3.56s-3.67.44-5.19-.75S890.8,493.23,892.15,492.45Zm-12.88,7.43a5.11,5.11,0,0,1,5.19.76c1.52,1.19,1.66,2.78.32,3.56s-3.67.44-5.2-.75S877.92,500.66,879.27,499.88Zm-12.89,7.43c1.35-.77,3.67-.43,5.2.76s1.66,2.78.31,3.56-3.67.44-5.19-.75S865,508.09,866.38,507.31Zm-12.88,7.44c1.35-.78,3.67-.44,5.19.75s1.67,2.78.32,3.56-3.67.44-5.19-.75S852.15,515.52,853.5,514.75Zm-12.88,7.43c1.34-.78,3.67-.44,5.19.75s1.66,2.78.32,3.56-3.67.44-5.19-.75S839.27,523,840.62,522.18Zm-12.89,7.43c1.35-.78,3.68-.44,5.2.75s1.66,2.79.32,3.56-3.68.44-5.2-.75S826.39,530.38,827.73,529.61ZM814.85,537c1.35-.78,3.67-.44,5.19.75s1.67,2.79.32,3.56-3.67.44-5.19-.75S813.5,537.81,814.85,537ZM802,544.47c1.34-.78,3.67-.44,5.19.75s1.67,2.79.32,3.56-3.67.44-5.19-.75S800.62,545.24,802,544.47Zm-12.89,7.43c1.35-.78,3.68-.44,5.2.75s1.66,2.79.32,3.56-3.67.44-5.2-.75S787.74,552.67,789.08,551.9Zm-12.88,7.43c1.35-.78,3.67-.44,5.2.75s1.66,2.79.31,3.56-3.67.44-5.19-.75S774.86,560.1,776.2,559.33Zm-12.88,7.43c1.35-.78,3.67-.44,5.19.75s1.67,2.79.32,3.56-3.67.44-5.19-.75S762,567.53,763.32,566.76Zm-12.88,7.43c1.34-.78,3.67-.44,5.19.75s1.66,2.79.32,3.56-3.67.44-5.2-.75S749.09,575,750.44,574.19Z"/><polygon class="cls-4" points="933.3 485.85 954.44 502.41 933.17 485.19 744.58 594.69 751.7 604.99 761.85 612.95 765.33 610.94 760.27 609.32 761.99 608.33 744.58 594.69 933.3 485.85"/><polygon class="cls-4" points="914.27 470.96 913.61 470.44 894.04 481.72 895.46 482.83 914.27 470.96"/><path class="cls-7" d="M941.84,503.3c-1.45.67-1.8,3-.78,5.2s3,3.45,4.47,2.78,1.79-3,.77-5.2S943.28,502.63,941.84,503.3Z"/><path class="cls-7" d="M901.22,470.78c-1-2.2-3-3.45-4.46-2.78s-1.8,3-.78,5.2,3,3.45,4.47,2.78S902.24,473,901.22,470.78Z"/><path class="cls-28" d="M751.71,605l-53.18-41.63-2.85,24.49,63.47,49.42-5.16-29Zm-42.86-16.45c-2,.62-4.52-1.67-5.55-5.09s-.22-6.7,1.81-7.31,4.52,1.67,5.55,5.09S710.88,588,708.85,588.56Zm38.51,30.69c-2,.62-4.52-1.66-5.55-5.09s-.22-6.7,1.81-7.31,4.52,1.67,5.55,5.1S749.39,618.64,747.36,619.25Z"/><polygon class="cls-28" points="751.71 605.01 753.99 608.32 759.15 637.29 761.85 612.95 751.71 605.01"/><polygon class="cls-28" points="751.7 604.99 698.54 563.33 698.53 563.38 751.71 605.01 751.7 604.99"/><polygon class="cls-28" points="761.85 612.95 751.7 604.99 751.71 605.01 761.85 612.95"/><path class="cls-29" d="M784.19,909.53c1.52,1.19,3.85,1.53,5.2.75s1.2-2.37-.32-3.56-3.85-1.53-5.2-.75S782.67,908.34,784.19,909.53Z"/><path class="cls-29" d="M745.54,931.82c1.53,1.19,3.85,1.53,5.2.75s1.2-2.37-.32-3.56-3.85-1.53-5.19-.75S744,930.63,745.54,931.82Z"/><path class="cls-29" d="M758.43,924.39c1.52,1.19,3.84,1.53,5.19.75s1.2-2.37-.32-3.56-3.85-1.53-5.19-.75S756.9,923.2,758.43,924.39Z"/><path class="cls-29" d="M771.31,917c1.52,1.19,3.85,1.53,5.19.75s1.21-2.37-.32-3.56-3.84-1.53-5.19-.75S769.79,915.77,771.31,917Z"/><path class="cls-29" d="M732.66,939.25c1.52,1.19,3.85,1.53,5.19.75s1.21-2.37-.31-3.56-3.85-1.53-5.2-.75S731.14,938.06,732.66,939.25Z"/><path class="cls-29" d="M719.78,946.68c1.52,1.19,3.84,1.53,5.19.75s1.2-2.37-.32-3.56-3.84-1.53-5.19-.75S718.26,945.49,719.78,946.68Z"/><path class="cls-29" d="M810,894.67c1.52,1.19,3.85,1.53,5.19.75s1.21-2.37-.32-3.56-3.84-1.53-5.19-.75S808.44,893.48,810,894.67Z"/><path class="cls-29" d="M861.49,865c1.52,1.19,3.85,1.53,5.19.75s1.21-2.37-.31-3.56a5.13,5.13,0,0,0-5.2-.76C859.83,862.16,860,863.76,861.49,865Z"/><path class="cls-29" d="M848.61,872.38c1.52,1.19,3.84,1.53,5.19.75s1.2-2.37-.32-3.56a5.11,5.11,0,0,0-5.19-.76C846.94,869.59,847.09,871.19,848.61,872.38Z"/><path class="cls-29" d="M706.89,954.11c1.53,1.19,3.85,1.53,5.2.75s1.2-2.37-.32-3.56-3.85-1.53-5.19-.75S705.37,952.92,706.89,954.11Z"/><path class="cls-29" d="M797.08,902.1c1.52,1.19,3.84,1.53,5.19.75s1.2-2.37-.32-3.56-3.85-1.53-5.19-.75S795.55,900.91,797.08,902.1Z"/><path class="cls-29" d="M822.84,887.24c1.52,1.19,3.85,1.53,5.19.75s1.21-2.37-.31-3.56-3.85-1.53-5.2-.76S821.32,886.05,822.84,887.24Z"/><path class="cls-29" d="M835.72,879.81c1.53,1.19,3.85,1.53,5.2.75s1.2-2.37-.32-3.56a5.11,5.11,0,0,0-5.19-.76C834.06,877,834.2,878.62,835.72,879.81Z"/><path class="cls-28" d="M910.58,878.77l-21.14-16.56L700.72,971.05l17.41,13.64,168.59-98,21.2,16.4,2.66-24.32Zm-8.91,8.87c-1.45.67-3.45-.58-4.47-2.78s-.67-4.53.78-5.2,3.44.57,4.46,2.78S903.11,887,901.67,887.64Z"/><polygon class="cls-28" points="715.29 1013.65 719.06 1011.73 721.47 987.3 721.47 987.3 717.99 989.31 715.29 1013.65"/><polygon class="cls-5" points="914.07 876.76 911.46 878.27 910.59 878.77 907.92 903.09 911.36 901.31 914.07 876.76"/><path class="cls-11" d="M846.68,828.74l-2.32,24.78,5.82,4.56,19.57-11.28Zm9.91,23.6c-1.45.67-3.45-.57-4.47-2.78s-.67-4.53.78-5.2,3.44.58,4.46,2.78S858,851.68,856.59,852.34Z"/><polygon class="cls-4" points="721.47 987.3 721.47 987.3 718.13 984.69 716.41 985.68 721.47 987.3"/><path class="cls-4" d="M707.84,981.35l-7.12-10.3,188.6-109.5,21.26,17.22.88-.5,2.61-1.51-63.78-49.94-3.48,2,22.94,18h0l.66.52L851.6,859.19l-1.42-1.11L681,955.64l-22.94-18-3.48,2,.07,0v0Zm153.33-120a5.13,5.13,0,0,1,5.2.76c1.52,1.19,1.66,2.78.31,3.56s-3.67.44-5.19-.75S859.83,862.16,861.17,861.38Zm-12.88,7.43a5.11,5.11,0,0,1,5.19.76c1.52,1.19,1.67,2.78.32,3.56s-3.67.44-5.19-.75S846.94,869.59,848.29,868.81Zm-12.88,7.43a5.11,5.11,0,0,1,5.19.76c1.52,1.19,1.66,2.78.32,3.56s-3.67.44-5.2-.75S834.06,877,835.41,876.24Zm-12.89,7.43c1.35-.77,3.67-.43,5.2.76s1.66,2.78.31,3.56-3.67.44-5.19-.75S821.18,884.45,822.52,883.67Zm-12.88,7.44c1.35-.78,3.67-.44,5.19.75s1.67,2.78.32,3.56-3.67.44-5.19-.75S808.29,891.88,809.64,891.11Zm-12.88,7.43c1.34-.78,3.67-.44,5.19.75s1.66,2.78.32,3.56-3.67.44-5.19-.75S795.41,899.31,796.76,898.54ZM783.87,906c1.35-.78,3.68-.44,5.2.75s1.66,2.79.32,3.56-3.68.44-5.2-.75S782.53,906.74,783.87,906ZM771,913.4c1.35-.78,3.67-.44,5.19.75s1.67,2.79.32,3.56-3.67.44-5.19-.75S769.65,914.17,771,913.4Zm-12.88,7.43c1.34-.78,3.67-.44,5.19.75s1.67,2.79.32,3.56-3.67.44-5.19-.75S756.76,921.6,758.11,920.83Zm-12.88,7.43c1.34-.78,3.67-.44,5.19.75s1.66,2.79.32,3.56-3.67.44-5.2-.75S743.88,929,745.23,928.26Zm-12.89,7.43c1.35-.78,3.67-.44,5.2.75s1.66,2.79.31,3.56-3.67.44-5.19-.75S731,936.46,732.34,935.69Zm-12.88,7.43c1.35-.78,3.67-.44,5.19.75s1.67,2.79.32,3.56-3.67.44-5.19-.75S718.11,943.89,719.46,943.12Zm-12.88,7.43c1.34-.78,3.67-.44,5.19.75s1.66,2.79.32,3.56-3.67.44-5.2-.75S705.23,951.32,706.58,950.55Z"/><polygon class="cls-4" points="889.44 862.21 910.59 878.77 910.59 878.77 910.59 878.77 889.32 861.55 700.72 971.05 707.84 981.35 717.99 989.31 721.47 987.3 716.41 985.68 718.13 984.69 700.72 971.05 889.44 862.21"/><polygon class="cls-4" points="910.59 878.77 911.46 878.27 910.59 878.77 910.59 878.77"/><polygon class="cls-4" points="870.41 847.32 869.75 846.8 850.18 858.08 851.6 859.19 870.41 847.32"/><path class="cls-7" d="M898,879.66c-1.45.67-1.8,3-.78,5.2s3,3.45,4.47,2.78,1.79-3,.77-5.2S899.42,879,898,879.66Z"/><path class="cls-7" d="M857.36,847.14c-1-2.2-3-3.45-4.46-2.78s-1.8,3-.78,5.2,3,3.45,4.47,2.78S858.38,849.35,857.36,847.14Z"/><path class="cls-28" d="M707.85,981.37l-53.17-41.63-2.86,24.49,63.47,49.43-5.16-29Zm-43.06-14.74c-2,.61-4.52-1.67-5.55-5.09s-.22-6.7,1.81-7.31,4.52,1.67,5.55,5.09S666.82,966,664.79,966.63Zm38.51,30.69c-2,.61-4.52-1.67-5.55-5.09s-.22-6.7,1.81-7.31,4.52,1.67,5.55,5.09S705.33,996.71,703.3,997.32Z"/><polygon class="cls-28" points="707.85 981.37 710.13 984.68 715.29 1013.65 717.99 989.31 707.85 981.37"/><polygon class="cls-28" points="707.84 981.35 654.68 939.69 654.67 939.74 707.85 981.37 707.84 981.35"/><polygon class="cls-28" points="717.99 989.31 707.84 981.35 707.85 981.37 717.99 989.31"/><polygon class="cls-12" points="856.15 843.34 851.83 843.74 850.1 844.54 854.59 844.06 854.59 844.06 856.15 843.34 856.15 843.34"/><polygon class="cls-13" points="857.86 853.89 853.39 854.36 849.51 849.69 850.11 844.53 854.59 844.06 858.46 848.74 857.86 853.89"/><polygon class="cls-14" points="859.91 848.06 856.15 843.34 854.59 844.06 858.46 848.74 858.46 848.77 859.91 848.1 859.91 848.06"/><polygon class="cls-12" points="858.46 848.77 857.86 853.88 859.32 853.2 859.91 848.1 858.46 848.77"/><ellipse class="cls-15" cx="853.11" cy="849.55" rx="3.02" ry="2.2" transform="translate(-89.48 1598.59) rotate(-83.35)"/><ellipse class="cls-16" cx="852.86" cy="849.67" rx="3.02" ry="2.2" transform="translate(-81.64 1608.62) rotate(-83.97)"/><ellipse class="cls-17" cx="852.62" cy="849.79" rx="3.02" ry="2.19" transform="translate(-73.69 1618.58) rotate(-84.6)"/><ellipse class="cls-18" cx="852.37" cy="849.9" rx="3.02" ry="2.19" transform="translate(-65.63 1628.45) rotate(-85.22)"/><ellipse class="cls-19" cx="852.12" cy="850.02" rx="3.02" ry="2.19" transform="translate(-57.46 1638.24) rotate(-85.84)"/><ellipse class="cls-20" cx="851.88" cy="850.13" rx="3.02" ry="2.19" transform="translate(-49.2 1647.93) rotate(-86.46)"/><ellipse class="cls-21" cx="851.63" cy="850.25" rx="3.02" ry="2.19" transform="translate(-40.83 1657.54) rotate(-87.09)"/><ellipse class="cls-22" cx="851.38" cy="850.36" rx="3.02" ry="2.19" transform="translate(-32.36 1667.04) rotate(-87.71)"/><ellipse class="cls-23" cx="851.13" cy="850.48" rx="3.02" ry="2.2" transform="translate(-23.8 1676.45) rotate(-88.33)"/><ellipse class="cls-24" cx="850.89" cy="850.59" rx="3.02" ry="2.2" transform="translate(-15.15 1685.76) rotate(-88.95)"/><polygon class="cls-12" points="901.06 878.99 896.73 879.38 895 880.18 899.49 879.71 899.49 879.71 901.06 878.99 901.06 878.99"/><polygon class="cls-13" points="902.76 889.54 898.29 890.01 894.41 885.33 895.01 880.18 899.49 879.71 903.36 884.38 902.76 889.54"/><polygon class="cls-14" points="904.82 883.71 901.06 878.99 899.49 879.71 903.36 884.38 903.36 884.42 904.81 883.74 904.82 883.71"/><polygon class="cls-12" points="903.36 884.42 902.76 889.52 904.22 888.85 904.81 883.74 903.36 884.42"/><ellipse class="cls-15" cx="898.01" cy="885.2" rx="3.02" ry="2.2" transform="translate(-85.19 1674.71) rotate(-83.35)"/><ellipse class="cls-16" cx="897.76" cy="885.32" rx="3.02" ry="2.2" transform="translate(-76.9 1685.18) rotate(-83.97)"/><ellipse class="cls-17" cx="897.52" cy="885.43" rx="3.02" ry="2.19" transform="translate(-68.51 1695.57) rotate(-84.6)"/><ellipse class="cls-18" cx="897.27" cy="885.55" rx="3.02" ry="2.19" transform="translate(-59.99 1705.87) rotate(-85.22)"/><ellipse class="cls-19" cx="897.02" cy="885.66" rx="3.02" ry="2.19" transform="translate(-51.37 1716.08) rotate(-85.84)"/><ellipse class="cls-20" cx="896.78" cy="885.78" rx="3.02" ry="2.19" transform="translate(-42.64 1726.2) rotate(-86.46)"/><ellipse class="cls-21" cx="896.53" cy="885.89" rx="3.02" ry="2.19" transform="translate(-33.81 1736.22) rotate(-87.09)"/><ellipse class="cls-22" cx="896.28" cy="886.01" rx="3.02" ry="2.19" transform="translate(-24.87 1746.13) rotate(-87.71)"/><ellipse class="cls-23" cx="896.04" cy="886.13" rx="3.02" ry="2.2" transform="translate(-15.84 1755.94) rotate(-88.33)"/><ellipse class="cls-24" cx="895.79" cy="886.24" rx="3.02" ry="2.2" transform="translate(-6.71 1765.64) rotate(-88.95)"/><polygon class="cls-12" points="900.06 466.7 895.73 467.1 894 467.9 898.5 467.42 898.5 467.42 900.06 466.7 900.06 466.7"/><polygon class="cls-13" points="901.77 477.25 897.29 477.73 893.42 473.05 894.02 467.89 898.5 467.42 902.37 472.1 901.77 477.25"/><polygon class="cls-14" points="903.82 471.43 900.06 466.7 898.5 467.42 902.37 472.1 902.37 472.13 903.82 471.46 903.82 471.43"/><polygon class="cls-12" points="902.37 472.13 901.77 477.24 903.22 476.57 903.82 471.46 902.37 472.13"/><ellipse class="cls-15" cx="897.02" cy="472.92" rx="3.02" ry="2.2" transform="translate(323.45 1309.16) rotate(-83.35)"/><ellipse class="cls-16" cx="896.77" cy="473.03" rx="3.02" ry="2.2" transform="translate(332.21 1315.19) rotate(-83.97)"/><ellipse class="cls-17" cx="896.52" cy="473.15" rx="3.02" ry="2.19" transform="translate(341.05 1321.12) rotate(-84.6)"/><ellipse class="cls-18" cx="896.28" cy="473.26" rx="3.02" ry="2.19" transform="translate(349.94 1326.97) rotate(-85.22)"/><ellipse class="cls-19" cx="896.03" cy="473.38" rx="3.02" ry="2.19" transform="translate(358.9 1332.71) rotate(-85.84)"/><ellipse class="cls-20" cx="895.78" cy="473.49" rx="3.02" ry="2.19" transform="translate(367.92 1338.36) rotate(-86.46)"/><ellipse class="cls-21" cx="895.54" cy="473.61" rx="3.02" ry="2.19" transform="translate(377 1343.9) rotate(-87.09)"/><ellipse class="cls-22" cx="895.29" cy="473.72" rx="3.02" ry="2.19" transform="translate(386.13 1349.35) rotate(-87.71)"/><ellipse class="cls-23" cx="895.04" cy="473.84" rx="3.02" ry="2.2" transform="translate(395.3 1354.68) rotate(-88.33)"/><ellipse class="cls-24" cx="894.8" cy="473.96" rx="3.02" ry="2.2" transform="translate(404.53 1359.92) rotate(-88.95)"/><polygon class="cls-12" points="944.96 502.35 940.63 502.75 938.91 503.55 943.4 503.07 943.4 503.07 944.96 502.35 944.96 502.35"/><polygon class="cls-13" points="946.67 512.9 942.2 513.37 938.32 508.69 938.92 503.54 943.4 503.07 947.27 507.75 946.67 512.9"/><polygon class="cls-14" points="948.73 507.07 944.96 502.35 943.4 503.07 947.27 507.75 947.27 507.78 948.72 507.1 948.73 507.07"/><polygon class="cls-12" points="947.27 507.78 946.67 512.88 948.13 512.21 948.72 507.1 947.27 507.78"/><ellipse class="cls-15" cx="941.92" cy="508.56" rx="3.02" ry="2.2" transform="translate(327.75 1385.28) rotate(-83.35)"/><ellipse class="cls-16" cx="941.67" cy="508.68" rx="3.02" ry="2.2" transform="translate(336.95 1391.75) rotate(-83.97)"/><ellipse class="cls-17" cx="941.43" cy="508.79" rx="3.02" ry="2.19" transform="translate(346.23 1398.12) rotate(-84.6)"/><ellipse class="cls-18" cx="941.18" cy="508.91" rx="3.02" ry="2.19" transform="translate(355.58 1404.39) rotate(-85.22)"/><ellipse class="cls-19" cx="940.93" cy="509.02" rx="3.02" ry="2.19" transform="translate(365 1410.56) rotate(-85.84)"/><ellipse class="cls-20" cx="940.68" cy="509.14" rx="3.02" ry="2.19" transform="translate(374.48 1416.62) rotate(-86.46)"/><ellipse class="cls-21" cx="940.44" cy="509.26" rx="3.02" ry="2.19" transform="translate(384.02 1422.58) rotate(-87.09)"/><ellipse class="cls-22" cx="940.19" cy="509.37" rx="3.02" ry="2.19" transform="matrix(0.04, -1, 1, 0.04, 393.61, 1428.43)"/><ellipse class="cls-23" cx="939.94" cy="509.49" rx="3.02" ry="2.2" transform="translate(403.27 1434.18) rotate(-88.33)"/><ellipse class="cls-24" cx="939.7" cy="509.6" rx="3.02" ry="2.2" transform="translate(412.96 1439.81) rotate(-88.95)"/><path class="cls-4" d="M717.56,989.54,92.9,499.88l-19.55,12,623.59,488.26Zm-14.08,2.08a6.13,6.13,0,0,1-5.81-.72c-1.52-1.2-1.39-2.81.29-3.6a6.06,6.06,0,0,1,5.8.72C705.29,989.21,705.16,990.82,703.48,991.62Zm-15.63-12.24a6.06,6.06,0,0,1-5.8-.72c-1.52-1.19-1.39-2.8.28-3.6a6.11,6.11,0,0,1,5.8.72C689.66,977,689.53,978.58,687.85,979.38Zm-15.63-12.23a6.09,6.09,0,0,1-5.79-.72c-1.52-1.19-1.4-2.8.28-3.6a6.08,6.08,0,0,1,5.8.71C674,964.74,673.9,966.35,672.22,967.15ZM656.6,954.91a6.06,6.06,0,0,1-5.79-.71c-1.53-1.19-1.4-2.81.27-3.61a6.06,6.06,0,0,1,5.8.72C658.4,952.5,658.28,954.11,656.6,954.91ZM641,942.68a6,6,0,0,1-5.79-.72c-1.52-1.19-1.4-2.8.28-3.6a6.06,6.06,0,0,1,5.79.71C642.77,940.26,642.65,941.88,641,942.68Zm-15.62-12.24a6.06,6.06,0,0,1-5.79-.71c-1.52-1.19-1.4-2.81.27-3.61a6.06,6.06,0,0,1,5.79.71C627.14,928,627,929.64,625.35,930.44Zm-15.63-12.23a6,6,0,0,1-5.78-.71c-1.53-1.19-1.41-2.81.27-3.61a6,6,0,0,1,5.78.7C611.51,915.79,611.39,917.4,609.72,918.21ZM564,882.43a6,6,0,0,1-5.78-.7c-1.52-1.2-1.41-2.82.26-3.62a6,6,0,0,1,5.78.7C565.81,880,565.69,881.62,564,882.43ZM538,856.11l3.45-1.68,11.83,9.26-3.45,1.67ZM151.19,559.18a5.78,5.78,0,0,1,5.7.64c1.53,1.2,1.44,2.84-.19,3.68a5.79,5.79,0,0,1-5.7-.65C149.48,561.66,149.56,560,151.19,559.18Zm40.73,31.89a5.83,5.83,0,0,1,5.71.65c1.53,1.19,1.44,2.84-.19,3.67a5.85,5.85,0,0,1-5.72-.65C190.2,593.55,190.29,591.91,191.92,591.07ZM232.65,623a5.82,5.82,0,0,1,5.72.65c1.53,1.19,1.43,2.83-.2,3.66a5.84,5.84,0,0,1-5.72-.65C230.93,625.44,231,623.8,232.65,623Zm40.74,31.89a5.85,5.85,0,0,1,5.72.66c1.53,1.19,1.43,2.83-.21,3.66a5.87,5.87,0,0,1-5.73-.67C271.65,657.32,271.75,655.69,273.39,654.86Zm40.73,31.89a5.87,5.87,0,0,1,5.73.67c1.53,1.19,1.43,2.83-.22,3.65a5.89,5.89,0,0,1-5.73-.67C312.38,689.21,312.47,687.58,314.12,686.75Zm40.73,31.89a5.89,5.89,0,0,1,5.74.68c1.52,1.19,1.42,2.82-.23,3.64a5.92,5.92,0,0,1-5.74-.67C353.1,721.1,353.2,719.47,354.85,718.64Zm40.73,31.9a5.93,5.93,0,0,1,5.75.67c1.52,1.2,1.42,2.83-.23,3.65a6,6,0,0,1-5.75-.68C393.83,753,393.93,751.36,395.58,750.54Zm40.73,31.89a6,6,0,0,1,5.76.68c1.52,1.2,1.42,2.82-.24,3.64a6,6,0,0,1-5.76-.69C434.55,784.87,434.66,783.24,436.31,782.43Zm40.74,31.89a6,6,0,0,1,5.76.69c1.52,1.19,1.41,2.82-.25,3.63a6,6,0,0,1-5.76-.69C475.28,816.76,475.39,815.13,477.05,814.32Zm40.73,31.9a6,6,0,0,1,5.77.69c1.52,1.19,1.41,2.82-.26,3.62a6,6,0,0,1-5.77-.69C516,848.65,516.11,847,517.78,846.22Zm10.86,14.41,8.9,1.68.27-.14.43-.2,3.59-1.74,2.26,1.77-5.6,2.71a3,3,0,0,0-.4.23c-.79.55-1,1.28-.35,1.76a3.36,3.36,0,0,0,2.86.21,3.71,3.71,0,0,0,.46-.19l5.6-2.71,2.26,1.77-5.6,2.71-.43.21h0c-3,1.3-6.83,1.2-8.69-.26-1.53-1.2-1.31-2.95.33-4.38l-9.32-1.75Z"/><path class="cls-5" d="M696.94,1000.14,73.35,511.88l-3.5,23.93,624.24,488ZM87.49,536.29c.13-2,1.46-2.59,3-1.4A7.47,7.47,0,0,1,93,540.6c-.12,2-1.46,2.59-3,1.4A7.52,7.52,0,0,1,87.49,536.29Zm13,10.13c.12-2,1.46-2.58,3-1.39a7.52,7.52,0,0,1,2.53,5.71c-.13,2-1.47,2.59-3,1.39A7.46,7.46,0,0,1,100.44,546.42Zm12.94,10.14c.13-2,1.47-2.59,3-1.4a7.47,7.47,0,0,1,2.52,5.71c-.13,2-1.46,2.59-3,1.4A7.47,7.47,0,0,1,113.38,556.56Zm13,10.13c.12-2,1.46-2.58,3-1.39a7.52,7.52,0,0,1,2.53,5.71c-.13,2-1.47,2.59-3,1.39A7.46,7.46,0,0,1,126.33,566.69Zm12.94,10.14c.13-2,1.47-2.59,3-1.39a7.45,7.45,0,0,1,2.52,5.7c-.13,2-1.47,2.59-3,1.4A7.47,7.47,0,0,1,139.27,576.83ZM152.21,587c.13-2,1.47-2.59,3-1.4a7.47,7.47,0,0,1,2.52,5.71c-.12,2-1.46,2.58-3,1.39A7.46,7.46,0,0,1,152.21,587Zm12.95,10.13c.13-2,1.47-2.58,3-1.39a7.46,7.46,0,0,1,2.52,5.71c-.13,2-1.47,2.58-3,1.39A7.47,7.47,0,0,1,165.16,597.1Zm12.94,10.14c.13-2,1.47-2.59,3-1.4a7.46,7.46,0,0,1,2.52,5.71c-.13,2-1.47,2.58-3,1.39A7.45,7.45,0,0,1,178.1,607.24Zm13,10.13c.13-2,1.47-2.58,3-1.39a7.47,7.47,0,0,1,2.52,5.71c-.13,2-1.47,2.58-3,1.39A7.44,7.44,0,0,1,191.05,617.37ZM204,627.51c.13-2,1.47-2.59,3-1.39a7.42,7.42,0,0,1,2.52,5.7c-.13,2-1.47,2.58-3,1.39A7.45,7.45,0,0,1,204,627.51ZM217.37,638c.14-2,1.48-2.58,3-1.39a7.45,7.45,0,0,1,2.51,5.71c-.13,2-1.47,2.58-3,1.39A7.47,7.47,0,0,1,217.37,638Zm7.07,5.54c.13-2,1.47-2.58,3-1.39a7.42,7.42,0,0,1,2.52,5.7c-.13,2-1.47,2.58-3,1.39A7.42,7.42,0,0,1,224.44,643.52Zm7.07,5.53c.13-2,1.47-2.58,3-1.39a7.47,7.47,0,0,1,2.52,5.7c-.14,2-1.48,2.58-3,1.39A7.41,7.41,0,0,1,231.51,649.05Zm7.06,5.53c.13-2,1.47-2.58,3-1.39a7.47,7.47,0,0,1,2.51,5.71c-.13,2-1.47,2.58-3,1.39A7.46,7.46,0,0,1,238.57,654.58Zm7.07,5.53c.13-2,1.47-2.58,3-1.38a7.45,7.45,0,0,1,2.52,5.7c-.14,2-1.48,2.58-3,1.39A7.43,7.43,0,0,1,245.64,660.11Zm7.06,5.54c.14-2,1.48-2.58,3-1.39a7.41,7.41,0,0,1,2.51,5.7c-.13,2-1.47,2.58-3,1.39A7.45,7.45,0,0,1,252.7,665.65Zm7.07,5.53c.13-2,1.47-2.58,3-1.39a7.43,7.43,0,0,1,2.52,5.7c-.13,2-1.48,2.58-3,1.39A7.44,7.44,0,0,1,259.77,671.18Zm7.06,5.53c.14-2,1.48-2.58,3-1.39a7.45,7.45,0,0,1,2.51,5.71c-.13,2-1.47,2.57-3,1.38A7.45,7.45,0,0,1,266.83,676.71Zm7.07,5.53c.13-2,1.48-2.57,3-1.38a7.44,7.44,0,0,1,2.51,5.7c-.13,2-1.48,2.58-3,1.39A7.48,7.48,0,0,1,273.9,682.24Zm7.07,5.54c.13-2,1.47-2.58,3-1.39a7.42,7.42,0,0,1,2.52,5.7c-.14,2-1.48,2.58-3,1.39A7.43,7.43,0,0,1,281,687.78Zm7.06,5.53c.14-2,1.48-2.58,3-1.39a7.43,7.43,0,0,1,2.51,5.7c-.13,2-1.48,2.58-3,1.39A7.44,7.44,0,0,1,288,693.31Zm7.07,5.53c.13-2,1.47-2.58,3-1.38a7.44,7.44,0,0,1,2.51,5.7c-.14,2-1.48,2.57-3,1.38A7.41,7.41,0,0,1,295.1,698.84Zm7.06,5.53c.14-2,1.48-2.57,3-1.38a7.41,7.41,0,0,1,2.51,5.7c-.13,1.95-1.48,2.58-3,1.38A7.44,7.44,0,0,1,302.16,704.37Zm7.07,5.54c.13-2,1.48-2.58,3-1.39a7.44,7.44,0,0,1,2.51,5.7c-.14,2-1.48,2.58-3,1.39A7.44,7.44,0,0,1,309.23,709.91Zm7.06,5.53c.14-2,1.48-2.58,3-1.39a7.41,7.41,0,0,1,2.51,5.7c-.13,2-1.47,2.58-3,1.39A7.44,7.44,0,0,1,316.29,715.44Zm7.07,5.53c.14-2,1.48-2.57,3-1.38a7.41,7.41,0,0,1,2.51,5.7c-.14,2-1.48,2.57-3,1.38A7.41,7.41,0,0,1,323.36,721Zm7.07,5.53c.13-2,1.48-2.57,3-1.38a7.44,7.44,0,0,1,2.51,5.7c-.14,1.95-1.48,2.57-3,1.38A7.4,7.4,0,0,1,330.43,726.5Zm7.06,5.54c.14-2,1.48-2.58,3-1.39a7.43,7.43,0,0,1,2.51,5.7c-.13,2-1.48,2.58-3,1.38A7.44,7.44,0,0,1,337.49,732Zm7.07,5.53c.13-2,1.48-2.58,3-1.38a7.44,7.44,0,0,1,2.51,5.69c-.14,2-1.48,2.58-3,1.39A7.43,7.43,0,0,1,344.56,737.57Zm7.06,5.53c.14-2,1.48-2.57,3-1.38a7.4,7.4,0,0,1,2.5,5.7c-.13,2-1.48,2.57-3,1.38A7.44,7.44,0,0,1,351.62,743.1Zm7.07,5.53c.14-2,1.48-2.57,3-1.38a7.41,7.41,0,0,1,2.51,5.7c-.14,1.95-1.48,2.57-3,1.38A7.38,7.38,0,0,1,358.69,748.63Zm13.94,10.92c.14-1.95,1.49-2.57,3-1.38a7.4,7.4,0,0,1,2.5,5.7c-.13,2-1.48,2.57-3,1.38A7.44,7.44,0,0,1,372.63,759.55Zm13.95,10.92c.14-2,1.48-2.57,3-1.38a7.4,7.4,0,0,1,2.5,5.7c-.14,2-1.48,2.57-3,1.38A7.4,7.4,0,0,1,386.58,770.47Zm13.95,10.92c.13-1.95,1.48-2.57,3-1.38a7.44,7.44,0,0,1,2.51,5.7c-.14,1.95-1.49,2.57-3,1.38A7.42,7.42,0,0,1,400.53,781.39Zm13.94,10.92c.14-1.95,1.49-2.57,3-1.38a7.4,7.4,0,0,1,2.5,5.7c-.14,2-1.48,2.57-3,1.37A7.4,7.4,0,0,1,414.47,792.31Zm13.95,10.92c.14-2,1.48-2.57,3-1.38a7.4,7.4,0,0,1,2.5,5.69c-.14,2-1.49,2.57-3,1.38A7.4,7.4,0,0,1,428.42,803.23Zm13.94,10.92c.14-1.95,1.49-2.57,3-1.38a7.4,7.4,0,0,1,2.5,5.69c-.14,2-1.48,2.57-3,1.38A7.4,7.4,0,0,1,442.36,814.15Zm13.95,10.92c.14-2,1.49-2.57,3-1.38a7.4,7.4,0,0,1,2.5,5.69c-.14,2-1.49,2.57-3,1.38A7.4,7.4,0,0,1,456.31,825.07ZM470.25,836c.15-2,1.49-2.57,3-1.38a7.33,7.33,0,0,1,2.5,5.69c-.14,2-1.49,2.57-3,1.38A7.4,7.4,0,0,1,470.25,836Zm13.95,10.92c.14-1.95,1.49-2.57,3-1.38a7.4,7.4,0,0,1,2.5,5.69c-.14,1.95-1.49,2.57-3,1.38A7.4,7.4,0,0,1,484.2,846.91Zm13.95,10.92c.14-2,1.49-2.57,3-1.38a7.4,7.4,0,0,1,2.5,5.69c-.15,2-1.5,2.57-3,1.38A7.37,7.37,0,0,1,498.15,857.83Zm13.94,10.92c.14-2,1.49-2.57,3-1.38a7.36,7.36,0,0,1,2.5,5.69c-.14,2-1.49,2.57-3,1.37A7.37,7.37,0,0,1,512.09,868.75ZM526,879.67c.14-1.95,1.49-2.57,3-1.38a7.4,7.4,0,0,1,2.5,5.69c-.15,1.95-1.5,2.56-3,1.37A7.33,7.33,0,0,1,526,879.67ZM540,890.59c.15-2,1.5-2.57,3-1.38a7.35,7.35,0,0,1,2.49,5.69c-.14,2-1.49,2.56-3,1.37A7.39,7.39,0,0,1,540,890.59Zm13.95,10.91c.14-1.94,1.49-2.56,3-1.37a7.36,7.36,0,0,1,2.5,5.69c-.15,1.95-1.5,2.56-3,1.37A7.35,7.35,0,0,1,553.93,901.5Zm13.94,10.92c.15-1.94,1.5-2.56,3-1.37a7.35,7.35,0,0,1,2.49,5.69c-.14,2-1.49,2.56-3,1.37A7.36,7.36,0,0,1,567.87,912.42Zm14,10.92c.14-1.94,1.5-2.56,3-1.37a7.35,7.35,0,0,1,2.49,5.69c-.15,2-1.5,2.56-3,1.37A7.35,7.35,0,0,1,581.82,923.34Zm13.95,10.92c.14-2,1.49-2.56,3-1.37a7.36,7.36,0,0,1,2.5,5.69c-.15,1.94-1.5,2.56-3,1.37A7.32,7.32,0,0,1,595.77,934.26Zm13.94,10.92c.15-1.95,1.5-2.56,3-1.37a7.35,7.35,0,0,1,2.49,5.69c-.15,1.94-1.5,2.56-3,1.37A7.37,7.37,0,0,1,609.71,945.18Zm13.95,10.92c.14-2,1.5-2.56,3-1.37a7.39,7.39,0,0,1,2.49,5.69c-.15,1.94-1.5,2.56-3,1.36A7.32,7.32,0,0,1,623.66,956.1ZM637.6,967c.15-1.95,1.5-2.56,3-1.37a7.32,7.32,0,0,1,2.49,5.69c-.15,1.94-1.5,2.55-3,1.36A7.33,7.33,0,0,1,637.6,967Zm13.95,10.92c.15-2,1.5-2.56,3-1.37a7.35,7.35,0,0,1,2.49,5.68c-.15,2-1.5,2.56-3,1.37A7.32,7.32,0,0,1,651.55,977.94Zm13.94,10.92c.15-2,1.51-2.56,3-1.37a7.34,7.34,0,0,1,2.48,5.68c-.15,2-1.5,2.56-3,1.37A7.33,7.33,0,0,1,665.49,988.86Zm14,10.92c.15-1.95,1.5-2.56,3-1.37a7.33,7.33,0,0,1,2.49,5.68c-.15,1.95-1.5,2.56-3,1.37A7.34,7.34,0,0,1,679.44,999.78Z"/><polygon class="cls-10" points="696.94 1000.14 717.55 989.54 714.88 1012.92 694.09 1023.83 696.94 1000.14"/><polygon class="cls-6" points="98.77 509.6 93.66 509.03 93.54 510.08 98.65 510.65 98.77 509.6"/><polygon class="cls-6" points="98.64 510.65 98.53 511.7 93.42 511.13 93.54 510.08 98.64 510.65"/><polygon class="cls-6" points="98.89 508.55 93.78 507.98 93.66 509.03 98.77 509.6 98.89 508.55"/><polygon class="cls-6" points="99.01 507.5 93.89 506.93 93.78 507.98 98.89 508.55 99.01 507.5"/><polygon class="cls-6" points="93.18 513.23 98.29 513.8 98.41 512.75 93.3 512.18 93.18 513.23"/><polygon class="cls-6" points="98.53 511.7 98.41 512.75 93.3 512.18 93.42 511.13 98.53 511.7"/><polygon class="cls-6" points="92.94 515.33 98.06 515.9 98.17 514.85 93.06 514.28 92.94 515.33"/><path class="cls-6" d="M93.22,516.42a8.36,8.36,0,0,0,1.32.74,8.21,8.21,0,0,0,3.29.75l.11-1Z"/><path class="cls-6" d="M97.94,517l.12-1.05-5.12-.57-.09.85.37.24Z"/><polygon class="cls-6" points="93.06 514.28 98.17 514.85 98.29 513.8 93.18 513.23 93.06 514.28"/><polygon class="cls-6" points="123.19 529.22 118.08 528.65 117.96 529.7 123.07 530.27 123.19 529.22"/><polygon class="cls-6" points="123.07 530.27 122.95 531.32 117.84 530.75 117.96 529.7 123.07 530.27"/><polygon class="cls-6" points="123.31 528.17 118.2 527.6 118.08 528.65 123.19 529.22 123.31 528.17"/><polygon class="cls-6" points="123.43 527.12 118.32 526.55 118.2 527.6 123.31 528.17 123.43 527.12"/><polygon class="cls-6" points="117.61 532.85 122.72 533.42 122.84 532.37 117.72 531.8 117.61 532.85"/><polygon class="cls-6" points="122.95 531.32 122.83 532.37 117.72 531.8 117.84 530.75 122.95 531.32"/><polygon class="cls-6" points="117.37 534.95 122.48 535.52 122.6 534.47 117.49 533.9 117.37 534.95"/><path class="cls-6" d="M117.64,536a8.83,8.83,0,0,0,1.32.74,8.24,8.24,0,0,0,3.29.75l.11-1Z"/><path class="cls-6" d="M122.36,536.57l.12-1.05-5.11-.57-.1.85.37.24Z"/><polygon class="cls-6" points="117.49 533.9 122.6 534.47 122.72 533.42 117.61 532.85 117.49 533.9"/><polygon class="cls-6" points="316.09 385.99 310.98 385.42 310.86 386.47 315.97 387.04 316.09 385.99"/><polygon class="cls-6" points="315.97 387.04 315.85 388.09 310.74 387.52 310.86 386.47 315.97 387.04"/><polygon class="cls-6" points="316.21 384.94 311.1 384.37 310.98 385.42 316.09 385.99 316.21 384.94"/><polygon class="cls-6" points="316.33 383.89 311.21 383.32 311.1 384.37 316.21 384.94 316.33 383.89"/><polygon class="cls-6" points="310.5 389.62 315.61 390.19 315.73 389.14 310.62 388.57 310.5 389.62"/><polygon class="cls-6" points="315.85 388.09 315.73 389.14 310.62 388.57 310.74 387.52 315.85 388.09"/><polygon class="cls-6" points="310.26 391.72 315.38 392.29 315.5 391.24 310.38 390.67 310.26 391.72"/><path class="cls-6" d="M310.54,392.81a9.24,9.24,0,0,0,1.32.74,8.24,8.24,0,0,0,3.29.75l.11-1Z"/><path class="cls-6" d="M315.26,393.34l.12-1-5.12-.57-.09.84.37.25Z"/><polygon class="cls-6" points="310.38 390.67 315.5 391.24 315.61 390.19 310.5 389.62 310.38 390.67"/><polygon class="cls-6" points="340.51 405.61 335.4 405.04 335.28 406.09 340.39 406.66 340.51 405.61"/><polygon class="cls-6" points="340.39 406.66 340.27 407.71 335.16 407.14 335.28 406.09 340.39 406.66"/><polygon class="cls-6" points="340.63 404.56 335.52 403.99 335.4 405.04 340.51 405.61 340.63 404.56"/><polygon class="cls-6" points="340.75 403.51 335.64 402.94 335.52 403.99 340.63 404.56 340.75 403.51"/><polygon class="cls-6" points="334.93 409.24 340.04 409.81 340.16 408.76 335.04 408.19 334.93 409.24"/><polygon class="cls-6" points="340.27 407.71 340.15 408.76 335.05 408.19 335.16 407.14 340.27 407.71"/><polygon class="cls-6" points="334.69 411.34 339.8 411.91 339.92 410.86 334.81 410.29 334.69 411.34"/><path class="cls-6" d="M335,412.43a9.82,9.82,0,0,0,1.32.74,8.42,8.42,0,0,0,3.29.75l.11-1Z"/><path class="cls-6" d="M339.68,413l.12-1-5.11-.57-.1.84.37.25Z"/><polygon class="cls-6" points="334.81 410.29 339.92 410.86 340.04 409.81 334.93 409.24 334.81 410.29"/><path class="cls-12" d="M648.25,966.77c1,5.15-1.17,10-5.71,10.86s-9.07-2.52-10.1-7.68,1.8-10.07,6.34-11S647.21,961.61,648.25,966.77Z"/><ellipse class="cls-25" cx="640.15" cy="968.4" rx="7.87" ry="9.52" transform="translate(-178.64 145.5) rotate(-11.39)"/><polygon class="cls-27" points="640.76 963.21 636.51 964.11 634.88 965.11 639.29 964.11 639.29 964.11 640.76 963.21 640.76 963.21"/><polygon class="cls-26" points="643.68 973.5 639.29 974.49 634.9 970.29 634.9 965.1 639.29 964.11 643.68 968.31 643.68 973.5"/><polygon class="cls-28" points="645.04 967.47 640.76 963.21 639.29 964.11 643.68 968.31 643.68 968.34 645.04 967.5 645.04 967.47"/><polygon class="cls-27" points="643.68 968.34 643.68 973.48 645.04 972.65 645.04 967.5 643.68 968.34"/><path class="cls-12" d="M689.87,1000.25c1,5.15-1.17,10-5.72,10.86s-9.06-2.52-10.1-7.68,1.8-10.07,6.34-11S688.83,995.09,689.87,1000.25Z"/><ellipse class="cls-25" cx="681.76" cy="1001.88" rx="7.87" ry="9.52" transform="translate(-184.44 154.38) rotate(-11.39)"/><polygon class="cls-27" points="682.38 996.7 678.12 997.59 676.5 998.59 680.9 997.59 680.91 997.6 682.38 996.7 682.38 996.7"/><polygon class="cls-26" points="685.29 1006.98 680.9 1007.97 676.51 1003.77 676.51 998.58 680.9 997.59 685.29 1001.79 685.29 1006.98"/><polygon class="cls-28" points="686.66 1000.95 682.38 996.7 680.91 997.6 685.29 1001.79 685.29 1001.82 686.66 1000.99 686.66 1000.95"/><polygon class="cls-27" points="685.29 1001.82 685.29 1006.97 686.66 1006.13 686.66 1000.99 685.29 1001.82"/></g></svg>