<svg xmlns="http://www.w3.org/2000/svg" viewBox="0 0 898.61 1142.6"><defs><style>.cls-1{fill:#ffb522;opacity:0.27;}.cls-2{fill:#424242;}.cls-3{fill:#606060;}.cls-4{fill:#898989;}.cls-5{fill:#303030;}.cls-6{fill:#515151;}.cls-7{fill:#fff;}.cls-8{fill:#7a7a7a;}.cls-9{fill:#999;}.cls-10,.cls-11{fill:#8e8e8e;}.cls-11,.cls-12,.cls-13,.cls-14,.cls-15,.cls-16,.cls-17,.cls-18,.cls-19,.cls-20,.cls-26{stroke:#fff;stroke-miterlimit:10;}.cls-11,.cls-12,.cls-13,.cls-14,.cls-15,.cls-16,.cls-17,.cls-18,.cls-19,.cls-20{stroke-width:0.05px;}.cls-12{fill:#919191;}.cls-13{fill:#949494;}.cls-14{fill:#979697;}.cls-15{fill:#9a999a;}.cls-16{fill:#9c9c9c;}.cls-17{fill:#9f9f9f;}.cls-18{fill:#a2a1a2;}.cls-19{fill:#a5a4a5;}.cls-20{fill:#a8a7a8;}.cls-21{fill:#9b9a9b;}.cls-22,.cls-26{fill:#7f7f7f;}.cls-23{fill:#545454;}.cls-24{fill:#6b6b6b;}.cls-25{fill:none;}.cls-26{stroke-width:0.05px;}</style></defs><g id="Layer_2" data-name="Layer 2"><circle class="cls-1" cx="627.57" cy="938.84" r="203.77"/><path class="cls-2" d="M897.28,793.2,220.15,379.14l-18,14.18L878,806.12Zm-13.74,3.69a6.08,6.08,0,0,1-5.85,0c-1.65-1-1.71-2.63-.13-3.61a6.13,6.13,0,0,1,5.85,0C885.06,794.29,885.12,795.91,883.54,796.89ZM866.6,786.55a6.11,6.11,0,0,1-5.84,0c-1.65-1-1.71-2.63-.14-3.61a6.08,6.08,0,0,1,5.85,0C868.12,784,868.18,785.56,866.6,786.55ZM849.66,776.2a6,6,0,0,1-5.83,0c-1.66-1-1.72-2.62-.14-3.61a6.09,6.09,0,0,1,5.84,0C851.18,773.6,851.24,775.22,849.66,776.2Zm-16.93-10.34a6.06,6.06,0,0,1-5.84,0c-1.65-1-1.71-2.62-.14-3.61a6.06,6.06,0,0,1,5.84,0C834.24,763.25,834.3,764.87,832.73,765.86Zm-16.94-10.34a6.07,6.07,0,0,1-5.83,0c-1.65-1-1.72-2.63-.15-3.62a6.09,6.09,0,0,1,5.84,0C817.3,752.91,817.36,754.53,815.79,755.52Zm-16.94-10.35a6.07,6.07,0,0,1-5.83,0c-1.65-1-1.71-2.63-.14-3.62a6.07,6.07,0,0,1,5.83,0C800.36,742.56,800.42,744.18,798.85,745.17Zm-16.93-10.34a6,6,0,0,1-5.83,0c-1.65-1-1.72-2.62-.15-3.61a6,6,0,0,1,5.83,0C783.42,732.22,783.49,733.84,781.92,734.83Zm-49.53-30.25a6,6,0,0,1-5.82,0c-1.65-1-1.72-2.63-.16-3.62a6,6,0,0,1,5.82,0C733.88,702,734,703.59,732.39,704.58Zm-28.94-23.13,3.24-2.06,12.81,7.83-3.23,2.06ZM222,392.88a5.79,5.79,0,0,1,5.73,0c1.65,1,1.76,2.66.25,3.68a5.74,5.74,0,0,1-5.73,0C220.62,395.55,220.51,393.91,222,392.88Zm26.47,16.17a5.79,5.79,0,0,1,5.74,0c1.65,1,1.76,2.65.24,3.67a5.79,5.79,0,0,1-5.73,0C247.09,411.72,247,410.07,248.49,409.05ZM264.72,419a5.79,5.79,0,0,1,5.74,0c1.65,1,1.76,2.65.24,3.67a5.79,5.79,0,0,1-5.74,0C263.31,421.62,263.2,420,264.72,419Zm20.19,12.33a5.79,5.79,0,0,1,5.74,0c1.65,1,1.76,2.65.24,3.67a5.79,5.79,0,0,1-5.74,0C283.5,434,283.39,432.31,284.91,431.29Zm44.15,27a5.83,5.83,0,0,1,5.75,0c1.65,1,1.75,2.65.23,3.66a5.81,5.81,0,0,1-5.75,0C327.64,460.91,327.54,459.27,329.06,458.25Zm44.15,27a5.83,5.83,0,0,1,5.76,0c1.65,1,1.75,2.64.22,3.66a5.85,5.85,0,0,1-5.76,0C371.78,487.87,371.68,486.23,373.21,485.22Zm44.15,27a5.88,5.88,0,0,1,5.76,0c1.66,1,1.75,2.65.22,3.66a5.87,5.87,0,0,1-5.77,0C415.92,514.83,415.83,513.19,417.36,512.18Zm44.15,27a5.9,5.9,0,0,1,5.77,0c1.65,1,1.74,2.65.21,3.66a5.92,5.92,0,0,1-5.78,0C460.06,541.79,460,540.15,461.51,539.15Zm44.15,27a5.89,5.89,0,0,1,5.78,0c1.65,1,1.74,2.64.2,3.65a5.92,5.92,0,0,1-5.78,0C504.21,568.75,504.12,567.12,505.66,566.11Zm44.15,27a5.94,5.94,0,0,1,5.79,0c1.65,1,1.73,2.64.19,3.64a5.94,5.94,0,0,1-5.79,0C548.35,595.71,548.26,594.08,549.81,593.07ZM594,620a5.93,5.93,0,0,1,5.8,0c1.65,1,1.73,2.64.18,3.64a6,6,0,0,1-5.8,0C592.49,622.67,592.41,621,594,620Zm44.15,27a6,6,0,0,1,5.8,0c1.65,1,1.73,2.63.18,3.63a6,6,0,0,1-5.81,0C636.63,649.62,636.55,648,638.11,647Zm44.15,27a6,6,0,0,1,5.81,0c1.65,1,1.73,2.63.17,3.62a6,6,0,0,1-5.81,0C680.78,676.58,680.7,675,682.26,674ZM694.71,687l9,.64.25-.16.41-.26,3.36-2.15,2.45,1.5L705,689.94a3.52,3.52,0,0,0-.37.27c-.72.63-.81,1.38-.14,1.79a3.33,3.33,0,0,0,2.86-.13,3.68,3.68,0,0,0,.44-.23l5.25-3.35,2.45,1.5-5.25,3.34-.41.26h0c-2.86,1.64-6.65,2-8.67.75-1.66-1-1.64-2.78-.17-4.39l-9.46-.66Z"/><path class="cls-3" d="M878,806.12,202.12,393.32l-.71,24.17L877.94,830ZM219,415.93c-.1-2,1.15-2.74,2.8-1.74a7.49,7.49,0,0,1,3.17,5.38c.1,2-1.15,2.74-2.8,1.74A7.49,7.49,0,0,1,219,415.93Zm14,8.57c-.1-2,1.16-2.74,2.8-1.74a7.49,7.49,0,0,1,3.17,5.38c.1,2-1.15,2.74-2.8,1.74A7.49,7.49,0,0,1,233,424.5Zm14,8.56c-.1-2,1.16-2.74,2.81-1.73a7.48,7.48,0,0,1,3.16,5.38c.1,2-1.15,2.74-2.8,1.73A7.45,7.45,0,0,1,247.05,433.06Zm14,8.57c-.1-2,1.16-2.74,2.81-1.73a7.45,7.45,0,0,1,3.16,5.38c.1,2-1.15,2.74-2.8,1.73A7.47,7.47,0,0,1,261.08,441.63Zm14,8.57c-.1-2,1.16-2.74,2.81-1.73a7.49,7.49,0,0,1,3.17,5.38c.09,2-1.16,2.74-2.81,1.73A7.47,7.47,0,0,1,275.11,450.2Zm14,8.57c-.1-2,1.16-2.74,2.81-1.73a7.49,7.49,0,0,1,3.17,5.38c.09,2-1.16,2.74-2.81,1.73A7.49,7.49,0,0,1,289.14,458.77Zm14,8.57c-.09-2,1.16-2.74,2.81-1.73a7.49,7.49,0,0,1,3.17,5.38c.09,2-1.16,2.73-2.81,1.73A7.49,7.49,0,0,1,303.17,467.34Zm14,8.57c-.09-2,1.16-2.74,2.81-1.73a7.47,7.47,0,0,1,3.17,5.38c.09,2-1.16,2.73-2.81,1.73A7.49,7.49,0,0,1,317.2,475.91Zm14,8.57c-.1-2,1.16-2.74,2.81-1.73a7.46,7.46,0,0,1,3.16,5.38c.09,2-1.16,2.73-2.81,1.72A7.41,7.41,0,0,1,331.24,484.48Zm14,8.57c-.1-2,1.16-2.74,2.81-1.73a7.46,7.46,0,0,1,3.16,5.37c.1,2-1.16,2.74-2.81,1.73A7.43,7.43,0,0,1,345.27,493.05Zm14.5,8.86c-.1-2,1.16-2.74,2.81-1.73a7.43,7.43,0,0,1,3.16,5.37c.1,2-1.16,2.74-2.81,1.73A7.46,7.46,0,0,1,359.77,501.91Zm7.66,4.67c-.1-2,1.16-2.73,2.81-1.72a7.41,7.41,0,0,1,3.16,5.37c.1,2-1.16,2.73-2.81,1.73A7.48,7.48,0,0,1,367.43,506.58Zm7.66,4.68c-.1-2,1.16-2.73,2.81-1.73a7.45,7.45,0,0,1,3.16,5.38c.1,2-1.16,2.73-2.81,1.72A7.41,7.41,0,0,1,375.09,511.26Zm7.66,4.68c-.1-2,1.16-2.74,2.81-1.73a7.46,7.46,0,0,1,3.16,5.38c.09,2-1.17,2.73-2.81,1.72A7.43,7.43,0,0,1,382.75,515.94Zm7.66,4.67c-.1-2,1.16-2.73,2.81-1.72a7.46,7.46,0,0,1,3.16,5.37c.09,2-1.17,2.74-2.82,1.73A7.42,7.42,0,0,1,390.41,520.61Zm7.65,4.68c-.09-2,1.17-2.73,2.82-1.72a7.44,7.44,0,0,1,3.16,5.37c.09,2-1.17,2.73-2.82,1.73A7.48,7.48,0,0,1,398.06,525.29Zm7.66,4.68c-.09-2,1.17-2.73,2.82-1.73a7.48,7.48,0,0,1,3.16,5.38c.09,2-1.17,2.73-2.82,1.72A7.46,7.46,0,0,1,405.72,530Zm7.66,4.68c-.09-2,1.17-2.74,2.82-1.73a7.42,7.42,0,0,1,3.15,5.37c.1,2-1.16,2.74-2.81,1.73A7.46,7.46,0,0,1,413.38,534.65Zm7.66,4.67c-.09-2,1.17-2.73,2.82-1.72A7.42,7.42,0,0,1,427,543c.1,2-1.17,2.73-2.81,1.73A7.45,7.45,0,0,1,421,539.32ZM428.7,544c-.09-2,1.17-2.73,2.82-1.72a7.4,7.4,0,0,1,3.15,5.37c.09,2-1.17,2.73-2.82,1.72A7.4,7.4,0,0,1,428.7,544Zm7.66,4.68c-.1-2,1.17-2.73,2.81-1.73a7.45,7.45,0,0,1,3.16,5.38c.09,2-1.17,2.73-2.82,1.72A7.42,7.42,0,0,1,436.36,548.68Zm7.66,4.68c-.1-2,1.16-2.74,2.81-1.73A7.43,7.43,0,0,1,450,557c.09,2-1.17,2.73-2.82,1.73A7.42,7.42,0,0,1,444,553.36Zm7.65,4.67c-.09-2,1.17-2.73,2.82-1.72a7.46,7.46,0,0,1,3.16,5.37c.09,2-1.17,2.73-2.82,1.72A7.44,7.44,0,0,1,451.67,558Zm7.66,4.68c-.09-2,1.17-2.73,2.82-1.72a7.44,7.44,0,0,1,3.16,5.37c.09,2-1.17,2.73-2.82,1.72A7.46,7.46,0,0,1,459.33,562.71Zm7.66,4.68c-.09-2,1.17-2.73,2.82-1.72A7.4,7.4,0,0,1,473,571c.1,2-1.17,2.73-2.82,1.72A7.45,7.45,0,0,1,467,567.39Zm7.66,4.68c-.09-2,1.17-2.73,2.82-1.73a7.42,7.42,0,0,1,3.15,5.37c.09,2-1.17,2.73-2.82,1.73A7.44,7.44,0,0,1,474.65,572.07Zm7.66,4.67c-.09-2,1.17-2.73,2.82-1.72a7.42,7.42,0,0,1,3.15,5.37c.09,2-1.17,2.73-2.82,1.72A7.4,7.4,0,0,1,482.31,576.74Zm7.66,4.68c-.09-2,1.17-2.73,2.82-1.72a7.42,7.42,0,0,1,3.15,5.37c.09,2-1.17,2.73-2.82,1.72A7.42,7.42,0,0,1,490,581.42Zm7.66,4.68c-.09-2,1.17-2.73,2.82-1.72a7.4,7.4,0,0,1,3.15,5.37c.09,2-1.17,2.72-2.82,1.72A7.42,7.42,0,0,1,497.63,586.1Zm7.65,4.68c-.09-2,1.18-2.73,2.83-1.73a7.42,7.42,0,0,1,3.15,5.37c.09,2-1.18,2.73-2.83,1.72A7.46,7.46,0,0,1,505.28,590.78Zm7.66,4.67c-.09-2,1.18-2.73,2.83-1.72a7.42,7.42,0,0,1,3.15,5.37c.09,2-1.18,2.73-2.83,1.72A7.42,7.42,0,0,1,512.94,595.45Zm15.12,9.23c-.09-1.95,1.17-2.72,2.82-1.72a7.42,7.42,0,0,1,3.15,5.37c.09,2-1.17,2.73-2.82,1.72A7.42,7.42,0,0,1,528.06,604.68Zm15.12,9.24c-.09-2,1.17-2.73,2.82-1.72a7.4,7.4,0,0,1,3.15,5.36c.09,2-1.18,2.73-2.83,1.72A7.35,7.35,0,0,1,543.18,613.92Zm15.11,9.23c-.09-2,1.18-2.73,2.83-1.72a7.37,7.37,0,0,1,3.14,5.37c.09,2-1.17,2.72-2.82,1.71A7.4,7.4,0,0,1,558.29,623.15Zm15.12,9.23c-.09-2,1.17-2.73,2.82-1.72a7.42,7.42,0,0,1,3.15,5.37c.09,2-1.18,2.72-2.83,1.71A7.34,7.34,0,0,1,573.41,632.38Zm15.11,9.23c-.08-2,1.18-2.72,2.83-1.72a7.42,7.42,0,0,1,3.15,5.37c.08,2-1.18,2.72-2.83,1.72A7.42,7.42,0,0,1,588.52,641.61Zm15.12,9.23c-.09-2,1.18-2.72,2.83-1.71a7.37,7.37,0,0,1,3.14,5.36c.09,2-1.18,2.72-2.83,1.72A7.41,7.41,0,0,1,603.64,650.84Zm15.11,9.23c-.08-2,1.19-2.72,2.84-1.71a7.44,7.44,0,0,1,3.14,5.36c.08,2-1.18,2.73-2.83,1.72A7.42,7.42,0,0,1,618.75,660.07Zm15.12,9.24c-.09-2,1.18-2.73,2.83-1.72a7.37,7.37,0,0,1,3.14,5.36c.09,2-1.18,2.73-2.83,1.72A7.4,7.4,0,0,1,633.87,669.31ZM649,678.54c-.09-2,1.18-2.72,2.83-1.72a7.41,7.41,0,0,1,3.14,5.37c.08,1.95-1.18,2.72-2.83,1.71A7.37,7.37,0,0,1,649,678.54Zm15.11,9.23c-.08-1.95,1.19-2.72,2.84-1.72a7.36,7.36,0,0,1,3.13,5.37c.09,2-1.18,2.72-2.83,1.71A7.4,7.4,0,0,1,664.1,687.77ZM679.22,697c-.09-2,1.18-2.72,2.83-1.71a7.35,7.35,0,0,1,3.14,5.36c.08,2-1.18,2.72-2.83,1.71A7.34,7.34,0,0,1,679.22,697Zm15.11,9.23c-.08-2,1.19-2.72,2.84-1.71a7.4,7.4,0,0,1,3.14,5.36c.08,2-1.19,2.72-2.84,1.71A7.37,7.37,0,0,1,694.33,706.23Zm15.12,9.23c-.08-2,1.19-2.72,2.84-1.71a7.36,7.36,0,0,1,3.13,5.36c.09,2-1.18,2.72-2.83,1.71A7.34,7.34,0,0,1,709.45,715.46Zm15.12,9.24c-.09-2,1.18-2.72,2.83-1.72a7.37,7.37,0,0,1,3.14,5.36c.08,2-1.19,2.72-2.84,1.72A7.36,7.36,0,0,1,724.57,724.7Zm15.11,9.23c-.08-1.95,1.19-2.72,2.84-1.71a7.32,7.32,0,0,1,3.13,5.36c.09,1.95-1.19,2.71-2.83,1.71A7.37,7.37,0,0,1,739.68,733.93Zm15.12,9.23c-.08-1.95,1.19-2.72,2.84-1.71a7.36,7.36,0,0,1,3.13,5.36c.08,2-1.19,2.72-2.84,1.71A7.36,7.36,0,0,1,754.8,743.16Zm15.11,9.23c-.08-1.95,1.19-2.72,2.84-1.71a7.37,7.37,0,0,1,3.14,5.36c.08,2-1.2,2.72-2.84,1.71A7.37,7.37,0,0,1,769.91,752.39ZM785,761.62c-.08-2,1.19-2.71,2.84-1.71a7.36,7.36,0,0,1,3.13,5.36c.08,2-1.19,2.72-2.84,1.71A7.36,7.36,0,0,1,785,761.62Zm15.12,9.24c-.08-2,1.19-2.72,2.84-1.71a7.32,7.32,0,0,1,3.13,5.35c.08,2-1.2,2.72-2.85,1.71A7.33,7.33,0,0,1,800.15,770.86Zm15.11,9.23c-.08-2,1.2-2.72,2.85-1.71a7.33,7.33,0,0,1,3.12,5.35c.08,1.95-1.19,2.72-2.84,1.71A7.34,7.34,0,0,1,815.26,780.09Zm15.12,9.23c-.08-2,1.19-2.72,2.84-1.71a7.36,7.36,0,0,1,3.13,5.36c.08,1.95-1.2,2.71-2.85,1.7A7.34,7.34,0,0,1,830.38,789.32Zm15.11,9.23c-.07-1.95,1.2-2.71,2.85-1.71a7.36,7.36,0,0,1,3.13,5.36c.07,1.95-1.2,2.71-2.85,1.7A7.32,7.32,0,0,1,845.49,798.55Zm15.12,9.23c-.08-1.95,1.2-2.71,2.85-1.7a7.31,7.31,0,0,1,3.12,5.35c.08,2-1.2,2.71-2.85,1.71A7.38,7.38,0,0,1,860.61,807.78Z"/><polygon class="cls-4" points="878.03 806.12 897.28 793.2 897.33 816.73 877.94 829.97 878.03 806.12"/><path class="cls-2" d="M898.52,413.79,221,0l-18.8,13.71L878.78,426.93Zm-14.23,3.91a6.08,6.08,0,0,1-5.85,0c-1.65-1-1.71-2.62-.13-3.61a6.13,6.13,0,0,1,5.85,0C885.81,415.1,885.86,416.72,884.29,417.7Zm-16.94-10.34a6.11,6.11,0,0,1-5.84,0c-1.65-1-1.71-2.63-.14-3.61a6.08,6.08,0,0,1,5.85,0C868.87,404.76,868.93,406.37,867.35,407.36ZM850.41,397a6.06,6.06,0,0,1-5.84,0c-1.65-1-1.71-2.62-.14-3.61a6.11,6.11,0,0,1,5.85,0C851.93,394.41,852,396,850.41,397Zm-16.93-10.34a6.06,6.06,0,0,1-5.84,0c-1.65-1-1.71-2.62-.14-3.61a6.06,6.06,0,0,1,5.84,0C835,384.07,835.05,385.68,833.48,386.67Zm-16.94-10.34a6.07,6.07,0,0,1-5.83,0c-1.66-1-1.72-2.63-.15-3.61a6.06,6.06,0,0,1,5.84,0C818.05,373.72,818.11,375.34,816.54,376.33ZM799.6,366a6,6,0,0,1-5.83,0c-1.65-1-1.72-2.63-.15-3.62a6.06,6.06,0,0,1,5.84,0C801.11,363.37,801.17,365,799.6,366Zm-16.94-10.34a6,6,0,0,1-5.82,0c-1.65-1-1.72-2.63-.15-3.62a6,6,0,0,1,5.83,0C784.17,353,784.23,354.65,782.66,355.64Zm-49.53-30.25a6,6,0,0,1-5.81,0c-1.65-1-1.73-2.63-.16-3.62a6,6,0,0,1,5.82,0C734.63,322.77,734.7,324.4,733.13,325.39ZM704.2,302.26l3.23-2.06L720.25,308,717,310.09ZM222.77,13.69a5.77,5.77,0,0,1,5.73,0c1.65,1,1.76,2.65.25,3.67a5.74,5.74,0,0,1-5.73,0C221.37,16.36,221.26,14.72,222.77,13.69Zm26.47,16.17a5.79,5.79,0,0,1,5.74,0c1.65,1,1.76,2.65.24,3.67a5.81,5.81,0,0,1-5.74,0C247.83,32.53,247.73,30.88,249.24,29.86Zm16.23,9.91a5.79,5.79,0,0,1,5.74,0c1.65,1,1.75,2.65.23,3.67a5.77,5.77,0,0,1-5.73,0C264.06,42.44,264,40.79,265.47,39.77ZM285.66,52.1a5.79,5.79,0,0,1,5.74,0c1.65,1,1.76,2.65.23,3.67a5.79,5.79,0,0,1-5.74,0C284.24,54.76,284.14,53.12,285.66,52.1Zm44.15,27a5.83,5.83,0,0,1,5.75,0c1.65,1,1.75,2.65.22,3.67a5.81,5.81,0,0,1-5.74,0C328.39,81.72,328.28,80.08,329.81,79.06ZM374,106a5.81,5.81,0,0,1,5.75,0c1.66,1,1.75,2.65.22,3.66a5.83,5.83,0,0,1-5.75,0C372.53,108.68,372.43,107,374,106Zm44.15,27a5.85,5.85,0,0,1,5.76,0c1.65,1,1.75,2.64.21,3.65a5.85,5.85,0,0,1-5.76,0C416.67,135.64,416.57,134,418.11,133Zm44.15,27a5.9,5.9,0,0,1,5.77,0c1.65,1,1.74,2.65.2,3.66a5.87,5.87,0,0,1-5.77,0C460.81,162.6,460.72,161,462.26,160Zm44.15,27a5.89,5.89,0,0,1,5.78,0c1.65,1,1.74,2.64.19,3.65a5.92,5.92,0,0,1-5.78,0C505,189.56,504.87,187.93,506.41,186.92Zm44.15,27a5.94,5.94,0,0,1,5.79,0c1.65,1,1.73,2.64.18,3.64a5.92,5.92,0,0,1-5.78,0C549.1,216.52,549,214.89,550.56,213.88Zm44.15,27a5.94,5.94,0,0,1,5.79,0c1.65,1,1.74,2.64.18,3.64a5.94,5.94,0,0,1-5.79,0C593.24,243.48,593.16,241.85,594.71,240.85Zm44.15,27a6,6,0,0,1,5.8,0c1.65,1,1.73,2.63.17,3.63a6,6,0,0,1-5.8,0C637.38,270.44,637.3,268.81,638.86,267.81Zm44.15,27a6,6,0,0,1,5.81,0c1.65,1,1.72,2.63.16,3.63a6,6,0,0,1-5.81,0C681.52,297.39,681.45,295.77,683,294.77Zm12.45,13.07,9,.63.25-.16.41-.26,3.36-2.14L711,307.4l-5.25,3.35a2.75,2.75,0,0,0-.37.28c-.72.62-.81,1.37-.14,1.78a3.3,3.3,0,0,0,2.86-.13,2.22,2.22,0,0,0,.43-.23l5.26-3.35,2.45,1.5L711,313.94l-.41.26h0c-2.85,1.64-6.64,2-8.66.75-1.66-1-1.64-2.78-.18-4.39l-9.46-.66Z"/><path class="cls-3" d="M878.78,426.93,202.19,13.71l0,24.23L878.93,451.63Zm-659-390.19c-.1-2,1.15-2.74,2.8-1.74a7.49,7.49,0,0,1,3.17,5.38c.1,2-1.15,2.74-2.8,1.74A7.49,7.49,0,0,1,219.74,36.74Zm14,8.57c-.1-2,1.15-2.74,2.8-1.74A7.49,7.49,0,0,1,239.74,49c.1,2-1.15,2.74-2.8,1.74A7.49,7.49,0,0,1,233.77,45.31Zm14,8.57c-.1-2,1.15-2.74,2.8-1.74a7.49,7.49,0,0,1,3.17,5.38c.1,2-1.15,2.74-2.8,1.73A7.45,7.45,0,0,1,247.8,53.88Zm14,8.56c-.1-2,1.16-2.73,2.81-1.73a7.48,7.48,0,0,1,3.16,5.38c.1,2-1.15,2.74-2.8,1.73A7.45,7.45,0,0,1,261.83,62.44Zm14,8.57c-.1-2,1.16-2.74,2.81-1.73a7.48,7.48,0,0,1,3.16,5.38c.1,2-1.15,2.74-2.8,1.73A7.47,7.47,0,0,1,275.86,71Zm14,8.57c-.1-2,1.16-2.74,2.81-1.73a7.45,7.45,0,0,1,3.16,5.38c.1,2-1.15,2.74-2.8,1.73A7.49,7.49,0,0,1,289.89,79.58Zm14,8.57c-.1-2,1.16-2.74,2.81-1.73a7.45,7.45,0,0,1,3.16,5.38c.1,2-1.15,2.74-2.8,1.73A7.49,7.49,0,0,1,303.92,88.15Zm14,8.57c-.09-2,1.16-2.74,2.81-1.73a7.49,7.49,0,0,1,3.17,5.38c.09,2-1.17,2.73-2.81,1.73A7.49,7.49,0,0,1,318,96.72Zm14,8.57c-.09-2,1.16-2.74,2.81-1.73a7.47,7.47,0,0,1,3.17,5.38c.09,2-1.17,2.73-2.81,1.72A7.45,7.45,0,0,1,332,105.29Zm14,8.57c-.09-2,1.17-2.74,2.82-1.73a7.49,7.49,0,0,1,3.16,5.38c.09,2-1.17,2.73-2.81,1.72A7.45,7.45,0,0,1,346,113.86Zm14.51,8.86c-.1-2,1.16-2.74,2.81-1.73a7.43,7.43,0,0,1,3.16,5.37c.1,2-1.16,2.74-2.81,1.73A7.43,7.43,0,0,1,360.52,122.72Zm7.66,4.67c-.1-2,1.16-2.73,2.81-1.72a7.44,7.44,0,0,1,3.16,5.37c.1,2-1.16,2.73-2.81,1.73A7.45,7.45,0,0,1,368.18,127.39Zm7.66,4.68c-.1-2,1.16-2.73,2.81-1.73a7.48,7.48,0,0,1,3.16,5.38c.09,2-1.17,2.73-2.82,1.72A7.43,7.43,0,0,1,375.84,132.07Zm7.65,4.68c-.09-2,1.17-2.74,2.82-1.73a7.48,7.48,0,0,1,3.16,5.38c.09,2-1.17,2.73-2.82,1.72A7.46,7.46,0,0,1,383.49,136.75Zm7.66,4.68c-.09-2,1.17-2.74,2.82-1.73a7.46,7.46,0,0,1,3.16,5.37c.09,2-1.17,2.74-2.82,1.73A7.46,7.46,0,0,1,391.15,141.43Zm7.66,4.67c-.09-2,1.17-2.73,2.82-1.72a7.4,7.4,0,0,1,3.15,5.37c.1,2-1.16,2.73-2.81,1.73A7.48,7.48,0,0,1,398.81,146.1Zm7.66,4.68c-.09-2,1.17-2.73,2.82-1.73a7.44,7.44,0,0,1,3.15,5.38c.1,2-1.16,2.73-2.81,1.72A7.41,7.41,0,0,1,406.47,150.78Zm7.66,4.68c-.09-2,1.17-2.73,2.82-1.73a7.47,7.47,0,0,1,3.15,5.38c.1,2-1.17,2.73-2.81,1.72A7.43,7.43,0,0,1,414.13,155.46Zm7.66,4.67c-.1-1.95,1.17-2.73,2.81-1.72a7.43,7.43,0,0,1,3.16,5.37c.09,2-1.17,2.73-2.82,1.73A7.44,7.44,0,0,1,421.79,160.13Zm7.66,4.68c-.1-2,1.16-2.73,2.81-1.72a7.43,7.43,0,0,1,3.16,5.37c.09,2-1.17,2.73-2.82,1.72A7.4,7.4,0,0,1,429.45,164.81Zm7.66,4.68c-.1-2,1.16-2.73,2.81-1.72a7.44,7.44,0,0,1,3.16,5.37c.09,2-1.17,2.73-2.82,1.72A7.42,7.42,0,0,1,437.11,169.49Zm7.65,4.68c-.09-2,1.17-2.73,2.82-1.73a7.48,7.48,0,0,1,3.16,5.37c.09,2-1.17,2.74-2.82,1.73A7.46,7.46,0,0,1,444.76,174.17Zm7.66,4.67c-.09-2,1.17-2.73,2.82-1.72a7.42,7.42,0,0,1,3.15,5.37c.1,2-1.16,2.73-2.81,1.73A7.45,7.45,0,0,1,452.42,178.84Zm7.66,4.68c-.09-2,1.17-2.73,2.82-1.72a7.42,7.42,0,0,1,3.15,5.37c.1,2-1.17,2.73-2.82,1.72A7.4,7.4,0,0,1,460.08,183.52Zm7.66,4.68c-.09-2,1.17-2.73,2.82-1.72a7.4,7.4,0,0,1,3.15,5.37c.09,2-1.17,2.73-2.82,1.72A7.42,7.42,0,0,1,467.74,188.2Zm7.66,4.68c-.09-2,1.17-2.73,2.82-1.73a7.44,7.44,0,0,1,3.15,5.37c.09,2-1.17,2.73-2.82,1.73A7.44,7.44,0,0,1,475.4,192.88Zm7.66,4.67c-.09-2,1.17-2.73,2.82-1.72A7.42,7.42,0,0,1,489,201.2c.09,2-1.17,2.73-2.82,1.72A7.4,7.4,0,0,1,483.06,197.55Zm7.66,4.68c-.1-2,1.17-2.73,2.82-1.72a7.42,7.42,0,0,1,3.15,5.37c.09,2-1.17,2.73-2.82,1.72A7.42,7.42,0,0,1,490.72,202.23Zm7.65,4.68c-.09-2,1.18-2.73,2.83-1.72a7.4,7.4,0,0,1,3.15,5.37c.09,1.95-1.18,2.72-2.83,1.72A7.48,7.48,0,0,1,498.37,206.91Zm7.66,4.68c-.09-2,1.18-2.73,2.83-1.73a7.5,7.5,0,0,1,3.15,5.37c.09,2-1.18,2.73-2.83,1.72A7.4,7.4,0,0,1,506,211.59Zm7.66,4.67c-.09-1.95,1.18-2.73,2.82-1.72a7.42,7.42,0,0,1,3.15,5.37c.09,2-1.17,2.73-2.82,1.72A7.42,7.42,0,0,1,513.69,216.26Zm15.12,9.23c-.09-2,1.17-2.72,2.82-1.72a7.44,7.44,0,0,1,3.15,5.37c.09,2-1.18,2.73-2.82,1.72A7.4,7.4,0,0,1,528.81,225.49Zm15.11,9.24c-.09-2,1.18-2.73,2.83-1.72a7.4,7.4,0,0,1,3.15,5.36c.08,2-1.18,2.73-2.83,1.72A7.4,7.4,0,0,1,543.92,234.73ZM559,244c-.09-2,1.18-2.73,2.83-1.72a7.44,7.44,0,0,1,3.14,5.37c.09,1.95-1.18,2.72-2.82,1.71A7.4,7.4,0,0,1,559,244Zm15.11,9.23c-.08-2,1.18-2.73,2.83-1.72a7.42,7.42,0,0,1,3.15,5.37c.09,2-1.18,2.72-2.83,1.72A7.42,7.42,0,0,1,574.15,253.19Zm15.12,9.23c-.09-1.95,1.18-2.72,2.83-1.72a7.37,7.37,0,0,1,3.14,5.37c.09,2-1.18,2.72-2.82,1.72A7.42,7.42,0,0,1,589.27,262.42Zm15.12,9.23c-.09-1.95,1.18-2.72,2.83-1.71a7.39,7.39,0,0,1,3.14,5.36c.09,2-1.18,2.73-2.83,1.72A7.37,7.37,0,0,1,604.39,271.65Zm15.11,9.24c-.08-2,1.18-2.73,2.83-1.72a7.42,7.42,0,0,1,3.15,5.36c.08,2-1.19,2.73-2.84,1.72A7.44,7.44,0,0,1,619.5,280.89Zm15.12,9.23c-.09-2,1.18-2.73,2.83-1.72a7.37,7.37,0,0,1,3.14,5.36c.09,2-1.18,2.73-2.83,1.72A7.37,7.37,0,0,1,634.62,290.12Zm15.11,9.23c-.08-2,1.19-2.72,2.84-1.72a7.41,7.41,0,0,1,3.14,5.37c.08,1.95-1.19,2.72-2.84,1.71A7.44,7.44,0,0,1,649.73,299.35Zm15.12,9.23c-.08-1.95,1.18-2.72,2.83-1.71a7.34,7.34,0,0,1,3.14,5.36c.09,1.95-1.18,2.72-2.83,1.71A7.35,7.35,0,0,1,664.85,308.58ZM680,317.81c-.09-1.95,1.18-2.72,2.83-1.71a7.4,7.4,0,0,1,3.14,5.36c.08,2-1.19,2.72-2.84,1.71A7.32,7.32,0,0,1,680,317.81ZM695.08,327c-.08-2,1.19-2.72,2.84-1.71a7.36,7.36,0,0,1,3.13,5.36c.09,1.95-1.18,2.72-2.83,1.71A7.37,7.37,0,0,1,695.08,327Zm15.12,9.24c-.08-2,1.19-2.72,2.83-1.72a7.37,7.37,0,0,1,3.14,5.36c.08,2-1.19,2.72-2.84,1.72A7.36,7.36,0,0,1,710.2,336.28Zm15.11,9.23c-.08-2,1.19-2.72,2.84-1.71a7.37,7.37,0,0,1,3.14,5.35c.08,2-1.19,2.72-2.84,1.72A7.4,7.4,0,0,1,725.31,345.51Zm15.12,9.23c-.08-1.95,1.19-2.72,2.84-1.71a7.32,7.32,0,0,1,3.13,5.36c.08,1.95-1.19,2.71-2.84,1.71A7.36,7.36,0,0,1,740.43,354.74ZM755.55,364c-.09-2,1.19-2.72,2.84-1.71a7.39,7.39,0,0,1,3.13,5.36c.08,1.95-1.19,2.72-2.84,1.71A7.36,7.36,0,0,1,755.55,364Zm15.11,9.23c-.08-1.95,1.19-2.72,2.84-1.71a7.36,7.36,0,0,1,3.13,5.36c.08,1.95-1.19,2.72-2.84,1.71A7.36,7.36,0,0,1,770.66,373.2Zm15.12,9.23c-.08-1.95,1.19-2.71,2.84-1.71a7.36,7.36,0,0,1,3.13,5.36c.08,1.95-1.19,2.72-2.84,1.71A7.34,7.34,0,0,1,785.78,382.43Zm15.11,9.24c-.08-2,1.2-2.72,2.85-1.71a7.32,7.32,0,0,1,3.13,5.35c.07,1.95-1.2,2.72-2.85,1.71A7.34,7.34,0,0,1,800.89,391.67ZM816,400.9c-.08-1.95,1.19-2.72,2.84-1.71a7.34,7.34,0,0,1,3.13,5.36c.08,1.95-1.19,2.71-2.84,1.7A7.32,7.32,0,0,1,816,400.9Zm15.11,9.23c-.07-1.95,1.2-2.72,2.85-1.71a7.36,7.36,0,0,1,3.13,5.36c.08,2-1.2,2.71-2.85,1.7A7.32,7.32,0,0,1,831.12,410.13Zm15.12,9.23c-.08-1.95,1.2-2.71,2.85-1.71a7.32,7.32,0,0,1,3.12,5.36c.08,1.95-1.19,2.71-2.84,1.71A7.36,7.36,0,0,1,846.24,419.36Zm15.12,9.23c-.08-1.95,1.19-2.71,2.84-1.7a7.32,7.32,0,0,1,3.13,5.35c.08,1.95-1.2,2.71-2.85,1.71A7.32,7.32,0,0,1,861.36,428.59Z"/><polygon class="cls-4" points="878.78 426.93 898.52 413.79 898.61 438.17 878.93 451.63 878.78 426.93"/><polygon class="cls-3" points="897.28 793.2 878.03 806.12 878.03 801.64 897.41 788.87 897.28 793.2"/><polygon class="cls-5" points="808.92 759.43 838 777.19 837.44 756.6 824.55 748.73 808.92 759.43"/><path class="cls-5" d="M897.41,788.87l-23.27-14.22-.06-324.81-19.21-11.23.25,348.83v.2l22.93,14Zm-37.63-5.19Z"/><path class="cls-6" d="M878,801.65l-22.92-14L855.87,442l23,14.07,19.69-13.44v-4.48l-19.68,13.46-69.26-42.3v4.47L834.53,429l-.74,345.63-24.87-15.19v4.47L878,806.12Zm-36.81-358.3c0-1.72,1.34-2.31,3-1.3a6.56,6.56,0,0,1,3,4.95c0,1.73-1.35,2.3-3,1.3A6.52,6.52,0,0,1,841.23,443.35Zm0,16.25c0-1.72,1.34-2.31,3-1.29a6.56,6.56,0,0,1,3,4.94c0,1.73-1.34,2.32-3,1.31A6.55,6.55,0,0,1,841.19,459.6Zm0,16.26c0-1.73,1.35-2.31,3-1.3a6.58,6.58,0,0,1,3,4.95c0,1.73-1.35,2.31-3,1.3A6.55,6.55,0,0,1,841.15,475.86Zm0,16.26c0-1.73,1.36-2.31,3-1.31a6.51,6.51,0,0,1,3,5c0,1.72-1.34,2.31-3,1.3A6.56,6.56,0,0,1,841.11,492.12Zm0,16.26c0-1.73,1.35-2.32,3-1.32a6.61,6.61,0,0,1,3,5c0,1.71-1.35,2.3-3,1.29A6.55,6.55,0,0,1,841.08,508.38Zm0,16.25c0-1.73,1.34-2.31,3-1.3a6.55,6.55,0,0,1,3,4.95c0,1.72-1.35,2.3-3,1.3A6.57,6.57,0,0,1,841.05,524.63Zm0,16.25c0-1.73,1.34-2.31,3-1.3a6.55,6.55,0,0,1,3,4.95c0,1.73-1.34,2.31-3,1.3A6.56,6.56,0,0,1,841,540.88Zm0,16.26c0-1.74,1.34-2.31,3-1.3a6.53,6.53,0,0,1,3,4.95c0,1.72-1.34,2.31-3,1.29A6.55,6.55,0,0,1,841,557.14Zm0,16.25c0-1.73,1.34-2.31,3-1.3a6.54,6.54,0,0,1,3,4.95c0,1.72-1.34,2.31-3,1.3A6.58,6.58,0,0,1,840.94,573.39Zm0,16.26c0-1.73,1.34-2.31,3-1.31a6.59,6.59,0,0,1,3,5c0,1.72-1.35,2.3-3,1.3A6.55,6.55,0,0,1,840.91,589.65Zm0,16.25c0-1.73,1.34-2.31,3-1.3a6.54,6.54,0,0,1,3,4.95c0,1.73-1.34,2.3-3,1.3A6.54,6.54,0,0,1,840.87,605.9Zm0,16.25c0-1.72,1.34-2.31,3-1.29a6.55,6.55,0,0,1,3,4.94c0,1.74-1.34,2.31-3,1.3A6.53,6.53,0,0,1,840.83,622.15Zm0,16.26c0-1.73,1.34-2.31,3-1.3a6.55,6.55,0,0,1,3,4.95c0,1.73-1.34,2.31-3,1.29A6.5,6.5,0,0,1,840.8,638.41Zm0,16.25c0-1.72,1.35-2.3,3-1.3a6.57,6.57,0,0,1,3,4.95c0,1.73-1.34,2.31-3,1.3A6.55,6.55,0,0,1,840.76,654.66Zm0,16.25c0-1.71,1.35-2.3,3-1.29a6.55,6.55,0,0,1,3,4.94c0,1.73-1.34,2.31-3,1.31A6.58,6.58,0,0,1,840.72,670.91Zm0,16.26c0-1.72,1.34-2.31,3-1.3a6.56,6.56,0,0,1,3,5c0,1.73-1.35,2.31-3,1.3A6.52,6.52,0,0,1,840.7,687.17Zm0,16.26c0-1.73,1.34-2.31,3-1.3a6.56,6.56,0,0,1,3,4.94c0,1.74-1.34,2.32-3,1.31A6.53,6.53,0,0,1,840.66,703.43Zm0,16.25c0-1.73,1.34-2.31,3-1.3a6.59,6.59,0,0,1,3,5c0,1.73-1.35,2.32-3,1.3A6.56,6.56,0,0,1,840.62,719.68Zm0,16.26c0-1.73,1.35-2.31,3-1.31a6.51,6.51,0,0,1,3,5c0,1.72-1.34,2.31-3,1.3A6.56,6.56,0,0,1,840.58,735.94Zm0,16.25c0-1.72,1.36-2.31,3-1.3a6.52,6.52,0,0,1,3,5c0,1.73-1.34,2.31-3,1.31A6.62,6.62,0,0,1,840.54,752.19Zm0,16.26c0-1.73,1.34-2.31,3-1.3a6.55,6.55,0,0,1,3,5c0,1.72-1.35,2.3-3,1.3A6.57,6.57,0,0,1,840.52,768.45Z"/><ellipse class="cls-7" cx="879.95" cy="790.53" rx="2.67" ry="4.15" transform="translate(67.95 1650.7) rotate(-88.59)"/><ellipse class="cls-7" cx="828.15" cy="761.36" rx="2.67" ry="4.15" transform="translate(46.59 1570.48) rotate(-88.59)"/><polygon class="cls-8" points="832.37 764.83 833.82 760.74 833.82 758.83 832.37 763.11 832.37 763.11 832.37 764.83 832.37 764.83"/><polygon class="cls-9" points="822.08 761.96 823.52 757.7 829.39 756.14 833.82 758.85 832.37 763.11 826.5 764.67 822.08 761.96"/><polygon class="cls-10" points="826.5 766.27 832.37 764.83 832.37 763.11 826.5 764.67 826.47 764.65 826.48 766.25 826.5 766.27"/><polygon class="cls-8" points="826.47 764.65 822.09 761.97 822.09 763.57 826.48 766.25 826.47 764.65"/><ellipse class="cls-11" cx="828" cy="759.46" rx="2.2" ry="3.02" transform="translate(-251.71 1070.26) rotate(-58.59)"/><ellipse class="cls-12" cx="828" cy="759.19" rx="2.2" ry="3.02" transform="translate(-248.04 1081.82) rotate(-59.21)"/><ellipse class="cls-13" cx="828" cy="758.92" rx="2.19" ry="3.02" transform="translate(-244.24 1093.34) rotate(-59.83)"/><ellipse class="cls-14" cx="828" cy="758.65" rx="2.19" ry="3.02" transform="translate(-240.31 1104.82) rotate(-60.45)"/><ellipse class="cls-15" cx="828" cy="758.37" rx="2.19" ry="3.02" transform="translate(-236.25 1116.26) rotate(-61.07)"/><ellipse class="cls-16" cx="827.99" cy="758.1" rx="2.19" ry="3.02" transform="translate(-232.06 1127.65) rotate(-61.7)"/><ellipse class="cls-17" cx="827.99" cy="757.83" rx="2.19" ry="3.02" transform="translate(-227.75 1139) rotate(-62.32)"/><ellipse class="cls-18" cx="827.99" cy="757.56" rx="2.19" ry="3.02" transform="translate(-223.3 1150.29) rotate(-62.94)"/><ellipse class="cls-19" cx="827.99" cy="757.28" rx="2.2" ry="3.02" transform="translate(-218.74 1161.52) rotate(-63.56)"/><ellipse class="cls-20" cx="827.99" cy="757.01" rx="2.2" ry="3.02" transform="translate(-214.05 1172.69) rotate(-64.18)"/><polygon class="cls-8" points="884.15 794.45 885.6 790.35 885.6 788.45 884.15 792.73 884.15 792.73 884.15 794.45 884.15 794.45"/><polygon class="cls-9" points="873.86 791.58 875.3 787.32 881.17 785.76 885.6 788.47 884.15 792.73 878.28 794.29 873.86 791.58"/><polygon class="cls-10" points="878.29 795.89 884.15 794.45 884.15 792.73 878.28 794.29 878.26 794.27 878.26 795.87 878.29 795.89"/><polygon class="cls-8" points="878.26 794.27 873.87 791.59 873.87 793.19 878.26 795.87 878.26 794.27"/><ellipse class="cls-11" cx="879.78" cy="789.08" rx="2.2" ry="3.02" transform="translate(-252.2 1128.63) rotate(-58.59)"/><ellipse class="cls-12" cx="879.78" cy="788.81" rx="2.2" ry="3.02" transform="translate(-248.21 1140.75) rotate(-59.21)"/><ellipse class="cls-13" cx="879.78" cy="788.54" rx="2.19" ry="3.02" transform="translate(-244.09 1152.84) rotate(-59.83)"/><ellipse class="cls-14" cx="879.78" cy="788.27" rx="2.19" ry="3.02" transform="translate(-239.84 1164.88) rotate(-60.45)"/><ellipse class="cls-15" cx="879.78" cy="787.99" rx="2.19" ry="3.02" transform="matrix(0.48, -0.88, 0.88, 0.48, -235.44, 1176.87)"/><ellipse class="cls-16" cx="879.78" cy="787.72" rx="2.19" ry="3.02" transform="translate(-230.91 1188.82) rotate(-61.7)"/><ellipse class="cls-17" cx="879.77" cy="787.45" rx="2.19" ry="3.02" transform="translate(-226.25 1200.71) rotate(-62.32)"/><ellipse class="cls-18" cx="879.77" cy="787.18" rx="2.19" ry="3.02" transform="translate(-221.46 1212.55) rotate(-62.94)"/><ellipse class="cls-19" cx="879.77" cy="786.9" rx="2.2" ry="3.02" transform="translate(-216.53 1224.32) rotate(-63.56)"/><ellipse class="cls-20" cx="879.77" cy="786.63" rx="2.2" ry="3.02" transform="translate(-211.48 1236.03) rotate(-64.18)"/><path class="cls-8" d="M875.52,421.3c-4.94-1.8-7.88-6.18-6.3-10.53s6.88-6.43,11.82-4.63,7.66,6.79,6.08,11.15S880.46,423.1,875.52,421.3Z"/><ellipse class="cls-21" cx="878.35" cy="413.53" rx="7.87" ry="9.52" transform="translate(189.06 1097.2) rotate(-69.98)"/><polygon class="cls-8" points="882.46 416.76 883.91 412.66 883.9 410.76 882.46 415.04 882.45 415.04 882.46 416.76 882.46 416.76"/><polygon class="cls-22" points="872.16 413.89 873.6 409.63 879.47 408.07 883.9 410.78 882.46 415.04 876.59 416.6 872.16 413.89"/><polygon class="cls-10" points="876.59 418.2 882.46 416.76 882.45 415.04 876.59 416.6 876.56 416.58 876.56 418.18 876.59 418.2"/><polygon class="cls-8" points="876.56 416.58 872.17 413.9 872.17 415.5 876.56 418.18 876.56 416.58"/><path class="cls-8" d="M827,391.67c-4.94-1.8-7.88-6.19-6.29-10.54s6.88-6.42,11.82-4.62,7.66,6.79,6.07,11.14S831.93,393.47,827,391.67Z"/><ellipse class="cls-21" cx="829.83" cy="383.9" rx="7.87" ry="9.52" transform="translate(185 1032.12) rotate(-69.98)"/><polygon class="cls-23" points="833.93 387.13 835.38 383.03 835.38 381.12 833.93 385.4 833.93 385.4 833.93 387.13 833.93 387.13"/><polygon class="cls-22" points="823.63 384.26 825.08 380 830.95 378.44 835.38 381.14 833.93 385.4 828.06 386.96 823.63 384.26"/><polygon class="cls-24" points="828.06 388.56 833.93 387.13 833.93 385.4 828.06 386.96 828.03 386.94 828.04 388.55 828.06 388.56"/><polygon class="cls-23" points="828.03 386.94 823.64 384.26 823.65 385.86 828.04 388.55 828.03 386.94"/><polygon class="cls-8" points="815.89 779.79 811.64 780.69 810.02 781.68 814.42 780.69 814.42 780.69 815.89 779.79 815.89 779.79"/><polygon class="cls-9" points="818.81 790.07 814.42 791.06 810.03 786.86 810.03 781.67 814.42 780.69 818.81 784.88 818.81 790.07"/><polygon class="cls-10" points="820.18 784.04 815.89 779.79 814.42 780.69 818.81 784.88 818.81 784.91 820.18 784.08 820.18 784.04"/><polygon class="cls-8" points="818.81 784.91 818.81 790.06 820.18 789.22 820.18 784.08 818.81 784.91"/><ellipse class="cls-11" cx="813.59" cy="786.31" rx="2.2" ry="3.02"/><ellipse class="cls-12" cx="813.36" cy="786.46" rx="2.2" ry="3.02" transform="translate(-8.48 8.87) rotate(-0.62)"/><ellipse class="cls-13" cx="813.13" cy="786.6" rx="2.19" ry="3.02" transform="translate(-16.87 17.82) rotate(-1.24)"/><ellipse class="cls-14" cx="812.89" cy="786.74" rx="2.19" ry="3.02" transform="translate(-25.18 26.87) rotate(-1.87)"/><ellipse class="cls-15" cx="812.66" cy="786.89" rx="2.19" ry="3.02" transform="translate(-33.39 36.01) rotate(-2.49)"/><ellipse class="cls-16" cx="812.43" cy="787.03" rx="2.19" ry="3.02" transform="translate(-41.5 45.23) rotate(-3.11)"/><ellipse class="cls-17" cx="812.2" cy="787.17" rx="2.19" ry="3.02" transform="translate(-49.52 54.54) rotate(-3.73)"/><ellipse class="cls-18" cx="811.97" cy="787.32" rx="2.19" ry="3.02" transform="translate(-57.43 63.92) rotate(-4.35)"/><ellipse class="cls-19" cx="811.74" cy="787.46" rx="2.2" ry="3.02" transform="translate(-65.24 73.38) rotate(-4.98)"/><ellipse class="cls-20" cx="811.5" cy="787.6" rx="2.2" ry="3.02" transform="translate(-72.95 82.91) rotate(-5.6)"/><polygon class="cls-8" points="864.75 808.43 860.5 809.33 858.87 810.32 863.28 809.33 863.28 809.33 864.75 808.43 864.75 808.43"/><polygon class="cls-9" points="867.67 818.71 863.28 819.7 858.89 815.5 858.89 810.32 863.28 809.33 867.67 813.52 867.67 818.71"/><polygon class="cls-10" points="869.03 812.69 864.75 808.43 863.28 809.33 867.67 813.52 867.67 813.56 869.03 812.72 869.03 812.69"/><polygon class="cls-8" points="867.67 813.56 867.67 818.7 869.03 817.86 869.03 812.72 867.67 813.56"/><ellipse class="cls-11" cx="862.45" cy="814.96" rx="2.2" ry="3.02"/><ellipse class="cls-12" cx="862.22" cy="815.1" rx="2.2" ry="3.02" transform="matrix(1, -0.01, 0.01, 1, -8.79, 9.4)"/><ellipse class="cls-13" cx="861.98" cy="815.24" rx="2.19" ry="3.02" transform="translate(-17.48 18.89) rotate(-1.24)"/><ellipse class="cls-14" cx="861.75" cy="815.39" rx="2.19" ry="3.02" transform="translate(-26.08 28.48) rotate(-1.87)"/><ellipse class="cls-15" cx="861.52" cy="815.53" rx="2.19" ry="3.02" transform="translate(-34.58 38.16) rotate(-2.49)"/><ellipse class="cls-16" cx="861.29" cy="815.67" rx="2.19" ry="3.02" transform="translate(-42.98 47.93) rotate(-3.11)"/><ellipse class="cls-17" cx="861.06" cy="815.82" rx="2.19" ry="3.02" transform="translate(-51.28 57.78) rotate(-3.73)"/><ellipse class="cls-18" cx="860.82" cy="815.96" rx="2.19" ry="3.02" transform="translate(-59.47 67.71) rotate(-4.35)"/><ellipse class="cls-19" cx="860.59" cy="816.1" rx="2.2" ry="3.02" transform="translate(-67.55 77.72) rotate(-4.98)"/><ellipse class="cls-20" cx="860.36" cy="816.25" rx="2.2" ry="3.02" transform="translate(-75.51 87.81) rotate(-5.6)"/><polygon class="cls-25" points="669.22 889.26 676.42 896.15 669.22 889.27 669.22 889.26 669.22 889.26"/><polygon class="cls-23" points="669.22 889.26 669.22 889.26 669.22 889.26 669.22 889.27 672.73 887.12 662.58 889.26 658.71 891.63 658.75 891.63 658.75 891.62 669.22 889.26"/><path class="cls-22" d="M679.68,899.35v-.08l-3.26-3.12-7.2-6.89-10.47,2.37V904l10.47,10,10.46-2.36v0h0Zm-5,9.45-.3.16a3.4,3.4,0,0,1-.3.23c-2.58,1.67-6.86-.36-9.56-4.54s-2.8-8.91-.23-10.58a3.65,3.65,0,0,1,.34-.18,1.79,1.79,0,0,1,.26-.2c2.25-1.46,6.26.74,9,4.92S677,907.35,674.71,908.8Z"/><polygon class="cls-22" points="669.22 889.26 658.75 891.62 658.75 891.63 669.22 889.26 669.22 889.26"/><polygon class="cls-24" points="672.73 887.12 669.22 889.27 676.42 896.15 679.68 899.27 679.68 899.35 682.94 897.35 682.94 897.27 672.73 887.12"/><polygon class="cls-24" points="679.68 899.35 679.68 899.35 679.68 899.27 676.42 896.15 679.68 899.27 679.68 899.35"/><polygon class="cls-23" points="679.68 911.61 682.94 909.62 682.94 897.35 679.68 899.35 679.68 911.61"/><rect class="cls-23" x="679.68" y="899.35" height="12.26"/><path class="cls-21" d="M665.74,903.88c-2.59-4-3-8.35-1.08-10a3.65,3.65,0,0,0-.34.18c-2.57,1.67-2.47,6.41.23,10.58s7,6.21,9.56,4.54a3.4,3.4,0,0,0,.3-.23C672.12,910.06,668.33,907.88,665.74,903.88Z"/><polygon class="cls-8" points="815.89 400.83 811.64 401.73 810.02 402.72 814.42 401.73 814.42 401.73 815.89 400.83 815.89 400.83"/><polygon class="cls-9" points="818.81 411.11 814.42 412.1 810.03 407.9 810.03 402.71 814.42 401.73 818.81 405.92 818.81 411.11"/><polygon class="cls-10" points="820.18 405.09 815.89 400.83 814.42 401.73 818.81 405.92 818.81 405.96 820.18 405.12 820.18 405.09"/><polygon class="cls-8" points="818.81 405.96 818.81 411.1 820.18 410.26 820.18 405.12 818.81 405.96"/><ellipse class="cls-11" cx="813.59" cy="407.35" rx="2.2" ry="3.02"/><ellipse class="cls-12" cx="813.36" cy="407.5" rx="2.2" ry="3.02" transform="matrix(1, -0.01, 0.01, 1, -4.37, 8.84)"/><ellipse class="cls-13" cx="813.13" cy="407.64" rx="2.19" ry="3.02" transform="translate(-8.65 17.73) rotate(-1.24)"/><ellipse class="cls-14" cx="812.89" cy="407.78" rx="2.19" ry="3.02" transform="translate(-12.84 26.67) rotate(-1.87)"/><ellipse class="cls-15" cx="812.66" cy="407.93" rx="2.19" ry="3.02" transform="translate(-16.94 35.65) rotate(-2.49)"/><ellipse class="cls-16" cx="812.43" cy="408.07" rx="2.19" ry="3.02" transform="translate(-20.94 44.68) rotate(-3.11)"/><ellipse class="cls-17" cx="812.2" cy="408.21" rx="2.19" ry="3.02" transform="translate(-24.85 53.73) rotate(-3.73)"/><ellipse class="cls-18" cx="811.97" cy="408.36" rx="2.19" ry="3.02" transform="translate(-28.66 62.83) rotate(-4.35)"/><ellipse class="cls-19" cx="811.74" cy="408.5" rx="2.2" ry="3.02" transform="translate(-32.37 71.95) rotate(-4.98)"/><ellipse class="cls-20" cx="811.5" cy="408.65" rx="2.2" ry="3.02" transform="translate(-35.99 81.1) rotate(-5.6)"/><polygon class="cls-8" points="864.75 429.47 860.5 430.37 858.87 431.36 863.28 430.37 863.28 430.37 864.75 429.47 864.75 429.47"/><polygon class="cls-9" points="867.67 439.75 863.28 440.74 858.89 436.54 858.89 431.36 863.28 430.37 867.67 434.57 867.67 439.75"/><polygon class="cls-10" points="869.03 433.73 864.75 429.47 863.28 430.37 867.67 434.57 867.67 434.6 869.03 433.76 869.03 433.73"/><polygon class="cls-8" points="867.67 434.6 867.67 439.74 869.03 438.9 869.03 433.76 867.67 434.6"/><ellipse class="cls-11" cx="862.45" cy="436" rx="2.2" ry="3.02"/><ellipse class="cls-12" cx="862.22" cy="436.14" rx="2.2" ry="3.02" transform="translate(-4.68 9.37) rotate(-0.62)"/><ellipse class="cls-13" cx="861.98" cy="436.28" rx="2.19" ry="3.02" transform="translate(-9.26 18.8) rotate(-1.24)"/><ellipse class="cls-14" cx="861.75" cy="436.43" rx="2.19" ry="3.02" transform="translate(-13.75 28.28) rotate(-1.87)"/><ellipse class="cls-15" cx="861.52" cy="436.57" rx="2.19" ry="3.02" transform="matrix(1, -0.04, 0.04, 1, -18.14, 37.8)"/><ellipse class="cls-16" cx="861.29" cy="436.71" rx="2.19" ry="3.02" transform="translate(-22.42 47.37) rotate(-3.11)"/><ellipse class="cls-17" cx="861.06" cy="436.86" rx="2.19" ry="3.02" transform="translate(-26.61 56.98) rotate(-3.73)"/><ellipse class="cls-18" cx="860.82" cy="437" rx="2.19" ry="3.02" transform="translate(-30.69 66.62) rotate(-4.35)"/><ellipse class="cls-19" cx="860.59" cy="437.14" rx="2.2" ry="3.02" transform="translate(-34.67 76.3) rotate(-4.98)"/><ellipse class="cls-20" cx="860.36" cy="437.29" rx="2.2" ry="3.02" transform="translate(-38.55 86) rotate(-5.6)"/><path class="cls-25" d="M728.92,492.55c1.65,1,4,1.07,5.25.14s.92-2.49-.73-3.5-4-1.07-5.24-.15S727.27,491.54,728.92,492.55Z"/><path class="cls-25" d="M717,501.42c1.65,1,4,1.07,5.24.14s.92-2.49-.73-3.5a5.12,5.12,0,0,0-5.24-.15C715,498.84,715.34,500.41,717,501.42Z"/><path class="cls-25" d="M681.18,528c1.65,1,4,1.07,5.24.15s.93-2.5-.72-3.5-4-1.08-5.25-.15S679.53,527,681.18,528Z"/><path class="cls-25" d="M740.86,483.67c1.65,1,4,1.08,5.25.15s.92-2.5-.73-3.5-4-1.08-5.25-.15S739.21,482.67,740.86,483.67Z"/><path class="cls-25" d="M705.05,510.29a5.11,5.11,0,0,0,5.25.14c1.24-.92.92-2.49-.73-3.5a5.11,5.11,0,0,0-5.25-.14C703.08,507.71,703.4,509.28,705.05,510.29Z"/><path class="cls-25" d="M693.12,519.16a5.12,5.12,0,0,0,5.24.15c1.25-.93.92-2.5-.73-3.51s-4-1.07-5.24-.14S691.47,518.15,693.12,519.16Z"/><path class="cls-25" d="M752.8,474.8c1.65,1,4,1.08,5.24.15s.92-2.5-.73-3.5-4-1.08-5.24-.15S751.15,473.79,752.8,474.8Z"/><path class="cls-25" d="M800.54,439.32c1.65,1,4,1.07,5.25.14s.92-2.49-.73-3.5a5.14,5.14,0,0,0-5.25-.15C798.57,436.74,798.89,438.31,800.54,439.32Z"/><path class="cls-25" d="M764.73,465.93a5.14,5.14,0,0,0,5.25.15c1.25-.93.92-2.5-.73-3.51s-4-1.07-5.25-.14S763.08,464.92,764.73,465.93Z"/><path class="cls-25" d="M812.48,430.44c1.65,1,4,1.08,5.24.15s.92-2.5-.72-3.5-4-1.08-5.25-.15S810.83,429.44,812.48,430.44Z"/><path class="cls-25" d="M788.61,448.19c1.65,1,4,1.07,5.24.14s.92-2.49-.73-3.5-4-1.07-5.24-.15S787,447.18,788.61,448.19Z"/><path class="cls-25" d="M776.67,457.06a5.11,5.11,0,0,0,5.25.14c1.24-.92.92-2.49-.73-3.5a5.11,5.11,0,0,0-5.25-.14C774.69,454.48,775,456.05,776.67,457.06Z"/><path class="cls-25" d="M824.42,421.57a5.12,5.12,0,0,0,5.24.15c1.25-.93.92-2.5-.73-3.5s-4-1.08-5.24-.15S822.77,420.56,824.42,421.57Z"/><path class="cls-24" d="M851.86,415.62,677,545.58l18.88,11.52L852,440.25l23,13.83-.17-24.46ZM867,439.46c-1.36.83-3.49-.17-4.76-2.24s-1.19-4.43.17-5.26,3.49.17,4.75,2.24S868.31,438.63,867,439.46Z"/><polygon class="cls-24" points="696.41 586.2 699.93 583.85 699.5 559.31 699.5 559.31 696.27 561.71 696.41 586.2"/><polygon class="cls-3" points="878 427.22 874.78 429.62 874.95 454.08 878.15 451.92 878 427.22"/><path class="cls-6" d="M805.51,387.32l.56,24.89,6.32,3.85,18.13-13.47Zm12.58,22.3c-1.36.83-3.49-.17-4.76-2.24s-1.19-4.43.17-5.26,3.49.17,4.75,2.24S819.45,408.79,818.09,409.62Z"/><polygon class="cls-2" points="699.5 559.31 699.5 559.31 695.88 557.1 694.29 558.29 699.5 559.31"/><path class="cls-2" d="M685.27,555l-8.27-9.4L851.66,415l23.12,14.64,3.22-2.4L808.88,385l-3.23,2.4,24.87,15.19h0l.72.44-17.31,14-1.54-.94L655.67,532.55,630.8,517.36l-3.23,2.39.08,0v0ZM823.69,418.07c1.24-.93,3.59-.86,5.24.15s2,2.57.73,3.5a5.12,5.12,0,0,1-5.24-.15C822.77,420.56,822.44,419,823.69,418.07Zm-11.94,8.87c1.25-.93,3.6-.86,5.25.15s2,2.57.72,3.5-3.59.86-5.24-.15S810.5,427.87,811.75,426.94Zm-11.94,8.87a5.14,5.14,0,0,1,5.25.15c1.65,1,2,2.57.73,3.5s-3.6.86-5.25-.14S798.57,436.74,799.81,435.81Zm-11.93,8.87c1.24-.92,3.59-.86,5.24.15s2,2.58.73,3.5-3.59.86-5.24-.14S786.63,445.61,787.88,444.68Zm-11.94,8.88a5.11,5.11,0,0,1,5.25.14c1.65,1,2,2.58.73,3.5a5.11,5.11,0,0,1-5.25-.14C775,456.05,774.69,454.48,775.94,453.56ZM764,462.43c1.25-.93,3.6-.86,5.25.14s2,2.58.73,3.51a5.14,5.14,0,0,1-5.25-.15C763.08,464.92,762.76,463.35,764,462.43Zm-11.93,8.87c1.25-.93,3.59-.86,5.24.15s2,2.57.73,3.5-3.59.86-5.24-.15S750.82,472.23,752.07,471.3Zm-11.94,8.87c1.25-.93,3.6-.86,5.25.15s2,2.57.73,3.5-3.6.86-5.25-.15S738.88,481.1,740.13,480.17ZM728.2,489c1.24-.92,3.59-.86,5.24.15s2,2.57.73,3.5-3.6.86-5.25-.14S727,490,728.2,489Zm-11.94,8.87a5.12,5.12,0,0,1,5.24.15c1.65,1,2,2.58.73,3.5s-3.59.86-5.24-.14S715,498.84,716.26,497.91Zm-11.94,8.88a5.11,5.11,0,0,1,5.25.14c1.65,1,2,2.58.73,3.5a5.11,5.11,0,0,1-5.25-.14C703.4,509.28,703.08,507.71,704.32,506.79Zm-11.93,8.87c1.24-.93,3.59-.86,5.24.14s2,2.58.73,3.51a5.12,5.12,0,0,1-5.24-.15C691.47,518.15,691.14,516.58,692.39,515.66Zm-11.94,8.87c1.25-.93,3.6-.86,5.25.15s2,2.57.72,3.5-3.59.86-5.24-.15S679.2,525.46,680.45,524.53Z"/><polygon class="cls-2" points="851.86 415.62 874.78 429.62 851.66 414.98 677 545.58 685.27 554.98 696.27 561.71 699.5 559.31 694.29 558.29 695.88 557.1 677 545.58 851.86 415.62"/><polygon class="cls-2" points="831.24 403.03 830.51 402.59 812.39 416.06 813.93 417 831.24 403.03"/><path class="cls-7" d="M862.36,432c-1.36.83-1.44,3.19-.17,5.26s3.4,3.07,4.76,2.24,1.43-3.18.16-5.26S863.72,431.13,862.36,432Z"/><path class="cls-7" d="M818.25,404.36c-1.26-2.07-3.39-3.07-4.75-2.24s-1.44,3.19-.17,5.26,3.4,3.07,4.76,2.24S819.52,406.44,818.25,404.36Z"/><path class="cls-24" d="M685.28,555l-57.63-35.2v24.65l68.76,41.75L687.94,558ZM640.8,543.62c-1.94.85-4.67-1.13-6.09-4.42s-1-6.62.95-7.47,4.68,1.14,6.1,4.42S642.75,542.78,640.8,543.62Zm41.81,26c-2,.84-4.68-1.14-6.1-4.42s-1-6.63,1-7.47,4.68,1.14,6.1,4.42S684.56,568.81,682.61,569.65Z"/><polygon class="cls-24" points="685.28 555 687.94 558.02 696.41 586.2 696.27 561.71 685.28 555"/><polygon class="cls-24" points="685.27 554.98 627.65 519.75 627.65 519.8 685.28 555 685.27 554.98"/><polygon class="cls-24" points="696.27 561.71 685.27 554.98 685.28 555 696.27 561.71"/><path class="cls-25" d="M752.8,853.71c1.65,1,4,1.07,5.24.15s.92-2.5-.73-3.51a5.09,5.09,0,0,0-5.24-.14C750.82,851.13,751.15,852.7,752.8,853.71Z"/><path class="cls-25" d="M717,880.32c1.65,1,4,1.08,5.24.15s.92-2.49-.73-3.5-4-1.08-5.24-.15S715.34,879.32,717,880.32Z"/><path class="cls-25" d="M728.92,871.45c1.65,1,4,1.08,5.25.15s.92-2.5-.73-3.5-4-1.08-5.24-.15S727.27,870.45,728.92,871.45Z"/><path class="cls-25" d="M740.86,862.58a5.14,5.14,0,0,0,5.25.15c1.24-.93.92-2.5-.73-3.51s-4-1.07-5.25-.14S739.21,861.57,740.86,862.58Z"/><path class="cls-25" d="M705.05,889.2c1.65,1,4,1.07,5.25.14s.92-2.49-.73-3.5a5.14,5.14,0,0,0-5.25-.15C703.08,886.62,703.4,888.19,705.05,889.2Z"/><path class="cls-25" d="M693.12,898.07a5.09,5.09,0,0,0,5.24.14c1.25-.92.92-2.49-.73-3.5s-4-1.07-5.24-.14S691.47,897.06,693.12,898.07Z"/><path class="cls-25" d="M776.67,836c1.65,1,4,1.07,5.25.14s.92-2.49-.73-3.5a5.14,5.14,0,0,0-5.25-.15C774.69,833.39,775,835,776.67,836Z"/><path class="cls-25" d="M824.42,800.48a5.12,5.12,0,0,0,5.24.15c1.25-.93.92-2.5-.73-3.51s-4-1.07-5.24-.14S822.77,799.47,824.42,800.48Z"/><path class="cls-25" d="M812.48,809.35c1.65,1,4,1.07,5.24.15s.92-2.5-.72-3.51-4-1.07-5.25-.14S810.83,808.34,812.48,809.35Z"/><path class="cls-25" d="M681.18,906.94c1.65,1,4,1.07,5.24.15s.93-2.5-.72-3.51-4-1.07-5.25-.14S679.53,905.93,681.18,906.94Z"/><path class="cls-25" d="M764.73,844.84A5.11,5.11,0,0,0,770,845c1.25-.92.92-2.49-.73-3.5a5.14,5.14,0,0,0-5.25-.15C762.76,842.26,763.08,843.83,764.73,844.84Z"/><path class="cls-25" d="M788.61,827.09c1.65,1,4,1.08,5.24.15s.92-2.5-.73-3.5-4-1.08-5.24-.15S787,826.09,788.61,827.09Z"/><path class="cls-25" d="M800.54,818.22c1.65,1,4,1.08,5.25.15s.92-2.5-.73-3.5-4-1.08-5.25-.15S798.89,817.22,800.54,818.22Z"/><path class="cls-24" d="M874.78,808.52l-22.92-14L677,924.48,695.88,936,852,819.16,875,833l-.17-24.47ZM867,818.37c-1.36.83-3.49-.17-4.76-2.25s-1.19-4.42.17-5.25,3.49.17,4.75,2.24S868.31,817.54,867,818.37Z"/><polygon class="cls-24" points="696.41 965.11 699.93 962.76 699.5 938.22 699.5 938.22 696.27 940.62 696.41 965.11"/><polygon class="cls-3" points="878 806.13 875.59 807.92 874.78 808.52 874.95 832.99 878.15 830.82 878 806.13"/><path class="cls-6" d="M805.51,766.23l.56,24.88,6.32,3.86,18.13-13.47Zm12.58,22.3c-1.36.83-3.49-.17-4.76-2.25s-1.19-4.42.17-5.25,3.49.17,4.75,2.24S819.45,787.7,818.09,788.53Z"/><polygon class="cls-2" points="699.5 938.22 699.5 938.22 695.88 936.01 694.29 937.2 699.5 938.22"/><path class="cls-2" d="M685.27,933.89,677,924.48,851.66,793.89l23.12,14.63.81-.6,2.41-1.79-69.12-42.22-3.23,2.4,24.87,15.18h0l.72.44-17.31,14-1.54-.94L655.67,911.45,630.8,896.26l-3.23,2.4.08.05v-.05ZM823.69,797c1.24-.93,3.59-.87,5.24.14s2,2.58.73,3.51a5.12,5.12,0,0,1-5.24-.15C822.77,799.47,822.44,797.9,823.69,797Zm-11.94,8.87c1.25-.93,3.6-.86,5.25.14s2,2.58.72,3.51-3.59.86-5.24-.15S810.5,806.78,811.75,805.85Zm-11.94,8.87c1.25-.93,3.6-.86,5.25.15s2,2.57.73,3.5-3.6.86-5.25-.15S798.57,815.65,799.81,814.72Zm-11.93,8.87c1.24-.93,3.59-.86,5.24.15s2,2.57.73,3.5-3.59.86-5.24-.15S786.63,824.52,787.88,823.59Zm-11.94,8.87a5.14,5.14,0,0,1,5.25.15c1.65,1,2,2.57.73,3.5s-3.6.86-5.25-.14S774.69,833.39,775.94,832.46ZM764,841.33a5.14,5.14,0,0,1,5.25.15c1.65,1,2,2.58.73,3.5a5.11,5.11,0,0,1-5.25-.14C763.08,843.83,762.76,842.26,764,841.33Zm-11.93,8.88a5.09,5.09,0,0,1,5.24.14c1.65,1,2,2.58.73,3.51s-3.59.86-5.24-.15S750.82,851.13,752.07,850.21Zm-11.94,8.87c1.25-.93,3.6-.86,5.25.14s2,2.58.73,3.51a5.14,5.14,0,0,1-5.25-.15C739.21,861.57,738.88,860,740.13,859.08ZM728.2,868c1.24-.93,3.59-.86,5.24.15s2,2.57.73,3.5-3.6.86-5.25-.15S727,868.88,728.2,868Zm-11.94,8.87c1.25-.93,3.6-.86,5.24.15s2,2.57.73,3.5-3.59.86-5.24-.15S715,877.75,716.26,876.82Zm-11.94,8.87a5.14,5.14,0,0,1,5.25.15c1.65,1,2,2.58.73,3.5s-3.6.86-5.25-.14S703.08,886.62,704.32,885.69Zm-11.93,8.88c1.24-.93,3.59-.87,5.24.14s2,2.58.73,3.5a5.09,5.09,0,0,1-5.24-.14C691.47,897.06,691.14,895.49,692.39,894.57Zm-11.94,8.87c1.25-.93,3.6-.86,5.25.14s2,2.58.72,3.51-3.59.86-5.24-.15S679.2,904.36,680.45,903.44Z"/><polygon class="cls-2" points="851.86 794.52 874.78 808.52 874.78 808.52 874.78 808.52 851.66 793.89 677 924.48 685.27 933.89 696.27 940.62 699.5 938.22 694.29 937.2 695.88 936.01 677 924.48 851.86 794.52"/><polygon class="cls-2" points="874.78 808.52 875.59 807.92 874.78 808.52 874.78 808.52"/><polygon class="cls-2" points="831.24 781.94 830.51 781.5 812.39 794.97 813.93 795.91 831.24 781.94"/><path class="cls-7" d="M862.36,810.87c-1.36.83-1.44,3.18-.17,5.25s3.4,3.08,4.76,2.25,1.43-3.19.16-5.26S863.72,810,862.36,810.87Z"/><path class="cls-7" d="M818.25,783.27c-1.26-2.07-3.39-3.08-4.75-2.24s-1.44,3.18-.17,5.25,3.4,3.08,4.76,2.25S819.52,785.34,818.25,783.27Z"/><path class="cls-24" d="M685.28,933.91l-57.63-35.2v24.65l68.76,41.75-8.47-28.18Zm-44.48-9.66c-1.94.84-4.67-1.14-6.09-4.42s-1-6.63.95-7.47,4.68,1.14,6.1,4.42S642.75,923.41,640.8,924.25Zm41.81,26c-2,.84-4.68-1.14-6.1-4.42s-1-6.63,1-7.47,4.68,1.13,6.1,4.42S684.56,949.43,682.61,950.28Z"/><polygon class="cls-24" points="685.28 933.9 687.94 936.93 696.41 965.11 696.27 940.62 685.28 933.9"/><polygon class="cls-24" points="685.27 933.89 627.65 898.66 627.65 898.71 685.28 933.9 685.27 933.89"/><polygon class="cls-24" points="696.27 940.62 685.27 933.89 685.28 933.9 696.27 940.62"/><polygon class="cls-8" points="816.61 779.63 812.36 780.53 810.74 781.53 815.14 780.53 815.14 780.53 816.61 779.63 816.61 779.63"/><polygon class="cls-9" points="819.53 789.92 815.14 790.9 810.75 786.71 810.75 781.52 815.14 780.53 819.53 784.73 819.53 789.92"/><polygon class="cls-10" points="820.89 783.89 816.61 779.63 815.14 780.53 819.53 784.73 819.53 784.76 820.89 783.92 820.89 783.89"/><polygon class="cls-8" points="819.53 784.76 819.53 789.9 820.89 789.07 820.89 783.92 819.53 784.76"/><ellipse class="cls-11" cx="814.31" cy="786.16" rx="2.2" ry="3.02"/><ellipse class="cls-12" cx="814.08" cy="786.3" rx="2.2" ry="3.02" transform="translate(-8.48 8.87) rotate(-0.62)"/><ellipse class="cls-13" cx="813.84" cy="786.45" rx="2.19" ry="3.02" transform="translate(-16.87 17.84) rotate(-1.24)"/><ellipse class="cls-14" cx="813.61" cy="786.59" rx="2.19" ry="3.02" transform="translate(-25.17 26.9) rotate(-1.87)"/><ellipse class="cls-15" cx="813.38" cy="786.73" rx="2.19" ry="3.02" transform="translate(-33.38 36.04) rotate(-2.49)"/><ellipse class="cls-16" cx="813.15" cy="786.88" rx="2.19" ry="3.02" transform="translate(-41.49 45.27) rotate(-3.11)"/><ellipse class="cls-17" cx="812.92" cy="787.02" rx="2.19" ry="3.02" transform="translate(-49.51 54.58) rotate(-3.73)"/><ellipse class="cls-18" cx="812.69" cy="787.16" rx="2.19" ry="3.02" transform="translate(-57.42 63.97) rotate(-4.35)"/><ellipse class="cls-19" cx="812.45" cy="787.31" rx="2.2" ry="3.02" transform="translate(-65.23 73.44) rotate(-4.98)"/><ellipse class="cls-20" cx="812.22" cy="787.45" rx="2.2" ry="3.02" transform="translate(-72.93 82.98) rotate(-5.6)"/><polygon class="cls-8" points="865.34 809.84 861.09 810.74 859.46 811.74 863.87 810.74 863.87 810.74 865.34 809.84 865.34 809.84"/><polygon class="cls-9" points="868.26 820.13 863.87 821.11 859.48 816.92 859.48 811.73 863.87 810.74 868.26 814.94 868.26 820.13"/><polygon class="cls-10" points="869.62 814.1 865.34 809.84 863.87 810.74 868.26 814.94 868.26 814.97 869.62 814.13 869.62 814.1"/><polygon class="cls-8" points="868.26 814.97 868.26 820.11 869.62 819.28 869.62 814.13 868.26 814.97"/><ellipse class="cls-11" cx="863.03" cy="816.37" rx="2.2" ry="3.02"/><ellipse class="cls-12" cx="862.8" cy="816.51" rx="2.2" ry="3.02" transform="translate(-8.8 9.4) rotate(-0.62)"/><ellipse class="cls-13" cx="862.57" cy="816.66" rx="2.19" ry="3.02" transform="translate(-17.51 18.9) rotate(-1.24)"/><ellipse class="cls-14" cx="862.34" cy="816.8" rx="2.19" ry="3.02" transform="translate(-26.13 28.5) rotate(-1.87)"/><ellipse class="cls-15" cx="862.11" cy="816.94" rx="2.19" ry="3.02" transform="matrix(1, -0.04, 0.04, 1, -34.64, 38.19)"/><ellipse class="cls-16" cx="861.88" cy="817.09" rx="2.19" ry="3.02" transform="translate(-43.06 47.96) rotate(-3.11)"/><ellipse class="cls-17" cx="861.64" cy="817.23" rx="2.19" ry="3.02" transform="translate(-51.37 57.82) rotate(-3.73)"/><ellipse class="cls-18" cx="861.41" cy="817.37" rx="2.19" ry="3.02" transform="translate(-59.57 67.76) rotate(-4.35)"/><ellipse class="cls-19" cx="861.18" cy="817.52" rx="2.2" ry="3.02" transform="translate(-67.67 77.78) rotate(-4.98)"/><ellipse class="cls-20" cx="860.95" cy="817.66" rx="2.2" ry="3.02" transform="translate(-75.65 87.87) rotate(-5.6)"/><polygon class="cls-8" points="816.63 400.44 812.38 401.34 810.75 402.34 815.15 401.34 815.16 401.35 816.63 400.44 816.63 400.44"/><polygon class="cls-9" points="819.54 410.73 815.15 411.72 810.76 407.52 810.76 402.33 815.15 401.34 819.54 405.54 819.54 410.73"/><polygon class="cls-10" points="820.91 404.7 816.63 400.44 815.16 401.35 819.54 405.54 819.54 405.57 820.91 404.74 820.91 404.7"/><polygon class="cls-8" points="819.54 405.57 819.54 410.71 820.91 409.88 820.91 404.74 819.54 405.57"/><ellipse class="cls-11" cx="814.32" cy="406.97" rx="2.2" ry="3.02"/><ellipse class="cls-12" cx="814.09" cy="407.11" rx="2.2" ry="3.02" transform="translate(-4.37 8.85) rotate(-0.62)"/><ellipse class="cls-13" cx="813.86" cy="407.26" rx="2.19" ry="3.02" transform="matrix(1, -0.02, 0.02, 1, -8.64, 17.75)"/><ellipse class="cls-14" cx="813.63" cy="407.4" rx="2.19" ry="3.02" transform="translate(-12.83 26.7) rotate(-1.87)"/><ellipse class="cls-15" cx="813.4" cy="407.54" rx="2.19" ry="3.02" transform="matrix(1, -0.04, 0.04, 1, -16.92, 35.69)"/><ellipse class="cls-16" cx="813.16" cy="407.69" rx="2.19" ry="3.02" transform="translate(-20.92 44.72) rotate(-3.11)"/><ellipse class="cls-17" cx="812.93" cy="407.83" rx="2.19" ry="3.02" transform="translate(-24.82 53.78) rotate(-3.73)"/><ellipse class="cls-18" cx="812.7" cy="407.97" rx="2.19" ry="3.02" transform="translate(-28.63 62.88) rotate(-4.35)"/><ellipse class="cls-19" cx="812.47" cy="408.12" rx="2.2" ry="3.02" transform="translate(-32.34 72.01) rotate(-4.98)"/><ellipse class="cls-20" cx="812.24" cy="408.26" rx="2.2" ry="3.02" transform="translate(-35.95 81.17) rotate(-5.6)"/><polygon class="cls-8" points="865.36 430.65 861.1 431.55 859.48 432.55 863.88 431.55 863.88 431.55 865.36 430.65 865.36 430.65"/><polygon class="cls-9" points="868.27 440.94 863.88 441.93 859.49 437.73 859.49 432.54 863.88 431.55 868.27 435.75 868.27 440.94"/><polygon class="cls-10" points="869.64 434.91 865.36 430.65 863.88 431.55 868.27 435.75 868.27 435.78 869.64 434.94 869.64 434.91"/><polygon class="cls-8" points="868.27 435.78 868.27 440.92 869.64 440.09 869.64 434.94 868.27 435.78"/><ellipse class="cls-11" cx="863.05" cy="437.18" rx="2.2" ry="3.02"/><ellipse class="cls-12" cx="862.82" cy="437.32" rx="2.2" ry="3.02" transform="translate(-4.69 9.38) rotate(-0.62)"/><ellipse class="cls-13" cx="862.59" cy="437.47" rx="2.19" ry="3.02" transform="translate(-9.29 18.81) rotate(-1.24)"/><ellipse class="cls-14" cx="862.35" cy="437.61" rx="2.19" ry="3.02" transform="translate(-13.79 28.3) rotate(-1.87)"/><ellipse class="cls-15" cx="862.12" cy="437.75" rx="2.19" ry="3.02" transform="translate(-18.19 37.83) rotate(-2.49)"/><ellipse class="cls-16" cx="861.89" cy="437.9" rx="2.19" ry="3.02" transform="translate(-22.49 47.4) rotate(-3.11)"/><ellipse class="cls-17" cx="861.66" cy="438.04" rx="2.19" ry="3.02" transform="translate(-26.69 57.02) rotate(-3.73)"/><ellipse class="cls-18" cx="861.43" cy="438.18" rx="2.19" ry="3.02" transform="translate(-30.78 66.67) rotate(-4.35)"/><ellipse class="cls-19" cx="861.2" cy="438.33" rx="2.2" ry="3.02" transform="translate(-34.77 76.35) rotate(-4.98)"/><ellipse class="cls-20" cx="860.96" cy="438.47" rx="2.2" ry="3.02" transform="translate(-38.66 86.07) rotate(-5.6)"/><path class="cls-2" d="M695.87,940.89,18.74,526.83.7,541l675.92,412.8Zm-13.75,3.7a6.09,6.09,0,0,1-5.84-.05c-1.65-1-1.71-2.62-.13-3.6a6.06,6.06,0,0,1,5.84,0C683.64,942,683.7,943.6,682.12,944.59Zm-16.93-10.35a6.08,6.08,0,0,1-5.85,0c-1.65-1-1.71-2.62-.13-3.61a6.11,6.11,0,0,1,5.84,0C666.7,931.64,666.76,933.26,665.19,934.24ZM648.25,923.9a6.09,6.09,0,0,1-5.84,0c-1.65-1-1.71-2.63-.14-3.61a6.06,6.06,0,0,1,5.84,0C649.76,921.3,649.83,922.91,648.25,923.9Zm-16.94-10.34a6.09,6.09,0,0,1-5.83,0c-1.65-1-1.72-2.63-.14-3.62a6.07,6.07,0,0,1,5.83,0C632.82,911,632.89,912.57,631.31,913.56Zm-16.93-10.35a6.06,6.06,0,0,1-5.84,0c-1.65-1-1.71-2.62-.14-3.61a6,6,0,0,1,5.83,0C615.88,900.6,616,902.22,614.38,903.21Zm-16.94-10.34a6,6,0,0,1-5.83,0c-1.65-1-1.72-2.62-.15-3.61a6,6,0,0,1,5.83,0C598.94,890.26,599,891.88,597.44,892.87ZM580.5,882.52a6,6,0,0,1-5.83,0c-1.65-1-1.71-2.63-.15-3.62a6.07,6.07,0,0,1,5.83,0C582,879.91,582.07,881.53,580.5,882.52ZM531,852.27a6,6,0,0,1-5.82,0c-1.65-1-1.72-2.63-.16-3.63a6,6,0,0,1,5.82,0C532.47,849.66,532.54,851.28,531,852.27ZM502,829.15l3.23-2.06,12.82,7.82L514.85,837ZM20.61,540.58a5.74,5.74,0,0,1,5.73,0c1.65,1,1.76,2.66.24,3.68a5.79,5.79,0,0,1-5.73,0C19.2,543.25,19.09,541.6,20.61,540.58Zm26.47,16.17a5.74,5.74,0,0,1,5.73,0c1.66,1,1.76,2.66.25,3.68a5.79,5.79,0,0,1-5.74,0C45.67,559.41,45.56,557.77,47.08,556.75Zm16.22,9.91a5.76,5.76,0,0,1,5.74,0c1.65,1,1.76,2.66.24,3.68a5.79,5.79,0,0,1-5.74,0C61.89,569.32,61.79,567.68,63.3,566.66ZM83.49,579a5.81,5.81,0,0,1,5.75,0c1.65,1,1.75,2.65.23,3.67a5.79,5.79,0,0,1-5.74,0C82.08,581.65,82,580,83.49,579Zm44.15,27a5.83,5.83,0,0,1,5.75,0c1.66,1,1.76,2.65.23,3.67a5.83,5.83,0,0,1-5.75,0C126.22,608.61,126.12,607,127.64,606Zm44.15,27a5.85,5.85,0,0,1,5.76,0c1.65,1,1.75,2.65.22,3.66a5.83,5.83,0,0,1-5.75,0C170.37,635.57,170.27,633.93,171.79,632.91Zm44.15,27a5.87,5.87,0,0,1,5.77,0c1.65,1,1.75,2.65.21,3.66a5.85,5.85,0,0,1-5.76,0C214.51,662.53,214.41,660.89,215.94,659.88Zm44.15,27a5.89,5.89,0,0,1,5.78,0c1.65,1,1.74,2.64.2,3.65a5.87,5.87,0,0,1-5.77,0C258.65,689.48,258.56,687.85,260.09,686.84Zm44.15,27a5.94,5.94,0,0,1,5.79,0c1.65,1,1.73,2.64.19,3.65a5.92,5.92,0,0,1-5.78,0C302.79,716.44,302.7,714.81,304.24,713.8Zm44.15,27a5.91,5.91,0,0,1,5.79,0c1.65,1,1.74,2.64.19,3.64a5.94,5.94,0,0,1-5.79,0C346.93,743.4,346.85,741.77,348.39,740.77Zm44.15,27a6,6,0,0,1,5.8,0c1.65,1,1.73,2.64.18,3.64a5.94,5.94,0,0,1-5.79,0C391.08,770.36,391,768.73,392.54,767.73Zm44.15,27a6,6,0,0,1,5.81,0c1.65,1,1.73,2.64.17,3.64a6,6,0,0,1-5.8,0C435.22,797.32,435.14,795.69,436.69,794.7Zm44.15,27a6,6,0,0,1,5.82,0c1.65,1,1.72,2.63.16,3.63a6,6,0,0,1-5.81,0C479.36,824.28,479.29,822.66,480.84,821.66Zm12.46,13.06,9,.63.25-.16.4-.26,3.37-2.14,2.45,1.5-5.25,3.34a2.24,2.24,0,0,0-.37.28c-.72.63-.81,1.38-.14,1.79a3.35,3.35,0,0,0,2.85-.13,2.63,2.63,0,0,0,.44-.24l5.25-3.34,2.45,1.5-5.25,3.34-.4.26h0c-2.86,1.63-6.64,2-8.67.74-1.65-1-1.63-2.78-.17-4.38l-9.46-.66Z"/><path class="cls-3" d="M676.62,953.81.7,541,0,565.19,676.53,977.67Zm-659-390.19c-.11-2,1.15-2.74,2.8-1.73a7.49,7.49,0,0,1,3.17,5.38c.1,2-1.16,2.74-2.8,1.73A7.45,7.45,0,0,1,17.58,563.62Zm14,8.57c-.1-2,1.15-2.74,2.8-1.73a7.47,7.47,0,0,1,3.17,5.38c.1,2-1.16,2.74-2.8,1.73A7.47,7.47,0,0,1,31.61,572.19Zm14,8.57c-.1-2,1.15-2.74,2.8-1.73a7.47,7.47,0,0,1,3.17,5.38c.1,2-1.16,2.74-2.81,1.73A7.51,7.51,0,0,1,45.64,580.76Zm14,8.57c-.1-2,1.15-2.74,2.8-1.73A7.45,7.45,0,0,1,65.64,593c.1,2-1.16,2.73-2.81,1.73A7.51,7.51,0,0,1,59.67,589.33Zm14,8.57c-.1-2,1.16-2.74,2.8-1.73a7.45,7.45,0,0,1,3.17,5.38c.1,2-1.16,2.73-2.81,1.73A7.48,7.48,0,0,1,73.7,597.9Zm14,8.57c-.1-2,1.16-2.74,2.81-1.73a7.44,7.44,0,0,1,3.16,5.37c.1,2-1.16,2.74-2.81,1.73A7.44,7.44,0,0,1,87.73,606.47Zm14,8.57c-.1-2,1.16-2.74,2.81-1.73a7.44,7.44,0,0,1,3.16,5.37c.1,2-1.16,2.74-2.81,1.73A7.44,7.44,0,0,1,101.76,615Zm14,8.56c-.1-2,1.16-2.73,2.81-1.72a7.41,7.41,0,0,1,3.16,5.37c.1,2-1.16,2.74-2.81,1.73A7.46,7.46,0,0,1,115.79,623.6Zm14,8.57c-.1-2,1.16-2.73,2.81-1.72a7.41,7.41,0,0,1,3.16,5.37c.1,2-1.16,2.74-2.81,1.73A7.46,7.46,0,0,1,129.82,632.17Zm14,8.57c-.09-2,1.16-2.73,2.81-1.73a7.45,7.45,0,0,1,3.16,5.38c.1,2-1.16,2.74-2.81,1.73A7.48,7.48,0,0,1,143.85,640.74Zm14.51,8.86c-.1-2,1.16-2.73,2.81-1.73a7.48,7.48,0,0,1,3.16,5.38c.09,2-1.16,2.73-2.81,1.73A7.45,7.45,0,0,1,158.36,649.6Zm7.65,4.68c-.09-2,1.17-2.74,2.82-1.73a7.48,7.48,0,0,1,3.16,5.38c.09,2-1.17,2.73-2.82,1.72A7.47,7.47,0,0,1,166,654.28Zm7.66,4.68c-.09-2,1.17-2.74,2.82-1.73a7.46,7.46,0,0,1,3.16,5.37c.09,2-1.17,2.74-2.82,1.73A7.46,7.46,0,0,1,173.67,659Zm7.66,4.67c-.09-2,1.17-2.73,2.82-1.72a7.4,7.4,0,0,1,3.15,5.37c.1,2-1.16,2.73-2.81,1.73A7.48,7.48,0,0,1,181.33,663.63Zm7.66,4.68c-.09-2,1.17-2.73,2.82-1.73A7.47,7.47,0,0,1,195,672c.1,2-1.16,2.73-2.81,1.72A7.44,7.44,0,0,1,189,668.31Zm7.66,4.68c-.1-2,1.17-2.74,2.81-1.73a7.45,7.45,0,0,1,3.16,5.38c.1,2-1.16,2.73-2.81,1.72A7.43,7.43,0,0,1,196.65,673Zm7.66,4.68c-.1-2,1.16-2.74,2.81-1.73a7.43,7.43,0,0,1,3.16,5.37c.09,2-1.17,2.74-2.82,1.73A7.45,7.45,0,0,1,204.31,677.67Zm7.66,4.67c-.1-2,1.16-2.73,2.81-1.72a7.41,7.41,0,0,1,3.16,5.37c.09,2-1.17,2.73-2.82,1.72A7.4,7.4,0,0,1,212,682.34Zm7.66,4.68c-.1-2,1.16-2.73,2.81-1.73a7.48,7.48,0,0,1,3.16,5.38c.09,2-1.17,2.73-2.82,1.72A7.42,7.42,0,0,1,219.63,687Zm7.65,4.68c-.09-2,1.17-2.73,2.82-1.73a7.48,7.48,0,0,1,3.16,5.37c.09,2-1.17,2.74-2.82,1.73A7.46,7.46,0,0,1,227.28,691.7Zm7.66,4.67c-.09-2,1.17-2.73,2.82-1.72a7.46,7.46,0,0,1,3.16,5.37c.09,2-1.17,2.73-2.82,1.73A7.48,7.48,0,0,1,234.94,696.37Zm7.66,4.68c-.09-2,1.17-2.73,2.82-1.72a7.42,7.42,0,0,1,3.15,5.37c.1,2-1.17,2.73-2.81,1.72A7.41,7.41,0,0,1,242.6,701.05Zm7.66,4.68c-.09-2,1.17-2.73,2.82-1.72a7.4,7.4,0,0,1,3.15,5.37c.09,2-1.17,2.73-2.82,1.72A7.42,7.42,0,0,1,250.26,705.73Zm7.66,4.68c-.09-2,1.17-2.73,2.82-1.73a7.44,7.44,0,0,1,3.15,5.37c.09,2-1.17,2.73-2.82,1.73A7.42,7.42,0,0,1,257.92,710.41Zm7.66,4.67c-.09-2,1.17-2.73,2.82-1.72a7.42,7.42,0,0,1,3.15,5.37c.09,2-1.17,2.73-2.82,1.72A7.4,7.4,0,0,1,265.58,715.08Zm7.66,4.68c-.1-2,1.17-2.73,2.82-1.72a7.42,7.42,0,0,1,3.15,5.37c.09,2-1.17,2.73-2.82,1.72A7.42,7.42,0,0,1,273.24,719.76Zm7.65,4.68c-.09-2,1.18-2.73,2.83-1.72a7.43,7.43,0,0,1,3.15,5.37c.09,1.95-1.17,2.73-2.82,1.72A7.46,7.46,0,0,1,280.89,724.44Zm7.66,4.68c-.09-2,1.18-2.73,2.82-1.73a7.48,7.48,0,0,1,3.16,5.37c.09,2-1.18,2.73-2.83,1.73A7.44,7.44,0,0,1,288.55,729.12Zm7.66,4.67c-.09-1.95,1.17-2.73,2.82-1.72a7.42,7.42,0,0,1,3.15,5.37c.09,2-1.17,2.73-2.82,1.72A7.4,7.4,0,0,1,296.21,733.79Zm7.66,4.68c-.09-2,1.17-2.73,2.82-1.72a7.42,7.42,0,0,1,3.15,5.37c.09,2-1.17,2.73-2.82,1.72A7.42,7.42,0,0,1,303.87,738.47Zm7.66,4.68c-.09-2,1.17-2.73,2.82-1.72a7.4,7.4,0,0,1,3.15,5.37c.09,2-1.17,2.72-2.82,1.72A7.42,7.42,0,0,1,311.53,743.15Zm15.11,9.23c-.08-2,1.18-2.73,2.83-1.72a7.42,7.42,0,0,1,3.15,5.37c.09,2-1.18,2.72-2.83,1.72A7.42,7.42,0,0,1,326.64,752.38Zm15.12,9.23c-.09-2,1.18-2.73,2.83-1.72a7.41,7.41,0,0,1,3.14,5.37c.09,2-1.17,2.73-2.82,1.72A7.42,7.42,0,0,1,341.76,761.61Zm15.12,9.23c-.09-2,1.17-2.72,2.82-1.72a7.42,7.42,0,0,1,3.15,5.37c.09,2-1.18,2.73-2.83,1.72A7.41,7.41,0,0,1,356.88,770.84ZM372,780.08c-.09-2,1.18-2.73,2.83-1.72a7.4,7.4,0,0,1,3.15,5.36c.08,2-1.18,2.73-2.83,1.72A7.42,7.42,0,0,1,372,780.08Zm15.12,9.23c-.09-2,1.18-2.73,2.83-1.72a7.4,7.4,0,0,1,3.14,5.36c.09,2-1.18,2.73-2.83,1.72A7.4,7.4,0,0,1,387.11,789.31Zm15.11,9.23c-.08-2,1.18-2.73,2.83-1.72a7.42,7.42,0,0,1,3.15,5.37c.08,1.95-1.18,2.72-2.83,1.71A7.4,7.4,0,0,1,402.22,798.54Zm15.12,9.23c-.09-2,1.18-2.72,2.83-1.72a7.37,7.37,0,0,1,3.14,5.37c.09,2-1.18,2.72-2.83,1.71A7.37,7.37,0,0,1,417.34,807.77ZM432.46,817c-.09-2,1.18-2.72,2.83-1.71a7.37,7.37,0,0,1,3.14,5.36c.08,2-1.18,2.72-2.83,1.71A7.34,7.34,0,0,1,432.46,817Zm15.11,9.23c-.08-2,1.18-2.72,2.83-1.71a7.37,7.37,0,0,1,3.14,5.36c.09,2-1.18,2.72-2.83,1.72A7.41,7.41,0,0,1,447.57,826.23Zm15.12,9.24c-.09-2,1.18-2.73,2.83-1.72a7.37,7.37,0,0,1,3.14,5.36c.08,2-1.18,2.72-2.83,1.72A7.37,7.37,0,0,1,462.69,835.47Zm15.11,9.23c-.08-2,1.19-2.72,2.84-1.72a7.4,7.4,0,0,1,3.14,5.36c.08,2-1.19,2.73-2.84,1.72A7.4,7.4,0,0,1,477.8,844.7Zm15.12,9.23c-.08-1.95,1.19-2.72,2.84-1.71a7.36,7.36,0,0,1,3.13,5.36c.09,1.95-1.18,2.72-2.83,1.71A7.37,7.37,0,0,1,492.92,853.93ZM508,863.16c-.09-1.95,1.18-2.72,2.83-1.71a7.37,7.37,0,0,1,3.14,5.36c.08,2-1.19,2.72-2.84,1.71A7.36,7.36,0,0,1,508,863.16Zm15.11,9.23c-.08-1.95,1.19-2.72,2.84-1.71a7.36,7.36,0,0,1,3.13,5.36c.09,2-1.18,2.72-2.83,1.71A7.37,7.37,0,0,1,523.15,872.39Zm15.12,9.23c-.08-2,1.19-2.71,2.84-1.71a7.36,7.36,0,0,1,3.13,5.36c.08,2-1.19,2.72-2.84,1.71A7.32,7.32,0,0,1,538.27,881.62Zm15.11,9.24c-.08-2,1.19-2.72,2.84-1.72a7.4,7.4,0,0,1,3.14,5.36c.08,2-1.19,2.72-2.84,1.71A7.33,7.33,0,0,1,553.38,890.86Zm15.12,9.23c-.08-2,1.19-2.72,2.84-1.71a7.32,7.32,0,0,1,3.13,5.35c.08,2-1.19,2.72-2.84,1.71A7.32,7.32,0,0,1,568.5,900.09Zm15.11,9.23c-.07-2,1.2-2.72,2.85-1.71a7.36,7.36,0,0,1,3.13,5.36c.08,1.95-1.2,2.71-2.84,1.71A7.37,7.37,0,0,1,583.61,909.32Zm15.12,9.23c-.08-1.95,1.19-2.72,2.84-1.71a7.36,7.36,0,0,1,3.13,5.36c.08,1.95-1.19,2.71-2.84,1.71A7.36,7.36,0,0,1,598.73,918.55Zm15.12,9.23c-.08-1.95,1.19-2.71,2.84-1.71a7.36,7.36,0,0,1,3.13,5.36c.08,2-1.2,2.72-2.84,1.71A7.36,7.36,0,0,1,613.85,927.78ZM629,937c-.08-2,1.2-2.71,2.85-1.7a7.32,7.32,0,0,1,3.13,5.35c.07,2-1.2,2.72-2.85,1.71A7.36,7.36,0,0,1,629,937Zm15.12,9.24c-.08-2,1.2-2.72,2.84-1.71a7.34,7.34,0,0,1,3.13,5.35c.08,2-1.2,2.72-2.85,1.71A7.36,7.36,0,0,1,644.08,946.25Zm15.11,9.23c-.07-2,1.2-2.72,2.85-1.71a7.36,7.36,0,0,1,3.13,5.36c.07,1.94-1.2,2.71-2.85,1.7A7.34,7.34,0,0,1,659.19,955.48Z"/><polygon class="cls-4" points="676.62 953.81 695.87 940.89 695.91 964.43 676.53 977.67 676.62 953.81"/><polygon class="cls-25" points="714.91 912.43 722.11 919.32 714.91 912.43 714.91 912.43 714.91 912.43"/><polygon class="cls-23" points="714.91 912.43 714.91 912.43 714.91 912.43 714.91 912.43 718.42 910.29 708.28 912.43 704.4 914.8 704.44 914.79 704.44 914.79 714.91 912.43"/><path class="cls-22" d="M725.38,922.52v-.08l-3.27-3.12-7.2-6.89-10.47,2.36v12.37l10.47,10,10.47-2.36v0h0Zm-5,9.45-.3.15a3.5,3.5,0,0,1-.3.24c-2.58,1.66-6.85-.37-9.56-4.54s-2.8-8.91-.23-10.58c.11-.07.23-.12.34-.18l.26-.21c2.25-1.45,6.27.75,9,4.92S722.65,930.51,720.4,932Z"/><polygon class="cls-22" points="714.91 912.43 704.44 914.79 704.44 914.79 714.91 912.43 714.91 912.43"/><polygon class="cls-24" points="718.42 910.29 714.91 912.43 722.11 919.32 725.38 922.44 725.38 922.51 728.63 920.52 728.63 920.44 718.42 910.29"/><polygon class="cls-24" points="725.38 922.51 725.38 922.51 725.38 922.44 722.11 919.32 725.38 922.44 725.38 922.51"/><polygon class="cls-23" points="725.38 934.78 728.63 932.78 728.63 920.52 725.38 922.51 725.38 934.78"/><rect class="cls-23" x="725.38" y="922.52" height="12.26"/><path class="cls-21" d="M711.43,927.05c-2.59-4-3-8.35-1.08-10-.11.06-.23.11-.34.18-2.57,1.67-2.47,6.4.23,10.58s7,6.2,9.56,4.54a3.5,3.5,0,0,0,.3-.24C717.81,933.23,714,931.05,711.43,927.05Z"/><path class="cls-8" d="M594.3,948.09c-4.39-7.21-11-10.72-15.45-7.23l-.25.22c4.23-3,11,.24,15.3,7.32s4.52,15.37.56,18.78c.09-.06.19-.11.28-.18C599.22,963.51,598.68,955.31,594.3,948.09Z"/><path class="cls-21" d="M578.67,960.25c4.38,7.21,11.35,10.41,15.56,7.14.08-.06.15-.14.23-.21C590,970.35,583,967.32,578.67,960.25Z"/><path class="cls-21" d="M578.6,941.08l-.26.17c-4.21,3.27-4.06,11.78.33,19C574.37,953.17,574.37,944.7,578.6,941.08Z"/><path class="cls-21" d="M593.9,948.4c-4.3-7.08-11.07-10.28-15.3-7.32-4.23,3.62-4.23,12.09.07,19.17s11.29,10.1,15.79,6.93C598.42,963.77,598.21,955.47,593.9,948.4Zm-3.27,13.07c-2.3,1.79-6.11,0-8.51-3.91s-2.48-8.6-.18-10.38,6.11,0,8.51,3.9S592.93,959.68,590.63,961.47Z"/><rect class="cls-26" x="544.41" y="970.96" width="1.44" height="16.84" transform="translate(-430.77 428.04) rotate(-31.44)"/><rect class="cls-26" x="549.31" y="967.96" width="1.44" height="16.84" transform="translate(-428.49 430.16) rotate(-31.44)"/><rect class="cls-26" x="546.86" y="969.46" width="1.44" height="16.84" transform="translate(-429.63 429.1) rotate(-31.44)"/><rect class="cls-26" x="548.08" y="968.71" width="1.44" height="16.84" transform="translate(-429.06 429.63) rotate(-31.44)"/><rect class="cls-26" x="541.96" y="972.46" width="1.44" height="16.84" transform="translate(-431.91 426.98) rotate(-31.44)"/><rect class="cls-26" x="545.63" y="970.21" width="1.44" height="16.84" transform="translate(-430.2 428.57) rotate(-31.44)"/><rect class="cls-26" x="543.18" y="971.71" width="1.44" height="16.84" transform="translate(-431.34 427.51) rotate(-31.44)"/><rect class="cls-22" x="513.22" y="982.57" width="25.84" height="16.84" transform="translate(-439.61 419.84) rotate(-31.44)"/><rect class="cls-26" x="537.06" y="975.45" width="1.44" height="16.84" transform="translate(-434.19 424.87) rotate(-31.44)"/><rect class="cls-26" x="539.51" y="973.96" width="1.44" height="16.84" transform="translate(-433.05 425.93) rotate(-31.44)"/><rect class="cls-26" x="540.73" y="973.21" width="1.44" height="16.84" transform="translate(-432.48 426.46) rotate(-31.44)"/><rect class="cls-26" x="538.28" y="974.7" width="1.44" height="16.84" transform="translate(-433.62 425.4) rotate(-31.44)"/><rect class="cls-26" x="557.88" y="962.72" width="1.44" height="16.84" transform="translate(-424.5 433.86) rotate(-31.44)"/><rect class="cls-26" x="561.56" y="960.48" width="1.44" height="16.84" transform="translate(-422.79 435.45) rotate(-31.44)"/><rect class="cls-26" x="560.33" y="961.23" width="1.44" height="16.84" transform="translate(-423.36 434.92) rotate(-31.44)"/><rect class="cls-26" x="562.78" y="959.73" width="1.44" height="16.84" transform="translate(-422.22 435.98) rotate(-31.44)"/><rect class="cls-26" x="559.11" y="961.97" width="1.44" height="16.84" transform="translate(-423.93 434.39) rotate(-31.44)"/><path class="cls-26" d="M568.5,975l.62-.37s.63-1.31-3.39-7.93-5.39-6.44-5.39-6.44l-.62.38Z"/><rect class="cls-26" x="555.43" y="964.22" width="1.44" height="16.84" transform="translate(-425.64 432.8) rotate(-31.44)"/><rect class="cls-26" x="552.98" y="965.72" width="1.44" height="16.84" transform="translate(-426.78 431.75) rotate(-31.44)"/><rect class="cls-26" x="551.76" y="966.47" width="1.44" height="16.84" transform="translate(-427.35 431.22) rotate(-31.44)"/><rect class="cls-26" x="550.53" y="967.22" width="1.44" height="16.84" transform="translate(-427.92 430.69) rotate(-31.44)"/><rect class="cls-26" x="554.21" y="964.97" width="1.44" height="16.84" transform="translate(-426.21 432.28) rotate(-31.44)"/><rect class="cls-26" x="556.66" y="963.47" width="1.44" height="16.84" transform="translate(-425.07 433.33) rotate(-31.44)"/><polygon class="cls-23" points="518.95 985.07 511.03 986.75 508.01 988.6 516.21 986.75 516.22 986.75 518.95 985.07 518.95 985.07"/><polygon class="cls-22" points="524.38 1004.22 516.21 1006.07 508.04 998.25 508.04 988.59 516.21 986.75 524.38 994.56 524.38 1004.22"/><polygon class="cls-24" points="526.93 993 518.95 985.07 516.22 986.75 524.38 994.56 524.38 994.62 526.93 993.07 526.93 993"/><polygon class="cls-23" points="524.38 994.62 524.38 1004.2 526.93 1002.64 526.93 993.07 524.38 994.62"/><path class="cls-8" d="M644.91,969.06c-4.39-7.21-11-10.72-15.45-7.23l-.25.22c4.23-2.95,11,.24,15.3,7.32s4.52,15.37.56,18.78c.09-.06.19-.11.28-.18C649.83,984.48,649.29,976.28,644.91,969.06Z"/><path class="cls-21" d="M629.28,981.22c4.38,7.21,11.35,10.41,15.56,7.14.08-.06.15-.14.23-.21C640.57,991.32,633.58,988.29,629.28,981.22Z"/><path class="cls-21" d="M629.21,962.05l-.26.17c-4.21,3.27-4.06,11.78.33,19C625,974.14,625,965.67,629.21,962.05Z"/><path class="cls-21" d="M644.51,969.37c-4.3-7.08-11.07-10.27-15.3-7.32-4.23,3.62-4.24,12.09.07,19.17s11.29,10.1,15.79,6.93C649,984.74,648.81,976.44,644.51,969.37Zm-3.27,13.07c-2.3,1.79-6.11,0-8.51-3.91s-2.48-8.59-.18-10.38,6.11,0,8.51,3.9S643.54,980.65,641.24,982.44Z"/><rect class="cls-26" x="594.81" y="996.3" width="1.44" height="16.84" transform="translate(-436.59 458.05) rotate(-31.44)"/><rect class="cls-26" x="599.71" y="993.3" width="1.44" height="16.84" transform="translate(-434.31 460.16) rotate(-31.44)"/><rect class="cls-26" x="597.26" y="994.8" width="1.44" height="16.84" transform="translate(-435.45 459.11) rotate(-31.44)"/><rect class="cls-26" x="598.49" y="994.05" width="1.44" height="16.84" transform="translate(-434.88 459.64) rotate(-31.44)"/><rect class="cls-26" x="592.36" y="997.79" width="1.44" height="16.84" transform="translate(-437.73 456.99) rotate(-31.44)"/><rect class="cls-26" x="596.04" y="995.55" width="1.44" height="16.84" transform="translate(-436.02 458.58) rotate(-31.44)"/><rect class="cls-26" x="593.59" y="997.05" width="1.44" height="16.84" transform="translate(-437.16 457.52) rotate(-31.44)"/><rect class="cls-22" x="563.62" y="1007.9" width="25.84" height="16.84" transform="translate(-445.43 449.85) rotate(-31.44)"/><rect class="cls-26" x="587.46" y="1000.79" width="1.44" height="16.84" transform="translate(-440.01 454.87) rotate(-31.44)"/><rect class="cls-26" x="589.91" y="999.29" width="1.44" height="16.84" transform="translate(-438.87 455.93) rotate(-31.44)"/><rect class="cls-26" x="591.14" y="998.54" width="1.44" height="16.84" transform="translate(-438.3 456.46) rotate(-31.44)"/><rect class="cls-26" x="588.69" y="1000.04" width="1.44" height="16.84" transform="translate(-439.44 455.4) rotate(-31.44)"/><rect class="cls-26" x="608.29" y="988.06" width="1.44" height="16.84" transform="translate(-430.31 463.87) rotate(-31.44)"/><rect class="cls-26" x="611.96" y="985.81" width="1.44" height="16.84" transform="translate(-428.6 465.45) rotate(-31.44)"/><rect class="cls-26" x="610.74" y="986.56" width="1.44" height="16.84" transform="translate(-429.17 464.93) rotate(-31.44)"/><rect class="cls-26" x="613.19" y="985.06" width="1.44" height="16.84" transform="translate(-428.03 465.98) rotate(-31.44)"/><rect class="cls-26" x="609.51" y="987.31" width="1.44" height="16.84" transform="translate(-429.74 464.4) rotate(-31.44)"/><path class="cls-26" d="M618.91,1000.29l.61-.37s.63-1.32-3.38-7.93-5.4-6.44-5.4-6.44l-.61.38Z"/><rect class="cls-26" x="605.84" y="989.56" width="1.44" height="16.84" transform="translate(-431.45 462.81) rotate(-31.44)"/><rect class="cls-26" x="603.39" y="991.05" width="1.44" height="16.84" transform="translate(-432.59 461.75) rotate(-31.44)"/><rect class="cls-26" x="602.16" y="991.8" width="1.44" height="16.84" transform="translate(-433.16 461.22) rotate(-31.44)"/><rect class="cls-26" x="600.94" y="992.55" width="1.44" height="16.84" transform="translate(-433.73 460.69) rotate(-31.44)"/><rect class="cls-26" x="604.61" y="990.31" width="1.44" height="16.84" transform="translate(-432.02 462.28) rotate(-31.44)"/><rect class="cls-26" x="607.06" y="988.81" width="1.44" height="16.84" transform="translate(-430.88 463.34) rotate(-31.44)"/><polygon class="cls-23" points="569.36 1010.41 561.44 1012.08 558.41 1013.94 566.61 1012.08 566.62 1012.09 569.36 1010.41 569.36 1010.41"/><polygon class="cls-22" points="574.79 1029.56 566.61 1031.4 558.44 1023.58 558.44 1013.92 566.61 1012.08 574.79 1019.9 574.79 1029.56"/><polygon class="cls-24" points="577.33 1018.34 569.36 1010.41 566.62 1012.09 574.79 1019.9 574.79 1019.96 577.33 1018.4 577.33 1018.34"/><polygon class="cls-23" points="574.79 1019.96 574.79 1029.54 577.33 1027.98 577.33 1018.4 574.79 1019.96"/></g></svg>