<svg xmlns="http://www.w3.org/2000/svg" viewBox="0 0 866.69 965.11"><defs><style>.cls-1{fill:#ffb522;opacity:0.27;}.cls-2{fill:#424242;}.cls-3{fill:#606060;}.cls-4{fill:#898989;}.cls-5{fill:#303030;}.cls-6{fill:#515151;}.cls-7{fill:#fff;}.cls-8{fill:#7a7a7a;}.cls-9{fill:#999;}.cls-10,.cls-11{fill:#8e8e8e;}.cls-11,.cls-12,.cls-13,.cls-14,.cls-15,.cls-16,.cls-17,.cls-18,.cls-19,.cls-20,.cls-26{stroke:#fff;stroke-miterlimit:10;}.cls-11,.cls-12,.cls-13,.cls-14,.cls-15,.cls-16,.cls-17,.cls-18,.cls-19,.cls-20{stroke-width:0.05px;}.cls-12{fill:#919191;}.cls-13{fill:#949494;}.cls-14{fill:#979697;}.cls-15{fill:#9a999a;}.cls-16{fill:#9c9c9c;}.cls-17{fill:#9f9f9f;}.cls-18{fill:#a2a1a2;}.cls-19{fill:#a5a4a5;}.cls-20{fill:#a8a7a8;}.cls-21{fill:#9b9a9b;}.cls-22,.cls-26{fill:#7f7f7f;}.cls-23{fill:#545454;}.cls-24{fill:#6b6b6b;}.cls-25{fill:none;}.cls-26{stroke-width:0.05px;}.cls-27{fill:#c92d2d;}</style></defs><g id="Layer_2" data-name="Layer 2"><circle class="cls-1" cx="662.93" cy="406.7" r="203.77"/><path class="cls-2" d="M695.87,793.2,18.74,379.14.7,393.32l675.92,412.8Zm-13.75,3.69a6.06,6.06,0,0,1-5.84,0c-1.65-1-1.71-2.63-.13-3.61a6.11,6.11,0,0,1,5.84,0C683.64,794.29,683.7,795.91,682.12,796.89Zm-16.93-10.34a6.13,6.13,0,0,1-5.85,0c-1.65-1-1.71-2.63-.13-3.61a6.06,6.06,0,0,1,5.84,0C666.7,784,666.76,785.56,665.19,786.55ZM648.25,776.2a6.06,6.06,0,0,1-5.84,0c-1.65-1-1.71-2.62-.14-3.61a6.09,6.09,0,0,1,5.84,0C649.76,773.6,649.83,775.22,648.25,776.2Zm-16.94-10.34a6,6,0,0,1-5.83,0c-1.65-1-1.72-2.62-.14-3.61a6,6,0,0,1,5.83,0C632.82,763.25,632.89,764.87,631.31,765.86Zm-16.93-10.34a6.09,6.09,0,0,1-5.84,0c-1.65-1-1.71-2.63-.14-3.62a6.07,6.07,0,0,1,5.83,0C615.88,752.91,616,754.53,614.38,755.52Zm-16.94-10.35a6.07,6.07,0,0,1-5.83,0c-1.65-1-1.72-2.63-.15-3.62a6.07,6.07,0,0,1,5.83,0C598.94,742.56,599,744.18,597.44,745.17ZM580.5,734.83a6,6,0,0,1-5.83,0c-1.65-1-1.71-2.62-.15-3.61a6,6,0,0,1,5.83,0C582,732.22,582.07,733.84,580.5,734.83ZM531,704.58a6,6,0,0,1-5.82,0c-1.65-1-1.72-2.63-.16-3.62a6,6,0,0,1,5.82,0C532.47,702,532.54,703.59,531,704.58ZM502,681.45l3.23-2.06,12.82,7.83-3.24,2.06ZM20.61,392.88a5.79,5.79,0,0,1,5.73,0c1.65,1,1.76,2.66.24,3.68a5.74,5.74,0,0,1-5.73,0C19.2,395.55,19.09,393.91,20.61,392.88Zm26.47,16.17a5.77,5.77,0,0,1,5.73,0c1.66,1,1.76,2.65.25,3.67a5.81,5.81,0,0,1-5.74,0C45.67,411.72,45.56,410.07,47.08,409.05ZM63.3,419a5.79,5.79,0,0,1,5.74,0c1.65,1,1.76,2.65.24,3.67a5.79,5.79,0,0,1-5.74,0C61.89,421.62,61.79,420,63.3,419Zm20.19,12.33a5.81,5.81,0,0,1,5.75,0c1.65,1,1.75,2.65.23,3.67a5.79,5.79,0,0,1-5.74,0C82.08,434,82,432.31,83.49,431.29Zm44.15,27a5.83,5.83,0,0,1,5.75,0c1.66,1,1.76,2.65.23,3.66a5.81,5.81,0,0,1-5.75,0C126.22,460.91,126.12,459.27,127.64,458.25Zm44.15,27a5.83,5.83,0,0,1,5.76,0c1.65,1,1.75,2.64.22,3.66a5.83,5.83,0,0,1-5.75,0C170.37,487.87,170.27,486.23,171.79,485.22Zm44.15,27a5.9,5.9,0,0,1,5.77,0c1.65,1,1.75,2.65.21,3.66a5.85,5.85,0,0,1-5.76,0C214.51,514.83,214.41,513.19,215.94,512.18Zm44.15,27a5.92,5.92,0,0,1,5.78,0c1.65,1,1.74,2.65.2,3.66a5.9,5.9,0,0,1-5.77,0C258.65,541.79,258.56,540.15,260.09,539.15Zm44.15,27a5.91,5.91,0,0,1,5.79,0c1.65,1,1.73,2.64.19,3.65a5.92,5.92,0,0,1-5.78,0C302.79,568.75,302.7,567.12,304.24,566.11Zm44.15,27a5.94,5.94,0,0,1,5.79,0c1.65,1,1.74,2.64.19,3.64a5.94,5.94,0,0,1-5.79,0C346.93,595.71,346.85,594.08,348.39,593.07Zm44.15,27a5.93,5.93,0,0,1,5.8,0c1.65,1,1.73,2.64.18,3.64a5.94,5.94,0,0,1-5.79,0C391.08,622.67,391,621,392.54,620Zm44.15,27a6,6,0,0,1,5.81,0c1.65,1,1.73,2.63.17,3.63a6,6,0,0,1-5.8,0C435.22,649.62,435.14,648,436.69,647Zm44.15,27a6,6,0,0,1,5.82,0c1.65,1,1.72,2.63.16,3.62a6,6,0,0,1-5.81,0C479.36,676.58,479.29,675,480.84,674ZM493.3,687l9,.64.25-.16.4-.26,3.37-2.15,2.45,1.5-5.25,3.35a2.21,2.21,0,0,0-.37.27c-.72.63-.81,1.38-.14,1.79a3.31,3.31,0,0,0,2.85-.13,2.6,2.6,0,0,0,.44-.23l5.25-3.35,2.45,1.5-5.25,3.34-.4.26h0c-2.86,1.64-6.64,2-8.67.75-1.65-1-1.63-2.78-.17-4.39l-9.46-.66Z"/><path class="cls-3" d="M676.62,806.12.7,393.32,0,417.49,676.53,830Zm-659-390.19c-.11-2,1.15-2.74,2.8-1.74a7.49,7.49,0,0,1,3.17,5.38c.1,2-1.16,2.74-2.8,1.74A7.49,7.49,0,0,1,17.58,415.93Zm14,8.57c-.1-2,1.15-2.74,2.8-1.74a7.49,7.49,0,0,1,3.17,5.38c.1,2-1.16,2.74-2.8,1.74A7.49,7.49,0,0,1,31.61,424.5Zm14,8.56c-.1-2,1.15-2.74,2.8-1.73a7.49,7.49,0,0,1,3.17,5.38c.1,2-1.16,2.74-2.81,1.73A7.47,7.47,0,0,1,45.64,433.06Zm14,8.57c-.1-2,1.15-2.74,2.8-1.73a7.49,7.49,0,0,1,3.17,5.38c.1,2-1.16,2.74-2.81,1.73A7.49,7.49,0,0,1,59.67,441.63Zm14,8.57c-.1-2,1.16-2.74,2.8-1.73a7.49,7.49,0,0,1,3.17,5.38c.1,2-1.16,2.74-2.81,1.73A7.46,7.46,0,0,1,73.7,450.2Zm14,8.57c-.1-2,1.16-2.74,2.81-1.73a7.48,7.48,0,0,1,3.16,5.38c.1,2-1.16,2.74-2.81,1.73A7.48,7.48,0,0,1,87.73,458.77Zm14,8.57c-.1-2,1.16-2.74,2.81-1.73a7.48,7.48,0,0,1,3.16,5.38c.1,2-1.16,2.73-2.81,1.73A7.48,7.48,0,0,1,101.76,467.34Zm14,8.57c-.1-2,1.16-2.74,2.81-1.73a7.43,7.43,0,0,1,3.16,5.38c.1,2-1.16,2.73-2.81,1.73A7.48,7.48,0,0,1,115.79,475.91Zm14,8.57c-.1-2,1.16-2.74,2.81-1.73a7.43,7.43,0,0,1,3.16,5.38c.1,2-1.16,2.73-2.81,1.72A7.44,7.44,0,0,1,129.82,484.48Zm14,8.57c-.09-2,1.16-2.74,2.81-1.73a7.43,7.43,0,0,1,3.16,5.37c.1,2-1.16,2.74-2.81,1.73A7.46,7.46,0,0,1,143.85,493.05Zm14.51,8.86c-.1-2,1.16-2.74,2.81-1.73a7.46,7.46,0,0,1,3.16,5.37c.09,2-1.16,2.74-2.81,1.73A7.43,7.43,0,0,1,158.36,501.91Zm7.65,4.67c-.09-2,1.17-2.73,2.82-1.72a7.44,7.44,0,0,1,3.16,5.37c.09,2-1.17,2.73-2.82,1.73A7.51,7.51,0,0,1,166,506.58Zm7.66,4.68c-.09-2,1.17-2.73,2.82-1.73a7.48,7.48,0,0,1,3.16,5.38c.09,2-1.17,2.73-2.82,1.72A7.44,7.44,0,0,1,173.67,511.26Zm7.66,4.68c-.09-2,1.17-2.74,2.82-1.73a7.42,7.42,0,0,1,3.15,5.38c.1,2-1.16,2.73-2.81,1.72A7.46,7.46,0,0,1,181.33,515.94Zm7.66,4.67c-.09-2,1.17-2.73,2.82-1.72a7.45,7.45,0,0,1,3.15,5.37c.1,2-1.16,2.74-2.81,1.73A7.46,7.46,0,0,1,189,520.61Zm7.66,4.68c-.1-2,1.17-2.73,2.81-1.72a7.41,7.41,0,0,1,3.16,5.37c.1,2-1.16,2.73-2.81,1.73A7.45,7.45,0,0,1,196.65,525.29Zm7.66,4.68c-.1-2,1.16-2.73,2.81-1.73a7.45,7.45,0,0,1,3.16,5.38c.09,2-1.17,2.73-2.82,1.72A7.45,7.45,0,0,1,204.31,530Zm7.66,4.68c-.1-2,1.16-2.74,2.81-1.73a7.43,7.43,0,0,1,3.16,5.37c.09,2-1.17,2.74-2.82,1.73A7.42,7.42,0,0,1,212,534.65Zm7.66,4.67c-.1-2,1.16-2.73,2.81-1.72A7.46,7.46,0,0,1,225.6,543c.09,2-1.17,2.73-2.82,1.73A7.44,7.44,0,0,1,219.63,539.32Zm7.65,4.68c-.09-2,1.17-2.73,2.82-1.72a7.44,7.44,0,0,1,3.16,5.37c.09,2-1.17,2.73-2.82,1.72A7.44,7.44,0,0,1,227.28,544Zm7.66,4.68c-.09-2,1.17-2.73,2.82-1.73a7.48,7.48,0,0,1,3.16,5.38c.09,2-1.17,2.73-2.82,1.72A7.46,7.46,0,0,1,234.94,548.68Zm7.66,4.68c-.09-2,1.17-2.74,2.82-1.73a7.42,7.42,0,0,1,3.15,5.37c.1,2-1.17,2.73-2.81,1.73A7.43,7.43,0,0,1,242.6,553.36Zm7.66,4.67c-.09-2,1.17-2.73,2.82-1.72a7.42,7.42,0,0,1,3.15,5.37c.09,2-1.17,2.73-2.82,1.72A7.4,7.4,0,0,1,250.26,558Zm7.66,4.68c-.09-2,1.17-2.73,2.82-1.72a7.4,7.4,0,0,1,3.15,5.37c.09,2-1.17,2.73-2.82,1.72A7.42,7.42,0,0,1,257.92,562.71Zm7.66,4.68c-.09-2,1.17-2.73,2.82-1.72a7.4,7.4,0,0,1,3.15,5.37c.09,2-1.17,2.73-2.82,1.72A7.42,7.42,0,0,1,265.58,567.39Zm7.66,4.68c-.1-2,1.17-2.73,2.82-1.73a7.42,7.42,0,0,1,3.15,5.37c.09,2-1.17,2.73-2.82,1.73A7.44,7.44,0,0,1,273.24,572.07Zm7.65,4.67c-.09-2,1.18-2.73,2.83-1.72a7.45,7.45,0,0,1,3.15,5.37c.09,2-1.17,2.73-2.82,1.72A7.44,7.44,0,0,1,280.89,576.74Zm7.66,4.68c-.09-2,1.18-2.73,2.82-1.72a7.46,7.46,0,0,1,3.16,5.37c.09,2-1.18,2.73-2.83,1.72A7.42,7.42,0,0,1,288.55,581.42Zm7.66,4.68c-.09-2,1.17-2.73,2.82-1.72a7.4,7.4,0,0,1,3.15,5.37c.09,2-1.17,2.72-2.82,1.72A7.42,7.42,0,0,1,296.21,586.1Zm7.66,4.68c-.09-2,1.17-2.73,2.82-1.73a7.42,7.42,0,0,1,3.15,5.37c.09,2-1.17,2.73-2.82,1.72A7.4,7.4,0,0,1,303.87,590.78Zm7.66,4.67c-.09-2,1.17-2.73,2.82-1.72a7.42,7.42,0,0,1,3.15,5.37c.09,2-1.17,2.73-2.82,1.72A7.42,7.42,0,0,1,311.53,595.45Zm15.11,9.23c-.08-1.95,1.18-2.72,2.83-1.72a7.42,7.42,0,0,1,3.15,5.37c.09,2-1.18,2.73-2.83,1.72A7.42,7.42,0,0,1,326.64,604.68Zm15.12,9.24c-.09-2,1.18-2.73,2.83-1.72a7.39,7.39,0,0,1,3.14,5.36c.09,2-1.17,2.73-2.82,1.72A7.4,7.4,0,0,1,341.76,613.92Zm15.12,9.23c-.09-2,1.17-2.73,2.82-1.72a7.42,7.42,0,0,1,3.15,5.37c.09,2-1.18,2.72-2.83,1.71A7.39,7.39,0,0,1,356.88,623.15ZM372,632.38c-.09-2,1.18-2.73,2.83-1.72A7.42,7.42,0,0,1,378,636c.08,2-1.18,2.72-2.83,1.71A7.38,7.38,0,0,1,372,632.38Zm15.12,9.23c-.09-2,1.18-2.72,2.83-1.72a7.41,7.41,0,0,1,3.14,5.37c.09,2-1.18,2.72-2.83,1.72A7.41,7.41,0,0,1,387.11,641.61Zm15.11,9.23c-.08-2,1.18-2.72,2.83-1.71a7.38,7.38,0,0,1,3.15,5.36c.08,2-1.18,2.72-2.83,1.72A7.42,7.42,0,0,1,402.22,650.84Zm15.12,9.23c-.09-2,1.18-2.72,2.83-1.71a7.37,7.37,0,0,1,3.14,5.36c.09,2-1.18,2.73-2.83,1.72A7.41,7.41,0,0,1,417.34,660.07Zm15.12,9.24c-.09-2,1.18-2.73,2.83-1.72a7.4,7.4,0,0,1,3.14,5.36c.08,2-1.18,2.73-2.83,1.72A7.37,7.37,0,0,1,432.46,669.31Zm15.11,9.23c-.08-2,1.18-2.72,2.83-1.72a7.37,7.37,0,0,1,3.14,5.37c.09,1.95-1.18,2.72-2.83,1.71A7.4,7.4,0,0,1,447.57,678.54Zm15.12,9.23c-.09-1.95,1.18-2.72,2.83-1.72a7.37,7.37,0,0,1,3.14,5.37c.08,2-1.18,2.72-2.83,1.71A7.37,7.37,0,0,1,462.69,687.77ZM477.8,697c-.08-2,1.19-2.72,2.84-1.71a7.39,7.39,0,0,1,3.14,5.36c.08,2-1.19,2.72-2.84,1.71A7.37,7.37,0,0,1,477.8,697Zm15.12,9.23c-.08-2,1.19-2.72,2.84-1.71a7.39,7.39,0,0,1,3.13,5.36c.09,2-1.18,2.72-2.83,1.71A7.34,7.34,0,0,1,492.92,706.23ZM508,715.46c-.09-2,1.18-2.72,2.83-1.71a7.37,7.37,0,0,1,3.14,5.36c.08,2-1.19,2.72-2.84,1.71A7.32,7.32,0,0,1,508,715.46Zm15.11,9.24c-.08-2,1.19-2.72,2.84-1.72a7.36,7.36,0,0,1,3.13,5.36c.09,2-1.18,2.72-2.83,1.72A7.37,7.37,0,0,1,523.15,724.7Zm15.12,9.23c-.08-1.95,1.19-2.72,2.84-1.71a7.32,7.32,0,0,1,3.13,5.36c.08,1.95-1.19,2.71-2.84,1.71A7.36,7.36,0,0,1,538.27,733.93Zm15.11,9.23c-.08-1.95,1.19-2.72,2.84-1.71a7.4,7.4,0,0,1,3.14,5.36c.08,2-1.19,2.72-2.84,1.71A7.37,7.37,0,0,1,553.38,743.16Zm15.12,9.23c-.08-1.95,1.19-2.72,2.84-1.71a7.36,7.36,0,0,1,3.13,5.36c.08,2-1.19,2.72-2.84,1.71A7.36,7.36,0,0,1,568.5,752.39Zm15.11,9.23c-.07-2,1.2-2.71,2.85-1.71a7.36,7.36,0,0,1,3.13,5.36c.08,2-1.2,2.72-2.84,1.71A7.37,7.37,0,0,1,583.61,761.62Zm15.12,9.24c-.08-2,1.19-2.72,2.84-1.71a7.32,7.32,0,0,1,3.13,5.35c.08,2-1.19,2.72-2.84,1.71A7.34,7.34,0,0,1,598.73,770.86Zm15.12,9.23c-.08-2,1.19-2.72,2.84-1.71a7.34,7.34,0,0,1,3.13,5.35c.08,1.95-1.2,2.72-2.84,1.71A7.34,7.34,0,0,1,613.85,780.09ZM629,789.32c-.08-2,1.2-2.72,2.85-1.71a7.36,7.36,0,0,1,3.13,5.36c.07,1.95-1.2,2.71-2.85,1.7A7.32,7.32,0,0,1,629,789.32Zm15.12,9.23c-.08-1.95,1.2-2.71,2.84-1.71a7.36,7.36,0,0,1,3.13,5.36c.08,1.95-1.2,2.71-2.85,1.7A7.34,7.34,0,0,1,644.08,798.55Zm15.11,9.23c-.07-1.95,1.2-2.71,2.85-1.7a7.32,7.32,0,0,1,3.13,5.35c.07,2-1.2,2.71-2.85,1.71A7.36,7.36,0,0,1,659.19,807.78Z"/><polygon class="cls-4" points="676.62 806.12 695.87 793.2 695.91 816.73 676.53 829.97 676.62 806.12"/><path class="cls-2" d="M697.11,413.79,19.57,0,.77,13.71l676.6,413.22Zm-14.24,3.91a6.06,6.06,0,0,1-5.84,0c-1.65-1-1.71-2.62-.14-3.61a6.13,6.13,0,0,1,5.85,0C684.39,415.1,684.45,416.72,682.87,417.7Zm-16.93-10.34a6.13,6.13,0,0,1-5.85,0c-1.65-1-1.71-2.63-.13-3.61a6.06,6.06,0,0,1,5.84,0C667.45,404.76,667.51,406.37,665.94,407.36ZM649,397a6.06,6.06,0,0,1-5.84,0c-1.65-1-1.71-2.62-.14-3.61a6.09,6.09,0,0,1,5.84,0C650.51,394.41,650.57,396,649,397Zm-16.94-10.34a6.06,6.06,0,0,1-5.84,0c-1.65-1-1.71-2.62-.14-3.61a6.06,6.06,0,0,1,5.84,0C633.57,384.07,633.63,385.68,632.06,386.67Zm-16.94-10.34a6.07,6.07,0,0,1-5.83,0c-1.65-1-1.71-2.63-.14-3.61a6,6,0,0,1,5.83,0C616.63,373.72,616.7,375.34,615.12,376.33ZM598.19,366a6,6,0,0,1-5.83,0c-1.65-1-1.72-2.63-.15-3.62a6,6,0,0,1,5.83,0C599.69,363.37,599.76,365,598.19,366Zm-16.94-10.34a6.07,6.07,0,0,1-5.83,0c-1.65-1-1.72-2.63-.15-3.62a6,6,0,0,1,5.83,0C582.75,353,582.82,354.65,581.25,355.64Zm-49.53-30.25a6,6,0,0,1-5.82,0c-1.65-1-1.72-2.63-.16-3.62a6,6,0,0,1,5.82,0C533.21,322.77,533.28,324.4,531.72,325.39Zm-28.93-23.13L506,300.2,518.83,308l-3.23,2.06ZM21.35,13.69a5.77,5.77,0,0,1,5.73,0c1.66,1,1.77,2.65.25,3.67a5.74,5.74,0,0,1-5.73,0C20,16.36,19.84,14.72,21.35,13.69ZM47.83,29.86a5.77,5.77,0,0,1,5.73,0c1.65,1,1.76,2.65.24,3.67a5.79,5.79,0,0,1-5.73,0C46.42,32.53,46.31,30.88,47.83,29.86Zm16.22,9.91a5.79,5.79,0,0,1,5.74,0c1.65,1,1.76,2.65.24,3.67a5.79,5.79,0,0,1-5.74,0C62.64,42.44,62.53,40.79,64.05,39.77ZM84.24,52.1a5.79,5.79,0,0,1,5.74,0c1.66,1,1.76,2.65.24,3.67a5.79,5.79,0,0,1-5.74,0C82.83,54.76,82.72,53.12,84.24,52.1Zm44.15,27a5.83,5.83,0,0,1,5.75,0c1.65,1,1.76,2.65.23,3.67a5.83,5.83,0,0,1-5.75,0C127,81.72,126.87,80.08,128.39,79.06Zm44.15,27a5.83,5.83,0,0,1,5.76,0c1.65,1,1.75,2.65.22,3.66a5.85,5.85,0,0,1-5.76,0C171.11,108.68,171,107,172.54,106Zm44.15,27a5.87,5.87,0,0,1,5.77,0c1.65,1,1.74,2.64.21,3.65a5.85,5.85,0,0,1-5.76,0C215.26,135.64,215.16,134,216.69,133Zm44.15,27a5.92,5.92,0,0,1,5.78,0c1.65,1,1.74,2.65.2,3.66a5.87,5.87,0,0,1-5.77,0C259.4,162.6,259.31,161,260.84,160Zm44.15,27a5.89,5.89,0,0,1,5.78,0c1.65,1,1.74,2.64.2,3.65a5.92,5.92,0,0,1-5.78,0C303.54,189.56,303.45,187.93,305,186.92Zm44.15,27a5.94,5.94,0,0,1,5.79,0c1.65,1,1.74,2.64.19,3.64a5.94,5.94,0,0,1-5.79,0C347.68,216.52,347.6,214.89,349.14,213.88Zm44.15,27a6,6,0,0,1,5.8,0c1.65,1,1.73,2.64.18,3.64a6,6,0,0,1-5.8,0C391.82,243.48,391.74,241.85,393.29,240.85Zm44.15,27a6,6,0,0,1,5.81,0c1.65,1,1.73,2.63.17,3.63a6,6,0,0,1-5.8,0C436,270.44,435.89,268.81,437.44,267.81Zm44.15,27a6,6,0,0,1,5.81,0c1.66,1,1.73,2.63.17,3.63a6,6,0,0,1-5.81,0C480.11,297.39,480,295.77,481.59,294.77Zm12.46,13.07,9,.63.26-.16.4-.26,3.36-2.14,2.46,1.49-5.25,3.35a2.24,2.24,0,0,0-.37.28c-.72.62-.81,1.37-.15,1.78a3.3,3.3,0,0,0,2.86-.13,2.3,2.3,0,0,0,.44-.23l5.25-3.35,2.45,1.5-5.25,3.34-.4.26h0c-2.86,1.64-6.65,2-8.67.75-1.65-1-1.63-2.78-.17-4.39l-9.46-.66Z"/><path class="cls-3" d="M677.37,426.93.77,13.71l0,24.23L677.52,451.63ZM18.32,36.74c-.1-2,1.16-2.74,2.81-1.74a7.52,7.52,0,0,1,3.17,5.38c.1,2-1.16,2.74-2.81,1.74A7.49,7.49,0,0,1,18.32,36.74Zm14,8.57c-.1-2,1.16-2.74,2.81-1.74A7.49,7.49,0,0,1,38.33,49c.1,2-1.16,2.74-2.81,1.74A7.52,7.52,0,0,1,32.35,45.31Zm14,8.57c-.1-2,1.16-2.74,2.81-1.74a7.49,7.49,0,0,1,3.17,5.38c.1,2-1.16,2.74-2.81,1.73A7.48,7.48,0,0,1,46.38,53.88Zm14,8.56c-.1-2,1.15-2.73,2.8-1.73a7.49,7.49,0,0,1,3.17,5.38c.1,2-1.16,2.74-2.81,1.73A7.44,7.44,0,0,1,60.42,62.44Zm14,8.57c-.1-2,1.15-2.74,2.8-1.73a7.49,7.49,0,0,1,3.17,5.38c.1,2-1.16,2.74-2.81,1.73A7.46,7.46,0,0,1,74.45,71Zm14,8.57c-.1-2,1.16-2.74,2.8-1.73a7.49,7.49,0,0,1,3.17,5.38c.1,2-1.16,2.74-2.81,1.73A7.48,7.48,0,0,1,88.48,79.58Zm14,8.57c-.1-2,1.16-2.74,2.81-1.73a7.48,7.48,0,0,1,3.16,5.38c.1,2-1.16,2.74-2.81,1.73A7.48,7.48,0,0,1,102.51,88.15Zm14,8.57c-.1-2,1.16-2.74,2.81-1.73a7.48,7.48,0,0,1,3.16,5.38c.1,2-1.16,2.73-2.81,1.73A7.48,7.48,0,0,1,116.54,96.72Zm14,8.57c-.1-2,1.16-2.74,2.81-1.73a7.46,7.46,0,0,1,3.16,5.38c.1,2-1.16,2.73-2.81,1.72A7.44,7.44,0,0,1,130.57,105.29Zm14,8.57c-.1-2,1.16-2.74,2.81-1.73a7.43,7.43,0,0,1,3.16,5.38c.1,2-1.16,2.73-2.81,1.72A7.44,7.44,0,0,1,144.6,113.86Zm14.5,8.86c-.09-2,1.17-2.74,2.82-1.73a7.46,7.46,0,0,1,3.16,5.37c.09,2-1.17,2.74-2.82,1.73A7.49,7.49,0,0,1,159.1,122.72Zm7.66,4.67c-.09-2,1.17-2.73,2.82-1.72a7.44,7.44,0,0,1,3.16,5.37c.09,2-1.17,2.73-2.82,1.73A7.48,7.48,0,0,1,166.76,127.39Zm7.66,4.68c-.09-2,1.17-2.73,2.82-1.73a7.47,7.47,0,0,1,3.15,5.38c.1,2-1.16,2.73-2.81,1.72A7.44,7.44,0,0,1,174.42,132.07Zm7.66,4.68c-.1-2,1.16-2.74,2.81-1.73a7.45,7.45,0,0,1,3.16,5.38c.1,2-1.16,2.73-2.81,1.72A7.46,7.46,0,0,1,182.08,136.75Zm7.66,4.68c-.1-2,1.16-2.74,2.81-1.73a7.43,7.43,0,0,1,3.16,5.37c.1,2-1.16,2.74-2.81,1.73A7.43,7.43,0,0,1,189.74,141.43Zm7.66,4.67c-.1-2,1.16-2.73,2.81-1.72a7.41,7.41,0,0,1,3.16,5.37c.09,2-1.17,2.73-2.82,1.73A7.47,7.47,0,0,1,197.4,146.1Zm7.66,4.68c-.1-2,1.16-2.73,2.81-1.73a7.48,7.48,0,0,1,3.16,5.38c.09,2-1.17,2.73-2.82,1.72A7.4,7.4,0,0,1,205.06,150.78Zm7.65,4.68c-.09-2,1.17-2.73,2.82-1.73a7.48,7.48,0,0,1,3.16,5.38c.09,2-1.17,2.73-2.82,1.72A7.46,7.46,0,0,1,212.71,155.46Zm7.66,4.67c-.09-1.95,1.17-2.73,2.82-1.72a7.46,7.46,0,0,1,3.16,5.37c.09,2-1.17,2.73-2.82,1.73A7.48,7.48,0,0,1,220.37,160.13Zm7.66,4.68c-.09-2,1.17-2.73,2.82-1.72a7.42,7.42,0,0,1,3.15,5.37c.1,2-1.16,2.73-2.81,1.72A7.44,7.44,0,0,1,228,164.81Zm7.66,4.68c-.09-2,1.17-2.73,2.82-1.72a7.4,7.4,0,0,1,3.15,5.37c.1,2-1.17,2.73-2.81,1.72A7.43,7.43,0,0,1,235.69,169.49Zm7.66,4.68c-.09-2,1.17-2.73,2.82-1.73a7.44,7.44,0,0,1,3.15,5.37c.09,2-1.17,2.74-2.82,1.73A7.42,7.42,0,0,1,243.35,174.17Zm7.66,4.67c-.09-2,1.17-2.73,2.82-1.72a7.42,7.42,0,0,1,3.15,5.37c.09,2-1.17,2.73-2.82,1.73A7.44,7.44,0,0,1,251,178.84Zm7.66,4.68c-.1-2,1.17-2.73,2.82-1.72a7.42,7.42,0,0,1,3.15,5.37c.09,2-1.17,2.73-2.82,1.72A7.4,7.4,0,0,1,258.67,183.52Zm7.66,4.68c-.1-2,1.17-2.73,2.81-1.72a7.41,7.41,0,0,1,3.16,5.37c.09,2-1.17,2.73-2.82,1.72A7.42,7.42,0,0,1,266.33,188.2Zm7.65,4.68c-.09-2,1.17-2.73,2.82-1.73a7.48,7.48,0,0,1,3.16,5.37c.09,2-1.18,2.73-2.82,1.73A7.48,7.48,0,0,1,274,192.88Zm7.66,4.67c-.09-2,1.17-2.73,2.82-1.72a7.42,7.42,0,0,1,3.15,5.37c.1,2-1.17,2.73-2.82,1.72A7.4,7.4,0,0,1,281.64,197.55Zm7.66,4.68c-.09-2,1.17-2.73,2.82-1.72a7.42,7.42,0,0,1,3.15,5.37c.09,2-1.17,2.73-2.82,1.72A7.42,7.42,0,0,1,289.3,202.23Zm7.66,4.68c-.09-2,1.17-2.73,2.82-1.72a7.4,7.4,0,0,1,3.15,5.37c.09,1.95-1.17,2.72-2.82,1.72A7.42,7.42,0,0,1,297,206.91Zm7.66,4.68c-.09-2,1.17-2.73,2.82-1.73a7.44,7.44,0,0,1,3.15,5.37c.09,2-1.17,2.73-2.82,1.72A7.4,7.4,0,0,1,304.62,211.59Zm7.66,4.67c-.09-1.95,1.17-2.73,2.82-1.72a7.42,7.42,0,0,1,3.15,5.37c.09,2-1.17,2.73-2.82,1.72A7.42,7.42,0,0,1,312.28,216.26Zm15.11,9.23c-.09-2,1.18-2.72,2.83-1.72a7.44,7.44,0,0,1,3.15,5.37c.08,2-1.18,2.73-2.83,1.72A7.4,7.4,0,0,1,327.39,225.49Zm15.12,9.24c-.09-2,1.17-2.73,2.82-1.72a7.4,7.4,0,0,1,3.15,5.36c.09,2-1.17,2.73-2.82,1.72A7.4,7.4,0,0,1,342.51,234.73ZM357.62,244c-.08-2,1.18-2.73,2.83-1.72a7.42,7.42,0,0,1,3.15,5.37c.09,1.95-1.18,2.72-2.83,1.71A7.4,7.4,0,0,1,357.62,244Zm15.12,9.23c-.09-2,1.18-2.73,2.83-1.72a7.37,7.37,0,0,1,3.14,5.37c.09,2-1.18,2.72-2.82,1.72A7.42,7.42,0,0,1,372.74,253.19Zm15.12,9.23c-.09-1.95,1.18-2.72,2.82-1.72a7.42,7.42,0,0,1,3.15,5.37c.09,2-1.18,2.72-2.83,1.72A7.37,7.37,0,0,1,387.86,262.42ZM403,271.65c-.08-1.95,1.18-2.72,2.83-1.71a7.35,7.35,0,0,1,3.14,5.36c.09,2-1.18,2.73-2.82,1.72A7.42,7.42,0,0,1,403,271.65Zm15.12,9.24c-.09-2,1.18-2.73,2.83-1.72a7.4,7.4,0,0,1,3.14,5.36c.09,2-1.18,2.73-2.83,1.72A7.37,7.37,0,0,1,418.09,280.89Zm15.11,9.23c-.08-2,1.19-2.73,2.84-1.72a7.44,7.44,0,0,1,3.14,5.36c.08,2-1.19,2.73-2.83,1.72A7.42,7.42,0,0,1,433.2,290.12Zm15.12,9.23c-.09-2,1.18-2.72,2.83-1.72a7.37,7.37,0,0,1,3.14,5.37c.09,1.95-1.18,2.72-2.83,1.71A7.37,7.37,0,0,1,448.32,299.35Zm15.12,9.23c-.09-1.95,1.18-2.72,2.83-1.71a7.37,7.37,0,0,1,3.14,5.36c.08,1.95-1.19,2.72-2.84,1.71A7.37,7.37,0,0,1,463.44,308.58Zm15.11,9.23c-.08-1.95,1.19-2.72,2.84-1.71a7.36,7.36,0,0,1,3.13,5.36c.09,2-1.18,2.72-2.83,1.71A7.37,7.37,0,0,1,478.55,317.81ZM493.67,327c-.09-2,1.18-2.72,2.83-1.71a7.37,7.37,0,0,1,3.14,5.36c.08,1.95-1.19,2.72-2.84,1.71A7.36,7.36,0,0,1,493.67,327Zm15.11,9.24c-.08-2,1.19-2.72,2.84-1.72a7.4,7.4,0,0,1,3.14,5.36c.08,2-1.19,2.72-2.84,1.72A7.4,7.4,0,0,1,508.78,336.28Zm15.12,9.23c-.08-2,1.19-2.72,2.84-1.71a7.32,7.32,0,0,1,3.13,5.35c.08,2-1.19,2.72-2.84,1.72A7.36,7.36,0,0,1,523.9,345.51ZM539,354.74c-.09-1.95,1.18-2.72,2.83-1.71a7.34,7.34,0,0,1,3.14,5.36c.08,1.95-1.19,2.71-2.84,1.71A7.36,7.36,0,0,1,539,354.74ZM554.13,364c-.08-2,1.19-2.72,2.84-1.71a7.36,7.36,0,0,1,3.13,5.36c.08,1.95-1.19,2.72-2.84,1.71A7.36,7.36,0,0,1,554.13,364Zm15.12,9.23c-.08-1.95,1.19-2.72,2.84-1.71a7.36,7.36,0,0,1,3.13,5.36c.08,1.95-1.19,2.72-2.84,1.71A7.36,7.36,0,0,1,569.25,373.2Zm15.11,9.23c-.08-1.95,1.2-2.71,2.84-1.71a7.37,7.37,0,0,1,3.14,5.36c.07,1.95-1.2,2.72-2.85,1.71A7.34,7.34,0,0,1,584.36,382.43Zm15.12,9.24c-.08-2,1.19-2.72,2.84-1.71a7.32,7.32,0,0,1,3.13,5.35c.08,1.95-1.19,2.72-2.84,1.71A7.34,7.34,0,0,1,599.48,391.67Zm15.11,9.23c-.07-1.95,1.2-2.72,2.85-1.71a7.34,7.34,0,0,1,3.13,5.36c.08,1.95-1.2,2.71-2.85,1.7A7.32,7.32,0,0,1,614.59,400.9Zm15.12,9.23c-.08-1.95,1.2-2.72,2.85-1.71a7.35,7.35,0,0,1,3.12,5.36c.08,2-1.19,2.71-2.84,1.7A7.32,7.32,0,0,1,629.71,410.13Zm15.12,9.23c-.08-1.95,1.19-2.71,2.84-1.71A7.36,7.36,0,0,1,650.8,423c.08,1.95-1.2,2.71-2.85,1.71A7.32,7.32,0,0,1,644.83,419.36Zm15.11,9.23c-.07-1.95,1.2-2.71,2.85-1.7a7.28,7.28,0,0,1,3.12,5.35c.08,1.95-1.19,2.71-2.84,1.71A7.36,7.36,0,0,1,659.94,428.59Z"/><polygon class="cls-4" points="677.37 426.93 697.11 413.79 697.19 438.17 677.51 451.63 677.37 426.93"/><polygon class="cls-3" points="695.87 793.2 676.62 806.12 676.62 801.64 696 788.87 695.87 793.2"/><polygon class="cls-5" points="607.5 759.43 636.59 777.19 636.02 756.6 623.14 748.73 607.5 759.43"/><path class="cls-5" d="M696,788.87l-23.27-14.22-.06-324.81-19.22-11.23.26,348.83v.2l22.92,14Zm-37.63-5.19Z"/><path class="cls-6" d="M676.63,801.65l-22.92-14L654.45,442l23,14.07,19.7-13.44v-4.48l-19.67,13.46-69.26-42.3v4.47L633.12,429l-.75,345.63L607.5,759.43v4.47l69.13,42.22Zm-36.82-358.3c0-1.72,1.34-2.31,3-1.3a6.62,6.62,0,0,1,3,4.95c0,1.73-1.35,2.3-3,1.3A6.54,6.54,0,0,1,639.81,443.35Zm0,16.25c0-1.72,1.35-2.31,3-1.29a6.55,6.55,0,0,1,3,4.94c0,1.73-1.35,2.32-3,1.31A6.56,6.56,0,0,1,639.77,459.6Zm0,16.26c0-1.73,1.35-2.31,3-1.3a6.55,6.55,0,0,1,3,4.95c0,1.73-1.34,2.31-3,1.3A6.51,6.51,0,0,1,639.74,475.86Zm0,16.26c0-1.73,1.35-2.31,3-1.31a6.57,6.57,0,0,1,3,5c0,1.72-1.34,2.31-3,1.3A6.58,6.58,0,0,1,639.7,492.12Zm0,16.26c0-1.73,1.34-2.32,3-1.32a6.55,6.55,0,0,1,3,5c0,1.71-1.35,2.3-3,1.29A6.52,6.52,0,0,1,639.67,508.38Zm0,16.25c0-1.73,1.34-2.31,3-1.3a6.58,6.58,0,0,1,3,4.95c0,1.72-1.35,2.3-3,1.3A6.55,6.55,0,0,1,639.63,524.63Zm0,16.25c0-1.73,1.35-2.31,3-1.3a6.56,6.56,0,0,1,3,4.95c0,1.73-1.34,2.31-3,1.3A6.62,6.62,0,0,1,639.59,540.88Zm0,16.26c0-1.74,1.34-2.31,3-1.3a6.5,6.5,0,0,1,3,4.95c0,1.72-1.34,2.31-3,1.29A6.55,6.55,0,0,1,639.56,557.14Zm0,16.25c0-1.73,1.35-2.31,3-1.3a6.56,6.56,0,0,1,3,4.95c0,1.72-1.35,2.31-3,1.3A6.56,6.56,0,0,1,639.52,573.39Zm0,16.26c0-1.73,1.34-2.31,3-1.31a6.58,6.58,0,0,1,3,5c0,1.72-1.35,2.3-3,1.3A6.58,6.58,0,0,1,639.49,589.65Zm0,16.25c0-1.73,1.34-2.31,3-1.3a6.55,6.55,0,0,1,3,4.95c0,1.73-1.35,2.3-3,1.3A6.52,6.52,0,0,1,639.46,605.9Zm0,16.25c0-1.72,1.34-2.31,3-1.29a6.56,6.56,0,0,1,3,4.94c0,1.74-1.34,2.31-3,1.3A6.53,6.53,0,0,1,639.42,622.15Zm0,16.26c0-1.73,1.34-2.31,3-1.3a6.58,6.58,0,0,1,3,4.95c0,1.73-1.34,2.31-3,1.29A6.53,6.53,0,0,1,639.38,638.41Zm0,16.25c0-1.72,1.35-2.3,3-1.3a6.55,6.55,0,0,1,3,4.95c0,1.73-1.34,2.31-3,1.3A6.54,6.54,0,0,1,639.35,654.66Zm0,16.25c0-1.71,1.35-2.3,3-1.29a6.53,6.53,0,0,1,3,4.94c0,1.73-1.34,2.31-3,1.31A6.58,6.58,0,0,1,639.31,670.91Zm0,16.26c0-1.72,1.34-2.31,3-1.3a6.62,6.62,0,0,1,3,5c0,1.73-1.35,2.31-3,1.3A6.54,6.54,0,0,1,639.28,687.17Zm0,16.26c0-1.73,1.34-2.31,3-1.3a6.55,6.55,0,0,1,3,4.94c0,1.74-1.35,2.32-3,1.31A6.55,6.55,0,0,1,639.24,703.43Zm0,16.25c0-1.73,1.34-2.31,3-1.3a6.56,6.56,0,0,1,3,5c0,1.73-1.34,2.32-3,1.3A6.51,6.51,0,0,1,639.21,719.68Zm0,16.26c0-1.73,1.35-2.31,3-1.31a6.57,6.57,0,0,1,3,5c0,1.72-1.34,2.31-3,1.3A6.58,6.58,0,0,1,639.17,735.94Zm0,16.25c0-1.72,1.35-2.31,3-1.3a6.51,6.51,0,0,1,3,5c0,1.73-1.34,2.31-3,1.31A6.59,6.59,0,0,1,639.13,752.19Zm0,16.26c0-1.73,1.34-2.31,3-1.3a6.54,6.54,0,0,1,3,5c0,1.72-1.34,2.3-3,1.3A6.55,6.55,0,0,1,639.1,768.45Z"/><ellipse class="cls-7" cx="678.53" cy="790.53" rx="2.67" ry="4.15" transform="translate(-128.49 1449.35) rotate(-88.59)"/><ellipse class="cls-7" cx="626.74" cy="761.36" rx="2.67" ry="4.15" transform="translate(-149.86 1369.13) rotate(-88.59)"/><polygon class="cls-8" points="630.96 764.83 632.41 760.74 632.4 758.83 630.96 763.11 630.95 763.11 630.96 764.83 630.96 764.83"/><polygon class="cls-9" points="620.66 761.96 622.1 757.7 627.98 756.14 632.4 758.85 630.96 763.11 625.09 764.67 620.66 761.96"/><polygon class="cls-10" points="625.09 766.27 630.96 764.83 630.95 763.11 625.09 764.67 625.06 764.65 625.06 766.25 625.09 766.27"/><polygon class="cls-8" points="625.06 764.65 620.67 761.97 620.67 763.57 625.06 766.25 625.06 764.65"/><ellipse class="cls-11" cx="626.59" cy="759.46" rx="2.2" ry="3.02" transform="translate(-348.15 898.37) rotate(-58.59)"/><ellipse class="cls-12" cx="626.59" cy="759.19" rx="2.2" ry="3.02" transform="translate(-346.35 908.79) rotate(-59.21)"/><ellipse class="cls-13" cx="626.58" cy="758.92" rx="2.19" ry="3.02" transform="translate(-344.43 919.21) rotate(-59.83)"/><ellipse class="cls-14" cx="626.58" cy="758.65" rx="2.19" ry="3.02" transform="translate(-342.4 929.6) rotate(-60.45)"/><ellipse class="cls-15" cx="626.58" cy="758.37" rx="2.19" ry="3.02" transform="translate(-340.25 939.97) rotate(-61.07)"/><ellipse class="cls-16" cx="626.58" cy="758.1" rx="2.19" ry="3.02" transform="translate(-337.98 950.32) rotate(-61.7)"/><ellipse class="cls-17" cx="626.58" cy="757.83" rx="2.19" ry="3.02" transform="translate(-335.59 960.64) rotate(-62.32)"/><ellipse class="cls-18" cx="626.58" cy="757.56" rx="2.19" ry="3.02" transform="translate(-333.09 970.92) rotate(-62.94)"/><ellipse class="cls-19" cx="626.57" cy="757.28" rx="2.2" ry="3.02" transform="translate(-330.48 981.17) rotate(-63.56)"/><ellipse class="cls-20" cx="626.57" cy="757.01" rx="2.2" ry="3.02" transform="translate(-327.75 991.38) rotate(-64.18)"/><polygon class="cls-8" points="682.74 794.45 684.19 790.35 684.19 788.45 682.74 792.73 682.74 792.73 682.74 794.45 682.74 794.45"/><polygon class="cls-9" points="672.44 791.58 673.89 787.32 679.76 785.76 684.18 788.47 682.74 792.73 676.87 794.29 672.44 791.58"/><polygon class="cls-10" points="676.87 795.89 682.74 794.45 682.74 792.73 676.87 794.29 676.84 794.27 676.84 795.87 676.87 795.89"/><polygon class="cls-8" points="676.84 794.27 672.45 791.59 672.46 793.19 676.84 795.87 676.84 794.27"/><ellipse class="cls-11" cx="678.37" cy="789.08" rx="2.2" ry="3.02" transform="translate(-348.63 956.74) rotate(-58.59)"/><ellipse class="cls-12" cx="678.37" cy="788.81" rx="2.2" ry="3.02" transform="translate(-346.52 967.73) rotate(-59.21)"/><ellipse class="cls-13" cx="678.37" cy="788.54" rx="2.19" ry="3.02" transform="translate(-344.28 978.71) rotate(-59.83)"/><ellipse class="cls-14" cx="678.37" cy="788.27" rx="2.19" ry="3.02" transform="translate(-341.92 989.66) rotate(-60.45)"/><ellipse class="cls-15" cx="678.36" cy="787.99" rx="2.19" ry="3.02" transform="translate(-339.44 1000.59) rotate(-61.07)"/><ellipse class="cls-16" cx="678.36" cy="787.72" rx="2.19" ry="3.02" transform="translate(-336.83 1011.49) rotate(-61.7)"/><ellipse class="cls-17" cx="678.36" cy="787.45" rx="2.19" ry="3.02" transform="translate(-334.1 1022.35) rotate(-62.32)"/><ellipse class="cls-18" cx="678.36" cy="787.18" rx="2.19" ry="3.02" transform="translate(-331.24 1033.18) rotate(-62.94)"/><ellipse class="cls-19" cx="678.36" cy="786.9" rx="2.2" ry="3.02" transform="translate(-328.27 1043.97) rotate(-63.56)"/><ellipse class="cls-20" cx="678.36" cy="786.63" rx="2.2" ry="3.02" transform="translate(-325.18 1054.71) rotate(-64.18)"/><path class="cls-8" d="M674.1,421.3c-4.94-1.8-7.88-6.18-6.29-10.53s6.88-6.43,11.82-4.63,7.66,6.79,6.07,11.15S679,423.1,674.1,421.3Z"/><ellipse class="cls-21" cx="676.94" cy="413.53" rx="7.87" ry="9.52" transform="translate(56.61 907.96) rotate(-69.98)"/><polygon class="cls-8" points="681.04 416.76 682.49 412.66 682.49 410.76 681.04 415.04 681.04 415.04 681.04 416.76 681.04 416.76"/><polygon class="cls-22" points="670.75 413.89 672.19 409.63 678.06 408.07 682.49 410.78 681.04 415.04 675.17 416.6 670.75 413.89"/><polygon class="cls-10" points="675.17 418.2 681.04 416.76 681.04 415.04 675.17 416.6 675.14 416.58 675.15 418.18 675.17 418.2"/><polygon class="cls-8" points="675.14 416.58 670.75 413.9 670.76 415.5 675.15 418.18 675.14 416.58"/><path class="cls-8" d="M625.58,391.67c-4.94-1.8-7.88-6.19-6.29-10.54s6.87-6.42,11.81-4.62,7.66,6.79,6.08,11.14S630.52,393.47,625.58,391.67Z"/><ellipse class="cls-21" cx="628.41" cy="383.9" rx="7.87" ry="9.52" transform="translate(52.55 842.88) rotate(-69.98)"/><polygon class="cls-23" points="632.51 387.13 633.97 383.03 633.96 381.12 632.52 385.4 632.51 385.4 632.51 387.13 632.51 387.13"/><polygon class="cls-22" points="622.22 384.26 623.66 380 629.53 378.44 633.96 381.14 632.52 385.4 626.65 386.96 622.22 384.26"/><polygon class="cls-24" points="626.65 388.56 632.51 387.13 632.51 385.4 626.65 386.96 626.62 386.94 626.62 388.55 626.65 388.56"/><polygon class="cls-23" points="626.62 386.94 622.23 384.26 622.23 385.86 626.62 388.55 626.62 386.94"/><polygon class="cls-25" points="586.47 414.37 590.48 423.5 586.48 414.38 586.47 414.37 586.47 414.37"/><polygon class="cls-23" points="586.47 414.37 586.47 414.37 586.47 414.37 586.48 414.38 590.54 413.74 580.35 411.83 575.86 412.53 575.9 412.54 575.9 412.53 586.47 414.37"/><path class="cls-22" d="M592.27,427.7l0-.07-1.82-4.13-4-9.13-10.57-1.83L571.15,424,577,437.22l10.57,1.84v0h0ZM584,434.52a1.84,1.84,0,0,1-.33,0,2.24,2.24,0,0,1-.37.1c-3,.55-6.19-3-7.08-7.86s.83-9.3,3.85-9.85a2.33,2.33,0,0,1,.37,0c.11,0,.21-.07.32-.09,2.64-.48,5.51,3.09,6.4,8S586.68,434,584,434.52Z"/><polygon class="cls-22" points="586.47 414.37 575.9 412.53 575.9 412.54 586.47 414.37 586.47 414.37"/><polygon class="cls-24" points="590.54 413.74 586.48 414.38 590.48 423.5 592.3 427.63 592.27 427.7 596.04 427.11 596.07 427.04 590.54 413.74"/><polygon class="cls-24" points="592.27 427.7 592.27 427.7 592.3 427.63 590.48 423.5 592.3 427.63 592.27 427.7"/><polygon class="cls-23" points="587.56 439.03 591.33 438.44 596.04 427.11 592.27 427.7 587.56 439.03"/><rect class="cls-23" x="583.78" y="433.37" width="12.26" transform="translate(-36.68 811.76) rotate(-67.43)"/><path class="cls-21" d="M577.65,426.54c-.86-4.69.41-8.87,2.83-9.64a2.33,2.33,0,0,0-.37,0c-3,.55-4.75,5-3.85,9.85s4.06,8.41,7.08,7.86a2.24,2.24,0,0,0,.37-.1C581.17,434.69,578.5,431.23,577.65,426.54Z"/><path class="cls-8" d="M696.82,350.06c-3.63-7.63-9.81-11.79-14.63-8.78l-.27.2c4.51-2.51,10.92,1.37,14.47,8.84s2.92,15.76-1.37,18.74l.3-.15C700.14,365.9,700.44,357.69,696.82,350.06Z"/><path class="cls-21" d="M680,360.55c3.63,7.63,10.23,11.52,14.75,8.7a2.35,2.35,0,0,0,.25-.19C690.22,371.76,683.58,368,680,360.55Z"/><path class="cls-21" d="M681.92,341.48l-.27.14c-4.53,2.83-5.25,11.3-1.63,18.93C676.47,353.07,677.34,344.65,681.92,341.48Z"/><path class="cls-21" d="M696.39,350.32c-3.55-7.47-10-11.35-14.47-8.84-4.58,3.17-5.45,11.59-1.9,19.07s10.2,11.21,15,8.51C699.31,366.08,700,357.8,696.39,350.32ZM691.8,363c-2.48,1.54-6.09-.59-8.07-4.76s-1.58-8.8.89-10.35,6.08.59,8.06,4.76S694.27,361.45,691.8,363Z"/><polygon class="cls-25" points="746.34 299.89 754.52 303.97 746.35 299.9 746.34 299.89 746.34 299.89"/><polygon class="cls-23" points="746.34 299.89 746.34 299.89 746.34 299.89 746.35 299.9 748.65 296.91 740.74 301.88 738.19 305.18 738.22 305.16 738.21 305.16 746.34 299.89"/><path class="cls-22" d="M758.26,305.88l0-.07L754.52,304l-8.18-4.08-8.13,5.27L742,316.34l11.9,5.92L762,317v0h0Z"/><polygon class="cls-22" points="746.34 299.89 738.21 305.16 738.22 305.16 746.34 299.89 746.34 299.89"/><polygon class="cls-22" points="748.65 296.91 746.35 299.9 754.52 303.97 758.24 305.81 758.26 305.88 760.4 303.1 760.38 303.03 748.65 296.91"/><polygon class="cls-24" points="758.26 305.88 758.26 305.88 758.24 305.81 754.52 303.97 758.24 305.81 758.26 305.88"/><polygon class="cls-23" points="762 316.97 764.14 314.19 760.4 303.1 758.26 305.88 762 316.97"/><polygon class="cls-23" points="758.26 305.88 762 316.97 762 316.97 758.26 305.88 758.26 305.88"/><rect class="cls-26" x="724.23" y="320.11" width="1.44" height="16.84" transform="translate(-55.32 485.61) rotate(-35.76)"/><rect class="cls-26" x="719.57" y="323.47" width="1.44" height="16.84" transform="translate(-58.16 483.51) rotate(-35.76)"/><rect class="cls-26" x="721.9" y="321.79" width="1.44" height="16.84" transform="translate(-56.74 484.56) rotate(-35.76)"/><rect class="cls-26" x="720.74" y="322.63" width="1.44" height="16.84" transform="translate(-57.45 484.03) rotate(-35.76)"/><rect class="cls-26" x="726.56" y="318.44" width="1.44" height="16.84" transform="matrix(0.81, -0.58, 0.58, 0.81, -53.9, 486.64)"/><rect class="cls-26" x="723.07" y="320.95" width="1.44" height="16.84" transform="translate(-56.03 485.07) rotate(-35.76)"/><rect class="cls-26" x="725.4" y="319.28" width="1.44" height="16.84" transform="translate(-54.61 486.12) rotate(-35.76)"/><path class="cls-26" d="M753.79,318.13l-1.86,1.35-14.49,10.43-9.84-13.66,14.68-10.58,1.48-1.06c3-1.5,7.2-.11,9.74,3.4S756,315.7,753.79,318.13Z"/><rect class="cls-26" x="731.22" y="315.08" width="1.44" height="16.84" transform="translate(-51.06 488.74) rotate(-35.76)"/><rect class="cls-26" x="728.89" y="316.76" width="1.44" height="16.84" transform="translate(-52.48 487.69) rotate(-35.76)"/><rect class="cls-26" x="727.73" y="317.6" width="1.44" height="16.84" transform="translate(-53.19 487.17) rotate(-35.76)"/><rect class="cls-26" x="730.06" y="315.92" width="1.44" height="16.84" transform="translate(-51.77 488.21) rotate(-35.76)"/><path class="cls-26" d="M716.72,344.83l.92-.66-.2-.27A5.49,5.49,0,0,1,716.72,344.83Z"/><path class="cls-26" d="M708,330.78l-.19-.27-.92.66A5.63,5.63,0,0,1,708,330.78Z"/><path class="cls-26" d="M718.11,342.38l.69,1,1.17-.84-1.57-2.17A7.31,7.31,0,0,1,718.11,342.38Z"/><path class="cls-26" d="M711.69,331l-1.56-2.17-1.17.84.69,1A7.38,7.38,0,0,1,711.69,331Z"/><path class="cls-26" d="M711.29,328l3.34,4.64a10.46,10.46,0,0,1,1.87,2,10.19,10.19,0,0,1,1.29,2.4l3.34,4.64,1.17-.84-9.84-13.66Z"/><rect class="cls-26" x="717.24" y="325.15" width="1.44" height="16.84" transform="translate(-59.58 482.47) rotate(-35.76)"/><rect class="cls-26" x="718.41" y="324.31" width="1.44" height="16.84" transform="translate(-58.87 482.99) rotate(-35.76)"/><path class="cls-26" d="M714.63,332.63,711.29,328l-1.16.84,1.56,2.17A9.13,9.13,0,0,1,714.63,332.63Z"/><path class="cls-26" d="M718.4,340.33,720,342.5l1.16-.84L717.79,337A9.12,9.12,0,0,1,718.4,340.33Z"/><path class="cls-26" d="M717.44,343.9l.2.27,1.16-.83-.69-1A6.28,6.28,0,0,1,717.44,343.9Z"/><path class="cls-26" d="M709.65,330.63l-.69-1-1.16.84.19.27A6.54,6.54,0,0,1,709.65,330.63Z"/><path class="cls-27" d="M715.31,345.85l-.26.18a5.05,5.05,0,0,0,.9-.51,5.59,5.59,0,0,0,.77-.69l-.25.18Z"/><path class="cls-27" d="M706.63,331.35l.25-.18a4.91,4.91,0,0,0-1.66,1.2l.25-.18Z"/><path class="cls-10" d="M718.4,340.33a7,7,0,0,1-.29,2.05,6.52,6.52,0,0,1-.67,1.53,7,7,0,0,1-.72.93l-.25.18-1.17.83-.25.19a6,6,0,0,1-1.1.38,6.16,6.16,0,0,1-1.66.16,7.72,7.72,0,0,1-2-.38,9.69,9.69,0,0,1-4.82-3.62,9.81,9.81,0,0,1-1.9-5.71,7.62,7.62,0,0,1,.29-2,7.24,7.24,0,0,1,.67-1.53,8.23,8.23,0,0,1,.72-.93l.26-.18,1.16-.84.26-.18a5.33,5.33,0,0,1,1.1-.39,6.15,6.15,0,0,1,1.67-.15,7.38,7.38,0,0,1,2,.37,9.29,9.29,0,0,1,2.94,1.62,10.9,10.9,0,0,1,1.88,2,11.42,11.42,0,0,1,1.29,2.4A9.32,9.32,0,0,1,718.4,340.33Z"/><path class="cls-8" d="M738.87,377.29c-3.62-7.63-9.8-11.8-14.62-8.78-.1.05-.18.13-.28.19,4.52-2.51,10.93,1.37,14.48,8.85s2.91,15.75-1.37,18.74c.09-.06.19-.1.29-.16C742.19,393.12,742.49,384.91,738.87,377.29Z"/><path class="cls-21" d="M722.08,387.77c3.62,7.63,10.22,11.53,14.75,8.7l.25-.18C732.27,399,725.63,395.25,722.08,387.77Z"/><path class="cls-21" d="M724,368.7c-.09.05-.18.09-.27.15-4.52,2.82-5.25,11.29-1.62,18.92C718.52,380.29,719.4,371.87,724,368.7Z"/><path class="cls-21" d="M738.45,377.55c-3.55-7.48-10-11.36-14.48-8.85-4.57,3.17-5.45,11.59-1.89,19.07s10.19,11.21,15,8.52C741.36,393.3,742,385,738.45,377.55Zm-4.6,12.66c-2.47,1.55-6.08-.58-8.06-4.76s-1.59-8.8.88-10.34,6.09.58,8.07,4.75S736.32,388.67,733.85,390.21Z"/><polygon class="cls-25" points="785.76 324.37 793.95 328.44 785.77 324.38 785.76 324.37 785.76 324.37"/><polygon class="cls-23" points="785.76 324.37 785.76 324.37 785.76 324.37 785.77 324.38 788.08 321.38 780.16 326.36 777.61 329.66 777.64 329.64 777.63 329.64 785.76 324.37"/><path class="cls-22" d="M797.68,330.36l0-.07L794,328.44l-8.19-4.07-8.12,5.27,3.76,11.18,11.9,5.91,8.13-5.26v0h0Z"/><polygon class="cls-22" points="785.76 324.37 777.63 329.64 777.64 329.64 785.76 324.37 785.76 324.37"/><polygon class="cls-22" points="788.08 321.38 785.77 324.38 793.95 328.44 797.66 330.29 797.68 330.36 799.82 327.58 799.8 327.51 788.08 321.38"/><polygon class="cls-24" points="797.68 330.36 797.68 330.36 797.66 330.29 793.95 328.44 797.66 330.29 797.68 330.36"/><polygon class="cls-23" points="801.42 341.44 803.56 338.67 799.82 327.58 797.68 330.36 801.42 341.44"/><polygon class="cls-23" points="797.68 330.36 801.42 341.44 801.42 341.44 797.68 330.36 797.68 330.36"/><rect class="cls-26" x="763.65" y="344.59" width="1.44" height="16.84" transform="translate(-62.19 513.26) rotate(-35.76)"/><rect class="cls-26" x="758.99" y="347.95" width="1.44" height="16.84" transform="translate(-65.03 511.16) rotate(-35.76)"/><rect class="cls-26" x="761.32" y="346.27" width="1.44" height="16.84" transform="translate(-63.61 512.21) rotate(-35.76)"/><rect class="cls-26" x="760.16" y="347.11" width="1.44" height="16.84" transform="translate(-64.32 511.69) rotate(-35.76)"/><rect class="cls-26" x="765.98" y="342.91" width="1.44" height="16.84" transform="translate(-60.77 514.3) rotate(-35.76)"/><rect class="cls-26" x="762.49" y="345.43" width="1.44" height="16.84" transform="translate(-62.9 512.72) rotate(-35.76)"/><rect class="cls-26" x="764.82" y="343.75" width="1.44" height="16.84" transform="translate(-61.48 513.77) rotate(-35.76)"/><path class="cls-26" d="M793.21,342.61,791.35,344l-14.49,10.43L767,340.73l14.68-10.58,1.47-1.06c3-1.5,7.21-.11,9.74,3.4S795.42,340.18,793.21,342.61Z"/><rect class="cls-26" x="770.64" y="339.56" width="1.44" height="16.84" transform="translate(-57.93 516.4) rotate(-35.76)"/><rect class="cls-26" x="768.31" y="341.24" width="1.44" height="16.84" transform="translate(-59.35 515.35) rotate(-35.76)"/><rect class="cls-26" x="767.15" y="342.08" width="1.44" height="16.84" transform="translate(-60.06 514.82) rotate(-35.76)"/><rect class="cls-26" x="769.48" y="340.4" width="1.44" height="16.84" transform="translate(-58.64 515.86) rotate(-35.76)"/><path class="cls-26" d="M756.14,369.31l.92-.66-.2-.27A5.49,5.49,0,0,1,756.14,369.31Z"/><path class="cls-26" d="M747.41,355.26l-.19-.27-.92.66A5.63,5.63,0,0,1,747.41,355.26Z"/><path class="cls-26" d="M757.53,366.85l.69,1,1.17-.84-1.57-2.16A7.18,7.18,0,0,1,757.53,366.85Z"/><path class="cls-26" d="M751.11,355.48l-1.56-2.17-1.17.84.69,1A7.38,7.38,0,0,1,751.11,355.48Z"/><path class="cls-26" d="M750.71,352.47l3.34,4.63a10.9,10.9,0,0,1,1.88,2,10.52,10.52,0,0,1,1.28,2.4l3.34,4.64,1.17-.84-9.84-13.67Z"/><rect class="cls-26" x="756.66" y="349.63" width="1.44" height="16.84" transform="translate(-66.45 510.12) rotate(-35.76)"/><rect class="cls-26" x="757.83" y="348.79" width="1.44" height="16.84" transform="translate(-65.74 510.65) rotate(-35.76)"/><path class="cls-26" d="M754.05,357.1l-3.34-4.63-1.16.84,1.56,2.17A9.29,9.29,0,0,1,754.05,357.1Z"/><path class="cls-26" d="M757.82,364.81l1.57,2.16,1.16-.83-3.34-4.64A9.12,9.12,0,0,1,757.82,364.81Z"/><path class="cls-26" d="M756.86,368.38l.2.27,1.16-.84-.69-1A6.18,6.18,0,0,1,756.86,368.38Z"/><path class="cls-26" d="M749.07,355.11l-.69-1-1.16.84.19.27A6.15,6.15,0,0,1,749.07,355.11Z"/><path class="cls-27" d="M754.73,370.33l-.26.18a5.76,5.76,0,0,0,.9-.51,5.59,5.59,0,0,0,.77-.69l-.25.18Z"/><path class="cls-27" d="M746.05,355.83l.25-.18a5.35,5.35,0,0,0-.89.51,5.06,5.06,0,0,0-.77.69l.25-.18Z"/><path class="cls-10" d="M757.82,364.81a7,7,0,0,1-.29,2.05,6.28,6.28,0,0,1-.67,1.52,7.11,7.11,0,0,1-.72.94l-.25.17-1.17.84-.24.19a6.32,6.32,0,0,1-1.11.38,6.16,6.16,0,0,1-1.66.16,7.79,7.79,0,0,1-2-.38,10.1,10.1,0,0,1-6.72-9.33,8.12,8.12,0,0,1,.29-2.05,7.16,7.16,0,0,1,.67-1.52,7.42,7.42,0,0,1,.72-.93l.26-.19,1.16-.83.26-.18a5.33,5.33,0,0,1,1.1-.39,6.19,6.19,0,0,1,1.67-.15,7.31,7.31,0,0,1,2,.37,9.29,9.29,0,0,1,2.94,1.62,10.57,10.57,0,0,1,1.88,2,11.42,11.42,0,0,1,1.29,2.4A9.32,9.32,0,0,1,757.82,364.81Z"/><polygon class="cls-8" points="614.48 779.79 610.23 780.69 608.6 781.68 613.01 780.69 613.01 780.69 614.48 779.79 614.48 779.79"/><polygon class="cls-9" points="617.4 790.07 613.01 791.06 608.62 786.86 608.62 781.67 613.01 780.69 617.4 784.88 617.4 790.07"/><polygon class="cls-10" points="618.76 784.04 614.48 779.79 613.01 780.69 617.4 784.88 617.4 784.91 618.76 784.08 618.76 784.04"/><polygon class="cls-8" points="617.4 784.91 617.4 790.06 618.76 789.22 618.76 784.08 617.4 784.91"/><ellipse class="cls-11" cx="612.17" cy="786.31" rx="2.2" ry="3.02"/><ellipse class="cls-12" cx="611.94" cy="786.46" rx="2.2" ry="3.02" transform="translate(-8.49 6.68) rotate(-0.62)"/><ellipse class="cls-13" cx="611.71" cy="786.6" rx="2.19" ry="3.02" transform="translate(-16.92 13.45) rotate(-1.24)"/><ellipse class="cls-14" cx="611.48" cy="786.74" rx="2.19" ry="3.02" transform="translate(-25.28 20.32) rotate(-1.87)"/><ellipse class="cls-15" cx="611.25" cy="786.89" rx="2.19" ry="3.02" transform="translate(-33.58 27.27) rotate(-2.49)"/><ellipse class="cls-16" cx="611.02" cy="787.03" rx="2.19" ry="3.02" transform="translate(-41.8 34.31) rotate(-3.11)"/><ellipse class="cls-17" cx="610.78" cy="787.17" rx="2.19" ry="3.02" transform="translate(-49.94 41.43) rotate(-3.73)"/><ellipse class="cls-18" cx="610.55" cy="787.32" rx="2.19" ry="3.02" transform="translate(-58.01 48.63) rotate(-4.35)"/><ellipse class="cls-19" cx="610.32" cy="787.46" rx="2.2" ry="3.02" transform="translate(-66 55.91) rotate(-4.98)"/><ellipse class="cls-20" cx="610.09" cy="787.6" rx="2.2" ry="3.02" transform="translate(-73.91 63.26) rotate(-5.6)"/><polygon class="cls-8" points="663.34 808.43 659.08 809.33 657.46 810.32 661.87 809.33 661.87 809.33 663.34 808.43 663.34 808.43"/><polygon class="cls-9" points="666.25 818.71 661.87 819.7 657.48 815.5 657.48 810.32 661.87 809.33 666.25 813.52 666.25 818.71"/><polygon class="cls-10" points="667.62 812.69 663.34 808.43 661.87 809.33 666.25 813.52 666.25 813.56 667.62 812.72 667.62 812.69"/><polygon class="cls-8" points="666.25 813.56 666.25 818.7 667.62 817.86 667.62 812.72 666.25 813.56"/><ellipse class="cls-11" cx="661.03" cy="814.96" rx="2.2" ry="3.02"/><ellipse class="cls-12" cx="660.8" cy="815.1" rx="2.2" ry="3.02" transform="translate(-8.8 7.21) rotate(-0.62)"/><ellipse class="cls-13" cx="660.57" cy="815.24" rx="2.19" ry="3.02" transform="matrix(1, -0.02, 0.02, 1, -17.53, 14.52)"/><ellipse class="cls-14" cx="660.34" cy="815.39" rx="2.19" ry="3.02" transform="translate(-26.19 21.92) rotate(-1.87)"/><ellipse class="cls-15" cx="660.11" cy="815.53" rx="2.19" ry="3.02" transform="translate(-34.77 29.42) rotate(-2.49)"/><ellipse class="cls-16" cx="659.87" cy="815.67" rx="2.19" ry="3.02" transform="translate(-43.28 37) rotate(-3.11)"/><ellipse class="cls-17" cx="659.64" cy="815.82" rx="2.19" ry="3.02" transform="translate(-51.71 44.67) rotate(-3.73)"/><ellipse class="cls-18" cx="659.41" cy="815.96" rx="2.19" ry="3.02" transform="translate(-60.05 52.42) rotate(-4.35)"/><ellipse class="cls-19" cx="659.18" cy="816.1" rx="2.2" ry="3.02" transform="translate(-68.3 60.25) rotate(-4.98)"/><ellipse class="cls-20" cx="658.95" cy="816.25" rx="2.2" ry="3.02" transform="translate(-76.47 68.16) rotate(-5.6)"/><path class="cls-25" d="M527.51,492.55c1.65,1,4,1.07,5.25.14s.92-2.49-.73-3.5a5.14,5.14,0,0,0-5.25-.15C525.53,490,525.86,491.54,527.51,492.55Z"/><path class="cls-25" d="M539.45,483.67c1.65,1,4,1.08,5.24.15s.92-2.5-.73-3.5-4-1.08-5.24-.15S537.8,482.67,539.45,483.67Z"/><path class="cls-25" d="M479.76,528a5.14,5.14,0,0,0,5.25.15c1.25-.93.92-2.5-.73-3.5s-4-1.08-5.24-.15S478.11,527,479.76,528Z"/><path class="cls-25" d="M515.57,501.42c1.65,1,4,1.07,5.25.14s.92-2.49-.73-3.5a5.14,5.14,0,0,0-5.25-.15C513.6,498.84,513.92,500.41,515.57,501.42Z"/><path class="cls-25" d="M551.38,474.8c1.65,1,4,1.08,5.25.15s.92-2.5-.73-3.5-4-1.08-5.25-.15S549.73,473.79,551.38,474.8Z"/><path class="cls-25" d="M503.64,510.29c1.65,1,4,1.07,5.24.14s.92-2.49-.73-3.5a5.09,5.09,0,0,0-5.24-.14C501.66,507.71,502,509.28,503.64,510.29Z"/><path class="cls-25" d="M491.7,519.16a5.14,5.14,0,0,0,5.25.15c1.24-.93.92-2.5-.73-3.51s-4-1.07-5.25-.14S490.05,518.15,491.7,519.16Z"/><path class="cls-25" d="M611.06,430.44c1.65,1,4,1.08,5.25.15s.92-2.5-.73-3.5-4-1.08-5.24-.15S609.41,429.44,611.06,430.44Z"/><path class="cls-25" d="M575.26,457.06a5.09,5.09,0,0,0,5.24.14c1.25-.92.92-2.49-.73-3.5s-4-1.07-5.24-.14S573.61,456.05,575.26,457.06Z"/><path class="cls-25" d="M623,421.57a5.14,5.14,0,0,0,5.25.15c1.24-.93.92-2.5-.73-3.5s-4-1.08-5.25-.15S621.35,420.56,623,421.57Z"/><path class="cls-25" d="M587.19,448.19c1.65,1,4,1.07,5.25.14s.92-2.49-.73-3.5a5.14,5.14,0,0,0-5.25-.15C585.22,445.61,585.54,447.18,587.19,448.19Z"/><path class="cls-25" d="M599.13,439.32c1.65,1,4,1.07,5.24.14s.92-2.49-.73-3.5a5.12,5.12,0,0,0-5.24-.15C597.15,436.74,597.48,438.31,599.13,439.32Z"/><path class="cls-25" d="M563.32,465.93c1.65,1,4,1.07,5.24.15s.93-2.5-.72-3.51-4-1.07-5.25-.14S561.67,464.92,563.32,465.93Z"/><polygon class="cls-24" points="495 586.2 498.52 583.85 498.08 559.31 498.08 559.31 494.86 561.71 495 586.2"/><path class="cls-24" d="M650.44,415.62l-174.85,130,18.87,11.52L650.58,440.25l22.95,13.83-.17-24.46Zm15.09,23.84c-1.36.83-3.49-.17-4.75-2.24s-1.2-4.43.16-5.26,3.49.17,4.76,2.24S666.89,438.63,665.53,439.46Z"/><polygon class="cls-3" points="676.59 427.22 673.36 429.62 673.53 454.08 676.74 451.92 676.59 427.22"/><path class="cls-6" d="M604.09,387.32l.57,24.89,6.31,3.85,18.13-13.47Zm12.58,22.3c-1.36.83-3.49-.17-4.75-2.24s-1.2-4.43.16-5.26,3.49.17,4.76,2.24S618,408.79,616.67,409.62Z"/><polygon class="cls-2" points="498.08 559.31 498.08 559.31 494.46 557.1 492.88 558.29 498.08 559.31"/><path class="cls-2" d="M483.85,555l-8.26-9.4L650.25,415l23.11,14.64,3.23-2.4L607.46,385l-3.22,2.4,24.87,15.19h0l.72.44-17.31,14-1.54-.94L454.25,532.55l-24.86-15.19-3.23,2.39.07,0v0ZM622.27,418.07c1.25-.93,3.6-.86,5.25.15s2,2.57.73,3.5a5.14,5.14,0,0,1-5.25-.15C621.35,420.56,621,419,622.27,418.07Zm-11.93,8.87c1.24-.93,3.59-.86,5.24.15s2,2.57.73,3.5-3.6.86-5.25-.15S609.09,427.87,610.34,426.94Zm-11.94,8.87a5.12,5.12,0,0,1,5.24.15c1.65,1,2,2.57.73,3.5s-3.59.86-5.24-.14S597.15,436.74,598.4,435.81Zm-11.94,8.87a5.14,5.14,0,0,1,5.25.15c1.65,1,2,2.58.73,3.5s-3.6.86-5.25-.14S585.22,445.61,586.46,444.68Zm-11.93,8.88c1.24-.93,3.59-.87,5.24.14s2,2.58.73,3.5a5.09,5.09,0,0,1-5.24-.14C573.61,456.05,573.28,454.48,574.53,453.56Zm-11.94,8.87c1.25-.93,3.6-.86,5.25.14s2,2.58.72,3.51-3.59.86-5.24-.15S561.34,463.35,562.59,462.43Zm-11.94,8.87c1.25-.93,3.6-.86,5.25.15s2,2.57.73,3.5-3.6.86-5.25-.15S549.41,472.23,550.65,471.3Zm-11.93,8.87c1.24-.93,3.59-.86,5.24.15s2,2.57.73,3.5-3.59.86-5.24-.15S537.47,481.1,538.72,480.17ZM526.78,489a5.14,5.14,0,0,1,5.25.15c1.65,1,2,2.57.73,3.5s-3.6.86-5.25-.14S525.53,490,526.78,489Zm-11.94,8.87a5.14,5.14,0,0,1,5.25.15c1.65,1,2,2.58.73,3.5s-3.6.86-5.25-.14S513.6,498.84,514.84,497.91Zm-11.93,8.88a5.09,5.09,0,0,1,5.24.14c1.65,1,2,2.58.73,3.5s-3.59.87-5.24-.14S501.66,507.71,502.91,506.79ZM491,515.66c1.25-.93,3.6-.86,5.25.14s2,2.58.73,3.51a5.14,5.14,0,0,1-5.25-.15C490.05,518.15,489.73,516.58,491,515.66ZM479,524.53c1.24-.93,3.59-.86,5.24.15s2,2.57.73,3.5a5.14,5.14,0,0,1-5.25-.15C478.11,527,477.79,525.46,479,524.53Z"/><polygon class="cls-2" points="650.44 415.62 673.36 429.62 650.25 414.98 475.59 545.58 483.85 554.98 494.86 561.71 498.08 559.31 492.88 558.29 494.46 557.1 475.59 545.58 650.44 415.62"/><polygon class="cls-2" points="629.82 403.03 629.1 402.59 610.97 416.06 612.51 417 629.82 403.03"/><path class="cls-7" d="M660.94,432c-1.36.83-1.43,3.19-.16,5.26s3.39,3.07,4.75,2.24,1.44-3.18.17-5.26S662.3,431.13,660.94,432Z"/><path class="cls-7" d="M616.84,404.36c-1.27-2.07-3.4-3.07-4.76-2.24s-1.43,3.19-.16,5.26,3.39,3.07,4.75,2.24S618.11,406.44,616.84,404.36Z"/><path class="cls-24" d="M483.87,555l-57.64-35.2v24.65L495,586.2,486.52,558Zm-44-10.81c-2,.84-4.68-1.14-6.1-4.42s-1-6.63.95-7.47,4.68,1.14,6.1,4.42S441.85,543.35,439.91,544.19Zm41.8,26c-1.95.84-4.68-1.14-6.1-4.42s-1-6.63,1-7.47,4.67,1.13,6.1,4.42S483.66,569.37,481.71,570.22Z"/><polygon class="cls-24" points="483.87 555 486.52 558.02 495 586.2 494.86 561.71 483.87 555"/><polygon class="cls-24" points="483.85 554.98 426.23 519.75 426.23 519.8 483.87 555 483.85 554.98"/><polygon class="cls-24" points="494.86 561.71 483.85 554.98 483.87 555 494.86 561.71"/><path class="cls-25" d="M539.45,862.58a5.12,5.12,0,0,0,5.24.15c1.25-.93.92-2.5-.73-3.51s-4-1.07-5.24-.14S537.8,861.57,539.45,862.58Z"/><path class="cls-25" d="M527.51,871.45c1.65,1,4,1.08,5.25.15s.92-2.5-.73-3.5-4-1.08-5.25-.15S525.86,870.45,527.51,871.45Z"/><path class="cls-25" d="M491.7,898.07a5.11,5.11,0,0,0,5.25.14c1.24-.92.92-2.49-.73-3.5a5.11,5.11,0,0,0-5.25-.14C489.73,895.49,490.05,897.06,491.7,898.07Z"/><path class="cls-25" d="M515.57,880.32c1.65,1,4,1.08,5.25.15s.92-2.49-.73-3.5-4-1.08-5.25-.15S513.92,879.32,515.57,880.32Z"/><path class="cls-25" d="M551.38,853.71a5.14,5.14,0,0,0,5.25.15c1.24-.93.92-2.5-.73-3.51a5.11,5.11,0,0,0-5.25-.14C549.41,851.13,549.73,852.7,551.38,853.71Z"/><path class="cls-25" d="M503.64,889.2c1.65,1,4,1.07,5.24.14s.92-2.49-.73-3.5a5.12,5.12,0,0,0-5.24-.15C501.66,886.62,502,888.19,503.64,889.2Z"/><path class="cls-25" d="M479.76,906.94a5.14,5.14,0,0,0,5.25.15c1.25-.93.92-2.5-.73-3.51s-4-1.07-5.24-.14S478.11,905.93,479.76,906.94Z"/><path class="cls-25" d="M611.06,809.35a5.14,5.14,0,0,0,5.25.15c1.25-.93.92-2.5-.73-3.51s-4-1.07-5.24-.14S609.41,808.34,611.06,809.35Z"/><path class="cls-25" d="M623,800.48a5.14,5.14,0,0,0,5.25.15c1.24-.93.92-2.5-.73-3.51a5.11,5.11,0,0,0-5.25-.14C621,797.9,621.35,799.47,623,800.48Z"/><path class="cls-25" d="M599.13,818.22c1.65,1,4,1.08,5.24.15s.92-2.5-.73-3.5-4-1.08-5.24-.15S597.48,817.22,599.13,818.22Z"/><path class="cls-25" d="M587.19,827.09c1.65,1,4,1.08,5.25.15s.92-2.5-.73-3.5-4-1.08-5.25-.15S585.54,826.09,587.19,827.09Z"/><path class="cls-25" d="M575.26,836c1.65,1,4,1.07,5.24.14s.92-2.49-.73-3.5-4-1.07-5.24-.15S573.61,835,575.26,836Z"/><path class="cls-25" d="M563.32,844.84c1.65,1,4,1.07,5.24.14s.93-2.49-.72-3.5a5.14,5.14,0,0,0-5.25-.15C561.34,842.26,561.67,843.83,563.32,844.84Z"/><polygon class="cls-24" points="495 965.11 498.52 962.76 498.08 938.22 498.08 938.22 494.86 940.62 495 965.11"/><path class="cls-24" d="M673.36,808.52l-22.92-14-174.85,130L494.46,936,650.58,819.16,673.53,833l-.17-24.47Zm-7.83,9.85c-1.36.83-3.49-.17-4.75-2.25s-1.2-4.42.16-5.25,3.49.17,4.76,2.24S666.89,817.54,665.53,818.37Z"/><polygon class="cls-3" points="676.59 806.13 674.17 807.92 673.36 808.52 673.53 832.99 676.74 830.82 676.59 806.13"/><path class="cls-6" d="M604.09,766.23l.57,24.88L611,795,629.1,781.5Zm12.58,22.3c-1.36.83-3.49-.17-4.75-2.25s-1.2-4.42.16-5.25,3.49.17,4.76,2.24S618,787.7,616.67,788.53Z"/><path class="cls-2" d="M483.85,933.89l-8.26-9.41L650.25,793.89l23.11,14.63.81-.6,2.42-1.79-69.13-42.22-3.22,2.4,24.87,15.18h0l.72.44-17.31,14L611,795,454.25,911.45l-24.86-15.19-3.23,2.4.07.05v-.05ZM622.27,797a5.11,5.11,0,0,1,5.25.14c1.65,1,2,2.58.73,3.51a5.14,5.14,0,0,1-5.25-.15C621.35,799.47,621,797.9,622.27,797Zm-11.93,8.87c1.24-.93,3.59-.86,5.24.14s2,2.58.73,3.51a5.14,5.14,0,0,1-5.25-.15C609.41,808.34,609.09,806.78,610.34,805.85Zm-11.94,8.87c1.25-.93,3.59-.86,5.24.15s2,2.57.73,3.5-3.59.86-5.24-.15S597.15,815.65,598.4,814.72Zm-11.94,8.87c1.25-.93,3.6-.86,5.25.15s2,2.57.73,3.5-3.6.86-5.25-.15S585.22,824.52,586.46,823.59Zm-11.93,8.87c1.24-.92,3.59-.86,5.24.15s2,2.57.73,3.5-3.59.86-5.24-.14S573.28,833.39,574.53,832.46Zm-11.94,8.87a5.14,5.14,0,0,1,5.25.15c1.65,1,2,2.58.72,3.5s-3.59.87-5.24-.14S561.34,842.26,562.59,841.33Zm-11.94,8.88a5.11,5.11,0,0,1,5.25.14c1.65,1,2,2.58.73,3.51a5.14,5.14,0,0,1-5.25-.15C549.73,852.7,549.41,851.13,550.65,850.21Zm-11.93,8.87c1.24-.93,3.59-.86,5.24.14s2,2.58.73,3.51a5.12,5.12,0,0,1-5.24-.15C537.8,861.57,537.47,860,538.72,859.08ZM526.78,868c1.25-.93,3.6-.86,5.25.15s2,2.57.73,3.5-3.6.86-5.25-.15S525.53,868.88,526.78,868Zm-11.94,8.87c1.25-.93,3.6-.86,5.25.15s2,2.57.73,3.5-3.6.86-5.25-.15S513.6,877.75,514.84,876.82Zm-11.93,8.87a5.12,5.12,0,0,1,5.24.15c1.65,1,2,2.58.73,3.5s-3.59.86-5.24-.14S501.66,886.62,502.91,885.69ZM491,894.57a5.11,5.11,0,0,1,5.25.14c1.65,1,2,2.58.73,3.5a5.11,5.11,0,0,1-5.25-.14C490.05,897.06,489.73,895.49,491,894.57ZM479,903.44c1.24-.93,3.59-.86,5.24.14s2,2.58.73,3.51a5.14,5.14,0,0,1-5.25-.15C478.11,905.93,477.79,904.36,479,903.44Z"/><polygon class="cls-2" points="498.08 938.22 498.08 938.22 494.46 936.01 492.88 937.2 498.08 938.22"/><polygon class="cls-2" points="650.44 794.52 673.36 808.52 673.36 808.52 673.36 808.52 650.25 793.89 475.59 924.48 483.85 933.89 494.86 940.62 498.08 938.22 492.88 937.2 494.46 936.01 475.59 924.48 650.44 794.52"/><polygon class="cls-2" points="673.36 808.52 674.17 807.92 673.36 808.52 673.36 808.52"/><polygon class="cls-2" points="629.82 781.94 629.1 781.5 610.97 794.97 612.51 795.91 629.82 781.94"/><path class="cls-7" d="M660.94,810.87c-1.36.83-1.43,3.18-.16,5.25s3.39,3.08,4.75,2.25,1.44-3.19.17-5.26S662.3,810,660.94,810.87Z"/><path class="cls-7" d="M616.84,783.27c-1.27-2.07-3.4-3.08-4.76-2.24s-1.43,3.18-.16,5.25,3.39,3.08,4.75,2.25S618.11,785.34,616.84,783.27Z"/><path class="cls-24" d="M483.87,933.91l-57.64-35.2v24.65L495,965.11l-8.48-28.18Zm-44-9.09c-2,.84-4.68-1.14-6.1-4.42s-1-6.63.95-7.47,4.68,1.13,6.1,4.42S441.85,924,439.91,924.82Zm41.8,26c-1.95.85-4.68-1.13-6.1-4.41s-1-6.63,1-7.47,4.67,1.13,6.1,4.41S483.66,950,481.71,950.84Z"/><polygon class="cls-24" points="483.87 933.9 486.52 936.93 495 965.11 494.86 940.62 483.87 933.9"/><polygon class="cls-24" points="483.85 933.89 426.23 898.66 426.23 898.71 483.87 933.9 483.85 933.89"/><polygon class="cls-24" points="494.86 940.62 483.85 933.89 483.87 933.9 494.86 940.62"/><polygon class="cls-25" points="633.61 444.14 637.62 453.26 633.62 444.15 633.61 444.14 633.61 444.14"/><polygon class="cls-23" points="633.61 444.14 633.61 444.14 633.61 444.14 633.62 444.15 637.68 443.51 627.49 441.59 623 442.3 623.04 442.3 623.04 442.3 633.61 444.14"/><path class="cls-22" d="M639.41,457.47l0-.07-1.82-4.14-4-9.12L623,442.3l-4.75,11.42L624.12,467l10.57,1.84v0h0Zm-8.23,6.82-.33,0-.37.1c-3,.55-6.19-3-7.08-7.86s.83-9.31,3.85-9.86a2.34,2.34,0,0,1,.38,0,1.68,1.68,0,0,1,.32-.09c2.63-.49,5.5,3.09,6.39,8S633.82,463.81,631.18,464.29Z"/><polygon class="cls-22" points="633.61 444.14 623.04 442.3 623.04 442.3 633.61 444.14 633.61 444.14"/><polygon class="cls-24" points="637.68 443.51 633.62 444.15 637.62 453.26 639.44 457.4 639.41 457.47 643.18 456.88 643.21 456.81 637.68 443.51"/><polygon class="cls-24" points="639.41 457.47 639.41 457.47 639.44 457.4 637.62 453.26 639.44 457.4 639.41 457.47"/><polygon class="cls-23" points="634.7 468.79 638.47 468.2 643.18 456.88 639.41 457.47 634.7 468.79"/><rect class="cls-23" x="630.92" y="463.13" width="12.26" transform="translate(-35.12 873.63) rotate(-67.43)"/><path class="cls-21" d="M624.79,456.3c-.86-4.68.41-8.87,2.84-9.63a2.34,2.34,0,0,0-.38,0c-3,.55-4.75,5-3.85,9.86s4.06,8.41,7.08,7.86l.37-.1C628.31,464.46,625.64,461,624.79,456.3Z"/><polygon class="cls-8" points="615.21 778.77 610.95 779.67 609.33 780.67 613.73 779.67 613.74 779.67 615.21 778.77 615.21 778.77"/><polygon class="cls-9" points="618.12 789.05 613.73 790.04 609.34 785.85 609.34 780.66 613.73 779.67 618.12 783.87 618.12 789.05"/><polygon class="cls-10" points="619.49 783.03 615.21 778.77 613.74 779.67 618.12 783.87 618.12 783.9 619.49 783.06 619.49 783.03"/><polygon class="cls-8" points="618.12 783.9 618.12 789.04 619.49 788.21 619.49 783.06 618.12 783.9"/><ellipse class="cls-11" cx="612.9" cy="785.3" rx="2.2" ry="3.02"/><ellipse class="cls-12" cx="612.67" cy="785.44" rx="2.2" ry="3.02" transform="translate(-8.48 6.69) rotate(-0.62)"/><ellipse class="cls-13" cx="612.44" cy="785.59" rx="2.19" ry="3.02" transform="translate(-16.9 13.47) rotate(-1.24)"/><ellipse class="cls-14" cx="612.21" cy="785.73" rx="2.19" ry="3.02" transform="translate(-25.25 20.34) rotate(-1.87)"/><ellipse class="cls-15" cx="611.97" cy="785.87" rx="2.19" ry="3.02" transform="translate(-33.53 27.3) rotate(-2.49)"/><ellipse class="cls-16" cx="611.74" cy="786.02" rx="2.19" ry="3.02" transform="translate(-41.74 34.35) rotate(-3.11)"/><ellipse class="cls-17" cx="611.51" cy="786.16" rx="2.19" ry="3.02" transform="translate(-49.88 41.47) rotate(-3.73)"/><ellipse class="cls-18" cx="611.28" cy="786.3" rx="2.19" ry="3.02" transform="translate(-57.94 48.68) rotate(-4.35)"/><ellipse class="cls-19" cx="611.05" cy="786.45" rx="2.2" ry="3.02" transform="translate(-65.91 55.97) rotate(-4.98)"/><ellipse class="cls-20" cx="610.82" cy="786.59" rx="2.2" ry="3.02" transform="translate(-73.81 63.33) rotate(-5.6)"/><polygon class="cls-8" points="663.93 808.98 659.68 809.88 658.05 810.88 662.46 809.88 662.46 809.88 663.93 808.98 663.93 808.98"/><polygon class="cls-9" points="666.85 819.26 662.46 820.25 658.07 816.06 658.07 810.87 662.46 809.88 666.85 814.08 666.85 819.26"/><polygon class="cls-10" points="668.22 813.24 663.93 808.98 662.46 809.88 666.85 814.08 666.85 814.11 668.22 813.27 668.22 813.24"/><polygon class="cls-8" points="666.85 814.11 666.85 819.25 668.22 818.42 668.22 813.27 666.85 814.11"/><ellipse class="cls-11" cx="661.63" cy="815.51" rx="2.2" ry="3.02"/><ellipse class="cls-12" cx="661.4" cy="815.65" rx="2.2" ry="3.02" transform="translate(-8.8 7.22) rotate(-0.62)"/><ellipse class="cls-13" cx="661.16" cy="815.8" rx="2.19" ry="3.02" transform="translate(-17.54 14.53) rotate(-1.24)"/><ellipse class="cls-14" cx="660.93" cy="815.94" rx="2.19" ry="3.02" transform="translate(-26.21 21.94) rotate(-1.87)"/><ellipse class="cls-15" cx="660.7" cy="816.08" rx="2.19" ry="3.02" transform="matrix(1, -0.04, 0.04, 1, -34.8, 29.44)"/><ellipse class="cls-16" cx="660.47" cy="816.23" rx="2.19" ry="3.02" transform="translate(-43.31 37.03) rotate(-3.11)"/><ellipse class="cls-17" cx="660.24" cy="816.37" rx="2.19" ry="3.02" transform="translate(-51.74 44.71) rotate(-3.73)"/><ellipse class="cls-18" cx="660.01" cy="816.51" rx="2.19" ry="3.02" transform="translate(-60.09 52.47) rotate(-4.35)"/><ellipse class="cls-19" cx="659.77" cy="816.66" rx="2.2" ry="3.02" transform="translate(-68.35 60.31) rotate(-4.98)"/><ellipse class="cls-20" cx="659.54" cy="816.8" rx="2.2" ry="3.02" transform="translate(-76.52 68.22) rotate(-5.6)"/></g></svg>