<svg xmlns="http://www.w3.org/2000/svg" viewBox="0 0 956.13 971.68"><defs><style>.cls-1{fill:#ffb522;opacity:0.27;}.cls-2{fill:#7c7c7c;}.cls-3{fill:#303030;}.cls-4{fill:#424242;}.cls-5{fill:#606060;}.cls-6{fill:#898989;}.cls-7{fill:#515151;}.cls-8{fill:#fff;}.cls-9{fill:#7a7a7a;}.cls-10{fill:#999;}.cls-11,.cls-12{fill:#8e8e8e;}.cls-12,.cls-13,.cls-14,.cls-15,.cls-16,.cls-17,.cls-18,.cls-19,.cls-20,.cls-21{stroke:#fff;stroke-width:0.05px;}.cls-12,.cls-13,.cls-14,.cls-15,.cls-16,.cls-17,.cls-18,.cls-19,.cls-20,.cls-21,.cls-29,.cls-30{stroke-miterlimit:10;}.cls-13{fill:#919191;}.cls-14{fill:#949494;}.cls-15{fill:#979697;}.cls-16{fill:#9a999a;}.cls-17{fill:#9c9c9c;}.cls-18{fill:#9f9f9f;}.cls-19{fill:#a2a1a2;}.cls-20{fill:#a5a4a5;}.cls-21,.cls-27{fill:#a8a7a8;}.cls-22{fill:#9b9a9b;}.cls-23{fill:#7f7f7f;}.cls-24{fill:#545454;}.cls-25{fill:#6b6b6b;}.cls-26,.cls-31{fill:none;}.cls-28{fill:#2b2b2b;}.cls-29{fill:#959495;}.cls-29,.cls-30{stroke:#000;stroke-width:0.05px;}.cls-30{fill:#b7b7b7;}.cls-31{stroke:#606060;stroke-linecap:round;stroke-linejoin:round;stroke-width:4px;}</style></defs><g id="Layer_2" data-name="Layer 2"><circle class="cls-1" cx="711.66" cy="522.13" r="141.5"/><polygon class="cls-2" points="136 589.5 136 588.07 117.05 601.69 40.61 577.59 19.25 566.9 19.25 568.08 40.19 578.71 117.54 603.25 136 589.5"/><path class="cls-3" d="M117,601.69l19-13.62L91.57,542.76,68,531.34,19.25,566.9l21.36,10.69ZM82.48,572.48c-.2-1.46,1.72-2.43,4.29-2.17s4.83,1.66,5,3.12-1.72,2.43-4.29,2.17S82.69,573.94,82.48,572.48ZM116,588.89c-.2-1.46,1.72-2.43,4.29-2.17s4.83,1.66,5,3.12S123.6,592.27,121,592,116.2,590.35,116,588.89Z"/><polygon class="cls-2" points="337.11 441.27 337.11 439.83 318.16 453.45 241.72 429.36 220.36 418.67 220.36 419.84 241.3 430.47 318.65 455.02 337.11 441.27"/><path class="cls-3" d="M318.16,453.45l18.95-13.62-44.43-45.3-23.6-11.43-48.72,35.56,21.36,10.7ZM283.6,424.24c-.21-1.46,1.71-2.43,4.28-2.16s4.83,1.65,5,3.11-1.72,2.43-4.29,2.17S283.8,425.7,283.6,424.24Zm33.5,16.42c-.2-1.46,1.72-2.43,4.29-2.17s4.83,1.65,5,3.11-1.72,2.43-4.29,2.17S317.31,442.11,317.1,440.66Z"/><polygon class="cls-2" points="303.31 380.09 303.48 355.75 19.57 570.89 19.86 596.64 303.31 380.09"/><path class="cls-4" d="M303.48,355.75l-17-10.09L2.42,560.84l17.15,10Zm-18.85-2.53c1.38-1.05,4.27-.84,6.46.46s2.83,3.2,1.46,4.24-4.27.84-6.46-.46S283.25,354.26,284.63,353.22Zm-20,15.13c1.38-1.05,4.27-.84,6.46.46s2.84,3.19,1.46,4.24-4.27.84-6.45-.46S263.27,369.39,264.65,368.35Zm-35.68,27c1.38-1,4.27-.84,6.47.45s2.85,3.19,1.47,4.24-4.27.84-6.47-.45S227.59,396.42,229,395.37Zm-62.09,47c1.38-1,4.29-.85,6.49.44s2.87,3.17,1.49,4.21-4.28.85-6.49-.43S165.5,443.44,166.88,442.4Zm-35.32,26.75c1.38-1,4.28-.85,6.49.43s2.88,3.17,1.5,4.22-4.28.85-6.49-.44S130.18,470.2,131.56,469.15ZM69.11,516.44c1.38-1,4.3-.85,6.52.42s2.89,3.16,1.51,4.2-4.29.86-6.51-.41S67.74,517.49,69.11,516.44Zm-35.68,27c1.38-1.05,4.3-.86,6.52.41s2.91,3.15,1.53,4.19-4.3.86-6.52-.41S32.05,544.51,33.43,543.47Zm-20,15.13c1.38-1,4.3-.86,6.53.41s2.91,3.15,1.53,4.19-4.3.86-6.53-.41S12.07,559.65,13.45,558.6Z"/><polygon class="cls-5" points="2.67 586.12 2.58 560.56 19.84 570.67 19.84 596.16 2.67 586.12"/><path class="cls-4" d="M955.78,784.36,273.34,379.12l-17.85,14.41,681.21,404Zm-13.7,3.87a6.06,6.06,0,0,1-5.84,0c-1.67-1-1.75-2.6-.18-3.6a6.08,6.08,0,0,1,5.85,0C943.57,785.61,943.65,787.23,942.08,788.23ZM925,778.11a6.08,6.08,0,0,1-5.84,0c-1.66-1-1.74-2.6-.18-3.6a6.06,6.06,0,0,1,5.84,0C926.5,775.49,926.58,777.1,925,778.11ZM907.94,768a6.06,6.06,0,0,1-5.84,0c-1.66-1-1.74-2.6-.18-3.61a6.08,6.08,0,0,1,5.84,0C909.42,765.36,909.51,767,907.94,768Zm-17.07-10.12a6,6,0,0,1-5.83,0c-1.67-1-1.75-2.6-.19-3.61a6.06,6.06,0,0,1,5.84,0C892.35,755.24,892.43,756.85,890.87,757.86ZM873.8,747.74a6.06,6.06,0,0,1-5.83,0c-1.66-1-1.75-2.61-.19-3.61a6,6,0,0,1,5.83,0C875.28,745.11,875.36,746.73,873.8,747.74Zm-17.07-10.13a6.06,6.06,0,0,1-5.83,0c-1.66-1-1.75-2.61-.19-3.62a6,6,0,0,1,5.83,0C858.21,735,858.29,736.61,856.73,737.61Zm-17.06-10.12a6,6,0,0,1-5.83,0c-1.67-1-1.75-2.6-.2-3.61a6.06,6.06,0,0,1,5.83,0C841.13,724.86,841.22,726.48,839.67,727.49Zm-49.92-29.6a6,6,0,0,1-5.82,0c-1.67-1-1.76-2.6-.21-3.62a6,6,0,0,1,5.82,0C791.21,695.25,791.3,696.87,789.75,697.89Zm-29.23-22.75,3.2-2.11,12.92,7.66-3.21,2.1ZM275.38,392.84a5.77,5.77,0,0,1,5.73-.11c1.67,1,1.8,2.64.3,3.68a5.77,5.77,0,0,1-5.73.1C274,395.52,273.88,393.88,275.38,392.84Zm26.68,15.82a5.78,5.78,0,0,1,5.74-.1c1.66,1,1.79,2.63.29,3.67a5.79,5.79,0,0,1-5.74.1C300.69,411.34,300.56,409.7,302.06,408.66Zm16.35,9.7a5.79,5.79,0,0,1,5.74-.1c1.67,1,1.79,2.63.29,3.67a5.81,5.81,0,0,1-5.74.1C317,421,316.91,419.4,318.41,418.36Zm20.35,12.07a5.79,5.79,0,0,1,5.74-.1c1.67,1,1.79,2.63.29,3.67a5.79,5.79,0,0,1-5.74.09C337.38,433.11,337.26,431.46,338.76,430.43Zm44.5,26.38a5.85,5.85,0,0,1,5.75-.09c1.66,1,1.78,2.63.27,3.67a5.84,5.84,0,0,1-5.74.09C381.87,459.49,381.75,457.85,383.26,456.81Zm44.49,26.39a5.85,5.85,0,0,1,5.76-.08c1.67,1,1.79,2.62.27,3.66a5.85,5.85,0,0,1-5.76.08C426.36,485.87,426.24,484.24,427.75,483.2Zm44.5,26.39a5.87,5.87,0,0,1,5.77-.08c1.66,1,1.78,2.62.26,3.65a5.87,5.87,0,0,1-5.77.09C470.85,512.26,470.73,510.62,472.25,509.59ZM516.75,536a5.89,5.89,0,0,1,5.77-.08c1.66,1,1.78,2.62.25,3.65a5.87,5.87,0,0,1-5.77.08C515.34,538.64,515.22,537,516.75,536Zm44.49,26.39a5.89,5.89,0,0,1,5.78-.07c1.67,1,1.78,2.62.25,3.64a5.89,5.89,0,0,1-5.78.07C559.82,565,559.71,563.4,561.24,562.37Zm44.5,26.39a5.91,5.91,0,0,1,5.79-.07c1.66,1,1.77,2.62.23,3.64a5.94,5.94,0,0,1-5.78.07C604.31,591.41,604.21,589.78,605.74,588.76Zm44.49,26.39a6,6,0,0,1,5.8-.07c1.66,1,1.77,2.62.23,3.64a6,6,0,0,1-5.8.06C648.8,617.8,648.7,616.17,650.23,615.15Zm44.5,26.39a6,6,0,0,1,5.8-.06c1.67,1,1.77,2.61.23,3.63a6,6,0,0,1-5.81.06C693.29,644.18,693.19,642.55,694.73,641.54Zm44.5,26.38a6,6,0,0,1,5.81,0c1.66,1,1.76,2.61.21,3.63a6,6,0,0,1-5.81,0C737.78,670.56,737.68,668.94,739.23,667.92Zm12.62,12.9,9,.52.26-.17.4-.26,3.33-2.19,2.47,1.47-5.2,3.41a3,3,0,0,0-.37.28c-.71.64-.79,1.39-.12,1.79a3.35,3.35,0,0,0,2.86-.16,3,3,0,0,0,.43-.24l5.21-3.42,2.47,1.47-5.21,3.41-.4.26h0c-2.83,1.68-6.62,2.07-8.65.86-1.67-1-1.68-2.76-.23-4.38l-9.47-.54Z"/><path class="cls-5" d="M936.7,797.53l-681.21-404-.39,24.18L936.92,821.38ZM272.65,415.92c-.13-2,1.12-2.76,2.78-1.77a7.48,7.48,0,0,1,3.24,5.34c.13,2-1.12,2.75-2.78,1.77A7.52,7.52,0,0,1,272.65,415.92Zm14.14,8.38c-.13-2,1.12-2.75,2.78-1.77a7.52,7.52,0,0,1,3.24,5.34c.13,2-1.12,2.76-2.78,1.77A7.48,7.48,0,0,1,286.79,424.3Zm14.14,8.39c-.12-2,1.12-2.75,2.78-1.77a7.46,7.46,0,0,1,3.24,5.34c.13,2-1.12,2.75-2.78,1.77A7.52,7.52,0,0,1,300.93,432.69Zm14.14,8.39c-.12-2,1.12-2.76,2.78-1.77a7.42,7.42,0,0,1,3.24,5.34c.13,2-1.12,2.75-2.78,1.76A7.48,7.48,0,0,1,315.07,441.08Zm14.14,8.38c-.12-2,1.12-2.75,2.79-1.76a7.44,7.44,0,0,1,3.23,5.33c.13,2-1.12,2.75-2.78,1.77A7.52,7.52,0,0,1,329.21,449.46Zm14.14,8.39c-.12-2,1.13-2.75,2.79-1.77a7.48,7.48,0,0,1,3.23,5.34c.13,2-1.12,2.75-2.78,1.76A7.48,7.48,0,0,1,343.35,457.85Zm14.14,8.38c-.12-2,1.13-2.75,2.79-1.76a7.44,7.44,0,0,1,3.23,5.33c.13,2-1.12,2.76-2.78,1.77A7.5,7.5,0,0,1,357.49,466.23Zm14.14,8.39c-.12-2,1.13-2.75,2.79-1.76a7.44,7.44,0,0,1,3.23,5.33c.13,2-1.12,2.75-2.78,1.77A7.49,7.49,0,0,1,371.63,474.62ZM385.78,483c-.13-2,1.12-2.75,2.78-1.77a7.44,7.44,0,0,1,3.23,5.34c.13,2-1.12,2.75-2.78,1.76A7.41,7.41,0,0,1,385.78,483Zm14.14,8.38c-.13-2,1.12-2.75,2.78-1.76a7.42,7.42,0,0,1,3.23,5.33c.13,2-1.12,2.75-2.78,1.77A7.44,7.44,0,0,1,399.92,491.39Zm14.61,8.67c-.12-2,1.13-2.75,2.79-1.76a7.42,7.42,0,0,1,3.23,5.33c.12,2-1.12,2.75-2.79,1.77A7.51,7.51,0,0,1,414.53,500.06Zm7.72,4.58c-.12-2,1.13-2.75,2.79-1.76a7.41,7.41,0,0,1,3.23,5.33c.12,2-1.13,2.75-2.79,1.76A7.44,7.44,0,0,1,422.25,504.64Zm7.72,4.58c-.12-2,1.13-2.75,2.79-1.76a7.44,7.44,0,0,1,3.23,5.33c.12,2-1.13,2.75-2.79,1.76A7.44,7.44,0,0,1,430,509.22Zm7.72,4.58c-.12-2,1.13-2.75,2.79-1.77a7.48,7.48,0,0,1,3.23,5.34c.12,2-1.13,2.74-2.79,1.76A7.46,7.46,0,0,1,437.69,513.8Zm7.72,4.57c-.12-2,1.13-2.74,2.79-1.76a7.46,7.46,0,0,1,3.23,5.33c.12,2-1.13,2.75-2.79,1.77A7.44,7.44,0,0,1,445.41,518.37Zm7.72,4.58c-.12-2,1.13-2.75,2.79-1.76a7.46,7.46,0,0,1,3.23,5.33c.12,2-1.13,2.75-2.8,1.76A7.43,7.43,0,0,1,453.13,523Zm7.72,4.58c-.12-2,1.13-2.75,2.79-1.76a7.44,7.44,0,0,1,3.23,5.33c.11,2-1.14,2.75-2.8,1.76A7.44,7.44,0,0,1,460.85,527.53Zm7.71,4.58c-.11-2,1.14-2.75,2.8-1.76a7.43,7.43,0,0,1,3.22,5.33c.12,2-1.13,2.74-2.79,1.76A7.46,7.46,0,0,1,468.56,532.11Zm7.72,4.57c-.12-1.95,1.13-2.74,2.8-1.76a7.46,7.46,0,0,1,3.22,5.33c.12,2-1.13,2.75-2.79,1.77A7.48,7.48,0,0,1,476.28,536.68Zm7.72,4.58c-.12-2,1.13-2.74,2.8-1.76a7.44,7.44,0,0,1,3.22,5.33c.12,2-1.13,2.75-2.79,1.76A7.41,7.41,0,0,1,484,541.26Zm7.72,4.58c-.12-2,1.13-2.75,2.8-1.76a7.43,7.43,0,0,1,3.22,5.33c.12,2-1.13,2.75-2.8,1.76A7.44,7.44,0,0,1,491.72,545.84Zm7.72,4.58c-.12-2,1.13-2.75,2.79-1.76a7.41,7.41,0,0,1,3.23,5.33c.12,2-1.14,2.74-2.8,1.76A7.44,7.44,0,0,1,499.44,550.42Zm7.72,4.57c-.12-2,1.13-2.74,2.79-1.76a7.44,7.44,0,0,1,3.23,5.33c.11,2-1.14,2.75-2.8,1.76A7.43,7.43,0,0,1,507.16,555Zm7.72,4.58c-.12-2,1.13-2.74,2.79-1.76a7.42,7.42,0,0,1,3.23,5.33c.11,2-1.14,2.75-2.8,1.76A7.39,7.39,0,0,1,514.88,559.57Zm7.72,4.58c-.12-2,1.13-2.75,2.79-1.76a7.41,7.41,0,0,1,3.22,5.33c.12,2-1.13,2.74-2.79,1.76A7.41,7.41,0,0,1,522.6,564.15Zm7.71,4.58c-.11-2,1.14-2.75,2.8-1.76a7.39,7.39,0,0,1,3.22,5.33c.12,2-1.13,2.74-2.79,1.76A7.42,7.42,0,0,1,530.31,568.73Zm7.72,4.58c-.11-2,1.14-2.75,2.8-1.76a7.39,7.39,0,0,1,3.22,5.33c.12,2-1.13,2.74-2.8,1.75A7.42,7.42,0,0,1,538,573.31Zm7.72,4.57c-.12-2,1.14-2.74,2.8-1.76a7.46,7.46,0,0,1,3.22,5.33c.12,2-1.14,2.75-2.8,1.76A7.43,7.43,0,0,1,545.75,577.88Zm7.72,4.58c-.12-2,1.14-2.74,2.8-1.76a7.44,7.44,0,0,1,3.22,5.33c.11,2-1.14,2.74-2.8,1.76A7.44,7.44,0,0,1,553.47,582.46Zm7.72,4.58c-.12-2,1.14-2.75,2.8-1.76a7.44,7.44,0,0,1,3.22,5.33c.11,1.95-1.14,2.74-2.8,1.76A7.43,7.43,0,0,1,561.19,587Zm7.72,4.58c-.12-2,1.14-2.75,2.8-1.76a7.43,7.43,0,0,1,3.22,5.33c.11,1.95-1.14,2.74-2.8,1.75A7.36,7.36,0,0,1,568.91,591.62Zm15.23,9c-.11-2,1.14-2.74,2.8-1.76a7.38,7.38,0,0,1,3.22,5.33c.12,2-1.14,2.74-2.8,1.76A7.44,7.44,0,0,1,584.14,600.65Zm15.24,9c-.12-2,1.14-2.75,2.8-1.76a7.4,7.4,0,0,1,3.21,5.33c.12,2-1.14,2.74-2.8,1.75A7.38,7.38,0,0,1,599.38,609.69Zm15.23,9c-.11-2,1.14-2.74,2.8-1.75a7.36,7.36,0,0,1,3.22,5.32c.11,2-1.14,2.74-2.8,1.76A7.38,7.38,0,0,1,614.61,618.72Zm15.23,9c-.11-2,1.15-2.75,2.81-1.76a7.4,7.4,0,0,1,3.21,5.33c.12,1.95-1.14,2.74-2.8,1.75A7.44,7.44,0,0,1,629.84,627.76Zm15.24,9c-.11-1.95,1.14-2.74,2.8-1.75a7.36,7.36,0,0,1,3.22,5.32c.11,1.95-1.15,2.74-2.81,1.75A7.36,7.36,0,0,1,645.08,636.79Zm15.23,9c-.11-2,1.15-2.74,2.81-1.76a7.4,7.4,0,0,1,3.21,5.33c.11,2-1.14,2.73-2.8,1.75A7.41,7.41,0,0,1,660.31,645.83Zm15.24,9c-.11-2,1.14-2.74,2.81-1.75a7.38,7.38,0,0,1,3.21,5.32c.11,2-1.15,2.74-2.81,1.75A7.38,7.38,0,0,1,675.55,654.86Zm15.23,9c-.11-2,1.15-2.74,2.81-1.76a7.4,7.4,0,0,1,3.21,5.33c.11,1.95-1.15,2.73-2.81,1.75A7.4,7.4,0,0,1,690.78,663.9Zm15.24,9c-.11-1.95,1.14-2.74,2.81-1.75A7.38,7.38,0,0,1,712,676.5c.11,2-1.15,2.74-2.81,1.75A7.35,7.35,0,0,1,706,672.93Zm15.23,9c-.11-2,1.15-2.74,2.81-1.76a7.4,7.4,0,0,1,3.21,5.32c.11,2-1.15,2.74-2.81,1.76A7.4,7.4,0,0,1,721.25,682Zm15.23,9c-.1-2,1.15-2.74,2.82-1.75a7.39,7.39,0,0,1,3.2,5.32c.11,1.95-1.15,2.74-2.81,1.75A7.4,7.4,0,0,1,736.48,691Zm15.24,9c-.11-1.95,1.15-2.73,2.81-1.75a7.4,7.4,0,0,1,3.21,5.32c.11,2-1.15,2.74-2.81,1.75A7.33,7.33,0,0,1,751.72,700Zm15.23,9c-.1-2,1.16-2.74,2.82-1.75a7.39,7.39,0,0,1,3.2,5.32c.11,2-1.15,2.73-2.81,1.75A7.4,7.4,0,0,1,767,709.07Zm15.24,9c-.11-2,1.15-2.73,2.81-1.74a7.33,7.33,0,0,1,3.21,5.31c.1,2-1.16,2.74-2.82,1.75A7.35,7.35,0,0,1,782.19,718.1Zm15.23,9c-.1-1.95,1.16-2.73,2.82-1.75a7.39,7.39,0,0,1,3.2,5.32c.11,1.95-1.15,2.73-2.81,1.75A7.37,7.37,0,0,1,797.42,727.14Zm15.24,9c-.11-1.95,1.15-2.73,2.81-1.74a7.33,7.33,0,0,1,3.21,5.31c.1,2-1.16,2.74-2.82,1.75A7.32,7.32,0,0,1,812.66,736.17Zm15.23,9c-.11-2,1.16-2.73,2.82-1.75a7.39,7.39,0,0,1,3.2,5.32c.11,2-1.16,2.73-2.82,1.75A7.39,7.39,0,0,1,827.89,745.21Zm15.23,9c-.1-2,1.16-2.73,2.82-1.74a7.29,7.29,0,0,1,3.2,5.31c.11,2-1.15,2.74-2.82,1.75A7.39,7.39,0,0,1,843.12,754.24Zm15.24,9c-.11-1.95,1.16-2.73,2.82-1.75a7.39,7.39,0,0,1,3.2,5.32c.1,1.95-1.16,2.73-2.82,1.74A7.32,7.32,0,0,1,858.36,763.28Zm15.23,9c-.1-1.95,1.16-2.73,2.83-1.74a7.31,7.31,0,0,1,3.19,5.31c.11,2-1.16,2.73-2.82,1.75A7.39,7.39,0,0,1,873.59,772.31Zm15.24,9c-.11-2,1.16-2.73,2.82-1.75a7.39,7.39,0,0,1,3.2,5.32c.1,2-1.16,2.73-2.83,1.74A7.31,7.31,0,0,1,888.83,781.35Zm15.23,9c-.1-1.94,1.16-2.73,2.83-1.74a7.35,7.35,0,0,1,3.19,5.31c.1,1.95-1.16,2.73-2.82,1.75A7.39,7.39,0,0,1,904.06,790.38Zm15.24,9c-.11-1.95,1.16-2.73,2.82-1.74a7.35,7.35,0,0,1,3.2,5.31c.1,2-1.17,2.73-2.83,1.74A7.31,7.31,0,0,1,919.3,799.42Z"/><polygon class="cls-6" points="936.7 797.53 955.78 784.36 956.13 807.89 936.92 821.38 936.7 797.53"/><path class="cls-4" d="M952.1,405,269.25,0,250.63,14l681.9,404.4Zm-14.19,4.09a6.08,6.08,0,0,1-5.84,0c-1.67-1-1.75-2.6-.18-3.61a6.1,6.1,0,0,1,5.85,0C939.4,406.45,939.48,408.06,937.91,409.06Zm-17.07-10.12a6.08,6.08,0,0,1-5.84,0c-1.66-1-1.74-2.61-.18-3.61a6.08,6.08,0,0,1,5.84,0C922.33,396.32,922.41,397.94,920.84,398.94Zm-17.07-10.12a6.08,6.08,0,0,1-5.84,0c-1.66-1-1.74-2.6-.18-3.61a6.08,6.08,0,0,1,5.84,0C905.25,386.2,905.34,387.81,903.77,388.82ZM886.7,378.69a6,6,0,0,1-5.83,0c-1.67-1-1.75-2.6-.19-3.61a6.08,6.08,0,0,1,5.84,0C888.18,376.07,888.27,377.69,886.7,378.69Zm-17.07-10.12a6,6,0,0,1-5.83,0c-1.66-1-1.75-2.6-.19-3.61a6,6,0,0,1,5.83,0C871.11,366,871.19,367.56,869.63,368.57Zm-17.06-10.12a6.06,6.06,0,0,1-5.84,0c-1.66-1-1.75-2.61-.19-3.62a6.09,6.09,0,0,1,5.83,0C854,355.82,854.12,357.44,852.57,358.45ZM835.5,348.32a6.06,6.06,0,0,1-5.83.05c-1.67-1-1.75-2.61-.2-3.62a6,6,0,0,1,5.83,0C837,345.69,837.05,347.31,835.5,348.32Zm-49.92-29.6a6,6,0,0,1-5.82,0c-1.66-1-1.76-2.61-.21-3.62a6,6,0,0,1,5.82,0C787,316.08,787.13,317.71,785.58,318.72ZM756.35,296l3.2-2.1,12.92,7.66-3.21,2.1ZM271.21,13.67a5.77,5.77,0,0,1,5.73-.1c1.67,1,1.8,2.63.3,3.67a5.77,5.77,0,0,1-5.73.1C269.84,16.36,269.71,14.71,271.21,13.67Zm26.68,15.82a5.81,5.81,0,0,1,5.74-.1c1.66,1,1.79,2.63.29,3.68a5.79,5.79,0,0,1-5.74.09C296.52,32.18,296.39,30.53,297.89,29.49Zm16.35,9.7a5.81,5.81,0,0,1,5.74-.1c1.67,1,1.79,2.63.29,3.67a5.79,5.79,0,0,1-5.74.1C312.87,41.87,312.74,40.23,314.24,39.19Zm20.35,12.07a5.81,5.81,0,0,1,5.74-.1c1.67,1,1.79,2.63.29,3.67a5.81,5.81,0,0,1-5.74.1C333.21,53.94,333.09,52.3,334.59,51.26Zm44.5,26.39a5.8,5.8,0,0,1,5.75-.09c1.66,1,1.79,2.62.27,3.66a5.79,5.79,0,0,1-5.74.09C377.7,80.32,377.58,78.68,379.09,77.65ZM423.58,104a5.82,5.82,0,0,1,5.76-.09c1.67,1,1.79,2.62.27,3.66a5.85,5.85,0,0,1-5.76.08C422.19,106.71,422.07,105.07,423.58,104Zm44.5,26.38a5.89,5.89,0,0,1,5.77-.08c1.66,1,1.78,2.63.26,3.66a5.89,5.89,0,0,1-5.77.08C466.68,133.09,466.56,131.46,468.08,130.42Zm44.5,26.39a5.87,5.87,0,0,1,5.77-.07c1.66,1,1.78,2.62.25,3.65a5.87,5.87,0,0,1-5.77.07C511.17,159.48,511.05,157.84,512.58,156.81Zm44.49,26.39a5.91,5.91,0,0,1,5.78-.07c1.67,1,1.78,2.62.25,3.65a5.94,5.94,0,0,1-5.78.07C555.65,185.86,555.54,184.23,557.07,183.2Zm44.5,26.39a6,6,0,0,1,5.79-.07c1.66,1,1.77,2.62.23,3.64a5.89,5.89,0,0,1-5.78.07C600.14,212.24,600,210.62,601.57,209.59ZM646.06,236a6,6,0,0,1,5.8-.06c1.66,1,1.77,2.61.23,3.63a6,6,0,0,1-5.8.07C644.63,238.63,644.53,237,646.06,236Zm44.5,26.39a6,6,0,0,1,5.8-.06c1.67,1,1.77,2.61.23,3.63a6,6,0,0,1-5.81.06C689.12,265,689,263.39,690.56,262.37Zm44.5,26.39a6,6,0,0,1,5.81-.06c1.66,1,1.76,2.62.21,3.63a6,6,0,0,1-5.81.05C733.61,291.4,733.51,289.77,735.06,288.76Zm12.62,12.9,9,.51L757,302l.4-.27,3.33-2.18,2.47,1.46-5.2,3.42a1.8,1.8,0,0,0-.37.28c-.71.64-.79,1.39-.12,1.79a3.35,3.35,0,0,0,2.86-.17,3,3,0,0,0,.43-.24l5.21-3.41,2.47,1.46-5.21,3.41-.4.27h0c-2.83,1.67-6.62,2.07-8.65.86-1.67-1-1.68-2.76-.23-4.39l-9.47-.53Z"/><path class="cls-5" d="M932.53,418.36,250.63,14l.29,24.22L933,443.05Zm-664-381.61c-.13-2,1.12-2.76,2.78-1.77a7.52,7.52,0,0,1,3.24,5.34c.13,2-1.12,2.76-2.78,1.77A7.52,7.52,0,0,1,268.48,36.75Zm14.14,8.39c-.13-2,1.12-2.76,2.78-1.77a7.48,7.48,0,0,1,3.24,5.34c.13,2-1.12,2.75-2.78,1.77A7.52,7.52,0,0,1,282.62,45.14Zm14.14,8.38c-.12-2,1.12-2.75,2.78-1.77a7.46,7.46,0,0,1,3.24,5.34c.13,2-1.12,2.76-2.78,1.77A7.5,7.5,0,0,1,296.76,53.52Zm14.14,8.39c-.12-2,1.12-2.75,2.79-1.77a7.48,7.48,0,0,1,3.23,5.34c.13,2-1.12,2.75-2.78,1.77A7.52,7.52,0,0,1,310.9,61.91ZM325,70.3c-.12-2,1.12-2.76,2.79-1.77a7.44,7.44,0,0,1,3.23,5.34c.13,2-1.12,2.75-2.78,1.76A7.48,7.48,0,0,1,325,70.3Zm14.14,8.38c-.12-2,1.13-2.75,2.79-1.77a7.48,7.48,0,0,1,3.23,5.34c.13,2-1.12,2.75-2.78,1.77A7.52,7.52,0,0,1,339.18,78.68Zm14.14,8.39c-.12-2,1.13-2.75,2.79-1.77a7.48,7.48,0,0,1,3.23,5.34c.13,2-1.12,2.75-2.78,1.76A7.48,7.48,0,0,1,353.32,87.07Zm14.14,8.38c-.12-2,1.13-2.75,2.79-1.76A7.44,7.44,0,0,1,373.48,99c.13,2-1.12,2.75-2.78,1.77A7.52,7.52,0,0,1,367.46,95.45Zm14.15,8.39c-.13-2,1.12-2.75,2.78-1.76a7.41,7.41,0,0,1,3.23,5.33c.13,2-1.12,2.75-2.78,1.76A7.41,7.41,0,0,1,381.61,103.84Zm14.14,8.39c-.13-2,1.12-2.75,2.78-1.77a7.49,7.49,0,0,1,3.24,5.34c.12,2-1.13,2.75-2.79,1.76A7.42,7.42,0,0,1,395.75,112.23Zm14.61,8.67c-.12-2,1.13-2.75,2.79-1.77a7.44,7.44,0,0,1,3.23,5.34c.12,2-1.12,2.75-2.79,1.76A7.49,7.49,0,0,1,410.36,120.9Zm7.72,4.57c-.12-2,1.13-2.75,2.79-1.76A7.42,7.42,0,0,1,424.1,129c.12,2-1.13,2.75-2.79,1.77A7.48,7.48,0,0,1,418.08,125.47Zm7.72,4.58c-.12-2,1.13-2.75,2.79-1.76a7.44,7.44,0,0,1,3.23,5.33c.12,2-1.13,2.75-2.79,1.76A7.44,7.44,0,0,1,425.8,130.05Zm7.72,4.58c-.12-2,1.13-2.75,2.79-1.76a7.44,7.44,0,0,1,3.23,5.33c.12,2-1.13,2.75-2.79,1.76A7.44,7.44,0,0,1,433.52,134.63Zm7.72,4.58c-.12-2,1.13-2.75,2.79-1.77a7.48,7.48,0,0,1,3.23,5.34c.12,2-1.13,2.74-2.79,1.76A7.42,7.42,0,0,1,441.24,139.21Zm7.72,4.57c-.12-1.95,1.13-2.74,2.79-1.76a7.48,7.48,0,0,1,3.23,5.33c.12,2-1.13,2.75-2.8,1.77A7.46,7.46,0,0,1,449,143.78Zm7.72,4.58c-.12-2,1.13-2.75,2.79-1.76a7.46,7.46,0,0,1,3.23,5.33c.12,2-1.14,2.75-2.8,1.76A7.43,7.43,0,0,1,456.68,148.36Zm7.71,4.58c-.11-2,1.14-2.75,2.8-1.76a7.43,7.43,0,0,1,3.22,5.33c.12,2-1.13,2.75-2.79,1.76A7.46,7.46,0,0,1,464.39,152.94Zm7.72,4.58c-.12-2,1.14-2.75,2.8-1.76a7.43,7.43,0,0,1,3.22,5.33c.12,2-1.13,2.74-2.79,1.76A7.46,7.46,0,0,1,472.11,157.52Zm7.72,4.58c-.12-2,1.13-2.75,2.8-1.77a7.46,7.46,0,0,1,3.22,5.33c.12,2-1.13,2.75-2.79,1.77A7.44,7.44,0,0,1,479.83,162.1Zm7.72,4.57c-.12-2,1.13-2.74,2.8-1.76a7.44,7.44,0,0,1,3.22,5.33c.12,2-1.13,2.75-2.8,1.76A7.43,7.43,0,0,1,487.55,166.67Zm7.72,4.58c-.12-2,1.13-2.75,2.8-1.76a7.44,7.44,0,0,1,3.22,5.33c.12,2-1.13,2.75-2.8,1.76A7.44,7.44,0,0,1,495.27,171.25Zm7.72,4.58c-.12-2,1.13-2.75,2.79-1.76A7.41,7.41,0,0,1,509,179.4c.12,2-1.14,2.74-2.8,1.76A7.44,7.44,0,0,1,503,175.83Zm7.72,4.58c-.12-2,1.13-2.75,2.79-1.76a7.41,7.41,0,0,1,3.23,5.33c.11,2-1.14,2.74-2.8,1.75A7.39,7.39,0,0,1,510.71,180.41Zm7.72,4.57c-.12-1.95,1.13-2.74,2.79-1.76a7.43,7.43,0,0,1,3.22,5.33c.12,2-1.13,2.75-2.79,1.76A7.39,7.39,0,0,1,518.43,185Zm7.71,4.58c-.11-2,1.14-2.74,2.8-1.76a7.41,7.41,0,0,1,3.22,5.33c.12,2-1.13,2.75-2.79,1.76A7.42,7.42,0,0,1,526.14,189.56Zm7.72,4.58c-.11-2,1.14-2.75,2.8-1.76a7.41,7.41,0,0,1,3.22,5.33c.12,2-1.13,2.74-2.8,1.76A7.44,7.44,0,0,1,533.86,194.14Zm7.72,4.58c-.12-2,1.14-2.75,2.8-1.76a7.43,7.43,0,0,1,3.22,5.33c.12,2-1.14,2.74-2.8,1.75A7.42,7.42,0,0,1,541.58,198.72Zm7.72,4.57c-.12-1.95,1.14-2.74,2.8-1.75a7.42,7.42,0,0,1,3.22,5.32c.12,2-1.14,2.75-2.8,1.76A7.43,7.43,0,0,1,549.3,203.29Zm7.72,4.58c-.12-2,1.14-2.74,2.8-1.76a7.44,7.44,0,0,1,3.22,5.33c.11,2-1.14,2.74-2.8,1.76A7.41,7.41,0,0,1,557,207.87Zm7.72,4.58c-.12-2,1.14-2.74,2.8-1.76a7.44,7.44,0,0,1,3.22,5.33c.11,2-1.14,2.74-2.8,1.76A7.38,7.38,0,0,1,564.74,212.45Zm15.23,9c-.11-1.95,1.14-2.74,2.8-1.75a7.36,7.36,0,0,1,3.22,5.32c.12,2-1.14,2.75-2.8,1.76A7.44,7.44,0,0,1,580,221.48Zm15.24,9c-.12-2,1.14-2.74,2.8-1.76a7.44,7.44,0,0,1,3.22,5.33c.11,1.95-1.15,2.74-2.81,1.75A7.38,7.38,0,0,1,595.21,230.52Zm15.23,9c-.11-2,1.14-2.74,2.8-1.75a7.36,7.36,0,0,1,3.22,5.32c.11,2-1.14,2.74-2.8,1.76A7.38,7.38,0,0,1,610.44,239.55Zm15.23,9c-.11-2,1.15-2.74,2.81-1.76a7.4,7.4,0,0,1,3.21,5.33c.12,2-1.14,2.74-2.8,1.75A7.42,7.42,0,0,1,625.67,248.59Zm15.24,9c-.11-2,1.14-2.74,2.8-1.75a7.38,7.38,0,0,1,3.22,5.32c.11,2-1.15,2.74-2.81,1.76A7.4,7.4,0,0,1,640.91,257.62Zm15.23,9c-.11-2,1.15-2.74,2.81-1.76a7.4,7.4,0,0,1,3.21,5.33c.11,1.95-1.14,2.74-2.8,1.75A7.39,7.39,0,0,1,656.14,266.66Zm15.24,9c-.11-1.95,1.14-2.74,2.81-1.75a7.4,7.4,0,0,1,3.21,5.32c.11,2-1.15,2.74-2.81,1.76A7.4,7.4,0,0,1,671.38,275.69Zm15.23,9c-.11-2,1.15-2.74,2.81-1.75a7.36,7.36,0,0,1,3.21,5.32c.11,1.95-1.15,2.74-2.81,1.75A7.4,7.4,0,0,1,686.61,284.73Zm15.24,9c-.11-1.95,1.14-2.73,2.81-1.75a7.4,7.4,0,0,1,3.21,5.32c.11,2-1.15,2.74-2.81,1.75A7.33,7.33,0,0,1,701.85,293.76Zm15.23,9c-.11-1.95,1.15-2.74,2.81-1.75a7.38,7.38,0,0,1,3.21,5.32c.11,1.95-1.15,2.73-2.81,1.75A7.4,7.4,0,0,1,717.08,302.8Zm15.23,9c-.1-1.95,1.15-2.73,2.82-1.75a7.36,7.36,0,0,1,3.2,5.32c.11,2-1.15,2.74-2.81,1.75A7.36,7.36,0,0,1,732.31,311.83Zm15.24,9c-.11-1.95,1.15-2.74,2.81-1.75a7.38,7.38,0,0,1,3.21,5.32c.11,1.95-1.15,2.73-2.81,1.75A7.37,7.37,0,0,1,747.55,320.87Zm15.23,9c-.1-1.95,1.16-2.73,2.82-1.75a7.36,7.36,0,0,1,3.2,5.32c.11,1.95-1.15,2.74-2.81,1.75A7.38,7.38,0,0,1,762.78,329.9Zm15.24,9c-.11-1.95,1.15-2.74,2.81-1.75a7.35,7.35,0,0,1,3.21,5.32c.1,1.95-1.16,2.73-2.82,1.75A7.39,7.39,0,0,1,778,338.94Zm15.23,9c-.1-2,1.16-2.73,2.82-1.75a7.39,7.39,0,0,1,3.2,5.32c.11,1.95-1.15,2.74-2.81,1.75A7.37,7.37,0,0,1,793.25,348Zm15.24,9c-.11-1.95,1.15-2.74,2.81-1.75a7.37,7.37,0,0,1,3.21,5.32c.1,1.95-1.16,2.73-2.82,1.74A7.32,7.32,0,0,1,808.49,357Zm15.23,9c-.1-2,1.16-2.73,2.82-1.74a7.35,7.35,0,0,1,3.2,5.31c.11,1.95-1.16,2.73-2.82,1.75A7.39,7.39,0,0,1,823.72,366Zm15.24,9c-.11-1.95,1.15-2.73,2.81-1.75a7.33,7.33,0,0,1,3.2,5.32c.11,2-1.15,2.73-2.81,1.74A7.29,7.29,0,0,1,839,375.08Zm15.23,9c-.1-1.95,1.16-2.73,2.82-1.74a7.35,7.35,0,0,1,3.2,5.31c.1,1.95-1.16,2.73-2.82,1.75A7.36,7.36,0,0,1,854.19,384.11Zm15.23,9c-.1-1.95,1.16-2.73,2.83-1.75a7.35,7.35,0,0,1,3.19,5.32c.11,1.95-1.16,2.73-2.82,1.74A7.35,7.35,0,0,1,869.42,393.15Zm15.24,9c-.11-1.95,1.16-2.73,2.82-1.74a7.35,7.35,0,0,1,3.2,5.31c.1,1.95-1.16,2.73-2.83,1.75A7.35,7.35,0,0,1,884.66,402.18Zm15.23,9c-.1-2,1.16-2.73,2.83-1.75a7.35,7.35,0,0,1,3.19,5.32c.1,1.95-1.16,2.73-2.82,1.74A7.37,7.37,0,0,1,899.89,411.22Zm15.24,9c-.11-1.95,1.16-2.73,2.82-1.74a7.35,7.35,0,0,1,3.2,5.31c.1,1.95-1.17,2.73-2.83,1.74A7.31,7.31,0,0,1,915.13,420.25Z"/><polygon class="cls-6" points="932.53 418.36 952.1 404.97 952.5 429.35 933 443.06 932.53 418.36"/><polygon class="cls-5" points="955.78 784.36 936.7 797.53 936.64 793.05 955.85 780.03 955.78 784.36"/><polygon class="cls-3" points="866.98 751.74 896.29 769.13 895.46 748.54 882.48 740.84 866.98 751.74"/><path class="cls-3" d="M955.85,780,932.4,766.12l-4.27-324.79-19.36-11,4.78,348.8v.2l23.1,13.7Zm-37.69-4.7Z"/><path class="cls-7" d="M936.65,793.06l-23.1-13.7-3.74-345.61L933,447.52l19.52-13.7-.06-4.48L933,443.05l-69.8-41.39,0,4.47L888.31,421l3.74,345.62L867,751.74l0,4.47,69.67,41.32ZM895.19,435.27c0-1.72,1.31-2.33,3-1.34a6.56,6.56,0,0,1,3.05,4.91c0,1.73-1.32,2.32-3,1.34A6.53,6.53,0,0,1,895.19,435.27Zm.17,16.25c0-1.72,1.31-2.32,3-1.34a6.58,6.58,0,0,1,3,4.91c0,1.74-1.31,2.34-3,1.35A6.58,6.58,0,0,1,895.36,451.52Zm.18,16.25c0-1.72,1.32-2.32,3-1.33a6.57,6.57,0,0,1,3,4.91c0,1.73-1.32,2.33-3,1.34A6.53,6.53,0,0,1,895.54,467.77Zm.17,16.27c0-1.73,1.32-2.34,3-1.35a6.53,6.53,0,0,1,3,4.92c0,1.72-1.31,2.32-3,1.34A6.56,6.56,0,0,1,895.71,484Zm.18,16.25c0-1.73,1.31-2.33,3-1.35a6.59,6.59,0,0,1,3,4.92c0,1.72-1.32,2.33-3,1.34A6.53,6.53,0,0,1,895.89,500.29Zm.17,16.25c0-1.73,1.31-2.32,3-1.34a6.52,6.52,0,0,1,3.05,4.92c0,1.71-1.31,2.32-3,1.33A6.57,6.57,0,0,1,896.06,516.54Zm.18,16.26c0-1.73,1.31-2.33,3-1.34a6.54,6.54,0,0,1,3,4.91c0,1.72-1.31,2.32-3,1.34A6.58,6.58,0,0,1,896.24,532.8Zm.17,16.25c0-1.73,1.31-2.33,3-1.34a6.56,6.56,0,0,1,3,4.91c0,1.72-1.31,2.33-3,1.34A6.61,6.61,0,0,1,896.41,549.05Zm.18,16.25c0-1.73,1.31-2.32,3-1.34a6.56,6.56,0,0,1,3.05,4.91c0,1.73-1.31,2.33-3,1.35A6.56,6.56,0,0,1,896.59,565.3Zm.18,16.26c0-1.73,1.31-2.33,3-1.34a6.56,6.56,0,0,1,3,4.91c0,1.72-1.32,2.32-3,1.34A6.55,6.55,0,0,1,896.77,581.56Zm.17,16.25c0-1.73,1.31-2.33,3-1.34a6.55,6.55,0,0,1,3.05,4.91c0,1.73-1.32,2.32-3,1.34A6.53,6.53,0,0,1,896.94,597.81Zm.18,16.25c0-1.72,1.31-2.32,3-1.33a6.57,6.57,0,0,1,3,4.9c0,1.74-1.31,2.33-3,1.34A6.53,6.53,0,0,1,897.12,614.06Zm.17,16.26c0-1.73,1.31-2.33,3-1.34a6.54,6.54,0,0,1,3,4.91c0,1.73-1.31,2.32-3,1.33A6.53,6.53,0,0,1,897.29,630.32Zm.17,16.25c0-1.72,1.32-2.32,3-1.34a6.57,6.57,0,0,1,3,4.91c0,1.73-1.32,2.33-3,1.34A6.57,6.57,0,0,1,897.46,646.57Zm.18,16.25c0-1.72,1.32-2.32,3-1.34a6.58,6.58,0,0,1,3,4.91c0,1.73-1.31,2.33-3,1.34A6.56,6.56,0,0,1,897.64,662.82Zm.18,16.26c0-1.73,1.31-2.33,3-1.34a6.53,6.53,0,0,1,3.05,4.91c0,1.73-1.32,2.32-3,1.34A6.55,6.55,0,0,1,897.82,679.08Zm.18,16.25c0-1.72,1.31-2.33,3-1.34a6.62,6.62,0,0,1,3,4.91c0,1.73-1.32,2.34-3,1.35A6.54,6.54,0,0,1,898,695.33Zm.17,16.25c0-1.72,1.31-2.32,3-1.34a6.58,6.58,0,0,1,3,4.91c0,1.73-1.32,2.34-3,1.35A6.58,6.58,0,0,1,898.17,711.58Zm.17,16.26c0-1.72,1.32-2.33,3-1.34a6.53,6.53,0,0,1,3,4.91c0,1.73-1.31,2.33-3,1.35A6.56,6.56,0,0,1,898.34,727.84Zm.17,16.26c0-1.73,1.33-2.34,3-1.35a6.52,6.52,0,0,1,3,4.92c0,1.72-1.31,2.32-3,1.34A6.62,6.62,0,0,1,898.51,744.1Zm.18,16.25c0-1.73,1.32-2.32,3-1.34a6.57,6.57,0,0,1,3.05,4.91c0,1.72-1.32,2.33-3,1.34A6.57,6.57,0,0,1,898.69,760.35Z"/><ellipse class="cls-8" cx="938.41" cy="781.92" rx="2.67" ry="4.15" transform="translate(145.56 1711.11) rotate(-89.33)"/><ellipse class="cls-8" cx="886.24" cy="753.43" rx="2.67" ry="4.15" transform="translate(122.5 1630.79) rotate(-89.33)"/><polygon class="cls-9" points="890.5 756.84 891.9 752.72 891.87 750.82 890.48 755.12 890.48 755.12 890.5 756.84 890.5 756.84"/><polygon class="cls-10" points="880.17 754.1 881.56 749.82 887.41 748.19 891.87 750.84 890.48 755.12 884.63 756.75 880.17 754.1"/><polygon class="cls-11" points="884.66 758.35 890.5 756.84 890.48 755.12 884.63 756.75 884.61 756.73 884.63 758.34 884.66 758.35"/><polygon class="cls-9" points="884.61 756.73 880.18 754.11 880.21 755.71 884.63 758.34 884.61 756.73"/><ellipse class="cls-12" cx="886.07" cy="751.53" rx="2.2" ry="3.02" transform="translate(-212.32 1130.29) rotate(-59.33)"/><ellipse class="cls-13" cx="886.06" cy="751.26" rx="2.2" ry="3.02" transform="translate(-207.91 1142.04) rotate(-59.95)"/><ellipse class="cls-14" cx="886.06" cy="750.98" rx="2.19" ry="3.02" transform="translate(-203.37 1153.74) rotate(-60.57)"/><ellipse class="cls-15" cx="886.05" cy="750.71" rx="2.19" ry="3.02" transform="translate(-198.7 1165.4) rotate(-61.19)"/><ellipse class="cls-16" cx="886.05" cy="750.44" rx="2.19" ry="3.02" transform="translate(-193.89 1177.01) rotate(-61.82)"/><ellipse class="cls-17" cx="886.04" cy="750.17" rx="2.19" ry="3.02" transform="translate(-188.96 1188.57) rotate(-62.44)"/><ellipse class="cls-18" cx="886.04" cy="749.89" rx="2.19" ry="3.02" transform="translate(-183.89 1200.06) rotate(-63.06)"/><ellipse class="cls-19" cx="886.03" cy="749.62" rx="2.19" ry="3.02" transform="translate(-178.7 1211.5) rotate(-63.68)"/><ellipse class="cls-20" cx="886.03" cy="749.35" rx="2.2" ry="3.02" transform="translate(-173.38 1222.87) rotate(-64.31)"/><ellipse class="cls-21" cx="886.02" cy="749.08" rx="2.2" ry="3.02" transform="translate(-167.94 1234.16) rotate(-64.93)"/><polygon class="cls-9" points="942.67 785.78 944.06 781.67 944.04 779.76 942.64 784.06 942.64 784.06 942.67 785.78 942.67 785.78"/><polygon class="cls-10" points="932.33 783.05 933.72 778.77 939.57 777.13 944.03 779.78 942.64 784.06 936.79 785.7 932.33 783.05"/><polygon class="cls-11" points="936.82 787.3 942.67 785.78 942.64 784.06 936.79 785.69 936.77 785.68 936.79 787.28 936.82 787.3"/><polygon class="cls-9" points="936.77 785.68 932.34 783.05 932.37 784.66 936.79 787.28 936.77 785.68"/><ellipse class="cls-12" cx="938.23" cy="780.47" rx="2.2" ry="3.02" transform="translate(-211.66 1189.34) rotate(-59.33)"/><ellipse class="cls-13" cx="938.22" cy="780.2" rx="2.2" ry="3.02" transform="translate(-206.93 1201.64) rotate(-59.95)"/><ellipse class="cls-14" cx="938.22" cy="779.93" rx="2.19" ry="3.02" transform="translate(-202.05 1213.9) rotate(-60.57)"/><ellipse class="cls-15" cx="938.21" cy="779.66" rx="2.19" ry="3.02" transform="translate(-197.04 1226.11) rotate(-61.19)"/><ellipse class="cls-16" cx="938.21" cy="779.38" rx="2.19" ry="3.02" transform="translate(-191.88 1238.26) rotate(-61.82)"/><ellipse class="cls-17" cx="938.2" cy="779.11" rx="2.19" ry="3.02" transform="translate(-186.59 1250.36) rotate(-62.44)"/><ellipse class="cls-18" cx="938.2" cy="778.84" rx="2.19" ry="3.02" transform="translate(-181.17 1262.4) rotate(-63.06)"/><ellipse class="cls-19" cx="938.19" cy="778.57" rx="2.19" ry="3.02" transform="translate(-175.61 1274.37) rotate(-63.68)"/><ellipse class="cls-20" cx="938.19" cy="778.29" rx="2.2" ry="3.02" transform="translate(-169.92 1286.26) rotate(-64.31)"/><ellipse class="cls-21" cx="938.18" cy="778.02" rx="2.2" ry="3.02" transform="translate(-164.1 1298.09) rotate(-64.93)"/><path class="cls-9" d="M929.19,412.78c-5-1.74-8-6.08-6.43-10.46s6.8-6.51,11.76-4.77,7.75,6.69,6.22,11.06S934.16,414.52,929.19,412.78Z"/><ellipse class="cls-22" cx="931.92" cy="404.97" rx="7.87" ry="9.52" transform="translate(241.95 1150.91) rotate(-70.72)"/><polygon class="cls-9" points="936.07 408.15 937.47 404.03 937.44 402.13 936.05 406.42 936.04 406.43 936.07 408.15 936.07 408.15"/><polygon class="cls-23" points="925.74 405.41 927.13 401.13 932.98 399.5 937.44 402.14 936.05 406.42 930.2 408.06 925.74 405.41"/><polygon class="cls-11" points="930.22 409.66 936.07 408.15 936.04 406.43 930.2 408.06 930.17 408.04 930.2 409.64 930.22 409.66"/><polygon class="cls-9" points="930.17 408.04 925.75 405.42 925.77 407.02 930.2 409.64 930.17 408.04"/><path class="cls-9" d="M880.29,383.78c-5-1.74-8-6.09-6.43-10.46s6.79-6.51,11.76-4.77,7.74,6.68,6.21,11.06S885.25,385.51,880.29,383.78Z"/><ellipse class="cls-22" cx="883.02" cy="375.97" rx="7.87" ry="9.52" transform="translate(236.57 1085.32) rotate(-70.72)"/><polygon class="cls-24" points="887.16 379.14 888.56 375.03 888.53 373.12 887.14 377.42 887.14 377.42 887.16 379.14 887.16 379.14"/><polygon class="cls-23" points="876.83 376.41 878.22 372.13 884.07 370.49 888.53 373.14 887.14 377.42 881.29 379.05 876.83 376.41"/><polygon class="cls-25" points="881.32 380.66 887.16 379.14 887.14 377.42 881.29 379.05 881.27 379.04 881.29 380.64 881.32 380.66"/><polygon class="cls-24" points="881.27 379.04 876.84 376.42 876.87 378.02 881.29 380.64 881.27 379.04"/><polygon class="cls-9" points="874.22 772.01 869.98 772.96 868.37 773.98 872.76 772.92 872.76 772.93 874.22 772.01 874.22 772.01"/><polygon class="cls-10" points="877.27 782.25 872.9 783.3 868.45 779.16 868.38 773.97 872.76 772.92 877.21 777.07 877.27 782.25"/><polygon class="cls-11" points="878.56 776.21 874.22 772.01 872.76 772.93 877.21 777.07 877.21 777.1 878.56 776.24 878.56 776.21"/><polygon class="cls-9" points="877.21 777.1 877.27 782.24 878.63 781.38 878.56 776.24 877.21 777.1"/><ellipse class="cls-12" cx="872" cy="778.56" rx="2.2" ry="3.02" transform="translate(-10.02 11.37) rotate(-0.74)"/><ellipse class="cls-13" cx="871.77" cy="778.71" rx="2.2" ry="3.02" transform="translate(-18.29 20.98) rotate(-1.36)"/><ellipse class="cls-14" cx="871.54" cy="778.86" rx="2.19" ry="3.02" transform="matrix(1, -0.03, 0.03, 1, -26.47, 30.67)"/><ellipse class="cls-15" cx="871.31" cy="779" rx="2.19" ry="3.02" transform="translate(-34.55 40.46) rotate(-2.61)"/><ellipse class="cls-16" cx="871.08" cy="779.15" rx="2.19" ry="3.02" transform="translate(-42.52 50.33) rotate(-3.23)"/><ellipse class="cls-17" cx="870.85" cy="779.29" rx="2.19" ry="3.02" transform="translate(-50.4 60.28) rotate(-3.85)"/><ellipse class="cls-18" cx="870.62" cy="779.44" rx="2.19" ry="3.02" transform="translate(-58.16 70.31) rotate(-4.48)"/><ellipse class="cls-19" cx="870.39" cy="779.59" rx="2.19" ry="3.02" transform="translate(-65.82 80.42) rotate(-5.1)"/><ellipse class="cls-20" cx="870.16" cy="779.73" rx="2.2" ry="3.02" transform="translate(-73.37 90.6) rotate(-5.72)"/><ellipse class="cls-21" cx="869.93" cy="779.88" rx="2.2" ry="3.02" transform="translate(-80.8 100.84) rotate(-6.34)"/><polygon class="cls-9" points="923.45 800.01 919.21 800.97 917.6 801.98 921.99 800.93 921.99 800.93 923.45 800.01 923.45 800.01"/><polygon class="cls-10" points="926.5 810.26 922.12 811.3 917.68 807.16 917.61 801.98 921.99 800.93 926.43 805.07 926.5 810.26"/><polygon class="cls-11" points="927.78 804.22 923.45 800.01 921.99 800.93 926.43 805.07 926.43 805.1 927.79 804.25 927.78 804.22"/><polygon class="cls-9" points="926.43 805.1 926.5 810.24 927.85 809.39 927.79 804.25 926.43 805.1"/><ellipse class="cls-12" cx="921.23" cy="806.57" rx="2.2" ry="3.02" transform="translate(-10.38 12.01) rotate(-0.74)"/><ellipse class="cls-13" cx="921" cy="806.71" rx="2.2" ry="3.02" transform="matrix(1, -0.02, 0.02, 1, -18.95, 22.16)"/><ellipse class="cls-14" cx="920.77" cy="806.86" rx="2.19" ry="3.02" transform="translate(-27.41 32.4) rotate(-1.99)"/><ellipse class="cls-15" cx="920.54" cy="807.01" rx="2.19" ry="3.02" transform="translate(-35.77 42.73) rotate(-2.61)"/><ellipse class="cls-16" cx="920.31" cy="807.15" rx="2.19" ry="3.02" transform="translate(-44.02 53.15) rotate(-3.23)"/><ellipse class="cls-17" cx="920.08" cy="807.3" rx="2.19" ry="3.02" transform="translate(-52.17 63.65) rotate(-3.85)"/><ellipse class="cls-18" cx="919.85" cy="807.45" rx="2.19" ry="3.02" transform="translate(-60.2 74.24) rotate(-4.48)"/><ellipse class="cls-19" cx="919.62" cy="807.59" rx="2.19" ry="3.02" transform="translate(-68.12 84.9) rotate(-5.1)"/><ellipse class="cls-20" cx="919.39" cy="807.74" rx="2.2" ry="3.02" transform="translate(-75.92 95.64) rotate(-5.72)"/><ellipse class="cls-21" cx="919.16" cy="807.89" rx="2.2" ry="3.02" transform="translate(-83.6 106.45) rotate(-6.34)"/><polygon class="cls-9" points="869.31 393.08 865.07 394.03 863.46 395.05 867.85 394 867.85 394 869.31 393.08 869.31 393.08"/><polygon class="cls-10" points="872.36 403.32 867.98 404.37 863.54 400.23 863.47 395.04 867.85 394 872.29 398.14 872.36 403.32"/><polygon class="cls-11" points="873.64 397.28 869.31 393.08 867.85 394 872.29 398.14 872.29 398.17 873.65 397.31 873.64 397.28"/><polygon class="cls-9" points="872.29 398.17 872.36 403.31 873.71 402.46 873.65 397.31 872.29 398.17"/><ellipse class="cls-12" cx="867.09" cy="399.63" rx="2.2" ry="3.02" transform="translate(-5.11 11.28) rotate(-0.74)"/><ellipse class="cls-13" cx="866.86" cy="399.78" rx="2.2" ry="3.02" transform="translate(-9.27 20.75) rotate(-1.36)"/><ellipse class="cls-14" cx="866.63" cy="399.93" rx="2.19" ry="3.02" transform="translate(-13.34 30.27) rotate(-1.99)"/><ellipse class="cls-15" cx="866.4" cy="400.07" rx="2.19" ry="3.02" transform="matrix(1, -0.05, 0.05, 1, -17.31, 39.84)"/><ellipse class="cls-16" cx="866.17" cy="400.22" rx="2.19" ry="3.02" transform="translate(-21.18 49.45) rotate(-3.23)"/><ellipse class="cls-17" cx="865.94" cy="400.37" rx="2.19" ry="3.02" transform="translate(-24.95 59.09) rotate(-3.85)"/><ellipse class="cls-18" cx="865.71" cy="400.51" rx="2.19" ry="3.02" transform="translate(-28.61 68.77) rotate(-4.48)"/><ellipse class="cls-19" cx="865.48" cy="400.66" rx="2.19" ry="3.02" transform="translate(-32.18 78.48) rotate(-5.1)"/><ellipse class="cls-20" cx="865.25" cy="400.81" rx="2.2" ry="3.02" transform="translate(-35.63 88.22) rotate(-5.72)"/><ellipse class="cls-21" cx="865.02" cy="400.95" rx="2.2" ry="3.02" transform="translate(-38.99 97.98) rotate(-6.34)"/><polygon class="cls-9" points="918.53 421.08 914.29 422.04 912.68 423.05 917.07 422 917.08 422 918.53 421.08 918.53 421.08"/><polygon class="cls-10" points="921.58 431.33 917.21 432.38 912.76 428.23 912.7 423.05 917.07 422 921.52 426.14 921.58 431.33"/><polygon class="cls-11" points="922.87 425.29 918.53 421.08 917.08 422 921.52 426.14 921.52 426.17 922.87 425.32 922.87 425.29"/><polygon class="cls-9" points="921.52 426.17 921.58 431.32 922.94 430.46 922.87 425.32 921.52 426.17"/><ellipse class="cls-12" cx="916.31" cy="427.64" rx="2.2" ry="3.02" transform="translate(-5.47 11.92) rotate(-0.74)"/><ellipse class="cls-13" cx="916.08" cy="427.79" rx="2.2" ry="3.02" transform="matrix(1, -0.02, 0.02, 1, -9.93, 21.93)"/><ellipse class="cls-14" cx="915.85" cy="427.93" rx="2.19" ry="3.02" transform="translate(-14.28 32) rotate(-1.99)"/><ellipse class="cls-15" cx="915.62" cy="428.08" rx="2.19" ry="3.02" transform="translate(-18.53 42.11) rotate(-2.61)"/><ellipse class="cls-16" cx="915.39" cy="428.23" rx="2.19" ry="3.02" transform="translate(-22.68 52.27) rotate(-3.23)"/><ellipse class="cls-17" cx="915.16" cy="428.37" rx="2.19" ry="3.02" transform="translate(-26.72 62.46) rotate(-3.85)"/><ellipse class="cls-18" cx="914.93" cy="428.52" rx="2.19" ry="3.02" transform="translate(-30.65 72.7) rotate(-4.48)"/><ellipse class="cls-19" cx="914.7" cy="428.67" rx="2.19" ry="3.02" transform="translate(-34.47 82.97) rotate(-5.1)"/><ellipse class="cls-20" cx="914.47" cy="428.81" rx="2.2" ry="3.02" transform="translate(-38.18 93.26) rotate(-5.72)"/><ellipse class="cls-21" cx="914.24" cy="428.96" rx="2.2" ry="3.02" transform="translate(-41.78 103.59) rotate(-6.34)"/><path class="cls-26" d="M783.54,485.92c1.66,1,4,1,5.24.07s.89-2.5-.77-3.49-4-1-5.25-.08S781.87,484.93,783.54,485.92Z"/><path class="cls-26" d="M771.72,494.94A5.1,5.1,0,0,0,777,495c1.24-.94.89-2.51-.77-3.49a5.12,5.12,0,0,0-5.25-.08C769.71,492.39,770.05,494,771.72,494.94Z"/><path class="cls-26" d="M736.25,522c1.67,1,4,1,5.25.08s.89-2.51-.77-3.5-4-1-5.25-.07S734.59,521,736.25,522Z"/><path class="cls-26" d="M795.36,476.89a5.1,5.1,0,0,0,5.24.08c1.24-.94.89-2.51-.77-3.49a5.12,5.12,0,0,0-5.25-.08C793.35,474.34,793.69,475.9,795.36,476.89Z"/><path class="cls-26" d="M759.89,504c1.67,1,4,1,5.25.08s.89-2.51-.77-3.5-4-1-5.25-.07S758.23,503,759.89,504Z"/><path class="cls-26" d="M748.07,513c1.67,1,4,1,5.25.08s.89-2.51-.77-3.49a5.12,5.12,0,0,0-5.25-.08C746.07,510.44,746.41,512,748.07,513Z"/><path class="cls-26" d="M807.18,467.87c1.66,1,4,1,5.24.07s.89-2.5-.77-3.49a5.12,5.12,0,0,0-5.25-.08C805.17,465.32,805.51,466.88,807.18,467.87Z"/><path class="cls-26" d="M854.46,431.76a5.1,5.1,0,0,0,5.24.08c1.24-.94.89-2.51-.77-3.49a5.12,5.12,0,0,0-5.25-.08C852.45,429.21,852.79,430.78,854.46,431.76Z"/><path class="cls-26" d="M819,458.84a5.1,5.1,0,0,0,5.24.08c1.24-.95.89-2.51-.77-3.5s-4-1-5.25-.07S817.33,457.85,819,458.84Z"/><path class="cls-26" d="M866.28,422.74c1.66,1,4,1,5.24.07s.89-2.5-.77-3.49-4-1-5.25-.08S864.61,421.75,866.28,422.74Z"/><path class="cls-26" d="M842.64,440.79c1.66,1,4,1,5.24.08s.89-2.51-.77-3.5-4-1-5.25-.07S841,439.8,842.64,440.79Z"/><path class="cls-26" d="M830.82,449.81a5.1,5.1,0,0,0,5.24.08c1.24-.94.89-2.51-.77-3.49a5.12,5.12,0,0,0-5.25-.08C828.81,447.26,829.15,448.83,830.82,449.81Z"/><path class="cls-26" d="M878.1,413.71a5.1,5.1,0,0,0,5.24.08c1.24-.94.89-2.51-.77-3.49s-4-1-5.25-.08S876.43,412.72,878.1,413.71Z"/><path class="cls-25" d="M905.46,407.4,732.31,539.62l19,11.28L905.91,432l23.14,13.53-.49-24.46Zm15.4,23.65c-1.35.85-3.49-.13-4.79-2.19s-1.25-4.4.1-5.25,3.49.12,4.79,2.18S922.21,430.2,920.86,431.05Z"/><polygon class="cls-25" points="752.24 579.99 755.73 577.59 754.98 553.06 754.98 553.06 751.78 555.5 752.24 579.99"/><polygon class="cls-5" points="931.76 418.66 928.56 421.1 929.05 445.56 932.23 443.36 931.76 418.66"/><path class="cls-7" d="M858.75,379.71l.89,24.87,6.36,3.78,18-13.71Zm12.87,22.13c-1.35.85-3.5-.12-4.79-2.18s-1.25-4.41.1-5.26,3.49.13,4.78,2.18S873,401,871.62,401.84Z"/><polygon class="cls-4" points="754.98 553.06 754.98 553.06 751.33 550.9 749.76 552.1 754.98 553.06"/><path class="cls-4" d="M740.69,548.91l-8.38-9.29L905.25,406.77l23.31,14.33,3.2-2.44-69.67-41.32-3.2,2.44L884,394.65h0l.73.43-17.13,14.2-1.55-.92L710.8,526.86,685.74,512l-3.19,2.44.07,0v0ZM877.32,410.22c1.24-1,3.59-.91,5.25.08s2,2.55.77,3.49a5.1,5.1,0,0,1-5.24-.08C876.43,412.72,876.09,411.16,877.32,410.22Zm-11.82,9c1.24-.94,3.59-.9,5.25.08s2,2.55.77,3.49-3.58.91-5.24-.07S864.27,420.19,865.5,419.24Zm-11.82,9a5.12,5.12,0,0,1,5.25.08c1.66,1,2,2.55.77,3.49a5.1,5.1,0,0,1-5.24-.08C852.79,430.78,852.45,429.21,853.68,428.27Zm-11.82,9c1.24-.95,3.59-.91,5.25.07s2,2.55.77,3.5-3.58.9-5.24-.08S840.63,438.24,841.86,437.3Zm-11.82,9a5.12,5.12,0,0,1,5.25.08c1.66,1,2,2.55.77,3.49a5.1,5.1,0,0,1-5.24-.08C829.15,448.83,828.81,447.26,830,446.32Zm-11.82,9c1.24-1,3.59-.91,5.25.07s2,2.55.77,3.5a5.1,5.1,0,0,1-5.24-.08C817.33,457.85,817,456.29,818.22,455.35Zm-11.82,9a5.12,5.12,0,0,1,5.25.08c1.66,1,2,2.55.77,3.49s-3.58.91-5.24-.07S805.17,465.32,806.4,464.37Zm-11.82,9a5.12,5.12,0,0,1,5.25.08c1.66,1,2,2.55.77,3.49a5.1,5.1,0,0,1-5.24-.08C793.69,475.9,793.35,474.34,794.58,473.4Zm-11.82,9c1.24-.94,3.59-.9,5.25.08s2,2.55.77,3.49-3.58.91-5.24-.07S781.53,483.37,782.76,482.42Zm-11.82,9a5.12,5.12,0,0,1,5.25.08c1.66,1,2,2.55.77,3.49a5.1,5.1,0,0,1-5.24-.08C770.05,494,769.71,492.39,770.94,491.45Zm-11.82,9c1.24-1,3.58-.91,5.25.07s2,2.55.77,3.5-3.58.9-5.25-.08S757.89,501.42,759.12,500.48Zm-11.82,9a5.12,5.12,0,0,1,5.25.08c1.66,1,2,2.55.77,3.49s-3.58.91-5.25-.08S746.07,510.44,747.3,509.5Zm-11.82,9c1.24-.95,3.58-.91,5.25.07s2,2.55.77,3.5-3.58.91-5.25-.08S734.25,519.47,735.48,518.53Z"/><polygon class="cls-4" points="905.46 407.4 928.56 421.1 905.25 406.76 732.31 539.62 740.69 548.91 751.78 555.5 754.98 553.06 749.76 552.1 751.33 550.9 732.31 539.62 905.46 407.4"/><polygon class="cls-4" points="884.68 395.08 883.95 394.65 866 408.36 867.55 409.28 884.68 395.08"/><path class="cls-8" d="M916.17,423.61c-1.35.85-1.39,3.2-.1,5.25s3.44,3,4.79,2.19,1.39-3.21.1-5.26S917.52,422.76,916.17,423.61Z"/><path class="cls-8" d="M871.71,396.58c-1.29-2.05-3.43-3-4.78-2.18s-1.39,3.21-.1,5.26,3.44,3,4.79,2.18S873,398.64,871.71,396.58Z"/><path class="cls-25" d="M740.71,548.93l-58.09-34.45.32,24.66L752.24,580l-8.84-28.07Zm-44.63-10.8c-1.93.87-4.69-1.07-6.15-4.34s-1.08-6.61.86-7.48,4.69,1.08,6.15,4.34S698,537.26,696.08,538.13Zm42.14,25.48c-1.93.87-4.69-1.07-6.15-4.33s-1.08-6.62.85-7.49,4.7,1.08,6.16,4.34S740.16,562.75,738.22,563.61Z"/><polygon class="cls-25" points="740.71 548.93 743.4 551.92 752.24 579.99 751.78 555.5 740.71 548.93"/><polygon class="cls-25" points="740.69 548.91 682.62 514.44 682.62 514.48 740.71 548.93 740.69 548.91"/><polygon class="cls-25" points="751.78 555.5 740.69 548.91 740.71 548.93 751.78 555.5"/><path class="cls-26" d="M812.09,846.74a5.12,5.12,0,0,0,5.25.08c1.23-.94.88-2.51-.78-3.49s-4-1-5.24-.08S810.43,845.75,812.09,846.74Z"/><path class="cls-26" d="M776.63,873.82c1.66,1,4,1,5.25.08s.88-2.51-.78-3.5-4-1-5.25-.07S775,872.83,776.63,873.82Z"/><path class="cls-26" d="M788.45,864.79a5.12,5.12,0,0,0,5.25.08c1.23-.94.88-2.51-.78-3.49a5.1,5.1,0,0,0-5.24-.08C786.44,862.24,786.79,863.81,788.45,864.79Z"/><path class="cls-26" d="M800.27,855.77c1.66,1,4,1,5.25.07s.88-2.5-.78-3.49-4-1-5.24-.08S798.61,854.78,800.27,855.77Z"/><path class="cls-26" d="M764.81,882.84a5.12,5.12,0,0,0,5.25.08c1.23-.94.88-2.51-.78-3.49a5.12,5.12,0,0,0-5.25-.08C762.8,880.29,763.15,881.86,764.81,882.84Z"/><path class="cls-26" d="M753,891.87a5.12,5.12,0,0,0,5.25.08c1.23-1,.88-2.51-.78-3.5s-4-1-5.25-.07S751.33,890.88,753,891.87Z"/><path class="cls-26" d="M835.73,828.69a5.12,5.12,0,0,0,5.25.08c1.23-.95.89-2.51-.78-3.5s-4-1-5.24-.07S834.07,827.7,835.73,828.69Z"/><path class="cls-26" d="M883,792.59c1.66,1,4,1,5.25.07s.89-2.5-.78-3.49a5.1,5.1,0,0,0-5.24-.08C881,790,881.35,791.6,883,792.59Z"/><path class="cls-26" d="M871.19,801.61a5.12,5.12,0,0,0,5.25.08c1.23-.94.89-2.51-.78-3.49a5.1,5.1,0,0,0-5.24-.08C869.18,799.06,869.53,800.63,871.19,801.61Z"/><path class="cls-26" d="M741.17,900.9c1.66,1,4,1,5.24.07s.89-2.5-.77-3.49a5.12,5.12,0,0,0-5.25-.08C739.16,898.35,739.51,899.91,741.17,900.9Z"/><path class="cls-26" d="M823.91,837.71c1.66,1,4,1,5.25.08s.89-2.5-.78-3.49a5.1,5.1,0,0,0-5.24-.08C821.9,835.17,822.25,836.73,823.91,837.71Z"/><path class="cls-26" d="M847.55,819.66a5.12,5.12,0,0,0,5.25.08c1.23-.94.89-2.51-.78-3.49a5.1,5.1,0,0,0-5.24-.08C845.54,817.11,845.89,818.68,847.55,819.66Z"/><path class="cls-26" d="M859.37,810.64c1.66,1,4,1,5.25.08s.89-2.51-.78-3.5-4-1-5.24-.08S857.71,809.65,859.37,810.64Z"/><path class="cls-25" d="M933.48,800l-23.11-13.7L737.22,918.49l19,11.28L910.83,810.9,934,824.44,933.48,800Zm-7.71,9.94c-1.35.85-3.49-.13-4.78-2.18s-1.25-4.41.09-5.26,3.5.13,4.79,2.18S927.12,809.07,925.77,809.92Z"/><polygon class="cls-25" points="757.16 958.86 760.64 956.47 759.89 931.93 759.89 931.93 756.69 934.37 757.16 958.86"/><polygon class="cls-5" points="936.67 797.54 934.27 799.37 933.48 799.98 933.96 824.44 937.14 822.23 936.67 797.54"/><path class="cls-7" d="M863.66,758.58l.89,24.88,6.36,3.77,18-13.7Zm12.87,22.14c-1.35.85-3.49-.13-4.79-2.18s-1.25-4.41.1-5.26,3.49.12,4.79,2.18S877.88,779.87,876.53,780.72Z"/><polygon class="cls-4" points="759.89 931.93 759.89 931.93 756.24 929.77 754.67 930.98 759.89 931.93"/><path class="cls-4" d="M745.61,927.79l-8.39-9.3L910.17,785.64,933.48,800l.79-.61,2.4-1.83L867,756.22l-3.19,2.44,25.06,14.86h0l.73.43-17.13,14.19-1.55-.92L715.72,905.74l-25.07-14.87-3.19,2.44.07.05v-.05Zm136.63-138.7a5.1,5.1,0,0,1,5.24.08c1.67,1,2,2.55.78,3.49s-3.59.91-5.25-.07S881,790,882.24,789.09Zm-11.82,9a5.1,5.1,0,0,1,5.24.08c1.67,1,2,2.55.78,3.49a5.12,5.12,0,0,1-5.25-.08C869.53,800.63,869.18,799.06,870.42,798.12Zm-11.82,9c1.23-.94,3.58-.9,5.24.08s2,2.55.78,3.5-3.59.9-5.25-.08S857.36,808.09,858.6,807.14Zm-11.82,9a5.1,5.1,0,0,1,5.24.08c1.67,1,2,2.55.78,3.49a5.12,5.12,0,0,1-5.25-.08C845.89,818.68,845.54,817.11,846.78,816.17Zm-11.82,9c1.23-1,3.58-.91,5.24.07s2,2.55.78,3.5a5.12,5.12,0,0,1-5.25-.08C834.07,827.7,833.72,826.14,835,825.2Zm-11.82,9a5.1,5.1,0,0,1,5.24.08c1.67,1,2,2.55.78,3.49s-3.59.91-5.25-.08S821.9,835.17,823.14,834.22Zm-11.82,9c1.23-1,3.58-.91,5.24.08s2,2.55.78,3.49a5.12,5.12,0,0,1-5.25-.08C810.43,845.75,810.08,844.19,811.32,843.25Zm-11.82,9c1.23-.94,3.58-.9,5.24.08s2,2.55.78,3.49-3.59.91-5.25-.07S798.26,853.22,799.5,852.27Zm-11.82,9a5.1,5.1,0,0,1,5.24.08c1.66,1,2,2.55.78,3.49a5.12,5.12,0,0,1-5.25-.08C786.79,863.81,786.44,862.24,787.68,861.3Zm-11.83,9c1.24-1,3.59-.91,5.25.07s2,2.55.78,3.5-3.59.9-5.25-.08S774.62,871.27,775.85,870.33Zm-11.82,9a5.12,5.12,0,0,1,5.25.08c1.66,1,2,2.55.78,3.49a5.12,5.12,0,0,1-5.25-.08C763.15,881.86,762.8,880.29,764,879.35Zm-11.82,9c1.24-1,3.59-.91,5.25.07s2,2.55.78,3.5a5.12,5.12,0,0,1-5.25-.08C751.33,890.88,751,889.32,752.21,888.38Zm-11.82,9a5.12,5.12,0,0,1,5.25.08c1.66,1,2,2.55.77,3.49s-3.58.91-5.24-.07S739.16,898.35,740.39,897.4Z"/><polygon class="cls-4" points="910.37 786.28 933.48 799.98 933.48 799.98 933.48 799.98 910.17 785.64 737.22 918.49 745.61 927.79 756.69 934.37 759.89 931.93 754.67 930.98 756.24 929.77 737.22 918.49 910.37 786.28"/><polygon class="cls-4" points="933.48 799.98 934.27 799.37 933.48 799.98 933.48 799.98"/><polygon class="cls-4" points="889.59 773.96 888.87 773.53 870.91 787.23 872.47 788.15 889.59 773.96"/><path class="cls-8" d="M921.08,802.48c-1.34.85-1.39,3.21-.09,5.26s3.43,3,4.78,2.18,1.4-3.2.1-5.26S922.43,801.63,921.08,802.48Z"/><path class="cls-8" d="M876.63,775.46c-1.3-2.06-3.44-3-4.79-2.18s-1.39,3.2-.1,5.26,3.44,3,4.79,2.18S877.92,777.51,876.63,775.46Z"/><path class="cls-25" d="M745.62,927.81l-58.09-34.45.32,24.65,69.31,40.85-8.85-28.07ZM701,918.73c-1.94.87-4.69-1.08-6.15-4.34s-1.08-6.61.85-7.48,4.7,1.07,6.16,4.34S703,917.86,701,918.73Zm42.14,25.48c-1.94.87-4.69-1.07-6.16-4.34s-1.08-6.61.86-7.48,4.69,1.07,6.16,4.34S745.1,943.34,743.16,944.21Z"/><polygon class="cls-25" points="745.62 927.8 748.31 930.79 757.16 958.86 756.69 934.37 745.62 927.8"/><polygon class="cls-25" points="745.61 927.79 687.53 893.31 687.53 893.36 745.62 927.8 745.61 927.79"/><polygon class="cls-25" points="756.69 934.37 745.61 927.79 745.62 927.8 756.69 934.37"/><polygon class="cls-9" points="874.94 771.84 870.7 772.8 869.09 773.81 873.48 772.76 873.48 772.76 874.94 771.84 874.94 771.84"/><polygon class="cls-10" points="877.99 782.09 873.61 783.13 869.17 778.99 869.1 773.81 873.48 772.76 877.92 776.9 877.99 782.09"/><polygon class="cls-11" points="879.28 776.04 874.94 771.84 873.48 772.76 877.92 776.9 877.92 776.93 879.28 776.08 879.28 776.04"/><polygon class="cls-9" points="877.92 776.93 877.99 782.08 879.34 781.22 879.28 776.08 877.92 776.93"/><ellipse class="cls-12" cx="872.72" cy="778.4" rx="2.2" ry="3.02" transform="translate(-10.02 11.38) rotate(-0.74)"/><ellipse class="cls-13" cx="872.49" cy="778.55" rx="2.2" ry="3.02" transform="translate(-18.29 20.99) rotate(-1.36)"/><ellipse class="cls-14" cx="872.26" cy="778.69" rx="2.19" ry="3.02" transform="translate(-26.46 30.7) rotate(-1.99)"/><ellipse class="cls-15" cx="872.03" cy="778.84" rx="2.19" ry="3.02" transform="translate(-34.54 40.49) rotate(-2.61)"/><ellipse class="cls-16" cx="871.8" cy="778.98" rx="2.19" ry="3.02" transform="translate(-42.51 50.37) rotate(-3.23)"/><ellipse class="cls-17" cx="871.57" cy="779.13" rx="2.19" ry="3.02" transform="matrix(1, -0.07, 0.07, 1, -50.38, 60.33)"/><ellipse class="cls-18" cx="871.34" cy="779.28" rx="2.19" ry="3.02" transform="translate(-58.15 70.37) rotate(-4.48)"/><ellipse class="cls-19" cx="871.11" cy="779.42" rx="2.19" ry="3.02" transform="translate(-65.81 80.48) rotate(-5.1)"/><ellipse class="cls-20" cx="870.88" cy="779.57" rx="2.2" ry="3.02" transform="translate(-73.35 90.67) rotate(-5.72)"/><ellipse class="cls-21" cx="870.65" cy="779.72" rx="2.2" ry="3.02" transform="translate(-80.78 100.92) rotate(-6.34)"/><polygon class="cls-9" points="924.05 801.42 919.81 802.37 918.2 803.39 922.59 802.34 922.6 802.34 924.05 801.42 924.05 801.42"/><polygon class="cls-10" points="927.1 811.66 922.73 812.71 918.28 808.57 918.22 803.38 922.59 802.34 927.04 806.48 927.1 811.66"/><polygon class="cls-11" points="928.39 805.62 924.05 801.42 922.6 802.34 927.04 806.48 927.04 806.51 928.39 805.65 928.39 805.62"/><polygon class="cls-9" points="927.04 806.51 927.1 811.65 928.46 810.79 928.39 805.65 927.04 806.51"/><ellipse class="cls-12" cx="921.83" cy="807.97" rx="2.2" ry="3.02" transform="translate(-10.4 12.02) rotate(-0.74)"/><ellipse class="cls-13" cx="921.6" cy="808.12" rx="2.2" ry="3.02" transform="translate(-18.98 22.17) rotate(-1.36)"/><ellipse class="cls-14" cx="921.37" cy="808.27" rx="2.19" ry="3.02" transform="translate(-27.46 32.42) rotate(-1.99)"/><ellipse class="cls-15" cx="921.14" cy="808.41" rx="2.19" ry="3.02" transform="matrix(1, -0.05, 0.05, 1, -35.83, 42.75)"/><ellipse class="cls-16" cx="920.91" cy="808.56" rx="2.19" ry="3.02" transform="translate(-44.1 53.18) rotate(-3.23)"/><ellipse class="cls-17" cx="920.68" cy="808.71" rx="2.19" ry="3.02" transform="translate(-52.26 63.69) rotate(-3.85)"/><ellipse class="cls-18" cx="920.45" cy="808.85" rx="2.19" ry="3.02" transform="translate(-60.31 74.29) rotate(-4.48)"/><ellipse class="cls-19" cx="920.22" cy="809" rx="2.19" ry="3.02" transform="translate(-68.24 84.96) rotate(-5.1)"/><ellipse class="cls-20" cx="919.99" cy="809.15" rx="2.2" ry="3.02" transform="translate(-76.05 95.71) rotate(-5.72)"/><ellipse class="cls-21" cx="919.76" cy="809.29" rx="2.2" ry="3.02" transform="translate(-83.75 106.52) rotate(-6.34)"/><polygon class="cls-9" points="870.04 392.69 865.8 393.64 864.18 394.65 868.58 393.6 868.58 393.61 870.04 392.69 870.04 392.69"/><polygon class="cls-10" points="873.09 402.93 868.71 403.98 864.27 399.83 864.2 394.65 868.58 393.6 873.02 397.74 873.09 402.93"/><polygon class="cls-11" points="874.37 396.89 870.04 392.69 868.58 393.61 873.02 397.74 873.02 397.77 874.38 396.92 874.37 396.89"/><polygon class="cls-9" points="873.02 397.77 873.09 402.92 874.44 402.06 874.38 396.92 873.02 397.77"/><ellipse class="cls-12" cx="867.82" cy="399.24" rx="2.2" ry="3.02" transform="translate(-5.1 11.29) rotate(-0.74)"/><ellipse class="cls-13" cx="867.59" cy="399.39" rx="2.2" ry="3.02" transform="translate(-9.26 20.77) rotate(-1.36)"/><ellipse class="cls-14" cx="867.36" cy="399.53" rx="2.19" ry="3.02" transform="translate(-13.33 30.3) rotate(-1.99)"/><ellipse class="cls-15" cx="867.13" cy="399.68" rx="2.19" ry="3.02" transform="translate(-17.29 39.87) rotate(-2.61)"/><ellipse class="cls-16" cx="866.9" cy="399.83" rx="2.19" ry="3.02" transform="translate(-21.15 49.49) rotate(-3.23)"/><ellipse class="cls-17" cx="866.67" cy="399.97" rx="2.19" ry="3.02" transform="translate(-24.92 59.14) rotate(-3.85)"/><ellipse class="cls-18" cx="866.44" cy="400.12" rx="2.19" ry="3.02" transform="translate(-28.58 68.83) rotate(-4.48)"/><ellipse class="cls-19" cx="866.21" cy="400.27" rx="2.19" ry="3.02" transform="translate(-32.14 78.54) rotate(-5.1)"/><ellipse class="cls-20" cx="865.98" cy="400.41" rx="2.2" ry="3.02" transform="translate(-35.59 88.29) rotate(-5.72)"/><ellipse class="cls-21" cx="865.75" cy="400.56" rx="2.2" ry="3.02" transform="translate(-38.94 98.06) rotate(-6.34)"/><polygon class="cls-9" points="919.15 422.26 914.91 423.21 913.3 424.23 917.69 423.18 917.69 423.18 919.15 422.26 919.15 422.26"/><polygon class="cls-10" points="922.2 432.5 917.83 433.55 913.38 429.41 913.31 424.22 917.69 423.18 922.13 427.32 922.2 432.5"/><polygon class="cls-11" points="923.49 426.46 919.15 422.26 917.69 423.18 922.13 427.32 922.13 427.35 923.49 426.5 923.49 426.46"/><polygon class="cls-9" points="922.13 427.35 922.2 432.49 923.56 431.64 923.49 426.5 922.13 427.35"/><ellipse class="cls-12" cx="916.93" cy="428.82" rx="2.2" ry="3.02" transform="translate(-5.48 11.93) rotate(-0.74)"/><ellipse class="cls-13" cx="916.7" cy="428.96" rx="2.2" ry="3.02" transform="translate(-9.95 21.95) rotate(-1.36)"/><ellipse class="cls-14" cx="916.47" cy="429.11" rx="2.19" ry="3.02" transform="translate(-14.32 32.02) rotate(-1.99)"/><ellipse class="cls-15" cx="916.24" cy="429.26" rx="2.19" ry="3.02" transform="translate(-18.58 42.14) rotate(-2.61)"/><ellipse class="cls-16" cx="916.01" cy="429.4" rx="2.19" ry="3.02" transform="translate(-22.74 52.3) rotate(-3.23)"/><ellipse class="cls-17" cx="915.78" cy="429.55" rx="2.19" ry="3.02" transform="translate(-26.79 62.51) rotate(-3.85)"/><ellipse class="cls-18" cx="915.55" cy="429.69" rx="2.19" ry="3.02" transform="translate(-30.74 72.75) rotate(-4.48)"/><ellipse class="cls-19" cx="915.32" cy="429.84" rx="2.19" ry="3.02" transform="translate(-34.57 83.03) rotate(-5.1)"/><ellipse class="cls-20" cx="915.09" cy="429.99" rx="2.2" ry="3.02" transform="translate(-38.29 93.33) rotate(-5.72)"/><ellipse class="cls-21" cx="914.86" cy="430.13" rx="2.2" ry="3.02" transform="translate(-41.91 103.66) rotate(-6.34)"/><path class="cls-4" d="M756.3,934.65,73.85,529.41,56,543.82l681.22,404Zm-13.7,3.88a6.08,6.08,0,0,1-5.84,0c-1.67-1-1.75-2.6-.18-3.61a6.08,6.08,0,0,1,5.84,0C744.09,935.91,744.17,937.52,742.6,938.53ZM725.53,928.4a6.08,6.08,0,0,1-5.84,0c-1.66-1-1.75-2.6-.18-3.61a6.06,6.06,0,0,1,5.84,0C727,925.78,727.1,927.4,725.53,928.4Zm-17.07-10.12a6.08,6.08,0,0,1-5.84,0c-1.66-1-1.74-2.61-.18-3.61a6.06,6.06,0,0,1,5.84,0C709.94,915.66,710,917.27,708.46,918.28Zm-17.07-10.12a6.06,6.06,0,0,1-5.83,0c-1.67-1-1.75-2.6-.19-3.61a6.08,6.08,0,0,1,5.84,0C692.87,905.53,693,907.15,691.39,908.16ZM674.32,898a6,6,0,0,1-5.83,0c-1.66-1-1.75-2.6-.19-3.61a6,6,0,0,1,5.83,0C675.8,895.41,675.88,897,674.32,898Zm-17.07-10.12a6,6,0,0,1-5.83,0c-1.66-1-1.75-2.6-.19-3.61a6,6,0,0,1,5.83,0C658.72,885.28,658.81,886.9,657.25,887.91Zm-17.07-10.12a6,6,0,0,1-5.82,0c-1.67-1-1.76-2.61-.2-3.62a6,6,0,0,1,5.83,0C641.65,875.16,641.74,876.78,640.18,877.79Zm-49.92-29.61a6,6,0,0,1-5.81.05c-1.67-1-1.76-2.61-.21-3.62a6,6,0,0,1,5.82-.05C591.72,845.55,591.82,847.17,590.26,848.18ZM561,825.43l3.21-2.1L577.15,831l-3.2,2.1ZM75.9,543.13a5.77,5.77,0,0,1,5.73-.1c1.66,1,1.8,2.63.29,3.67a5.75,5.75,0,0,1-5.72.11C74.53,545.82,74.4,544.17,75.9,543.13ZM102.58,559a5.77,5.77,0,0,1,5.73-.09c1.67,1,1.8,2.63.29,3.67a5.79,5.79,0,0,1-5.73.1C101.21,561.64,101.08,560,102.58,559Zm16.35,9.7a5.79,5.79,0,0,1,5.74-.09c1.66,1,1.79,2.63.29,3.67a5.79,5.79,0,0,1-5.74.09C117.56,571.34,117.43,569.69,118.93,568.65Zm20.35,12.07a5.79,5.79,0,0,1,5.74-.09c1.67,1,1.79,2.62.29,3.66a5.81,5.81,0,0,1-5.74.1C137.9,583.4,137.77,581.76,139.28,580.72Zm44.5,26.39a5.8,5.8,0,0,1,5.75-.09c1.66,1,1.78,2.63.27,3.66a5.8,5.8,0,0,1-5.75.09C182.39,609.79,182.27,608.15,183.78,607.11Zm44.49,26.39a5.85,5.85,0,0,1,5.76-.09c1.66,1,1.78,2.63.27,3.66a5.87,5.87,0,0,1-5.76.09C226.88,636.17,226.76,634.53,228.27,633.5Zm44.5,26.39a5.85,5.85,0,0,1,5.76-.08c1.67,1,1.78,2.62.26,3.65a5.85,5.85,0,0,1-5.76.08C271.37,662.55,271.25,660.92,272.77,659.89Zm44.49,26.39a5.89,5.89,0,0,1,5.78-.08c1.66,1,1.77,2.62.25,3.65a5.87,5.87,0,0,1-5.77.07C315.85,688.94,315.74,687.3,317.26,686.28Zm44.5,26.38a5.94,5.94,0,0,1,5.78-.07c1.66,1,1.77,2.62.25,3.65a5.91,5.91,0,0,1-5.78.07C360.34,715.32,360.23,713.69,361.76,712.66Zm44.5,26.39A5.91,5.91,0,0,1,412,739c1.67,1,1.77,2.61.24,3.64a5.93,5.93,0,0,1-5.79.06C404.83,741.71,404.72,740.08,406.26,739.05Zm44.49,26.39a6,6,0,0,1,5.8-.06c1.66,1,1.76,2.61.23,3.64a6,6,0,0,1-5.8.06C449.32,768.09,449.22,766.46,450.75,765.44Zm44.5,26.39a6,6,0,0,1,5.8-.06c1.67,1,1.76,2.62.22,3.63a6,6,0,0,1-5.8.06C493.81,794.48,493.71,792.85,495.25,791.83Zm44.49,26.39a6,6,0,0,1,5.82-.05c1.66,1,1.76,2.61.21,3.62a6,6,0,0,1-5.81.06C538.29,820.86,538.2,819.24,539.74,818.22Zm12.63,12.9,9,.51.25-.16.4-.26L565.4,829l2.47,1.47-5.21,3.41a2.64,2.64,0,0,0-.36.28c-.71.64-.79,1.39-.12,1.79a3.3,3.3,0,0,0,2.85-.17,3.09,3.09,0,0,0,.44-.24l5.21-3.41,2.47,1.46L567.94,837l-.4.26h0c-2.84,1.67-6.62,2.07-8.66.86-1.67-1-1.67-2.76-.23-4.38l-9.46-.54Z"/><path class="cls-5" d="M737.22,947.82,56,543.82,55.61,568,737.44,971.68ZM73.17,566.21c-.13-2,1.12-2.75,2.78-1.77a7.52,7.52,0,0,1,3.24,5.34c.12,2-1.12,2.76-2.78,1.77A7.45,7.45,0,0,1,73.17,566.21Zm14.14,8.39c-.13-2,1.12-2.76,2.78-1.77a7.52,7.52,0,0,1,3.24,5.34c.12,2-1.12,2.75-2.78,1.77A7.46,7.46,0,0,1,87.31,574.6ZM101.45,583c-.13-2,1.12-2.76,2.78-1.77a7.48,7.48,0,0,1,3.24,5.34c.12,2-1.12,2.75-2.78,1.76A7.45,7.45,0,0,1,101.45,583Zm14.14,8.38c-.13-2,1.12-2.75,2.78-1.77a7.49,7.49,0,0,1,3.24,5.34c.12,2-1.12,2.75-2.78,1.77A7.49,7.49,0,0,1,115.59,591.37Zm14.14,8.39c-.12-2,1.12-2.76,2.78-1.77a7.46,7.46,0,0,1,3.24,5.34c.12,2-1.12,2.75-2.78,1.76A7.45,7.45,0,0,1,129.73,599.76Zm14.14,8.38c-.12-2,1.12-2.75,2.79-1.76a7.44,7.44,0,0,1,3.23,5.33c.12,2-1.12,2.76-2.78,1.77A7.47,7.47,0,0,1,143.87,608.14ZM158,616.53c-.12-2,1.13-2.75,2.79-1.77A7.48,7.48,0,0,1,164,620.1c.12,2-1.12,2.75-2.78,1.77A7.49,7.49,0,0,1,158,616.53Zm14.14,8.39c-.12-2,1.13-2.75,2.79-1.77a7.48,7.48,0,0,1,3.23,5.34c.12,2-1.12,2.75-2.79,1.76A7.47,7.47,0,0,1,172.15,624.92Zm14.14,8.38c-.12-2,1.13-2.75,2.79-1.76a7.44,7.44,0,0,1,3.23,5.33c.12,2-1.12,2.75-2.79,1.77A7.51,7.51,0,0,1,186.29,633.3Zm14.14,8.39c-.12-2,1.13-2.75,2.79-1.77a7.48,7.48,0,0,1,3.23,5.34c.12,2-1.12,2.75-2.79,1.76A7.47,7.47,0,0,1,200.43,641.69Zm14.62,8.67c-.12-2,1.13-2.75,2.79-1.77a7.48,7.48,0,0,1,3.23,5.34c.12,2-1.13,2.75-2.79,1.76A7.44,7.44,0,0,1,215.05,650.36Zm7.72,4.58c-.12-2,1.13-2.75,2.79-1.77a7.48,7.48,0,0,1,3.23,5.34c.12,2-1.13,2.74-2.79,1.76A7.46,7.46,0,0,1,222.77,654.94Zm7.72,4.57c-.12-2,1.13-2.75,2.79-1.76a7.46,7.46,0,0,1,3.23,5.33c.12,2-1.13,2.75-2.79,1.77A7.48,7.48,0,0,1,230.49,659.51Zm7.72,4.58c-.12-2,1.13-2.75,2.79-1.76a7.44,7.44,0,0,1,3.23,5.33c.12,2-1.13,2.75-2.79,1.76A7.41,7.41,0,0,1,238.21,664.09Zm7.72,4.58c-.12-2,1.13-2.75,2.79-1.76a7.44,7.44,0,0,1,3.23,5.33c.12,2-1.13,2.75-2.8,1.76A7.43,7.43,0,0,1,245.93,668.67Zm7.72,4.58c-.12-2,1.13-2.75,2.79-1.77a7.46,7.46,0,0,1,3.22,5.34c.12,2-1.13,2.74-2.79,1.76A7.44,7.44,0,0,1,253.65,673.25Zm7.71,4.57c-.12-2,1.13-2.74,2.8-1.76a7.46,7.46,0,0,1,3.22,5.33c.12,2-1.13,2.75-2.79,1.77A7.48,7.48,0,0,1,261.36,677.82Zm7.72,4.58c-.12-2,1.13-2.75,2.8-1.76A7.44,7.44,0,0,1,275.1,686c.12,2-1.13,2.75-2.79,1.76A7.44,7.44,0,0,1,269.08,682.4ZM276.8,687c-.12-2,1.13-2.75,2.8-1.76a7.43,7.43,0,0,1,3.22,5.33c.12,2-1.13,2.75-2.79,1.76A7.42,7.42,0,0,1,276.8,687Zm7.72,4.58c-.12-2,1.13-2.75,2.79-1.76a7.41,7.41,0,0,1,3.23,5.33c.12,2-1.13,2.74-2.8,1.76A7.44,7.44,0,0,1,284.52,691.56Zm7.72,4.58c-.12-2,1.13-2.75,2.79-1.77a7.44,7.44,0,0,1,3.23,5.33c.12,2-1.14,2.75-2.8,1.77A7.46,7.46,0,0,1,292.24,696.14Zm7.72,4.57c-.12-2,1.13-2.74,2.79-1.76a7.46,7.46,0,0,1,3.23,5.33c.11,2-1.14,2.75-2.8,1.76A7.43,7.43,0,0,1,300,700.71Zm7.72,4.58c-.12-2,1.13-2.75,2.79-1.76a7.41,7.41,0,0,1,3.22,5.33c.12,2-1.13,2.75-2.79,1.76A7.41,7.41,0,0,1,307.68,705.29Zm7.71,4.58c-.11-2,1.14-2.75,2.8-1.76a7.39,7.39,0,0,1,3.22,5.33c.12,2-1.13,2.74-2.79,1.76A7.42,7.42,0,0,1,315.39,709.87Zm7.72,4.58c-.11-2,1.14-2.75,2.8-1.76a7.39,7.39,0,0,1,3.22,5.33c.12,2-1.13,2.74-2.8,1.75A7.42,7.42,0,0,1,323.11,714.45Zm7.72,4.57c-.12-1.95,1.14-2.74,2.8-1.76a7.46,7.46,0,0,1,3.22,5.33c.12,2-1.13,2.75-2.8,1.76A7.43,7.43,0,0,1,330.83,719Zm7.72,4.58c-.12-2,1.14-2.74,2.8-1.76a7.44,7.44,0,0,1,3.22,5.33c.12,2-1.14,2.74-2.8,1.76A7.44,7.44,0,0,1,338.55,723.6Zm7.72,4.58c-.12-2,1.14-2.75,2.8-1.76a7.44,7.44,0,0,1,3.22,5.33c.11,2-1.14,2.74-2.8,1.76A7.44,7.44,0,0,1,346.27,728.18Zm7.72,4.58c-.12-2,1.13-2.75,2.8-1.76a7.43,7.43,0,0,1,3.22,5.33c.11,1.95-1.14,2.74-2.8,1.75A7.39,7.39,0,0,1,354,732.76Zm7.72,4.57c-.12-2,1.13-2.74,2.8-1.75a7.42,7.42,0,0,1,3.22,5.32c.11,2-1.14,2.75-2.8,1.76A7.36,7.36,0,0,1,361.71,737.33Zm7.71,4.58c-.11-1.95,1.14-2.74,2.81-1.76a7.4,7.4,0,0,1,3.21,5.33c.12,2-1.13,2.74-2.8,1.76A7.44,7.44,0,0,1,369.42,741.91Zm15.24,9c-.12-2,1.14-2.75,2.8-1.76a7.44,7.44,0,0,1,3.22,5.33c.11,2-1.14,2.74-2.8,1.75A7.36,7.36,0,0,1,384.66,751Zm15.23,9c-.11-2,1.14-2.74,2.81-1.76a7.42,7.42,0,0,1,3.21,5.33c.12,2-1.14,2.74-2.8,1.76A7.44,7.44,0,0,1,399.89,760Zm15.24,9c-.12-2,1.14-2.75,2.8-1.76a7.44,7.44,0,0,1,3.22,5.33c.11,1.95-1.14,2.74-2.81,1.75A7.38,7.38,0,0,1,415.13,769Zm15.23,9c-.11-1.95,1.14-2.74,2.81-1.75a7.38,7.38,0,0,1,3.21,5.32c.11,2-1.14,2.74-2.8,1.76A7.41,7.41,0,0,1,430.36,778.05Zm15.24,9c-.12-2,1.14-2.74,2.8-1.76a7.44,7.44,0,0,1,3.22,5.33c.11,2-1.15,2.74-2.81,1.75A7.4,7.4,0,0,1,445.6,787.09Zm15.23,9c-.11-2,1.15-2.74,2.81-1.75a7.38,7.38,0,0,1,3.21,5.32c.11,1.95-1.14,2.74-2.81,1.75A7.36,7.36,0,0,1,460.83,796.12Zm15.24,9c-.12-2,1.14-2.74,2.8-1.76a7.37,7.37,0,0,1,3.21,5.33c.12,1.95-1.14,2.73-2.8,1.75A7.37,7.37,0,0,1,476.07,805.16Zm15.23,9c-.11-2,1.15-2.74,2.81-1.75a7.38,7.38,0,0,1,3.21,5.32c.11,2-1.15,2.74-2.81,1.75A7.38,7.38,0,0,1,491.3,814.19Zm15.23,9c-.11-2,1.15-2.74,2.81-1.76a7.37,7.37,0,0,1,3.21,5.33c.11,2-1.14,2.73-2.81,1.75A7.4,7.4,0,0,1,506.53,823.23Zm15.24,9c-.11-2,1.15-2.74,2.81-1.75a7.4,7.4,0,0,1,3.21,5.32c.11,1.95-1.15,2.74-2.81,1.75A7.35,7.35,0,0,1,521.77,832.26Zm15.23,9c-.11-2,1.15-2.74,2.81-1.76a7.37,7.37,0,0,1,3.21,5.33c.11,2-1.15,2.73-2.81,1.75A7.4,7.4,0,0,1,537,841.3Zm15.24,9c-.11-2,1.15-2.74,2.81-1.75a7.4,7.4,0,0,1,3.21,5.32c.1,2-1.15,2.74-2.82,1.75A7.39,7.39,0,0,1,552.24,850.33Zm15.23,9c-.11-2,1.15-2.74,2.82-1.75a7.35,7.35,0,0,1,3.2,5.32c.11,1.95-1.15,2.73-2.81,1.74A7.33,7.33,0,0,1,567.47,859.37Zm15.24,9c-.11-1.95,1.15-2.73,2.81-1.75a7.36,7.36,0,0,1,3.2,5.32c.11,1.95-1.15,2.73-2.81,1.75A7.36,7.36,0,0,1,582.71,868.4Zm15.23,9c-.11-2,1.15-2.74,2.82-1.75A7.35,7.35,0,0,1,604,881c.11,2-1.16,2.74-2.82,1.75A7.35,7.35,0,0,1,597.94,877.44Zm15.23,9c-.1-2,1.16-2.73,2.82-1.75a7.36,7.36,0,0,1,3.2,5.32c.11,2-1.15,2.73-2.81,1.75A7.37,7.37,0,0,1,613.17,886.47Zm15.24,9c-.11-2,1.15-2.73,2.82-1.74a7.35,7.35,0,0,1,3.2,5.31c.1,1.95-1.16,2.74-2.82,1.75A7.32,7.32,0,0,1,628.41,895.5Zm15.23,9c-.1-1.95,1.16-2.73,2.82-1.75a7.36,7.36,0,0,1,3.2,5.32c.11,1.95-1.16,2.73-2.82,1.75A7.39,7.39,0,0,1,643.64,904.54Zm15.24,9c-.11-2,1.16-2.73,2.82-1.74a7.35,7.35,0,0,1,3.2,5.31c.1,2-1.16,2.74-2.82,1.75A7.33,7.33,0,0,1,658.88,913.57Zm15.23,9c-.1-2,1.16-2.73,2.82-1.75a7.33,7.33,0,0,1,3.2,5.32c.1,2-1.16,2.73-2.82,1.74A7.35,7.35,0,0,1,674.11,922.61Zm15.24,9c-.11-1.94,1.16-2.73,2.82-1.74a7.39,7.39,0,0,1,3.2,5.31c.1,1.95-1.17,2.73-2.83,1.75A7.35,7.35,0,0,1,689.35,931.64Zm15.23,9c-.1-1.95,1.16-2.73,2.82-1.74a7.29,7.29,0,0,1,3.2,5.31c.1,2-1.16,2.73-2.82,1.74A7.29,7.29,0,0,1,704.58,940.68Zm15.23,9c-.1-1.94,1.17-2.72,2.83-1.74a7.35,7.35,0,0,1,3.19,5.31c.11,2-1.16,2.73-2.82,1.75A7.39,7.39,0,0,1,719.81,949.71Z"/><polygon class="cls-6" points="737.22 947.82 756.3 934.65 756.65 958.19 737.44 971.68 737.22 947.82"/><polygon class="cls-2" points="137.38 567.15 137.36 565.71 118.58 579.58 41.85 556.48 20.35 546.06 20.36 547.24 41.44 557.59 119.1 581.13 137.38 567.15"/><path class="cls-3" d="M118.58,579.58l18.78-13.87L92.35,521,68.6,509.87,20.35,546.06l21.5,10.42ZM83.65,550.82c-.23-1.46,1.68-2.45,4.26-2.22s4.85,1.59,5.07,3-1.68,2.45-4.26,2.22S83.87,552.28,83.65,550.82Zm33.72,16c-.23-1.45,1.68-2.45,4.26-2.22s4.85,1.6,5.07,3-1.68,2.45-4.26,2.23S117.59,568.25,117.37,566.79Z"/><polygon class="cls-2" points="336.55 416.32 336.53 414.88 317.76 428.75 241.02 405.65 219.52 395.23 219.54 396.41 240.61 406.76 318.27 430.3 336.55 416.32"/><path class="cls-3" d="M317.76,428.75l18.77-13.87-45-44.73L267.77,359l-48.25,36.19L241,405.65ZM282.82,400c-.23-1.46,1.68-2.45,4.26-2.22s4.85,1.59,5.07,3.05-1.68,2.45-4.26,2.22S283.05,401.45,282.82,400Zm33.72,16c-.23-1.45,1.68-2.45,4.26-2.22s4.85,1.59,5.07,3.05-1.68,2.45-4.26,2.22S316.76,417.42,316.54,416Z"/><polygon class="cls-27" points="30.84 542.03 35.28 543.11 36.88 545.44 34.06 546.69 29.62 545.61 28.02 543.29 30.84 542.03"/><polygon class="cls-11" points="34.57 547.58 34.6 547.56 34.08 546.68 34.06 546.69 29.63 545.62 30.16 546.51 34.57 547.58"/><polygon class="cls-9" points="37.43 546.37 36.88 545.44 34.08 546.68 34.6 547.56 37.43 546.37"/><polygon class="cls-9" points="28.02 543.29 28.67 544.4 30.13 546.5 30.16 546.51 29.63 545.62 29.62 545.61 28.02 543.29"/><ellipse class="cls-12" cx="32.82" cy="544.28" rx="2.24" ry="1.2" transform="translate(-60.08 6.98) rotate(-6.36)"/><ellipse class="cls-13" cx="32.8" cy="544.14" rx="2.25" ry="1.2" transform="translate(-58.24 6.67) rotate(-6.16)"/><ellipse class="cls-14" cx="32.78" cy="544" rx="2.25" ry="1.19" transform="translate(-56.39 6.36) rotate(-5.97)"/><ellipse class="cls-15" cx="32.76" cy="543.86" rx="2.26" ry="1.19" transform="translate(-54.52 6.05) rotate(-5.77)"/><ellipse class="cls-16" cx="32.74" cy="543.73" rx="2.26" ry="1.19" transform="translate(-52.64 5.75) rotate(-5.57)"/><ellipse class="cls-17" cx="32.72" cy="543.59" rx="2.27" ry="1.19" transform="translate(-50.75 5.45) rotate(-5.37)"/><ellipse class="cls-18" cx="32.7" cy="543.45" rx="2.27" ry="1.18" transform="translate(-48.85 5.16) rotate(-5.17)"/><ellipse class="cls-19" cx="32.69" cy="543.31" rx="2.28" ry="1.18" transform="translate(-46.93 4.87) rotate(-4.97)"/><ellipse class="cls-20" cx="32.67" cy="543.17" rx="2.29" ry="1.18" transform="matrix(1, -0.08, 0.08, 1, -45.01, 4.59)"/><ellipse class="cls-21" cx="32.65" cy="543.04" rx="2.29" ry="1.17" transform="translate(-43.08 4.32) rotate(-4.56)"/><polygon class="cls-27" points="67.15 514.33 71.58 515.41 73.19 517.74 70.37 518.99 65.93 517.91 64.32 515.58 67.15 514.33"/><polygon class="cls-11" points="70.87 519.87 70.91 519.86 70.39 518.98 70.37 518.99 65.94 517.91 66.47 518.8 70.87 519.87"/><polygon class="cls-9" points="73.73 518.67 73.19 517.74 70.39 518.98 70.91 519.86 73.73 518.67"/><polygon class="cls-9" points="64.32 515.58 64.98 516.69 66.44 518.79 66.47 518.8 65.94 517.91 65.93 517.91 64.32 515.58"/><ellipse class="cls-12" cx="69.13" cy="516.57" rx="2.24" ry="1.2" transform="translate(-56.78 10.83) rotate(-6.36)"/><ellipse class="cls-13" cx="69.11" cy="516.43" rx="2.25" ry="1.2" transform="translate(-55.05 10.41) rotate(-6.16)"/><ellipse class="cls-14" cx="69.09" cy="516.3" rx="2.25" ry="1.19" transform="translate(-53.31 9.98) rotate(-5.97)"/><ellipse class="cls-15" cx="69.07" cy="516.16" rx="2.26" ry="1.19" transform="matrix(0.99, -0.1, 0.1, 0.99, -51.55, 9.56)"/><ellipse class="cls-16" cx="69.05" cy="516.02" rx="2.26" ry="1.19" transform="translate(-49.78 9.14) rotate(-5.57)"/><ellipse class="cls-17" cx="69.03" cy="515.88" rx="2.27" ry="1.19" transform="translate(-48 8.73) rotate(-5.37)"/><ellipse class="cls-18" cx="69.01" cy="515.74" rx="2.27" ry="1.18" transform="translate(-46.2 8.32) rotate(-5.17)"/><ellipse class="cls-19" cx="68.99" cy="515.61" rx="2.28" ry="1.18" transform="translate(-44.4 7.91) rotate(-4.97)"/><ellipse class="cls-20" cx="68.97" cy="515.47" rx="2.29" ry="1.18" transform="translate(-42.58 7.51) rotate(-4.77)"/><ellipse class="cls-21" cx="68.95" cy="515.33" rx="2.29" ry="1.17" transform="translate(-40.76 7.12) rotate(-4.56)"/><polygon class="cls-27" points="120.02 564.52 124.46 565.6 126.07 567.92 123.24 569.17 118.81 568.1 117.2 565.77 120.02 564.52"/><polygon class="cls-11" points="123.75 570.06 123.79 570.04 123.27 569.16 123.24 569.17 118.82 568.1 119.34 568.99 123.75 570.06"/><polygon class="cls-9" points="126.61 568.86 126.07 567.92 123.27 569.16 123.79 570.04 126.61 568.86"/><polygon class="cls-9" points="117.2 565.77 117.86 566.88 119.31 568.98 119.34 568.99 118.82 568.1 118.81 568.1 117.2 565.77"/><ellipse class="cls-12" cx="122" cy="566.76" rx="2.24" ry="1.2" transform="translate(-62.02 17) rotate(-6.36)"/><ellipse class="cls-13" cx="121.99" cy="566.62" rx="2.25" ry="1.2" transform="translate(-60.14 16.37) rotate(-6.16)"/><ellipse class="cls-14" cx="121.97" cy="566.48" rx="2.25" ry="1.19" transform="translate(-58.24 15.75) rotate(-5.97)"/><ellipse class="cls-15" cx="121.95" cy="566.35" rx="2.26" ry="1.19" transform="translate(-56.33 15.13) rotate(-5.77)"/><ellipse class="cls-16" cx="121.93" cy="566.21" rx="2.26" ry="1.19" transform="translate(-54.4 14.51) rotate(-5.57)"/><ellipse class="cls-17" cx="121.91" cy="566.07" rx="2.27" ry="1.19" transform="translate(-52.46 13.9) rotate(-5.37)"/><ellipse class="cls-18" cx="121.89" cy="565.93" rx="2.27" ry="1.18" transform="matrix(1, -0.09, 0.09, 1, -50.51, 13.29)"/><ellipse class="cls-19" cx="121.87" cy="565.8" rx="2.28" ry="1.18" transform="matrix(1, -0.09, 0.09, 1, -48.55, 12.68)"/><ellipse class="cls-20" cx="121.85" cy="565.66" rx="2.29" ry="1.18" transform="translate(-46.57 12.08) rotate(-4.77)"/><ellipse class="cls-21" cx="121.83" cy="565.52" rx="2.29" ry="1.17" transform="translate(-44.59 11.48) rotate(-4.56)"/><polygon class="cls-27" points="86.42 547.08 90.85 548.16 92.46 550.49 89.64 551.74 85.2 550.66 83.59 548.33 86.42 547.08"/><polygon class="cls-11" points="90.14 552.62 90.18 552.61 89.66 551.73 89.64 551.74 85.21 550.66 85.74 551.55 90.14 552.62"/><polygon class="cls-9" points="93 551.42 92.46 550.49 89.66 551.73 90.18 552.61 93 551.42"/><polygon class="cls-9" points="83.59 548.33 84.25 549.44 85.71 551.54 85.74 551.55 85.21 550.66 85.2 550.66 83.59 548.33"/><ellipse class="cls-12" cx="88.4" cy="549.32" rx="2.24" ry="1.2" transform="translate(-60.29 13.17) rotate(-6.36)"/><ellipse class="cls-13" cx="88.38" cy="549.18" rx="2.25" ry="1.2" transform="translate(-58.46 12.67) rotate(-6.16)"/><ellipse class="cls-14" cx="88.36" cy="549.05" rx="2.25" ry="1.19" transform="translate(-56.61 12.16) rotate(-5.97)"/><ellipse class="cls-15" cx="88.34" cy="548.91" rx="2.26" ry="1.19" transform="translate(-54.75 11.66) rotate(-5.77)"/><ellipse class="cls-16" cx="88.32" cy="548.77" rx="2.26" ry="1.19" transform="translate(-52.87 11.17) rotate(-5.57)"/><ellipse class="cls-17" cx="88.3" cy="548.63" rx="2.27" ry="1.19" transform="translate(-50.98 10.68) rotate(-5.37)"/><ellipse class="cls-18" cx="88.28" cy="548.49" rx="2.27" ry="1.18" transform="translate(-49.07 10.19) rotate(-5.17)"/><ellipse class="cls-19" cx="88.26" cy="548.36" rx="2.28" ry="1.18" transform="translate(-47.16 9.7) rotate(-4.97)"/><ellipse class="cls-20" cx="88.24" cy="548.22" rx="2.29" ry="1.18" transform="matrix(1, -0.08, 0.08, 1, -45.24, 9.23)"/><ellipse class="cls-21" cx="88.22" cy="548.08" rx="2.29" ry="1.17" transform="translate(-43.31 8.75) rotate(-4.56)"/><polygon class="cls-27" points="231.56 391.71 236 392.79 237.61 395.12 234.78 396.37 230.35 395.29 228.74 392.96 231.56 391.71"/><polygon class="cls-11" points="235.29 397.25 235.33 397.24 234.81 396.36 234.78 396.37 230.35 395.29 230.88 396.18 235.29 397.25"/><polygon class="cls-9" points="238.15 396.05 237.61 395.12 234.81 396.36 235.33 397.24 238.15 396.05"/><polygon class="cls-9" points="228.74 392.96 229.4 394.07 230.85 396.18 230.88 396.18 230.35 395.29 230.35 395.29 228.74 392.96"/><ellipse class="cls-12" cx="233.54" cy="393.95" rx="2.24" ry="1.2" transform="translate(-42.19 28.29) rotate(-6.36)"/><ellipse class="cls-13" cx="233.52" cy="393.81" rx="2.25" ry="1.2" transform="translate(-40.94 27.35) rotate(-6.16)"/><ellipse class="cls-14" cx="233.5" cy="393.68" rx="2.25" ry="1.19" transform="translate(-39.67 26.41) rotate(-5.97)"/><ellipse class="cls-15" cx="233.48" cy="393.54" rx="2.26" ry="1.19" transform="translate(-38.39 25.47) rotate(-5.77)"/><ellipse class="cls-16" cx="233.47" cy="393.4" rx="2.26" ry="1.19" transform="translate(-37.1 24.53) rotate(-5.57)"/><ellipse class="cls-17" cx="233.45" cy="393.26" rx="2.27" ry="1.19" transform="translate(-35.79 23.58) rotate(-5.37)"/><ellipse class="cls-18" cx="233.43" cy="393.12" rx="2.27" ry="1.18" transform="translate(-34.48 22.64) rotate(-5.17)"/><ellipse class="cls-19" cx="233.41" cy="392.99" rx="2.28" ry="1.18" transform="translate(-33.16 21.69) rotate(-4.97)"/><ellipse class="cls-20" cx="233.39" cy="392.85" rx="2.29" ry="1.18" transform="translate(-31.83 20.75) rotate(-4.77)"/><ellipse class="cls-21" cx="233.37" cy="392.71" rx="2.29" ry="1.17" transform="matrix(1, -0.08, 0.08, 1, -30.49, 19.8)"/><polygon class="cls-27" points="267.87 364 272.3 365.08 273.91 367.41 271.09 368.66 266.65 367.58 265.04 365.25 267.87 364"/><polygon class="cls-11" points="271.59 369.55 271.63 369.53 271.11 368.65 271.09 368.66 266.66 367.58 267.19 368.48 271.59 369.55"/><polygon class="cls-9" points="274.45 368.34 273.91 367.41 271.11 368.65 271.63 369.53 274.45 368.34"/><polygon class="cls-9" points="265.04 365.25 265.7 366.37 267.16 368.47 267.19 368.48 266.66 367.58 266.65 367.58 265.04 365.25"/><ellipse class="cls-12" cx="269.85" cy="366.25" rx="2.24" ry="1.2" transform="translate(-38.9 32.14) rotate(-6.36)"/><ellipse class="cls-13" cx="269.83" cy="366.11" rx="2.25" ry="1.2" transform="translate(-37.75 31.09) rotate(-6.16)"/><ellipse class="cls-14" cx="269.81" cy="365.97" rx="2.25" ry="1.19" transform="translate(-36.59 30.04) rotate(-5.97)"/><ellipse class="cls-15" cx="269.79" cy="365.83" rx="2.26" ry="1.19" transform="translate(-35.42 28.98) rotate(-5.77)"/><ellipse class="cls-16" cx="269.77" cy="365.69" rx="2.26" ry="1.19" transform="translate(-34.23 27.92) rotate(-5.57)"/><ellipse class="cls-17" cx="269.75" cy="365.56" rx="2.27" ry="1.19" transform="translate(-33.04 26.86) rotate(-5.37)"/><ellipse class="cls-18" cx="269.73" cy="365.42" rx="2.27" ry="1.18" transform="translate(-31.84 25.8) rotate(-5.17)"/><ellipse class="cls-19" cx="269.71" cy="365.28" rx="2.28" ry="1.18" transform="translate(-30.62 24.73) rotate(-4.97)"/><ellipse class="cls-20" cx="269.69" cy="365.14" rx="2.29" ry="1.18" transform="translate(-29.4 23.67) rotate(-4.77)"/><ellipse class="cls-21" cx="269.67" cy="365.01" rx="2.29" ry="1.17" transform="translate(-28.17 22.6) rotate(-4.56)"/><polygon class="cls-27" points="320.75 414.19 325.18 415.27 326.79 417.6 323.96 418.85 319.53 417.77 317.92 415.44 320.75 414.19"/><polygon class="cls-11" points="324.47 419.74 324.51 419.72 323.99 418.84 323.96 418.85 319.54 417.77 320.07 418.67 324.47 419.74"/><polygon class="cls-9" points="327.33 418.53 326.79 417.6 323.99 418.84 324.51 419.72 327.33 418.53"/><polygon class="cls-9" points="317.92 415.44 318.58 416.56 320.04 418.66 320.07 418.67 319.54 417.77 319.53 417.77 317.92 415.44"/><ellipse class="cls-12" cx="322.73" cy="416.43" rx="2.24" ry="1.2" transform="translate(-44.13 38.3) rotate(-6.36)"/><ellipse class="cls-13" cx="322.71" cy="416.3" rx="2.25" ry="1.2" transform="translate(-42.84 37.06) rotate(-6.16)"/><ellipse class="cls-14" cx="322.69" cy="416.16" rx="2.25" ry="1.19" transform="translate(-41.52 35.81) rotate(-5.97)"/><ellipse class="cls-15" cx="322.67" cy="416.02" rx="2.26" ry="1.19" transform="translate(-40.2 34.55) rotate(-5.77)"/><ellipse class="cls-16" cx="322.65" cy="415.88" rx="2.26" ry="1.19" transform="translate(-38.86 33.29) rotate(-5.57)"/><ellipse class="cls-17" cx="322.63" cy="415.74" rx="2.27" ry="1.19" transform="translate(-37.51 32.03) rotate(-5.37)"/><ellipse class="cls-18" cx="322.61" cy="415.61" rx="2.27" ry="1.18" transform="translate(-36.14 30.77) rotate(-5.17)"/><ellipse class="cls-19" cx="322.59" cy="415.47" rx="2.28" ry="1.18" transform="translate(-34.77 29.5) rotate(-4.97)"/><ellipse class="cls-20" cx="322.57" cy="415.33" rx="2.29" ry="1.18" transform="translate(-33.39 28.23) rotate(-4.77)"/><ellipse class="cls-21" cx="322.55" cy="415.19" rx="2.29" ry="1.17" transform="translate(-32 26.97) rotate(-4.56)"/><polygon class="cls-27" points="287.14 396.75 291.57 397.83 293.18 400.16 290.36 401.41 285.92 400.33 284.31 398 287.14 396.75"/><polygon class="cls-11" points="290.86 402.3 290.9 402.28 290.38 401.4 290.36 401.41 285.93 400.33 286.46 401.23 290.86 402.3"/><polygon class="cls-9" points="293.73 401.09 293.18 400.16 290.38 401.4 290.9 402.28 293.73 401.09"/><polygon class="cls-9" points="284.31 398 284.97 399.12 286.43 401.22 286.46 401.23 285.93 400.33 285.92 400.33 284.31 398"/><ellipse class="cls-12" cx="289.12" cy="399" rx="2.24" ry="1.2" transform="translate(-42.41 34.47) rotate(-6.36)"/><ellipse class="cls-13" cx="289.1" cy="398.86" rx="2.25" ry="1.2" transform="translate(-41.16 33.35) rotate(-6.16)"/><ellipse class="cls-14" cx="289.08" cy="398.72" rx="2.25" ry="1.19" transform="translate(-39.89 32.22) rotate(-5.97)"/><ellipse class="cls-15" cx="289.06" cy="398.58" rx="2.26" ry="1.19" transform="translate(-38.61 31.09) rotate(-5.77)"/><ellipse class="cls-16" cx="289.04" cy="398.44" rx="2.26" ry="1.19" transform="translate(-37.32 29.95) rotate(-5.57)"/><ellipse class="cls-17" cx="289.02" cy="398.31" rx="2.27" ry="1.19" transform="translate(-36.02 28.81) rotate(-5.37)"/><ellipse class="cls-18" cx="289" cy="398.17" rx="2.27" ry="1.18" transform="translate(-34.71 27.67) rotate(-5.17)"/><ellipse class="cls-19" cx="288.98" cy="398.03" rx="2.28" ry="1.18" transform="translate(-33.39 26.52) rotate(-4.97)"/><ellipse class="cls-20" cx="288.96" cy="397.89" rx="2.29" ry="1.18" transform="matrix(1, -0.08, 0.08, 1, -32.06, 25.38)"/><ellipse class="cls-21" cx="288.94" cy="397.76" rx="2.29" ry="1.17" transform="translate(-30.72 24.24) rotate(-4.56)"/><polyline class="cls-4" points="737.61 946.68 753.47 931.11 686.75 891.24 670.6 902.21"/><polygon class="cls-5" points="732.03 943.35 670.65 906.67 670.6 902.21 733.98 940.09 732.03 943.35"/><polygon class="cls-5" points="737.61 946.68 732.03 943.35 733.98 940.09 737.55 942.22 739.72 940.7 753.47 931.11 753.5 936.04 738.98 945.75 737.61 946.68"/><path class="cls-5" d="M718.3,919.39a10.6,10.6,0,0,0,3.66-3.61,3.58,3.58,0,0,0,.51-1.69l-4.79-369.36-11.92-7.23,5,381.68a.19.19,0,0,0,0,.07,1.74,1.74,0,0,0,.26.93,2.64,2.64,0,0,0,2.51.93A10.41,10.41,0,0,0,718.3,919.39Z"/><polygon class="cls-27" points="685.58 898.98 690.01 900.05 691.63 902.38 688.8 903.63 684.36 902.56 682.75 900.23 685.58 898.98"/><polygon class="cls-11" points="689.3 904.52 689.34 904.5 688.82 903.63 688.8 903.63 684.37 902.56 684.9 903.45 689.3 904.52"/><polygon class="cls-9" points="692.17 903.32 691.63 902.38 688.82 903.63 689.34 904.5 692.17 903.32"/><polygon class="cls-9" points="682.75 900.23 683.41 901.34 684.87 903.44 684.9 903.45 684.37 902.56 684.36 902.56 682.75 900.23"/><ellipse class="cls-12" cx="687.56" cy="901.22" rx="2.24" ry="1.2" transform="translate(-95.58 81.69) rotate(-6.36)"/><ellipse class="cls-13" cx="687.54" cy="901.08" rx="2.25" ry="1.2" transform="translate(-92.78 79.04) rotate(-6.16)"/><ellipse class="cls-14" cx="687.52" cy="900.94" rx="2.25" ry="1.19" transform="translate(-89.95 76.37) rotate(-5.97)"/><ellipse class="cls-15" cx="687.5" cy="900.81" rx="2.26" ry="1.19" transform="translate(-87.09 73.7) rotate(-5.77)"/><ellipse class="cls-16" cx="687.48" cy="900.67" rx="2.26" ry="1.19" transform="translate(-84.21 71.01) rotate(-5.57)"/><ellipse class="cls-17" cx="687.46" cy="900.53" rx="2.27" ry="1.19" transform="translate(-81.29 68.32) rotate(-5.37)"/><ellipse class="cls-18" cx="687.44" cy="900.39" rx="2.27" ry="1.18" transform="translate(-78.35 65.62) rotate(-5.17)"/><ellipse class="cls-19" cx="687.42" cy="900.26" rx="2.28" ry="1.18" transform="matrix(1, -0.09, 0.09, 1, -75.39, 62.92)"/><ellipse class="cls-20" cx="687.4" cy="900.12" rx="2.29" ry="1.18" transform="matrix(1, -0.08, 0.08, 1, -72.4, 60.22)"/><ellipse class="cls-21" cx="687.39" cy="899.98" rx="2.29" ry="1.17" transform="translate(-69.39 57.51) rotate(-4.56)"/><polygon class="cls-27" points="735.34 929.25 739.77 930.33 741.38 932.66 738.55 933.91 734.12 932.83 732.51 930.5 735.34 929.25"/><polygon class="cls-11" points="739.06 934.8 739.1 934.78 738.58 933.9 738.55 933.91 734.13 932.84 734.65 933.73 739.06 934.8"/><polygon class="cls-9" points="741.92 933.59 741.38 932.66 738.58 933.9 739.1 934.78 741.92 933.59"/><polygon class="cls-9" points="732.51 930.5 733.17 931.62 734.63 933.72 734.65 933.73 734.13 932.84 734.12 932.83 732.51 930.5"/><ellipse class="cls-12" cx="737.32" cy="931.5" rx="2.24" ry="1.2" transform="translate(-98.63 87.39) rotate(-6.36)"/><ellipse class="cls-13" cx="737.3" cy="931.36" rx="2.25" ry="1.2" transform="translate(-95.74 84.55) rotate(-6.16)"/><ellipse class="cls-14" cx="737.28" cy="931.22" rx="2.25" ry="1.19" transform="translate(-92.83 81.71) rotate(-5.97)"/><ellipse class="cls-15" cx="737.26" cy="931.08" rx="2.26" ry="1.19" transform="translate(-89.89 78.85) rotate(-5.77)"/><ellipse class="cls-16" cx="737.24" cy="930.95" rx="2.26" ry="1.19" transform="translate(-86.91 75.98) rotate(-5.57)"/><ellipse class="cls-17" cx="737.22" cy="930.81" rx="2.27" ry="1.19" transform="translate(-83.91 73.11) rotate(-5.37)"/><ellipse class="cls-18" cx="737.2" cy="930.67" rx="2.27" ry="1.18" transform="matrix(1, -0.09, 0.09, 1, -80.88, 70.23)"/><ellipse class="cls-19" cx="737.18" cy="930.53" rx="2.28" ry="1.18" transform="matrix(1, -0.09, 0.09, 1, -77.82, 67.34)"/><ellipse class="cls-20" cx="737.16" cy="930.39" rx="2.29" ry="1.18" transform="translate(-74.74 64.45) rotate(-4.77)"/><ellipse class="cls-21" cx="737.14" cy="930.26" rx="2.29" ry="1.17" transform="translate(-71.64 61.57) rotate(-4.56)"/><polygon class="cls-28" points="682.42 514.58 662.24 526.5 661.61 551.17 729.75 588.4 751.19 557.62 682.42 514.58"/><path class="cls-4" d="M751.84,555.32,69,150.35l-18.62,14L732.27,568.71Zm-14.18,4.09a6.1,6.1,0,0,1-5.85,0c-1.66-1-1.74-2.6-.18-3.6a6.1,6.1,0,0,1,5.85,0C739.14,556.79,739.22,558.41,737.66,559.41Zm-17.07-10.12a6.08,6.08,0,0,1-5.84,0c-1.67-1-1.75-2.6-.19-3.61a6.1,6.1,0,0,1,5.85,0C722.07,546.67,722.15,548.28,720.59,549.29Zm-17.07-10.13a6.06,6.06,0,0,1-5.84,0c-1.66-1-1.75-2.6-.19-3.61a6.08,6.08,0,0,1,5.84,0C705,536.54,705.08,538.16,703.52,539.16ZM686.45,529a6.08,6.08,0,0,1-5.84,0c-1.66-1-1.75-2.6-.19-3.61a6.06,6.06,0,0,1,5.84,0C687.93,526.42,688,528,686.45,529Zm-17.07-10.12a6.06,6.06,0,0,1-5.83,0c-1.67-1-1.75-2.61-.2-3.62a6.11,6.11,0,0,1,5.84,0C670.85,516.29,670.94,517.91,669.38,518.92Zm-17.07-10.13a6,6,0,0,1-5.83,0c-1.66-1-1.75-2.6-.2-3.61a6.06,6.06,0,0,1,5.84,0C653.78,506.17,653.87,507.78,652.31,508.79Zm-17.07-10.12a6,6,0,0,1-5.83,0c-1.66-1-1.75-2.6-.19-3.61a6,6,0,0,1,5.82-.05C636.71,496,636.8,497.66,635.24,498.67Zm-49.92-29.6a6,6,0,0,1-5.82,0c-1.66-1-1.75-2.6-.2-3.62a6,6,0,0,1,5.82-.05C586.78,466.43,586.87,468.05,585.32,469.07Zm-29.23-22.76,3.21-2.1,12.91,7.66L569,454ZM71,164a5.77,5.77,0,0,1,5.73-.11c1.66,1,1.79,2.64.29,3.68a5.77,5.77,0,0,1-5.73.1C69.59,166.7,69.46,165.06,71,164Zm26.68,15.82a5.77,5.77,0,0,1,5.73-.1c1.67,1,1.79,2.63.29,3.67a5.77,5.77,0,0,1-5.73.1C96.26,182.52,96.13,180.88,97.64,179.84Zm16.35,9.7a5.78,5.78,0,0,1,5.74-.1c1.66,1,1.79,2.63.28,3.67a5.79,5.79,0,0,1-5.73.1C112.61,192.22,112.48,190.58,114,189.54Zm20.35,12.06a5.78,5.78,0,0,1,5.74-.09c1.66,1,1.79,2.63.28,3.67a5.78,5.78,0,0,1-5.74.09C133,204.29,132.83,202.64,134.34,201.6ZM178.83,228a5.85,5.85,0,0,1,5.75-.09c1.67,1,1.79,2.63.28,3.67a5.85,5.85,0,0,1-5.75.09C177.45,230.67,177.32,229,178.83,228Zm44.5,26.39a5.85,5.85,0,0,1,5.76-.08c1.66,1,1.78,2.62.26,3.65a5.8,5.8,0,0,1-5.75.09C221.93,257.05,221.81,255.42,223.33,254.38Zm44.5,26.39a5.85,5.85,0,0,1,5.76-.08c1.66,1,1.78,2.62.26,3.65a5.85,5.85,0,0,1-5.76.08C266.42,283.44,266.31,281.8,267.83,280.77Zm44.49,26.39a5.89,5.89,0,0,1,5.77-.08c1.67,1,1.78,2.62.26,3.65a5.91,5.91,0,0,1-5.78.08C310.91,309.82,310.8,308.19,312.32,307.16Zm44.5,26.39a5.89,5.89,0,0,1,5.78-.07c1.66,1,1.77,2.62.24,3.64a5.89,5.89,0,0,1-5.78.07C355.4,336.21,355.29,334.57,356.82,333.55Zm44.49,26.39a5.91,5.91,0,0,1,5.79-.07c1.67,1,1.77,2.62.24,3.64a6,6,0,0,1-5.79.07C399.89,362.59,399.78,361,401.31,359.94Zm44.5,26.39a6,6,0,0,1,5.8-.07c1.66,1,1.76,2.62.22,3.64A5.93,5.93,0,0,1,446,390C444.38,389,444.27,387.35,445.81,386.33Zm44.5,26.39a6,6,0,0,1,5.8-.06c1.66,1,1.76,2.61.22,3.63a6,6,0,0,1-5.8.06C488.86,415.36,488.76,413.73,490.31,412.72ZM534.8,439.1a6,6,0,0,1,5.81-.05c1.67,1,1.76,2.61.22,3.63a6,6,0,0,1-5.82.05C533.35,441.74,533.26,440.12,534.8,439.1ZM547.42,452l9.05.52.25-.17.4-.26,3.34-2.19,2.47,1.47-5.21,3.41a2.75,2.75,0,0,0-.37.28c-.71.64-.79,1.39-.12,1.79a3.35,3.35,0,0,0,2.86-.16,3.14,3.14,0,0,0,.44-.25l5.2-3.41,2.47,1.47-5.2,3.41-.4.26h0c-2.84,1.68-6.62,2.07-8.66.86-1.67-1-1.67-2.76-.23-4.38l-9.47-.54Z"/><path class="cls-5" d="M732.27,568.71,50.38,164.3l.29,24.23L732.74,593.4ZM68.22,187.1c-.12-2,1.12-2.76,2.78-1.77a7.42,7.42,0,0,1,3.24,5.34c.13,2-1.11,2.75-2.78,1.77A7.52,7.52,0,0,1,68.22,187.1Zm14.15,8.38c-.13-2,1.11-2.75,2.78-1.77a7.48,7.48,0,0,1,3.23,5.34c.13,2-1.11,2.76-2.78,1.77A7.44,7.44,0,0,1,82.37,195.48Zm14.14,8.39c-.13-2,1.12-2.76,2.78-1.77a7.52,7.52,0,0,1,3.24,5.34c.12,2-1.12,2.75-2.79,1.77A7.48,7.48,0,0,1,96.51,203.87Zm14.14,8.39c-.13-2,1.12-2.76,2.78-1.77a7.48,7.48,0,0,1,3.24,5.33c.12,2-1.13,2.76-2.79,1.77A7.44,7.44,0,0,1,110.65,212.26Zm14.14,8.38c-.13-2,1.12-2.75,2.78-1.77a7.52,7.52,0,0,1,3.24,5.34c.12,2-1.13,2.75-2.79,1.77A7.48,7.48,0,0,1,124.79,220.64ZM138.93,229c-.13-2,1.12-2.76,2.78-1.77A7.49,7.49,0,0,1,145,232.6c.12,2-1.13,2.75-2.79,1.76A7.44,7.44,0,0,1,138.93,229Zm14.14,8.38c-.13-2,1.12-2.75,2.78-1.76a7.45,7.45,0,0,1,3.24,5.33c.12,2-1.13,2.76-2.79,1.77A7.48,7.48,0,0,1,153.07,237.41Zm14.14,8.39c-.12-2,1.12-2.75,2.79-1.77a7.48,7.48,0,0,1,3.23,5.34c.12,2-1.13,2.75-2.79,1.77A7.48,7.48,0,0,1,167.21,245.8Zm14.14,8.39c-.12-2,1.13-2.75,2.79-1.77a7.48,7.48,0,0,1,3.23,5.34c.12,2-1.13,2.75-2.79,1.76A7.44,7.44,0,0,1,181.35,254.19Zm14.14,8.38c-.12-2,1.13-2.75,2.79-1.76a7.44,7.44,0,0,1,3.23,5.33c.12,2-1.13,2.75-2.79,1.77A7.48,7.48,0,0,1,195.49,262.57Zm14.62,8.67c-.12-2,1.13-2.75,2.79-1.76a7.44,7.44,0,0,1,3.23,5.33c.12,2-1.13,2.75-2.79,1.77A7.48,7.48,0,0,1,210.11,271.24Zm7.72,4.58c-.12-2,1.13-2.75,2.79-1.76a7.44,7.44,0,0,1,3.23,5.33c.12,2-1.13,2.75-2.79,1.76A7.41,7.41,0,0,1,217.83,275.82Zm7.72,4.58c-.12-2,1.12-2.75,2.79-1.77a7.51,7.51,0,0,1,3.23,5.34c.12,2-1.13,2.75-2.8,1.76A7.44,7.44,0,0,1,225.55,280.4Zm7.71,4.58c-.12-2,1.13-2.75,2.8-1.77a7.46,7.46,0,0,1,3.22,5.33c.12,2-1.13,2.75-2.79,1.77A7.51,7.51,0,0,1,233.26,285Zm7.72,4.57c-.12-2,1.13-2.75,2.8-1.76a7.44,7.44,0,0,1,3.22,5.33c.12,2-1.13,2.75-2.79,1.76A7.44,7.44,0,0,1,241,289.55Zm7.72,4.58c-.12-2,1.13-2.75,2.79-1.76a7.41,7.41,0,0,1,3.23,5.33c.12,2-1.13,2.75-2.79,1.76A7.44,7.44,0,0,1,248.7,294.13Zm7.72,4.58c-.12-2,1.13-2.75,2.79-1.76a7.41,7.41,0,0,1,3.23,5.33c.12,2-1.13,2.75-2.79,1.76A7.42,7.42,0,0,1,256.42,298.71Zm7.72,4.58c-.12-2,1.13-2.75,2.79-1.77a7.44,7.44,0,0,1,3.23,5.34c.12,1.95-1.13,2.74-2.8,1.76A7.46,7.46,0,0,1,264.14,303.29Zm7.72,4.57c-.12-2,1.13-2.74,2.79-1.76a7.46,7.46,0,0,1,3.23,5.33c.12,2-1.13,2.75-2.8,1.76A7.43,7.43,0,0,1,271.86,307.86Zm7.72,4.58c-.12-2,1.13-2.75,2.79-1.76A7.46,7.46,0,0,1,285.6,316c.11,2-1.14,2.75-2.8,1.76A7.43,7.43,0,0,1,279.58,312.44ZM287.3,317c-.12-2,1.13-2.75,2.79-1.76a7.39,7.39,0,0,1,3.22,5.33c.12,2-1.13,2.74-2.79,1.76A7.41,7.41,0,0,1,287.3,317ZM295,321.6c-.11-2,1.14-2.75,2.8-1.76a7.39,7.39,0,0,1,3.22,5.33c.12,1.95-1.13,2.74-2.79,1.76A7.48,7.48,0,0,1,295,321.6Zm7.72,4.57c-.12-1.95,1.14-2.74,2.8-1.76a7.46,7.46,0,0,1,3.22,5.33c.12,2-1.13,2.75-2.79,1.76A7.41,7.41,0,0,1,302.73,326.17Zm7.72,4.58c-.12-2,1.14-2.74,2.8-1.76a7.44,7.44,0,0,1,3.22,5.33c.12,2-1.13,2.75-2.8,1.76A7.44,7.44,0,0,1,310.45,330.75Zm7.72,4.58c-.12-2,1.13-2.75,2.8-1.76a7.44,7.44,0,0,1,3.22,5.33c.12,2-1.14,2.74-2.8,1.76A7.44,7.44,0,0,1,318.17,335.33Zm7.72,4.58c-.12-2,1.13-2.75,2.8-1.76a7.43,7.43,0,0,1,3.22,5.33c.11,1.95-1.14,2.74-2.8,1.76A7.46,7.46,0,0,1,325.89,339.91Zm7.72,4.57c-.12-2,1.13-2.74,2.8-1.75a7.42,7.42,0,0,1,3.22,5.32c.11,2-1.14,2.75-2.8,1.76A7.39,7.39,0,0,1,333.61,344.48Zm7.72,4.58c-.12-1.95,1.13-2.74,2.79-1.76a7.4,7.4,0,0,1,3.22,5.33c.12,2-1.13,2.75-2.79,1.76A7.38,7.38,0,0,1,341.33,349.06Zm7.71,4.58c-.11-2,1.14-2.74,2.8-1.76a7.38,7.38,0,0,1,3.22,5.33c.12,2-1.13,2.74-2.8,1.76A7.44,7.44,0,0,1,349,353.64Zm7.72,4.58c-.11-2,1.14-2.75,2.8-1.76a7.38,7.38,0,0,1,3.22,5.33c.12,1.95-1.14,2.74-2.8,1.75A7.42,7.42,0,0,1,356.76,358.22Zm7.72,4.57c-.11-2,1.14-2.74,2.8-1.75a7.39,7.39,0,0,1,3.22,5.32c.12,2-1.14,2.75-2.8,1.76A7.43,7.43,0,0,1,364.48,362.79Zm15.24,9c-.12-2,1.14-2.74,2.8-1.76a7.44,7.44,0,0,1,3.22,5.33c.11,2-1.14,2.74-2.81,1.76A7.4,7.4,0,0,1,379.72,371.83Zm15.23,9c-.11-1.95,1.14-2.74,2.8-1.75a7.36,7.36,0,0,1,3.22,5.32c.11,2-1.14,2.75-2.8,1.76A7.38,7.38,0,0,1,395,380.86Zm15.23,9c-.11-2,1.15-2.74,2.81-1.76a7.4,7.4,0,0,1,3.21,5.33c.12,1.95-1.14,2.74-2.8,1.75A7.42,7.42,0,0,1,410.18,389.9Zm15.24,9c-.11-1.95,1.14-2.74,2.8-1.75a7.38,7.38,0,0,1,3.22,5.32c.11,2-1.14,2.74-2.81,1.76A7.4,7.4,0,0,1,425.42,398.93Zm15.23,9c-.11-2,1.15-2.74,2.81-1.75a7.36,7.36,0,0,1,3.21,5.32c.12,1.95-1.14,2.74-2.8,1.75A7.39,7.39,0,0,1,440.65,408Zm15.24,9c-.11-1.95,1.14-2.74,2.8-1.75a7.38,7.38,0,0,1,3.22,5.32c.11,2-1.15,2.74-2.81,1.76A7.4,7.4,0,0,1,455.89,417Zm15.23,9c-.11-2,1.15-2.74,2.81-1.75a7.38,7.38,0,0,1,3.21,5.32c.11,1.95-1.14,2.74-2.81,1.75A7.38,7.38,0,0,1,471.12,426Zm15.24,9c-.11-1.95,1.14-2.73,2.81-1.75a7.43,7.43,0,0,1,3.21,5.32c.11,2-1.15,2.74-2.81,1.76A7.37,7.37,0,0,1,486.36,435.07Zm15.23,9c-.11-1.95,1.15-2.74,2.81-1.75a7.38,7.38,0,0,1,3.21,5.32c.11,1.95-1.15,2.74-2.81,1.75A7.4,7.4,0,0,1,501.59,444.11Zm15.23,9c-.1-1.95,1.15-2.73,2.82-1.75a7.39,7.39,0,0,1,3.2,5.32c.11,2-1.14,2.74-2.81,1.75A7.36,7.36,0,0,1,516.82,453.14Zm15.24,9c-.11-1.95,1.15-2.74,2.81-1.75a7.38,7.38,0,0,1,3.21,5.32c.11,1.95-1.15,2.73-2.81,1.75A7.37,7.37,0,0,1,532.06,462.18Zm15.23,9c-.11-1.95,1.15-2.73,2.82-1.75a7.39,7.39,0,0,1,3.2,5.32c.11,2-1.15,2.74-2.81,1.75A7.36,7.36,0,0,1,547.29,471.21Zm15.24,9c-.11-1.95,1.15-2.74,2.81-1.75a7.4,7.4,0,0,1,3.21,5.32c.11,1.95-1.15,2.73-2.82,1.75A7.39,7.39,0,0,1,562.53,480.25Zm15.23,9c-.11-1.95,1.16-2.73,2.82-1.75a7.39,7.39,0,0,1,3.2,5.32c.11,1.95-1.15,2.74-2.81,1.75A7.33,7.33,0,0,1,577.76,489.28Zm15.24,9c-.11-1.95,1.15-2.74,2.81-1.75a7.37,7.37,0,0,1,3.21,5.32c.1,1.95-1.16,2.73-2.82,1.75A7.36,7.36,0,0,1,593,498.32Zm15.23,9c-.11-2,1.16-2.73,2.82-1.74a7.35,7.35,0,0,1,3.2,5.31c.11,1.95-1.15,2.74-2.82,1.75A7.39,7.39,0,0,1,608.23,507.35Zm15.24,9c-.11-1.95,1.15-2.73,2.81-1.75a7.33,7.33,0,0,1,3.2,5.32c.11,1.95-1.15,2.73-2.81,1.74A7.29,7.29,0,0,1,623.47,516.39Zm15.23,9c-.11-1.95,1.16-2.73,2.82-1.74a7.35,7.35,0,0,1,3.2,5.31c.1,2-1.16,2.73-2.82,1.75A7.36,7.36,0,0,1,638.7,525.42Zm15.23,9c-.1-2,1.16-2.73,2.82-1.75A7.33,7.33,0,0,1,660,538c.11,2-1.16,2.73-2.82,1.74A7.35,7.35,0,0,1,653.93,534.46Zm15.24,9c-.11-2,1.16-2.73,2.82-1.74a7.35,7.35,0,0,1,3.2,5.31c.1,2-1.16,2.73-2.82,1.75A7.33,7.33,0,0,1,669.17,543.49Zm15.23,9c-.1-1.95,1.16-2.73,2.83-1.75a7.35,7.35,0,0,1,3.19,5.32c.11,1.95-1.16,2.73-2.82,1.74A7.35,7.35,0,0,1,684.4,552.53Zm15.24,9c-.11-1.95,1.16-2.73,2.82-1.74a7.35,7.35,0,0,1,3.2,5.31c.1,2-1.17,2.73-2.83,1.75A7.35,7.35,0,0,1,699.64,561.56Zm15.23,9c-.1-2,1.16-2.73,2.83-1.75a7.35,7.35,0,0,1,3.19,5.32c.1,2-1.16,2.73-2.82,1.74A7.31,7.31,0,0,1,714.87,570.6Z"/><polygon class="cls-6" points="732.27 568.71 751.84 555.32 752.24 579.69 732.74 593.4 732.27 568.71"/><rect class="cls-29" x="678.56" y="443.54" width="2.9" height="4"/><rect class="cls-30" x="681.46" y="443.54" width="4.84" height="4"/><rect class="cls-29" x="686.3" y="443.54" width="1.93" height="4"/><rect class="cls-30" x="680.98" y="471.54" width="4.84" height="1"/><rect class="cls-30" x="680.98" y="475.54" width="4.84" height="1"/><rect class="cls-30" x="680.98" y="473.54" width="4.84" height="1"/><rect class="cls-30" x="680.98" y="474.54" width="4.84" height="1"/><rect class="cls-30" x="680.98" y="469.54" width="4.84" height="1"/><rect class="cls-30" x="680.98" y="472.54" width="4.84" height="1"/><rect class="cls-30" x="680.98" y="470.54" width="4.84" height="1"/><rect class="cls-30" x="680.98" y="447.54" width="4.84" height="18"/><rect class="cls-30" x="680.98" y="465.54" width="4.84" height="1"/><rect class="cls-30" x="680.98" y="467.54" width="4.84" height="1"/><rect class="cls-30" x="680.98" y="468.54" width="4.84" height="1"/><rect class="cls-30" x="680.98" y="466.54" width="4.84" height="1"/><rect class="cls-30" x="680.98" y="482.54" width="4.84" height="1"/><rect class="cls-30" x="680.98" y="485.54" width="4.84" height="1"/><rect class="cls-30" x="680.98" y="484.54" width="4.84" height="1"/><rect class="cls-30" x="680.98" y="486.54" width="4.84" height="1"/><rect class="cls-30" x="680.98" y="483.54" width="4.84" height="1"/><rect class="cls-30" x="680.98" y="487.54" width="4.84" height="1"/><rect class="cls-30" x="680.98" y="480.54" width="4.84" height="1"/><rect class="cls-30" x="680.98" y="478.54" width="4.84" height="1"/><rect class="cls-30" x="680.98" y="477.54" width="4.84" height="1"/><rect class="cls-30" x="680.98" y="476.54" width="4.84" height="1"/><rect class="cls-30" x="680.98" y="479.54" width="4.84" height="1"/><rect class="cls-30" x="680.98" y="481.54" width="4.84" height="1"/><line class="cls-31" x1="690.74" y1="494.79" x2="676.05" y2="494.79"/><rect class="cls-29" x="729.81" y="473.56" width="2.9" height="4"/><rect class="cls-30" x="732.71" y="473.56" width="4.84" height="4"/><rect class="cls-29" x="737.55" y="473.56" width="1.93" height="4"/><rect class="cls-30" x="732.23" y="501.56" width="4.84" height="1"/><rect class="cls-30" x="732.23" y="505.56" width="4.84" height="1"/><rect class="cls-30" x="732.23" y="503.56" width="4.84" height="1"/><rect class="cls-30" x="732.23" y="504.56" width="4.84" height="1"/><rect class="cls-30" x="732.23" y="499.56" width="4.84" height="1"/><rect class="cls-30" x="732.23" y="502.56" width="4.84" height="1"/><rect class="cls-30" x="732.23" y="500.56" width="4.84" height="1"/><rect class="cls-30" x="732.23" y="477.56" width="4.84" height="18"/><rect class="cls-30" x="732.23" y="495.56" width="4.84" height="1"/><rect class="cls-30" x="732.23" y="497.56" width="4.84" height="1"/><rect class="cls-30" x="732.23" y="498.56" width="4.84" height="1"/><rect class="cls-30" x="732.23" y="496.56" width="4.84" height="1"/><rect class="cls-30" x="732.23" y="512.56" width="4.84" height="1"/><rect class="cls-30" x="732.23" y="515.56" width="4.84" height="1"/><rect class="cls-30" x="732.23" y="514.56" width="4.84" height="1"/><rect class="cls-30" x="732.23" y="516.56" width="4.84" height="1"/><rect class="cls-30" x="732.23" y="513.56" width="4.84" height="1"/><rect class="cls-30" x="732.23" y="517.56" width="4.84" height="1"/><rect class="cls-30" x="732.23" y="510.56" width="4.84" height="1"/><rect class="cls-30" x="732.23" y="508.56" width="4.84" height="1"/><rect class="cls-30" x="732.23" y="507.56" width="4.84" height="1"/><rect class="cls-30" x="732.23" y="506.56" width="4.84" height="1"/><rect class="cls-30" x="732.23" y="509.56" width="4.84" height="1"/><rect class="cls-30" x="732.23" y="511.56" width="4.84" height="1"/><line class="cls-31" x1="741.99" y1="524.81" x2="727.3" y2="524.81"/><rect class="cls-29" x="676.4" y="572.84" width="4.2" height="7"/><rect class="cls-30" x="680.6" y="572.84" width="7" height="7"/><rect class="cls-29" x="687.6" y="572.84" width="2.8" height="7"/><rect class="cls-29" x="727.74" y="597.37" width="4.2" height="7"/><rect class="cls-30" x="731.94" y="597.37" width="7" height="7"/><rect class="cls-29" x="738.94" y="597.37" width="2.8" height="7"/><path class="cls-9" d="M685.42,921.7c1,5.16-1.17,9.95-5.71,10.87s-9.07-2.52-10.1-7.68,1.8-10.08,6.34-11S684.39,916.55,685.42,921.7Z"/><ellipse class="cls-22" cx="677.32" cy="923.34" rx="7.87" ry="9.52" transform="translate(-169.01 151.95) rotate(-11.39)"/><polygon class="cls-24" points="677.93 918.15 673.68 919.05 672.05 920.04 676.46 919.05 676.46 919.05 677.93 918.15 677.93 918.15"/><polygon class="cls-23" points="680.85 928.43 676.46 929.42 672.07 925.22 672.07 920.04 676.46 919.05 680.85 923.25 680.85 928.43"/><polygon class="cls-25" points="682.22 922.41 677.93 918.15 676.46 919.05 680.85 923.25 680.85 923.28 682.22 922.44 682.22 922.41"/><polygon class="cls-24" points="680.85 923.28 680.85 928.42 682.22 927.58 682.22 922.44 680.85 923.28"/><path class="cls-9" d="M731.78,949.75c1,5.15-1.17,10-5.71,10.86S717,958.09,716,952.93s1.8-10.07,6.35-11S730.74,944.59,731.78,949.75Z"/><ellipse class="cls-22" cx="723.67" cy="951.38" rx="7.87" ry="9.52" transform="translate(-173.64 161.66) rotate(-11.39)"/><polygon class="cls-24" points="724.29 946.19 720.04 947.09 718.41 948.09 722.82 947.09 722.82 947.09 724.29 946.19 724.29 946.19"/><polygon class="cls-23" points="727.21 956.48 722.82 957.47 718.43 953.27 718.43 948.08 722.82 947.09 727.21 951.29 727.21 956.48"/><polygon class="cls-25" points="728.57 950.45 724.29 946.19 722.82 947.09 727.21 951.29 727.21 951.32 728.57 950.48 728.57 950.45"/><polygon class="cls-24" points="727.21 951.32 727.21 956.46 728.57 955.63 728.57 950.48 727.21 951.32"/></g></svg>