<svg xmlns="http://www.w3.org/2000/svg" viewBox="0 0 869.2 580.67"><defs><style>.cls-1{fill:#ffb522;opacity:0.27;}.cls-2{fill:#606060;}.cls-3{fill:#424242;}.cls-4{fill:none;}.cls-5{fill:#545454;}.cls-10,.cls-6{fill:#7f7f7f;}.cls-7{fill:#6b6b6b;}.cls-8{fill:#9b9a9b;}.cls-9{fill:#7a7a7a;}.cls-10{stroke:#fff;stroke-miterlimit:10;stroke-width:0.05px;}.cls-11{fill:#c92d2d;}.cls-12{fill:#8e8e8e;}</style></defs><g id="Layer_2" data-name="Layer 2"><circle class="cls-1" cx="184.04" cy="332.35" r="184.04"/><path class="cls-2" d="M158.25,368.27,866.3,13.4,846.16,0,137.22,355.32ZM838.18,15.74c1.72,1,1.72,2.43,0,3.3a7.52,7.52,0,0,1-6.24-.16c-1.72-1-1.72-2.43,0-3.3A7.48,7.48,0,0,1,838.18,15.74Zm-14.69,7.37c1.72.95,1.71,2.43,0,3.29a7.44,7.44,0,0,1-6.24-.16c-1.72-.95-1.71-2.43,0-3.29A7.44,7.44,0,0,1,823.49,23.11Zm-14.7,7.36c1.72,1,1.71,2.43,0,3.3a7.48,7.48,0,0,1-6.24-.16c-1.72-1-1.71-2.43,0-3.3A7.52,7.52,0,0,1,808.79,30.47Zm-14.7,7.37c1.72.95,1.71,2.43,0,3.3a7.5,7.5,0,0,1-6.25-.17c-1.71-.95-1.71-2.43,0-3.29A7.44,7.44,0,0,1,794.09,37.84Zm-14.7,7.37c1.72.95,1.71,2.43,0,3.29a7.44,7.44,0,0,1-6.24-.16c-1.72-1-1.71-2.43,0-3.3A7.46,7.46,0,0,1,779.39,45.21ZM764.7,52.57c1.71,1,1.71,2.43,0,3.3a7.48,7.48,0,0,1-6.24-.16c-1.72-1-1.71-2.43,0-3.3A7.48,7.48,0,0,1,764.7,52.57ZM750,59.94c1.72,1,1.71,2.43,0,3.3a7.48,7.48,0,0,1-6.24-.17c-1.71-1-1.71-2.43,0-3.29A7.44,7.44,0,0,1,750,59.94ZM735.3,67.3c1.72,1,1.71,2.44,0,3.3a7.44,7.44,0,0,1-6.24-.16c-1.71-1-1.7-2.43,0-3.3A7.49,7.49,0,0,1,735.3,67.3Zm-14.7,7.37c1.72,1,1.71,2.43,0,3.3a7.45,7.45,0,0,1-6.23-.16c-1.72-1-1.71-2.44,0-3.3A7.45,7.45,0,0,1,720.6,74.67ZM705.91,82c1.71.95,1.7,2.43,0,3.3a7.46,7.46,0,0,1-6.23-.17c-1.72-1-1.71-2.43,0-3.3A7.48,7.48,0,0,1,705.91,82Zm-15.2,7.61c1.72,1,1.71,2.44,0,3.3a7.44,7.44,0,0,1-6.24-.16c-1.71-1-1.7-2.44,0-3.3A7.45,7.45,0,0,1,690.71,89.65Zm-8,4c1.71,1,1.7,2.44,0,3.3a7.42,7.42,0,0,1-6.23-.16c-1.71-1-1.7-2.43,0-3.3A7.46,7.46,0,0,1,682.69,93.67Zm-8,4c1.71,1,1.7,2.43,0,3.3a7.46,7.46,0,0,1-6.23-.17c-1.71-1-1.7-2.43,0-3.3A7.44,7.44,0,0,1,674.67,97.7Zm-8,4c1.72,1,1.71,2.43,0,3.3a7.46,7.46,0,0,1-6.23-.17c-1.72-1-1.71-2.43,0-3.3A7.42,7.42,0,0,1,666.64,101.72Zm-8,4c1.71,1,1.7,2.43,0,3.3a7.46,7.46,0,0,1-6.23-.17c-1.71-1-1.7-2.43,0-3.3A7.46,7.46,0,0,1,658.62,105.74Zm-8,4c1.71,1,1.7,2.43,0,3.3a7.42,7.42,0,0,1-6.23-.17c-1.71-1-1.7-2.43,0-3.3A7.46,7.46,0,0,1,650.6,109.76Zm-8,4c1.72,1,1.71,2.44,0,3.3a7.42,7.42,0,0,1-6.23-.17c-1.71-1-1.7-2.43,0-3.3A7.43,7.43,0,0,1,642.57,113.78Zm-8,4c1.71,1,1.7,2.44,0,3.3a7.43,7.43,0,0,1-6.22-.16c-1.72-1-1.7-2.44,0-3.31A7.46,7.46,0,0,1,634.55,117.8Zm-8,4c1.71,1,1.7,2.44,0,3.3a7.46,7.46,0,0,1-6.23-.16c-1.71-1-1.7-2.44,0-3.31A7.46,7.46,0,0,1,626.53,121.82Zm-8,4c1.71,1,1.7,2.44,0,3.3a7.42,7.42,0,0,1-6.23-.16c-1.71-1-1.7-2.44,0-3.31A7.46,7.46,0,0,1,618.51,125.84Zm-8,4c1.72,1,1.7,2.44,0,3.31a7.43,7.43,0,0,1-6.22-.17c-1.71-1-1.7-2.44,0-3.3A7.4,7.4,0,0,1,610.48,129.86Zm-8,4c1.71,1,1.7,2.44,0,3.31a7.46,7.46,0,0,1-6.23-.17c-1.71-1-1.69-2.44,0-3.3A7.45,7.45,0,0,1,602.46,133.88Zm-8,4c1.71,1,1.7,2.44,0,3.31a7.46,7.46,0,0,1-6.23-.17c-1.71-1-1.69-2.44,0-3.3A7.45,7.45,0,0,1,594.44,137.9Zm-8,4c1.71.95,1.69,2.43,0,3.3a7.42,7.42,0,0,1-6.23-.17c-1.71-1-1.7-2.44,0-3.3A7.42,7.42,0,0,1,586.42,141.93Zm-8,4c1.71,1,1.7,2.44,0,3.3a7.4,7.4,0,0,1-6.22-.17c-1.71-1-1.7-2.44,0-3.3A7.4,7.4,0,0,1,578.39,146Zm-8,4c1.71,1,1.7,2.44,0,3.3a7.42,7.42,0,0,1-6.23-.17c-1.71-1-1.69-2.44,0-3.3A7.4,7.4,0,0,1,570.37,150Zm-8,4c1.71,1,1.69,2.44,0,3.3a7.42,7.42,0,0,1-6.23-.17c-1.71-1-1.69-2.43,0-3.3A7.42,7.42,0,0,1,562.35,154Zm-8,4c1.71,1,1.7,2.44,0,3.31a7.43,7.43,0,0,1-6.22-.17c-1.71-1-1.7-2.44,0-3.31A7.39,7.39,0,0,1,554.32,158Zm-8,4c1.71,1,1.7,2.44,0,3.31a7.43,7.43,0,0,1-6.22-.17c-1.71-1-1.7-2.44,0-3.31A7.43,7.43,0,0,1,546.3,162Zm-8,4c1.71,1,1.69,2.44,0,3.31a7.46,7.46,0,0,1-6.23-.17c-1.71-1-1.69-2.44,0-3.31A7.43,7.43,0,0,1,538.28,166.05Zm-8,4c1.71,1,1.69,2.44,0,3.31a7.43,7.43,0,0,1-6.22-.17c-1.71-1-1.69-2.44,0-3.31A7.43,7.43,0,0,1,530.26,170.07ZM514.42,178c1.71,1,1.69,2.44,0,3.31a7.43,7.43,0,0,1-6.22-.18c-1.71-1-1.7-2.44,0-3.3A7.4,7.4,0,0,1,514.42,178ZM498.59,186c1.71,1,1.69,2.44,0,3.3a7.4,7.4,0,0,1-6.22-.17c-1.71-1-1.69-2.44,0-3.31A7.4,7.4,0,0,1,498.59,186Zm-15.84,7.93c1.71,1,1.69,2.44,0,3.31a7.39,7.39,0,0,1-6.22-.17c-1.71-1-1.69-2.44,0-3.31A7.37,7.37,0,0,1,482.75,193.88Zm-15.83,7.94c1.71,1,1.69,2.44,0,3.31a7.43,7.43,0,0,1-6.22-.18c-1.7-1-1.69-2.44,0-3.3A7.4,7.4,0,0,1,466.92,201.82Zm-15.84,7.93c1.71,1,1.69,2.45,0,3.31a7.37,7.37,0,0,1-6.21-.17c-1.71-1-1.69-2.44,0-3.31A7.41,7.41,0,0,1,451.08,209.75Zm-15.83,7.94c1.7,1,1.69,2.44,0,3.31a7.4,7.4,0,0,1-6.22-.17c-1.7-1-1.68-2.45,0-3.31A7.4,7.4,0,0,1,435.25,217.69Zm-15.83,7.94c1.7,1,1.68,2.44-.05,3.31a7.41,7.41,0,0,1-6.21-.18c-1.71-1-1.69-2.44,0-3.31A7.4,7.4,0,0,1,419.42,225.63Zm-15.84,7.93c1.7,1,1.69,2.45,0,3.31a7.4,7.4,0,0,1-6.22-.17c-1.7-1-1.68-2.45.05-3.31A7.37,7.37,0,0,1,403.58,233.56Zm-15.83,7.94c1.7,1,1.68,2.44-.05,3.31a7.34,7.34,0,0,1-6.21-.18c-1.7-1-1.68-2.44,0-3.31A7.43,7.43,0,0,1,387.75,241.5Zm-15.84,7.93c1.7,1,1.68,2.45,0,3.32a7.41,7.41,0,0,1-6.21-.18c-1.71-1-1.69-2.44,0-3.31A7.37,7.37,0,0,1,371.91,249.43Zm-15.83,7.94c1.7,1,1.68,2.45-.05,3.31a7.37,7.37,0,0,1-6.21-.17c-1.7-1-1.68-2.45.05-3.32A7.41,7.41,0,0,1,356.08,257.37Zm-15.84,7.94c1.7,1,1.68,2.44,0,3.31a7.34,7.34,0,0,1-6.21-.18c-1.7-1-1.68-2.44,0-3.31A7.34,7.34,0,0,1,340.24,265.31Zm-15.83,7.93c1.7,1,1.68,2.45-.05,3.32a7.41,7.41,0,0,1-6.21-.18c-1.7-1-1.68-2.45.05-3.31A7.37,7.37,0,0,1,324.41,273.24Zm-15.84,7.94c1.7,1,1.68,2.45-.05,3.31a7.35,7.35,0,0,1-6.2-.17c-1.7-1-1.68-2.45.05-3.32A7.39,7.39,0,0,1,308.57,281.18Zm-15.83,7.94c1.7,1,1.68,2.44-.05,3.31a7.34,7.34,0,0,1-6.21-.18c-1.7-1-1.67-2.45,0-3.31A7.34,7.34,0,0,1,292.74,289.12Zm-15.84,7.93c1.7,1,1.68,2.45,0,3.32a7.39,7.39,0,0,1-6.2-.18c-1.7-1-1.68-2.45.05-3.32A7.39,7.39,0,0,1,276.9,297.05ZM261.07,305c1.7,1,1.68,2.45-.05,3.31a7.34,7.34,0,0,1-6.21-.18c-1.69-1-1.67-2.45.06-3.31A7.31,7.31,0,0,1,261.07,305Zm-15.83,7.93c1.69,1,1.67,2.45-.06,3.32a7.31,7.31,0,0,1-6.2-.18c-1.7-1-1.67-2.45.05-3.32A7.41,7.41,0,0,1,245.24,312.92Zm-15.84,7.94c1.7,1,1.67,2.45-.05,3.32a7.39,7.39,0,0,1-6.2-.18c-1.7-1-1.68-2.45,0-3.32A7.35,7.35,0,0,1,229.4,320.86Zm-15.83,7.94c1.69,1,1.67,2.45-.06,3.31a7.31,7.31,0,0,1-6.2-.18c-1.7-1-1.67-2.45.06-3.31A7.32,7.32,0,0,1,213.57,328.8Zm-15.84,7.93c1.7,1,1.67,2.45,0,3.32a7.31,7.31,0,0,1-6.2-.18c-1.7-1-1.67-2.45.05-3.32A7.39,7.39,0,0,1,197.73,336.73Zm-15.83,7.94c1.69,1,1.67,2.45-.06,3.32a7.39,7.39,0,0,1-6.2-.18c-1.69-1-1.67-2.46.06-3.32A7.31,7.31,0,0,1,181.9,344.67Zm-15.84,7.94c1.7,1,1.67,2.45-.06,3.31a7.29,7.29,0,0,1-6.19-.18c-1.7-1-1.67-2.45.06-3.32A7.33,7.33,0,0,1,166.06,352.61Z"/><path class="cls-3" d="M159,392,869.2,36l-1.69-23.2L158.25,368.27Zm4.21-14.15a6.08,6.08,0,0,1,3.14-4.93c1.72-.87,3.13-.06,3.13,1.8a6.08,6.08,0,0,1-3.14,4.93C164.56,380.49,163.16,379.68,163.16,377.82Zm17.75-8.89A6.06,6.06,0,0,1,184,364c1.73-.87,3.14-.07,3.14,1.79a6.1,6.1,0,0,1-3.13,4.94C182.31,371.6,180.91,370.79,180.91,368.93ZM198.65,360a6.06,6.06,0,0,1,3.12-4.93c1.73-.87,3.14-.07,3.14,1.79a6.1,6.1,0,0,1-3.13,4.94C200.05,362.7,198.65,361.9,198.65,360Zm17.74-8.89a6.06,6.06,0,0,1,3.12-4.93c1.73-.87,3.14-.07,3.14,1.79a6,6,0,0,1-3.12,4.93C217.8,353.81,216.39,353,216.39,351.15Zm17.74-8.9a6.05,6.05,0,0,1,3.12-4.92c1.73-.87,3.14-.07,3.14,1.79a6.06,6.06,0,0,1-3.12,4.93C235.55,344.91,234.14,344.11,234.13,342.25Zm17.74-8.89a6.09,6.09,0,0,1,3.12-4.93c1.73-.86,3.14-.06,3.15,1.79a6.06,6.06,0,0,1-3.12,4.93C253.29,336,251.88,335.22,251.87,333.36Zm17.75-8.89a6.05,6.05,0,0,1,3.11-4.93c1.73-.86,3.14-.06,3.15,1.79a6.06,6.06,0,0,1-3.11,4.93C271,327.13,269.63,326.33,269.62,324.47Zm51.88-26a6,6,0,0,1,3.1-4.93c1.73-.86,3.15-.06,3.16,1.79a6,6,0,0,1-3.1,4.92C322.93,301.12,321.52,300.32,321.5,298.47Zm34.94-12.3,0,3.83-13.43,6.73,0-3.84ZM856.13,30.51a5.76,5.76,0,0,1-3,4.88c-1.73.86-3.19.09-3.25-1.74a5.76,5.76,0,0,1,3-4.88C854.61,27.91,856.06,28.68,856.13,30.51ZM828.4,44.41a5.79,5.79,0,0,1-3,4.88c-1.73.87-3.18.09-3.24-1.74a5.76,5.76,0,0,1,3-4.88C826.88,41.8,828.33,42.58,828.4,44.41Zm-17,8.52a5.79,5.79,0,0,1-3,4.88c-1.73.87-3.18.09-3.24-1.74a5.78,5.78,0,0,1,3-4.88C809.89,50.32,811.34,51.1,811.4,52.93Zm-21.15,10.6a5.79,5.79,0,0,1-3,4.88c-1.73.87-3.18.09-3.24-1.74a5.78,5.78,0,0,1,3-4.88C788.74,60.92,790.19,61.7,790.25,63.53ZM744,86.71a5.79,5.79,0,0,1-3,4.88c-1.73.87-3.17.09-3.23-1.74a5.84,5.84,0,0,1,3-4.89C742.5,84.1,744,84.88,744,86.71Zm-46.25,23.18a5.84,5.84,0,0,1-3,4.89c-1.73.87-3.18.08-3.23-1.75a5.83,5.83,0,0,1,3-4.89C696.26,107.27,697.7,108.05,697.75,109.89ZM651.5,133.07a5.84,5.84,0,0,1-3,4.89c-1.73.87-3.17.08-3.22-1.75a5.89,5.89,0,0,1,3-4.9C650,130.45,651.46,131.23,651.5,133.07Zm-46.24,23.18a5.9,5.9,0,0,1-3.06,4.9c-1.73.86-3.16.08-3.21-1.76a5.9,5.9,0,0,1,3.06-4.9C603.78,153.62,605.21,154.41,605.26,156.25ZM559,179.43a5.93,5.93,0,0,1-3.07,4.9c-1.73.87-3.16.08-3.19-1.76a5.91,5.91,0,0,1,3.06-4.91C557.54,176.8,559,177.59,559,179.43Zm-46.25,23.18a5.92,5.92,0,0,1-3.07,4.9c-1.73.87-3.16.08-3.19-1.76a5.91,5.91,0,0,1,3.07-4.91C511.3,200,512.72,200.77,512.76,202.61Zm-46.25,23.18a6,6,0,0,1-3.08,4.91c-1.73.87-3.15.07-3.18-1.77a5.93,5.93,0,0,1,3.08-4.91C465.06,223.15,466.48,223.94,466.51,225.79ZM420.26,249a6,6,0,0,1-3.09,4.91c-1.73.87-3.15.07-3.17-1.77a6,6,0,0,1,3.09-4.92C418.82,246.33,420.24,247.12,420.26,249ZM374,272.15a6,6,0,0,1-3.09,4.92c-1.73.86-3.15.07-3.17-1.78a6,6,0,0,1,3.1-4.92C372.57,269.5,374,270.3,374,272.15Zm-17.67,3.65L351,283.13v.78l0,4-2.57,1.29-.05-6.23c0-.16,0-.32,0-.46-.16-.94-.75-1.42-1.44-1.07a3.33,3.33,0,0,0-1.41,2.5,4,4,0,0,0,0,.49l.06,6.23L343,291.93l-.06-6.22v-.48h0c.12-3.29,1.83-6.69,3.95-7.75,1.73-.87,3.23.09,3.81,2.18L356.3,272Z"/><polygon class="cls-3" points="158.25 368.27 158.94 391.97 138.16 379.06 137.22 355.32 158.25 368.27"/><path class="cls-3" d="M163.12,394.6l69.42-34.8-1-24L158,368.4ZM225,349.5c1,2-.24,4.71-2.81,6s-5.47.69-6.49-1.34.25-4.71,2.82-6S224,347.48,225,349.5Zm-46.08,23.1c1,2-.24,4.7-2.81,6s-5.47.69-6.48-1.33.24-4.71,2.81-6S177.88,370.57,178.89,372.6Z"/><path class="cls-2" d="M198.17,361.9a10,10,0,0,1,4.67-1.18,3.4,3.4,0,0,1,1.6.41l293,182.41-11.62,5.83L194.64,368.08l-.06,0a1.63,1.63,0,0,1-.62-.66,2.49,2.49,0,0,1,.48-2.46A9.87,9.87,0,0,1,198.17,361.9Z"/><polygon class="cls-2" points="163.79 365.5 227.72 333.45 231.51 335.81 165.49 368.89 163.79 365.5"/><polygon class="cls-2" points="454.48 554.5 524.22 519.55 528 521.91 458.27 556.86 459.12 580.67 455.33 578.31 454.48 554.5"/><path class="cls-3" d="M459.12,580.67l69.63-34.89L528,521.91l-69.73,35Zm61.52-42.95c1,2-.25,4.71-2.82,6s-5.47.69-6.48-1.33.24-4.71,2.81-6S519.62,535.7,520.64,537.72Zm-46.08,23.1c1,2-.25,4.71-2.81,6s-5.47.69-6.49-1.33.25-4.71,2.81-6S473.54,558.79,474.56,560.82Z"/><polygon class="cls-2" points="157.99 368.4 163.79 365.5 165.49 368.89 161.78 370.76 161.89 373.4 163.12 394.6 158.94 391.97 158.04 370.06 157.99 368.4"/><polygon class="cls-4" points="242.6 346.59 238.59 355.71 242.59 346.6 242.6 346.59 242.6 346.59"/><polygon class="cls-5" points="242.6 346.59 242.6 346.59 242.6 346.59 242.59 346.6 238.53 345.96 248.72 344.04 253.21 344.75 253.17 344.75 253.17 344.75 242.6 346.59"/><path class="cls-6" d="M241.51,371.24h0v0l10.57-1.84,5.83-13.26-4.75-11.42-10.57,1.84-4,9.12-1.82,4.14,0,.07Zm.36-14.23c.9-4.89,3.76-8.47,6.4-8,.11,0,.21.06.32.09l.37,0c3,.55,4.75,5,3.85,9.86s-4.06,8.41-7.08,7.86l-.37-.1-.33,0C242.39,366.26,241,361.9,241.87,357Z"/><polygon class="cls-6" points="242.6 346.59 253.17 344.75 253.17 344.75 242.6 346.59 242.6 346.59"/><polygon class="cls-7" points="238.53 345.96 242.59 346.6 238.59 355.71 236.78 359.85 236.8 359.92 233.03 359.33 233 359.25 238.53 345.96"/><polygon class="cls-7" points="236.8 359.92 236.8 359.92 236.78 359.85 238.59 355.71 236.78 359.85 236.8 359.92"/><polygon class="cls-5" points="241.51 371.24 237.74 370.65 233.03 359.33 236.8 359.92 241.51 371.24"/><rect class="cls-5" x="239.16" y="359.45" height="12.26" transform="translate(-122 119.8) rotate(-22.57)"/><path class="cls-8" d="M251.42,358.75c.86-4.68-.41-8.87-2.83-9.64l.37,0c3,.55,4.75,5,3.85,9.86s-4.06,8.41-7.08,7.86l-.37-.1C247.9,366.91,250.57,363.44,251.42,358.75Z"/><path class="cls-9" d="M173.69,304.17c3.63-7.63,9.81-11.79,14.63-8.78l.27.2c-4.51-2.51-10.92,1.37-14.48,8.85s-2.91,15.75,1.38,18.74l-.3-.16C170.37,320,170.07,311.8,173.69,304.17Z"/><path class="cls-8" d="M190.49,314.66c-3.63,7.63-10.23,11.53-14.75,8.7a2.27,2.27,0,0,1-.25-.18C180.29,325.87,186.93,322.14,190.49,314.66Z"/><path class="cls-8" d="M188.59,295.59l.27.14c4.52,2.83,5.25,11.3,1.63,18.93C194,307.18,193.17,298.76,188.59,295.59Z"/><path class="cls-8" d="M175.49,323.18c4.8,2.69,11.44-1,15-8.52s2.68-15.9-1.9-19.07c-4.51-2.51-10.92,1.37-14.48,8.85S171.2,320.19,175.49,323.18Zm2.33-16.43c2-4.17,5.6-6.3,8.07-4.75s2.87,6.17.89,10.34-5.6,6.3-8.07,4.76S175.84,310.92,177.82,306.75Z"/><polygon class="cls-4" points="124.17 254 115.98 258.08 124.16 254.01 124.17 254 124.17 254"/><polygon class="cls-5" points="124.17 254 124.17 254 124.17 254 124.16 254.01 121.86 251.02 129.77 255.99 132.32 259.29 132.29 259.27 132.3 259.27 124.17 254"/><path class="cls-6" d="M108.51,271.08h0v0l8.13,5.27,11.9-5.92,3.76-11.17L124.17,254,116,258.08l-3.71,1.84,0,.07Z"/><polygon class="cls-6" points="124.17 254 132.3 259.27 132.29 259.27 124.17 254 124.17 254"/><polygon class="cls-6" points="121.86 251.02 124.16 254.01 115.98 258.08 112.27 259.92 112.25 259.99 110.11 257.21 110.13 257.14 121.86 251.02"/><polygon class="cls-7" points="112.25 259.99 112.25 259.99 112.27 259.92 115.98 258.08 112.27 259.92 112.25 259.99"/><polygon class="cls-5" points="108.51 271.08 106.37 268.3 110.11 257.21 112.25 259.99 108.51 271.08"/><polygon class="cls-5" points="112.25 259.99 108.51 271.08 108.51 271.08 112.25 259.99 112.25 259.99"/><rect class="cls-10" x="137.14" y="281.93" width="16.84" height="1.44" transform="translate(-168.86 235.58) rotate(-54.24)"/><rect class="cls-10" x="141.8" y="285.28" width="16.84" height="1.44" transform="translate(-169.65 240.76) rotate(-54.24)"/><rect class="cls-10" x="139.47" y="283.6" width="16.84" height="1.44" transform="translate(-169.25 238.17) rotate(-54.24)"/><rect class="cls-10" x="140.64" y="284.44" width="16.84" height="1.44" transform="translate(-169.45 239.47) rotate(-54.24)"/><rect class="cls-10" x="134.81" y="280.25" width="16.84" height="1.44" transform="translate(-168.47 233) rotate(-54.24)"/><rect class="cls-10" x="138.31" y="282.77" width="16.84" height="1.44" transform="translate(-169.06 236.88) rotate(-54.24)"/><rect class="cls-10" x="135.98" y="281.09" width="16.84" height="1.44" transform="translate(-168.67 234.29) rotate(-54.24)"/><path class="cls-10" d="M116.72,272.24l1.86,1.35L133.07,284l9.83-13.66-14.68-10.58-1.47-1.06c-3-1.49-7.21-.11-9.74,3.41S114.51,269.81,116.72,272.24Z"/><rect class="cls-10" x="130.15" y="276.89" width="16.84" height="1.44" transform="translate(-167.68 227.82) rotate(-54.24)"/><rect class="cls-10" x="132.48" y="278.57" width="16.84" height="1.44" transform="translate(-168.07 230.41) rotate(-54.24)"/><rect class="cls-10" x="133.65" y="279.41" width="16.84" height="1.44" transform="translate(-168.27 231.7) rotate(-54.24)"/><rect class="cls-10" x="131.32" y="277.73" width="16.84" height="1.44" transform="translate(-167.88 229.12) rotate(-54.24)"/><path class="cls-10" d="M153.79,299l-.92-.66.2-.28A6,6,0,0,0,153.79,299Z"/><path class="cls-10" d="M162.52,284.89l.19-.27.92.66A5.63,5.63,0,0,0,162.52,284.89Z"/><path class="cls-10" d="M152.4,296.49l-.69,1-1.17-.84,1.57-2.17A7.31,7.31,0,0,0,152.4,296.49Z"/><path class="cls-10" d="M158.82,285.11l1.56-2.16,1.17.83-.69,1A7.77,7.77,0,0,0,158.82,285.11Z"/><path class="cls-10" d="M159.22,282.11l-3.34,4.63a10.83,10.83,0,0,0-1.88,2,10.52,10.52,0,0,0-1.28,2.4l-3.34,4.64-1.17-.84,9.84-13.66Z"/><rect class="cls-10" x="144.13" y="286.96" width="16.84" height="1.44" transform="translate(-170.04 243.35) rotate(-54.24)"/><rect class="cls-10" x="142.97" y="286.12" width="16.84" height="1.44" transform="translate(-169.84 242.05) rotate(-54.24)"/><path class="cls-10" d="M155.88,286.74l3.34-4.63,1.16.84-1.56,2.16A9.13,9.13,0,0,0,155.88,286.74Z"/><path class="cls-10" d="M152.11,294.44l-1.57,2.17-1.16-.84,3.34-4.64A9.12,9.12,0,0,0,152.11,294.44Z"/><path class="cls-10" d="M153.07,298l-.2.28-1.16-.84.69-1A6.28,6.28,0,0,0,153.07,298Z"/><path class="cls-10" d="M160.86,284.74l.69-1,1.16.84-.19.27A6.54,6.54,0,0,0,160.86,284.74Z"/><path class="cls-11" d="M155.2,300l.26.19a5.82,5.82,0,0,1-.9-.52,6.24,6.24,0,0,1-.77-.68l.25.18Z"/><path class="cls-11" d="M163.88,285.46l-.25-.18a6.59,6.59,0,0,1,.89.51,5.65,5.65,0,0,1,.77.69l-.25-.18Z"/><path class="cls-12" d="M152.11,294.44a7,7,0,0,0,.29,2.05,6.35,6.35,0,0,0,.67,1.53,6.42,6.42,0,0,0,.72.93l.25.18,1.17.83.24.19a6.32,6.32,0,0,0,1.11.38,6.16,6.16,0,0,0,1.66.16,7.79,7.79,0,0,0,2-.38,9.69,9.69,0,0,0,4.82-3.62A9.8,9.8,0,0,0,167,291a8.05,8.05,0,0,0-.29-2.05,5.66,5.66,0,0,0-1.39-2.45l-.26-.19-1.16-.84-.26-.18a6,6,0,0,0-1.1-.39,6.19,6.19,0,0,0-1.67-.15,7.31,7.31,0,0,0-2,.37,9.13,9.13,0,0,0-2.94,1.63,10.21,10.21,0,0,0-1.88,2,11.42,11.42,0,0,0-1.29,2.4A9.32,9.32,0,0,0,152.11,294.44Z"/><polygon class="cls-4" points="195.46 376.35 191.45 385.48 195.45 376.36 195.46 376.35 195.46 376.35"/><polygon class="cls-5" points="195.46 376.35 195.46 376.35 195.46 376.35 195.45 376.36 191.39 375.72 201.58 373.81 206.07 374.51 206.03 374.52 206.03 374.51 195.46 376.35"/><path class="cls-6" d="M194.37,401h0v0L205,399.2l5.83-13.27L206,374.52l-10.57,1.83-4,9.13-1.82,4.14,0,.07Zm.36-14.23c.89-4.9,3.76-8.47,6.39-8a3,3,0,0,1,.32.09l.38,0c3,.55,4.75,5,3.85,9.85s-4.06,8.41-7.08,7.86a2.24,2.24,0,0,1-.37-.1l-.33,0C195.25,396,193.84,391.67,194.73,386.78Z"/><polygon class="cls-6" points="195.46 376.35 206.03 374.51 206.03 374.52 195.46 376.35 195.46 376.35"/><polygon class="cls-7" points="191.39 375.72 195.45 376.36 191.45 385.48 189.63 389.62 189.66 389.69 185.89 389.09 185.86 389.02 191.39 375.72"/><polygon class="cls-7" points="189.66 389.69 189.66 389.69 189.63 389.62 191.45 385.48 189.63 389.62 189.66 389.69"/><polygon class="cls-5" points="194.37 401.01 190.6 400.42 185.89 389.09 189.66 389.69 194.37 401.01"/><rect class="cls-5" x="192.02" y="389.22" height="12.26" transform="translate(-137.04 103.98) rotate(-22.57)"/><path class="cls-8" d="M204.28,388.52c.86-4.69-.41-8.87-2.84-9.64l.38,0c3,.55,4.75,5,3.85,9.85s-4.06,8.41-7.08,7.86a2.24,2.24,0,0,1-.37-.1C200.76,396.68,203.43,393.21,204.28,388.52Z"/><path class="cls-9" d="M131.64,331.4c3.62-7.63,9.8-11.79,14.62-8.78.1.06.18.13.27.19-4.51-2.5-10.92,1.37-14.47,8.85s-2.91,15.75,1.37,18.74c-.1-.06-.2-.1-.29-.16C128.32,347.23,128,339,131.64,331.4Z"/><path class="cls-8" d="M148.43,341.88c-3.62,7.63-10.22,11.53-14.75,8.7l-.25-.18C138.23,353.09,144.88,349.36,148.43,341.88Z"/><path class="cls-8" d="M146.53,322.81c.1.06.19.09.28.15,4.52,2.82,5.25,11.29,1.62,18.92C152,334.4,151.11,326,146.53,322.81Z"/><path class="cls-8" d="M133.43,350.4c4.8,2.69,11.45-1,15-8.52s2.68-15.9-1.9-19.07c-4.51-2.5-10.92,1.37-14.47,8.85S129.15,347.41,133.43,350.4ZM135.77,334c2-4.18,5.59-6.31,8.06-4.76s2.87,6.17.89,10.35-5.59,6.3-8.06,4.75S133.79,338.15,135.77,334Z"/><polygon class="cls-4" points="84.75 278.48 76.56 282.56 84.74 278.49 84.75 278.48 84.75 278.48"/><polygon class="cls-5" points="84.75 278.48 84.75 278.48 84.75 278.48 84.74 278.49 82.43 275.5 90.35 280.47 92.9 283.77 92.87 283.75 92.88 283.75 84.75 278.48"/><path class="cls-6" d="M69.09,295.56h0v0l8.13,5.27,11.9-5.92,3.76-11.18-8.12-5.27-8.19,4.08-3.71,1.84,0,.07Z"/><polygon class="cls-6" points="84.75 278.48 92.88 283.75 92.87 283.75 84.75 278.48 84.75 278.48"/><polygon class="cls-6" points="82.43 275.5 84.74 278.49 76.56 282.56 72.85 284.4 72.83 284.47 70.69 281.69 70.71 281.62 82.43 275.5"/><polygon class="cls-7" points="72.83 284.47 72.83 284.47 72.85 284.4 76.56 282.56 72.85 284.4 72.83 284.47"/><polygon class="cls-5" points="69.09 295.56 66.95 292.78 70.69 281.69 72.83 284.47 69.09 295.56"/><polygon class="cls-5" points="72.83 284.47 69.09 295.56 69.09 295.56 72.83 284.47 72.83 284.47"/><rect class="cls-10" x="97.72" y="306.4" width="16.84" height="1.44" transform="translate(-205.11 213.77) rotate(-54.24)"/><rect class="cls-10" x="102.38" y="309.76" width="16.84" height="1.44" transform="translate(-205.89 218.95) rotate(-54.24)"/><rect class="cls-10" x="100.05" y="308.08" width="16.84" height="1.44" transform="translate(-205.5 216.36) rotate(-54.24)"/><rect class="cls-10" x="101.22" y="308.92" width="16.84" height="1.44" transform="translate(-205.7 217.65) rotate(-54.24)"/><rect class="cls-10" x="95.39" y="304.73" width="16.84" height="1.44" transform="translate(-204.71 211.18) rotate(-54.24)"/><rect class="cls-10" x="98.89" y="307.24" width="16.84" height="1.44" transform="translate(-205.31 215.07) rotate(-54.24)"/><rect class="cls-10" x="96.56" y="305.57" width="16.84" height="1.44" transform="translate(-204.91 212.47) rotate(-54.24)"/><path class="cls-10" d="M77.3,296.72l1.86,1.35,14.49,10.42,9.83-13.65L88.8,284.26l-1.48-1.06c-3-1.5-7.2-.11-9.73,3.4S75.09,294.29,77.3,296.72Z"/><rect class="cls-10" x="90.73" y="301.37" width="16.84" height="1.44" transform="translate(-203.93 206) rotate(-54.24)"/><rect class="cls-10" x="93.06" y="303.05" width="16.84" height="1.44" transform="translate(-204.32 208.59) rotate(-54.24)"/><rect class="cls-10" x="94.23" y="303.89" width="16.84" height="1.44" transform="translate(-204.52 209.88) rotate(-54.24)"/><rect class="cls-10" x="91.9" y="302.21" width="16.84" height="1.44" transform="translate(-204.13 207.3) rotate(-54.24)"/><path class="cls-10" d="M114.37,323.42l-.92-.66.2-.27A5,5,0,0,0,114.37,323.42Z"/><path class="cls-10" d="M123.1,309.37l.19-.27.91.66A5.33,5.33,0,0,0,123.1,309.37Z"/><path class="cls-10" d="M113,321l-.69.95-1.17-.83,1.56-2.17A7.69,7.69,0,0,0,113,321Z"/><path class="cls-10" d="M119.4,309.59l1.56-2.17,1.17.84-.69,1A7.32,7.32,0,0,0,119.4,309.59Z"/><path class="cls-10" d="M119.8,306.58l-3.34,4.64a10.52,10.52,0,0,0-1.88,2,11,11,0,0,0-1.29,2.4L110,320.25l-1.17-.84,9.84-13.66Z"/><rect class="cls-10" x="104.71" y="311.44" width="16.84" height="1.44" transform="translate(-206.29 221.53) rotate(-54.24)"/><rect class="cls-10" x="103.55" y="310.6" width="16.84" height="1.44" transform="translate(-206.09 220.24) rotate(-54.24)"/><path class="cls-10" d="M116.46,311.22l3.34-4.64,1.16.84-1.56,2.17A9.13,9.13,0,0,0,116.46,311.22Z"/><path class="cls-10" d="M112.68,318.92l-1.56,2.17-1.16-.84,3.33-4.64A9.56,9.56,0,0,0,112.68,318.92Z"/><path class="cls-10" d="M113.65,322.49l-.2.27-1.16-.84L113,321A6.28,6.28,0,0,0,113.65,322.49Z"/><path class="cls-10" d="M121.44,309.22l.69-1,1.16.84-.19.27A6.58,6.58,0,0,0,121.44,309.22Z"/><path class="cls-11" d="M115.78,324.44l.25.18a5.35,5.35,0,0,1-.89-.51,5.06,5.06,0,0,1-.77-.69l.25.18Z"/><path class="cls-11" d="M124.46,309.94l-.26-.18a5.76,5.76,0,0,1,.9.51,5.59,5.59,0,0,1,.77.69l-.25-.18Z"/><path class="cls-12" d="M112.69,318.92A7,7,0,0,0,113,321a6.28,6.28,0,0,0,.67,1.52,6.51,6.51,0,0,0,.72.94l.25.17,1.17.84.24.19a6.32,6.32,0,0,0,1.11.38,6.16,6.16,0,0,0,1.66.16,7.79,7.79,0,0,0,2-.38,9.69,9.69,0,0,0,4.82-3.62,9.81,9.81,0,0,0,1.9-5.71,8.12,8.12,0,0,0-.29-2,7.39,7.39,0,0,0-.67-1.52,6.65,6.65,0,0,0-.73-.93l-.25-.18-1.16-.84-.26-.18a5.33,5.33,0,0,0-1.1-.39,6.19,6.19,0,0,0-1.67-.15,7.31,7.31,0,0,0-2,.37,9.29,9.29,0,0,0-2.94,1.62,10.57,10.57,0,0,0-1.88,2,11,11,0,0,0-1.29,2.4A9.32,9.32,0,0,0,112.69,318.92Z"/></g></svg>