<svg xmlns="http://www.w3.org/2000/svg" viewBox="0 0 583.76 875.58"><defs><style>.cls-1{fill:#ffb522;opacity:0.27;}.cls-2{fill:#959495;}.cls-2,.cls-3{stroke:#000;stroke-miterlimit:10;stroke-width:0.05px;}.cls-3{fill:#b7b7b7;}.cls-4{fill:#424242;}.cls-5{fill:none;stroke:#606060;stroke-linecap:round;stroke-linejoin:round;stroke-width:4px;}</style></defs><g id="Layer_2" data-name="Layer 2"><circle class="cls-1" cx="461.18" cy="122.58" r="122.58"/><rect class="cls-2" y="102.58" width="4" height="3"/><rect class="cls-3" y="97.58" width="4" height="5"/><rect class="cls-2" y="95.58" width="4" height="2"/><rect class="cls-3" x="28" y="98.08" width="1" height="5"/><rect class="cls-3" x="32" y="98.08" width="1" height="5"/><rect class="cls-3" x="30" y="98.08" width="1" height="5"/><rect class="cls-3" x="31" y="98.08" width="1" height="5"/><rect class="cls-3" x="26" y="98.08" width="1" height="5"/><rect class="cls-3" x="29" y="98.08" width="1" height="5"/><rect class="cls-3" x="27" y="98.08" width="1" height="5"/><rect class="cls-3" x="4" y="98.08" width="18" height="5"/><rect class="cls-3" x="22" y="98.08" width="1" height="5"/><rect class="cls-3" x="24" y="98.08" width="1" height="5"/><rect class="cls-3" x="25" y="98.08" width="1" height="5"/><rect class="cls-3" x="23" y="98.08" width="1" height="5"/><rect class="cls-3" x="39" y="98.08" width="1" height="5"/><rect class="cls-3" x="42" y="98.08" width="1" height="5"/><rect class="cls-3" x="41" y="98.08" width="1" height="5"/><rect class="cls-3" x="43" y="98.08" width="1" height="5"/><rect class="cls-3" x="40" y="98.08" width="1" height="5"/><rect class="cls-3" x="44" y="98.08" width="1" height="5"/><rect class="cls-3" x="37" y="98.08" width="1" height="5"/><rect class="cls-3" x="35" y="98.08" width="1" height="5"/><rect class="cls-3" x="34" y="98.08" width="1" height="5"/><rect class="cls-3" x="33" y="98.08" width="1" height="5"/><rect class="cls-3" x="36" y="98.08" width="1" height="5"/><rect class="cls-3" x="38" y="98.08" width="1" height="5"/><rect class="cls-2" y="156.23" width="4" height="3"/><rect class="cls-3" y="151.23" width="4" height="5"/><rect class="cls-2" y="149.23" width="4" height="2"/><rect class="cls-3" x="28" y="151.73" width="1" height="5"/><rect class="cls-3" x="32" y="151.73" width="1" height="5"/><rect class="cls-3" x="30" y="151.73" width="1" height="5"/><rect class="cls-3" x="31" y="151.73" width="1" height="5"/><rect class="cls-3" x="26" y="151.73" width="1" height="5"/><rect class="cls-3" x="29" y="151.73" width="1" height="5"/><rect class="cls-3" x="27" y="151.73" width="1" height="5"/><rect class="cls-3" x="4" y="151.73" width="18" height="5"/><rect class="cls-3" x="22" y="151.73" width="1" height="5"/><rect class="cls-3" x="24" y="151.73" width="1" height="5"/><rect class="cls-3" x="25" y="151.73" width="1" height="5"/><rect class="cls-3" x="23" y="151.73" width="1" height="5"/><rect class="cls-3" x="39" y="151.73" width="1" height="5"/><rect class="cls-3" x="42" y="151.73" width="1" height="5"/><rect class="cls-3" x="41" y="151.73" width="1" height="5"/><rect class="cls-3" x="43" y="151.73" width="1" height="5"/><rect class="cls-3" x="40" y="151.73" width="1" height="5"/><rect class="cls-3" x="44" y="151.73" width="1" height="5"/><rect class="cls-3" x="37" y="151.73" width="1" height="5"/><rect class="cls-3" x="35" y="151.73" width="1" height="5"/><rect class="cls-3" x="34" y="151.73" width="1" height="5"/><rect class="cls-3" x="33" y="151.73" width="1" height="5"/><rect class="cls-3" x="36" y="151.73" width="1" height="5"/><rect class="cls-3" x="38" y="151.73" width="1" height="5"/><path class="cls-4" d="M5.06,83.58v792h25v-792Zm12.5,773a3.5,3.5,0,1,1,3.5-3.5A3.5,3.5,0,0,1,17.56,856.58Zm0-16.44a3.5,3.5,0,1,1,3.5-3.5A3.5,3.5,0,0,1,17.56,840.14Zm0-16.45a3.5,3.5,0,1,1,3.5-3.5A3.49,3.49,0,0,1,17.56,823.69Zm0-16.44a3.5,3.5,0,1,1,3.5-3.5A3.5,3.5,0,0,1,17.56,807.25Zm0-16.45a3.5,3.5,0,1,1,3.5-3.5A3.49,3.49,0,0,1,17.56,790.8Zm0-16.44a3.5,3.5,0,1,1,3.5-3.5A3.5,3.5,0,0,1,17.56,774.36Zm0-16.45a3.5,3.5,0,1,1,3.5-3.5A3.49,3.49,0,0,1,17.56,757.91Zm0-16.44a3.5,3.5,0,1,1,3.5-3.5A3.5,3.5,0,0,1,17.56,741.47Zm0-16.44a3.5,3.5,0,1,1,3.5-3.5A3.5,3.5,0,0,1,17.56,725Zm0-16.45a3.5,3.5,0,1,1,3.5-3.5A3.5,3.5,0,0,1,17.56,708.58Zm0-17a3.5,3.5,0,1,1,3.5-3.5A3.5,3.5,0,0,1,17.56,691.58Zm0-9a3.5,3.5,0,1,1,3.5-3.5A3.5,3.5,0,0,1,17.56,682.61Zm0-9a3.5,3.5,0,1,1,3.5-3.5A3.5,3.5,0,0,1,17.56,673.63Zm0-9a3.5,3.5,0,1,1,3.5-3.5A3.49,3.49,0,0,1,17.56,664.65Zm0-9a3.5,3.5,0,1,1,3.5-3.5A3.5,3.5,0,0,1,17.56,655.68Zm0-9a3.5,3.5,0,1,1,3.5-3.5A3.5,3.5,0,0,1,17.56,646.7Zm0-9a3.5,3.5,0,1,1,3.5-3.5A3.49,3.49,0,0,1,17.56,637.72Zm0-9a3.5,3.5,0,1,1,3.5-3.5A3.5,3.5,0,0,1,17.56,628.75Zm0-9a3.5,3.5,0,1,1,3.5-3.5A3.49,3.49,0,0,1,17.56,619.77Zm0-9a3.5,3.5,0,1,1,3.5-3.5A3.5,3.5,0,0,1,17.56,610.8Zm0-9a3.5,3.5,0,1,1,3.5-3.5A3.5,3.5,0,0,1,17.56,601.82Zm0-9a3.5,3.5,0,1,1,3.5-3.5A3.49,3.49,0,0,1,17.56,592.84Zm0-9a3.5,3.5,0,1,1,3.5-3.5A3.5,3.5,0,0,1,17.56,583.87Zm0-9a3.5,3.5,0,1,1,3.5-3.5A3.5,3.5,0,0,1,17.56,574.89Zm0-9a3.5,3.5,0,1,1,3.5-3.5A3.49,3.49,0,0,1,17.56,565.91Zm0-9a3.5,3.5,0,1,1,3.5-3.5A3.5,3.5,0,0,1,17.56,556.94Zm0-9a3.5,3.5,0,1,1,3.5-3.5A3.49,3.49,0,0,1,17.56,548Zm0-9a3.5,3.5,0,1,1,3.5-3.5A3.5,3.5,0,0,1,17.56,539Zm0-9a3.5,3.5,0,1,1,3.5-3.5A3.5,3.5,0,0,1,17.56,530Zm0-9a3.5,3.5,0,1,1,3.5-3.5A3.49,3.49,0,0,1,17.56,521Zm0-9a3.5,3.5,0,1,1,3.5-3.5A3.5,3.5,0,0,1,17.56,512.06Zm0-17.72a3.5,3.5,0,1,1,3.5-3.5A3.5,3.5,0,0,1,17.56,494.34Zm0-17.71a3.5,3.5,0,1,1,3.5-3.5A3.5,3.5,0,0,1,17.56,476.63Zm0-17.72a3.5,3.5,0,1,1,3.5-3.5A3.5,3.5,0,0,1,17.56,458.91Zm0-17.72a3.5,3.5,0,1,1,3.5-3.5A3.49,3.49,0,0,1,17.56,441.19Zm0-17.71a3.5,3.5,0,1,1,3.5-3.5A3.5,3.5,0,0,1,17.56,423.48Zm0-17.72a3.5,3.5,0,1,1,3.5-3.5A3.5,3.5,0,0,1,17.56,405.76Zm0-17.72a3.5,3.5,0,1,1,3.5-3.5A3.49,3.49,0,0,1,17.56,388Zm0-17.71a3.5,3.5,0,1,1,3.5-3.5A3.5,3.5,0,0,1,17.56,370.33Zm0-17.72a3.5,3.5,0,1,1,3.5-3.5A3.5,3.5,0,0,1,17.56,352.61Zm0-17.72a3.5,3.5,0,1,1,3.5-3.5A3.49,3.49,0,0,1,17.56,334.89Zm0-17.71a3.5,3.5,0,1,1,3.5-3.5A3.5,3.5,0,0,1,17.56,317.18Zm0-17.72a3.5,3.5,0,1,1,3.5-3.5A3.5,3.5,0,0,1,17.56,299.46Zm0-17.71a3.5,3.5,0,1,1,3.5-3.5A3.5,3.5,0,0,1,17.56,281.75Zm0-17.72a3.5,3.5,0,1,1,3.5-3.5A3.5,3.5,0,0,1,17.56,264Zm0-17.72a3.5,3.5,0,1,1,3.5-3.5A3.49,3.49,0,0,1,17.56,246.31Zm0-17.71a3.5,3.5,0,1,1,3.5-3.5A3.5,3.5,0,0,1,17.56,228.6Zm0-17.72a3.5,3.5,0,1,1,3.5-3.5A3.5,3.5,0,0,1,17.56,210.88Zm0-17.72a3.5,3.5,0,1,1,3.5-3.5A3.49,3.49,0,0,1,17.56,193.16Zm0-17.71a3.5,3.5,0,1,1,3.5-3.5A3.5,3.5,0,0,1,17.56,175.45Zm0-17.72a3.5,3.5,0,1,1,3.5-3.5A3.5,3.5,0,0,1,17.56,157.73Zm0-17.72a3.5,3.5,0,1,1,3.5-3.5A3.49,3.49,0,0,1,17.56,140Zm0-17.71a3.5,3.5,0,1,1,3.5-3.5A3.5,3.5,0,0,1,17.56,122.3Zm0-17.72a3.5,3.5,0,1,1,3.5-3.5A3.5,3.5,0,0,1,17.56,104.58Z"/><rect class="cls-2" x="35.5" y="102.58" width="5" height="3"/><rect class="cls-3" x="35.5" y="97.58" width="5" height="5"/><rect class="cls-2" x="35.5" y="95.58" width="5" height="2"/><rect class="cls-2" x="35.5" y="156.23" width="5" height="3"/><rect class="cls-3" x="35.5" y="151.23" width="5" height="5"/><rect class="cls-2" x="35.5" y="149.23" width="5" height="2"/><path class="cls-4" d="M447.68,83.58v792h25v-792Zm9,769.5a3.5,3.5,0,1,1,3.5,3.5A3.5,3.5,0,0,1,456.68,853.08Zm0-16.44a3.5,3.5,0,1,1,3.5,3.5A3.5,3.5,0,0,1,456.68,836.64Zm0-16.45a3.5,3.5,0,1,1,3.5,3.5A3.5,3.5,0,0,1,456.68,820.19Zm0-16.44a3.5,3.5,0,1,1,3.5,3.5A3.5,3.5,0,0,1,456.68,803.75Zm0-16.45a3.5,3.5,0,1,1,3.5,3.5A3.5,3.5,0,0,1,456.68,787.3Zm0-16.44a3.5,3.5,0,1,1,3.5,3.5A3.5,3.5,0,0,1,456.68,770.86Zm0-16.45a3.5,3.5,0,1,1,3.5,3.5A3.5,3.5,0,0,1,456.68,754.41Zm0-16.44a3.5,3.5,0,1,1,3.5,3.5A3.5,3.5,0,0,1,456.68,738Zm0-16.44a3.5,3.5,0,1,1,3.5,3.5A3.5,3.5,0,0,1,456.68,721.53Zm0-16.45a3.5,3.5,0,1,1,3.5,3.5A3.5,3.5,0,0,1,456.68,705.08Zm0-17a3.5,3.5,0,1,1,3.5,3.5A3.5,3.5,0,0,1,456.68,688.08Zm0-9a3.5,3.5,0,1,1,3.5,3.5A3.5,3.5,0,0,1,456.68,679.11Zm0-9a3.5,3.5,0,1,1,3.5,3.5A3.5,3.5,0,0,1,456.68,670.13Zm0-9a3.5,3.5,0,1,1,3.5,3.5A3.5,3.5,0,0,1,456.68,661.15Zm0-9a3.5,3.5,0,1,1,3.5,3.5A3.5,3.5,0,0,1,456.68,652.18Zm0-9a3.5,3.5,0,1,1,3.5,3.5A3.5,3.5,0,0,1,456.68,643.2Zm0-9a3.5,3.5,0,1,1,3.5,3.5A3.5,3.5,0,0,1,456.68,634.22Zm0-9a3.5,3.5,0,1,1,3.5,3.5A3.5,3.5,0,0,1,456.68,625.25Zm0-9a3.5,3.5,0,1,1,3.5,3.5A3.5,3.5,0,0,1,456.68,616.27Zm0-9a3.5,3.5,0,1,1,3.5,3.5A3.5,3.5,0,0,1,456.68,607.3Zm0-9a3.5,3.5,0,1,1,3.5,3.5A3.5,3.5,0,0,1,456.68,598.32Zm0-9a3.5,3.5,0,1,1,3.5,3.5A3.5,3.5,0,0,1,456.68,589.34Zm0-9a3.5,3.5,0,1,1,3.5,3.5A3.5,3.5,0,0,1,456.68,580.37Zm0-9a3.5,3.5,0,1,1,3.5,3.5A3.5,3.5,0,0,1,456.68,571.39Zm0-9a3.5,3.5,0,1,1,3.5,3.5A3.5,3.5,0,0,1,456.68,562.41Zm0-9a3.5,3.5,0,1,1,3.5,3.5A3.5,3.5,0,0,1,456.68,553.44Zm0-9a3.5,3.5,0,1,1,3.5,3.5A3.5,3.5,0,0,1,456.68,544.46Zm0-9a3.5,3.5,0,1,1,3.5,3.5A3.5,3.5,0,0,1,456.68,535.49Zm0-9a3.5,3.5,0,1,1,3.5,3.5A3.5,3.5,0,0,1,456.68,526.51Zm0-9a3.5,3.5,0,1,1,3.5,3.5A3.5,3.5,0,0,1,456.68,517.53Zm0-9a3.5,3.5,0,1,1,3.5,3.5A3.5,3.5,0,0,1,456.68,508.56Zm0-17.72a3.5,3.5,0,1,1,3.5,3.5A3.5,3.5,0,0,1,456.68,490.84Zm0-17.71a3.5,3.5,0,1,1,3.5,3.5A3.5,3.5,0,0,1,456.68,473.13Zm0-17.72a3.5,3.5,0,1,1,3.5,3.5A3.5,3.5,0,0,1,456.68,455.41Zm0-17.72a3.5,3.5,0,1,1,3.5,3.5A3.5,3.5,0,0,1,456.68,437.69Zm0-17.71a3.5,3.5,0,1,1,3.5,3.5A3.5,3.5,0,0,1,456.68,420Zm0-17.72a3.5,3.5,0,1,1,3.5,3.5A3.5,3.5,0,0,1,456.68,402.26Zm0-17.72a3.5,3.5,0,1,1,3.5,3.5A3.5,3.5,0,0,1,456.68,384.54Zm0-17.71a3.5,3.5,0,1,1,3.5,3.5A3.5,3.5,0,0,1,456.68,366.83Zm0-17.72a3.5,3.5,0,1,1,3.5,3.5A3.5,3.5,0,0,1,456.68,349.11Zm0-17.72a3.5,3.5,0,1,1,3.5,3.5A3.5,3.5,0,0,1,456.68,331.39Zm0-17.71a3.5,3.5,0,1,1,3.5,3.5A3.5,3.5,0,0,1,456.68,313.68Zm0-17.72a3.5,3.5,0,1,1,3.5,3.5A3.5,3.5,0,0,1,456.68,296Zm0-17.71a3.5,3.5,0,1,1,3.5,3.5A3.5,3.5,0,0,1,456.68,278.25Zm0-17.72a3.5,3.5,0,1,1,3.5,3.5A3.5,3.5,0,0,1,456.68,260.53Zm0-17.72a3.5,3.5,0,1,1,3.5,3.5A3.5,3.5,0,0,1,456.68,242.81Zm0-17.71a3.5,3.5,0,1,1,3.5,3.5A3.5,3.5,0,0,1,456.68,225.1Zm0-17.72a3.5,3.5,0,1,1,3.5,3.5A3.5,3.5,0,0,1,456.68,207.38Zm0-17.72a3.5,3.5,0,1,1,3.5,3.5A3.5,3.5,0,0,1,456.68,189.66Zm0-17.71a3.5,3.5,0,1,1,3.5,3.5A3.5,3.5,0,0,1,456.68,172Zm0-17.72a3.5,3.5,0,1,1,3.5,3.5A3.5,3.5,0,0,1,456.68,154.23Zm0-17.72a3.5,3.5,0,1,1,3.5,3.5A3.5,3.5,0,0,1,456.68,136.51Zm0-17.71a3.5,3.5,0,1,1,3.5,3.5A3.5,3.5,0,0,1,456.68,118.8Zm0-17.72a3.5,3.5,0,1,1,3.5,3.5A3.5,3.5,0,0,1,456.68,101.08Z"/><rect class="cls-2" x="527.39" y="102.58" width="4" height="3"/><rect class="cls-3" x="527.39" y="97.58" width="4" height="5"/><rect class="cls-2" x="527.39" y="95.58" width="4" height="2"/><rect class="cls-3" x="502.39" y="98.08" width="1" height="5"/><rect class="cls-3" x="498.39" y="98.08" width="1" height="5"/><rect class="cls-3" x="500.39" y="98.08" width="1" height="5"/><rect class="cls-3" x="499.39" y="98.08" width="1" height="5"/><rect class="cls-3" x="504.39" y="98.08" width="1" height="5"/><rect class="cls-3" x="501.39" y="98.08" width="1" height="5"/><rect class="cls-3" x="503.39" y="98.08" width="1" height="5"/><rect class="cls-3" x="509.39" y="98.08" width="18" height="5"/><rect class="cls-3" x="508.39" y="98.08" width="1" height="5"/><rect class="cls-3" x="506.39" y="98.08" width="1" height="5"/><rect class="cls-3" x="505.39" y="98.08" width="1" height="5"/><rect class="cls-3" x="507.39" y="98.08" width="1" height="5"/><rect class="cls-3" x="491.39" y="98.08" width="1" height="5"/><rect class="cls-3" x="488.39" y="98.08" width="1" height="5"/><rect class="cls-3" x="489.39" y="98.08" width="1" height="5"/><rect class="cls-3" x="487.39" y="98.08" width="1" height="5"/><rect class="cls-3" x="490.39" y="98.08" width="1" height="5"/><rect class="cls-3" x="486.39" y="98.08" width="1" height="5"/><rect class="cls-3" x="493.39" y="98.08" width="1" height="5"/><rect class="cls-3" x="495.39" y="98.08" width="1" height="5"/><rect class="cls-3" x="496.39" y="98.08" width="1" height="5"/><rect class="cls-3" x="497.39" y="98.08" width="1" height="5"/><rect class="cls-3" x="494.39" y="98.08" width="1" height="5"/><rect class="cls-3" x="492.39" y="98.08" width="1" height="5"/><rect class="cls-2" x="527.39" y="156.23" width="4" height="3"/><rect class="cls-3" x="527.39" y="151.23" width="4" height="5"/><rect class="cls-2" x="527.39" y="149.23" width="4" height="2"/><rect class="cls-3" x="502.39" y="151.73" width="1" height="5"/><rect class="cls-3" x="498.39" y="151.73" width="1" height="5"/><rect class="cls-3" x="500.39" y="151.73" width="1" height="5"/><rect class="cls-3" x="499.39" y="151.73" width="1" height="5"/><rect class="cls-3" x="504.39" y="151.73" width="1" height="5"/><rect class="cls-3" x="501.39" y="151.73" width="1" height="5"/><rect class="cls-3" x="503.39" y="151.73" width="1" height="5"/><rect class="cls-3" x="509.39" y="151.73" width="18" height="5"/><rect class="cls-3" x="508.39" y="151.73" width="1" height="5"/><rect class="cls-3" x="506.39" y="151.73" width="1" height="5"/><rect class="cls-3" x="505.39" y="151.73" width="1" height="5"/><rect class="cls-3" x="507.39" y="151.73" width="1" height="5"/><rect class="cls-3" x="491.39" y="151.73" width="1" height="5"/><rect class="cls-3" x="488.39" y="151.73" width="1" height="5"/><rect class="cls-3" x="489.39" y="151.73" width="1" height="5"/><rect class="cls-3" x="487.39" y="151.73" width="1" height="5"/><rect class="cls-3" x="490.39" y="151.73" width="1" height="5"/><rect class="cls-3" x="486.39" y="151.73" width="1" height="5"/><rect class="cls-3" x="493.39" y="151.73" width="1" height="5"/><rect class="cls-3" x="495.39" y="151.73" width="1" height="5"/><rect class="cls-3" x="496.39" y="151.73" width="1" height="5"/><rect class="cls-3" x="497.39" y="151.73" width="1" height="5"/><rect class="cls-3" x="494.39" y="151.73" width="1" height="5"/><rect class="cls-3" x="492.39" y="151.73" width="1" height="5"/><line class="cls-5" x1="480.14" y1="92.99" x2="480.14" y2="108.18"/><line class="cls-5" x1="480.14" y1="146.64" x2="480.14" y2="161.82"/><line class="cls-5" x1="4.56" y1="92.99" x2="4.56" y2="108.18"/><line class="cls-5" x1="4.56" y1="146.64" x2="4.56" y2="161.82"/><rect class="cls-2" x="399.27" y="102.58" width="5" height="3"/><rect class="cls-3" x="399.27" y="97.58" width="5" height="5"/><rect class="cls-2" x="399.27" y="95.58" width="5" height="2"/><rect class="cls-2" x="399.27" y="156.23" width="5" height="3"/><rect class="cls-3" x="399.27" y="151.23" width="5" height="5"/><rect class="cls-2" x="399.27" y="149.23" width="5" height="2"/><polygon class="cls-4" points="428.22 83.58 428.22 161.58 423.22 161.58 423.22 129.08 35.22 129.08 35.22 161.58 30.22 161.58 30.22 83.58 35.22 83.58 35.22 116.08 423.22 116.08 423.22 83.58 428.22 83.58"/></g></svg>