<svg xmlns="http://www.w3.org/2000/svg" viewBox="0 0 441.79 399.34"><defs><style>.cls-1{fill:#ffb522;opacity:0.27;}.cls-2{fill:#959495;}.cls-2,.cls-3{stroke:#000;stroke-miterlimit:10;stroke-width:0.05px;}.cls-3{fill:#b7b7b7;}.cls-4{fill:none;stroke:#606060;stroke-linecap:round;stroke-linejoin:round;stroke-width:4px;}.cls-5{fill:#7c7c7c;}.cls-6{fill:#303030;}.cls-7{fill:#424242;}.cls-8{fill:#606060;}</style></defs><g id="Layer_2" data-name="Layer 2"><circle class="cls-1" cx="122.58" cy="276.76" r="122.58"/><circle class="cls-1" cx="319.21" cy="122.58" r="122.58"/><rect class="cls-2" x="116.8" y="274.76" width="2.9" height="4"/><rect class="cls-3" x="111.97" y="274.76" width="4.84" height="4"/><rect class="cls-2" x="110.03" y="274.76" width="1.93" height="4"/><rect class="cls-3" x="112.45" y="249.76" width="4.84" height="1"/><rect class="cls-3" x="112.45" y="245.76" width="4.84" height="1"/><rect class="cls-3" x="112.45" y="247.76" width="4.84" height="1"/><rect class="cls-3" x="112.45" y="246.76" width="4.84" height="1"/><rect class="cls-3" x="112.45" y="251.76" width="4.84" height="1"/><rect class="cls-3" x="112.45" y="248.76" width="4.84" height="1"/><rect class="cls-3" x="112.45" y="250.76" width="4.84" height="1"/><rect class="cls-3" x="112.45" y="256.76" width="4.84" height="18"/><rect class="cls-3" x="112.45" y="255.76" width="4.84" height="1"/><rect class="cls-3" x="112.45" y="253.76" width="4.84" height="1"/><rect class="cls-3" x="112.45" y="252.76" width="4.84" height="1"/><rect class="cls-3" x="112.45" y="254.76" width="4.84" height="1"/><rect class="cls-3" x="112.45" y="238.76" width="4.84" height="1"/><rect class="cls-3" x="112.45" y="235.76" width="4.84" height="1"/><rect class="cls-3" x="112.45" y="236.76" width="4.84" height="1"/><rect class="cls-3" x="112.45" y="234.76" width="4.84" height="1"/><rect class="cls-3" x="112.45" y="237.76" width="4.84" height="1"/><rect class="cls-3" x="112.45" y="233.76" width="4.84" height="1"/><rect class="cls-3" x="112.45" y="240.76" width="4.84" height="1"/><rect class="cls-3" x="112.45" y="242.76" width="4.84" height="1"/><rect class="cls-3" x="112.45" y="243.76" width="4.84" height="1"/><rect class="cls-3" x="112.45" y="244.76" width="4.84" height="1"/><rect class="cls-3" x="112.45" y="241.76" width="4.84" height="1"/><rect class="cls-3" x="112.45" y="239.76" width="4.84" height="1"/><line class="cls-4" x1="107.53" y1="227.51" x2="122.21" y2="227.51"/><rect class="cls-2" x="152.54" y="358.82" width="2.9" height="4"/><rect class="cls-3" x="147.7" y="358.82" width="4.84" height="4"/><rect class="cls-2" x="145.77" y="358.82" width="1.93" height="4"/><rect class="cls-3" x="148.19" y="333.82" width="4.84" height="1"/><rect class="cls-3" x="148.19" y="329.82" width="4.84" height="1"/><rect class="cls-3" x="148.19" y="331.82" width="4.84" height="1"/><rect class="cls-3" x="148.19" y="330.82" width="4.84" height="1"/><rect class="cls-3" x="148.19" y="335.82" width="4.84" height="1"/><rect class="cls-3" x="148.19" y="332.82" width="4.84" height="1"/><rect class="cls-3" x="148.19" y="334.82" width="4.84" height="1"/><rect class="cls-3" x="148.19" y="340.82" width="4.84" height="18"/><rect class="cls-3" x="148.19" y="339.82" width="4.84" height="1"/><rect class="cls-3" x="148.19" y="337.82" width="4.84" height="1"/><rect class="cls-3" x="148.19" y="336.82" width="4.84" height="1"/><rect class="cls-3" x="148.19" y="338.82" width="4.84" height="1"/><rect class="cls-3" x="148.19" y="322.82" width="4.84" height="1"/><rect class="cls-3" x="148.19" y="319.82" width="4.84" height="1"/><rect class="cls-3" x="148.19" y="320.82" width="4.84" height="1"/><rect class="cls-3" x="148.19" y="318.82" width="4.84" height="1"/><rect class="cls-3" x="148.19" y="321.82" width="4.84" height="1"/><rect class="cls-3" x="148.19" y="317.82" width="4.84" height="1"/><rect class="cls-3" x="148.19" y="324.82" width="4.84" height="1"/><rect class="cls-3" x="148.19" y="326.82" width="4.84" height="1"/><rect class="cls-3" x="148.19" y="327.82" width="4.84" height="1"/><rect class="cls-3" x="148.19" y="328.82" width="4.84" height="1"/><rect class="cls-3" x="148.19" y="325.82" width="4.84" height="1"/><rect class="cls-3" x="148.19" y="323.82" width="4.84" height="1"/><line class="cls-4" x1="143.26" y1="311.57" x2="157.95" y2="311.57"/><rect class="cls-2" x="122.58" y="328.16" width="2.9" height="4"/><rect class="cls-3" x="117.75" y="328.16" width="4.84" height="4"/><rect class="cls-2" x="115.81" y="328.16" width="1.93" height="4"/><rect class="cls-3" x="118.23" y="303.16" width="4.84" height="1"/><rect class="cls-3" x="118.23" y="299.16" width="4.84" height="1"/><rect class="cls-3" x="118.23" y="301.16" width="4.84" height="1"/><rect class="cls-3" x="118.23" y="300.16" width="4.84" height="1"/><rect class="cls-3" x="118.23" y="305.16" width="4.84" height="1"/><rect class="cls-3" x="118.23" y="302.16" width="4.84" height="1"/><rect class="cls-3" x="118.23" y="304.16" width="4.84" height="1"/><rect class="cls-3" x="118.23" y="310.16" width="4.84" height="18"/><rect class="cls-3" x="118.23" y="309.16" width="4.84" height="1"/><rect class="cls-3" x="118.23" y="307.16" width="4.84" height="1"/><rect class="cls-3" x="118.23" y="306.16" width="4.84" height="1"/><rect class="cls-3" x="118.23" y="308.16" width="4.84" height="1"/><rect class="cls-3" x="118.23" y="292.16" width="4.84" height="1"/><rect class="cls-3" x="118.23" y="289.16" width="4.84" height="1"/><rect class="cls-3" x="118.23" y="290.16" width="4.84" height="1"/><rect class="cls-3" x="118.23" y="288.16" width="4.84" height="1"/><rect class="cls-3" x="118.23" y="291.16" width="4.84" height="1"/><rect class="cls-3" x="118.23" y="287.16" width="4.84" height="1"/><rect class="cls-3" x="118.23" y="294.16" width="4.84" height="1"/><rect class="cls-3" x="118.23" y="296.16" width="4.84" height="1"/><rect class="cls-3" x="118.23" y="297.16" width="4.84" height="1"/><rect class="cls-3" x="118.23" y="298.16" width="4.84" height="1"/><rect class="cls-3" x="118.23" y="295.16" width="4.84" height="1"/><rect class="cls-3" x="118.23" y="293.16" width="4.84" height="1"/><line class="cls-4" x1="113.3" y1="280.91" x2="127.99" y2="280.91"/><rect class="cls-2" x="82.94" y="286.78" width="2.9" height="4"/><rect class="cls-3" x="78.11" y="286.78" width="4.84" height="4"/><rect class="cls-2" x="76.17" y="286.78" width="1.93" height="4"/><rect class="cls-3" x="78.59" y="261.78" width="4.84" height="1"/><rect class="cls-3" x="78.59" y="257.78" width="4.84" height="1"/><rect class="cls-3" x="78.59" y="259.78" width="4.84" height="1"/><rect class="cls-3" x="78.59" y="258.78" width="4.84" height="1"/><rect class="cls-3" x="78.59" y="263.78" width="4.84" height="1"/><rect class="cls-3" x="78.59" y="260.78" width="4.84" height="1"/><rect class="cls-3" x="78.59" y="262.78" width="4.84" height="1"/><rect class="cls-3" x="78.59" y="268.78" width="4.84" height="18"/><rect class="cls-3" x="78.59" y="267.78" width="4.84" height="1"/><rect class="cls-3" x="78.59" y="265.78" width="4.84" height="1"/><rect class="cls-3" x="78.59" y="264.78" width="4.84" height="1"/><rect class="cls-3" x="78.59" y="266.78" width="4.84" height="1"/><rect class="cls-3" x="78.59" y="250.78" width="4.84" height="1"/><rect class="cls-3" x="78.59" y="247.78" width="4.84" height="1"/><rect class="cls-3" x="78.59" y="248.78" width="4.84" height="1"/><rect class="cls-3" x="78.59" y="246.78" width="4.84" height="1"/><rect class="cls-3" x="78.59" y="249.78" width="4.84" height="1"/><rect class="cls-3" x="78.59" y="245.78" width="4.84" height="1"/><rect class="cls-3" x="78.59" y="252.78" width="4.84" height="1"/><rect class="cls-3" x="78.59" y="254.78" width="4.84" height="1"/><rect class="cls-3" x="78.59" y="255.78" width="4.84" height="1"/><rect class="cls-3" x="78.59" y="256.78" width="4.84" height="1"/><rect class="cls-3" x="78.59" y="253.78" width="4.84" height="1"/><rect class="cls-3" x="78.59" y="251.78" width="4.84" height="1"/><line class="cls-4" x1="73.66" y1="239.53" x2="88.35" y2="239.53"/><rect class="cls-2" x="301.06" y="138.06" width="2.9" height="4"/><rect class="cls-3" x="296.22" y="138.06" width="4.84" height="4"/><rect class="cls-2" x="294.29" y="138.06" width="1.93" height="4"/><rect class="cls-3" x="296.71" y="113.06" width="4.84" height="1"/><rect class="cls-3" x="296.71" y="109.06" width="4.84" height="1"/><rect class="cls-3" x="296.71" y="111.06" width="4.84" height="1"/><rect class="cls-3" x="296.71" y="110.06" width="4.84" height="1"/><rect class="cls-3" x="296.71" y="115.06" width="4.84" height="1"/><rect class="cls-3" x="296.71" y="112.06" width="4.84" height="1"/><rect class="cls-3" x="296.71" y="114.06" width="4.84" height="1"/><rect class="cls-3" x="296.71" y="120.06" width="4.84" height="18"/><rect class="cls-3" x="296.71" y="119.06" width="4.84" height="1"/><rect class="cls-3" x="296.71" y="117.06" width="4.84" height="1"/><rect class="cls-3" x="296.71" y="116.06" width="4.84" height="1"/><rect class="cls-3" x="296.71" y="118.06" width="4.84" height="1"/><rect class="cls-3" x="296.71" y="102.06" width="4.84" height="1"/><rect class="cls-3" x="296.71" y="99.06" width="4.84" height="1"/><rect class="cls-3" x="296.71" y="100.06" width="4.84" height="1"/><rect class="cls-3" x="296.71" y="98.06" width="4.84" height="1"/><rect class="cls-3" x="296.71" y="101.06" width="4.84" height="1"/><rect class="cls-3" x="296.71" y="97.06" width="4.84" height="1"/><rect class="cls-3" x="296.71" y="104.06" width="4.84" height="1"/><rect class="cls-3" x="296.71" y="106.06" width="4.84" height="1"/><rect class="cls-3" x="296.71" y="107.06" width="4.84" height="1"/><rect class="cls-3" x="296.71" y="108.06" width="4.84" height="1"/><rect class="cls-3" x="296.71" y="105.06" width="4.84" height="1"/><rect class="cls-3" x="296.71" y="103.06" width="4.84" height="1"/><line class="cls-4" x1="291.78" y1="90.81" x2="306.47" y2="90.81"/><rect class="cls-2" x="336.79" y="222.12" width="2.9" height="4"/><rect class="cls-3" x="331.96" y="222.12" width="4.84" height="4"/><rect class="cls-2" x="330.02" y="222.12" width="1.93" height="4"/><rect class="cls-3" x="332.44" y="197.12" width="4.84" height="1"/><rect class="cls-3" x="332.44" y="193.12" width="4.84" height="1"/><rect class="cls-3" x="332.44" y="195.12" width="4.84" height="1"/><rect class="cls-3" x="332.44" y="194.12" width="4.84" height="1"/><rect class="cls-3" x="332.44" y="199.12" width="4.84" height="1"/><rect class="cls-3" x="332.44" y="196.12" width="4.84" height="1"/><rect class="cls-3" x="332.44" y="198.12" width="4.84" height="1"/><rect class="cls-3" x="332.44" y="204.12" width="4.84" height="18"/><rect class="cls-3" x="332.44" y="203.12" width="4.84" height="1"/><rect class="cls-3" x="332.44" y="201.12" width="4.84" height="1"/><rect class="cls-3" x="332.44" y="200.12" width="4.84" height="1"/><rect class="cls-3" x="332.44" y="202.12" width="4.84" height="1"/><rect class="cls-3" x="332.44" y="186.12" width="4.84" height="1"/><rect class="cls-3" x="332.44" y="183.12" width="4.84" height="1"/><rect class="cls-3" x="332.44" y="184.12" width="4.84" height="1"/><rect class="cls-3" x="332.44" y="182.12" width="4.84" height="1"/><rect class="cls-3" x="332.44" y="185.12" width="4.84" height="1"/><rect class="cls-3" x="332.44" y="181.12" width="4.84" height="1"/><rect class="cls-3" x="332.44" y="188.12" width="4.84" height="1"/><rect class="cls-3" x="332.44" y="190.12" width="4.84" height="1"/><rect class="cls-3" x="332.44" y="191.12" width="4.84" height="1"/><rect class="cls-3" x="332.44" y="192.12" width="4.84" height="1"/><rect class="cls-3" x="332.44" y="189.12" width="4.84" height="1"/><rect class="cls-3" x="332.44" y="187.12" width="4.84" height="1"/><line class="cls-4" x1="327.52" y1="174.87" x2="342.2" y2="174.87"/><rect class="cls-2" x="306.84" y="191.46" width="2.9" height="4"/><rect class="cls-3" x="302" y="191.46" width="4.84" height="4"/><rect class="cls-2" x="300.07" y="191.46" width="1.93" height="4"/><rect class="cls-3" x="302.49" y="166.46" width="4.84" height="1"/><rect class="cls-3" x="302.49" y="162.46" width="4.84" height="1"/><rect class="cls-3" x="302.49" y="164.46" width="4.84" height="1"/><rect class="cls-3" x="302.49" y="163.46" width="4.84" height="1"/><rect class="cls-3" x="302.49" y="168.46" width="4.84" height="1"/><rect class="cls-3" x="302.49" y="165.46" width="4.84" height="1"/><rect class="cls-3" x="302.49" y="167.46" width="4.84" height="1"/><rect class="cls-3" x="302.49" y="173.46" width="4.84" height="18"/><rect class="cls-3" x="302.49" y="172.46" width="4.84" height="1"/><rect class="cls-3" x="302.49" y="170.46" width="4.84" height="1"/><rect class="cls-3" x="302.49" y="169.46" width="4.84" height="1"/><rect class="cls-3" x="302.49" y="171.46" width="4.84" height="1"/><rect class="cls-3" x="302.49" y="155.46" width="4.84" height="1"/><rect class="cls-3" x="302.49" y="152.46" width="4.84" height="1"/><rect class="cls-3" x="302.49" y="153.46" width="4.84" height="1"/><rect class="cls-3" x="302.49" y="151.46" width="4.84" height="1"/><rect class="cls-3" x="302.49" y="154.46" width="4.84" height="1"/><rect class="cls-3" x="302.49" y="150.46" width="4.84" height="1"/><rect class="cls-3" x="302.49" y="157.46" width="4.84" height="1"/><rect class="cls-3" x="302.49" y="159.46" width="4.84" height="1"/><rect class="cls-3" x="302.49" y="160.46" width="4.84" height="1"/><rect class="cls-3" x="302.49" y="161.46" width="4.84" height="1"/><rect class="cls-3" x="302.49" y="158.46" width="4.84" height="1"/><rect class="cls-3" x="302.49" y="156.46" width="4.84" height="1"/><line class="cls-4" x1="297.56" y1="144.21" x2="312.25" y2="144.21"/><rect class="cls-2" x="267.2" y="150.08" width="2.9" height="4"/><rect class="cls-3" x="262.36" y="150.08" width="4.84" height="4"/><rect class="cls-2" x="260.43" y="150.08" width="1.93" height="4"/><rect class="cls-3" x="262.85" y="125.08" width="4.84" height="1"/><rect class="cls-3" x="262.85" y="121.08" width="4.84" height="1"/><rect class="cls-3" x="262.85" y="123.08" width="4.84" height="1"/><rect class="cls-3" x="262.85" y="122.08" width="4.84" height="1"/><rect class="cls-3" x="262.85" y="127.08" width="4.84" height="1"/><rect class="cls-3" x="262.85" y="124.08" width="4.84" height="1"/><rect class="cls-3" x="262.85" y="126.08" width="4.84" height="1"/><rect class="cls-3" x="262.85" y="132.08" width="4.84" height="18"/><rect class="cls-3" x="262.85" y="131.08" width="4.84" height="1"/><rect class="cls-3" x="262.85" y="129.08" width="4.84" height="1"/><rect class="cls-3" x="262.85" y="128.08" width="4.84" height="1"/><rect class="cls-3" x="262.85" y="130.08" width="4.84" height="1"/><rect class="cls-3" x="262.85" y="114.08" width="4.84" height="1"/><rect class="cls-3" x="262.85" y="111.08" width="4.84" height="1"/><rect class="cls-3" x="262.85" y="112.08" width="4.84" height="1"/><rect class="cls-3" x="262.85" y="110.08" width="4.84" height="1"/><rect class="cls-3" x="262.85" y="113.08" width="4.84" height="1"/><rect class="cls-3" x="262.85" y="109.08" width="4.84" height="1"/><rect class="cls-3" x="262.85" y="116.08" width="4.84" height="1"/><rect class="cls-3" x="262.85" y="118.08" width="4.84" height="1"/><rect class="cls-3" x="262.85" y="119.08" width="4.84" height="1"/><rect class="cls-3" x="262.85" y="120.08" width="4.84" height="1"/><rect class="cls-3" x="262.85" y="117.08" width="4.84" height="1"/><rect class="cls-3" x="262.85" y="115.08" width="4.84" height="1"/><line class="cls-4" x1="257.92" y1="102.83" x2="272.61" y2="102.83"/><polygon class="cls-5" points="162.96 243.78 162.78 242.34 145.69 253.52 79.78 230.95 60.6 219.12 60.93 220.3 79.99 232.06 145.99 255.09 162.96 243.78"/><path class="cls-6" d="M145.69,253.52l17.09-11.18-32.43-42.6L107.82,184.2,60.6,219.12,79.78,231ZM110.6,198.28c0-1.45,1.82-2.29,4.18-1.87s4.31,1.92,4.36,3.36-1.82,2.29-4.18,1.88S110.65,199.73,110.6,198.28Zm5.05,25c-.05-1.45,1.82-2.29,4.18-1.88s4.31,1.92,4.36,3.37-1.82,2.29-4.18,1.88S115.7,224.73,115.65,223.28Zm29.44,18.16c-.05-1.45,1.82-2.29,4.18-1.88s4.31,1.92,4.36,3.37-1.82,2.29-4.18,1.88S145.14,242.89,145.09,241.44ZM76,218.71c-.05-1.45,1.82-2.29,4.18-1.88s4.31,1.93,4.36,3.37-1.82,2.29-4.18,1.88S76.09,220.16,76,218.71Z"/><polygon class="cls-5" points="347.37 107.63 347.19 106.19 330.1 117.36 264.19 94.8 245.01 82.96 245.34 84.15 264.4 95.91 330.4 118.93 347.37 107.63"/><path class="cls-6" d="M330.1,117.36l17.09-11.17-32.43-42.6-23-15.37L245,83,264.19,94.8ZM295,62.13c-.05-1.45,1.82-2.29,4.18-1.88s4.31,1.92,4.36,3.37-1.82,2.29-4.18,1.88S295.06,63.58,295,62.13Zm5.05,25c-.05-1.45,1.83-2.29,4.18-1.88s4.31,1.92,4.36,3.37-1.82,2.29-4.18,1.88S300.11,88.57,300.06,87.13Zm29.44,18.15c-.05-1.44,1.82-2.28,4.18-1.87s4.31,1.92,4.36,3.37-1.82,2.29-4.18,1.87S329.55,106.73,329.5,105.28ZM260.45,82.56c-.05-1.45,1.82-2.29,4.18-1.88s4.31,1.92,4.36,3.37-1.82,2.29-4.18,1.88S260.5,84,260.45,82.56Z"/><polygon class="cls-5" points="333.61 41.45 334.11 17.12 47.43 228.56 47.38 254.31 333.61 41.45"/><path class="cls-7" d="M334.1,17.12,317.28,6.81,30.41,218.29l17,10.27Zm-18.82-2.78c1.4-1,4.29-.78,6.45.55s2.8,3.23,1.41,4.26-4.28.78-6.45-.54S313.89,15.37,315.28,14.34ZM295.11,29.22c1.39-1,4.28-.79,6.45.54S304.37,33,303,34s-4.28.78-6.45-.54S293.72,30.24,295.11,29.22Zm-36,26.56c1.39-1,4.29-.79,6.46.53s2.82,3.23,1.42,4.25-4.28.79-6.46-.53S257.69,56.8,259.08,55.78ZM196.39,102c1.39-1,4.29-.79,6.48.52s2.83,3.22,1.44,4.24-4.3.79-6.48-.52S195,103,196.39,102Zm-35.67,26.29c1.39-1,4.3-.79,6.49.52s2.84,3.21,1.45,4.23-4.3.8-6.49-.51S159.33,129.31,160.72,128.28Zm-63,46.48c1.39-1,4.31-.8,6.51.51s2.85,3.19,1.46,4.22-4.3.8-6.51-.51S96.28,175.79,97.67,174.76Zm-36,26.56c1.4-1,4.31-.8,6.52.5S71,205,69.63,206s-4.31.81-6.51-.49S60.25,202.35,61.64,201.32ZM41.47,216.2c1.39-1,4.31-.81,6.52.49s2.87,3.18,1.47,4.21-4.31.8-6.52-.49S40.07,217.22,41.47,216.2Z"/><polygon class="cls-8" points="30.33 243.57 30.57 218.02 47.69 228.35 47.37 253.84 30.33 243.57"/></g></svg>