<svg xmlns="http://www.w3.org/2000/svg" viewBox="0 0 617.9 497.9"><defs><style>.cls-1{fill:#ffb522;opacity:0.27;}.cls-2{fill:#7c7c7c;}.cls-3{fill:#424242;}.cls-4{fill:#606060;}.cls-5{fill:#303030;}.cls-6{fill:#fff;}.cls-7{fill:#959495;}.cls-7,.cls-8{stroke:#000;stroke-miterlimit:10;stroke-width:0.05px;}.cls-8{fill:#b7b7b7;}.cls-9{fill:none;stroke:#606060;stroke-linecap:round;stroke-linejoin:round;stroke-width:4px;}</style></defs><g id="Layer_2" data-name="Layer 2"><circle class="cls-1" cx="429.08" cy="184.04" r="184.04"/><circle class="cls-1" cx="191.17" cy="313.86" r="184.04"/><polygon class="cls-2" points="440.59 183.52 441.09 159.19 154.41 370.63 154.36 396.38 440.59 183.52"/><path class="cls-3" d="M441.09,159.19l-16.83-10.31L137.39,360.36l17,10.27Zm-18.82-2.78c1.39-1,4.28-.78,6.45.55s2.79,3.23,1.4,4.26-4.28.78-6.45-.55S420.87,157.44,422.27,156.41Zm-20.18,14.87c1.39-1,4.28-.78,6.46.55s2.8,3.23,1.41,4.25-4.28.79-6.46-.54S400.7,172.31,402.09,171.28Zm-36,26.56c1.39-1,4.29-.78,6.47.54s2.81,3.22,1.42,4.25-4.29.79-6.47-.53S364.67,198.87,366.06,197.84Zm-62.69,46.22c1.39-1,4.3-.79,6.48.52s2.83,3.21,1.44,4.24-4.29.79-6.48-.52S302,245.08,303.37,244.06ZM267.7,270.35c1.4-1,4.3-.79,6.49.52s2.84,3.2,1.45,4.23-4.3.8-6.49-.52S266.31,271.38,267.7,270.35Zm-63,46.48c1.4-1,4.31-.8,6.51.5s2.85,3.2,1.46,4.22-4.3.81-6.5-.5S203.26,317.86,204.65,316.83Zm-36,26.56c1.4-1,4.32-.8,6.52.5s2.86,3.18,1.47,4.21-4.31.8-6.51-.5S167.23,344.42,168.62,343.39Zm-20.17,14.87c1.39-1,4.31-.8,6.52.5s2.87,3.18,1.48,4.21-4.31.8-6.52-.5S147.06,359.29,148.45,358.26Z"/><polygon class="cls-4" points="137.31 385.64 137.55 360.08 154.68 370.42 154.35 395.9 137.31 385.64"/><polygon class="cls-2" points="271.87 305.81 271.85 304.37 253.07 318.24 176.34 295.14 154.84 284.72 154.85 285.9 175.93 296.25 253.59 319.8 271.87 305.81"/><path class="cls-5" d="M253.07,318.24l18.78-13.87-45-44.72-23.75-11.12-48.25,36.19,21.5,10.42Zm-34.93-28.76c-.23-1.45,1.68-2.45,4.26-2.22s4.85,1.59,5.07,3.05-1.68,2.45-4.26,2.22S218.36,290.94,218.14,289.48Zm33.72,16c-.23-1.46,1.68-2.45,4.26-2.23s4.85,1.6,5.07,3.06-1.68,2.45-4.26,2.22S252.08,306.91,251.86,305.46Z"/><ellipse class="cls-6" cx="205.18" cy="257.54" rx="2.69" ry="4.54" transform="translate(-103.91 371.09) rotate(-71.63)"/><ellipse class="cls-6" cx="173.91" cy="282.04" rx="2.65" ry="4.48" transform="translate(-148.57 358.2) rotate(-71.63)"/><polygon class="cls-2" points="472.32 155.64 472.3 154.2 453.52 168.06 376.79 144.97 355.29 134.55 355.31 135.73 376.38 146.08 454.04 169.62 472.32 155.64"/><path class="cls-5" d="M453.52,168.07,472.3,154.2l-45-44.73L403.54,98.36l-48.25,36.19L376.79,145Zm-34.93-28.76c-.23-1.46,1.68-2.45,4.26-2.23s4.85,1.6,5.07,3.06-1.68,2.45-4.26,2.22S418.81,140.76,418.59,139.31Zm33.72,16c-.23-1.45,1.68-2.45,4.26-2.22s4.85,1.59,5.07,3.05-1.68,2.45-4.26,2.22S452.53,156.74,452.31,155.28Z"/><ellipse class="cls-6" cx="405.61" cy="108.9" rx="2.97" ry="5.01" transform="translate(174.42 459.51) rotate(-71.63)"/><ellipse class="cls-6" cx="374.55" cy="132.08" rx="2.8" ry="4.72" transform="translate(131.15 445.91) rotate(-71.63)"/><polygon class="cls-2" points="271.87 439.48 271.85 438.04 253.07 451.91 176.34 428.81 154.84 418.39 154.85 419.57 175.93 429.92 253.59 453.46 271.87 439.48"/><path class="cls-5" d="M253.07,451.91,271.85,438l-45-44.73L203.09,382.2l-48.25,36.19,21.5,10.42Zm-34.93-28.76c-.23-1.46,1.68-2.45,4.26-2.23s4.85,1.6,5.07,3.06-1.68,2.45-4.26,2.22S218.36,424.6,218.14,423.15Zm33.72,16c-.23-1.45,1.68-2.45,4.26-2.22s4.85,1.59,5.07,3.05-1.68,2.45-4.26,2.22S252.08,440.58,251.86,439.12Z"/><ellipse class="cls-6" cx="205.11" cy="391.13" rx="2.64" ry="4.45" transform="translate(-230.73 462.5) rotate(-71.63)"/><ellipse class="cls-6" cx="174.04" cy="415.86" rx="2.75" ry="4.65" transform="translate(-275.48 449.96) rotate(-71.63)"/><polygon class="cls-2" points="472.32 289.3 472.3 287.87 453.52 301.73 376.79 278.63 355.29 268.22 355.31 269.39 376.38 279.75 454.04 303.29 472.32 289.3"/><path class="cls-5" d="M453.52,301.73l18.78-13.86-45-44.73L403.54,232l-48.25,36.19,21.5,10.41ZM418.59,273c-.23-1.45,1.68-2.45,4.26-2.22s4.85,1.6,5.07,3.05-1.68,2.45-4.26,2.23S418.81,274.43,418.59,273Zm33.72,16c-.23-1.46,1.68-2.45,4.26-2.22s4.85,1.59,5.07,3-1.68,2.45-4.26,2.22S452.53,290.41,452.31,289Z"/><ellipse class="cls-6" cx="405.46" cy="242.6" rx="2.89" ry="4.88" transform="translate(47.43 550.93) rotate(-71.63)"/><ellipse class="cls-6" cx="374.6" cy="265.81" rx="2.84" ry="4.79" transform="translate(4.27 537.54) rotate(-71.63)"/><rect class="cls-7" x="169" y="182.04" width="2.9" height="4"/><rect class="cls-8" x="171.91" y="182.04" width="4.84" height="4"/><rect class="cls-7" x="176.74" y="182.04" width="1.93" height="4"/><rect class="cls-8" x="171.42" y="210.04" width="4.84" height="1"/><rect class="cls-8" x="171.42" y="214.04" width="4.84" height="1"/><rect class="cls-8" x="171.42" y="212.04" width="4.84" height="1"/><rect class="cls-8" x="171.42" y="213.04" width="4.84" height="1"/><rect class="cls-8" x="171.42" y="208.04" width="4.84" height="1"/><rect class="cls-8" x="171.42" y="211.04" width="4.84" height="1"/><rect class="cls-8" x="171.42" y="209.04" width="4.84" height="1"/><rect class="cls-8" x="171.42" y="186.04" width="4.84" height="18"/><rect class="cls-8" x="171.42" y="204.04" width="4.84" height="1"/><rect class="cls-8" x="171.42" y="206.04" width="4.84" height="1"/><rect class="cls-8" x="171.42" y="207.04" width="4.84" height="1"/><rect class="cls-8" x="171.42" y="205.04" width="4.84" height="1"/><rect class="cls-8" x="171.42" y="221.04" width="4.84" height="1"/><rect class="cls-8" x="171.42" y="224.04" width="4.84" height="1"/><rect class="cls-8" x="171.42" y="223.04" width="4.84" height="1"/><rect class="cls-8" x="171.42" y="225.04" width="4.84" height="1"/><rect class="cls-8" x="171.42" y="222.04" width="4.84" height="1"/><rect class="cls-8" x="171.42" y="226.04" width="4.84" height="1"/><rect class="cls-8" x="171.42" y="219.04" width="4.84" height="1"/><rect class="cls-8" x="171.42" y="217.04" width="4.84" height="1"/><rect class="cls-8" x="171.42" y="216.04" width="4.84" height="1"/><rect class="cls-8" x="171.42" y="215.04" width="4.84" height="1"/><rect class="cls-8" x="171.42" y="218.04" width="4.84" height="1"/><rect class="cls-8" x="171.42" y="220.04" width="4.84" height="1"/><line class="cls-9" x1="181.18" y1="233.29" x2="166.5" y2="233.29"/><rect class="cls-7" x="202.87" y="170.02" width="2.9" height="4"/><rect class="cls-8" x="205.77" y="170.02" width="4.84" height="4"/><rect class="cls-7" x="210.6" y="170.02" width="1.93" height="4"/><rect class="cls-8" x="205.28" y="198.02" width="4.84" height="1"/><rect class="cls-8" x="205.28" y="202.02" width="4.84" height="1"/><rect class="cls-8" x="205.28" y="200.02" width="4.84" height="1"/><rect class="cls-8" x="205.28" y="201.02" width="4.84" height="1"/><rect class="cls-8" x="205.28" y="196.02" width="4.84" height="1"/><rect class="cls-8" x="205.28" y="199.02" width="4.84" height="1"/><rect class="cls-8" x="205.28" y="197.02" width="4.84" height="1"/><rect class="cls-8" x="205.28" y="174.02" width="4.84" height="18"/><rect class="cls-8" x="205.28" y="192.02" width="4.84" height="1"/><rect class="cls-8" x="205.28" y="194.02" width="4.84" height="1"/><rect class="cls-8" x="205.28" y="195.02" width="4.84" height="1"/><rect class="cls-8" x="205.28" y="193.02" width="4.84" height="1"/><rect class="cls-8" x="205.28" y="209.02" width="4.84" height="1"/><rect class="cls-8" x="205.28" y="212.02" width="4.84" height="1"/><rect class="cls-8" x="205.28" y="211.02" width="4.84" height="1"/><rect class="cls-8" x="205.28" y="213.02" width="4.84" height="1"/><rect class="cls-8" x="205.28" y="210.02" width="4.84" height="1"/><rect class="cls-8" x="205.28" y="214.02" width="4.84" height="1"/><rect class="cls-8" x="205.28" y="207.02" width="4.84" height="1"/><rect class="cls-8" x="205.28" y="205.02" width="4.84" height="1"/><rect class="cls-8" x="205.28" y="204.02" width="4.84" height="1"/><rect class="cls-8" x="205.28" y="203.02" width="4.84" height="1"/><rect class="cls-8" x="205.28" y="206.02" width="4.84" height="1"/><rect class="cls-8" x="205.28" y="208.02" width="4.84" height="1"/><line class="cls-9" x1="215.04" y1="221.27" x2="200.36" y2="221.27"/><rect class="cls-7" x="368.19" y="45.97" width="2.9" height="4"/><rect class="cls-8" x="371.09" y="45.97" width="4.84" height="4"/><rect class="cls-7" x="375.93" y="45.97" width="1.93" height="4"/><rect class="cls-8" x="370.61" y="73.97" width="4.84" height="1"/><rect class="cls-8" x="370.61" y="77.97" width="4.84" height="1"/><rect class="cls-8" x="370.61" y="75.97" width="4.84" height="1"/><rect class="cls-8" x="370.61" y="76.97" width="4.84" height="1"/><rect class="cls-8" x="370.61" y="71.97" width="4.84" height="1"/><rect class="cls-8" x="370.61" y="74.97" width="4.84" height="1"/><rect class="cls-8" x="370.61" y="72.97" width="4.84" height="1"/><rect class="cls-8" x="370.61" y="49.97" width="4.84" height="18"/><rect class="cls-8" x="370.61" y="67.97" width="4.84" height="1"/><rect class="cls-8" x="370.61" y="69.97" width="4.84" height="1"/><rect class="cls-8" x="370.61" y="70.97" width="4.84" height="1"/><rect class="cls-8" x="370.61" y="68.97" width="4.84" height="1"/><rect class="cls-8" x="370.61" y="84.97" width="4.84" height="1"/><rect class="cls-8" x="370.61" y="87.97" width="4.84" height="1"/><rect class="cls-8" x="370.61" y="86.97" width="4.84" height="1"/><rect class="cls-8" x="370.61" y="88.97" width="4.84" height="1"/><rect class="cls-8" x="370.61" y="85.97" width="4.84" height="1"/><rect class="cls-8" x="370.61" y="89.97" width="4.84" height="1"/><rect class="cls-8" x="370.61" y="82.97" width="4.84" height="1"/><rect class="cls-8" x="370.61" y="80.97" width="4.84" height="1"/><rect class="cls-8" x="370.61" y="79.97" width="4.84" height="1"/><rect class="cls-8" x="370.61" y="78.97" width="4.84" height="1"/><rect class="cls-8" x="370.61" y="81.97" width="4.84" height="1"/><rect class="cls-8" x="370.61" y="83.97" width="4.84" height="1"/><line class="cls-9" x1="380.37" y1="97.22" x2="365.69" y2="97.22"/><rect class="cls-7" x="402.05" y="33.95" width="2.9" height="4"/><rect class="cls-8" x="404.96" y="33.95" width="4.84" height="4"/><rect class="cls-7" x="409.79" y="33.95" width="1.93" height="4"/><rect class="cls-8" x="404.47" y="61.95" width="4.84" height="1"/><rect class="cls-8" x="404.47" y="65.95" width="4.84" height="1"/><rect class="cls-8" x="404.47" y="63.95" width="4.84" height="1"/><rect class="cls-8" x="404.47" y="64.95" width="4.84" height="1"/><rect class="cls-8" x="404.47" y="59.95" width="4.84" height="1"/><rect class="cls-8" x="404.47" y="62.95" width="4.84" height="1"/><rect class="cls-8" x="404.47" y="60.95" width="4.84" height="1"/><rect class="cls-8" x="404.47" y="37.95" width="4.84" height="18"/><rect class="cls-8" x="404.47" y="55.95" width="4.84" height="1"/><rect class="cls-8" x="404.47" y="57.95" width="4.84" height="1"/><rect class="cls-8" x="404.47" y="58.95" width="4.84" height="1"/><rect class="cls-8" x="404.47" y="56.95" width="4.84" height="1"/><rect class="cls-8" x="404.47" y="72.95" width="4.84" height="1"/><rect class="cls-8" x="404.47" y="75.95" width="4.84" height="1"/><rect class="cls-8" x="404.47" y="74.95" width="4.84" height="1"/><rect class="cls-8" x="404.47" y="76.95" width="4.84" height="1"/><rect class="cls-8" x="404.47" y="73.95" width="4.84" height="1"/><rect class="cls-8" x="404.47" y="77.95" width="4.84" height="1"/><rect class="cls-8" x="404.47" y="70.95" width="4.84" height="1"/><rect class="cls-8" x="404.47" y="68.95" width="4.84" height="1"/><rect class="cls-8" x="404.47" y="67.95" width="4.84" height="1"/><rect class="cls-8" x="404.47" y="66.95" width="4.84" height="1"/><rect class="cls-8" x="404.47" y="69.95" width="4.84" height="1"/><rect class="cls-8" x="404.47" y="71.95" width="4.84" height="1"/><line class="cls-9" x1="414.23" y1="85.2" x2="399.55" y2="85.2"/><rect class="cls-7" x="165.62" y="460.06" width="4.2" height="7"/><rect class="cls-8" x="169.82" y="460.06" width="7" height="7"/><rect class="cls-7" x="176.82" y="460.06" width="2.8" height="7"/><rect class="cls-7" x="198.77" y="448.41" width="4.2" height="7"/><rect class="cls-8" x="202.97" y="448.41" width="7" height="7"/><rect class="cls-7" x="209.97" y="448.41" width="2.8" height="7"/><rect class="cls-7" x="368.19" y="318.51" width="4.2" height="7"/><rect class="cls-8" x="372.39" y="318.51" width="7" height="7"/><rect class="cls-7" x="379.39" y="318.51" width="2.8" height="7"/><rect class="cls-7" x="401.34" y="306.86" width="4.2" height="7"/><rect class="cls-8" x="405.54" y="306.86" width="7" height="7"/><rect class="cls-7" x="412.54" y="306.86" width="2.8" height="7"/></g></svg>