<svg xmlns="http://www.w3.org/2000/svg" viewBox="0 0 551.91 876.06"><defs><style>.cls-1{fill:#ffb522;opacity:0.27;}.cls-2{fill:#424242;}.cls-3{fill:#959495;}.cls-3,.cls-4{stroke:#000;stroke-miterlimit:10;stroke-width:0.05px;}.cls-4{fill:#b7b7b7;}.cls-5{fill:none;stroke:#606060;stroke-linecap:round;stroke-linejoin:round;stroke-width:4px;}</style></defs><g id="Layer_2" data-name="Layer 2"><circle class="cls-1" cx="122.58" cy="122.58" r="122.58"/><polygon class="cls-2" points="551.91 84.06 551.91 162.06 546.91 162.06 546.91 129.56 158.91 129.56 158.91 162.06 153.91 162.06 153.91 84.06 158.91 84.06 158.91 116.56 546.91 116.56 546.91 84.06 551.91 84.06"/><path class="cls-2" d="M107.27,84.06v792h25v-792Zm12.5,773a3.5,3.5,0,1,1,3.5-3.5A3.5,3.5,0,0,1,119.77,857.06Zm0-16.44a3.5,3.5,0,1,1,3.5-3.5A3.5,3.5,0,0,1,119.77,840.62Zm0-16.45a3.5,3.5,0,1,1,3.5-3.5A3.5,3.5,0,0,1,119.77,824.17Zm0-16.44a3.5,3.5,0,1,1,3.5-3.5A3.5,3.5,0,0,1,119.77,807.73Zm0-16.44a3.5,3.5,0,1,1,3.5-3.5A3.5,3.5,0,0,1,119.77,791.29Zm0-16.45a3.5,3.5,0,1,1,3.5-3.5A3.5,3.5,0,0,1,119.77,774.84Zm0-16.44a3.5,3.5,0,1,1,3.5-3.5A3.5,3.5,0,0,1,119.77,758.4Zm0-16.45a3.5,3.5,0,1,1,3.5-3.5A3.5,3.5,0,0,1,119.77,742Zm0-16.44a3.5,3.5,0,1,1,3.5-3.5A3.5,3.5,0,0,1,119.77,725.51Zm0-16.45a3.5,3.5,0,1,1,3.5-3.5A3.5,3.5,0,0,1,119.77,709.06Zm0-17a3.5,3.5,0,1,1,3.5-3.5A3.5,3.5,0,0,1,119.77,692.06Zm0-9a3.5,3.5,0,1,1,3.5-3.5A3.5,3.5,0,0,1,119.77,683.09Zm0-9a3.5,3.5,0,1,1,3.5-3.5A3.5,3.5,0,0,1,119.77,674.11Zm0-9a3.5,3.5,0,1,1,3.5-3.5A3.5,3.5,0,0,1,119.77,665.14Zm0-9a3.5,3.5,0,1,1,3.5-3.5A3.5,3.5,0,0,1,119.77,656.16Zm0-9a3.5,3.5,0,1,1,3.5-3.5A3.5,3.5,0,0,1,119.77,647.18Zm0-9a3.5,3.5,0,1,1,3.5-3.5A3.5,3.5,0,0,1,119.77,638.21Zm0-9a3.5,3.5,0,1,1,3.5-3.5A3.5,3.5,0,0,1,119.77,629.23Zm0-9a3.5,3.5,0,1,1,3.5-3.5A3.5,3.5,0,0,1,119.77,620.25Zm0-9a3.5,3.5,0,1,1,3.5-3.5A3.5,3.5,0,0,1,119.77,611.28Zm0-9a3.5,3.5,0,1,1,3.5-3.5A3.5,3.5,0,0,1,119.77,602.3Zm0-9a3.5,3.5,0,1,1,3.5-3.5A3.5,3.5,0,0,1,119.77,593.33Zm0-9a3.5,3.5,0,1,1,3.5-3.5A3.5,3.5,0,0,1,119.77,584.35Zm0-9a3.5,3.5,0,1,1,3.5-3.5A3.5,3.5,0,0,1,119.77,575.37Zm0-9a3.5,3.5,0,1,1,3.5-3.5A3.5,3.5,0,0,1,119.77,566.4Zm0-9a3.5,3.5,0,1,1,3.5-3.5A3.5,3.5,0,0,1,119.77,557.42Zm0-9a3.5,3.5,0,1,1,3.5-3.5A3.5,3.5,0,0,1,119.77,548.44Zm0-9a3.5,3.5,0,1,1,3.5-3.5A3.5,3.5,0,0,1,119.77,539.47Zm0-9a3.5,3.5,0,1,1,3.5-3.5A3.5,3.5,0,0,1,119.77,530.49Zm0-9a3.5,3.5,0,1,1,3.5-3.5A3.5,3.5,0,0,1,119.77,521.52Zm0-9a3.5,3.5,0,1,1,3.5-3.5A3.5,3.5,0,0,1,119.77,512.54Zm0-17.72a3.5,3.5,0,1,1,3.5-3.5A3.5,3.5,0,0,1,119.77,494.82Zm0-17.71a3.5,3.5,0,1,1,3.5-3.5A3.5,3.5,0,0,1,119.77,477.11Zm0-17.72a3.5,3.5,0,1,1,3.5-3.5A3.5,3.5,0,0,1,119.77,459.39Zm0-17.72a3.5,3.5,0,1,1,3.5-3.5A3.5,3.5,0,0,1,119.77,441.67Zm0-17.71a3.5,3.5,0,1,1,3.5-3.5A3.5,3.5,0,0,1,119.77,424Zm0-17.72a3.5,3.5,0,1,1,3.5-3.5A3.5,3.5,0,0,1,119.77,406.24Zm0-17.71a3.5,3.5,0,1,1,3.5-3.5A3.5,3.5,0,0,1,119.77,388.53Zm0-17.72a3.5,3.5,0,1,1,3.5-3.5A3.5,3.5,0,0,1,119.77,370.81Zm0-17.72a3.5,3.5,0,1,1,3.5-3.5A3.5,3.5,0,0,1,119.77,353.09Zm0-17.71a3.5,3.5,0,1,1,3.5-3.5A3.5,3.5,0,0,1,119.77,335.38Zm0-17.72a3.5,3.5,0,1,1,3.5-3.5A3.5,3.5,0,0,1,119.77,317.66Zm0-17.72a3.5,3.5,0,1,1,3.5-3.5A3.5,3.5,0,0,1,119.77,299.94Zm0-17.71a3.5,3.5,0,1,1,3.5-3.5A3.5,3.5,0,0,1,119.77,282.23Zm0-17.72a3.5,3.5,0,1,1,3.5-3.5A3.5,3.5,0,0,1,119.77,264.51Zm0-17.72a3.5,3.5,0,1,1,3.5-3.5A3.5,3.5,0,0,1,119.77,246.79Zm0-17.71a3.5,3.5,0,1,1,3.5-3.5A3.5,3.5,0,0,1,119.77,229.08Zm0-17.72a3.5,3.5,0,1,1,3.5-3.5A3.5,3.5,0,0,1,119.77,211.36Zm0-17.71a3.5,3.5,0,1,1,3.5-3.5A3.5,3.5,0,0,1,119.77,193.65Zm0-17.72a3.5,3.5,0,1,1,3.5-3.5A3.5,3.5,0,0,1,119.77,175.93Zm0-17.72a3.5,3.5,0,1,1,3.5-3.5A3.5,3.5,0,0,1,119.77,158.21Zm0-17.71a3.5,3.5,0,1,1,3.5-3.5A3.5,3.5,0,0,1,119.77,140.5Zm0-17.72a3.5,3.5,0,1,1,3.5-3.5A3.5,3.5,0,0,1,119.77,122.78Zm0-17.72a3.5,3.5,0,1,1,3.5-3.5A3.5,3.5,0,0,1,119.77,105.06Z"/><rect class="cls-3" x="48.56" y="103.06" width="4" height="3"/><rect class="cls-4" x="48.56" y="98.06" width="4" height="5"/><rect class="cls-3" x="48.56" y="96.06" width="4" height="2"/><rect class="cls-4" x="76.56" y="98.56" width="1" height="5"/><rect class="cls-4" x="80.56" y="98.56" width="1" height="5"/><rect class="cls-4" x="78.56" y="98.56" width="1" height="5"/><rect class="cls-4" x="79.56" y="98.56" width="1" height="5"/><rect class="cls-4" x="74.56" y="98.56" width="1" height="5"/><rect class="cls-4" x="77.56" y="98.56" width="1" height="5"/><rect class="cls-4" x="75.56" y="98.56" width="1" height="5"/><rect class="cls-4" x="52.56" y="98.56" width="18" height="5"/><rect class="cls-4" x="70.56" y="98.56" width="1" height="5"/><rect class="cls-4" x="72.56" y="98.56" width="1" height="5"/><rect class="cls-4" x="73.56" y="98.56" width="1" height="5"/><rect class="cls-4" x="71.56" y="98.56" width="1" height="5"/><rect class="cls-4" x="87.56" y="98.56" width="1" height="5"/><rect class="cls-4" x="90.56" y="98.56" width="1" height="5"/><rect class="cls-4" x="89.56" y="98.56" width="1" height="5"/><rect class="cls-4" x="91.56" y="98.56" width="1" height="5"/><rect class="cls-4" x="88.56" y="98.56" width="1" height="5"/><rect class="cls-4" x="92.56" y="98.56" width="1" height="5"/><rect class="cls-4" x="85.56" y="98.56" width="1" height="5"/><rect class="cls-4" x="83.56" y="98.56" width="1" height="5"/><rect class="cls-4" x="82.56" y="98.56" width="1" height="5"/><rect class="cls-4" x="81.56" y="98.56" width="1" height="5"/><rect class="cls-4" x="84.56" y="98.56" width="1" height="5"/><rect class="cls-4" x="86.56" y="98.56" width="1" height="5"/><rect class="cls-3" x="176.85" y="103.06" width="5" height="3"/><rect class="cls-4" x="176.85" y="98.06" width="5" height="5"/><rect class="cls-3" x="176.85" y="96.06" width="5" height="2"/><rect class="cls-3" x="48.56" y="156.71" width="4" height="3"/><rect class="cls-4" x="48.56" y="151.71" width="4" height="5"/><rect class="cls-3" x="48.56" y="149.71" width="4" height="2"/><rect class="cls-4" x="76.56" y="152.21" width="1" height="5"/><rect class="cls-4" x="80.56" y="152.21" width="1" height="5"/><rect class="cls-4" x="78.56" y="152.21" width="1" height="5"/><rect class="cls-4" x="79.56" y="152.21" width="1" height="5"/><rect class="cls-4" x="74.56" y="152.21" width="1" height="5"/><rect class="cls-4" x="77.56" y="152.21" width="1" height="5"/><rect class="cls-4" x="75.56" y="152.21" width="1" height="5"/><rect class="cls-4" x="52.56" y="152.21" width="18" height="5"/><rect class="cls-4" x="70.56" y="152.21" width="1" height="5"/><rect class="cls-4" x="72.56" y="152.21" width="1" height="5"/><rect class="cls-4" x="73.56" y="152.21" width="1" height="5"/><rect class="cls-4" x="71.56" y="152.21" width="1" height="5"/><rect class="cls-4" x="87.56" y="152.21" width="1" height="5"/><rect class="cls-4" x="90.56" y="152.21" width="1" height="5"/><rect class="cls-4" x="89.56" y="152.21" width="1" height="5"/><rect class="cls-4" x="91.56" y="152.21" width="1" height="5"/><rect class="cls-4" x="88.56" y="152.21" width="1" height="5"/><rect class="cls-4" x="92.56" y="152.21" width="1" height="5"/><rect class="cls-4" x="85.56" y="152.21" width="1" height="5"/><rect class="cls-4" x="83.56" y="152.21" width="1" height="5"/><rect class="cls-4" x="82.56" y="152.21" width="1" height="5"/><rect class="cls-4" x="81.56" y="152.21" width="1" height="5"/><rect class="cls-4" x="84.56" y="152.21" width="1" height="5"/><rect class="cls-4" x="86.56" y="152.21" width="1" height="5"/><rect class="cls-3" x="176.85" y="156.71" width="5" height="3"/><rect class="cls-4" x="176.85" y="151.71" width="5" height="5"/><rect class="cls-3" x="176.85" y="149.71" width="5" height="2"/><line class="cls-5" x1="99.81" y1="93.47" x2="99.81" y2="108.66"/><line class="cls-5" x1="99.81" y1="147.12" x2="99.81" y2="162.31"/></g></svg>